<?xml version="1.0" encoding="utf-8"?>
<!-- Generator: Adobe Illustrator 16.0.0, SVG Export Plug-In . SVG Version: 6.00 Build 0)  -->
<!DOCTYPE svg PUBLIC "-//W3C//DTD SVG 1.1//EN" "http://www.w3.org/Graphics/SVG/1.1/DTD/svg11.dtd">
<svg version="1.1" id="Layer_1" xmlns="http://www.w3.org/2000/svg" xmlns:xlink="http://www.w3.org/1999/xlink" x="0px" y="0px"
	 width="600px" height="600px" viewBox="0 0 600 600" enable-background="new 0 0 600 600" xml:space="preserve">
<path fill="#FFFFFF" stroke="#231F20" stroke-width="2" stroke-miterlimit="10" d="M474.082,191.794
	c3.473-3.691,11.363,2.907,7.938,6.577C478.73,201.896,470.454,195.648,474.082,191.794"/>
<path fill="#FFFFFF" stroke="#231F20" stroke-width="2" stroke-miterlimit="10" d="M474.082,191.794
	c3.628-3.856,11.113,3.175,7.938,6.577C478.844,201.773,470.452,195.65,474.082,191.794z"/>
<path fill="#FFFFFF" stroke="#231F20" stroke-width="2" stroke-miterlimit="10" d="M497.825,181.588
	c5.875-0.966,5.562,8.131,1.407,10.063C492.991,194.554,491.496,182.629,497.825,181.588"/>
<path fill="#FFFFFF" stroke="#231F20" stroke-width="2" stroke-miterlimit="10" d="M497.825,181.588
	c6.434-1.059,5.599,9.979,0,10.433C492.227,192.474,492.311,182.495,497.825,181.588z"/>
<path fill="#FFFFFF" stroke="#231F20" stroke-width="2" stroke-miterlimit="10" d="M373.834,278.971
	c1.033,3.813,4.232,12.852,9.667,11.387c4.84-1.304,7.057-9.316,8.25-13.513C385.779,277.554,379.807,278.263,373.834,278.971z"/>
<path fill="#FFFFFF" stroke="#231F20" stroke-width="2" stroke-miterlimit="10" d="M395.154,276.845
	c2.438,3.633,7.716,11.793,12.929,10.886c5.256-0.914,6.308-11.526,6.803-15.649C408.309,273.669,401.73,275.257,395.154,276.845z"
	/>
<path fill="#FFFFFF" stroke="#231F20" stroke-width="2" stroke-miterlimit="10" d="M419.196,272.082
	c2.921,3.355,8.883,9.34,13.834,6.889c4.901-2.428,3.994-10.573,3.175-14.958C430.536,266.703,424.865,269.393,419.196,272.082z"/>
<path fill="#FFFFFF" stroke="#231F20" stroke-width="2" stroke-miterlimit="10" d="M441.194,261.649
	c3.146,3.861,11.666,11.552,16.468,5.919c3.479-4.079,2.914-11.38,2.355-16.353C453.745,254.694,447.47,258.171,441.194,261.649z"/>
<path fill="#FFFFFF" stroke="#231F20" stroke-width="2" stroke-miterlimit="10" d="M462.288,249.628
	c2.881,3.715,13.062,12.993,16.466,5.09c2.239-5.2,0.664-12.269-0.589-17.564C472.872,241.312,467.579,245.471,462.288,249.628z"/>
<path fill="#FFFFFF" stroke="#231F20" stroke-width="2" stroke-miterlimit="10" d="M480.885,235.567
	c2.729,2.907,13.435,11.969,16.46,5.027c2.288-5.244-1.911-13.28-4.213-17.956C489.05,226.948,484.968,231.257,480.885,235.567z"/>
<path fill="#FFFFFF" stroke="#231F20" stroke-width="2" stroke-miterlimit="10" d="M495.173,219.691
	c3.068,2.143,15.747,10.105,17.62,3.132c1.42-5.287-3.023-12.364-5.599-16.74C503.188,210.619,499.181,215.155,495.173,219.691z"/>
<path fill="#FFFFFF" stroke="#231F20" stroke-width="2" stroke-miterlimit="10" d="M405.02,299.525
	c0.743-2.174,2.984-9.547,6.021-9.268c3.402,0.313,6.498,5.797,8.157,8.36C414.471,298.921,409.745,299.223,405.02,299.525z"/>
<path fill="#FFFFFF" stroke="#231F20" stroke-width="2" stroke-miterlimit="10" d="M425.545,298.164
	c0.768-4.062,2.188-15.055,7.032-16.33c5.019-1.32,12.059,9.699,14.514,13.054C439.909,295.98,432.729,297.072,425.545,298.164z"/>
<path fill="#FFFFFF" stroke="#231F20" stroke-width="2" stroke-miterlimit="10" d="M450.751,291.814
	c-0.494-3.734-2.104-15.266,3.013-16.638c4.646-1.246,10.687,5.538,13.518,8.485C461.77,286.379,456.26,289.096,450.751,291.814z"/>
<path fill="#FFFFFF" stroke="#231F20" stroke-width="2" stroke-miterlimit="10" d="M470,283.661
	c-0.791-5.425-2.512-13.775,0.318-18.799c2.838-5.039,14.443,2.571,17.599,4.508C481.943,274.133,475.971,278.897,470,283.661z"/>
<path fill="#FFFFFF" stroke="#231F20" stroke-width="2" stroke-miterlimit="10" d="M493.359,266.185
	c-1.506-4.096-5.146-15.795,1.244-17.67c5.209-1.527,11.432,5.746,14.402,9.165C503.792,260.515,498.576,263.35,493.359,266.185z"/>
<path fill="#FFFFFF" stroke="#231F20" stroke-width="2" stroke-miterlimit="10" d="M371,327.195c4.646,1.183,10.182,2.6,13.89,5.781
	c4.874,4.184-2.809,6.879-6.208,7.146c2.519,1.571,12.374,9.304,6.193,12.044c-4.661,2.066-11.618-0.169-16.257-1.5
	c3.188,4.71,2.271,12.352-4.777,9.605c-5.469-2.131-10.337-6.261-14.7-10.1c-1.649-1.451,2.646-7.479,3.529-8.938
	C356.698,334.598,362.795,327.941,371,327.195"/>
<path fill="#FFFFFF" stroke="#231F20" stroke-width="2" stroke-miterlimit="10" d="M504.926,194.516
	c3.619-7.295,2.79-19.338-7.756-19.926c-7.589-0.423-10.673,14.666-7.667,19.926c-5.562-6.557-14.159-13.924-20.246-4.201
	c-4.032,6.438,7.782,13.267,5.896,15.561c-16.746,20.333-39.391,30.774-65.385,33.313c-3.059,0.299-15.851,3.002-16.714-0.781
	c-1.521-6.666-5.223-13.207-11.174-16.831c-14.116-8.593-35.873,0.232-29.818,18.328c-17.323-9.174-42.465-5.896-38.558,18.568
	c-9.243-9.954-25.035-2.212-22.68,11.34c-9.344-9.033-24.14-8.289-29.031,4.99c-4.717-8.441-20.486-11.842-24.041,0
	c-1.958-9.008-14.713-11.143-20.866-4.99c-1.067-11.402-14.989-13.265-20.412-3.629c0.383-11.457-12.008-11.765-19.05-5.896
	c4.44-8.199-1.238-16.784-10.433-16.784c5.699-5.699,6.333-15.016-1.814-18.812c6.077-2.117,9.705-9.213,5.442-14.753
	c10.314,0,7.241-8.314,11.631-13.35c5.289-6.066,1.424-11.306-5.563-9.979c-18.406,3.498-34.642,20.378-43.311,36.043
	c-20.11,36.337-14.867,83.287,15.027,112.6c30.166,29.581,76.735,39.04,117.622,39.212c19.14,0.081,37.488-2.801,55.608-9.132
	c11.129-3.89,22.088-8.716,32.041-15.077c4.03-2.576,7.939-5.432,11.336-8.812c1.474-1.465,2.674-4.404,4.824-4.561
	c28.853-2.061,58.641-8.427,84.924-20.621c17.58-8.158,34.286-20.174,47.937-33.931c5.438-5.482,13.117-13.466,12.922-21.904
	c-0.296-12.604-25.726,6.056-30.481,9.197c-15.188,10.029-31.64,18.5-49.329,23.096c-19.517,5.07-41.113,4.727-60.422-1.284
	c-6.289-1.958-13.729-4.823-17.876-10.282c35.124,5.57,77.189-4.865,106.011-25.043c15.562-10.896,29.262-24.575,40.939-39.522
	c2.74-3.508,5.498-7.093,7.781-10.924C516.304,198.835,513.881,191.012,504.926,194.516"/>
<path fill="#FFFFFF" stroke="#231F20" stroke-width="2" stroke-miterlimit="10" d="M489.504,194.516
	c-5.562-6.558-14.159-13.924-20.247-4.202c-4.033,6.438,7.784,13.268,5.896,15.562c-16.746,20.333-39.391,30.772-65.385,33.312
	c-3.059,0.299-15.851,3.003-16.714-0.78c-1.521-6.666-5.223-13.207-11.174-16.83c-14.117-8.594-35.873,0.231-29.818,18.328
	c-17.323-9.174-42.464-5.899-38.556,18.568c-9.243-9.952-25.038-2.213-22.682,11.34c-9.344-9.033-24.139-8.289-29.029,4.989
	c-4.717-8.438-20.491-11.843-24.041,0c-1.958-9.006-14.714-11.142-20.866-4.989c-1.07-11.401-14.992-13.266-20.413-3.629
	c0.383-11.457-12.009-11.765-19.052-5.896c4.44-8.198-1.236-16.785-10.432-16.785c5.7-5.701,6.332-15.016-1.815-18.814
	c6.08-2.115,9.705-9.212,5.445-14.753c10.314,0,7.239-8.314,11.63-13.349c5.289-6.066,1.425-11.306-5.563-9.979
	c-18.407,3.496-34.642,20.38-43.31,36.044c-20.11,36.337-14.868,83.289,15.025,112.6c30.167,29.581,76.734,39.04,117.622,39.212
	c19.14,0.081,37.488-2.801,55.608-9.133c11.129-3.889,22.088-8.717,32.041-15.077c4.03-2.575,7.939-5.432,11.336-8.813
	c1.475-1.463,2.674-4.402,4.824-4.559c28.853-2.061,58.641-8.427,84.924-20.622c17.58-8.157,34.286-20.173,47.937-33.931
	c5.438-5.482,13.115-13.466,12.922-21.904c-0.294-12.604-25.726,6.056-30.48,9.197c-15.188,10.029-31.641,18.5-49.33,23.096
	c-19.517,5.071-41.112,4.729-60.422-1.284c-6.291-1.958-13.729-4.823-17.876-10.282c35.124,5.569,77.191-4.864,106.013-25.043
	c15.562-10.895,29.261-24.576,40.938-39.523c2.741-3.507,5.5-7.093,7.781-10.924c4.066-6.83,1.643-14.65-7.312-11.148
	c3.615-7.285,2.988-17.429-6.419-19.723C489.959,172.709,486.262,188.846,489.504,194.516"/>
<path fill="#231F20" d="M350.76,257.522c2.537,5.514-5.29,9.118-7.83,3.605C340.393,255.613,348.221,252.009,350.76,257.522"/>
<path fill="#231F20" d="M374.808,246.035c2.843,5.364-4.771,9.399-7.613,4.034C364.349,244.706,371.965,240.672,374.808,246.035"/>
<g>
	<path fill="#FFFFFF" stroke="#231F20" stroke-width="2" stroke-miterlimit="10" d="M346.662,275.903
		c2.701,13.329-20.472,18.026-23.173,4.698C320.785,267.272,343.961,262.574,346.662,275.903"/>
</g>
<path fill="#FFFFFF" stroke="#231F20" stroke-width="2" stroke-miterlimit="10" d="M474.082,191.794
	c3.473-3.691,11.363,2.907,7.938,6.577C478.73,201.896,470.454,195.648,474.082,191.794"/>
<path fill="#FFFFFF" stroke="#231F20" stroke-width="2" stroke-miterlimit="10" d="M497.825,181.588
	c5.875-0.966,5.562,8.131,1.407,10.063C492.991,194.554,491.496,182.629,497.825,181.588"/>
<g>
	<path fill="#FFFFFF" stroke="#231F20" stroke-width="2" stroke-miterlimit="10" d="M144.452,207.253
		c-0.814,1.196-1.621,2.443-2.418,3.746c2.493-3.089,4.915-5.964,7.187-8.579C147.608,203.921,146.015,205.537,144.452,207.253
		C143.638,208.449,146.015,205.537,144.452,207.253z"/>
	<path fill="#FFFFFF" stroke="#231F20" stroke-width="2" stroke-miterlimit="10" d="M342.128,329.621
		c-40.044,28.749-99.371,32.887-145.351,17.645c-26.053-8.639-47.478-21.965-59.271-47.742
		c-13.015-28.445-11.924-61.642,4.527-88.525c-2.526,3.131-5.121,6.482-7.696,9.994c-13.687,23.383-17.019,53.543-8.276,79.207
		c11.092,32.553,40.227,53.2,71.743,63.657c27.382,9.084,57.476,12.395,86.216,9.912c14.917-1.287,29.505-5.191,43.446-10.582
		c14.347-5.547,32.238-13.125,41.378-26.239c0,0-5.976,0.096-15.44-1.597C345.195,333.982,342.128,329.621,342.128,329.621z"/>
</g>
<path fill="#FFFFFF" stroke="#231F20" stroke-width="2" stroke-miterlimit="10" d="M293.093,334.75
	c-11.179,10.605-17.145,37.342,2.157,42.952c10.555,3.067,19.577-4.24,29.708,3.278c8.059,5.979-3.648,7.852-8.731,8.541
	c8.564-0.137,17.312,6.184,16.676,15.555c-0.75,11.075-21.139-2.44-25.147-1.946c5.479,4.788,3.795,16.239-4.983,15.244
	c-6.952-0.788-12.702-11.223-12.396-17.625c-26.085,5.191-60.928-2.329-57.51-35.724c1.645-16.07,13.896-28.465,27.632-35.668
	c7.191-3.771,15.737-6.994,23.982-6.225C291.581,323.802,299.533,327.74,293.093,334.75"/>
<path fill="#FFFFFF" stroke="#231F20" stroke-width="2" stroke-miterlimit="10" d="M180.486,318.421
	c8.396,8.063,21.292,22.818,16.473,35.438c-3.981,10.426-18.526,13.316-28.38,13.891c3.849,1.273,9.748,3.189,11.734,7.048
	c3.207,6.229-8.729,5.877-11.734,5.199c2.605,2.843,7.342,10.379,1.234,12.235c-4.945,1.502-11.114-0.09-15.977-1.351
	c2.928,6.991-0.432,10.396-6.686,7.8c-8.091-3.357-15.4-9.734-20.404-16.854c-9.053-12.881-8.333-26.934,6.822-32.719
	c5.258-2.008,10.437-5.144,12.694-10.562c3.093-7.423-3.386-16.121,1.011-22.715C153.653,306.268,174.104,311.252,180.486,318.421"
	/>
<path fill="none" stroke="#000000" stroke-width="2" d="M183.205,126.78c-0.242,1.774-0.847,3.285-1.813,4.534
	c-0.968,1.249-2.077,2.116-3.326,2.6c-1.25,0.484-2.581,0.544-3.99,0.182c-1.411-0.362-2.72-1.311-3.93-2.842
	c-1.048-1.289-1.632-2.721-1.753-4.293c-0.121-1.571-0.344-3.123-0.666-4.655c-0.807-4.432-1.976-8.987-3.506-13.664
	c-5,0.082-9.957,0.121-14.874,0.121c-4.918,0-9.836,0.042-14.752,0.121c-0.725,2.097-1.351,4.232-1.874,6.409
	c-0.526,2.177-1.028,4.313-1.512,6.409c-0.405,1.614-0.767,3.286-1.088,5.018c-0.323,1.735-1.049,3.246-2.176,4.535
	c-1.372,1.612-2.842,2.519-4.414,2.721c-1.572,0.2-2.983-0.061-4.232-0.786c-1.25-0.726-2.258-1.835-3.023-3.326
	c-0.767-1.491-1.027-3.204-0.785-5.139c0.242-2.497,0.725-4.957,1.451-7.376c0.725-2.418,1.409-4.837,2.056-7.255
	c3.627-13.865,8.302-27.287,14.026-40.266c0.484-1.128,0.987-2.216,1.512-3.265c0.523-1.046,1.028-2.095,1.511-3.144
	c0.563-1.128,1.128-2.337,1.693-3.628c0.562-1.289,1.228-2.479,1.995-3.567c0.766-1.088,1.672-2.014,2.721-2.781
	c1.046-0.765,2.337-1.148,3.87-1.148c2.014,0,3.707,0.646,5.078,1.935c5.481,5.483,9.995,11.669,13.543,18.561
	c3.547,6.893,6.73,13.927,9.553,21.101c1.693-0.079,3.344-0.079,4.958,0c1.612,0.082,3.062,0.807,4.354,2.177
	c1.127,1.13,1.792,2.339,1.995,3.627c0.2,1.291,0.079,2.54-0.363,3.749c-0.444,1.209-1.169,2.258-2.177,3.144
	c-1.009,0.889-2.237,1.493-3.688,1.814c0.805,2.822,1.512,5.704,2.116,8.646c0.605,2.943,1.107,5.906,1.512,8.888v0.843H183.205z
	 M158.537,93.889c-1.532-3.627-3.165-7.234-4.897-10.822c-1.734-3.586-3.688-6.993-5.865-10.217
	c-1.614,3.548-3.125,7.073-4.534,10.581c-1.412,3.506-2.721,7.073-3.93,10.701c3.789-0.079,7.113-0.121,9.976-0.121
	C152.148,94.01,155.231,93.971,158.537,93.889z"/>
<path fill="none" stroke="#000000" stroke-width="2" d="M237.616,58.097c0.321-2.982,1.349-5.179,3.083-6.59
	c1.732-1.41,3.567-2.096,5.502-2.055c1.934,0.041,3.728,0.785,5.38,2.237c1.651,1.451,2.519,3.506,2.6,6.167
	c0.161,2.741-0.544,4.857-2.116,6.348c-1.572,1.493-3.367,2.339-5.381,2.54c-2.016,0.202-3.912-0.342-5.684-1.632
	c-1.774-1.289-2.862-3.344-3.265-6.167L237.616,58.097z M253.577,126.9c-0.162,1.614-0.725,3.044-1.693,4.293
	c-0.967,1.249-2.076,2.155-3.325,2.72c-1.251,0.563-2.6,0.684-4.051,0.363c-1.451-0.323-2.741-1.209-3.869-2.66
	c-0.646-0.806-1.109-1.711-1.391-2.721c-0.283-1.007-0.465-2.056-0.544-3.144c-0.081-1.088-0.102-2.177-0.06-3.265
	c0.039-1.088,0.06-2.075,0.06-2.962c-0.081-4.755-0.102-9.472-0.06-14.148c0.039-4.674,0.019-9.39-0.061-14.147
	c0-1.935-0.121-3.889-0.363-5.865c-0.242-1.974-0.121-3.93,0.363-5.864c0.403-1.451,1.107-2.7,2.116-3.749
	c1.007-1.047,2.135-1.772,3.386-2.177c1.249-0.403,2.539-0.442,3.87-0.121c1.33,0.323,2.479,1.169,3.446,2.539
	c1.289,1.613,1.935,3.204,1.935,4.776s0,3.487,0,5.744c0,2.741,0,5.483,0,8.223c0,2.741,0.04,5.441,0.121,8.102
	c0.08,3.869,0.121,7.739,0.121,11.608c0,3.869,0,7.739,0,11.608L253.577,126.9L253.577,126.9z"/>
<path fill="none" stroke="#000000" stroke-width="2" d="M264.098,122.185c-0.483-1.37-0.686-2.721-0.604-4.05
	c0.079-1.331,0.423-2.54,1.027-3.628c0.605-1.088,1.47-1.934,2.601-2.539c1.128-0.605,2.497-0.826,4.111-0.666
	c0.886,0.082,1.693,0.323,2.418,0.726c0.726,0.405,1.391,0.888,1.995,1.451c0.604,0.564,1.209,1.169,1.814,1.813
	c0.604,0.646,1.228,1.209,1.875,1.693c1.37,1.048,2.82,1.813,4.353,2.297c1.53,0.484,3.144,0.847,4.837,1.089
	c1.127,0,2.034-0.282,2.72-0.847c0.684-0.563,1.149-1.249,1.391-2.056c0.242-0.805,0.303-1.672,0.181-2.6
	c-0.121-0.926-0.423-1.672-0.906-2.237c-1.372-1.37-3.044-2.256-5.018-2.66c-1.977-0.403-3.81-0.887-5.502-1.452
	c-2.418-0.805-4.797-1.833-7.134-3.083c-2.339-1.249-4.232-2.963-5.683-5.14c-1.532-2.256-2.439-4.655-2.721-7.194
	c-0.283-2.54-0.082-5.018,0.604-7.437c0.684-2.418,1.833-4.635,3.446-6.65c1.612-2.015,3.546-3.668,5.805-4.958
	c1.692-0.967,3.546-1.591,5.562-1.875c2.015-0.282,4.051-0.342,6.107-0.182c2.055,0.163,4.09,0.544,6.106,1.149
	c2.015,0.604,3.87,1.27,5.562,1.995c1.936,0.888,3.387,2.137,4.354,3.749c0.969,1.613,1.433,3.246,1.393,4.897
	c-0.042,1.653-0.604,3.083-1.689,4.292c-1.092,1.209-2.684,1.813-4.779,1.813c-1.291,0-2.46-0.221-3.507-0.666
	c-1.048-0.442-2.137-0.865-3.265-1.27c-1.452-0.562-3.023-0.946-4.716-1.148c-1.692-0.201-3.064-0.101-4.111,0.302
	c-0.323,0.082-0.686,0.344-1.089,0.786c-0.404,0.444-0.707,0.988-0.906,1.632c-0.203,0.646-0.242,1.291-0.121,1.935
	c0.121,0.646,0.544,1.169,1.269,1.572c1.935,1.048,3.991,1.855,6.167,2.418c2.177,0.565,4.312,1.209,6.409,1.934
	c2.096,0.726,4.05,1.654,5.865,2.781c1.813,1.13,3.327,2.742,4.536,4.837c1.771,3.064,2.68,6.269,2.722,9.613
	c0.04,3.346-0.625,6.469-1.995,9.372c-1.372,2.902-3.387,5.381-6.046,7.437c-2.661,2.056-5.764,3.284-9.311,3.688
	c-2.5,0.242-4.958,0.099-7.376-0.424c-2.418-0.525-4.757-1.372-7.013-2.539c-2.258-1.17-4.354-2.559-6.288-4.172
	c-1.935-1.612-3.628-3.304-5.079-5.079L264.098,122.185z"/>
<path fill="none" stroke="#000000" stroke-width="2" d="M383.686,131.737c-1.049,1.289-2.258,2.177-3.627,2.661
	c-1.371,0.483-2.778,0.483-4.229,0c-1.451-0.484-2.661-1.572-3.628-3.265c-0.404-0.646-0.728-1.33-0.967-2.055
	c-0.242-0.726-0.363-1.451-0.363-2.177V95.099c-1.532,0-2.923-0.423-4.172-1.27c-1.251-0.846-2.18-1.894-2.781-3.144
	c-0.604-1.249-0.828-2.579-0.665-3.99c0.161-1.41,0.805-2.721,1.937-3.93c0.806-0.886,1.673-1.47,2.601-1.753
	c0.926-0.282,1.915-0.463,2.963-0.544c-0.082-2.498-0.142-4.958-0.182-7.376c-0.042-2.418,0.14-4.837,0.544-7.256
	c0.48-3.788,1.609-7.013,3.386-9.673c1.771-2.66,3.97-4.716,6.59-6.167c2.619-1.451,5.542-2.297,8.768-2.54
	c3.225-0.242,6.568,0.243,10.035,1.452c1.451,0.483,2.843,1.088,4.175,1.814c1.328,0.725,2.518,1.653,3.564,2.781
	c0.729,0.807,1.249,1.754,1.572,2.842c0.32,1.088,0.381,2.177,0.181,3.265c-0.202,1.088-0.604,2.098-1.209,3.023
	c-0.604,0.928-1.472,1.633-2.6,2.116c-1.532,0.646-3.044,0.807-4.535,0.483c-1.493-0.321-2.963-0.846-4.414-1.571
	c-0.888-0.321-1.735-0.645-2.54-0.968c-0.807-0.321-1.653-0.563-2.54-0.726c-0.888-0.16-1.692-0.04-2.418,0.363
	c-0.726,0.405-1.351,0.948-1.874,1.632c-0.525,0.686-0.928,1.451-1.209,2.298c-0.283,0.846-0.423,1.674-0.423,2.479
	c-0.081,1.854-0.104,3.729-0.062,5.623c0.04,1.895,0.062,3.769,0.062,5.623c1.209-0.079,2.498-0.161,3.87-0.242
	c1.369-0.08,2.721-0.121,4.05-0.121c1.331,0,2.558,0.041,3.688,0.121c1.127,0.081,2.016,0.242,2.659,0.484
	c1.289,0.483,2.337,1.229,3.146,2.237c0.805,1.009,1.33,2.097,1.569,3.265c0.242,1.169,0.143,2.358-0.302,3.567
	c-0.443,1.209-1.229,2.258-2.354,3.144c-1.051,0.807-2.26,1.372-3.629,1.692c-1.37,0.323-2.822,0.544-4.354,0.665
	s-3.021,0.163-4.474,0.121c-1.451-0.04-2.742-0.06-3.87-0.06v32.285C385.378,128.917,384.732,130.447,383.686,131.737z"/>
<path fill="none" stroke="#000000" stroke-width="2" d="M406.177,101.387c0.563-2.337,1.352-4.635,2.357-6.893
	c1.007-2.256,2.237-4.414,3.688-6.469c1.451-2.056,3.084-3.93,4.897-5.623c1.812-1.693,3.768-3.063,5.865-4.112
	c3.707-1.935,7.437-2.921,11.186-2.962c3.749-0.04,7.234,0.707,10.459,2.237c3.224,1.532,5.965,3.809,8.223,6.832
	c2.259,3.023,3.749,6.632,4.477,10.823c0.4,2.741,0.624,5.341,0.665,7.799c0.04,2.46-0.226,5.018-0.786,7.678
	c-0.809,3.79-2.438,7.558-4.897,11.306c-2.46,3.749-5.399,6.892-8.825,9.432c-3.43,2.54-7.178,4.211-11.245,5.018
	c-4.072,0.805-8.162,0.16-12.273-1.935c-1.854-0.888-3.526-1.916-5.019-3.083s-2.844-2.558-4.053-4.172
	c-1.371-1.772-2.438-3.627-3.203-5.562c-0.769-1.934-1.393-3.949-1.873-6.046c-0.565-2.256-0.77-4.535-0.604-6.832
	c0.16-2.298,0.442-4.535,0.846-6.711L406.177,101.387z M420.688,103.926c-0.24,1.291-0.442,2.56-0.604,3.809
	c-0.163,1.251-0.163,2.521,0,3.809c0.242,1.855,0.744,3.548,1.511,5.079c0.768,1.532,1.772,2.741,3.022,3.627
	c1.249,0.888,2.68,1.351,4.292,1.391c1.609,0.042,3.345-0.463,5.2-1.512c2.337-1.37,4.353-3.486,6.046-6.349
	c1.689-2.86,2.737-5.843,3.144-8.948c0.402-3.102,0.079-6.046-0.967-8.827c-1.049-2.781-3.104-4.776-6.167-5.986
	c-2.019,0-3.87,0.383-5.562,1.148c-1.69,0.767-3.163,1.774-4.413,3.023c-1.25,1.251-2.34,2.721-3.266,4.414
	C421.997,100.298,421.25,102.072,420.688,103.926z"/>
<path fill="none" stroke="#000000" stroke-width="2" d="M469.053,92.983c0.08-0.524,0.04-1.47-0.121-2.842
	c-1.291-0.725-2.298-1.651-3.021-2.781c-0.729-1.127-1.149-2.337-1.271-3.627c-0.12-1.289,0.121-2.519,0.729-3.688
	c0.604-1.167,1.591-2.155,2.963-2.962c1.854-1.047,3.888-1.249,6.104-0.604c2.218,0.646,4.132,1.614,5.743,2.902
	c2.018-1.531,4.112-2.821,6.288-3.87c2.178-1.047,4.396-1.753,6.651-2.116c2.255-0.363,4.553-0.302,6.893,0.182
	c2.337,0.484,4.636,1.493,6.895,3.023c1.128,0.726,2.177,1.633,3.144,2.721c0.967,1.089,1.571,2.318,1.814,3.688
	c0.399,2.016,0.24,3.77-0.484,5.26c-0.725,1.493-1.734,2.581-3.021,3.265c-1.291,0.686-2.741,0.888-4.354,0.604
	c-1.614-0.281-3.145-1.149-4.594-2.6c-0.484-0.321-0.828-0.583-1.028-0.786c-0.202-0.2-0.625-0.463-1.27-0.786
	c-1.291-0.32-2.562-0.242-3.812,0.243c-1.251,0.483-2.46,1.148-3.627,1.995c-1.17,0.846-2.258,1.774-3.265,2.781
	c-1.009,1.008-1.916,1.916-2.72,2.72v30.835c0,1.208-0.243,2.378-0.729,3.506c-0.726,1.854-1.874,3.144-3.446,3.869
	c-1.569,0.726-3.144,0.926-4.716,0.604s-2.941-1.129-4.109-2.418c-1.172-1.29-1.755-2.942-1.755-4.958V93.285
	C468.932,93.608,468.972,93.508,469.053,92.983z"/>
<path fill="none" stroke="#000000" stroke-width="2" d="M163.675,520.737c-0.242,1.771-0.846,3.284-1.813,4.534
	c-0.968,1.246-2.077,2.113-3.326,2.6c-1.25,0.484-2.581,0.544-3.99,0.182c-1.411-0.359-2.72-1.311-3.93-2.842
	c-1.049-1.289-1.633-2.721-1.753-4.293c-0.121-1.571-0.344-3.122-0.666-4.655c-0.807-4.432-1.976-8.984-3.506-13.664
	c-5,0.082-9.957,0.121-14.874,0.121c-4.918,0-9.835,0.042-14.751,0.121c-0.726,2.097-1.352,4.232-1.875,6.409
	c-0.525,2.177-1.028,4.312-1.511,6.409c-0.405,1.614-0.768,3.286-1.089,5.018c-0.323,1.735-1.049,3.246-2.176,4.535
	c-1.372,1.612-2.842,2.519-4.414,2.721c-1.572,0.2-2.983-0.061-4.232-0.786c-1.25-0.726-2.258-1.835-3.023-3.323
	c-0.767-1.491-1.027-3.204-0.786-5.142c0.242-2.497,0.726-4.957,1.451-7.375c0.726-2.419,1.409-4.837,2.056-7.255
	c3.627-13.865,8.301-27.287,14.026-40.266c0.483-1.128,0.986-2.216,1.511-3.268c0.524-1.046,1.028-2.095,1.512-3.144
	c0.563-1.128,1.128-2.338,1.693-3.628c0.563-1.289,1.228-2.479,1.995-3.567c0.766-1.088,1.672-2.014,2.721-2.778
	c1.046-0.768,2.337-1.148,3.87-1.148c2.014,0,3.706,0.646,5.078,1.935c5.481,5.483,9.995,11.671,13.542,18.562
	s6.73,13.927,9.554,21.101c1.692-0.079,3.343-0.079,4.957,0c1.612,0.082,3.062,0.81,4.354,2.18c1.127,1.13,1.793,2.339,1.995,3.627
	c0.2,1.291,0.079,2.54-0.363,3.749c-0.444,1.209-1.169,2.258-2.177,3.144c-1.009,0.89-2.237,1.493-3.688,1.814
	c0.805,2.819,1.511,5.704,2.116,8.646c0.605,2.943,1.107,5.906,1.512,8.889V520.737z M139.007,487.847
	c-1.532-3.627-3.165-7.231-4.897-10.819c-1.734-3.586-3.688-6.993-5.864-10.22c-1.614,3.551-3.125,7.073-4.535,10.581
	c-1.411,3.506-2.721,7.073-3.93,10.701c3.789-0.079,7.113-0.121,9.976-0.121C132.618,487.967,135.701,487.928,139.007,487.847z"/>
<path fill="none" stroke="#000000" stroke-width="2" d="M190.396,516.747c0.887,0.806,1.633,1.834,2.238,3.083
	c0.604,1.251,0.926,2.5,0.967,3.749c0.039,1.249-0.242,2.418-0.846,3.506c-0.604,1.089-1.675,1.915-3.205,2.479
	c-1.209,0.399-2.539,0.48-3.99,0.239c-1.452-0.239-2.884-0.725-4.293-1.448c-1.411-0.729-2.66-1.595-3.749-2.603
	c-1.088-1.009-1.874-2.116-2.357-3.326c-0.163-0.399-0.284-0.862-0.364-1.391c-0.081-0.523-0.121-0.986-0.121-1.39v-67.111
	c0-1.854,0.705-3.425,2.117-4.715c1.409-1.289,2.962-2.059,4.655-2.298c0.805-0.08,1.672,0.042,2.6,0.36
	c0.926,0.323,1.792,0.786,2.6,1.394c0.805,0.604,1.47,1.311,1.995,2.114c0.523,0.809,0.786,1.652,0.786,2.539c0,2.1,0,4.879,0,8.347
	c0,3.467,0.019,7.255,0.061,11.364c0.04,4.11,0.06,8.363,0.06,12.759c0,4.394-0.021,8.604-0.06,12.636
	c-0.042,4.032-0.061,7.72-0.061,11.062c0,3.35-0.042,6.027-0.121,8.042L190.396,516.747z"/>
<path fill="none" stroke="#000000" stroke-width="2" d="M224.012,516.747c0.887,0.806,1.632,1.834,2.238,3.083
	c0.604,1.251,0.926,2.5,0.967,3.749c0.039,1.249-0.242,2.418-0.847,3.506c-0.604,1.089-1.674,1.915-3.205,2.479
	c-1.209,0.399-2.54,0.48-3.99,0.239c-1.451-0.239-2.883-0.725-4.292-1.448c-1.412-0.729-2.661-1.595-3.749-2.603
	c-1.089-1.009-1.874-2.116-2.358-3.326c-0.163-0.399-0.284-0.862-0.363-1.391c-0.081-0.523-0.121-0.986-0.121-1.39v-67.111
	c0-1.854,0.705-3.425,2.116-4.715c1.41-1.289,2.962-2.059,4.656-2.298c0.805-0.08,1.672,0.042,2.6,0.36
	c0.926,0.323,1.792,0.786,2.6,1.394c0.805,0.604,1.47,1.311,1.995,2.114c0.523,0.809,0.786,1.652,0.786,2.539c0,2.1,0,4.879,0,8.347
	c0,3.467,0.019,7.255,0.061,11.364c0.04,4.11,0.06,8.363,0.06,12.759c0,4.394-0.021,8.604-0.06,12.636
	c-0.042,4.032-0.061,7.72-0.061,11.062c0,3.35-0.042,6.027-0.121,8.042L224.012,516.747z"/>
<path fill="none" stroke="#000000" stroke-width="2" d="M236.952,452.055c0.321-2.979,1.349-5.179,3.083-6.59
	c1.732-1.41,3.567-2.095,5.502-2.055c1.934,0.041,3.728,0.785,5.381,2.237c1.651,1.448,2.519,3.506,2.6,6.167
	c0.161,2.738-0.544,4.854-2.116,6.348c-1.572,1.493-3.367,2.339-5.381,2.54c-2.016,0.202-3.911-0.342-5.683-1.632
	c-1.774-1.289-2.863-3.347-3.265-6.167L236.952,452.055z M252.914,520.858c-0.163,1.611-0.726,3.044-1.693,4.293
	c-0.967,1.249-2.076,2.152-3.325,2.72c-1.251,0.562-2.6,0.684-4.051,0.363c-1.451-0.323-2.741-1.209-3.869-2.66
	c-0.646-0.809-1.109-1.711-1.391-2.724c-0.283-1.007-0.465-2.056-0.544-3.144c-0.081-1.088-0.102-2.177-0.06-3.265
	c0.04-1.091,0.06-2.074,0.06-2.962c-0.081-4.759-0.102-9.475-0.06-14.148c0.04-4.674,0.019-9.39-0.061-14.147
	c0-1.935-0.121-3.889-0.363-5.862c-0.242-1.977-0.121-3.933,0.363-5.864c0.402-1.451,1.107-2.7,2.116-3.749
	c1.007-1.047,2.135-1.772,3.386-2.177c1.249-0.403,2.54-0.442,3.87-0.121c1.33,0.323,2.479,1.169,3.446,2.54
	c1.288,1.613,1.935,3.204,1.935,4.773c0,1.572,0,3.487,0,5.744c0,2.741,0,5.483,0,8.226c0,2.739,0.039,5.438,0.121,8.102
	c0.08,3.869,0.121,7.739,0.121,11.608s0,7.736,0,11.605L252.914,520.858L252.914,520.858z"/>
<path fill="none" stroke="#000000" stroke-width="2" d="M269.841,549.516c-1.372-1.689-2.097-3.444-2.177-5.26
	c-0.081-1.812,0.321-3.367,1.209-4.656c0.886-1.291,2.155-2.177,3.809-2.657c1.652-0.484,3.486-0.242,5.502,0.725
	c0.886,0.645,1.692,1.128,2.418,1.452c0.726,0.318,1.732,0.805,3.023,1.451c1.209,0.562,2.579,0.983,4.112,1.27
	c1.53,0.282,2.981,0.342,4.353,0.184c2.74-0.162,4.856-0.625,6.349-1.393c1.49-0.767,2.558-1.771,3.204-3.021
	c0.646-1.251,1.028-2.781,1.149-4.598c0.121-1.812,0.181-3.851,0.181-6.104c-2.581,0.886-5.16,1.551-7.739,1.995
	c-2.581,0.439-5.241,0.502-7.981,0.182c-5.32-0.646-9.694-2.54-13.119-5.684c-3.428-3.146-5.925-6.895-7.498-11.246
	c-1.572-4.354-2.218-9.008-1.935-13.968c0.281-4.956,1.43-9.53,3.446-13.726c1.21-2.418,2.861-4.655,4.958-6.71
	c2.095-2.056,4.453-3.75,7.074-5.079c2.618-1.33,5.36-2.194,8.222-2.6c2.861-0.403,5.623-0.161,8.283,0.726
	c1.531,0.565,3.023,1.129,4.475,1.692c1.45,0.562,2.86,1.291,4.231,2.177c1.529-1.37,3.324-2.056,5.382-2.056
	c2.056,0,3.809,0.968,5.26,2.899c0.321,0.484,0.684,1.028,1.088,1.632c0.403,0.605,0.604,1.191,0.604,1.756
	c0.079,8.627,0.103,17.229,0.062,25.813c-0.042,8.585-0.062,17.192-0.062,25.817c0,3.465-0.465,6.688-1.391,9.673
	c-0.928,2.979-2.318,5.623-4.172,7.92c-1.855,2.297-4.153,4.172-6.894,5.623c-2.742,1.451-5.924,2.377-9.555,2.78
	c-1.855,0.161-3.668,0.24-5.441,0.24c-1.774,0-3.587-0.2-5.441-0.604c-2.581-0.483-5.06-1.291-7.437-2.418
	c-2.379-1.129-4.737-2.378-7.074-3.749L269.841,549.516z M284.109,512.635c3.547,1.693,6.812,2.238,9.795,1.632
	c2.981-0.604,6.004-1.951,9.069-4.05V490.99c-2.34-2.337-4.617-3.972-6.833-4.897c-2.218-0.926-4.858-1.188-7.92-0.786
	c-0.565,0.323-1.109,0.604-1.632,0.85c-0.526,0.24-1.069,0.48-1.632,0.725c-1.693,1.938-2.984,3.812-3.87,5.623
	c-0.888,1.814-1.411,3.669-1.572,5.562c-0.162,1.895-0.021,3.827,0.424,5.804c0.442,1.977,1.106,4.132,1.995,6.47
	c0.242,0.404,0.604,0.806,1.088,1.209S283.868,512.314,284.109,512.635z"/>
<path fill="none" stroke="#000000" stroke-width="2" d="M379.152,518.923c0.644,2.339,0.521,4.274-0.363,5.805
	c-0.888,1.53-2.116,2.561-3.688,3.083c-1.569,0.523-3.283,0.466-5.139-0.182c-1.854-0.646-3.467-1.935-4.837-3.869
	c-2.258,1.692-4.455,2.881-6.59,3.567c-2.137,0.684-4.576,1.065-7.315,1.146c-4.109,0.161-7.778-0.302-11.004-1.391
	c-3.226-1.088-5.946-2.72-8.162-4.896c-2.218-2.177-3.851-4.896-4.896-8.16c-1.049-3.268-1.412-7.032-1.088-11.309
	c0.161-1.771,0.463-3.506,0.903-5.2c0.442-1.689,0.947-3.343,1.515-4.956c0.645-1.771,1.552-3.669,2.721-5.685
	c1.167-2.014,2.358-3.749,3.567-5.2c4.354-5.317,9.795-9.146,16.322-11.484c1.127-0.403,2.66-0.769,4.597-1.092
	c1.935-0.318,3.889-0.463,5.862-0.423c1.977,0.042,3.87,0.303,5.686,0.786c1.812,0.484,3.164,1.331,4.051,2.54
	c0.726,0.968,1.249,1.814,1.572,2.539c0.317,0.727,0.502,1.493,0.543,2.298c0.04,0.81,0.04,1.674,0,2.603
	c-0.042,0.928-0.062,2.075-0.062,3.443c0,2.26-0.021,4.455-0.061,6.591c-0.041,2.139-0.021,4.294,0.061,6.472
	c0,0.725,0,1.674,0,2.841c0,1.169,0.04,2.4,0.121,3.688c0.079,1.291,0.184,2.521,0.304,3.688c0.119,1.169,0.304,2.116,0.545,2.841
	L379.152,518.923z M353.517,513.482c0.89-0.563,1.896-1.189,3.023-1.875c1.127-0.687,2.135-1.473,3.022-2.358
	c-0.728-4.272-1.148-8.543-1.271-12.817c-0.121-4.271-0.102-8.585,0.062-12.938c-3.629,0.646-6.895,2.218-9.793,4.716
	c-2.902,2.5-4.921,5.441-6.049,8.827c-0.48,1.372-0.888,2.781-1.209,4.229c-0.319,1.451-0.44,2.862-0.36,4.232
	c0.079,1.855,0.562,3.407,1.452,4.656c0.886,1.251,1.951,2.194,3.201,2.841c1.249,0.646,2.58,1.009,3.991,1.089
	C350.997,514.167,352.308,513.966,353.517,513.482z"/>
<path fill="none" stroke="#000000" stroke-width="2" d="M389.188,483.978c-1.611-0.399-3.004-1.088-4.172-2.056
	c-1.169-0.967-1.976-2.095-2.418-3.386c-0.441-1.289-0.441-2.618,0-3.99c0.442-1.37,1.433-2.619,2.962-3.748
	c1.289-0.967,2.74-1.452,4.354-1.452c1.612,0,3.183,0,4.715,0c0-0.562-0.042-1.792-0.121-3.688c-0.081-1.896-0.102-3.97-0.06-6.229
	c0.039-2.256,0.181-4.414,0.422-6.469c0.243-2.056,0.684-3.486,1.331-4.292c1.611-2.256,3.604-3.326,5.982-3.205
	c2.379,0.121,4.333,1.271,5.865,3.446c0.321,0.404,0.623,0.888,0.906,1.451c0.282,0.562,0.423,1.089,0.423,1.569
	c0.08,2.902,0.103,5.807,0.062,8.707c-0.042,2.902-0.062,5.807-0.062,8.706h9.553c1.452,0,2.7,0.484,3.749,1.452
	c1.046,0.967,1.793,2.1,2.237,3.386c0.441,1.29,0.562,2.62,0.363,3.99c-0.202,1.372-0.828,2.5-1.874,3.386
	c-1.855,1.532-4.014,2.342-6.473,2.422c-2.459,0.078-4.979,0.118-7.558,0.118c0,4.438-0.021,8.869-0.06,13.304
	c-0.042,4.434-0.021,8.866,0.06,13.302c0,1.934,0.101,3.911,0.303,5.925c0.2,2.018,0.062,3.95-0.423,5.804
	c-0.404,1.451-1.088,2.603-2.056,3.446c-0.967,0.847-2.056,1.37-3.266,1.572c-1.21,0.2-2.462,0.121-3.75-0.242
	c-1.29-0.363-2.5-1.027-3.628-1.995c-0.562-0.562-0.985-1.53-1.27-2.899c-0.283-1.369-0.465-2.82-0.544-4.354
	c-0.081-1.771-0.081-3.667,0-5.684c0-1.611,0-3.707,0-6.288c0-2.579-0.021-5.263-0.062-8.041c-0.043-2.781-0.062-5.421-0.062-7.92
	c0-2.498,0-4.477,0-5.928L389.188,483.978z"/>
<path fill="none" stroke="#000000" stroke-width="2" d="M425.707,495.344c0.562-2.337,1.349-4.635,2.358-6.893
	c1.007-2.256,2.234-4.414,3.688-6.469c1.451-2.059,3.083-3.933,4.897-5.623c1.812-1.693,3.768-3.063,5.861-4.112
	c3.707-1.935,7.438-2.921,11.188-2.962c3.748-0.04,7.231,0.707,10.459,2.237c3.223,1.529,5.965,3.809,8.223,6.829
	c2.256,3.023,3.749,6.635,4.474,10.823c0.403,2.741,0.625,5.341,0.666,7.799c0.041,2.46-0.223,5.021-0.783,7.681
	c-0.809,3.79-2.439,7.558-4.897,11.306c-2.46,3.749-5.399,6.892-8.827,9.432s-7.176,4.212-11.246,5.021
	c-4.069,0.805-8.16,0.16-12.271-1.938c-1.855-0.888-3.527-1.916-5.021-3.083c-1.492-1.167-2.841-2.558-4.05-4.172
	c-1.372-1.771-2.438-3.627-3.205-5.562c-0.767-1.937-1.391-3.949-1.875-6.046c-0.562-2.257-0.767-4.535-0.604-6.832
	c0.16-2.298,0.439-4.535,0.846-6.711L425.707,495.344z M440.217,497.883c-0.242,1.291-0.441,2.562-0.604,3.812
	c-0.163,1.251-0.163,2.521,0,3.809c0.242,1.855,0.744,3.548,1.512,5.079c0.765,1.532,1.771,2.741,3.021,3.627
	c1.25,0.888,2.681,1.351,4.294,1.391c1.609,0.042,3.344-0.463,5.197-1.511c2.337-1.37,4.354-3.486,6.046-6.349
	c1.692-2.86,2.74-5.847,3.146-8.948c0.402-3.103,0.08-6.046-0.967-8.827c-1.049-2.781-3.105-4.774-6.167-5.984
	c-2.02,0-3.87,0.384-5.562,1.146c-1.69,0.767-3.165,1.774-4.414,3.023c-1.251,1.251-2.339,2.72-3.265,4.414
	C441.526,494.255,440.78,496.03,440.217,497.883z"/>
<path fill="none" stroke="#000000" stroke-width="2" d="M488.583,486.94c0.08-0.524,0.04-1.473-0.121-2.845
	c-1.29-0.725-2.297-1.648-3.021-2.778c-0.728-1.127-1.149-2.337-1.271-3.627c-0.121-1.289,0.121-2.521,0.727-3.688
	c0.604-1.167,1.592-2.155,2.964-2.962c1.854-1.047,3.888-1.249,6.104-0.604c2.216,0.646,4.13,1.614,5.744,2.902
	c2.014-1.531,4.111-2.821,6.288-3.87c2.177-1.047,4.393-1.753,6.65-2.116c2.256-0.36,4.554-0.302,6.893,0.185
	c2.337,0.481,4.635,1.493,6.893,3.021c1.128,0.729,2.18,1.636,3.146,2.724c0.967,1.089,1.572,2.315,1.812,3.688
	c0.402,2.019,0.242,3.771-0.481,5.26c-0.729,1.493-1.734,2.581-3.023,3.268c-1.291,0.686-2.741,0.888-4.353,0.604
	c-1.614-0.278-3.146-1.146-4.598-2.6c-0.481-0.321-0.825-0.583-1.025-0.786c-0.203-0.2-0.626-0.463-1.271-0.786
	c-1.291-0.318-2.561-0.242-3.81,0.243c-1.251,0.483-2.46,1.148-3.627,1.995c-1.169,0.846-2.257,1.771-3.268,2.781
	c-1.009,1.008-1.915,1.916-2.721,2.72v30.835c0,1.208-0.242,2.378-0.726,3.506c-0.729,1.854-1.875,3.146-3.446,3.869
	c-1.573,0.726-3.146,0.926-4.716,0.604c-1.572-0.321-2.944-1.131-4.111-2.42c-1.169-1.289-1.753-2.939-1.753-4.958v-33.855
	C488.462,487.565,488.501,487.465,488.583,486.94z"/>
</svg>
