<?xml version="1.0" encoding="utf-8"?>
<!-- Generator: Adobe Illustrator 16.0.0, SVG Export Plug-In . SVG Version: 6.00 Build 0)  -->
<!DOCTYPE svg PUBLIC "-//W3C//DTD SVG 1.1//EN" "http://www.w3.org/Graphics/SVG/1.1/DTD/svg11.dtd">
<svg version="1.1" xmlns="http://www.w3.org/2000/svg" xmlns:xlink="http://www.w3.org/1999/xlink" x="0px" y="0px" width="100%"
	 height="100%" viewBox="0 0 1000 1000" style="enable-background:new 0 0 1000 1000;" xml:space="preserve">
<g id="Layer_4">
	<rect style="fill:#FFFFFF;" width="1000" height="1000"/>
</g>
<g id="Layer_3">
	<g>
		<path style="fill:#FFFFFF;stroke:#000000;stroke-width:2;" d="M143.685,838.354c-0.207,1.519-0.725,2.812-1.553,3.882
			s-1.778,1.812-2.847,2.226c-1.071,0.414-2.21,0.466-3.417,0.155c-1.208-0.311-2.329-1.122-3.364-2.433
			c-0.898-1.104-1.398-2.329-1.501-3.675s-0.294-2.674-0.569-3.985c-0.69-3.795-1.692-7.695-3.002-11.698
			c-4.28,0.069-8.524,0.104-12.733,0.104c-4.21,0-8.421,0.035-12.63,0.104c-0.621,1.795-1.156,3.623-1.604,5.486
			c-0.45,1.863-0.88,3.693-1.294,5.487c-0.346,1.381-0.657,2.812-0.932,4.296c-0.277,1.484-0.898,2.778-1.863,3.882
			c-1.174,1.38-2.433,2.156-3.779,2.329c-1.346,0.172-2.554-0.052-3.623-0.673c-1.071-0.621-1.933-1.57-2.588-2.847
			c-0.657-1.276-0.88-2.743-0.673-4.399c0.207-2.139,0.621-4.245,1.242-6.315s1.207-4.141,1.76-6.211
			c3.105-11.87,7.107-23.36,12.008-34.474c0.414-0.965,0.845-1.896,1.294-2.795c0.448-0.896,0.88-1.794,1.294-2.691
			c0.482-0.966,0.965-2.001,1.449-3.105c0.482-1.104,1.051-2.122,1.708-3.054c0.655-0.932,1.432-1.725,2.329-2.381
			c0.896-0.655,2.001-0.984,3.313-0.984c1.724,0,3.173,0.554,4.348,1.657c4.693,4.693,8.557,9.989,11.595,15.891
			c3.036,5.9,5.762,11.923,8.178,18.064c1.449-0.068,2.863-0.068,4.245,0c1.379,0.069,2.622,0.69,3.727,1.863
			c0.966,0.968,1.535,2.003,1.708,3.105c0.172,1.105,0.068,2.174-0.311,3.209c-0.38,1.036-1.001,1.934-1.863,2.692
			c-0.864,0.76-1.915,1.277-3.157,1.553c0.689,2.416,1.294,4.883,1.812,7.401c0.518,2.521,0.948,5.057,1.294,7.609V838.354z
			 M122.566,810.195c-1.312-3.105-2.709-6.193-4.192-9.266c-1.485-3.07-3.158-5.986-5.021-8.747
			c-1.381,3.037-2.675,6.056-3.882,9.058c-1.208,3.002-2.329,6.057-3.364,9.162c3.243-0.068,6.09-0.104,8.541-0.104
			C117.096,810.299,119.736,810.265,122.566,810.195z"/>
		<path style="fill:#FFFFFF;stroke:#000000;stroke-width:2;" d="M192.443,838.664c-0.207,1.726-0.846,3.14-1.915,4.244
			c-1.071,1.104-2.277,1.794-3.624,2.07c-1.346,0.275-2.64,0.104-3.882-0.518s-2.14-1.829-2.691-3.623
			c-0.621-1.932-0.864-3.95-0.725-6.056c0.138-2.104,0.208-4.054,0.208-5.85c0-3.727,0.016-7.436,0.052-11.129
			c0.034-3.69-0.122-7.401-0.466-11.128c-0.069-0.138-0.139-0.259-0.207-0.362c-0.069-0.104-0.207-0.259-0.414-0.466
			c-1.588-0.414-3.278-0.311-5.072,0.311c-1.795,0.621-3.313,1.415-4.555,2.381c-1.105,0.897-2.192,2.122-3.261,3.675
			c-1.071,1.553-1.605,3.054-1.605,4.503v14.286c0,1.105,0.034,2.313,0.104,3.624c0.068,1.312,0.017,2.588-0.155,3.83
			c-0.173,1.242-0.569,2.381-1.19,3.416s-1.622,1.794-3.002,2.277c-0.76,0.275-1.467,0.379-2.122,0.311
			c-0.657-0.069-1.364-0.242-2.123-0.518c-1.242-0.414-2.14-1.122-2.691-2.122c-0.553-1-0.932-2.07-1.139-3.209
			s-0.294-2.242-0.259-3.312c0.034-1.069,0.052-1.916,0.052-2.537c0-1.586-0.018-3.882-0.052-6.884
			c-0.036-3.002-0.052-6.159-0.052-9.473c0-3.312,0-6.47,0-9.472c0-3.003,0-5.296,0-6.885c0-1.517,0.448-2.777,1.346-3.778
			c0.896-1,1.949-1.656,3.157-1.967c1.207-0.311,2.485-0.241,3.831,0.207c1.346,0.449,2.467,1.363,3.364,2.743
			c2.76-1.794,5.797-3.002,9.11-3.623c3.312-0.621,6.435-0.518,9.369,0.311c2.933,0.828,5.383,2.381,7.35,4.658
			s2.984,5.419,3.054,9.421c0,0.139,0.034,0.553,0.104,1.242c0.068,0.69,0.104,1.656,0.104,2.898V838.664z"/>
		<path style="fill:#FFFFFF;stroke:#000000;stroke-width:2;" d="M246.067,836.801c0.551,2.002,0.448,3.658-0.311,4.969
			c-0.76,1.311-1.812,2.19-3.158,2.64c-1.346,0.448-2.813,0.396-4.399-0.155c-1.588-0.553-2.968-1.656-4.141-3.312
			c-1.933,1.449-3.814,2.467-5.642,3.054c-1.829,0.586-3.917,0.914-6.263,0.983c-3.52,0.138-6.661-0.259-9.421-1.19
			c-2.761-0.932-5.09-2.329-6.988-4.192c-1.899-1.863-3.296-4.192-4.192-6.988c-0.898-2.795-1.208-6.021-0.932-9.679
			c0.137-1.518,0.396-3.002,0.776-4.452c0.378-1.449,0.81-2.862,1.294-4.244c0.551-1.518,1.328-3.14,2.329-4.865
			c1-1.725,2.019-3.209,3.054-4.451c3.727-4.556,8.385-7.833,13.975-9.835c0.966-0.345,2.278-0.655,3.934-0.932
			c1.656-0.275,3.329-0.396,5.021-0.362c1.69,0.035,3.312,0.259,4.865,0.673c1.553,0.414,2.708,1.139,3.468,2.174
			c0.621,0.828,1.069,1.553,1.346,2.174c0.275,0.621,0.43,1.278,0.466,1.967c0.034,0.691,0.034,1.434,0,2.226
			c-0.036,0.795-0.052,1.778-0.052,2.951c0,1.933-0.018,3.813-0.052,5.642c-0.036,1.829-0.018,3.675,0.052,5.538
			c0,0.621,0,1.434,0,2.434c0,1.001,0.034,2.054,0.104,3.157c0.068,1.104,0.155,2.157,0.259,3.157
			c0.104,1.001,0.259,1.812,0.466,2.433L246.067,836.801z M224.121,832.142c0.758-0.481,1.621-1.017,2.588-1.604
			c0.966-0.585,1.828-1.258,2.588-2.019c-0.621-3.657-0.983-7.314-1.087-10.974c-0.104-3.657-0.087-7.35,0.052-11.076
			c-3.105,0.553-5.9,1.898-8.385,4.037c-2.484,2.14-4.21,4.658-5.176,7.557c-0.414,1.175-0.76,2.382-1.035,3.624
			c-0.276,1.242-0.38,2.45-0.311,3.623c0.068,1.588,0.482,2.916,1.242,3.985c0.759,1.071,1.673,1.882,2.744,2.433
			c1.069,0.554,2.208,0.864,3.416,0.932C221.963,832.729,223.085,832.556,224.121,832.142z"/>
		<path style="fill:#FFFFFF;stroke:#000000;stroke-width:2;" d="M251.966,834.42c-0.414-1.173-0.587-2.33-0.518-3.469
			c0.068-1.139,0.362-2.174,0.88-3.105s1.259-1.656,2.226-2.174c0.965-0.518,2.138-0.707,3.52-0.569
			c0.759,0.069,1.449,0.276,2.07,0.621c0.621,0.346,1.191,0.76,1.708,1.242c0.518,0.483,1.035,1.001,1.553,1.553
			c0.518,0.554,1.051,1.035,1.604,1.449c1.173,0.898,2.415,1.553,3.727,1.967c1.31,0.414,2.691,0.725,4.141,0.932
			c0.966,0,1.742-0.24,2.329-0.725c0.586-0.481,0.984-1.068,1.191-1.76c0.207-0.688,0.259-1.432,0.155-2.226
			c-0.104-0.793-0.362-1.432-0.776-1.915c-1.175-1.173-2.606-1.932-4.296-2.277c-1.692-0.345-3.261-0.759-4.71-1.242
			c-2.07-0.689-4.107-1.569-6.108-2.64c-2.002-1.069-3.623-2.537-4.865-4.4c-1.312-1.931-2.088-3.985-2.33-6.159
			c-0.242-2.174-0.069-4.296,0.518-6.367c0.585-2.07,1.569-3.968,2.95-5.693c1.38-1.725,3.036-3.14,4.969-4.244
			c1.449-0.828,3.036-1.362,4.762-1.604c1.725-0.241,3.468-0.293,5.228-0.155c1.76,0.139,3.502,0.466,5.228,0.983
			c1.724,0.518,3.312,1.087,4.762,1.708c1.657,0.76,2.899,1.829,3.727,3.209c0.828,1.382,1.225,2.779,1.19,4.192
			c-0.036,1.416-0.518,2.64-1.449,3.676c-0.932,1.035-2.295,1.553-4.089,1.553c-1.104,0-2.106-0.189-3.002-0.569
			c-0.898-0.379-1.83-0.741-2.795-1.087c-1.242-0.482-2.588-0.811-4.037-0.984c-1.449-0.171-2.624-0.085-3.52,0.259
			c-0.276,0.07-0.587,0.295-0.932,0.674c-0.346,0.38-0.605,0.846-0.776,1.397c-0.173,0.553-0.207,1.104-0.104,1.656
			c0.104,0.553,0.466,1.001,1.087,1.346c1.657,0.897,3.417,1.588,5.28,2.07c1.863,0.483,3.691,1.035,5.487,1.656
			c1.794,0.621,3.468,1.415,5.021,2.381c1.553,0.968,2.847,2.348,3.882,4.142c1.517,2.623,2.293,5.366,2.329,8.229
			c0.034,2.865-0.535,5.538-1.708,8.023c-1.174,2.484-2.898,4.606-5.176,6.366c-2.277,1.76-4.935,2.812-7.971,3.157
			c-2.14,0.207-4.244,0.086-6.315-0.362c-2.07-0.449-4.073-1.174-6.004-2.174c-1.933-1.001-3.727-2.19-5.383-3.571
			c-1.656-1.38-3.105-2.829-4.348-4.348L251.966,834.42z"/>
		<path style="fill:#FFFFFF;stroke:#000000;stroke-width:2;" d="M336.542,798.808c0.482-1.656,1.258-2.915,2.329-3.778
			c1.069-0.862,2.208-1.362,3.417-1.501c1.207-0.138,2.363,0.069,3.468,0.621c1.103,0.553,1.967,1.415,2.588,2.588
			c0.759-0.414,1.518-0.793,2.278-1.139c0.758-0.345,1.621-0.655,2.588-0.932c4.416-1.173,8.333-1.087,11.75,0.259
			c3.416,1.346,6.263,3.416,8.541,6.211c2.277,2.795,3.898,6.074,4.865,9.835c0.966,3.763,1.191,7.523,0.673,11.284
			c-0.518,3.762-1.848,7.282-3.986,10.559c-2.14,3.279-5.212,5.815-9.213,7.609c-2.624,1.173-5.367,1.915-8.23,2.226
			c-2.865,0.311-5.712,0.362-8.541,0.155c0,0.068,0.017,0.621,0.052,1.656c0.034,1.035,0.052,2.346,0.052,3.934
			c0,1.587,0,3.313,0,5.177s-0.052,3.657-0.155,5.383c-0.104,1.725-0.242,3.261-0.414,4.607c-0.173,1.346-0.432,2.259-0.776,2.743
			c-0.897,1.31-2.002,2.138-3.312,2.484c-1.312,0.345-2.554,0.293-3.727-0.155c-1.174-0.45-2.191-1.208-3.054-2.277
			c-0.864-1.071-1.294-2.365-1.294-3.883v-63.045L336.542,798.808z M349.793,812.266c-0.207,0.346-0.311,0.501-0.311,0.466
			c0-0.034-0.139,0.087-0.415,0.362v17.081c1.38,0.207,2.76,0.311,4.141,0.311c1.38,0,2.829-0.207,4.348-0.621
			c3.105-0.759,5.554-2.26,7.35-4.503c1.793-2.242,2.484-5.021,2.07-8.334c-0.207-1.38-0.605-2.811-1.19-4.296
			c-0.587-1.483-1.364-2.743-2.33-3.778c-0.967-1.035-2.106-1.76-3.416-2.174c-1.312-0.414-2.795-0.275-4.452,0.414
			c-1.174,0.483-2.226,1.208-3.157,2.174C351.501,810.334,350.622,811.3,349.793,812.266z"/>
		<path style="fill:#FFFFFF;stroke:#000000;stroke-width:2;" d="M402.588,834.938c0.758,0.69,1.397,1.57,1.915,2.64
			c0.518,1.07,0.792,2.14,0.828,3.209c0.034,1.069-0.207,2.07-0.725,3.002s-1.433,1.639-2.743,2.122
			c-1.036,0.345-2.174,0.414-3.417,0.207s-2.468-0.621-3.675-1.242c-1.208-0.621-2.278-1.363-3.209-2.226
			c-0.932-0.863-1.604-1.812-2.019-2.847c-0.139-0.345-0.243-0.741-0.311-1.19c-0.07-0.448-0.104-0.845-0.104-1.19v-57.455
			c0-1.587,0.604-2.933,1.812-4.037c1.207-1.104,2.536-1.761,3.986-1.968c0.689-0.067,1.431,0.036,2.226,0.311
			c0.792,0.277,1.535,0.673,2.226,1.191c0.689,0.518,1.259,1.122,1.708,1.812c0.448,0.69,0.673,1.415,0.673,2.174
			c0,1.795,0,4.177,0,7.143c0,2.969,0.016,6.212,0.052,9.731c0.034,3.52,0.052,7.161,0.052,10.922c0,3.762-0.018,7.367-0.052,10.817
			c-0.036,3.452-0.052,6.609-0.052,9.473c0,2.864-0.036,5.16-0.104,6.885L402.588,834.938z"/>
		<path style="fill:#FFFFFF;stroke:#000000;stroke-width:2;" d="M456.317,836.801c0.551,2.002,0.448,3.658-0.311,4.969
			c-0.76,1.311-1.812,2.19-3.158,2.64c-1.346,0.448-2.813,0.396-4.399-0.155c-1.588-0.553-2.968-1.656-4.141-3.312
			c-1.933,1.449-3.814,2.467-5.642,3.054c-1.829,0.586-3.917,0.914-6.263,0.983c-3.52,0.138-6.661-0.259-9.421-1.19
			c-2.761-0.932-5.09-2.329-6.988-4.192c-1.899-1.863-3.296-4.192-4.192-6.988c-0.898-2.795-1.208-6.021-0.932-9.679
			c0.137-1.518,0.396-3.002,0.776-4.452c0.378-1.449,0.81-2.862,1.294-4.244c0.551-1.518,1.328-3.14,2.329-4.865
			c1-1.725,2.019-3.209,3.054-4.451c3.727-4.556,8.385-7.833,13.975-9.835c0.966-0.345,2.278-0.655,3.934-0.932
			c1.656-0.275,3.329-0.396,5.021-0.362c1.69,0.035,3.312,0.259,4.865,0.673c1.553,0.414,2.708,1.139,3.468,2.174
			c0.621,0.828,1.069,1.553,1.346,2.174c0.275,0.621,0.43,1.278,0.466,1.967c0.034,0.691,0.034,1.434,0,2.226
			c-0.036,0.795-0.052,1.778-0.052,2.951c0,1.933-0.018,3.813-0.052,5.642c-0.036,1.829-0.018,3.675,0.052,5.538
			c0,0.621,0,1.434,0,2.434c0,1.001,0.034,2.054,0.104,3.157c0.068,1.104,0.155,2.157,0.259,3.157
			c0.104,1.001,0.259,1.812,0.466,2.433L456.317,836.801z M434.371,832.142c0.758-0.481,1.621-1.017,2.588-1.604
			c0.966-0.585,1.828-1.258,2.588-2.019c-0.621-3.657-0.983-7.314-1.087-10.974c-0.104-3.657-0.087-7.35,0.052-11.076
			c-3.105,0.553-5.9,1.898-8.385,4.037c-2.484,2.14-4.21,4.658-5.176,7.557c-0.414,1.175-0.76,2.382-1.035,3.624
			c-0.276,1.242-0.38,2.45-0.311,3.623c0.068,1.588,0.482,2.916,1.242,3.985c0.759,1.071,1.673,1.882,2.744,2.433
			c1.069,0.554,2.208,0.864,3.416,0.932C432.213,832.729,433.335,832.556,434.371,832.142z"/>
		<path style="fill:#FFFFFF;stroke:#000000;stroke-width:2;" d="M464.91,806.883c-1.381-0.345-2.572-0.932-3.572-1.76
			c-1.001-0.829-1.692-1.794-2.07-2.899c-0.38-1.103-0.38-2.241,0-3.416c0.378-1.173,1.225-2.242,2.536-3.209
			c1.104-0.828,2.346-1.242,3.727-1.242c1.38,0,2.726,0,4.037,0c0-0.482-0.036-1.535-0.104-3.157
			c-0.069-1.621-0.087-3.398-0.052-5.332c0.034-1.931,0.155-3.778,0.362-5.538s0.586-2.984,1.139-3.675
			c1.379-1.932,3.087-2.848,5.124-2.744c2.035,0.104,3.709,1.087,5.021,2.951c0.275,0.346,0.534,0.76,0.776,1.242
			c0.241,0.483,0.362,0.932,0.362,1.346c0.068,2.484,0.086,4.969,0.052,7.453c-0.036,2.484-0.052,4.97-0.052,7.454h8.178
			c1.242,0,2.312,0.414,3.209,1.242c0.896,0.828,1.535,1.795,1.915,2.898c0.378,1.104,0.482,2.243,0.311,3.416
			c-0.173,1.175-0.708,2.141-1.604,2.899c-1.588,1.312-3.434,2.002-5.539,2.07c-2.106,0.069-4.262,0.104-6.47,0.104
			c0,3.796-0.018,7.593-0.052,11.387c-0.036,3.797-0.018,7.593,0.052,11.388c0,1.656,0.086,3.349,0.259,5.073
			c0.171,1.726,0.052,3.382-0.362,4.969c-0.346,1.242-0.932,2.226-1.76,2.95s-1.76,1.173-2.795,1.346
			c-1.035,0.172-2.106,0.104-3.209-0.207c-1.105-0.311-2.14-0.88-3.105-1.708c-0.484-0.483-0.846-1.311-1.087-2.484
			c-0.243-1.173-0.398-2.415-0.466-3.727c-0.069-1.518-0.069-3.14,0-4.866c0-1.38,0-3.173,0-5.383c0-2.208-0.018-4.503-0.052-6.885
			c-0.036-2.381-0.052-4.641-0.052-6.78c0-2.139,0-3.83,0-5.072L464.91,806.883z"/>
		<path style="fill:#FFFFFF;stroke:#000000;stroke-width:2;" d="M536.34,795.702c0.828-1.38,1.863-2.329,3.105-2.847
			s2.467-0.638,3.675-0.362c1.207,0.276,2.277,0.897,3.209,1.863c0.932,0.967,1.501,2.243,1.708,3.83
			c0.138,1.175-0.087,2.831-0.673,4.969c-0.587,2.141-1.312,4.349-2.174,6.626c-0.863,2.277-1.743,4.451-2.64,6.521
			c-0.897,2.07-1.622,3.693-2.174,4.866c-2.347,5.176-4.901,10.248-7.661,15.218c-2.761,4.969-5.59,9.902-8.488,14.804
			c-0.414,0.759-0.897,1.69-1.449,2.795c-0.554,1.103-1.123,2.242-1.708,3.416c-0.587,1.173-1.19,2.277-1.812,3.312
			s-1.209,1.794-1.76,2.277c-1.242,1.173-2.521,1.864-3.831,2.071c-1.312,0.207-2.502,0.033-3.571-0.518
			c-1.07-0.554-1.933-1.416-2.588-2.589c-0.657-1.174-0.916-2.588-0.776-4.244c0.067-0.621,0.345-1.433,0.828-2.433
			c0.482-1.001,1.035-2.036,1.656-3.105c0.621-1.071,1.242-2.089,1.863-3.054c0.621-0.968,1.104-1.761,1.449-2.382
			c1.38-2.277,2.708-4.555,3.986-6.832c1.275-2.277,2.57-4.555,3.882-6.833c-4.555-3.794-8.507-8.022-11.854-12.681
			c-3.349-4.659-5.919-9.783-7.713-15.373c-0.346-0.966-0.69-1.932-1.035-2.899c-0.346-0.966-0.45-1.967-0.311-3.002
			c0.138-1.173,0.466-2.226,0.983-3.157s1.191-1.69,2.02-2.277c0.828-0.586,1.775-0.914,2.847-0.983
			c1.069-0.068,2.156,0.173,3.261,0.725c0.896,0.483,1.604,1.156,2.122,2.019c0.518,0.863,0.948,1.795,1.294,2.795
			c0.345,1.001,0.638,2.019,0.88,3.054c0.241,1.035,0.534,1.967,0.88,2.795c2.76,6.833,6.937,12.666,12.526,17.496
			c2.001-4.142,3.795-8.298,5.383-12.475c1.587-4.175,3.003-8.438,4.245-12.785L536.34,795.702z"/>
		<path style="fill:#FFFFFF;stroke:#000000;stroke-width:2;" d="M557.251,809.419c0.067-0.448,0.033-1.259-0.104-2.433
			c-1.105-0.621-1.968-1.414-2.589-2.381c-0.621-0.966-0.983-2.001-1.087-3.106c-0.104-1.103,0.104-2.156,0.621-3.157
			c0.518-1,1.362-1.846,2.536-2.536c1.587-0.896,3.329-1.069,5.229-0.518c1.897,0.553,3.536,1.381,4.917,2.484
			c1.725-1.311,3.52-2.415,5.384-3.312c1.863-0.896,3.761-1.501,5.693-1.812c1.932-0.311,3.898-0.259,5.9,0.155
			c2.001,0.414,3.968,1.277,5.901,2.588c0.966,0.621,1.863,1.397,2.691,2.329s1.346,1.984,1.553,3.157
			c0.345,1.727,0.207,3.228-0.414,4.504c-0.621,1.277-1.485,2.209-2.588,2.795c-1.104,0.587-2.348,0.76-3.727,0.518
			c-1.382-0.241-2.692-0.983-3.935-2.226c-0.414-0.275-0.708-0.5-0.88-0.673c-0.173-0.172-0.535-0.396-1.087-0.673
			c-1.104-0.275-2.191-0.207-3.261,0.207c-1.071,0.414-2.106,0.983-3.105,1.708c-1.002,0.725-1.934,1.519-2.795,2.381
			c-0.864,0.863-1.641,1.64-2.33,2.329v26.398c0,1.035-0.207,2.036-0.621,3.002c-0.621,1.587-1.604,2.691-2.95,3.312
			s-2.691,0.793-4.037,0.518c-1.346-0.276-2.521-0.967-3.52-2.07c-1.002-1.104-1.501-2.519-1.501-4.244v-28.986
			C557.147,809.954,557.181,809.868,557.251,809.419z"/>
		<path style="fill:#FFFFFF;stroke:#000000;stroke-width:2;" d="M610.873,843.478c-1.381,1-2.812,1.466-4.296,1.397
			c-1.485-0.069-2.795-0.673-3.935-1.812c-1.139-1.139-1.708-2.708-1.708-4.71v-57.559c0-1.587,0.621-2.933,1.864-4.037
			c1.242-1.104,2.621-1.794,4.141-2.071c1.517-0.274,2.933-0.033,4.244,0.726c1.311,0.76,2.035,2.174,2.174,4.244
			c0.275,3.589,0.396,7.091,0.362,10.508c-0.035,3.416-0.087,6.85-0.155,10.3c2.553-1.724,5.21-2.881,7.972-3.468
			c2.76-0.586,5.417-0.569,7.971,0.052c2.553,0.621,4.934,1.863,7.144,3.727c2.208,1.863,4.002,4.452,5.383,7.765
			c0.966,2.209,1.621,4.572,1.967,7.091c0.345,2.521,0.534,5.073,0.569,7.661c0.034,2.588,0,5.16-0.104,7.712
			c-0.104,2.555-0.155,4.97-0.155,7.247c0,1.449-0.38,2.761-1.139,3.934c-0.76,1.173-1.708,2.035-2.847,2.588
			c-1.139,0.552-2.347,0.725-3.623,0.518c-1.278-0.207-2.433-0.967-3.468-2.277c-1.035-1.381-1.675-3.002-1.916-4.865
			c-0.242-1.863-0.311-3.847-0.207-5.953c0.104-2.104,0.259-4.26,0.466-6.47c0.207-2.208,0.259-4.33,0.155-6.366
			c-0.104-2.035-0.501-3.917-1.19-5.643c-0.69-1.725-1.898-3.14-3.623-4.244c-1.381-0.207-2.623-0.12-3.727,0.259
			c-1.104,0.38-2.106,0.949-3.002,1.708c-0.898,0.76-1.744,1.622-2.536,2.588c-0.795,0.968-1.605,1.933-2.434,2.898
			c-0.207,0.347-0.449,0.673-0.725,0.983c-0.276,0.311-0.587,0.64-0.932,0.983v19.67
			C613.15,840.838,612.253,842.477,610.873,843.478z"/>
		<path style="fill:#FFFFFF;stroke:#000000;stroke-width:2;" d="M687.375,795.702c0.828-1.38,1.863-2.329,3.105-2.847
			s2.467-0.638,3.675-0.362c1.207,0.276,2.277,0.897,3.209,1.863c0.932,0.967,1.501,2.243,1.708,3.83
			c0.138,1.175-0.087,2.831-0.673,4.969c-0.587,2.141-1.312,4.349-2.174,6.626c-0.863,2.277-1.743,4.451-2.64,6.521
			c-0.897,2.07-1.622,3.693-2.174,4.866c-2.347,5.176-4.901,10.248-7.661,15.218c-2.761,4.969-5.59,9.902-8.488,14.804
			c-0.414,0.759-0.897,1.69-1.449,2.795c-0.554,1.103-1.123,2.242-1.708,3.416c-0.588,1.173-1.19,2.277-1.812,3.312
			c-0.621,1.035-1.208,1.794-1.76,2.277c-1.242,1.173-2.52,1.864-3.83,2.071c-1.312,0.207-2.502,0.033-3.571-0.518
			c-1.071-0.554-1.933-1.416-2.588-2.589c-0.657-1.174-0.916-2.588-0.776-4.244c0.067-0.621,0.344-1.433,0.828-2.433
			c0.481-1.001,1.035-2.036,1.656-3.105c0.621-1.071,1.242-2.089,1.863-3.054c0.621-0.968,1.104-1.761,1.449-2.382
			c1.38-2.277,2.708-4.555,3.985-6.832c1.276-2.277,2.57-4.555,3.883-6.833c-4.556-3.794-8.507-8.022-11.854-12.681
			c-3.349-4.659-5.919-9.783-7.713-15.373c-0.346-0.966-0.69-1.932-1.035-2.899c-0.346-0.966-0.449-1.967-0.311-3.002
			c0.138-1.173,0.466-2.226,0.983-3.157s1.19-1.69,2.019-2.277c0.828-0.586,1.776-0.914,2.848-0.983
			c1.068-0.068,2.155,0.173,3.261,0.725c0.896,0.483,1.604,1.156,2.122,2.019c0.518,0.863,0.948,1.795,1.294,2.795
			c0.345,1.001,0.638,2.019,0.88,3.054c0.241,1.035,0.534,1.967,0.88,2.795c2.76,6.833,6.937,12.666,12.526,17.496
			c2.001-4.142,3.795-8.298,5.383-12.475c1.587-4.175,3.003-8.438,4.245-12.785L687.375,795.702z"/>
		<path style="fill:#FFFFFF;stroke:#000000;stroke-width:2;" d="M746.691,838.664c-0.207,1.726-0.846,3.14-1.915,4.244
			c-1.071,1.104-2.277,1.794-3.623,2.07c-1.346,0.275-2.64,0.104-3.883-0.518c-1.242-0.621-2.14-1.829-2.691-3.623
			c-0.621-1.932-0.863-3.95-0.725-6.056c0.138-2.104,0.207-4.054,0.207-5.85c0-3.727,0.017-7.436,0.052-11.129
			c0.034-3.69-0.121-7.401-0.466-11.128c-0.069-0.138-0.139-0.259-0.207-0.362c-0.069-0.104-0.207-0.259-0.414-0.466
			c-1.588-0.414-3.278-0.311-5.072,0.311c-1.796,0.621-3.312,1.415-4.555,2.381c-1.105,0.897-2.192,2.122-3.262,3.675
			c-1.07,1.553-1.604,3.054-1.604,4.503v14.286c0,1.105,0.034,2.313,0.104,3.624c0.068,1.312,0.017,2.588-0.155,3.83
			c-0.173,1.242-0.569,2.381-1.19,3.416s-1.622,1.794-3.002,2.277c-0.761,0.275-1.467,0.379-2.122,0.311
			c-0.657-0.069-1.364-0.242-2.122-0.518c-1.242-0.414-2.141-1.122-2.692-2.122c-0.553-1-0.932-2.07-1.139-3.209
			s-0.294-2.242-0.259-3.312c0.034-1.069,0.052-1.916,0.052-2.537c0-1.586-0.018-3.882-0.052-6.884
			c-0.035-3.002-0.052-6.159-0.052-9.473c0-3.312,0-6.47,0-9.472c0-3.003,0-5.296,0-6.885c0-1.517,0.448-2.777,1.346-3.778
			c0.896-1,1.949-1.656,3.158-1.967c1.206-0.311,2.484-0.241,3.83,0.207c1.346,0.449,2.467,1.363,3.364,2.743
			c2.76-1.794,5.798-3.002,9.11-3.623s6.435-0.518,9.368,0.311c2.933,0.828,5.384,2.381,7.351,4.658s2.984,5.419,3.054,9.421
			c0,0.139,0.034,0.553,0.104,1.242c0.068,0.69,0.104,1.656,0.104,2.898V838.664z"/>
		<path style="fill:#FFFFFF;stroke:#000000;stroke-width:2;" d="M783.338,828.415c1.725-1.104,3.364-1.587,4.918-1.449
			c1.553,0.139,2.829,0.673,3.83,1.604c0.999,0.932,1.553,2.174,1.656,3.727s-0.432,3.193-1.604,4.918
			c-0.761,1.174-1.848,2.243-3.261,3.209c-1.416,0.966-2.779,1.725-4.09,2.277c-3.037,1.38-6.107,2.001-9.213,1.863
			c-3.106-0.139-5.988-0.897-8.645-2.277c-2.657-1.38-4.953-3.295-6.884-5.745c-1.934-2.449-3.245-5.296-3.935-8.541
			c-1.381-6.211-1.104-12.18,0.828-17.909c0.759-2.07,1.673-4.071,2.744-6.005c1.068-1.931,2.363-3.69,3.882-5.279
			c1.518-1.587,3.209-2.984,5.072-4.192c1.863-1.207,3.898-2.019,6.108-2.433c1.517-0.275,3.45-0.259,5.797,0.052
			c2.346,0.311,4.641,0.915,6.885,1.812c2.241,0.897,4.208,2.07,5.9,3.52c1.69,1.449,2.64,3.175,2.847,5.176
			c0.138,1.105,0,2.123-0.414,3.055s-1.001,1.708-1.76,2.329c-0.761,0.621-1.641,1.053-2.64,1.294
			c-1.002,0.242-2.019,0.225-3.054-0.052c-1.243-0.345-2.227-0.811-2.951-1.397c-0.725-0.586-1.674-1.362-2.847-2.329
			c-0.553-0.138-1.07-0.362-1.553-0.673c-0.483-0.311-1.001-0.431-1.553-0.362l-2.795,0.311c-0.483,0.276-0.932,0.518-1.346,0.725
			s-0.828,0.414-1.242,0.621c-2.348,2.347-4.073,4.952-5.177,7.815c-1.104,2.865-1.381,5.953-0.828,9.266
			c0.345,2.14,1.018,3.899,2.019,5.279c1,1.382,2.174,2.329,3.521,2.847c1.346,0.518,2.829,0.569,4.451,0.155
			c1.621-0.414,3.226-1.346,4.813-2.795L783.338,828.415z"/>
		<path style="fill:#FFFFFF;stroke:#000000;stroke-width:2;" d="M814.497,843.478c-1.381,1-2.812,1.466-4.296,1.397
			c-1.485-0.069-2.795-0.673-3.935-1.812c-1.139-1.139-1.708-2.708-1.708-4.71v-57.559c0-1.587,0.621-2.933,1.864-4.037
			c1.242-1.104,2.621-1.794,4.141-2.071c1.517-0.274,2.933-0.033,4.244,0.726c1.311,0.76,2.035,2.174,2.174,4.244
			c0.275,3.589,0.396,7.091,0.362,10.508c-0.035,3.416-0.087,6.85-0.155,10.3c2.553-1.724,5.21-2.881,7.972-3.468
			c2.76-0.586,5.417-0.569,7.971,0.052c2.553,0.621,4.934,1.863,7.144,3.727c2.208,1.863,4.002,4.452,5.383,7.765
			c0.966,2.209,1.621,4.572,1.967,7.091c0.345,2.521,0.534,5.073,0.569,7.661c0.034,2.588,0,5.16-0.104,7.712
			c-0.104,2.555-0.155,4.97-0.155,7.247c0,1.449-0.38,2.761-1.139,3.934c-0.76,1.173-1.708,2.035-2.847,2.588
			c-1.139,0.552-2.347,0.725-3.623,0.518c-1.278-0.207-2.433-0.967-3.468-2.277c-1.035-1.381-1.675-3.002-1.916-4.865
			c-0.242-1.863-0.311-3.847-0.207-5.953c0.104-2.104,0.259-4.26,0.466-6.47c0.207-2.208,0.259-4.33,0.155-6.366
			c-0.104-2.035-0.501-3.917-1.19-5.643c-0.69-1.725-1.898-3.14-3.623-4.244c-1.381-0.207-2.623-0.12-3.727,0.259
			c-1.104,0.38-2.106,0.949-3.002,1.708c-0.898,0.76-1.744,1.622-2.536,2.588c-0.795,0.968-1.605,1.933-2.434,2.898
			c-0.207,0.347-0.449,0.673-0.725,0.983c-0.276,0.311-0.587,0.64-0.932,0.983v19.67
			C816.774,840.838,815.877,842.477,814.497,843.478z"/>
		<path style="fill:#FFFFFF;stroke:#000000;stroke-width:2;" d="M854.869,816.613c0.482-2.001,1.155-3.968,2.019-5.9
			c0.862-1.932,1.915-3.778,3.158-5.538c1.242-1.761,2.64-3.365,4.192-4.814s3.226-2.622,5.021-3.52
			c3.174-1.656,6.367-2.501,9.576-2.536c3.209-0.034,6.193,0.604,8.954,1.915c2.76,1.312,5.107,3.261,7.04,5.849
			c1.932,2.589,3.209,5.678,3.83,9.266c0.345,2.347,0.534,4.572,0.569,6.677c0.034,2.106-0.19,4.297-0.673,6.574
			c-0.69,3.245-2.088,6.47-4.192,9.68c-2.106,3.209-4.625,5.9-7.558,8.074c-2.934,2.174-6.143,3.605-9.627,4.296
			c-3.486,0.689-6.988,0.138-10.508-1.656c-1.589-0.76-3.02-1.64-4.296-2.64c-1.278-1-2.433-2.19-3.469-3.571
			c-1.174-1.518-2.088-3.105-2.743-4.762c-0.656-1.657-1.19-3.381-1.604-5.177c-0.483-1.932-0.656-3.882-0.518-5.849
			c0.138-1.967,0.379-3.883,0.725-5.746L854.869,816.613z M867.292,818.787c-0.207,1.105-0.38,2.192-0.518,3.262
			c-0.139,1.07-0.139,2.157,0,3.261c0.207,1.588,0.638,3.038,1.294,4.348c0.655,1.312,1.518,2.348,2.588,3.105
			c1.069,0.761,2.294,1.157,3.676,1.19c1.379,0.036,2.862-0.396,4.451-1.294c2.001-1.172,3.727-2.984,5.176-5.435
			c1.449-2.449,2.346-5.003,2.691-7.66c0.345-2.656,0.068-5.177-0.828-7.558c-0.897-2.381-2.657-4.089-5.279-5.124
			c-1.726,0-3.312,0.328-4.762,0.983c-1.449,0.656-2.71,1.519-3.779,2.588c-1.07,1.07-2.002,2.329-2.795,3.778
			C868.413,815.682,867.774,817.201,867.292,818.787z"/>
		<path style="fill:#FFFFFF;stroke:#000000;stroke-width:2;" d="M902.799,834.42c-0.414-1.173-0.587-2.33-0.518-3.469
			c0.068-1.139,0.362-2.174,0.88-3.105s1.259-1.656,2.226-2.174c0.966-0.518,2.139-0.707,3.521-0.569
			c0.758,0.069,1.449,0.276,2.07,0.621c0.621,0.346,1.19,0.76,1.708,1.242c0.518,0.483,1.035,1.001,1.553,1.553
			c0.518,0.554,1.052,1.035,1.604,1.449c1.173,0.898,2.415,1.553,3.727,1.967c1.311,0.414,2.691,0.725,4.142,0.932
			c0.965,0,1.741-0.24,2.329-0.725c0.585-0.481,0.983-1.068,1.19-1.76c0.207-0.688,0.259-1.432,0.155-2.226
			c-0.104-0.793-0.362-1.432-0.776-1.915c-1.175-1.173-2.606-1.932-4.297-2.277c-1.691-0.345-3.261-0.759-4.71-1.242
			c-2.07-0.689-4.106-1.569-6.107-2.64c-2.003-1.069-3.624-2.537-4.866-4.4c-1.312-1.931-2.088-3.985-2.329-6.159
			c-0.242-2.174-0.069-4.296,0.518-6.367c0.586-2.07,1.569-3.968,2.95-5.693c1.38-1.725,3.036-3.14,4.97-4.244
			c1.449-0.828,3.036-1.362,4.762-1.604c1.725-0.241,3.468-0.293,5.229-0.155c1.76,0.139,3.502,0.466,5.228,0.983
			c1.725,0.518,3.312,1.087,4.762,1.708c1.656,0.76,2.898,1.829,3.727,3.209c0.828,1.382,1.225,2.779,1.191,4.192
			c-0.036,1.416-0.519,2.64-1.45,3.676c-0.932,1.035-2.295,1.553-4.089,1.553c-1.104,0-2.105-0.189-3.002-0.569
			c-0.897-0.379-1.829-0.741-2.795-1.087c-1.242-0.482-2.588-0.811-4.038-0.984c-1.449-0.171-2.623-0.085-3.52,0.259
			c-0.276,0.07-0.587,0.295-0.932,0.674c-0.346,0.38-0.604,0.846-0.776,1.397c-0.173,0.553-0.207,1.104-0.104,1.656
			c0.104,0.553,0.466,1.001,1.087,1.346c1.656,0.897,3.416,1.588,5.28,2.07c1.863,0.483,3.69,1.035,5.486,1.656
			c1.794,0.621,3.468,1.415,5.021,2.381c1.553,0.968,2.847,2.348,3.883,4.142c1.517,2.623,2.293,5.366,2.329,8.229
			c0.033,2.865-0.536,5.538-1.708,8.023c-1.175,2.484-2.899,4.606-5.177,6.366s-4.935,2.812-7.971,3.157
			c-2.141,0.207-4.245,0.086-6.315-0.362c-2.07-0.449-4.072-1.174-6.004-2.174c-1.934-1.001-3.727-2.19-5.384-3.571
			c-1.656-1.38-3.105-2.829-4.348-4.348L902.799,834.42z"/>
		<path style="fill:#FFFFFF;stroke:#000000;stroke-width:2;" d="M435.132,931.343c0.724,1.397,0.982,2.807,0.776,4.231
			c-0.208,1.423-1.139,2.471-2.795,3.145c-1.553,0.569-3.042,0.414-4.464-0.466c-1.424-0.881-2.706-2.071-3.843-3.571
			c-1.139-1.502-2.123-3.081-2.951-4.736c-0.829-1.657-1.45-3.003-1.863-4.037c-2.64-6.107-4.064-12.462-4.271-19.062
			c-0.207-6.6,0.647-13.03,2.562-19.294c0.466-1.604,1.087-3.118,1.863-4.542c0.776-1.423,1.553-2.859,2.329-4.31
			c0.466-0.827,1.048-1.863,1.747-3.105s1.514-2.354,2.446-3.339c0.932-0.982,1.953-1.681,3.067-2.096
			c1.112-0.414,2.316-0.233,3.61,0.543c1.242,0.776,1.914,1.696,2.019,2.757c0.103,1.062-0.091,2.148-0.583,3.261
			c-0.492,1.113-1.113,2.188-1.863,3.222c-0.751,1.036-1.358,1.916-1.825,2.641c-0.673,1.19-1.23,2.2-1.669,3.027
			c-0.44,0.829-0.803,1.527-1.087,2.097c-0.285,0.57-0.505,1.075-0.66,1.514c-0.155,0.44-0.285,0.867-0.388,1.281
			c-0.776,2.692-1.347,5.578-1.708,8.657c-0.363,3.08-0.466,6.173-0.311,9.278s0.621,6.146,1.397,9.123s1.914,5.706,3.416,8.191
			c0.259,0.466,0.595,0.943,1.009,1.436c0.414,0.491,0.789,0.932,1.126,1.32c0.336,0.388,0.608,0.698,0.815,0.932
			c0.206,0.233,0.258,0.297,0.155,0.194L435.132,931.343z"/>
		<path style="fill:#FFFFFF;stroke:#000000;stroke-width:2;" d="M474.187,919.464c0.879,1.502,1.177,2.847,0.893,4.037
			c-0.285,1.191-0.868,2.084-1.747,2.679c-0.881,0.594-1.955,0.827-3.222,0.698c-1.269-0.13-2.498-0.789-3.688-1.979
			c-1.242,0.88-2.537,1.564-3.882,2.058c-1.346,0.491-2.77,0.918-4.27,1.281c-2.329,0.517-4.569,0.478-6.716-0.117
			c-2.148-0.596-4.05-1.565-5.707-2.911c-1.657-1.346-3.002-3.015-4.037-5.008c-1.036-1.992-1.605-4.154-1.708-6.483
			c-0.155-2.588,0.039-5.072,0.583-7.453s1.41-4.555,2.601-6.522c1.19-1.966,2.756-3.649,4.697-5.047s4.231-2.38,6.871-2.95
			c1.553-0.311,3.118-0.466,4.698-0.466c1.578,0,3.145,0.13,4.697,0.389c-0.052-1.139-0.091-2.446-0.117-3.921
			c-0.026-1.476-0.039-2.912-0.039-4.31s0.051-2.651,0.155-3.766c0.103-1.112,0.233-1.902,0.388-2.368
			c0.361-0.932,0.918-1.643,1.669-2.135c0.75-0.491,1.54-0.75,2.368-0.776c0.828-0.025,1.643,0.182,2.446,0.621
			c0.802,0.44,1.437,1.101,1.902,1.979c0.103,0.26,0.233,0.505,0.388,0.737c0.155,0.233,0.233,0.479,0.233,0.738
			c0.051,6.781,0.064,13.484,0.039,20.109c-0.027,6.626-0.039,13.328-0.039,20.109C473.849,918.998,474.031,919.257,474.187,919.464
			z M463.395,915.193c0.103-0.155,0.297-0.311,0.582-0.466c0.284-0.155,0.427-0.361,0.427-0.621c0-2.174,0-4.31,0-6.405
			c0-2.097-0.027-4.232-0.078-6.406c-1.242-0.258-2.537-0.413-3.882-0.466c-1.347-0.051-2.653,0.078-3.921,0.389
			c-1.269,0.311-2.434,0.828-3.494,1.553c-1.062,0.726-1.902,1.76-2.523,3.105c-0.311,0.984-0.596,1.968-0.854,2.95
			c-0.26,0.984-0.402,1.941-0.427,2.873c-0.026,0.932,0.09,1.852,0.35,2.756c0.258,0.906,0.699,1.774,1.32,2.602
			c0.206,0.207,0.453,0.415,0.737,0.621c0.284,0.207,0.841,0.57,1.669,1.087c1.915,0.155,3.739-0.025,5.474-0.544
			C460.508,917.704,462.048,916.695,463.395,915.193z"/>
		<path style="fill:#FFFFFF;stroke:#000000;stroke-width:2;" d="M516.035,919.619c0.466,0.673,0.738,1.463,0.815,2.367
			c0.078,0.906-0.026,1.761-0.311,2.562c-0.285,0.804-0.751,1.462-1.397,1.98c-0.647,0.517-1.488,0.749-2.523,0.698
			c-1.347-0.104-2.434-0.57-3.261-1.397c-0.829-0.827-1.605-1.759-2.329-2.795c-2.019,1.657-4.104,2.807-6.251,3.455
			c-2.148,0.646-4.258,0.788-6.328,0.427c-2.071-0.362-4.012-1.23-5.823-2.601c-1.812-1.371-3.338-3.223-4.581-5.552
			c-1.139-2.174-1.774-4.581-1.902-7.221c-0.13-2.64-0.168-5.149-0.117-7.531c0-0.827,0.026-1.643,0.078-2.445
			c0.051-0.803,0.104-1.643,0.155-2.523c0.051-0.673,0.078-1.332,0.078-1.98c0-0.646,0.039-1.254,0.117-1.824
			c0.078-0.569,0.233-1.138,0.466-1.708c0.233-0.569,0.583-1.112,1.048-1.631c0.621-0.672,1.371-1.073,2.251-1.203
			c0.879-0.129,1.72-0.039,2.523,0.271c0.802,0.311,1.5,0.79,2.096,1.437c0.595,0.647,0.918,1.437,0.971,2.368
			c0.103,2.64,0.039,5.307-0.194,7.997c-0.233,2.692-0.221,5.332,0.039,7.919c0.103,1.243,0.427,2.512,0.97,3.805
			c0.543,1.295,1.41,2.227,2.601,2.795c1.19,0.519,2.394,0.479,3.61-0.116c1.216-0.595,2.213-1.307,2.99-2.135
			c0.361-0.414,0.711-0.866,1.048-1.359c0.336-0.491,0.711-0.918,1.126-1.28c-0.207-1.812-0.337-3.623-0.389-5.436
			c-0.052-1.811-0.052-3.622,0-5.435c0-0.982,0.039-2.058,0.117-3.223c0.077-1.164,0.283-2.276,0.621-3.338
			c0.336-1.061,0.841-1.992,1.514-2.796c0.672-0.802,1.631-1.306,2.873-1.514c0.568-0.103,1.126-0.051,1.669,0.155
			c0.544,0.208,1.021,0.492,1.437,0.854c0.725,0.621,1.216,1.319,1.476,2.096c0.258,0.776,0.388,1.605,0.388,2.485
			s-0.065,1.773-0.194,2.678c-0.13,0.906-0.221,1.747-0.271,2.523c-0.104,1.45-0.182,2.978-0.232,4.581
			c-0.053,1.605,0,3.21,0.155,4.813c0.155,1.605,0.452,3.158,0.893,4.659C514.495,917.006,515.154,918.377,516.035,919.619z"/>
		<path style="fill:#FFFFFF;stroke:#000000;stroke-width:2;" d="M542.277,915.97c1.293-0.827,2.523-1.19,3.688-1.087
			c1.165,0.104,2.122,0.505,2.873,1.203c0.75,0.699,1.164,1.631,1.242,2.795c0.077,1.165-0.324,2.396-1.203,3.688
			c-0.57,0.881-1.386,1.683-2.446,2.406c-1.062,0.725-2.084,1.294-3.066,1.709c-2.278,1.034-4.581,1.5-6.91,1.397
			c-2.329-0.104-4.491-0.674-6.483-1.708c-1.993-1.035-3.714-2.472-5.163-4.31c-1.449-1.837-2.434-3.972-2.95-6.405
			c-1.036-4.658-0.828-9.135,0.621-13.433c0.569-1.553,1.255-3.053,2.058-4.503c0.802-1.448,1.772-2.769,2.911-3.96
			c1.139-1.189,2.407-2.238,3.805-3.145c1.397-0.904,2.924-1.514,4.581-1.824c1.138-0.206,2.587-0.194,4.348,0.039
			c1.759,0.232,3.48,0.687,5.163,1.358c1.682,0.674,3.157,1.553,4.426,2.64c1.268,1.087,1.979,2.382,2.135,3.883
			c0.104,0.828,0,1.591-0.311,2.29c-0.311,0.698-0.751,1.281-1.319,1.747c-0.57,0.466-1.23,0.79-1.98,0.971
			c-0.751,0.182-1.514,0.168-2.29-0.039c-0.932-0.259-1.669-0.608-2.213-1.048s-1.256-1.021-2.135-1.747
			c-0.415-0.104-0.804-0.272-1.165-0.505c-0.362-0.233-0.751-0.323-1.165-0.271l-2.096,0.232c-0.363,0.208-0.699,0.389-1.01,0.544
			s-0.621,0.311-0.932,0.466c-1.76,1.76-3.055,3.715-3.882,5.861c-0.828,2.148-1.036,4.465-0.621,6.949
			c0.259,1.605,0.763,2.925,1.514,3.96c0.75,1.036,1.631,1.747,2.64,2.135c1.01,0.389,2.122,0.428,3.339,0.117
			c1.216-0.312,2.419-1.01,3.61-2.097L542.277,915.97z"/>
		<path style="fill:#FFFFFF;stroke:#000000;stroke-width:2;" d="M564.56,926.878c-1.036,0.75-2.11,1.1-3.223,1.049
			c-1.113-0.053-2.096-0.505-2.95-1.359c-0.854-0.854-1.281-2.03-1.281-3.532v-44.256c0-0.776,0.22-1.487,0.66-2.136
			c0.439-0.646,0.996-1.177,1.669-1.591s1.41-0.686,2.213-0.815c0.802-0.129,1.54-0.104,2.213,0.077
			c0.672,0.183,1.255,0.57,1.747,1.165c0.491,0.596,0.764,1.411,0.815,2.445c0.155,4.038,0.232,7.661,0.232,10.87
			c0,3.21-0.026,6.444-0.077,9.705c1.19-0.879,2.315-1.798,3.377-2.756c1.061-0.957,2.108-1.953,3.145-2.989
			c0.932-0.982,1.837-2.083,2.718-3.3c0.88-1.216,1.992-2.058,3.339-2.523c0.982-0.311,1.902-0.361,2.756-0.155
			c0.854,0.207,1.578,0.608,2.174,1.203c0.595,0.596,0.996,1.32,1.204,2.174c0.206,0.854,0.155,1.774-0.155,2.757
			c-0.26,0.726-0.842,1.63-1.747,2.717c-0.906,1.088-1.916,2.201-3.028,3.339c-1.113,1.14-2.213,2.188-3.3,3.145
			c-1.087,0.959-1.968,1.696-2.64,2.213c1.812,1.968,3.597,3.96,5.357,5.979c1.759,2.019,3.545,4.037,5.357,6.056
			c0.776,0.881,1.514,1.67,2.213,2.368c0.698,0.699,1.307,1.541,1.824,2.523c0.414,0.829,0.544,1.683,0.389,2.562
			c-0.156,0.881-0.505,1.644-1.049,2.29c-0.543,0.646-1.217,1.126-2.019,1.437c-0.803,0.311-1.669,0.336-2.601,0.078
			c-0.881-0.26-1.735-0.738-2.562-1.437c-0.829-0.699-1.618-1.462-2.368-2.291c-0.751-0.827-1.463-1.681-2.135-2.562
			c-0.674-0.88-1.295-1.631-1.863-2.252c-1.398-1.604-2.783-3.195-4.154-4.775c-1.372-1.578-2.783-3.117-4.231-4.619v13.51
			C566.268,924.898,565.594,926.127,564.56,926.878z"/>
		<path style="fill:#FFFFFF;stroke:#000000;stroke-width:2;" d="M593.364,930.333c0.414-0.415,0.789-0.789,1.126-1.126
			c0.336-0.337,0.672-0.673,1.01-1.009c0.336-0.337,0.66-0.712,0.971-1.126c0.311-0.415,0.646-0.906,1.009-1.476
			c1.501-2.432,2.64-5.201,3.416-8.308c0.776-3.105,1.242-6.301,1.397-9.588s0.026-6.522-0.388-9.706
			c-0.415-3.183-1.114-6.095-2.097-8.734c-0.673-1.812-1.514-3.52-2.523-5.124c-1.009-1.604-2.031-3.184-3.066-4.736
			c-0.466-0.672-0.92-1.332-1.358-1.98c-0.44-0.646-0.688-1.409-0.738-2.29c-0.052-1.346,0.272-2.458,0.971-3.339
			c0.699-0.879,1.539-1.437,2.523-1.669c0.982-0.233,1.992-0.142,3.028,0.271c1.034,0.415,1.863,1.217,2.484,2.407
			c1.138,1.604,2.225,3.235,3.261,4.892c1.035,1.657,1.992,3.338,2.873,5.047c1.448,2.795,2.549,5.822,3.3,9.084
			c0.749,3.261,1.189,6.6,1.319,10.016c0.129,3.416-0.038,6.794-0.504,10.132c-0.466,3.339-1.165,6.458-2.097,9.356
			c-0.829,2.484-1.824,4.98-2.989,7.492c-1.165,2.51-2.653,4.723-4.465,6.639c-0.776,0.827-1.657,1.604-2.64,2.329
			c-0.983,0.724-2.07,1.087-3.261,1.087c-1.087,0-1.979-0.233-2.679-0.699c-0.698-0.466-1.191-1.062-1.476-1.785
			c-0.284-0.726-0.376-1.515-0.271-2.368c0.104-0.854,0.361-1.696,0.776-2.523L593.364,930.333z"/>
	</g>
	<g>
		<path style="fill:#FFFFFF;stroke:#000000;stroke-width:2;" d="M402.938,455.017c-1.105,8.106-3.868,15.012-8.288,20.718
			c-4.42,5.706-9.487,9.668-15.193,11.878c-5.715,2.21-11.792,2.486-18.232,0.829c-6.449-1.657-12.431-5.991-17.956-12.983
			c-4.792-5.888-7.459-12.431-8.011-19.613s-1.571-14.27-3.039-21.271c-3.686-20.252-9.03-41.065-16.022-62.431
			c-22.842,0.371-45.494,0.552-67.956,0.552c-22.471,0-44.941,0.19-67.403,0.553c-3.315,9.582-6.172,19.337-8.563,29.282
			c-2.4,9.945-4.696,19.708-6.906,29.282c-1.847,7.372-3.505,15.012-4.972,22.928c-1.476,7.925-4.791,14.831-9.945,20.718
			c-6.267,7.364-12.983,11.507-20.166,12.431c-7.183,0.916-13.631-0.276-19.337-3.591c-5.715-3.315-10.316-8.382-13.812-15.193
			c-3.505-6.811-4.696-14.641-3.591-23.481c1.105-11.412,3.315-22.652,6.63-33.702c3.315-11.049,6.44-22.099,9.393-33.149
			c16.574-63.346,37.932-124.672,64.088-183.978c2.21-5.154,4.506-10.126,6.906-14.917c2.392-4.783,4.696-9.574,6.906-14.365
			c2.572-5.154,5.154-10.678,7.735-16.575c2.572-5.887,5.611-11.326,9.116-16.298c3.497-4.972,7.64-9.202,12.431-12.707
			c4.782-3.496,10.679-5.249,17.68-5.249c9.202,0,16.937,2.952,23.204,8.84c25.043,25.052,45.667,53.315,61.878,84.807
			c16.204,31.492,30.75,63.631,43.646,96.409c7.735-0.363,15.28-0.363,22.652,0c7.364,0.371,13.994,3.686,19.89,9.945
			c5.154,5.162,8.192,10.687,9.116,16.575c0.915,5.896,0.362,11.602-1.658,17.127c-2.028,5.525-5.343,10.316-9.945,14.365
			c-4.609,4.057-10.221,6.819-16.851,8.287c3.677,12.897,6.906,26.062,9.668,39.503c2.762,13.449,5.059,26.985,6.906,40.607V455.017
			z M290.23,304.74c-7.001-16.575-14.459-33.054-22.375-49.448c-7.925-16.384-16.851-31.949-26.795-46.685
			c-7.373,16.212-14.278,32.321-20.718,48.343c-6.449,16.022-12.431,32.32-17.956,48.895c17.309-0.363,32.502-0.553,45.58-0.553
			C261.035,305.292,275.123,305.111,290.23,304.74z"/>
	</g>
</g>
<g id="Layer_1">
	<path style="fill:#FFFFFF;stroke:#231F20;stroke-width:2;stroke-miterlimit:10;" d="M678.937,682.283
		c3.434-15.445,3.451-42.947,6.396-47.582h-12.537c-0.82,0.453-5.732,28.9-4.938,45.812c-3.191-0.033-6.332,0.199-8.949,0.482
		c-6.941,0.748-14.232,1.02-21.053,2.111c-0.467,0.072-0.934,0.152-1.395,0.236c-5.67,1.016-11.355,2.209-17.008,3.32
		c-1.447,0.283-15.961,4.742-16.006,4.693c4.268,4.605,16.688,2.82,19.895,9.666c2.348,5.014-4.838,16.816-7.217,21.438
		c2.287,1.016,8.062-0.383,11.266-0.42c4.559-0.049,8.52-0.145,12.98,0.082c0.295,3.389-1.838,7.178-2.562,10.338
		c-0.783,3.434,0.174,7.34-0.947,10.383c6.217,0.471,15.898-10,20.188-14.01c6.197-5.801,12.047-11.395,17.479-17.73
		c3.863-4.506,8.119-9.408,9.922-15.057C686.915,688.336,683.929,684.291,678.937,682.283z"/>
	<path style="fill:#FFFFFF;stroke:#231F20;stroke-width:2;stroke-miterlimit:10;" d="M757.419,687.951
		c0.229-15.82-5.324-42.752-3.383-47.887l-12.275,2.539c-0.709,0.607,0.244,29.457,4.449,45.859c-3.131,0.613-6.16,1.48-8.666,2.287
		c-6.65,2.141-13.732,3.883-20.189,6.334c-0.445,0.166-0.883,0.34-1.318,0.516c-5.344,2.141-10.67,4.463-15.982,6.697
		c-1.357,0.57-14.672,7.877-14.721,7.84c5.113,3.645,16.914-0.621,21.439,5.434c3.316,4.432-1.33,17.449-2.723,22.453
		c2.445,0.531,7.818-2.006,10.947-2.691c4.453-0.975,8.314-1.867,12.725-2.551c0.979,3.258-0.344,7.4-0.414,10.643
		c-0.072,3.521,1.656,7.154,1.174,10.359c6.186-0.799,13.547-13.014,16.93-17.811c4.898-6.934,9.49-13.602,13.529-20.904
		c2.871-5.195,6.041-10.859,6.664-16.754C766.454,692.264,762.712,688.908,757.419,687.951z"/>
	<path style="fill:#FFFFFF;stroke:#231F20;stroke-width:2;stroke-miterlimit:10;" d="M932.476,481.839
		c-54.129,35.717-68.75,104.577-114.482,144.807c-48.553,42.713-144.392,32.695-195.979,3.252
		c-20.893-11.928-37.088-28.043-47.873-46.996c-0.492-0.832-0.955-1.68-1.418-2.527c-12.326-22.912-16.918-49.768-12.619-78.227
		c3.158-20.865,17.334-38.599,21.973-59.015c0.385-1.695,0.678-3.359,0.893-4.978c0.199-1.433,0.34-2.819,0.4-4.19
		c0.354-6.179-0.494-11.818-2.264-17.027c-1.096-3.266-2.559-6.363-4.299-9.321h-0.016c-21.357-36.317-85.887-53.282-68.477-112.203
		c12.066-40.817,75.826-73.374,116.813-67.272c30.723,4.592,52.356,36.44,58.165,65.208c6.595,32.727-13.806,56.055-21.756,85.947
		c-1.388,5.223-2.405,10.647-2.819,16.363c-0.124,1.742-0.156,3.436-0.094,5.069c0.078,2.003,0.293,3.914,0.632,5.763
		c0.863,4.684,2.559,8.906,4.932,12.712c5.314,8.551,14.082,15.039,24.652,20.031c28.567,13.543,70.416,16.302,93.666,20.031
		C813.878,464.304,914.558,454.628,932.476,481.839z"/>
	<path style="fill:#FFFFFF;stroke:#231F20;stroke-width:2;stroke-miterlimit:10;" d="M802.347,488.006
		c-2.979,9.357-1.248,17.267-9.182,25.74c17.061-6.193,33.418-18.47,52.643-15.719c-1.861,12.913-10.984,22.151-18.299,33.356
		c7.033-4.854,12.072-4.047,18.309-6.594c-1.988,45.475-73.316,88.34-113.158,93.107c-36.747,4.398-79.585-23.973-63.533-65.227
		C680.897,522.42,773.282,488.648,802.347,488.006z"/>
	<path style="fill:#FFFFFF;stroke:#231F20;stroke-width:2;stroke-miterlimit:10;" d="M627.779,580.945
		c-0.941,19.723,6.763,37.627-18.476,32.865c-13.235-2.494-20.541-14.221-29.477-24.191c-1.975-2.203-3.883-4.453-5.686-6.717
		c-16.611-20.756-26.057-44.176-23.02-70.893c-8.875-6.734,3.096-16.365,11.771-21.88c-1.203-0.786-4.146-3.467-5.824-4.453
		c4.498-4.854,7.334-13.205,10.322-17.565c-2.805-0.247-5.885-0.74-8.705-0.863c13.482-5.994,17.889-20.924,24.684-33.282
		l0.51-0.924l73.944-25.424c0.478-0.401,0.955-0.771,1.433-1.125c0.863,4.684,2.559,8.906,4.932,12.712
		c5.314,8.551,14.082,15.039,24.652,20.031c-6.116,13.514-18.089,28.274-23.56,37.704
		C646.359,509.451,629.627,542.764,627.779,580.945z"/>
	<path style="fill:#FFFFFF;stroke:#231F20;stroke-width:2;stroke-miterlimit:10;" d="M544.585,230.02
		c4.619,0.066,9.256,0.406,13.623,2.062c0.092,0.035,0.186,0.075,0.279,0.111c0.912-1.959,1.84-3.899,2.818-5.841
		c0.93-1.845,2.988-3.201,4.145-4.94c1.062-1.596,3.465-1.763,4.49,0c1.395,2.397,3.484,5.31,3.439,8.21
		c-0.059,3.688-0.623,6.862-1.957,10.302c-2.209,5.702-5.021,12.901-12.107,12.976c-1.986,0.021-4.369-1.138-5.25-3.011
		c-0.82-1.75-1.078-3.334-0.986-4.836c-0.443-0.274-0.879-0.549-1.301-0.814c-3.191-2.008-6.301-4.066-9.346-6.278
		C539.204,235.614,540.019,229.954,544.585,230.02z"/>
	<path style="fill:#FFFFFF;stroke:#231F20;stroke-width:2;stroke-miterlimit:10;" d="M658.719,395.661
		c-0.124,1.742-0.156,3.436-0.094,5.069c-2.496,1.017-5.054,1.957-7.672,2.835c-21.805,7.304-45.886,12.82-69.847,13.374
		c-14.578-43.142-91.617-57.781-72.791-121.524c12.066-40.817,75.826-73.374,116.813-67.272
		c30.723,4.592,52.356,36.44,58.165,65.208C691.045,331.794,661.522,357.279,658.719,395.661z"/>
	<path style="fill:#FFFFFF;stroke:#231F20;stroke-width:2;stroke-miterlimit:10;" d="M571.337,322.752
		c2.312,39.881-86.129,56.814-113.373,56.331c-46.145-0.819-20.701-26.984,6.17-37.627c13.582-5.373,24.846-4.55,34.201-16.837
		c9.592-12.598,10.844-43.213,33.086-37.836C548.378,290.881,549.487,320.012,571.337,322.752z"/>
	<path style="fill:#FFFFFF;stroke:#231F20;stroke-width:2;stroke-miterlimit:10;" d="M596.791,317.933
		c-23.366-17.865-15.218-54.544,7.715-69.194c26.399-16.866,62.394,11.434,59.968,40.217c-1.833,21.749-18.885,38.127-40.973,37.481
		C612.127,326.103,603.293,322.902,596.791,317.933z"/>
	<path style="fill:#231F20;stroke:#231F20;stroke-width:2;stroke-miterlimit:10;" d="M603.757,269.302
		c20.463-7.938,38.527,14.255,26.454,32.691c-10.741,16.396-38.046,11.385-39.565-9.026
		C589.884,282.722,593.534,273.267,603.757,269.302z"/>
	<path style="fill:#FFFFFF;stroke:#231F20;stroke-width:2;stroke-miterlimit:10;" d="M600.648,292.9
		c4.157-5.969,14.426-3.03,14.454,4.459c0.025,5.994-5.533,10.975-10.762,7.796C599.984,302.508,597.417,297.542,600.648,292.9z"/>
	<path style="fill:#FFFFFF;stroke:#231F20;stroke-width:2;stroke-miterlimit:10;" d="M664.188,419.205
		c-8.12,5.763-23.483,9.784-29.477,11.587c-12.39,3.729-34.607,8.952-51.742,7.365c1.096-7.857,0.293-14.854-1.863-21.217
		c-1.096-3.266-2.559-6.363-4.299-9.321c26.733,1.972,66.61-14.591,84.73-28.32L664.188,419.205z"/>
	<path style="fill:#FFFFFF;stroke:#231F20;stroke-width:2;stroke-miterlimit:10;" d="M551.095,257.337
		c-6.811,3.618-10.76,16.983-5.141,22.908c1.842,1.944,4.668,1.596,6.551,0c2.787-2.357,3.236-6.322,4.154-9.662
		c0.65-2.367,1.482-4.853,2.393-7.129C560.946,258.713,554.87,255.331,551.095,257.337L551.095,257.337z"/>
	<path style="fill:#FFFFFF;stroke:#231F20;stroke-width:2;stroke-miterlimit:10;" d="M573.759,255.533
		c-2.264,3.037-3.926,5.933-5.146,9.538c-0.969,2.866-0.773,6.987,2.355,8.495c2.488,1.199,5.691-1.609,6.168-4.032
		c0.75-3.793,2.271-7.449,3.355-11.163C581.743,254.079,576.118,252.372,573.759,255.533L573.759,255.533z"/>
	<path style="fill:#FFFFFF;stroke:#231F20;stroke-width:2;stroke-miterlimit:10;" d="M585.022,461.92
		c-5.936,4.653-12.393,17.448-5.248,23.749c1.111,0.982,2.455,0.918,3.574,0c2.562-2.1,3.842-5.629,4.746-8.715
		c0.953-3.262,2.713-6.297,4.642-9.082c1.245-1.797,0.704-4.481-0.768-5.952C589.906,459.858,587.126,460.271,585.022,461.92
		L585.022,461.92z"/>
	<path style="fill:#FFFFFF;stroke:#231F20;stroke-width:2;stroke-miterlimit:10;" d="M609.675,462.088
		c-7.981,4.398-13.352,15.452-9.711,24.315c1.808,4.398,9.311,4.375,8.986-1.215c-0.392-6.695,0.137-12.269,5.364-17.09
		C617.592,465.076,613.406,460.032,609.675,462.088L609.675,462.088z"/>
	<path style="fill:#FFFFFF;stroke:#231F20;stroke-width:2;stroke-miterlimit:10;" d="M588.306,506.803
		c-3.074,3.145-7.324,8.449-3.992,12.84c0.771,1.016,2.414,1.613,3.402,0.439c1.203-1.43,1.752-2.973,2.564-4.629
		c0.705-1.441,1.898-2.537,3.029-3.645C596.571,508.609,591.497,503.535,588.306,506.803L588.306,506.803z"/>
	<path style="fill:#FFFFFF;stroke:#231F20;stroke-width:2;stroke-miterlimit:10;" d="M741.911,521.742
		c2.993-2.533,5.068-6.387,9.52-6.443c5.086-0.064,8.375,3.113,11.408,6.865c1.381,1.709,1.822,3.67,0.734,5.689
		c-0.754,1.395-1.576,2.744-2.412,4.086c5.621,0.188,11.5,1.549,13.668,6.334c2.332,5.145,0.803,9.912-2.027,14.139
		c1.27-0.213,2.559-0.641,4.008-1.229c1.707-0.691,4.334,0.402,5.09,2.07c2.52,5.578,5.125,12.473,1.652,18.299
		c-2.928,4.91-8.271,11.014-14.039,12.113c-2.152,0.41-3.941-1.268-3.465-3.465c0.895-4.135,3.998-6.273,6.887-9.172
		c3.42-3.432,3.783-6.293,2.535-9.984c-4.131,0.986-8.117,0.77-12.566-1.029c-3.221-1.305-4.639-5.016-2.053-7.777
		c0.871-0.932,8.23-8.285,5.207-9.752c-4.037-1.955-9.188-1.209-13.472-0.752c-3.737,0.396-5.588-4.225-4.055-7.064
		c1.595-2.953,3.474-5.721,5.213-8.578c-1.147-0.928-2.275-1.098-4.668-0.982c-1.905,0.092-3.823,0.057-5.735,0.086
		C741.673,525.219,740.534,522.906,741.911,521.742z"/>
	<path style="fill:#FFFFFF;stroke:#231F20;stroke-width:2;stroke-miterlimit:10;" d="M706.961,543.352
		c-1.071,0.691,0.5-0.977,0.823-1.418c0.819-1.123,1.575-1.76,2.897-2.229c3.537-1.256,6.833,0.273,9.909,2.006
		c1.465,0.826,2.843,2.809,2.622,4.572c-0.358,2.867-1.246,5.523-2.343,8.119c3.396,0.754,6.839,1.326,10.096,2.65
		c2.112,0.857,4.453,2.775,4.118,5.408c-0.47,3.68-2.483,6.465-3.832,9.559c4.165,3.482,7.347,7.709,5.417,13.662
		c-2.092,6.455-9.961,11.449-16.438,11.592c-1.931,0.041-2.969-2.1-2.121-3.695c2.591-4.883,14.318-10.562,5.278-14.248
		c-2.116-0.863-4.319-2.707-4.046-5.314c0.327-3.111,1.813-5.59,3.054-8.156c-3.94-1.078-8.031-1.691-11.839-3.332
		c-2.824-1.219-3.163-5.049-1.947-7.428c0.921-1.801,1.929-3.602,2.747-5.467c-0.976,0.008-1.998,0.148-3.585-0.076
		C704.632,549.111,704.771,544.766,706.961,543.352z"/>
	<path style="fill:#FFFFFF;stroke:#231F20;stroke-width:2;stroke-miterlimit:10;" d="M529.491,307.011
		c-0.811,0.783-1.561,1.027-2.26,2.049c0.371-0.233,0.312-0.172-0.186,0.186c-0.637,0.491-1.006,0.891-1.494,1.506
		c-1.688,2.129-2.869,4.401-3.826,6.937c-1.99,5.287,6.387,8.641,9.01,3.798c1.33-2.453,1.912-4.987,1.953-7.779
		c-0.01-0.412-0.02-0.825-0.023-1.238c0.004,0.291-0.039-2.287-0.244-1.222c0.209-1.085-0.062-2.113,0.029-3.011
		C532.614,306.655,530.487,306.048,529.491,307.011L529.491,307.011z"/>
</g>
<g id="Layer_2">
	<path style="fill:#FFFFFF;stroke:#231F20;stroke-width:2;stroke-miterlimit:10;" d="M420.45,445.95
		c4.381-1.595,11.317-2.134,14.64-6.039c1.693-1.991,1.069-5.049,4.277-4.552c2.139,0.331,3.538,3.91,2.828,5.705
		c5.03-3.539,11.095-5.74,12.585,2.695c1.274,7.208-8.851,11.192-14.531,13.19L420.45,445.95z"/>
	<path style="fill:#FFFFFF;stroke:#231F20;stroke-width:2;stroke-miterlimit:10;" d="M451.864,694.996
		c1.928-8.674,1.938-24.119,3.592-26.723h-7.041c-0.46,0.255-3.219,16.23-2.772,25.729c-1.792-0.019-3.557,0.112-5.026,0.271
		c-3.898,0.42-7.993,0.572-11.823,1.186c-0.262,0.041-0.524,0.086-0.783,0.133c-3.185,0.57-6.377,1.241-9.552,1.865
		c-0.812,0.159-8.964,2.663-8.989,2.636c2.397,2.586,9.372,1.584,11.173,5.428c1.319,2.816-2.717,9.445-4.053,12.04
		c1.284,0.57,4.528-0.215,6.327-0.235c2.561-0.028,4.784-0.082,7.29,0.046c0.166,1.903-1.032,4.03-1.439,5.806
		c-0.439,1.929,0.098,4.122-0.532,5.831c3.492,0.265,8.929-5.616,11.338-7.868c3.48-3.258,6.766-6.399,9.816-9.958
		c2.17-2.53,4.56-5.283,5.572-8.455C456.345,698.396,454.668,696.124,451.864,694.996z"/>
	<path style="fill:#FFFFFF;stroke:#231F20;stroke-width:2;stroke-miterlimit:10;" d="M495.94,698.18
		c0.129-8.885-2.99-24.011-1.899-26.895l-6.894,1.427c-0.398,0.341,0.137,16.543,2.498,25.755c-1.758,0.345-3.46,0.831-4.867,1.284
		c-3.734,1.202-7.712,2.181-11.338,3.558c-0.25,0.094-0.496,0.19-0.74,0.289c-3.002,1.203-5.993,2.507-8.977,3.762
		c-0.762,0.32-8.239,4.424-8.268,4.403c2.872,2.047,9.5-0.349,12.041,3.051c1.862,2.489-0.747,9.8-1.529,12.61
		c1.373,0.299,4.391-1.127,6.148-1.512c2.501-0.547,4.669-1.049,7.146-1.433c0.55,1.83-0.193,4.156-0.232,5.978
		c-0.041,1.978,0.93,4.018,0.659,5.817c3.474-0.448,7.607-7.309,9.508-10.002c2.751-3.895,5.33-7.639,7.598-11.74
		c1.613-2.918,3.394-6.099,3.743-9.409C501.015,700.602,498.913,698.717,495.94,698.18z"/>
	<path style="fill:#FFFFFF;stroke:#231F20;stroke-width:2;stroke-miterlimit:10;" d="M402.851,597.563
		c-16.525,4.227-34.898,33.692-15.809,45.629c22.541,14.097,41.72-20.194,25.782-38.017c-2.603-2.91-7.506-8.482-11.733-7.612
		H402.851z"/>
	<path style="fill:#FFFFFF;stroke:#231F20;stroke-width:2;stroke-miterlimit:10;" d="M539.35,610.038
		c2.936-3.421,4.912-7.095,3.06-11.157c-4.191,0.621-7.535,4.591-10.211,7.697c-0.062-6.754-3.907-12.749-11.504-11.197
		c0.681,4.297,2.113,9.431,1.181,13.817c-0.421-0.19-0.849-0.376-1.293-0.55c-6.913-2.704-14.137-0.713-21.167-2.834
		c-5.128-1.545-10.313-5.327-15.116-7.706c-8.572-4.244-14.988-8.21-17.613-14.522c-1.45-3.477-1.745-7.661-0.619-12.998
		c2.733-12.964,5.101-22.727-3.054-26.569c-3.259-1.537-8.204-2.126-15.479-1.596l-15.84,4.4c2.209,1.311,3.758,2.77,4.762,4.317
		c5.562,8.557-5.406,19.95-12.729,25.385c-7.127,5.292-14.057,10.452-19.954,16.609c-4.674,4.871-8.703,10.371-11.681,17.051
		c-7.163,16.06-7.222,36.053,5.474,49.971c13.524,14.826,38.386,17.246,57.031,18.66c29.351,2.223,67.244,1.272,78.329-32.35
		c2.545-7.719,3.384-16.336,1.091-23.608c3.675-2.021,8.044-2.253,13.717-1.363C548.379,615.549,545.405,611.005,539.35,610.038z"/>
	<path style="fill:#FFFFFF;stroke:#231F20;stroke-width:2;stroke-miterlimit:10;" d="M368.546,490.501
		c-6.392,12.807-10.781,34.981-4.398,48.425c9.34,19.67,37.055,27.367,56.985,29.923c27.392,3.513,64.153,3.066,78.798-25.26
		c11.597-22.429,3.425-52.981-12.037-71.115c-15.52-18.202-39.961-29.642-64.041-27.11
		C400.261,447.844,378.579,470.406,368.546,490.501z"/>
	<path style="fill:#FFFFFF;stroke:#231F20;stroke-width:2;stroke-miterlimit:10;" d="M405.094,519.309
		c8.433-1.867,15.197,3.821,17.427,10.169c2.05,5.835,2.153,13.168,9.793,16.363c3.465,1.448,7.825,1.889,11.053,0.19
		c2.862-1.506,3.48-6.442,7.333-2.82c3.709,14.349-23.67,21.4-36.357,21.936c-19.42,0.819-39.226-1.33-54.807-12.654
		c-11.816-8.59,2.483-10.388,10.403-13.189c6.617-2.34,1.779-4.515,4.285-8.537c2.918-4.684,9.537-1.035,14.412-1.85
		C395.379,527.788,398.073,520.863,405.094,519.309z"/>
	<path style="fill:#FFFFFF;stroke:#231F20;stroke-width:2;stroke-miterlimit:10;" d="M449.269,530.523
		c16.646,1.935,27.835-16.322,24.241-31.407c-4.137-17.363-30.093-20.024-40.497-7.27c-7.862,9.636-7.362,23.101,1.943,31.583
		C439.749,527.797,444.638,529.985,449.269,530.523z"/>
	<path style="fill:#231F20;stroke:#231F20;stroke-width:2;stroke-miterlimit:10;" d="M457.49,495.534
		c-5.241-11.358-21.432-9.418-23.786,2.918c-2.092,10.97,11.081,19.731,19.784,11.971
		C457.86,506.526,460.106,501.206,457.49,495.534z"/>
	<path style="fill:#FFFFFF;stroke:#231F20;stroke-width:2;stroke-miterlimit:10;" d="M446.696,495.177
		c0.66-4.092-4.709-6.953-7.689-3.899c-2.383,2.448-2.077,6.689,1.323,7.458C443.163,499.377,446.183,498.357,446.696,495.177z"/>
	<path style="fill:#FFFFFF;stroke:#231F20;stroke-width:2;stroke-miterlimit:10;" d="M396.895,511.533
		c13.031-0.211,19.79-15.425,15.478-26.686c-4.963-12.963-25.242-12.361-31.959-1.467c-5.077,8.232-3.314,18.559,4.724,24.146
		C389.278,510.404,393.27,511.592,396.895,511.533z"/>
	<path style="fill:#231F20;stroke:#231F20;stroke-width:2;stroke-miterlimit:10;" d="M399.657,483.722
		c-5.2-8.219-17.483-5.069-18.036,4.68c-0.492,8.67,10.556,14.077,16.474,7.206C401.066,492.157,402.254,487.827,399.657,483.722z"
		/>
	<path style="fill:#FFFFFF;stroke:#231F20;stroke-width:2;stroke-miterlimit:10;" d="M391.301,484.551
		c0.091-3.224-4.342-4.881-6.324-2.22c-1.587,2.129-0.92,5.368,1.781,5.612C389.005,488.147,391.229,487.055,391.301,484.551z"/>
	<path style="fill:#FFFFFF;stroke:#231F20;stroke-width:2;stroke-miterlimit:10;" d="M497.874,648.617
		c-7.826,5.813-17.078,4.164-24.021-1.512c-5.402-4.418-14.863-12.739-13.377-20.796c1.95-10.551,10.63-9.507,18.595-10.522
		c9.609-1.227,18.483-8.828,25.258-15.291c3.451-3.293,7.436-7.289,8.226-0.584c0.614,5.216-4.305,7.711-6.832,11.773
		c4.476-0.299,8.598-2.346,7.89,3.934c-0.453,4.017-6.121,7.922-9.063,10.132c3.311-0.368,6.323-1.995,9.679-1.698
		C515.912,632.069,503.748,644.256,497.874,648.617z"/>
	<g>
	</g>
	<g>
	</g>
	<g>
	</g>
	<g>
	</g>
	<g>
	</g>
	<g>
	</g>
</g>
</svg>
