<?xml version="1.0" encoding="utf-8"?>
<!-- Generator: Adobe Illustrator 16.0.0, SVG Export Plug-In . SVG Version: 6.00 Build 0)  -->
<!DOCTYPE svg PUBLIC "-//W3C//DTD SVG 1.1//EN" "http://www.w3.org/Graphics/SVG/1.1/DTD/svg11.dtd">
<svg version="1.1" id="Layer_3" xmlns="http://www.w3.org/2000/svg" xmlns:xlink="http://www.w3.org/1999/xlink" x="0px" y="0px"
	 width="100%" height="100%" viewBox="0 0 600 600" enable-background="new 0 0 600 600" xml:space="preserve">
<path fill="#FFFFFF" stroke="#231F20" stroke-width="2" d="M188.567,303.304c0,0-15.725,18.782-32.304,24.302
	c-16.58,5.52-28.407-3.549-28.407-3.549s-9.462-22.619-14.192-22.74c-4.731-0.125-3.085,14.856-3.085,14.856
	s-10.318-10.164-16.23-7.646c-5.914,2.521,5.913,17.105,5.913,17.105s-17.346-4.729-20.5-1.183
	c-3.154,3.547,13.405,13.403,13.405,13.403s-14.192-5.125-17.347,0c-3.154,5.123,12.616,13.797,12.616,13.797
	s31.932,41,56.768,49.673c24.837,8.673,28.074-3.154,28.074-3.154s11.349,3.942,15.291,1.576c3.941-2.364,8.186-6.702,8.186-6.702
	s35.572-7.884,54.495-34.689C270.171,331.548,188.567,303.304,188.567,303.304"/>
<path fill="#FFFFFF" stroke="#231F20" stroke-width="2" d="M333.98,273.044c0,0,0,40.604,14.191,64.258
	c14.19,23.654,23.652,50.462,22.469,59.922c0,0-13.84,11.295-10.292,15.634c3.55,4.335,12.418,1.771,12.418,1.771
	s-4.529,6.504,0.889,7.688c5.419,1.183,20.641-6.171,20.641-6.171s-7.828,7.42-1.521,8.897c6.307,1.478,23.597-10.475,29.116-19.146
	c5.52-8.676,9.89-135.562,4.521-163.53C421.045,214.399,343.047,234.411,333.98,273.044"/>
<path fill="#FFFFFF" stroke="#231F20" stroke-width="2" d="M485.208,259.874c-0.664-5.414-1.377-9.597-1.761-11.902
	c-1.972-11.827-7.885-33.902-14.98-45.729c0,0,6.701,0.395,7.49-2.365c0.789-2.759-12.615-9.462-22.864-12.221
	c0,0,6.701-14.192,4.73-16.164c-1.973-1.972-11.435,8.673-11.435,8.673s-32.72-10.645-69.382-14.192
	c-33.198-3.213-90.96,13.938-106.851,17.793c-2.728-8.336-8.939-16.727-20.879-18.191c-12.469-1.53-19.183,7.29-22.38,13.738
	c-3.154,1.295-5.61,2.429-5.61,2.429s3.549-9.067,0.79-10.25c-2.761-1.183-15.375,10.25-15.375,10.25s-4.731-8.672-9.461-7.884
	c-4.732,0.788,0,7.884,0,7.884s-11.434,0-17.741,2.366c0,0-12.221-18.58-29.567-5.151c-17.347,13.429-4.731,27.266,2.365,31.189
	c0,0-11.184,24.028-11.112,31.519c0.074,7.49,6.38,2.365,6.38,2.365s-1.182,19.718,12.222,40.609
	c13.404,20.891,50.066,83.176,130.488,101.706c50.631,11.666,93.758,2.078,126.733-12.724c8.36,17.659,13.301,34.118,12.429,41.105
	c0,0-17.74,13.012-14.192,17.349c3.548,4.335,14.292,1.576,14.292,1.576s-5.419,7.489,0,8.674c5.42,1.182,23.554-8.674,23.554-8.674
	s-3.941,7.294,2.366,8.771c6.308,1.479,19.711-10.347,25.23-19.021C486.206,414.728,490.577,287.845,485.208,259.874z"/>
<path fill="#FFFFFF" stroke="#231F20" stroke-width="2" d="M173.276,190.899c0,0-10.666,6.792-17.013,15.68
	c0,0-12.877-9.412-3.176-20.5C161.366,176.617,169.417,183.499,173.276,190.899"/>
<path fill="#FFFFFF" stroke="#231F20" stroke-width="2" d="M233.114,186.473c0,0,18.923,9.461,24.442,20.106
	c0,0,11.983-17.84-2.76-28.778C242.575,168.733,233.114,186.473,233.114,186.473"/>
<path fill="#FFFFFF" stroke="#231F20" stroke-width="2" d="M98.29,338.645c6.312-13.385,30.521-0.61,26.019,12.614
	C118.001,369.788,88.435,359.537,98.29,338.645"/>
<path fill="#FFFFFF" stroke="#231F20" stroke-width="2" d="M97.304,313.02c2.056-3.804,14.98,3.547,11.434,9.461
	C105.188,328.395,94.913,317.443,97.304,313.02"/>
<path fill="#FFFFFF" stroke="#231F20" stroke-width="2" d="M113.862,305.331c2.901-2.138,6.455,10.719,2.708,12.752
	C112.827,320.114,110.117,308.091,113.862,305.331"/>
<path fill="#FFFFFF" stroke="#231F20" stroke-width="2" d="M82.915,326.816c0.359-3.905,16.36,0,14.981,5.125
	C96.516,337.066,82.583,330.432,82.915,326.816"/>
<path fill="#FFFFFF" stroke="#231F20" stroke-width="2" d="M78.973,340.417c0.986-3.153,12.693-1.577,11.472,3.942
	C89.223,349.878,77.987,343.571,78.973,340.417"/>
<path fill="#FFFFFF" stroke="#231F20" stroke-width="2" d="M142.57,255.856c-0.55,10.535,9.729,45.049,41.662,40.264
	c31.931-4.784,40.604-28.042,40.21-38.292c-0.395-10.25-26.414-19.317-51.643-16.557C147.567,244.03,142.814,251.144,142.57,255.856
	"/>
<path fill="#FFFFFF" stroke="#231F20" stroke-width="2" d="M156.89,276.687c0,0,9.552,13.912,25.192,14.12
	c11.52,0.153,15.812-22.136,15.812-22.136s-14.56,21.088-33.671,2.41C164.223,271.081,164.223,276.107,156.89,276.687"/>
<path fill="#FFFFFF" stroke="#231F20" stroke-width="2" d="M147.965,251.914c2.684-4.896,30.471-9.461,35.537-3.942
	c5.065,5.519-9.459,18.984-17.769,21.516C157.423,272.02,144.938,257.434,147.965,251.914"/>
<g>
	<path fill="#FFFFFF" stroke="#231F20" stroke-width="2" d="M224.455,240.931c1.089,7.848,26.794,9.641,26.794-2.866
		C251.249,225.555,222.101,223.979,224.455,240.931"/>
</g>
<g>
	<path fill="#FFFFFF" stroke="#231F20" stroke-width="2" d="M148.196,240.008c0.837,1.946,2.929,3.188,5.045,3.486
		c3.32,0.467,9.164-0.597,9.164-4.945c0-7.985-16.948-6.373-14.329,1.149C148.111,239.803,148.151,239.907,148.196,240.008"/>
</g>
<path fill="#231F20" stroke="#231F20" stroke-width="2" d="M210.25,231.421c0,3.372-2.119,6.104-4.731,6.104s-4.73-2.732-4.73-6.104
	c0-3.371,2.118-6.104,4.73-6.104S210.25,228.05,210.25,231.421"/>
<path fill="#231F20" stroke="#231F20" stroke-width="2" d="M173.276,231.687c0,3.372-2.119,6.103-4.731,6.103
	c-2.612,0-4.73-2.731-4.73-6.103s2.118-6.104,4.73-6.104C171.157,225.583,173.276,228.314,173.276,231.687"/>
<path fill="#FFFFFF" stroke="#231F20" stroke-width="2" d="M271.928,293.762c0,0,6.128,47.247,4.946,77.604
	c-1.183,30.354-4.417,43.362-6.348,44.938c-1.931,1.578-22.825,7.887-19.277,13.405c3.549,5.518,19.277,0,19.277,0
	s-10.998,14.98-3.902,18.134c7.097,3.153,24.836-5.125,24.836-5.125s-0.788,11.434,5.913,12.223
	c6.701,0.786,23.26-7.491,23.26-7.491c22.864-16.559,23.652-20.5,29.566-30.75c8.039-13.935,18.527-100.923,18.527-100.923"/>
<path fill="none" stroke="#000000" stroke-width="2" d="M136.281,133.731c-3.485-0.406-5.612-1.561-6.381-3.464
	c-0.771-1.903-0.79-3.99-0.061-6.26V74.659c-1.297,0-2.452-0.344-3.464-1.033c-1.014-0.688-1.823-1.559-2.431-2.613
	c-0.607-1.052-0.912-2.207-0.912-3.464c0-1.255,0.365-2.41,1.094-3.464c1.62-2.431,3.707-4.333,6.259-5.712
	c2.553-1.377,5.206-2.511,7.961-3.403c4.294-1.377,8.609-2.146,12.945-2.31c4.334-0.161,8.609,0.729,12.823,2.674
	c3.808,1.783,6.807,4.092,8.995,6.928c2.188,2.837,3.564,5.855,4.132,9.055c0.566,3.202,0.283,6.483-0.851,9.845
	c-1.136,3.363-3.16,6.502-6.078,9.42c3.808,2.431,6.522,5.329,8.144,8.69c1.62,3.363,2.289,6.828,2.006,10.392
	c-0.285,3.567-1.419,7.01-3.403,10.332c-1.987,3.324-4.68,6.199-8.083,8.63c-2.026,1.458-4.396,2.572-7.11,3.343
	c-2.716,0.771-5.512,1.316-8.387,1.641c-2.877,0.323-5.734,0.486-8.569,0.486c-2.837,0-5.43-0.082-7.779-0.243L136.281,133.731z"/>
<path fill="none" stroke="#000000" stroke-width="2" d="M144.667,84.14c1.459,0,2.917,0,4.376,0s2.896-0.141,4.315-0.426
	c1.417-0.283,2.795-0.748,4.132-1.397c1.337-0.648,2.532-1.58,3.586-2.796c1.538-1.702,2.085-3.504,1.641-5.409
	c-0.446-1.903-1.601-3.422-3.464-4.558c-2.108-1.377-4.498-2.085-7.171-2.127c-2.674-0.04-5.147,0.264-7.415,0.912V84.14
	L144.667,84.14z"/>
<path fill="none" stroke="#000000" stroke-width="2" d="M162.17,102.858c-1.458-0.973-2.877-1.702-4.254-2.188
	c-1.379-0.486-2.777-0.809-4.193-0.973c-1.419-0.161-2.856-0.201-4.315-0.122c-1.459,0.082-3.039,0.164-4.741,0.243v19.448
	c1.782,0,3.687-0.061,5.713-0.183c2.024-0.121,3.969-0.444,5.834-0.972c1.863-0.526,3.604-1.276,5.227-2.249
	c1.62-0.973,2.917-2.31,3.889-4.011c0.243-1.945,0.201-3.625-0.122-5.044C164.884,105.392,163.872,104.074,162.17,102.858z"/>
<path fill="none" stroke="#000000" stroke-width="2" d="M236.555,58.25c0.323-2.997,1.356-5.206,3.099-6.625
	c1.742-1.417,3.586-2.106,5.53-2.066c1.945,0.042,3.747,0.79,5.409,2.249c1.66,1.458,2.531,3.525,2.613,6.199
	c0.161,2.756-0.547,4.883-2.127,6.381c-1.58,1.5-3.384,2.351-5.409,2.552c-2.026,0.203-3.931-0.344-5.712-1.641
	c-1.784-1.295-2.877-3.362-3.282-6.199L236.555,58.25z"/>
<path fill="none" stroke="#000000" stroke-width="2" d="M252.599,127.411c-0.163,1.622-0.729,3.06-1.702,4.315
	c-0.972,1.255-2.087,2.167-3.342,2.735c-1.257,0.566-2.613,0.688-4.072,0.365c-1.458-0.325-2.755-1.216-3.889-2.674
	c-0.649-0.811-1.115-1.721-1.398-2.735c-0.285-1.012-0.467-2.066-0.547-3.16c-0.082-1.094-0.103-2.188-0.061-3.282
	c0.04-1.094,0.061-2.085,0.061-2.978c-0.082-4.78-0.103-9.521-0.061-14.221c0.04-4.699,0.019-9.439-0.061-14.221
	c0-1.945-0.122-3.908-0.365-5.895c-0.243-1.984-0.122-3.95,0.365-5.895c0.404-1.458,1.113-2.714,2.127-3.768
	c1.012-1.052,2.146-1.781,3.403-2.188c1.255-0.405,2.553-0.444,3.89-0.122c1.337,0.325,2.492,1.175,3.464,2.552
	c1.295,1.622,1.945,3.221,1.945,4.801s0,3.506,0,5.773c0,2.756,0,5.511,0,8.265c0,2.756,0.04,5.47,0.122,8.144
	c0.08,3.89,0.122,7.779,0.122,11.668c0,3.89,0,7.779,0,11.669L252.599,127.411L252.599,127.411z"/>
<path fill="none" stroke="#000000" stroke-width="2" d="M263.173,122.67c-0.486-1.377-0.689-2.735-0.607-4.072
	c0.08-1.337,0.425-2.553,1.033-3.646c0.607-1.094,1.478-1.945,2.613-2.553c1.134-0.607,2.511-0.83,4.132-0.668
	c0.891,0.082,1.702,0.325,2.431,0.729c0.729,0.406,1.397,0.893,2.005,1.458c0.608,0.568,1.215,1.176,1.823,1.823
	c0.608,0.649,1.234,1.215,1.884,1.702c1.377,1.054,2.835,1.823,4.376,2.31c1.538,0.486,3.16,0.851,4.862,1.094
	c1.134,0,2.045-0.283,2.735-0.851c0.688-0.566,1.155-1.255,1.398-2.066c0.243-0.809,0.304-1.681,0.182-2.613
	c-0.122-0.931-0.425-1.681-0.912-2.249c-1.379-1.376-3.06-2.268-5.044-2.674c-1.986-0.404-3.829-0.891-5.53-1.458
	c-2.431-0.809-4.822-1.842-7.171-3.1c-2.351-1.255-4.254-2.978-5.712-5.166c-1.541-2.268-2.452-4.68-2.735-7.232
	c-0.285-2.553-0.082-5.044,0.608-7.475c0.688-2.431,1.842-4.659,3.464-6.686c1.62-2.024,3.565-3.686,5.834-4.983
	c1.702-0.972,3.564-1.599,5.591-1.884c2.025-0.283,4.072-0.344,6.138-0.182c2.066,0.163,4.112,0.547,6.138,1.154
	c2.024,0.608,3.89,1.276,5.591,2.006c1.945,0.893,3.403,2.148,4.375,3.768c0.974,1.622,1.438,3.263,1.398,4.922
	c-0.042,1.662-0.608,3.1-1.702,4.315c-1.094,1.215-2.695,1.823-4.801,1.823c-1.297,0-2.473-0.222-3.525-0.668
	c-1.054-0.444-2.148-0.87-3.282-1.276c-1.458-0.566-3.039-0.952-4.74-1.155c-1.702-0.201-3.081-0.101-4.133,0.304
	c-0.325,0.082-0.689,0.346-1.094,0.79c-0.406,0.446-0.71,0.993-0.912,1.641c-0.203,0.649-0.243,1.297-0.122,1.945
	c0.122,0.649,0.547,1.176,1.276,1.58c1.945,1.054,4.011,1.865,6.199,2.431c2.188,0.568,4.334,1.215,6.442,1.945
	c2.106,0.729,4.072,1.662,5.895,2.795c1.822,1.136,3.343,2.756,4.558,4.862c1.782,3.081,2.693,6.301,2.735,9.663
	c0.04,3.363-0.628,6.502-2.005,9.42c-1.38,2.917-3.403,5.409-6.078,7.475c-2.674,2.066-5.794,3.301-9.359,3.707
	c-2.513,0.243-4.983,0.101-7.415-0.425c-2.431-0.528-4.782-1.379-7.049-2.553c-2.27-1.175-4.376-2.571-6.321-4.193
	c-1.945-1.62-3.646-3.321-5.105-5.105L263.173,122.67z"/>
<path fill="none" stroke="#000000" stroke-width="2" d="M383.381,132.272c-1.054,1.295-2.27,2.188-3.646,2.674
	c-1.379,0.486-2.795,0.486-4.254,0c-1.46-0.486-2.676-1.581-3.646-3.282c-0.407-0.649-0.729-1.337-0.973-2.066
	c-0.243-0.729-0.365-1.458-0.365-2.188V95.444c-1.54,0-2.938-0.425-4.193-1.276c-1.257-0.851-2.188-1.903-2.795-3.16
	c-0.606-1.255-0.832-2.592-0.668-4.011c0.162-1.417,0.811-2.734,1.945-3.95c0.809-0.891,1.681-1.478,2.613-1.762
	c0.931-0.283,1.924-0.465,2.978-0.547c-0.082-2.511-0.143-4.983-0.183-7.415c-0.042-2.431,0.141-4.862,0.547-7.293
	c0.484-3.808,1.62-7.05,3.403-9.724c1.78-2.674,3.988-4.74,6.625-6.199c2.632-1.458,5.568-2.31,8.812-2.553
	c3.24-0.243,6.604,0.243,10.088,1.458c1.458,0.486,2.856,1.094,4.193,1.823s2.532,1.662,3.586,2.796
	c0.729,0.811,1.255,1.762,1.58,2.856c0.323,1.094,0.383,2.188,0.182,3.282c-0.203,1.094-0.608,2.108-1.215,3.039
	c-0.608,0.932-1.479,1.641-2.613,2.127c-1.541,0.649-3.06,0.811-4.558,0.486c-1.5-0.323-2.979-0.851-4.438-1.58
	c-0.893-0.323-1.741-0.648-2.552-0.973c-0.811-0.323-1.662-0.566-2.553-0.729c-0.895-0.162-1.702-0.04-2.433,0.364
	c-0.729,0.407-1.356,0.954-1.884,1.641c-0.527,0.689-0.933,1.458-1.215,2.31c-0.285,0.851-0.425,1.683-0.425,2.492
	c-0.082,1.865-0.104,3.749-0.062,5.652c0.04,1.905,0.062,3.789,0.062,5.652c1.215-0.08,2.511-0.162,3.889-0.243
	c1.377-0.08,2.735-0.122,4.072-0.122s2.572,0.042,3.708,0.122c1.134,0.082,2.023,0.243,2.674,0.486
	c1.295,0.486,2.35,1.236,3.16,2.249c0.809,1.014,1.337,2.108,1.58,3.282c0.243,1.176,0.141,2.37-0.304,3.585
	c-0.446,1.216-1.236,2.27-2.37,3.16c-1.056,0.811-2.271,1.379-3.646,1.702c-1.379,0.325-2.837,0.547-4.375,0.669
	c-1.541,0.122-3.039,0.163-4.498,0.122c-1.458-0.04-2.755-0.061-3.889-0.061v32.453
	C385.083,129.437,384.434,130.976,383.381,132.272z"/>
<path fill="none" stroke="#000000" stroke-width="2" d="M405.989,101.764c0.564-2.349,1.354-4.659,2.37-6.928
	c1.012-2.268,2.249-4.437,3.707-6.502c1.459-2.066,3.1-3.951,4.923-5.652c1.823-1.701,3.787-3.078,5.895-4.132
	c3.728-1.945,7.477-2.936,11.243-2.978c3.768-0.04,7.272,0.71,10.514,2.249c3.24,1.541,5.996,3.829,8.267,6.868
	c2.268,3.039,3.768,6.666,4.498,10.878c0.402,2.755,0.626,5.369,0.668,7.84c0.04,2.473-0.226,5.044-0.79,7.718
	c-0.812,3.81-2.452,7.597-4.923,11.364c-2.475,3.768-5.432,6.928-8.873,9.481c-3.445,2.552-7.213,4.233-11.306,5.044
	c-4.093,0.809-8.205,0.162-12.337-1.945c-1.864-0.893-3.546-1.925-5.044-3.099c-1.5-1.174-2.854-2.572-4.072-4.193
	c-1.379-1.782-2.45-3.646-3.221-5.591s-1.396-3.969-1.884-6.077c-0.568-2.268-0.771-4.558-0.607-6.868
	c0.161-2.309,0.444-4.558,0.853-6.746L405.989,101.764z"/>
<path fill="none" stroke="#000000" stroke-width="2" d="M420.574,104.317c-0.243,1.297-0.446,2.573-0.607,3.829
	c-0.164,1.257-0.164,2.533,0,3.829c0.243,1.865,0.748,3.567,1.521,5.105c0.77,1.541,1.78,2.756,3.039,3.646
	c1.255,0.893,2.691,1.358,4.312,1.398c1.62,0.042,3.362-0.465,5.229-1.52c2.35-1.377,4.376-3.504,6.077-6.381
	c1.701-2.875,2.755-5.874,3.159-8.994c0.404-3.119,0.08-6.078-0.972-8.873c-1.054-2.795-3.121-4.801-6.199-6.017
	c-2.024,0-3.89,0.385-5.591,1.155c-1.702,0.771-3.181,1.783-4.437,3.039c-1.258,1.257-2.353,2.735-3.281,4.437
	C421.891,100.67,421.14,102.454,420.574,104.317z"/>
<path fill="none" stroke="#000000" stroke-width="2" d="M469.191,93.317c0.08-0.526,0.04-1.478-0.122-2.856
	c-1.298-0.729-2.312-1.66-3.039-2.796c-0.729-1.134-1.155-2.349-1.276-3.646c-0.122-1.295,0.122-2.532,0.729-3.708
	c0.606-1.173,1.599-2.167,2.978-2.978c1.863-1.052,3.909-1.255,6.138-0.608c2.229,0.649,4.152,1.622,5.773,2.917
	c2.024-1.538,4.133-2.835,6.32-3.889c2.188-1.052,4.416-1.763,6.685-2.127c2.268-0.364,4.577-0.304,6.928,0.183
	c2.352,0.486,4.659,1.5,6.93,3.039c1.134,0.729,2.188,1.641,3.158,2.735c0.975,1.094,1.58,2.33,1.823,3.707
	c0.405,2.026,0.243,3.789-0.484,5.287c-0.729,1.5-1.744,2.595-3.039,3.282c-1.298,0.689-2.757,0.893-4.375,0.607
	c-1.622-0.283-3.16-1.155-4.619-2.613c-0.486-0.323-0.832-0.587-1.033-0.79c-0.203-0.201-0.629-0.465-1.276-0.79
	c-1.297-0.323-2.571-0.243-3.828,0.243c-1.258,0.486-2.474,1.155-3.646,2.005c-1.176,0.851-2.271,1.784-3.282,2.796
	c-1.014,1.014-1.926,1.926-2.733,2.735v30.994c0,1.216-0.243,2.391-0.729,3.525c-0.729,1.863-1.884,3.16-3.464,3.89
	c-1.58,0.729-3.16,0.931-4.74,0.607c-1.58-0.325-2.959-1.135-4.133-2.431c-1.175-1.297-1.762-2.957-1.762-4.983V93.621
	C469.069,93.945,469.109,93.845,469.191,93.317z"/>
<path fill="none" stroke="#000000" stroke-width="2" d="M213.825,529.731c-3.485-0.406-5.612-1.562-6.381-3.466
	c-0.771-1.901-0.79-3.988-0.061-6.26v-49.348c-1.297,0-2.452-0.344-3.464-1.033c-1.014-0.688-1.823-1.559-2.431-2.613
	c-0.607-1.052-0.912-2.207-0.912-3.464c0-1.255,0.365-2.41,1.094-3.464c1.62-2.431,3.707-4.333,6.259-5.712
	c2.553-1.377,5.206-2.511,7.961-3.403c4.294-1.377,8.609-2.146,12.945-2.31c4.334-0.161,8.609,0.729,12.823,2.674
	c3.808,1.783,6.807,4.092,8.995,6.928c2.188,2.837,3.564,5.855,4.132,9.057c0.566,3.201,0.283,6.481-0.851,9.845
	c-1.136,3.363-3.16,6.502-6.078,9.42c3.808,2.431,6.522,5.329,8.144,8.69c1.62,3.361,2.289,6.826,2.006,10.392
	c-0.285,3.567-1.419,7.01-3.403,10.332c-1.987,3.324-4.68,6.199-8.083,8.63c-2.026,1.458-4.396,2.572-7.11,3.343
	c-2.716,0.771-5.512,1.316-8.387,1.643c-2.877,0.322-5.734,0.484-8.569,0.484c-2.837,0-5.43-0.082-7.779-0.241L213.825,529.731z"/>
<path fill="none" stroke="#000000" stroke-width="2" d="M222.212,480.14c1.459,0,2.917,0,4.376,0s2.896-0.141,4.315-0.426
	c1.417-0.283,2.795-0.748,4.132-1.396c1.337-0.648,2.532-1.58,3.586-2.796c1.538-1.702,2.085-3.506,1.641-5.409
	c-0.446-1.903-1.601-3.422-3.464-4.56c-2.108-1.377-4.498-2.085-7.171-2.127c-2.674-0.04-5.147,0.266-7.415,0.912V480.14
	L222.212,480.14z"/>
<path fill="none" stroke="#000000" stroke-width="2" d="M239.715,498.858c-1.458-0.975-2.877-1.702-4.254-2.188
	c-1.379-0.486-2.777-0.809-4.193-0.973c-1.419-0.161-2.856-0.201-4.315-0.122c-1.459,0.082-3.039,0.164-4.741,0.243v19.446
	c1.782,0,3.687-0.061,5.713-0.183c2.024-0.121,3.969-0.444,5.834-0.972c1.863-0.526,3.604-1.276,5.227-2.249
	c1.62-0.975,2.917-2.312,3.889-4.012c0.243-1.944,0.201-3.625-0.122-5.045C242.429,501.392,241.417,500.074,239.715,498.858z"/>
<path fill="none" stroke="#000000" stroke-width="2" d="M312.034,510.527c1.943-0.486,3.666-0.505,5.166-0.062
	c1.499,0.446,2.653,1.197,3.464,2.249c0.809,1.055,1.173,2.354,1.094,3.892c-0.082,1.538-0.771,3.158-2.064,4.86
	c-1.056,1.379-2.514,2.553-4.375,3.525c-1.865,0.973-3.606,1.744-5.229,2.31c-3.971,1.458-7.738,2.473-11.304,3.039
	c-3.567,0.566-6.909,0.566-10.028,0c-3.12-0.566-6.038-1.744-8.751-3.523c-2.716-1.781-5.247-4.294-7.597-7.536
	c-1.622-2.188-2.816-4.681-3.585-7.477c-0.771-2.795-1.197-5.65-1.276-8.567c-0.082-2.917,0.162-5.792,0.729-8.63
	c0.566-2.835,1.377-5.39,2.431-7.657c1.377-2.835,3.565-5.428,6.563-7.779c2.997-2.349,6.321-4.212,9.967-5.591
	c3.646-1.376,7.373-2.167,11.183-2.37c3.809-0.201,7.171,0.386,10.088,1.763c2.433,1.138,4.518,2.776,6.26,4.922
	c1.741,2.148,2.938,4.479,3.587,6.989c0.646,2.515,0.706,5.044,0.182,7.599c-0.528,2.552-1.844,4.883-3.95,6.987
	c-2.025,2.026-4.254,3.667-6.685,4.923c-2.433,1.259-4.943,2.353-7.536,3.282c-2.594,0.935-5.248,1.725-7.961,2.37
	c-2.716,0.649-5.329,1.379-7.84,2.188c1.702,1.942,3.646,3.181,5.834,3.707s4.476,0.628,6.867,0.304
	c2.389-0.323,4.799-0.991,7.232-2.005c2.431-1.014,4.699-2.127,6.807-3.343L312.034,510.527z"/>
<path fill="none" stroke="#000000" stroke-width="2" d="M287.481,489.621c-1.865,1.054-3.242,2.37-4.132,3.95
	c-0.893,1.58-1.541,3.789-1.945,6.625c2.106-0.648,4.476-1.337,7.11-2.066c2.632-0.729,5.124-1.499,7.475-2.31
	c2.35-0.811,4.334-1.702,5.957-2.674c1.619-0.975,2.432-2.024,2.432-3.16c0-0.648-0.104-1.276-0.304-1.886
	c-0.203-0.605-0.63-1.031-1.276-1.274c-2.271-0.811-4.619-0.975-7.05-0.486c-2.431,0.486-4.457,1.176-6.077,2.066L287.481,489.621z"
	/>
<path fill="none" stroke="#000000" stroke-width="2" d="M381.316,521.466c0.646,2.353,0.524,4.296-0.365,5.834
	c-0.895,1.538-2.127,2.571-3.708,3.101c-1.58,0.524-3.302,0.465-5.166-0.184c-1.865-0.647-3.485-1.945-4.862-3.89
	c-2.27,1.702-4.479,2.896-6.625,3.586c-2.146,0.688-4.6,1.073-7.354,1.154c-4.133,0.16-7.821-0.306-11.062-1.397
	c-3.242-1.094-5.977-2.735-8.205-4.923c-2.229-2.188-3.871-4.922-4.923-8.204c-1.054-3.282-1.418-7.069-1.094-11.365
	c0.162-1.78,0.465-3.523,0.912-5.227c0.442-1.702,0.952-3.362,1.52-4.983c0.647-1.782,1.561-3.687,2.735-5.713
	c1.173-2.022,2.37-3.768,3.585-5.227c4.375-5.35,9.845-9.196,16.409-11.547c1.134-0.404,2.674-0.771,4.619-1.096
	c1.943-0.321,3.907-0.465,5.895-0.425c1.985,0.042,3.89,0.304,5.713,0.79s3.179,1.337,4.072,2.552
	c0.729,0.974,1.255,1.823,1.58,2.555c0.322,0.729,0.505,1.5,0.547,2.309c0.04,0.812,0.04,1.683,0,2.613
	c-0.042,0.933-0.062,2.087-0.062,3.464c0,2.27-0.021,4.478-0.061,6.624c-0.042,2.146-0.021,4.313,0.061,6.503
	c0,0.729,0,1.683,0,2.854c0,1.177,0.04,2.412,0.122,3.707c0.08,1.299,0.184,2.534,0.306,3.707c0.122,1.178,0.304,2.127,0.547,2.856
	L381.316,521.466z"/>
<path fill="none" stroke="#000000" stroke-width="2" d="M355.548,515.996c0.893-0.566,1.903-1.194,3.039-1.884
	c1.134-0.688,2.146-1.479,3.039-2.37c-0.729-4.294-1.155-8.588-1.276-12.884c-0.121-4.294-0.103-8.632,0.062-13.008
	c-3.646,0.649-6.928,2.229-9.845,4.74c-2.917,2.515-4.944,5.47-6.078,8.873c-0.486,1.379-0.895,2.796-1.215,4.254
	c-0.325,1.458-0.446,2.877-0.365,4.254c0.08,1.865,0.564,3.425,1.458,4.682c0.891,1.257,1.964,2.208,3.221,2.854
	c1.255,0.649,2.592,1.016,4.011,1.094C353.014,516.686,354.332,516.482,355.548,515.996z"/>
<path fill="none" stroke="#000000" stroke-width="2" d="M391.646,489.317c0.078-0.526,0.038-1.479-0.122-2.856
	c-1.299-0.729-2.312-1.66-3.039-2.796c-0.729-1.134-1.155-2.349-1.276-3.646c-0.122-1.295,0.122-2.53,0.729-3.708
	c0.608-1.173,1.601-2.167,2.979-2.978c1.863-1.052,3.909-1.255,6.138-0.608c2.229,0.649,4.152,1.622,5.773,2.917
	c2.022-1.538,4.133-2.835,6.318-3.889c2.188-1.052,4.416-1.763,6.687-2.127c2.268-0.364,4.577-0.304,6.928,0.183
	c2.352,0.487,4.659,1.5,6.929,3.039c1.135,0.729,2.188,1.643,3.159,2.735c0.975,1.094,1.58,2.33,1.823,3.707
	c0.405,2.026,0.243,3.789-0.484,5.287c-0.729,1.5-1.744,2.595-3.039,3.282c-1.299,0.688-2.757,0.893-4.375,0.605
	c-1.622-0.283-3.16-1.155-4.619-2.613c-0.486-0.321-0.832-0.587-1.033-0.79c-0.203-0.199-0.629-0.465-1.276-0.788
	c-1.297-0.323-2.572-0.243-3.829,0.241c-1.257,0.486-2.473,1.155-3.646,2.005c-1.176,0.853-2.271,1.784-3.282,2.798
	c-1.014,1.014-1.926,1.926-2.734,2.733v30.994c0,1.216-0.242,2.391-0.729,3.525c-0.729,1.861-1.884,3.158-3.464,3.89
	c-1.58,0.729-3.16,0.931-4.74,0.607c-1.58-0.325-2.959-1.137-4.133-2.433c-1.175-1.297-1.762-2.957-1.762-4.981V489.62
	C391.525,489.945,391.565,489.845,391.646,489.317z"/>
</svg>
