<?xml version="1.0" encoding="utf-8"?>
<!-- Generator: Adobe Illustrator 16.0.0, SVG Export Plug-In . SVG Version: 6.00 Build 0)  -->
<!DOCTYPE svg PUBLIC "-//W3C//DTD SVG 1.1//EN" "http://www.w3.org/Graphics/SVG/1.1/DTD/svg11.dtd">
<svg version="1.1" xmlns="http://www.w3.org/2000/svg" xmlns:xlink="http://www.w3.org/1999/xlink" x="0px" y="0px" width="100%"
	 height="100%" viewBox="0 0 1000 1000" style="enable-background:new 0 0 1000 1000;" xml:space="preserve">
<g id="Layer_3">
	<rect style="fill:#FFFFFF;" width="1000" height="1000"/>
</g>
<g id="Layer_1">
	<path style="fill:#FFFFFF;stroke:#231F20;stroke-width:2;stroke-miterlimit:10;" d="M742.651,543.273
		c26.595,9.789,53.644,34.811,81.724,25.323c16.977-5.735,40.611-20.584,30.33-41.611c-9.199-18.808-42.219-38.523-62.112-45.112
		L742.651,543.273z"/>
	<path style="fill:#FFFFFF;stroke:#231F20;stroke-width:2;stroke-miterlimit:10;" d="M698.661,605.212
		c26.59,9.788,53.643,34.811,81.725,25.324c16.974-5.735,40.609-20.587,30.327-41.611c-9.199-18.811-42.219-38.526-62.11-45.116
		L698.661,605.212z"/>
	<path style="fill:#FFFFFF;stroke:#231F20;stroke-width:2;stroke-miterlimit:10;" d="M616.176,644.201
		c-9.578,18.594,0.722,46.914-6.698,68.063c-6.056,17.265-37.757,27.19-54.427,15.252c-15.048-10.774-10.366-43.24-10.872-59.827
		c-0.629-20.713-8.347-52.119,1.05-70.367L616.176,644.201z"/>
	<path style="fill:#FFFFFF;stroke:#231F20;stroke-width:2;stroke-miterlimit:10;" d="M548.067,665.144
		c-9.575,18.593,0.726,46.913-6.695,68.064c-6.057,17.263-37.758,27.188-54.428,15.253c-15.048-10.774-10.367-43.241-10.871-59.831
		c-0.63-20.71-8.347-52.119,1.049-70.364L548.067,665.144z"/>
	<path style="fill:#FFFFFF;stroke:#231F20;stroke-width:2;stroke-miterlimit:10;" d="M418.817,496.081
		c-6.531,12.724-6.643,26.695-6.422,40.65c0.233,14.657,0.168,28.98-2.725,43.418c-4.554,22.717-19.037,47.956-44.668,49.668
		c-9.109,0.609-18.188-2.176-26.043-6.643c-4.936-2.808-9.596-6.184-13.696-10.115c-4.182-4.01-11.139-10.223-10.994-16.425
		c0.053-2.275,1.725-4.414,4.249-3.929c4.129,0.794,6.572,3.928,9.602,6.642c2.896,2.591,5.664,5.288,8.67,7.763
		c4.683,3.854,9.75,6.907,15.457,9.009c4.15,1.53,9.027,2.088,13.426,1.654c1.158-0.115,2.304-0.32,3.441-0.559
		c-1.254,0.263,0.588-0.188,0.687-0.215c0.558-0.158,1.105-0.346,1.653-0.533c2.858-0.979,3.93-1.6,5.949-2.884
		c9.167-5.846,15.013-15.612,18.942-26.144c4.877-13.076,6.504-27.234,7.049-41.09c0.67-17.045,1.004-38.348,13.972-51.165
		C418.015,494.543,419.298,495.146,418.817,496.081L418.817,496.081z"/>
	<path style="fill:#FFFFFF;stroke:#231F20;stroke-width:2;stroke-miterlimit:10;" d="M322.884,562.063
		c-18.283-13.475-41.377-6.326-61.8-8.534c9.333,16.16,12.622,36.881,25.252,51.104C312.171,633.72,356.122,586.561,322.884,562.063
		z"/>
	<path style="fill:#FFFFFF;stroke:#231F20;stroke-width:2;stroke-miterlimit:10;" d="M416.545,599.32
		c23.343,43.83,64.164,68.596,110.393,72.673c16.587,1.468,33.873,0.265,51.303-3.67c5.703-1.287,11.505-2.78,17.375-4.467
		c33.613-9.647,69.488-25.634,101.549-45.786c25.879-16.269,49.275-35.258,66.997-55.826c23.99-27.834,31.81-58.205,24.378-94.437
		c-8.215-40.035-52.066-80.101-88.73-95.73c-35.663-15.194-76.312-17.021-114.244-11.208c-10.234,1.57-20.654,3.787-31.064,6.657
		c-64.588,17.784-128.738,60.513-145.386,127.393c-1.629,6.545-3.053,12.809-4.192,18.857c-3.882,20.504-4.595,38.686,0.481,57.823
		C407.773,580.521,411.398,589.652,416.545,599.32z"/>
	<path style="fill:#FFFFFF;stroke:#231F20;stroke-width:2;stroke-miterlimit:10;" d="M662.052,291.646
		c10.154-0.943,23.801-10.547,22.552-21.761c-1.351-12.125-15.232-12.755-20.894-21.623c-6.15-9.641-6.45-22.518-8.946-33.374
		c-2.406-10.458-4.762-20.684-16.626-11.55c-10.797,8.31-16.614,25.754-14.932,39.002
		C625.378,259.458,639.529,293.74,662.052,291.646z"/>
	<path style="fill:#FFFFFF;stroke:#231F20;stroke-width:2;stroke-miterlimit:10;" d="M808.767,279
		c-10.146-1.022-23.721-10.729-22.385-21.933c1.442-12.115,15.326-12.64,21.054-21.465c6.226-9.593,6.618-22.467,9.199-33.304
		c2.486-10.439,4.919-20.646,16.715-11.423c10.733,8.392,16.418,25.877,14.636,39.115C845.684,247.09,831.271,281.263,808.767,279z"
		/>
	<path style="fill:#FFFFFF;stroke:#231F20;stroke-width:2;stroke-miterlimit:10;" d="M832.56,353.246
		c-12.479-8.312-11.05-32.879-1.007-43.171c11.062-11.336,28.691-1.379,37.98,6.859c10.757,9.539,19.428,22.934,21.096,37.443
		c-9.823,0.375-20.268-0.583-30.286,0.586C851.252,356.022,840.682,358.658,832.56,353.246z"/>
	<path style="fill:#FFFFFF;stroke:#231F20;stroke-width:2;stroke-miterlimit:10;" d="M659.547,338.604
		c10.968-10.225,5.577-34.236-5.999-42.763c-12.753-9.395-28.534,3.285-36.368,12.919c-9.07,11.155-15.455,25.779-14.753,40.368
		c9.757-1.223,19.906-3.86,29.981-4.33C641.552,344.371,652.409,345.259,659.547,338.604z"/>
	<path style="fill:#FFFFFF;stroke:#231F20;stroke-width:2;stroke-miterlimit:10;" d="M645.177,358.471
		c-1.403,40.424-5.285,78.694,41.584,92.417c13.975,4.089,30.016,2.147,44.377,1.92c24.114-0.384,48.024-5.212,70.528-13.861
		c57.697-22.175,47.421-81.527,38.509-130.951c-7.176-39.806-40.665-58.474-78.171-64.073
		c-33.627-5.019-105.58,6.361-111.596,49.744C647.435,315.142,645.933,336.81,645.177,358.471z"/>
	<path style="fill:#FFFFFF;stroke:#231F20;stroke-width:2;stroke-miterlimit:10;" d="M800.674,527.072
		c-44.235,10.983-100.715,5.974-136.825-10.254c-63.982-28.756-51.052-106.335-0.789-143.44
		c52.078-38.446,133.628-26.975,180.893,16.924c37.837,35.146,35.814,98.762-11.982,124.957
		C822.733,520.32,812.111,524.232,800.674,527.072z"/>
	<path style="fill:#FFFFFF;stroke:#231F20;stroke-width:2;stroke-miterlimit:10;" d="M723.682,305.211
		c5.077,23.46-19.387,41.95-41.389,38.928c-25.33-3.479-32.733-40.106-16.002-56.713c12.641-12.55,31.901-13.71,45.287-1.627
		C718.474,292.021,722.272,298.684,723.682,305.211z"/>
	<path style="fill:#231F20;stroke:#231F20;stroke-width:2;stroke-miterlimit:10;" d="M674.955,321.804
		c-16.918-5.891-16.41-29.239,0.846-34.311c15.347-4.511,29.67,13.045,19.817,26.536
		C690.675,320.798,683.404,324.745,674.955,321.804z"/>
	<path style="fill:#FFFFFF;stroke:#231F20;stroke-width:2;stroke-miterlimit:10;" d="M672.941,306.466
		c-5.741,1.512-10.567-5.745-6.626-10.416c3.154-3.738,9.243-3.894,10.812,0.848C678.436,300.845,677.404,305.291,672.941,306.466z"
		/>
	<path style="fill:#FFFFFF;stroke:#231F20;stroke-width:2;stroke-miterlimit:10;" d="M831.487,312.779
		c5.072,23.461-19.388,41.951-41.392,38.929c-25.328-3.479-32.732-40.106-16.003-56.714c12.643-12.55,31.903-13.71,45.289-1.627
		C826.275,299.589,830.074,306.251,831.487,312.779z"/>
	<path style="fill:#231F20;stroke:#231F20;stroke-width:2;stroke-miterlimit:10;" d="M782.758,329.371
		c-16.919-5.889-16.408-29.237,0.846-34.311c15.348-4.51,29.669,13.046,19.819,26.535
		C798.477,328.367,791.207,332.312,782.758,329.371z"/>
	<path style="fill:#FFFFFF;stroke:#231F20;stroke-width:2;stroke-miterlimit:10;" d="M780.745,314.035
		c-5.741,1.512-10.568-5.746-6.626-10.416c3.154-3.738,9.243-3.894,10.813,0.847C786.237,308.414,785.207,312.859,780.745,314.035z"
		/>
	<path style="fill:#FFFFFF;stroke:#231F20;stroke-width:2;stroke-miterlimit:10;" d="M664.271,450.498
		c-10.075,2.358-21.344-4.958-14.966-21.47c6.034-15.625,28.707-13.073,27.908,4.678
		C676.777,443.421,670.772,448.975,664.271,450.498z"/>
	<path style="fill:#FFFFFF;stroke:#231F20;stroke-width:2;stroke-miterlimit:10;" d="M816.96,449.631
		c-10.076,2.357-21.346-4.957-14.967-21.472c6.036-15.622,28.708-13.072,27.91,4.679
		C829.464,442.553,823.461,448.107,816.96,449.631z"/>
	<path style="fill:#FFFFFF;stroke:#231F20;stroke-width:2;stroke-miterlimit:10;" d="M404.921,513.776
		c3.955,3.914,8.604,7.245,13.92,9.997c18.415,9.525,25.477,1.641,40.931-8.8c16.149-10.911,23.033-13.157,41.366-7.355
		c16.549,5.23,28.195,6.548,44.71-1.148c55.76-26.005-14.922-42.332-0.831-72.319c7.072-15.031,27.874-14.762,28.779-35.541
		c0.385-8.741-10.009-26.85-19.297-31.084c-64.588,17.784-128.738,60.513-145.386,127.393
		C407.485,501.464,406.061,507.728,404.921,513.776z"/>
	<path style="fill:#FFFFFF;stroke:#231F20;stroke-width:2;stroke-miterlimit:10;" d="M416.545,599.32
		c23.343,43.83,64.164,68.596,110.393,72.673c-3.573-13.574-24.952-27.977-21.504-48.413c3.346-19.829,17.541-27.361,0.291-47.395
		c-27.582-32.037-67.77-26.688-100.322-4.586C407.773,580.521,411.398,589.652,416.545,599.32z"/>
	<path style="fill:#FFFFFF;stroke:#231F20;stroke-width:2;stroke-miterlimit:10;" d="M577.374,638.779
		c3.395,13.708,9.649,21.525,18.241,25.077c33.613-9.647,69.488-25.634,101.549-45.786c2.948-27.316-6.617-62.494-28.914-66.846
		c-15.441-3.008-24.156,12.079-39.783,13.036c-19.767,1.209-26.172-6.29-42.889,10.05c-8.479,8.291-22.262,17.351-22.82,26.807
		c-0.535,9.06,5.83,10.066,9.064,17.372C575.23,626.182,575.295,630.377,577.374,638.779z"/>
</g>
<g id="Layer_2">
	<path style="fill:#FFFFFF;stroke:#000000;stroke-width:2;" d="M263.064,848.687c-3.168-0.37-5.102-1.419-5.801-3.149
		c-0.701-1.729-0.718-3.627-0.055-5.69v-44.862c-1.179,0-2.229-0.312-3.149-0.938c-0.922-0.625-1.658-1.417-2.21-2.376
		c-0.553-0.957-0.829-2.006-0.829-3.148s0.332-2.191,0.995-3.15c1.473-2.209,3.37-3.939,5.691-5.193
		c2.32-1.251,4.732-2.281,7.237-3.094c3.904-1.252,7.826-1.951,11.768-2.1c3.94-0.146,7.826,0.664,11.657,2.432
		c3.462,1.621,6.188,3.721,8.177,6.299c1.989,2.578,3.241,5.322,3.757,8.231c0.514,2.911,0.257,5.895-0.774,8.95
		c-1.032,3.058-2.873,5.912-5.524,8.563c3.461,2.21,5.929,4.845,7.403,7.901c1.473,3.057,2.08,6.206,1.823,9.447
		c-0.259,3.242-1.29,6.372-3.094,9.392c-1.806,3.021-4.254,5.636-7.348,7.846c-1.842,1.325-3.997,2.337-6.464,3.038
		c-2.469,0.699-5.01,1.197-7.625,1.492c-2.616,0.293-5.212,0.441-7.79,0.441c-2.579,0-4.936-0.074-7.072-0.221L263.064,848.687z"/>
	<path style="fill:#FFFFFF;stroke:#000000;stroke-width:2;" d="M270.689,803.604c1.326,0,2.652,0,3.978,0
		c1.326,0,2.633-0.127,3.923-0.387c1.288-0.257,2.542-0.68,3.757-1.271c1.215-0.589,2.301-1.437,3.26-2.542
		c1.398-1.547,1.896-3.186,1.492-4.916c-0.406-1.73-1.456-3.111-3.149-4.145c-1.916-1.252-4.088-1.896-6.519-1.934
		c-2.431-0.036-4.679,0.24-6.74,0.829V803.604z"/>
	<path style="fill:#FFFFFF;stroke:#000000;stroke-width:2;" d="M286.601,820.62c-1.326-0.884-2.616-1.547-3.868-1.989
		c-1.253-0.441-2.524-0.734-3.812-0.883c-1.29-0.147-2.597-0.184-3.923-0.111c-1.326,0.074-2.762,0.148-4.309,0.221v17.68
		c1.619,0,3.351-0.055,5.193-0.166c1.84-0.109,3.608-0.403,5.304-0.883c1.694-0.479,3.277-1.16,4.751-2.045
		c1.473-0.884,2.652-2.1,3.536-3.646c0.221-1.768,0.183-3.296-0.11-4.586C289.067,822.924,288.147,821.725,286.601,820.62z"/>
	<path style="fill:#FFFFFF;stroke:#000000;stroke-width:2;" d="M310.577,819.626c0.515-2.136,1.233-4.235,2.155-6.298
		c0.92-2.062,2.044-4.033,3.37-5.912c1.326-1.879,2.818-3.592,4.475-5.139c1.658-1.547,3.443-2.799,5.359-3.756
		c3.387-1.769,6.795-2.67,10.221-2.708c3.426-0.036,6.611,0.646,9.558,2.044c2.945,1.4,5.451,3.48,7.514,6.244
		c2.061,2.762,3.425,6.06,4.088,9.889c0.368,2.506,0.569,4.881,0.607,7.127c0.036,2.248-0.204,4.586-0.718,7.018
		c-0.737,3.463-2.229,6.905-4.475,10.331c-2.248,3.425-4.936,6.298-8.066,8.618c-3.132,2.32-6.557,3.849-10.276,4.586
		c-3.721,0.736-7.458,0.146-11.216-1.768c-1.695-0.812-3.223-1.751-4.585-2.818c-1.364-1.066-2.597-2.338-3.702-3.812
		c-1.253-1.62-2.229-3.315-2.928-5.083c-0.701-1.768-1.271-3.608-1.713-5.525c-0.516-2.061-0.701-4.143-0.552-6.242
		c0.147-2.1,0.404-4.145,0.773-6.133L310.577,819.626z"/>
	<path style="fill:#FFFFFF;stroke:#000000;stroke-width:2;" d="M323.837,821.946c-0.221,1.179-0.406,2.339-0.552,3.48
		c-0.148,1.144-0.148,2.304,0,3.481c0.221,1.695,0.68,3.242,1.381,4.641c0.699,1.4,1.62,2.505,2.763,3.314
		c1.141,0.812,2.448,1.234,3.922,1.271c1.473,0.037,3.056-0.424,4.751-1.382c2.136-1.252,3.978-3.186,5.525-5.802
		c1.547-2.613,2.503-5.34,2.873-8.176c0.368-2.836,0.072-5.525-0.884-8.066c-0.958-2.541-2.837-4.365-5.636-5.47
		c-1.842,0-3.536,0.351-5.083,1.05c-1.547,0.701-2.892,1.621-4.033,2.762c-1.143,1.144-2.138,2.486-2.983,4.033
		C325.034,818.631,324.352,820.252,323.837,821.946z"/>
	<path style="fill:#FFFFFF;stroke:#000000;stroke-width:2;" d="M361.735,838.631c-0.442-1.252-0.626-2.486-0.552-3.701
		c0.072-1.215,0.387-2.32,0.939-3.314c0.553-0.995,1.343-1.769,2.376-2.32c1.031-0.553,2.282-0.755,3.757-0.608
		c0.81,0.074,1.547,0.296,2.21,0.663c0.663,0.369,1.271,0.812,1.823,1.326c0.552,0.516,1.105,1.068,1.657,1.657
		c0.553,0.591,1.123,1.104,1.713,1.547c1.251,0.958,2.578,1.657,3.978,2.1c1.398,0.442,2.873,0.773,4.42,0.995
		c1.03,0,1.859-0.258,2.486-0.774c0.625-0.515,1.05-1.142,1.271-1.878c0.221-0.736,0.276-1.528,0.166-2.376
		c-0.11-0.847-0.387-1.528-0.829-2.044c-1.253-1.252-2.781-2.062-4.585-2.432c-1.806-0.367-3.481-0.809-5.028-1.326
		c-2.21-0.734-4.384-1.674-6.52-2.816c-2.137-1.143-3.867-2.708-5.193-4.697c-1.4-2.061-2.229-4.254-2.486-6.574
		c-0.259-2.32-0.074-4.586,0.552-6.795c0.625-2.211,1.675-4.236,3.149-6.078c1.473-1.84,3.24-3.352,5.304-4.53
		c1.547-0.884,3.241-1.454,5.083-1.712c1.84-0.258,3.702-0.312,5.58-0.166c1.878,0.148,3.738,0.497,5.58,1.049
		c1.84,0.553,3.536,1.16,5.083,1.824c1.768,0.811,3.094,1.952,3.978,3.425c0.884,1.475,1.307,2.966,1.271,4.476
		c-0.038,1.51-0.553,2.817-1.547,3.922c-0.994,1.105-2.45,1.658-4.364,1.658c-1.179,0-2.248-0.202-3.205-0.607
		c-0.958-0.404-1.953-0.791-2.983-1.16c-1.326-0.516-2.762-0.865-4.31-1.051c-1.547-0.183-2.8-0.092-3.757,0.276
		c-0.295,0.075-0.626,0.314-0.994,0.718c-0.37,0.406-0.646,0.904-0.829,1.492c-0.185,0.591-0.221,1.18-0.11,1.768
		c0.11,0.592,0.497,1.069,1.16,1.438c1.768,0.958,3.646,1.695,5.635,2.209c1.989,0.517,3.94,1.105,5.856,1.769
		c1.915,0.663,3.702,1.511,5.359,2.542c1.657,1.031,3.039,2.504,4.144,4.42c1.619,2.8,2.448,5.729,2.486,8.783
		c0.036,3.059-0.572,5.912-1.823,8.564c-1.253,2.652-3.094,4.917-5.525,6.795c-2.431,1.879-5.268,3.001-8.508,3.371
		c-2.284,0.221-4.531,0.091-6.74-0.387c-2.21-0.48-4.348-1.254-6.409-2.32c-2.063-1.069-3.978-2.338-5.746-3.812
		c-1.768-1.473-3.315-3.02-4.641-4.641L361.735,838.631z"/>
	<path style="fill:#FFFFFF;stroke:#000000;stroke-width:2;" d="M459.414,809.239c-1.475-0.368-2.745-0.995-3.812-1.878
		c-1.069-0.885-1.806-1.916-2.21-3.095c-0.406-1.177-0.406-2.394,0-3.646c0.404-1.251,1.307-2.393,2.707-3.425
		c1.177-0.885,2.503-1.326,3.978-1.326c1.473,0,2.909,0,4.309,0c0-0.515-0.038-1.639-0.11-3.371
		c-0.074-1.729-0.093-3.627-0.055-5.689c0.036-2.062,0.166-4.033,0.387-5.912c0.221-1.879,0.625-3.186,1.215-3.922
		c1.473-2.062,3.296-3.039,5.47-2.929c2.172,0.11,3.959,1.16,5.359,3.149c0.293,0.369,0.57,0.811,0.829,1.326
		c0.257,0.516,0.387,0.994,0.387,1.436c0.072,2.652,0.091,5.305,0.055,7.956c-0.038,2.651-0.055,5.304-0.055,7.956h8.729
		c1.326,0,2.467,0.441,3.425,1.326c0.957,0.884,1.639,1.916,2.044,3.094c0.404,1.18,0.515,2.395,0.332,3.646
		c-0.185,1.253-0.756,2.283-1.713,3.094c-1.695,1.4-3.666,2.137-5.912,2.21c-2.248,0.074-4.549,0.11-6.906,0.11
		c0,4.053-0.019,8.104-0.056,12.154c-0.038,4.053-0.019,8.104,0.056,12.155c0,1.768,0.091,3.573,0.276,5.414
		c0.183,1.843,0.056,3.61-0.387,5.304c-0.369,1.326-0.994,2.376-1.878,3.149c-0.884,0.773-1.878,1.252-2.983,1.437
		c-1.105,0.184-2.248,0.11-3.425-0.221c-1.179-0.332-2.284-0.939-3.315-1.824c-0.516-0.516-0.903-1.398-1.16-2.651
		c-0.259-1.251-0.425-2.577-0.497-3.978c-0.075-1.619-0.075-3.352,0-5.193c0-1.473,0-3.388,0-5.746c0-2.357-0.019-4.807-0.056-7.348
		c-0.038-2.542-0.055-4.953-0.055-7.238c0-2.282,0-4.088,0-5.414L459.414,809.239z"/>
	<path style="fill:#FFFFFF;stroke:#000000;stroke-width:2;" d="M539.193,841.173c0.588,2.138,0.479,3.905-0.332,5.304
		c-0.812,1.398-1.934,2.338-3.37,2.818c-1.437,0.478-3.003,0.422-4.696-0.166c-1.695-0.591-3.168-1.768-4.42-3.536
		c-2.062,1.547-4.07,2.633-6.021,3.26c-1.953,0.625-4.182,0.976-6.686,1.05c-3.757,0.146-7.109-0.276-10.055-1.271
		c-2.948-0.994-5.434-2.486-7.459-4.475c-2.027-1.988-3.519-4.475-4.475-7.459c-0.958-2.982-1.29-6.426-0.995-10.331
		c0.147-1.62,0.423-3.204,0.829-4.751c0.404-1.547,0.865-3.057,1.381-4.531c0.589-1.619,1.417-3.351,2.486-5.193
		c1.067-1.84,2.155-3.425,3.26-4.751c3.978-4.862,8.95-8.36,14.917-10.497c1.03-0.368,2.431-0.699,4.198-0.994
		c1.769-0.294,3.554-0.424,5.359-0.387c1.805,0.037,3.536,0.275,5.193,0.718c1.658,0.442,2.891,1.216,3.702,2.32
		c0.663,0.884,1.142,1.657,1.437,2.32c0.293,0.663,0.459,1.364,0.497,2.1c0.036,0.737,0.036,1.53,0,2.376
		c-0.038,0.848-0.056,1.896-0.056,3.148c0,2.063-0.019,4.072-0.055,6.022c-0.038,1.952-0.02,3.923,0.055,5.911
		c0,0.664,0,1.53,0,2.598c0,1.068,0.037,2.192,0.111,3.369c0.072,1.18,0.166,2.304,0.275,3.371c0.111,1.068,0.277,1.934,0.498,2.596
		L539.193,841.173z"/>
	<path style="fill:#FFFFFF;stroke:#000000;stroke-width:2;" d="M515.768,836.2c0.81-0.515,1.73-1.086,2.762-1.712
		c1.031-0.625,1.951-1.344,2.764-2.155c-0.664-3.903-1.051-7.808-1.16-11.713c-0.111-3.903-0.094-7.845,0.055-11.823
		c-3.314,0.591-6.299,2.027-8.95,4.31c-2.651,2.284-4.494,4.973-5.524,8.066c-0.442,1.253-0.812,2.542-1.105,3.867
		c-0.295,1.326-0.406,2.616-0.332,3.868c0.072,1.695,0.516,3.112,1.326,4.254c0.811,1.143,1.785,2.008,2.928,2.596
		c1.143,0.592,2.357,0.922,3.646,0.995C513.465,836.827,514.662,836.643,515.768,836.2z"/>
	<path style="fill:#FFFFFF;stroke:#000000;stroke-width:2;" d="M594.551,837.416c0.664,0.958,1.051,2.082,1.16,3.37
		c0.111,1.29-0.037,2.505-0.441,3.646c-0.406,1.143-1.068,2.08-1.988,2.817c-0.922,0.736-2.119,1.066-3.592,0.994
		c-1.916-0.148-3.463-0.811-4.641-1.988c-1.18-1.178-2.285-2.504-3.314-3.979c-2.873,2.359-5.84,3.996-8.896,4.918
		c-3.057,0.92-6.059,1.121-9.004,0.607c-2.947-0.516-5.711-1.751-8.289-3.701c-2.578-1.951-4.75-4.586-6.518-7.901
		c-1.623-3.094-2.525-6.519-2.708-10.276c-0.185-3.756-0.24-7.328-0.166-10.718c0-1.178,0.036-2.338,0.11-3.481
		c0.072-1.141,0.146-2.337,0.221-3.59c0.073-0.957,0.111-1.896,0.111-2.818c0-0.92,0.055-1.785,0.166-2.597
		c0.109-0.81,0.33-1.62,0.662-2.431s0.83-1.584,1.492-2.32c0.885-0.957,1.951-1.528,3.205-1.713c1.25-0.184,2.447-0.056,3.59,0.387
		c1.143,0.441,2.137,1.124,2.984,2.044c0.846,0.922,1.307,2.044,1.381,3.37c0.146,3.757,0.055,7.552-0.275,11.381
		c-0.332,3.832-0.314,7.588,0.055,11.271c0.146,1.768,0.607,3.574,1.381,5.414c0.773,1.842,2.006,3.168,3.701,3.979
		c1.693,0.736,3.406,0.682,5.139-0.166c1.73-0.846,3.148-1.859,4.254-3.039c0.516-0.589,1.012-1.232,1.492-1.934
		c0.479-0.699,1.012-1.307,1.602-1.823c-0.295-2.577-0.48-5.155-0.553-7.735c-0.074-2.577-0.074-5.154,0-7.734
		c0-1.398,0.057-2.928,0.166-4.586c0.111-1.657,0.404-3.24,0.885-4.751c0.479-1.509,1.195-2.835,2.154-3.978
		c0.957-1.142,2.32-1.859,4.088-2.155c0.811-0.146,1.604-0.072,2.377,0.222c0.773,0.295,1.453,0.701,2.043,1.215
		c1.031,0.885,1.73,1.879,2.1,2.983c0.367,1.104,0.553,2.284,0.553,3.536c0,1.254-0.094,2.523-0.275,3.812
		c-0.186,1.289-0.314,2.486-0.387,3.591c-0.148,2.063-0.26,4.237-0.332,6.52c-0.074,2.284,0,4.568,0.221,6.851
		c0.221,2.284,0.645,4.494,1.271,6.63C592.359,833.697,593.297,835.648,594.551,837.416z"/>
	<path style="fill:#FFFFFF;stroke:#000000;stroke-width:2;" d="M606.593,811.946c0.072-0.478,0.036-1.343-0.11-2.597
		c-1.18-0.663-2.1-1.509-2.763-2.541c-0.663-1.031-1.05-2.137-1.16-3.315c-0.11-1.177,0.11-2.302,0.663-3.37
		c0.553-1.066,1.453-1.97,2.707-2.707c1.693-0.957,3.553-1.142,5.58-0.553c2.025,0.591,3.774,1.475,5.249,2.652
		c1.84-1.398,3.757-2.578,5.745-3.536c1.989-0.956,4.015-1.603,6.078-1.934c2.062-0.331,4.16-0.276,6.298,0.165
		c2.136,0.442,4.235,1.364,6.299,2.764c1.03,0.662,1.988,1.491,2.872,2.485c0.885,0.995,1.437,2.118,1.658,3.37
		c0.367,1.842,0.221,3.444-0.442,4.807c-0.663,1.364-1.585,2.358-2.763,2.983c-1.179,0.627-2.505,0.812-3.978,0.553
		c-1.475-0.257-2.873-1.05-4.199-2.376c-0.441-0.293-0.756-0.533-0.938-0.718c-0.186-0.183-0.572-0.423-1.161-0.718
		c-1.179-0.295-2.339-0.222-3.48,0.221c-1.143,0.441-2.248,1.049-3.314,1.822c-1.069,0.773-2.063,1.621-2.983,2.542
		c-0.922,0.922-1.751,1.751-2.486,2.486v28.177c0,1.105-0.221,2.174-0.663,3.204c-0.663,1.694-1.713,2.873-3.149,3.536
		s-2.873,0.846-4.31,0.553c-1.436-0.295-2.689-1.033-3.757-2.211c-1.068-1.179-1.602-2.688-1.602-4.529v-30.939
		C606.482,812.518,606.519,812.426,606.593,811.946z"/>
	<path style="fill:#FFFFFF;stroke:#000000;stroke-width:2;" d="M699.851,837.416c0.663,0.958,1.05,2.082,1.16,3.37
		c0.11,1.29-0.038,2.505-0.442,3.646c-0.405,1.143-1.068,2.08-1.988,2.817c-0.922,0.736-2.118,1.066-3.592,0.994
		c-1.916-0.148-3.463-0.811-4.641-1.988c-1.179-1.178-2.284-2.504-3.314-3.979c-2.873,2.359-5.84,3.996-8.896,4.918
		c-3.058,0.92-6.06,1.121-9.005,0.607c-2.947-0.516-5.71-1.751-8.288-3.701c-2.579-1.951-4.751-4.586-6.519-7.901
		c-1.622-3.094-2.524-6.519-2.708-10.276c-0.185-3.756-0.239-7.328-0.165-10.718c0-1.178,0.036-2.338,0.11-3.481
		c0.072-1.141,0.146-2.337,0.221-3.59c0.072-0.957,0.11-1.896,0.11-2.818c0-0.92,0.056-1.785,0.166-2.597
		c0.11-0.81,0.331-1.62,0.663-2.431c0.331-0.811,0.829-1.584,1.491-2.32c0.885-0.957,1.951-1.528,3.205-1.713
		c1.251-0.184,2.448-0.056,3.591,0.387c1.142,0.441,2.136,1.124,2.983,2.044c0.846,0.922,1.307,2.044,1.381,3.37
		c0.147,3.757,0.056,7.552-0.275,11.381c-0.332,3.832-0.314,7.588,0.055,11.271c0.146,1.768,0.607,3.574,1.382,5.414
		c0.773,1.842,2.006,3.168,3.701,3.979c1.693,0.736,3.406,0.682,5.138-0.166c1.73-0.846,3.149-1.859,4.255-3.039
		c0.515-0.589,1.012-1.232,1.491-1.934c0.479-0.699,1.012-1.307,1.603-1.823c-0.295-2.577-0.48-5.155-0.553-7.735
		c-0.074-2.577-0.074-5.154,0-7.734c0-1.398,0.056-2.928,0.166-4.586c0.11-1.657,0.404-3.24,0.884-4.751
		c0.479-1.509,1.196-2.835,2.154-3.978c0.957-1.142,2.321-1.859,4.089-2.155c0.81-0.146,1.603-0.072,2.376,0.222
		c0.773,0.295,1.453,0.701,2.044,1.215c1.03,0.885,1.729,1.879,2.1,2.983c0.367,1.104,0.553,2.284,0.553,3.536
		c0,1.254-0.094,2.523-0.276,3.812c-0.186,1.289-0.314,2.486-0.387,3.591c-0.148,2.063-0.26,4.237-0.332,6.52
		c-0.074,2.284,0,4.568,0.221,6.851c0.222,2.284,0.645,4.494,1.271,6.63C697.658,833.697,698.597,835.648,699.851,837.416z"/>
	<path style="fill:#FFFFFF;stroke:#000000;stroke-width:2;" d="M707.472,838.631c-0.441-1.252-0.627-2.486-0.553-3.701
		c0.073-1.215,0.387-2.32,0.939-3.314c0.553-0.995,1.344-1.769,2.376-2.32c1.03-0.553,2.282-0.755,3.757-0.608
		c0.81,0.074,1.547,0.296,2.21,0.663c0.663,0.369,1.271,0.812,1.823,1.326c0.553,0.516,1.104,1.068,1.657,1.657
		c0.553,0.591,1.122,1.104,1.713,1.547c1.252,0.958,2.577,1.657,3.978,2.1c1.398,0.442,2.873,0.773,4.42,0.995
		c1.031,0,1.859-0.258,2.486-0.774c0.625-0.515,1.05-1.142,1.271-1.878c0.222-0.736,0.276-1.528,0.166-2.376
		c-0.11-0.847-0.387-1.528-0.829-2.044c-1.253-1.252-2.781-2.062-4.585-2.432c-1.807-0.367-3.48-0.809-5.028-1.326
		c-2.21-0.734-4.383-1.674-6.519-2.816c-2.138-1.143-3.868-2.708-5.193-4.697c-1.4-2.061-2.229-4.254-2.486-6.574
		c-0.259-2.32-0.074-4.586,0.553-6.795c0.625-2.211,1.674-4.236,3.148-6.078c1.473-1.84,3.241-3.352,5.304-4.53
		c1.548-0.884,3.241-1.454,5.083-1.712c1.841-0.258,3.702-0.312,5.58-0.166c1.879,0.148,3.738,0.497,5.58,1.049
		c1.841,0.553,3.536,1.16,5.083,1.824c1.769,0.811,3.094,1.952,3.979,3.425c0.884,1.475,1.307,2.966,1.271,4.476
		c-0.038,1.51-0.553,2.817-1.547,3.922c-0.995,1.105-2.45,1.658-4.365,1.658c-1.179,0-2.248-0.202-3.204-0.607
		c-0.958-0.404-1.953-0.791-2.983-1.16c-1.326-0.516-2.763-0.865-4.31-1.051c-1.547-0.183-2.8-0.092-3.757,0.276
		c-0.295,0.075-0.627,0.314-0.994,0.718c-0.37,0.406-0.646,0.904-0.829,1.492c-0.185,0.591-0.221,1.18-0.11,1.768
		c0.11,0.592,0.497,1.069,1.16,1.438c1.768,0.958,3.646,1.695,5.636,2.209c1.988,0.517,3.939,1.105,5.856,1.769
		c1.914,0.663,3.701,1.511,5.358,2.542c1.658,1.031,3.039,2.504,4.144,4.42c1.62,2.8,2.448,5.729,2.486,8.783
		c0.036,3.059-0.571,5.912-1.823,8.564c-1.253,2.652-3.094,4.917-5.524,6.795c-2.431,1.879-5.268,3.001-8.509,3.371
		c-2.284,0.221-4.53,0.091-6.74-0.387c-2.21-0.48-4.347-1.254-6.408-2.32c-2.063-1.069-3.979-2.338-5.746-3.812
		c-1.769-1.473-3.315-3.02-4.641-4.641L707.472,838.631z"/>
	<path style="fill:#FFFFFF;stroke:#000000;stroke-width:2;" d="M431.401,942.084c0.773,1.492,1.049,2.996,0.829,4.518
		c-0.222,1.518-1.216,2.637-2.983,3.355c-1.658,0.607-3.247,0.441-4.765-0.497c-1.521-0.94-2.888-2.21-4.103-3.812
		c-1.216-1.604-2.266-3.288-3.149-5.056c-0.884-1.769-1.547-3.205-1.989-4.31c-2.817-6.519-4.338-13.301-4.558-20.346
		c-0.222-7.044,0.69-13.908,2.734-20.594c0.498-1.711,1.161-3.328,1.989-4.848s1.657-3.053,2.486-4.6
		c0.497-0.883,1.119-1.988,1.864-3.314c0.746-1.326,1.616-2.514,2.611-3.564c0.994-1.049,2.084-1.795,3.273-2.236
		c1.188-0.442,2.472-0.25,3.854,0.58c1.326,0.828,2.043,1.81,2.155,2.941c0.11,1.133-0.097,2.293-0.622,3.48
		c-0.526,1.189-1.189,2.335-1.989,3.439c-0.801,1.105-1.45,2.045-1.947,2.817c-0.719,1.272-1.313,2.349-1.782,3.232
		c-0.47,0.884-0.857,1.63-1.16,2.237c-0.304,0.608-0.539,1.147-0.705,1.616c-0.166,0.47-0.304,0.926-0.415,1.367
		c-0.829,2.874-1.437,5.954-1.823,9.24c-0.387,3.288-0.498,6.589-0.332,9.903c0.166,3.314,0.663,6.562,1.492,9.738
		c0.829,3.178,2.043,6.091,3.646,8.742c0.275,0.498,0.634,1.008,1.077,1.533c0.441,0.525,0.842,0.994,1.202,1.409
		c0.358,0.415,0.649,0.745,0.87,0.995c0.22,0.248,0.276,0.316,0.166,0.207L431.401,942.084z"/>
	<path style="fill:#FFFFFF;stroke:#000000;stroke-width:2;" d="M458.086,925.676c1.38-0.883,2.693-1.271,3.937-1.16
		c1.243,0.111,2.265,0.539,3.066,1.284c0.8,0.746,1.243,1.74,1.326,2.983s-0.346,2.557-1.285,3.937
		c-0.608,0.94-1.479,1.796-2.61,2.569c-1.133,0.773-2.225,1.38-3.273,1.822c-2.432,1.105-4.89,1.603-7.376,1.492
		c-2.486-0.111-4.793-0.719-6.92-1.822c-2.127-1.105-3.965-2.639-5.511-4.6c-1.547-1.961-2.598-4.24-3.149-6.838
		c-1.105-4.973-0.884-9.75,0.663-14.337c0.607-1.657,1.339-3.259,2.196-4.807c0.856-1.546,1.892-2.954,3.107-4.226
		c1.215-1.271,2.569-2.39,4.061-3.357c1.492-0.966,3.121-1.615,4.89-1.947c1.214-0.221,2.762-0.207,4.641,0.041
		c1.877,0.249,3.715,0.733,5.511,1.451c1.794,0.719,3.369,1.657,4.724,2.817c1.353,1.16,2.113,2.542,2.279,4.144
		c0.11,0.885,0,1.699-0.331,2.445c-0.332,0.745-0.802,1.367-1.409,1.864c-0.608,0.497-1.313,0.843-2.113,1.036
		c-0.801,0.193-1.616,0.18-2.445-0.042c-0.994-0.276-1.782-0.648-2.362-1.118c-0.58-0.469-1.34-1.091-2.279-1.865
		c-0.443-0.109-0.857-0.29-1.243-0.539c-0.387-0.248-0.801-0.344-1.243-0.289l-2.237,0.248c-0.387,0.222-0.746,0.414-1.078,0.58
		s-0.663,0.332-0.994,0.498c-1.879,1.879-3.261,3.965-4.144,6.256c-0.884,2.293-1.105,4.766-0.663,7.418
		c0.275,1.713,0.814,3.121,1.616,4.227c0.8,1.105,1.74,1.864,2.818,2.278c1.077,0.415,2.265,0.456,3.563,0.124
		c1.297-0.331,2.582-1.076,3.854-2.237L458.086,925.676z"/>
	<path style="fill:#FFFFFF;stroke:#000000;stroke-width:2;" d="M470.517,916.229c0.386-1.602,0.925-3.177,1.616-4.725
		c0.69-1.546,1.533-3.024,2.527-4.434c0.995-1.408,2.113-2.693,3.356-3.854s2.582-2.099,4.02-2.817
		c2.541-1.326,5.097-2.002,7.666-2.03c2.569-0.027,4.958,0.484,7.168,1.533c2.209,1.05,4.088,2.61,5.635,4.682
		c1.547,2.072,2.569,4.545,3.066,7.418c0.275,1.879,0.428,3.66,0.456,5.345c0.027,1.687-0.153,3.439-0.538,5.263
		c-0.554,2.598-1.672,5.18-3.357,7.748c-1.686,2.569-3.702,4.725-6.049,6.465c-2.349,1.74-4.918,2.887-7.707,3.439
		c-2.791,0.551-5.594,0.109-8.412-1.326c-1.271-0.609-2.417-1.313-3.439-2.113c-1.023-0.801-1.947-1.754-2.776-2.859
		c-0.94-1.215-1.671-2.486-2.196-3.812c-0.526-1.326-0.953-2.706-1.285-4.144c-0.387-1.546-0.526-3.107-0.415-4.683
		c0.11-1.574,0.303-3.107,0.581-4.6L470.517,916.229z"/>
	<path style="fill:#FFFFFF;stroke:#000000;stroke-width:2;" d="M480.462,917.969c-0.166,0.884-0.304,1.754-0.415,2.61
		c-0.111,0.856-0.111,1.728,0,2.61c0.166,1.271,0.51,2.432,1.036,3.48c0.524,1.051,1.215,1.879,2.072,2.486
		c0.856,0.608,1.836,0.926,2.942,0.953c1.104,0.028,2.292-0.317,3.563-1.036c1.602-0.938,2.984-2.39,4.144-4.351
		s1.877-4.006,2.154-6.133c0.276-2.126,0.055-4.144-0.663-6.05c-0.719-1.905-2.127-3.273-4.227-4.103
		c-1.382,0-2.652,0.264-3.812,0.787c-1.16,0.526-2.169,1.217-3.024,2.072c-0.857,0.857-1.604,1.865-2.238,3.025
		C481.359,915.482,480.848,916.698,480.462,917.969z"/>
	<path style="fill:#FFFFFF;stroke:#000000;stroke-width:2;" d="M554.55,900.233c0.828-1.104,1.781-1.864,2.859-2.278
		c1.077-0.415,2.084-0.498,3.024-0.249c0.938,0.249,1.74,0.815,2.403,1.698c0.663,0.885,1.021,2.072,1.077,3.564
		c0.055,0.828-0.29,2.32-1.036,4.475c-0.745,2.154-1.645,4.973-2.693,8.453c-0.056,0.222-0.152,0.497-0.29,0.828
		c-0.138,0.332-0.331,0.885-0.58,1.658c-0.248,0.774-0.608,1.852-1.077,3.232c-0.47,1.381-1.118,3.231-1.947,5.553
		c-0.388,1.16-0.87,2.541-1.45,4.143c-0.58,1.604-1.313,3.025-2.196,4.269c-0.885,1.243-1.935,2.099-3.149,2.569
		c-1.216,0.469-2.681,0.124-4.393-1.037c-0.553-0.387-1.16-1.172-1.822-2.361c-0.664-1.188-1.299-2.472-1.906-3.854
		c-0.609-1.381-1.147-2.693-1.616-3.937c-0.47-1.243-0.787-2.058-0.953-2.444c-0.388-0.883-0.829-1.865-1.326-2.942
		s-0.968-2.167-1.409-3.273l-0.496,1.243c-0.719,1.823-1.438,3.646-2.155,5.47c-0.719,1.823-1.438,3.619-2.155,5.387
		c-0.387,0.94-0.745,1.962-1.076,3.066c-0.332,1.105-0.803,2.071-1.41,2.9c-0.496,0.718-1.118,1.229-1.863,1.533
		c-0.746,0.303-1.506,0.427-2.279,0.373c-0.775-0.056-1.506-0.263-2.196-0.622c-0.692-0.359-1.284-0.869-1.782-1.533
		c-0.773-1.104-1.381-2.375-1.822-3.812c-0.443-1.436-0.885-2.762-1.326-3.977c-0.609-1.713-1.16-3.467-1.658-5.264
		c-0.497-1.794-1.022-3.521-1.574-5.18c-0.277-0.883-0.636-2.043-1.078-3.48c-0.442-1.436-0.869-2.913-1.283-4.434
		c-0.415-1.519-0.746-2.996-0.995-4.434c-0.249-1.436-0.346-2.623-0.29-3.562c0.055-0.939,0.373-1.783,0.953-2.528
		c0.58-0.746,1.285-1.298,2.113-1.657s1.699-0.483,2.61-0.373c0.911,0.111,1.726,0.525,2.444,1.243
		c1.049,1.105,1.686,2.278,1.906,3.522c0.221,1.242,0.469,2.582,0.746,4.019c0.441,2.21,0.953,4.393,1.533,6.548
		c0.58,2.154,1.201,4.309,1.865,6.463c0.22-0.496,0.469-1.104,0.745-1.822c0.276-0.718,0.718-1.795,1.326-3.232
		c0.497-1.215,0.979-2.403,1.45-3.563c0.469-1.16,0.924-2.32,1.367-3.481c0.332-0.828,0.663-1.643,0.994-2.443
		c0.332-0.801,0.664-1.588,0.995-2.363c0.386-0.828,0.953-1.504,1.698-2.029c0.746-0.525,1.561-0.856,2.445-0.994
		c0.883-0.139,1.74-0.055,2.568,0.248c0.83,0.305,1.492,0.87,1.99,1.699c0.717,1.105,1.27,2.334,1.656,3.688
		c0.387,1.354,0.801,2.639,1.244,3.854c0.772,1.988,1.533,3.992,2.279,6.008c0.745,2.018,1.532,3.992,2.361,5.926
		c1.215-3.314,2.292-6.643,3.231-9.986c0.939-3.342,1.961-6.671,3.066-9.986L554.55,900.233z"/>
	<path style="fill:#FFFFFF;stroke:#000000;stroke-width:2;" d="M568.887,941.007c0.441-0.442,0.842-0.843,1.201-1.202
		s0.718-0.718,1.077-1.076c0.359-0.36,0.705-0.761,1.036-1.202c0.332-0.442,0.69-0.968,1.077-1.575
		c1.603-2.596,2.818-5.552,3.646-8.867c0.829-3.314,1.326-6.725,1.492-10.234c0.166-3.508,0.027-6.961-0.414-10.359
		c-0.443-3.397-1.189-6.506-2.238-9.322c-0.719-1.934-1.616-3.758-2.693-5.471c-1.077-1.711-2.169-3.397-3.273-5.055
		c-0.497-0.718-0.981-1.422-1.45-2.113c-0.47-0.69-0.732-1.505-0.787-2.445c-0.056-1.436,0.29-2.623,1.036-3.562
		c0.745-0.939,1.643-1.533,2.693-1.782c1.049-0.249,2.126-0.151,3.231,0.29c1.104,0.443,1.989,1.299,2.652,2.568
		c1.215,1.714,2.375,3.454,3.48,5.222c1.104,1.769,2.126,3.563,3.066,5.387c1.546,2.983,2.721,6.216,3.522,9.696
		c0.8,3.48,1.27,7.044,1.408,10.69c0.138,3.646-0.041,7.251-0.538,10.815c-0.498,3.562-1.243,6.893-2.238,9.985
		c-0.884,2.652-1.947,5.317-3.19,7.997s-2.832,5.041-4.765,7.086c-0.829,0.883-1.77,1.712-2.818,2.486
		c-1.05,0.773-2.21,1.16-3.48,1.16c-1.16,0-2.113-0.248-2.859-0.746c-0.745-0.497-1.271-1.133-1.574-1.906
		c-0.305-0.773-0.401-1.615-0.29-2.527c0.11-0.912,0.386-1.811,0.829-2.693L568.887,941.007z"/>
	<path style="fill:#FFFFFF;stroke:#000000;stroke-width:2;" d="M184.97,496.163c-15.841-1.848-25.509-7.096-29.005-15.746
		c-3.505-8.65-3.591-18.137-0.276-28.453V227.655c-5.896,0-11.145-1.562-15.746-4.696c-4.61-3.125-8.287-7.087-11.05-11.878
		c-2.762-4.782-4.144-10.031-4.144-15.746c0-5.707,1.658-10.955,4.973-15.746c7.363-11.05,16.851-19.7,28.453-25.967
		c11.602-6.259,23.662-11.412,36.188-15.47c19.519-6.258,39.132-9.755,58.84-10.497c19.7-0.734,39.132,3.315,58.288,12.155
		c17.308,8.106,30.939,18.603,40.884,31.492c9.945,12.897,16.203,26.614,18.785,41.16c2.572,14.555,1.286,29.472-3.868,44.751
		c-5.162,15.288-14.365,29.558-27.624,42.817c17.308,11.05,29.644,24.223,37.017,39.503c7.363,15.288,10.402,31.034,9.116,47.237
		c-1.295,16.212-6.449,31.863-15.47,46.961c-9.029,15.107-21.271,28.177-36.74,39.227c-9.211,6.63-19.984,11.688-32.32,15.193
		c-12.345,3.496-25.052,5.982-38.122,7.458c-13.079,1.468-26.062,2.21-38.95,2.21c-12.897,0-24.681-0.371-35.359-1.105
		L184.97,496.163z"/>
	<path style="fill:#FFFFFF;stroke:#000000;stroke-width:2;" d="M223.091,270.749c6.63,0,13.26,0,19.89,0
		c6.629,0,13.165-0.639,19.613-1.934c6.44-1.286,12.708-3.401,18.785-6.354c6.078-2.944,11.507-7.183,16.298-12.708
		c6.993-7.734,9.479-15.927,7.458-24.585c-2.028-8.65-7.277-15.556-15.746-20.718c-9.582-6.259-20.442-9.479-32.597-9.668
		c-12.155-0.181-23.395,1.2-33.702,4.144V270.749z"/>
	<path style="fill:#FFFFFF;stroke:#000000;stroke-width:2;" d="M302.649,355.832c-6.63-4.42-13.079-7.735-19.337-9.945
		c-6.267-2.21-12.621-3.677-19.061-4.42c-6.449-0.734-12.983-0.915-19.613-0.552c-6.63,0.371-13.812,0.742-21.547,1.105v88.397
		c8.097,0,16.756-0.276,25.967-0.829c9.202-0.552,18.042-2.02,26.52-4.42c8.468-2.391,16.384-5.801,23.757-10.221
		c7.363-4.42,13.259-10.498,17.679-18.232c1.105-8.84,0.915-16.479-0.552-22.928C314.985,367.347,310.384,361.356,302.649,355.832z"
		/>
	<g>
	</g>
	<g>
	</g>
	<g>
	</g>
	<g>
	</g>
	<g>
	</g>
	<g>
	</g>
</g>
</svg>
