<?xml version="1.0" encoding="utf-8"?>
<!-- Generator: Adobe Illustrator 16.0.0, SVG Export Plug-In . SVG Version: 6.00 Build 0)  -->
<!DOCTYPE svg PUBLIC "-//W3C//DTD SVG 1.1//EN" "http://www.w3.org/Graphics/SVG/1.1/DTD/svg11.dtd">
<svg version="1.1" xmlns="http://www.w3.org/2000/svg" xmlns:xlink="http://www.w3.org/1999/xlink" x="0px" y="0px" width="100%"
	 height="100%" viewBox="0 0 1000 1000" style="enable-background:new 0 0 1000 1000;" xml:space="preserve">
<g id="Layer_4">
	<rect style="fill:#FFFFFF;" width="1000" height="1000"/>
</g>
<g id="Layer_2">
	<path style="fill:#FFFFFF;stroke:#231F20;stroke-width:2;stroke-miterlimit:10;" d="M580.299,158.848
		c-39.722,3.806-110.894,97.297-114.824,104.316c-0.055-0.396-28.443-29.536,6.475-75.524c17.413-22.935,41.955-43.186,71.45-43.254
		c10.968-0.027,19.272,2.406,29.13,6.624C577.38,153.088,580.299,158.848,580.299,158.848z"/>
	<path style="fill:#FFFFFF;stroke:#231F20;stroke-width:2;stroke-miterlimit:10;" d="M830.905,608.814
		c25.829,23.464,36.878-16.954,68.862-3.249c37.923,32.091-30.484,114.337-100.431,67.58L830.905,608.814z"/>
	<path style="fill:#FFFFFF;stroke:#231F20;stroke-width:2;stroke-miterlimit:10;" d="M580.307,380.501
		c0.004,0,86.317-8.269,86.454-8.281c-8.371,0.803,5.204,71.409,8.634,78.419c9.114,18.62,23.771,38.414,43.019,45.059
		c53.349,18.428,111.355,44.104,120.471,107.561c8.731,60.806-52.528,98.513-108.554,92.698
		c-95.46-9.918-164.917-126.999-166.863-215.125C563.234,470.388,567.879,381.693,580.307,380.501z"/>
	<path style="fill:#FFFFFF;stroke:#231F20;stroke-width:2;stroke-miterlimit:10;" d="M449.046,659.533
		c14.6-10.79,46.222-29.671,50.887-48.74c4.367-17.872-9.346-71.471-9.902-89.592c-1.149-37.088,2.933-50.095,19.373-84.901
		c11.663-24.694,50.345-36.317,71.273-19.635c51.034,40.683-41.264,231.965-59.594,277.835
		C511.4,708.388,393.883,700.312,449.046,659.533z"/>
	<path style="fill:#FFFFFF;stroke:#231F20;stroke-width:2;stroke-miterlimit:10;" d="M523.53,402.577
		c0,0-70.662,124.541,93.788,290.762l68.336-34.928l-113.75-235.02L523.53,402.577z"/>
	<path style="fill:#FFFFFF;stroke:#231F20;stroke-width:2;stroke-miterlimit:10;" d="M604.852,687.064
		c2.459-21.554,23.763-31.044,46.846-35.091c-8.566-9.039-15.509-19.315-20.025-30.404c-14.076-34.586-2.739-80.883,41.228-84.912
		c35.824-3.283,93.182,23.225,110.292,55.017c15.174,28.189,11.705,58.867-5.062,78.239c3.983,27.199,4.14,32.834-32.183,36.646
		C718.127,709.473,601.216,718.944,604.852,687.064z"/>
	<path style="fill:#FFFFFF;stroke:#231F20;stroke-width:2;stroke-miterlimit:10;" d="M524.724,683.271
		c13.249-12.42,29.729-41.622,32.142-61.102c2.263-18.253-3.477-37.195-6.14-55.127c-5.449-36.706-17.018-82.809-4.729-119.285
		c8.713-25.883,45.783-41.92,68.51-27.78c55.415,34.472-0.108,242.585-26.902,282.88
		C579.597,717.768,474.675,730.184,524.724,683.271z"/>
	<path style="fill:#FFFFFF;stroke:#231F20;stroke-width:2;stroke-miterlimit:10;" d="M427.417,303.596
		c0.837-13.479,5.865-21.329,12.679-27.526c8.677-7.891,20.249-13.102,29.754-23.847c33.05-37.363,61.004-88.041,107.014-97.982
		c-0.521-8.812-1.384-18.441,7.792-23.398c8.39-4.534,14.136,0.184,15.396,9.454c-1.358-9.98,4.961-26.934,17.314-21.372
		c4.404,10.453,3.565,28.248,21.467,43.283c50.32,20.351,62.479,65.241,77.84,115.628c20.737,68.038,22.822,131.67-68.39,144.756
		c-55.602,7.98-128.805-2.476-175.608-35.136C446.286,369.041,425.368,336.633,427.417,303.596z"/>
	<path style="fill:#FFFFFF;stroke:#231F20;stroke-width:2;stroke-miterlimit:10;" d="M502.385,428.515
		c32.524,24.34,199.723-45.203,135.66-91.913c-16.002-11.67-37.399-13.687-53.35-26.613c-16.545-13.418-25.676-28.673-49.506-31.268
		c-8.824-0.961-19.145,2.066-28.053,2.556c-8.187,0.449-19.672-2.29-26.607-1.521c-20.692,2.291-27.744,14.179-26.766,35.06
		C455.045,342.098,480.116,411.854,502.385,428.515z"/>
	<path style="fill:#FFFFFF;stroke:#231F20;stroke-width:2;stroke-miterlimit:10;" d="M545.694,295.593
		c70.034,36.271-13.002,77.823-48.955,35.677C468.887,298.592,519.763,282.173,545.694,295.593z"/>
	<path style="fill:#FFFFFF;stroke:#231F20;stroke-width:2;stroke-miterlimit:10;" d="M612.126,368.023
		c0,0-100.574,33.211-142.785-38.198c0,0,6.186,15.322,12.44,34.463c6.255,19.157,12.584,42.129,30.666,46.292
		c18.024,4.154,42.161-13.413,62.522-25.045C595.467,373.826,612.126,368.023,612.126,368.023z"/>
	<path style="fill:#FFFFFF;stroke:#231F20;stroke-width:2;stroke-miterlimit:10;" d="M580.337,245.66
		c11.495-43.326,68.3-60.042,80.323-8.416c5.091,21.843,7.1,59.585-12.498,75.146C610.968,341.927,566.116,299.263,580.337,245.66z"
		/>
	<path style="fill:#FFFFFF;stroke:#231F20;stroke-width:2;stroke-miterlimit:10;" d="M612.979,250.523
		c34.276,1.173,22.889,47.496,2.364,59.68C574.797,334.282,578.662,249.361,612.979,250.523z"/>
	<path style="fill:#FFFFFF;stroke:#231F20;stroke-width:2;stroke-miterlimit:10;" d="M532.243,220.021
		c25.293,6.636,5.675,46.24-12.615,54.749C483.492,291.602,506.918,213.389,532.243,220.021z"/>
	<path style="fill:#231F20;stroke:#231F20;stroke-width:2;stroke-miterlimit:10;" d="M605.471,259.989
		c5.282-4.564,12.407-5.349,20.375,1.829c10.759,9.7,2.548,36.181-13.085,38.258C590.832,302.977,592.933,270.834,605.471,259.989z"
		/>
	<path style="fill:#231F20;stroke:#231F20;stroke-width:2;stroke-miterlimit:10;" d="M524.624,233.217
		c5.922-3.26,12.107-2.765,16.298,5.137c5.657,10.662-10.106,33.394-23.785,32.63C497.95,269.897,510.55,240.97,524.624,233.217z"/>
	<path style="fill:#FFFFFF;stroke:#231F20;stroke-width:2;stroke-miterlimit:10;" d="M612.301,259.32
		c15.072-1.44,17.309,21.925,2.237,23.365C599.475,284.13,597.235,260.764,612.301,259.32z"/>
	<path style="fill:#FFFFFF;stroke:#231F20;stroke-width:2;stroke-miterlimit:10;" d="M527.344,232.384
		c15.065-1.44,17.304,21.925,2.236,23.365C514.509,257.193,512.271,233.828,527.344,232.384z"/>
	<path style="fill:#FFFFFF;stroke:#231F20;stroke-width:2;stroke-miterlimit:10;" d="M718.006,685.652
		c0,0-77.785-48.344-102.029-6.334c0,0-28.699,44.791,108.718,26.916C724.694,706.234,756.958,698.427,718.006,685.652z"/>
	<path style="fill:#FFFFFF;stroke:#231F20;stroke-width:2;stroke-miterlimit:10;" d="M592.819,683.492
		c0,0-26.051-25.797-37.634-48.268c0,0-62.418,13.05-62.168,64.9c0,0,11.588,22.47,81.235,11.088
		C574.253,711.213,599.062,699.401,592.819,683.492z"/>
	<path style="fill:#FFFFFF;stroke:#231F20;stroke-width:2;stroke-miterlimit:10;" d="M539.402,667.387
		c0,0-23.688,23.489-21.674,44.523l-12.803-4.006C504.926,707.904,508.355,663.289,539.402,667.387z"/>
	<g>
		<path style="fill:#FFFFFF;stroke:#231F20;stroke-width:2;stroke-miterlimit:10;" d="M549.16,399.991
			c0,0-24.135,18.819-23.561,49.419c0,0,9.023,20.362-29.48,12.256c-38.508-8.102-21.28-49.839-4.826-74.995
			C491.293,386.672,527.336,369.071,549.16,399.991z"/>
	</g>
	<path style="fill:#FFFFFF;stroke:#231F20;stroke-width:2;stroke-miterlimit:10;" d="M670.472,187.925
		c0.396-3.728,2.218-7.274,6.457-10.578c21.372-16.638,52.179,3.292,69.086,17.123c32.334,26.446,62.199,63.837,66.635,106.592
		c3.739,36.062-20.101,77.204-58.571,81.783c-53.3,6.35-59.158-67.323-62.694-102.955c-2.369-23.872-6.607-47.721-14.906-70.309
		C673.692,202.008,669.758,194.668,670.472,187.925z"/>
	<path style="fill:#FFFFFF;stroke:#231F20;stroke-width:2;stroke-miterlimit:10;" d="M611.009,203.612
		c7.853-5.543,31.18-3.008,35.749,8.978C657.893,241.934,595.713,214.411,611.009,203.612z"/>
	<path style="fill:#FFFFFF;stroke:#231F20;stroke-width:2;stroke-miterlimit:10;" d="M533.585,186.603
		c9.854-5.391,35.138,5.743,17.865,14.39c-9.798,4.905-32.529-4.331-18.578-13.952C533.098,186.884,533.335,186.739,533.585,186.603
		z"/>
</g>
<g id="Layer_3">
	<path style="fill:#FFFFFF;stroke:#000000;stroke-width:2;" d="M204.124,810.334c1.178-1.178,2.522-1.859,4.033-2.044
		c1.509-0.183,2.89,0.019,4.144,0.608c1.252,0.59,2.228,1.529,2.928,2.816c0.699,1.291,0.865,2.818,0.498,4.586
		c-0.442,1.768-1.29,3.408-2.542,4.918c-1.253,1.51-2.505,2.892-3.757,4.143c-2.873,3.021-6.06,5.25-9.558,6.686
		c-3.5,1.436-7.036,2.117-10.608,2.045c-3.574-0.074-7.072-0.922-10.497-2.543s-6.502-4.049-9.227-7.292
		c-1.621-1.915-2.983-3.94-4.088-6.077c-1.105-2.136-1.953-4.382-2.542-6.74c-0.884-3.462-1.29-7.072-1.215-10.829
		c0.072-3.757,0.663-7.403,1.768-10.938c1.105-3.537,2.669-6.869,4.696-10c2.025-3.131,4.512-5.802,7.458-8.012
		c2.136-1.619,4.291-3.02,6.464-4.199c2.172-1.178,4.475-2.282,6.906-3.314c1.398-0.589,2.835-1.16,4.309-1.713
		c1.473-0.553,2.983-0.976,4.53-1.271c1.547-0.294,3.094-0.404,4.641-0.331c1.547,0.074,3.056,0.405,4.53,0.994
		c1.031,0.441,2.062,1.049,3.094,1.822c1.03,0.774,1.989,1.658,2.873,2.652c0.884,0.994,1.658,2.045,2.321,3.149
		c0.663,1.104,1.141,2.174,1.436,3.204c0.221,0.959,0.276,1.934,0.166,2.929c-0.11,0.994-0.406,1.897-0.884,2.707
		c-0.48,0.812-1.124,1.491-1.934,2.044c-0.812,0.553-1.731,0.903-2.762,1.05c-1.695,0.222-3.002,0.038-3.923-0.552
		c-0.922-0.59-1.657-1.326-2.21-2.211c-0.552-0.884-1.087-1.748-1.602-2.596c-0.516-0.847-1.253-1.454-2.21-1.824
		c-0.59,0-1.033,0.039-1.326,0.111c-2.505,0.662-5.027,1.565-7.569,2.707c-2.542,1.143-4.9,2.523-7.072,4.144
		c-2.174,1.621-4.071,3.499-5.691,5.636c-1.621,2.137-2.8,4.529-3.536,7.182c-0.884,3.168-1.215,6.373-0.995,9.613
		c0.221,3.242,1.105,6.299,2.652,9.172c0.884,1.695,2.062,3.168,3.536,4.42c1.473,1.253,3.094,2.192,4.862,2.817
		c1.768,0.626,3.572,0.848,5.415,0.663c1.84-0.184,3.608-0.829,5.304-1.934c1.473-1.031,2.799-2.302,3.978-3.812
		C202.097,813.41,203.166,811.881,204.124,810.334z"/>
	<path style="fill:#FFFFFF;stroke:#000000;stroke-width:2;" d="M271.968,824.92c0.589,2.137,0.479,3.905-0.332,5.305
		c-0.812,1.398-1.934,2.336-3.37,2.816c-1.437,0.479-3.002,0.424-4.696-0.166c-1.696-0.59-3.168-1.768-4.42-3.535
		c-2.063,1.547-4.071,2.633-6.022,3.26c-1.953,0.625-4.182,0.975-6.685,1.049c-3.757,0.146-7.11-0.275-10.055-1.27
		c-2.947-0.994-5.433-2.486-7.458-4.476c-2.027-1.989-3.519-4.476-4.475-7.458c-0.958-2.984-1.29-6.427-0.995-10.332
		c0.147-1.619,0.423-3.205,0.829-4.752c0.404-1.547,0.865-3.055,1.381-4.529c0.589-1.62,1.417-3.352,2.486-5.193
		c1.067-1.841,2.155-3.426,3.26-4.752c3.978-4.861,8.95-8.359,14.917-10.497c1.031-0.368,2.431-0.699,4.199-0.995
		c1.768-0.293,3.553-0.422,5.359-0.387c1.804,0.039,3.536,0.277,5.193,0.719c1.657,0.441,2.89,1.215,3.702,2.32
		c0.663,0.885,1.141,1.658,1.437,2.32c0.293,0.663,0.459,1.364,0.497,2.1c0.036,0.737,0.036,1.529,0,2.375
		c-0.038,0.849-0.055,1.898-0.055,3.15c0,2.062-0.019,4.07-0.055,6.021c-0.038,1.953-0.019,3.923,0.055,5.912
		c0,0.662,0,1.529,0,2.596c0,1.069,0.036,2.193,0.11,3.371c0.073,1.179,0.166,2.303,0.276,3.369c0.11,1.069,0.276,1.935,0.497,2.598
		L271.968,824.92z"/>
	<path style="fill:#FFFFFF;stroke:#000000;stroke-width:2;" d="M248.543,819.947c0.81-0.514,1.73-1.086,2.762-1.713
		c1.031-0.625,1.951-1.343,2.763-2.154c-0.663-3.904-1.05-7.807-1.16-11.713c-0.111-3.903-0.093-7.846,0.055-11.823
		c-3.315,0.591-6.298,2.027-8.95,4.31c-2.652,2.284-4.494,4.973-5.525,8.066c-0.442,1.254-0.812,2.541-1.105,3.867
		c-0.295,1.326-0.406,2.615-0.332,3.867c0.072,1.695,0.515,3.113,1.326,4.254c0.81,1.144,1.785,2.009,2.928,2.598
		c1.142,0.59,2.357,0.922,3.646,0.994C246.24,820.574,247.438,820.39,248.543,819.947z"/>
	<path style="fill:#FFFFFF;stroke:#000000;stroke-width:2;" d="M323.79,826.908c-0.221,1.843-0.903,3.352-2.044,4.531
		c-1.143,1.178-2.431,1.914-3.867,2.209c-1.437,0.295-2.818,0.111-4.144-0.553c-1.326-0.662-2.284-1.951-2.873-3.866
		c-0.663-2.062-0.922-4.216-0.774-6.464c0.147-2.246,0.221-4.327,0.221-6.244c0-3.978,0.017-7.936,0.055-11.878
		c0.036-3.94-0.129-7.9-0.497-11.878c-0.074-0.146-0.148-0.277-0.221-0.387c-0.074-0.111-0.221-0.277-0.442-0.498
		c-1.695-0.441-3.5-0.331-5.415,0.332c-1.916,0.662-3.536,1.51-4.862,2.541c-1.179,0.959-2.339,2.266-3.48,3.923
		c-1.143,1.657-1.713,3.26-1.713,4.807v15.249c0,1.179,0.037,2.469,0.111,3.867c0.072,1.4,0.017,2.762-0.166,4.088
		c-0.185,1.326-0.607,2.542-1.271,3.646c-0.663,1.105-1.732,1.914-3.205,2.432c-0.812,0.293-1.566,0.404-2.265,0.33
		c-0.701-0.074-1.456-0.258-2.265-0.551c-1.326-0.443-2.284-1.199-2.873-2.266c-0.59-1.067-0.995-2.211-1.215-3.426
		c-0.221-1.215-0.314-2.393-0.276-3.535c0.036-1.143,0.055-2.045,0.055-2.708c0-1.693-0.019-4.144-0.055-7.349
		c-0.038-3.203-0.055-6.574-0.055-10.109c0-3.536,0-6.906,0-10.111c0-3.204,0-5.652,0-7.348c0-1.619,0.478-2.965,1.437-4.033
		c0.957-1.066,2.081-1.768,3.37-2.1c1.288-0.331,2.652-0.257,4.088,0.221c1.437,0.48,2.633,1.456,3.591,2.929
		c2.945-1.915,6.188-3.204,9.724-3.868c3.536-0.662,6.868-0.552,10,0.332c3.13,0.885,5.746,2.541,7.845,4.973
		c2.1,2.431,3.186,5.783,3.26,10.055c0,0.148,0.036,0.591,0.11,1.326c0.073,0.737,0.11,1.768,0.11,3.094V826.908z"/>
	<path style="fill:#FFFFFF;stroke:#000000;stroke-width:2;" d="M335.059,763.814c0.293-2.725,1.233-4.732,2.818-6.021
		c1.583-1.288,3.26-1.915,5.028-1.879c1.768,0.038,3.406,0.719,4.917,2.045c1.509,1.326,2.301,3.204,2.375,5.635
		c0.147,2.506-0.497,4.439-1.934,5.801c-1.437,1.364-3.077,2.138-4.917,2.32c-1.842,0.186-3.574-0.312-5.193-1.491
		c-1.622-1.177-2.616-3.056-2.983-5.636L335.059,763.814z"/>
	<path style="fill:#FFFFFF;stroke:#000000;stroke-width:2;" d="M349.645,826.688c-0.148,1.475-0.663,2.781-1.547,3.924
		c-0.884,1.141-1.897,1.969-3.039,2.484c-1.143,0.516-2.375,0.625-3.702,0.332c-1.326-0.295-2.505-1.105-3.536-2.43
		c-0.591-0.738-1.014-1.564-1.271-2.486c-0.259-0.921-0.424-1.879-0.497-2.873c-0.074-0.995-0.093-1.99-0.055-2.984
		c0.036-0.994,0.055-1.896,0.055-2.707c-0.074-4.346-0.093-8.654-0.055-12.928c0.036-4.271,0.017-8.581-0.055-12.928
		c0-1.769-0.111-3.554-0.332-5.359c-0.221-1.805-0.11-3.592,0.332-5.359c0.368-1.326,1.012-2.467,1.934-3.426
		c0.92-0.956,1.951-1.619,3.094-1.988c1.142-0.368,2.321-0.404,3.536-0.111c1.215,0.295,2.265,1.069,3.149,2.32
		c1.178,1.475,1.768,2.929,1.768,4.365s0,3.188,0,5.248c0,2.506,0,5.011,0,7.514c0,2.506,0.036,4.973,0.11,7.404
		c0.073,3.535,0.111,7.071,0.111,10.607c0,3.535,0,7.072,0,10.607V826.688z"/>
	<path style="fill:#FFFFFF;stroke:#000000;stroke-width:2;" d="M359.258,822.379c-0.442-1.252-0.626-2.486-0.552-3.702
		c0.072-1.216,0.387-2.32,0.939-3.315c0.553-0.994,1.343-1.768,2.376-2.32c1.031-0.553,2.282-0.754,3.757-0.607
		c0.81,0.074,1.547,0.295,2.21,0.663c0.663,0.37,1.271,0.812,1.823,1.326c0.552,0.517,1.105,1.068,1.657,1.657
		c0.553,0.59,1.123,1.105,1.713,1.547c1.251,0.959,2.578,1.658,3.978,2.1c1.398,0.441,2.873,0.773,4.42,0.994
		c1.03,0,1.859-0.257,2.486-0.773c0.625-0.514,1.05-1.141,1.271-1.879c0.221-0.734,0.276-1.527,0.166-2.375
		c-0.11-0.846-0.387-1.527-0.829-2.045c-1.253-1.251-2.781-2.061-4.585-2.43c-1.806-0.368-3.481-0.811-5.028-1.326
		c-2.21-0.736-4.384-1.676-6.52-2.818c-2.137-1.141-3.867-2.707-5.193-4.695c-1.4-2.062-2.229-4.254-2.486-6.575
		c-0.259-2.32-0.074-4.585,0.552-6.796c0.625-2.209,1.675-4.234,3.149-6.076c1.473-1.842,3.24-3.352,5.304-4.531
		c1.547-0.884,3.241-1.453,5.083-1.713c1.84-0.257,3.702-0.312,5.58-0.166c1.878,0.148,3.738,0.498,5.58,1.051
		c1.84,0.553,3.536,1.16,5.083,1.822c1.768,0.812,3.094,1.953,3.978,3.426c0.884,1.475,1.307,2.967,1.271,4.475
		c-0.038,1.512-0.553,2.818-1.547,3.924c-0.994,1.104-2.45,1.656-4.364,1.656c-1.179,0-2.248-0.201-3.205-0.607
		c-0.958-0.404-1.953-0.791-2.983-1.16c-1.326-0.514-2.762-0.865-4.31-1.049c-1.547-0.184-2.8-0.092-3.757,0.275
		c-0.295,0.074-0.626,0.314-0.994,0.719c-0.37,0.405-0.646,0.902-0.829,1.491c-0.185,0.591-0.221,1.179-0.11,1.769
		s0.497,1.068,1.16,1.436c1.768,0.959,3.646,1.695,5.635,2.211c1.989,0.516,3.94,1.104,5.856,1.768
		c1.915,0.663,3.702,1.511,5.359,2.541c1.657,1.033,3.039,2.506,4.144,4.42c1.619,2.801,2.448,5.729,2.486,8.785
		c0.036,3.057-0.572,5.911-1.823,8.562c-1.253,2.652-3.094,4.918-5.525,6.797c-2.431,1.877-5.268,3-8.508,3.369
		c-2.284,0.221-4.531,0.092-6.74-0.387c-2.21-0.48-4.348-1.254-6.409-2.32c-2.063-1.068-3.978-2.338-5.746-3.812
		c-1.768-1.473-3.315-3.02-4.641-4.641L359.258,822.379z"/>
	<path style="fill:#FFFFFF;stroke:#000000;stroke-width:2;" d="M468.538,831.107c-0.958,1.178-2.063,1.988-3.315,2.432
		c-1.253,0.441-2.542,0.441-3.867,0c-1.326-0.443-2.431-1.438-3.315-2.984c-0.37-0.59-0.663-1.215-0.884-1.878
		c-0.221-0.663-0.331-1.326-0.331-1.989v-29.061c-1.4,0-2.671-0.387-3.812-1.16c-1.143-0.773-1.989-1.73-2.542-2.873
		c-0.552-1.141-0.756-2.356-0.607-3.646c0.146-1.287,0.735-2.486,1.768-3.591c0.736-0.81,1.528-1.343,2.376-1.603
		c0.846-0.257,1.749-0.423,2.707-0.497c-0.074-2.282-0.129-4.53-0.166-6.74c-0.038-2.21,0.127-4.42,0.497-6.63
		c0.442-3.462,1.473-6.408,3.094-8.84c1.62-2.431,3.627-4.31,6.022-5.635c2.393-1.326,5.064-2.1,8.011-2.32
		c2.946-0.222,6.003,0.221,9.171,1.325c1.326,0.442,2.597,0.995,3.812,1.657c1.216,0.663,2.302,1.512,3.26,2.542
		c0.663,0.737,1.141,1.603,1.437,2.597c0.293,0.994,0.349,1.988,0.166,2.983c-0.185,0.994-0.553,1.916-1.105,2.763
		c-0.553,0.848-1.345,1.491-2.376,1.934c-1.4,0.59-2.781,0.736-4.144,0.441c-1.364-0.293-2.707-0.773-4.033-1.436
		c-0.812-0.294-1.585-0.59-2.32-0.885c-0.737-0.293-1.511-0.514-2.32-0.663c-0.812-0.146-1.547-0.036-2.21,0.331
		c-0.663,0.37-1.235,0.867-1.713,1.492c-0.48,0.627-0.848,1.326-1.105,2.1c-0.259,0.773-0.387,1.529-0.387,2.266
		c-0.074,1.695-0.093,3.408-0.055,5.138c0.036,1.731,0.055,3.444,0.055,5.138c1.105-0.072,2.282-0.146,3.536-0.221
		c1.252-0.072,2.486-0.11,3.702-0.11c1.216,0,2.338,0.038,3.371,0.11c1.03,0.074,1.84,0.221,2.431,0.441
		c1.178,0.443,2.136,1.125,2.873,2.045c0.735,0.922,1.215,1.916,1.437,2.983c0.221,1.069,0.127,2.155-0.276,3.26
		c-0.406,1.104-1.124,2.063-2.155,2.873c-0.958,0.737-2.063,1.253-3.315,1.547c-1.253,0.295-2.579,0.497-3.978,0.607
		c-1.4,0.11-2.762,0.149-4.088,0.11c-1.326-0.036-2.505-0.055-3.536-0.055v29.502C470.085,828.529,469.495,829.928,468.538,831.107z
		"/>
	<path style="fill:#FFFFFF;stroke:#000000;stroke-width:2;" d="M539.035,824.92c0.588,2.137,0.479,3.905-0.332,5.305
		c-0.811,1.398-1.934,2.336-3.369,2.816c-1.438,0.479-3.002,0.424-4.697-0.166s-3.168-1.768-4.42-3.535
		c-2.062,1.547-4.07,2.633-6.021,3.26c-1.953,0.625-4.182,0.975-6.686,1.049c-3.756,0.146-7.109-0.275-10.055-1.27
		c-2.947-0.994-5.433-2.486-7.458-4.476c-2.027-1.989-3.519-4.476-4.475-7.458c-0.958-2.984-1.29-6.427-0.995-10.332
		c0.147-1.619,0.423-3.205,0.829-4.752c0.404-1.547,0.865-3.055,1.381-4.529c0.589-1.62,1.417-3.352,2.486-5.193
		c1.067-1.841,2.155-3.426,3.26-4.752c3.978-4.861,8.951-8.359,14.917-10.497c1.03-0.368,2.431-0.699,4.199-0.995
		c1.768-0.293,3.553-0.422,5.357-0.387c1.805,0.039,3.537,0.277,5.193,0.719c1.658,0.441,2.891,1.215,3.703,2.32
		c0.662,0.885,1.141,1.658,1.436,2.32c0.293,0.663,0.459,1.364,0.498,2.1c0.035,0.737,0.035,1.529,0,2.375
		c-0.039,0.849-0.057,1.898-0.057,3.15c0,2.062-0.018,4.07-0.055,6.021c-0.037,1.953-0.02,3.923,0.055,5.912
		c0,0.662,0,1.529,0,2.596c0,1.069,0.037,2.193,0.111,3.371c0.072,1.179,0.166,2.303,0.275,3.369
		c0.111,1.069,0.277,1.935,0.498,2.598L539.035,824.92z"/>
	<path style="fill:#FFFFFF;stroke:#000000;stroke-width:2;" d="M515.609,819.947c0.811-0.514,1.73-1.086,2.764-1.713
		c1.029-0.625,1.949-1.343,2.762-2.154c-0.662-3.904-1.049-7.807-1.16-11.713c-0.111-3.903-0.094-7.846,0.055-11.823
		c-3.314,0.591-6.298,2.027-8.949,4.31c-2.652,2.284-4.494,4.973-5.525,8.066c-0.441,1.254-0.812,2.541-1.105,3.867
		c-0.295,1.326-0.405,2.615-0.331,3.867c0.072,1.695,0.515,3.113,1.326,4.254c0.81,1.144,1.785,2.009,2.928,2.598
		c1.142,0.59,2.356,0.922,3.646,0.994C513.307,820.574,514.505,820.39,515.609,819.947z"/>
	<path style="fill:#FFFFFF;stroke:#000000;stroke-width:2;" d="M573.619,798.18v-1.547c-0.663-1.693-1.731-2.891-3.204-3.592
		c-1.475-0.699-3.058-1.122-4.752-1.271c-0.958,0.296-1.731,0.627-2.32,0.995c-0.591,0.369-1.104,0.773-1.547,1.215
		c-0.442,0.442-0.848,0.939-1.216,1.492c-0.369,0.553-0.812,1.123-1.325,1.713v28.949c0,2.285-0.683,4.07-2.045,5.359
		c-1.363,1.289-2.873,2.025-4.53,2.211c-1.657,0.182-3.187-0.223-4.585-1.217c-1.4-0.994-2.138-2.67-2.21-5.027
		c-0.149-5.672-0.204-12.116-0.166-19.336c0.036-7.219,0.055-15.285,0.055-24.199c0-1.547,0.46-2.836,1.382-3.867
		c0.92-1.031,2.025-1.73,3.314-2.1c1.288-0.368,2.614-0.35,3.979,0.055c1.361,0.406,2.485,1.234,3.37,2.486
		c4.124-2.062,8.231-2.707,12.32-1.934c4.088,0.773,7.79,2.707,11.104,5.801c1.473-1.473,3.057-2.799,4.752-3.978
		c1.693-1.178,3.535-1.951,5.524-2.321c2.282-0.367,4.586-0.275,6.906,0.277s4.475,1.455,6.464,2.707
		c1.989,1.254,3.738,2.801,5.249,4.641c1.509,1.842,2.633,3.831,3.37,5.967c0.367,1.475,0.553,2.801,0.553,3.979v30.055
		c0,0.884-0.111,1.731-0.332,2.541c-0.663,1.916-1.713,3.26-3.149,4.033s-2.91,1.051-4.42,0.828
		c-1.511-0.221-2.817-0.922-3.922-2.098c-1.105-1.18-1.658-2.764-1.658-4.752v-29.725c-0.663-1.768-1.621-3.055-2.873-3.867
		c-1.253-0.81-2.541-1.178-3.867-1.104c-1.326,0.074-2.597,0.552-3.812,1.437c-1.216,0.884-2.193,2.1-2.929,3.646v28.95
		c0,1.989-0.646,3.646-1.934,4.972c-1.29,1.326-2.707,2.172-4.254,2.541s-3.003,0.223-4.365-0.441
		c-1.363-0.662-2.154-1.988-2.375-3.978L573.619,798.18z"/>
	<path style="fill:#FFFFFF;stroke:#000000;stroke-width:2;" d="M624.557,763.814c0.294-2.725,1.232-4.732,2.817-6.021
		c1.584-1.288,3.26-1.915,5.028-1.879c1.768,0.038,3.406,0.719,4.917,2.045c1.509,1.326,2.302,3.204,2.376,5.635
		c0.146,2.506-0.498,4.439-1.935,5.801c-1.436,1.364-3.076,2.138-4.917,2.32c-1.842,0.186-3.573-0.312-5.193-1.491
		c-1.621-1.177-2.615-3.056-2.983-5.636L624.557,763.814z"/>
	<path style="fill:#FFFFFF;stroke:#000000;stroke-width:2;" d="M639.143,826.688c-0.148,1.475-0.663,2.781-1.547,3.924
		c-0.884,1.141-1.897,1.969-3.039,2.484c-1.143,0.516-2.376,0.625-3.701,0.332c-1.326-0.295-2.506-1.105-3.536-2.43
		c-0.591-0.738-1.014-1.564-1.271-2.486c-0.26-0.921-0.425-1.879-0.497-2.873c-0.075-0.995-0.094-1.99-0.056-2.984
		c0.036-0.994,0.056-1.896,0.056-2.707c-0.075-4.346-0.094-8.654-0.056-12.928c0.036-4.271,0.018-8.581-0.056-12.928
		c0-1.769-0.11-3.554-0.331-5.359c-0.221-1.805-0.11-3.592,0.331-5.359c0.368-1.326,1.012-2.467,1.934-3.426
		c0.921-0.956,1.951-1.619,3.095-1.988c1.141-0.368,2.32-0.404,3.535-0.111c1.216,0.295,2.266,1.069,3.149,2.32
		c1.178,1.475,1.769,2.929,1.769,4.365s0,3.188,0,5.248c0,2.506,0,5.011,0,7.514c0,2.506,0.036,4.973,0.11,7.404
		c0.072,3.535,0.11,7.071,0.11,10.607c0,3.535,0,7.072,0,10.607V826.688z"/>
	<path style="fill:#FFFFFF;stroke:#000000;stroke-width:2;" d="M667.761,822.932c0.81,0.736,1.491,1.676,2.044,2.816
		c0.553,1.144,0.846,2.285,0.884,3.426c0.036,1.141-0.221,2.211-0.773,3.205s-1.529,1.748-2.928,2.266
		c-1.105,0.367-2.32,0.441-3.646,0.221s-2.635-0.664-3.923-1.326c-1.29-0.664-2.431-1.455-3.426-2.377
		c-0.994-0.922-1.712-1.933-2.154-3.037c-0.148-0.369-0.259-0.791-0.331-1.271c-0.074-0.479-0.111-0.901-0.111-1.271v-61.326
		c0-1.694,0.645-3.13,1.935-4.31c1.287-1.178,2.707-1.879,4.254-2.1c0.735-0.072,1.527,0.039,2.375,0.332
		c0.847,0.295,1.639,0.719,2.376,1.271c0.735,0.553,1.344,1.198,1.823,1.934c0.479,0.737,0.719,1.511,0.719,2.321
		c0,1.916,0,4.457,0,7.623c0,3.169,0.017,6.631,0.055,10.387c0.036,3.758,0.056,7.645,0.056,11.658c0,4.016-0.02,7.864-0.056,11.547
		c-0.038,3.685-0.055,7.055-0.055,10.11c0,3.058-0.038,5.508-0.111,7.349L667.761,822.932z"/>
	<path style="fill:#FFFFFF;stroke:#000000;stroke-width:2;" d="M679.584,763.814c0.294-2.725,1.232-4.732,2.817-6.021
		c1.584-1.288,3.26-1.915,5.028-1.879c1.768,0.038,3.406,0.719,4.917,2.045c1.509,1.326,2.302,3.204,2.376,5.635
		c0.146,2.506-0.498,4.439-1.935,5.801c-1.436,1.364-3.076,2.138-4.917,2.32c-1.842,0.186-3.573-0.312-5.193-1.491
		c-1.621-1.177-2.615-3.056-2.983-5.636L679.584,763.814z"/>
	<path style="fill:#FFFFFF;stroke:#000000;stroke-width:2;" d="M694.17,826.688c-0.148,1.475-0.663,2.781-1.547,3.924
		c-0.884,1.141-1.897,1.969-3.039,2.484c-1.143,0.516-2.376,0.625-3.701,0.332c-1.326-0.295-2.506-1.105-3.536-2.43
		c-0.591-0.738-1.014-1.564-1.271-2.486c-0.26-0.921-0.425-1.879-0.497-2.873c-0.075-0.995-0.094-1.99-0.056-2.984
		c0.036-0.994,0.056-1.896,0.056-2.707c-0.075-4.346-0.094-8.654-0.056-12.928c0.036-4.271,0.018-8.581-0.056-12.928
		c0-1.769-0.11-3.554-0.331-5.359c-0.221-1.805-0.11-3.592,0.331-5.359c0.368-1.326,1.012-2.467,1.934-3.426
		c0.921-0.956,1.951-1.619,3.095-1.988c1.141-0.368,2.32-0.404,3.535-0.111c1.216,0.295,2.266,1.069,3.149,2.32
		c1.178,1.475,1.769,2.929,1.769,4.365s0,3.188,0,5.248c0,2.506,0,5.011,0,7.514c0,2.506,0.036,4.973,0.11,7.404
		c0.072,3.535,0.11,7.071,0.11,10.607c0,3.535,0,7.072,0,10.607V826.688z"/>
	<path style="fill:#FFFFFF;stroke:#000000;stroke-width:2;" d="M752.292,824.92c0.588,2.137,0.478,3.905-0.332,5.305
		c-0.812,1.398-1.934,2.336-3.37,2.816c-1.437,0.479-3.002,0.424-4.696-0.166c-1.695-0.59-3.168-1.768-4.42-3.535
		c-2.062,1.547-4.071,2.633-6.021,3.26c-1.953,0.625-4.182,0.975-6.686,1.049c-3.757,0.146-7.109-0.275-10.055-1.27
		c-2.947-0.994-5.434-2.486-7.459-4.476c-2.027-1.989-3.519-4.476-4.476-7.458c-0.958-2.984-1.289-6.427-0.994-10.332
		c0.146-1.619,0.423-3.205,0.829-4.752c0.403-1.547,0.864-3.055,1.381-4.529c0.589-1.62,1.418-3.352,2.486-5.193
		c1.067-1.841,2.154-3.426,3.26-4.752c3.978-4.861,8.95-8.359,14.917-10.497c1.03-0.368,2.431-0.699,4.199-0.995
		c1.768-0.293,3.553-0.422,5.358-0.387c1.805,0.039,3.536,0.277,5.193,0.719c1.658,0.441,2.891,1.215,3.702,2.32
		c0.663,0.885,1.142,1.658,1.437,2.32c0.293,0.663,0.459,1.364,0.497,2.1c0.036,0.737,0.036,1.529,0,2.375
		c-0.038,0.849-0.056,1.898-0.056,3.15c0,2.062-0.019,4.07-0.055,6.021c-0.038,1.953-0.02,3.923,0.055,5.912
		c0,0.662,0,1.529,0,2.596c0,1.069,0.037,2.193,0.111,3.371c0.072,1.179,0.165,2.303,0.275,3.369
		c0.111,1.069,0.276,1.935,0.498,2.598L752.292,824.92z"/>
	<path style="fill:#FFFFFF;stroke:#000000;stroke-width:2;" d="M728.866,819.947c0.81-0.514,1.729-1.086,2.763-1.713
		c1.03-0.625,1.95-1.343,2.762-2.154c-0.662-3.904-1.049-7.807-1.16-11.713c-0.11-3.903-0.093-7.846,0.056-11.823
		c-3.315,0.591-6.299,2.027-8.95,4.31c-2.652,2.284-4.494,4.973-5.525,8.066c-0.441,1.254-0.812,2.541-1.104,3.867
		c-0.295,1.326-0.406,2.615-0.332,3.867c0.073,1.695,0.515,3.113,1.326,4.254c0.81,1.144,1.785,2.009,2.929,2.598
		c1.141,0.59,2.356,0.922,3.646,0.994C726.563,820.574,727.761,820.39,728.866,819.947z"/>
	<path style="fill:#FFFFFF;stroke:#000000;stroke-width:2;" d="M761.684,795.693c0.072-0.479,0.036-1.344-0.11-2.597
		c-1.18-0.663-2.1-1.509-2.763-2.542c-0.663-1.03-1.05-2.135-1.16-3.314c-0.11-1.178,0.11-2.301,0.663-3.37
		c0.553-1.067,1.453-1.97,2.707-2.707c1.693-0.956,3.553-1.142,5.58-0.553c2.025,0.591,3.774,1.475,5.249,2.651
		c1.84-1.398,3.757-2.577,5.745-3.535c1.989-0.957,4.015-1.602,6.078-1.934c2.062-0.332,4.16-0.276,6.298,0.166
		c2.136,0.441,4.235,1.363,6.299,2.762c1.03,0.663,1.988,1.492,2.872,2.486c0.885,0.994,1.437,2.119,1.658,3.37
		c0.367,1.843,0.221,3.444-0.442,4.807c-0.663,1.364-1.585,2.358-2.763,2.983c-1.179,0.627-2.505,0.812-3.978,0.553
		c-1.475-0.258-2.873-1.05-4.199-2.376c-0.441-0.294-0.756-0.533-0.938-0.718c-0.186-0.184-0.572-0.424-1.161-0.719
		c-1.179-0.293-2.339-0.221-3.48,0.221c-1.143,0.442-2.248,1.051-3.314,1.824c-1.069,0.773-2.063,1.621-2.983,2.541
		c-0.922,0.922-1.751,1.75-2.486,2.486v28.177c0,1.104-0.221,2.173-0.663,3.204c-0.663,1.693-1.713,2.873-3.149,3.535
		c-1.437,0.664-2.873,0.848-4.31,0.553c-1.436-0.295-2.689-1.031-3.757-2.209c-1.068-1.18-1.602-2.688-1.602-4.531V795.97
		C761.573,796.265,761.609,796.174,761.684,795.693z"/>
	<path style="fill:#FFFFFF;stroke:#000000;stroke-width:2;" d="M807.537,763.814c0.294-2.725,1.232-4.732,2.817-6.021
		c1.584-1.288,3.26-1.915,5.028-1.879c1.768,0.038,3.406,0.719,4.917,2.045c1.509,1.326,2.302,3.204,2.376,5.635
		c0.146,2.506-0.498,4.439-1.935,5.801c-1.436,1.364-3.076,2.138-4.917,2.32c-1.842,0.186-3.573-0.312-5.193-1.491
		c-1.621-1.177-2.615-3.056-2.983-5.636L807.537,763.814z"/>
	<path style="fill:#FFFFFF;stroke:#000000;stroke-width:2;" d="M822.123,826.688c-0.148,1.475-0.663,2.781-1.547,3.924
		c-0.884,1.141-1.897,1.969-3.039,2.484c-1.143,0.516-2.376,0.625-3.701,0.332c-1.326-0.295-2.506-1.105-3.536-2.43
		c-0.591-0.738-1.014-1.564-1.271-2.486c-0.26-0.921-0.425-1.879-0.497-2.873c-0.075-0.995-0.094-1.99-0.056-2.984
		c0.036-0.994,0.056-1.896,0.056-2.707c-0.075-4.346-0.094-8.654-0.056-12.928c0.036-4.271,0.018-8.581-0.056-12.928
		c0-1.769-0.11-3.554-0.331-5.359c-0.221-1.805-0.11-3.592,0.331-5.359c0.368-1.326,1.012-2.467,1.934-3.426
		c0.921-0.956,1.951-1.619,3.095-1.988c1.141-0.368,2.32-0.404,3.535-0.111c1.216,0.295,2.266,1.069,3.149,2.32
		c1.178,1.475,1.769,2.929,1.769,4.365s0,3.188,0,5.248c0,2.506,0,5.011,0,7.514c0,2.506,0.036,4.973,0.11,7.404
		c0.072,3.535,0.11,7.071,0.11,10.607c0,3.535,0,7.072,0,10.607V826.688z"/>
	<path style="fill:#FFFFFF;stroke:#000000;stroke-width:2;" d="M831.735,822.379c-0.441-1.252-0.627-2.486-0.553-3.702
		c0.073-1.216,0.387-2.32,0.939-3.315c0.553-0.994,1.344-1.768,2.376-2.32c1.03-0.553,2.282-0.754,3.757-0.607
		c0.81,0.074,1.547,0.295,2.21,0.663c0.663,0.37,1.271,0.812,1.823,1.326c0.553,0.517,1.104,1.068,1.657,1.657
		c0.553,0.59,1.122,1.105,1.713,1.547c1.252,0.959,2.577,1.658,3.978,2.1c1.398,0.441,2.873,0.773,4.42,0.994
		c1.031,0,1.859-0.257,2.486-0.773c0.625-0.514,1.05-1.141,1.271-1.879c0.222-0.734,0.276-1.527,0.166-2.375
		c-0.11-0.846-0.387-1.527-0.829-2.045c-1.253-1.251-2.781-2.061-4.585-2.43c-1.807-0.368-3.48-0.811-5.028-1.326
		c-2.21-0.736-4.383-1.676-6.519-2.818c-2.138-1.141-3.868-2.707-5.193-4.695c-1.4-2.062-2.229-4.254-2.486-6.575
		c-0.259-2.32-0.074-4.585,0.553-6.796c0.625-2.209,1.674-4.234,3.148-6.076c1.473-1.842,3.241-3.352,5.304-4.531
		c1.548-0.884,3.241-1.453,5.083-1.713c1.841-0.257,3.702-0.312,5.58-0.166c1.879,0.148,3.738,0.498,5.58,1.051
		c1.841,0.553,3.536,1.16,5.083,1.822c1.769,0.812,3.094,1.953,3.979,3.426c0.884,1.475,1.307,2.967,1.271,4.475
		c-0.038,1.512-0.553,2.818-1.547,3.924c-0.995,1.104-2.45,1.656-4.365,1.656c-1.179,0-2.248-0.201-3.204-0.607
		c-0.958-0.404-1.953-0.791-2.983-1.16c-1.326-0.514-2.763-0.865-4.31-1.049s-2.8-0.092-3.757,0.275
		c-0.295,0.074-0.627,0.314-0.994,0.719c-0.37,0.405-0.646,0.902-0.829,1.491c-0.185,0.591-0.221,1.179-0.11,1.769
		s0.497,1.068,1.16,1.436c1.768,0.959,3.646,1.695,5.636,2.211c1.988,0.516,3.939,1.104,5.856,1.768
		c1.914,0.663,3.701,1.511,5.358,2.541c1.658,1.033,3.039,2.506,4.144,4.42c1.62,2.801,2.448,5.729,2.486,8.785
		c0.036,3.057-0.571,5.911-1.823,8.562c-1.253,2.652-3.094,4.918-5.524,6.797c-2.431,1.877-5.268,3-8.509,3.369
		c-2.284,0.221-4.53,0.092-6.74-0.387c-2.21-0.48-4.347-1.254-6.408-2.32c-2.063-1.068-3.979-2.338-5.746-3.812
		c-1.769-1.473-3.315-3.02-4.641-4.641L831.735,822.379z"/>
	<path style="fill:#FFFFFF;stroke:#000000;stroke-width:2;" d="M278.375,925.832c0.773,1.49,1.049,2.996,0.829,4.516
		c-0.222,1.52-1.216,2.639-2.983,3.357c-1.658,0.607-3.247,0.441-4.765-0.498c-1.521-0.939-2.888-2.211-4.103-3.812
		c-1.216-1.604-2.266-3.287-3.149-5.055c-0.884-1.77-1.547-3.205-1.989-4.309c-2.817-6.52-4.338-13.303-4.558-20.346
		c-0.222-7.045,0.69-13.908,2.734-20.594c0.498-1.713,1.161-3.328,1.989-4.85c0.829-1.518,1.657-3.051,2.486-4.598
		c0.497-0.885,1.119-1.99,1.864-3.316c0.746-1.326,1.616-2.514,2.611-3.562c0.994-1.049,2.084-1.795,3.273-2.238
		c1.188-0.441,2.472-0.248,3.854,0.58c1.326,0.828,2.043,1.811,2.155,2.941c0.11,1.135-0.097,2.295-0.622,3.482
		c-0.526,1.188-1.189,2.334-1.989,3.438c-0.801,1.107-1.45,2.045-1.947,2.818c-0.719,1.271-1.313,2.35-1.782,3.232
		c-0.47,0.885-0.857,1.631-1.16,2.238c-0.304,0.607-0.539,1.146-0.705,1.615c-0.166,0.471-0.304,0.926-0.415,1.367
		c-0.829,2.873-1.437,5.953-1.823,9.24c-0.387,3.287-0.498,6.588-0.332,9.904c0.166,3.314,0.663,6.561,1.492,9.736
		c0.829,3.178,2.043,6.092,3.646,8.744c0.275,0.496,0.634,1.006,1.077,1.533c0.441,0.523,0.842,0.994,1.202,1.408
		c0.358,0.414,0.649,0.746,0.87,0.994c0.22,0.248,0.276,0.318,0.166,0.207L278.375,925.832z"/>
	<path style="fill:#FFFFFF;stroke:#000000;stroke-width:2;" d="M320.061,913.152c0.939,1.604,1.256,3.039,0.953,4.309
		c-0.304,1.271-0.926,2.225-1.865,2.859c-0.94,0.635-2.086,0.883-3.439,0.746c-1.354-0.139-2.666-0.844-3.937-2.113
		c-1.326,0.939-2.708,1.67-4.144,2.195c-1.438,0.525-2.957,0.98-4.558,1.367c-2.486,0.553-4.876,0.512-7.168-0.123
		c-2.293-0.637-4.324-1.672-6.091-3.107c-1.769-1.438-3.205-3.219-4.309-5.346c-1.106-2.127-1.713-4.434-1.823-6.92
		c-0.166-2.762,0.042-5.414,0.622-7.955s1.504-4.861,2.776-6.963c1.271-2.098,2.942-3.895,5.014-5.387
		c2.072-1.49,4.517-2.539,7.334-3.148c1.658-0.332,3.328-0.498,5.014-0.498c1.685,0,3.356,0.139,5.014,0.414
		c-0.056-1.213-0.097-2.609-0.125-4.184c-0.028-1.574-0.042-3.107-0.042-4.6s0.055-2.83,0.166-4.02
		c0.11-1.188,0.249-2.031,0.414-2.527c0.386-0.994,0.98-1.754,1.782-2.279c0.8-0.525,1.644-0.801,2.528-0.828
		c0.883-0.027,1.753,0.193,2.61,0.662c0.856,0.471,1.533,1.174,2.031,2.113c0.11,0.277,0.249,0.539,0.414,0.787
		c0.166,0.248,0.249,0.512,0.249,0.787c0.055,7.238,0.069,14.393,0.042,21.465c-0.028,7.072-0.042,14.227-0.042,21.463
		C319.701,912.654,319.895,912.932,320.061,913.152z"/>
	<path style="fill:#FFFFFF;stroke:#000000;stroke-width:2;" d="M308.542,908.594c0.11-0.166,0.317-0.332,0.622-0.498
		c0.303-0.164,0.456-0.385,0.456-0.662c0-2.32,0-4.6,0-6.838c0-2.236-0.028-4.516-0.083-6.836c-1.326-0.275-2.708-0.441-4.144-0.498
		c-1.437-0.053-2.832,0.084-4.185,0.416c-1.354,0.33-2.598,0.883-3.729,1.656c-1.133,0.775-2.031,1.879-2.693,3.314
		c-0.332,1.051-0.636,2.102-0.912,3.15c-0.277,1.049-0.429,2.072-0.456,3.066c-0.028,0.994,0.096,1.975,0.373,2.941
		c0.276,0.967,0.746,1.893,1.409,2.775c0.22,0.223,0.483,0.443,0.788,0.664c0.303,0.221,0.897,0.607,1.782,1.16
		c2.043,0.166,3.991-0.027,5.842-0.58C305.461,911.273,307.104,910.197,308.542,908.594z"/>
	<path style="fill:#FFFFFF;stroke:#000000;stroke-width:2;" d="M327.602,899.975c0.386-1.602,0.925-3.176,1.616-4.723
		c0.69-1.547,1.533-3.025,2.527-4.434c0.995-1.41,2.113-2.693,3.356-3.854s2.582-2.1,4.02-2.818
		c2.541-1.326,5.097-2.002,7.666-2.031c2.569-0.027,4.958,0.484,7.168,1.533c2.209,1.051,4.088,2.611,5.636,4.684
		c1.546,2.07,2.569,4.545,3.066,7.416c0.276,1.879,0.428,3.662,0.456,5.346c0.027,1.686-0.153,3.439-0.539,5.262
		c-0.553,2.598-1.672,5.18-3.356,7.75c-1.686,2.568-3.702,4.723-6.05,6.463c-2.349,1.74-4.918,2.887-7.707,3.439
		c-2.791,0.553-5.594,0.111-8.412-1.326c-1.271-0.607-2.417-1.312-3.439-2.113c-1.023-0.799-1.947-1.752-2.776-2.859
		c-0.94-1.213-1.671-2.484-2.196-3.811c-0.526-1.326-0.953-2.707-1.285-4.145c-0.387-1.545-0.526-3.107-0.415-4.682
		c0.11-1.574,0.303-3.107,0.581-4.6L327.602,899.975z"/>
	<path style="fill:#FFFFFF;stroke:#000000;stroke-width:2;" d="M337.546,901.715c-0.166,0.885-0.304,1.756-0.415,2.611
		c-0.111,0.857-0.111,1.727,0,2.609c0.166,1.273,0.51,2.434,1.036,3.482c0.524,1.049,1.215,1.879,2.072,2.484
		c0.856,0.609,1.836,0.928,2.942,0.953c1.104,0.029,2.292-0.316,3.563-1.035c1.602-0.939,2.984-2.389,4.144-4.352
		c1.16-1.959,1.877-4.004,2.154-6.131c0.276-2.127,0.055-4.145-0.663-6.051c-0.719-1.906-2.127-3.273-4.227-4.102
		c-1.382,0-2.652,0.262-3.812,0.787c-1.16,0.525-2.169,1.215-3.024,2.072c-0.857,0.857-1.604,1.863-2.238,3.023
		C338.444,899.229,337.932,900.445,337.546,901.715z"/>
	<path style="fill:#FFFFFF;stroke:#000000;stroke-width:2;" d="M389.672,896.08v-1.16c-0.497-1.27-1.298-2.168-2.403-2.693
		c-1.105-0.525-2.293-0.842-3.563-0.953c-0.718,0.221-1.299,0.471-1.74,0.746c-0.443,0.277-0.829,0.58-1.16,0.912
		c-0.332,0.33-0.636,0.703-0.912,1.117c-0.277,0.416-0.608,0.844-0.995,1.285v21.713c0,1.713-0.511,3.053-1.533,4.02
		c-1.023,0.967-2.154,1.52-3.397,1.658c-1.243,0.137-2.391-0.166-3.439-0.912c-1.05-0.746-1.603-2.004-1.657-3.771
		c-0.111-4.254-0.153-9.088-0.125-14.502c0.027-5.414,0.042-11.465,0.042-18.15c0-1.16,0.344-2.125,1.036-2.9
		c0.69-0.771,1.519-1.297,2.486-1.574c0.966-0.275,1.96-0.262,2.983,0.041c1.022,0.305,1.865,0.926,2.528,1.865
		c3.093-1.547,6.174-2.031,9.24-1.449c3.066,0.58,5.843,2.029,8.329,4.35c1.104-1.104,2.292-2.1,3.564-2.982
		c1.27-0.885,2.652-1.465,4.144-1.74c1.712-0.277,3.439-0.209,5.179,0.207c1.741,0.414,3.356,1.092,4.848,2.029
		c1.492,0.941,2.804,2.102,3.937,3.48c1.132,1.383,1.975,2.873,2.528,4.477c0.276,1.105,0.414,2.1,0.414,2.982v22.541
		c0,0.664-0.083,1.299-0.249,1.906c-0.497,1.436-1.285,2.445-2.362,3.025s-2.183,0.787-3.315,0.621
		c-1.133-0.166-2.113-0.691-2.942-1.574c-0.829-0.885-1.243-2.072-1.243-3.564v-22.291c-0.497-1.326-1.216-2.293-2.155-2.902
		c-0.94-0.605-1.906-0.883-2.9-0.828c-0.995,0.057-1.948,0.414-2.859,1.078c-0.912,0.662-1.645,1.574-2.196,2.734v21.713
		c0,1.492-0.484,2.734-1.45,3.729c-0.967,0.994-2.031,1.629-3.191,1.906c-1.16,0.275-2.252,0.166-3.273-0.332
		c-1.023-0.496-1.616-1.49-1.782-2.982L389.672,896.08z"/>
	<path style="fill:#FFFFFF;stroke:#000000;stroke-width:2;" d="M458.208,908.678c1.326-0.332,2.499-0.346,3.522-0.043
		c1.021,0.305,1.809,0.816,2.362,1.533c0.552,0.719,0.8,1.604,0.746,2.652c-0.056,1.051-0.526,2.154-1.409,3.314
		c-0.718,0.941-1.713,1.74-2.983,2.404c-1.271,0.662-2.459,1.188-3.563,1.574c-2.708,0.994-5.276,1.686-7.707,2.072
		c-2.432,0.385-4.711,0.385-6.837,0c-2.127-0.387-4.117-1.189-5.967-2.404c-1.852-1.215-3.578-2.928-5.18-5.137
		c-1.106-1.492-1.92-3.191-2.445-5.098c-0.526-1.906-0.816-3.854-0.87-5.842c-0.056-1.99,0.11-3.949,0.497-5.885
		c0.386-1.934,0.939-3.674,1.658-5.221c0.938-1.934,2.43-3.701,4.475-5.305c2.043-1.602,4.309-2.871,6.795-3.812
		c2.486-0.938,5.027-1.477,7.625-1.615c2.596-0.137,4.889,0.264,6.878,1.201c1.657,0.775,3.079,1.895,4.268,3.357
		c1.187,1.465,2.002,3.053,2.444,4.766c0.442,1.713,0.483,3.438,0.125,5.18c-0.36,1.74-1.257,3.328-2.693,4.764
		c-1.382,1.383-2.9,2.502-4.558,3.357c-1.657,0.857-3.371,1.604-5.138,2.236c-1.769,0.637-3.578,1.176-5.428,1.617
		c-1.852,0.443-3.633,0.939-5.345,1.492c1.16,1.324,2.486,2.168,3.978,2.527s3.052,0.428,4.682,0.207
		c1.629-0.221,3.273-0.676,4.931-1.367c1.657-0.691,3.204-1.451,4.641-2.279L458.208,908.678z"/>
	<path style="fill:#FFFFFF;stroke:#000000;stroke-width:2;" d="M441.467,894.422c-1.272,0.719-2.21,1.617-2.818,2.693
		c-0.608,1.078-1.05,2.584-1.326,4.518c1.436-0.441,3.052-0.912,4.848-1.408c1.795-0.498,3.494-1.023,5.097-1.576
		c1.602-0.551,2.955-1.16,4.061-1.822c1.104-0.664,1.657-1.381,1.657-2.154c0-0.441-0.07-0.871-0.207-1.285
		c-0.139-0.414-0.429-0.705-0.87-0.871c-1.547-0.551-3.149-0.662-4.807-0.33c-1.658,0.33-3.039,0.801-4.144,1.408L441.467,894.422z"
		/>
	<path style="fill:#FFFFFF;stroke:#000000;stroke-width:2;" d="M469.146,914.229c-0.332-0.938-0.47-1.863-0.414-2.775
		c0.054-0.912,0.29-1.74,0.704-2.486c0.415-0.746,1.007-1.326,1.782-1.74c0.773-0.414,1.712-0.566,2.818-0.455
		c0.607,0.055,1.16,0.221,1.657,0.496c0.498,0.277,0.953,0.609,1.368,0.994c0.414,0.389,0.829,0.803,1.243,1.244
		c0.414,0.443,0.841,0.828,1.284,1.16c0.939,0.719,1.934,1.242,2.983,1.574c1.049,0.332,2.155,0.58,3.315,0.746
		c0.773,0,1.395-0.193,1.865-0.58c0.469-0.387,0.788-0.855,0.953-1.408s0.207-1.146,0.125-1.783
		c-0.083-0.635-0.29-1.145-0.622-1.533c-0.94-0.938-2.086-1.545-3.439-1.822c-1.354-0.275-2.61-0.607-3.771-0.994
		c-1.658-0.553-3.288-1.256-4.89-2.113c-1.603-0.857-2.9-2.031-3.895-3.523c-1.05-1.545-1.672-3.189-1.865-4.93
		c-0.194-1.74-0.056-3.439,0.415-5.098c0.469-1.656,1.256-3.176,2.362-4.557c1.104-1.381,2.431-2.514,3.978-3.398
		c1.16-0.664,2.43-1.09,3.812-1.285c1.38-0.193,2.776-0.234,4.185-0.123s2.803,0.371,4.185,0.787
		c1.38,0.414,2.652,0.869,3.812,1.367c1.326,0.607,2.321,1.465,2.983,2.568c0.663,1.105,0.98,2.225,0.953,3.357
		c-0.028,1.133-0.414,2.113-1.16,2.941c-0.746,0.828-1.837,1.242-3.273,1.242c-0.884,0-1.686-0.15-2.403-0.455
		c-0.719-0.303-1.464-0.594-2.238-0.871c-0.994-0.385-2.072-0.648-3.232-0.787c-1.16-0.137-2.1-0.068-2.817,0.207
		c-0.222,0.057-0.47,0.236-0.746,0.539c-0.277,0.305-0.484,0.678-0.622,1.119c-0.139,0.443-0.166,0.885-0.083,1.326
		c0.083,0.443,0.373,0.801,0.871,1.078c1.326,0.717,2.734,1.271,4.227,1.656c1.492,0.387,2.955,0.828,4.392,1.326
		c1.436,0.498,2.776,1.133,4.019,1.906c1.243,0.773,2.279,1.879,3.108,3.314c1.215,2.102,1.836,4.297,1.865,6.588
		c0.027,2.295-0.429,4.434-1.368,6.424c-0.94,1.988-2.32,3.688-4.144,5.096c-1.823,1.41-3.951,2.252-6.381,2.527
		c-1.713,0.166-3.398,0.07-5.056-0.289c-1.657-0.359-3.26-0.939-4.807-1.74c-1.547-0.801-2.983-1.754-4.309-2.859
		c-1.326-1.104-2.486-2.264-3.481-3.48L469.146,914.229z"/>
	<path style="fill:#FFFFFF;stroke:#000000;stroke-width:2;" d="M507.766,892.186c-1.106-0.275-2.06-0.746-2.859-1.41
		c-0.802-0.662-1.355-1.436-1.658-2.32c-0.304-0.883-0.304-1.795,0-2.734c0.303-0.939,0.98-1.795,2.031-2.568
		c0.883-0.664,1.877-0.994,2.982-0.994s2.183,0,3.232,0c0-0.387-0.028-1.23-0.082-2.529c-0.057-1.297-0.07-2.719-0.042-4.268
		c0.027-1.545,0.124-3.023,0.29-4.434c0.166-1.408,0.469-2.389,0.912-2.941c1.104-1.547,2.471-2.279,4.102-2.197
		c1.629,0.084,2.97,0.871,4.02,2.363c0.22,0.277,0.427,0.607,0.621,0.994c0.193,0.387,0.29,0.746,0.29,1.078
		c0.055,1.988,0.069,3.977,0.042,5.967c-0.028,1.988-0.042,3.977-0.042,5.967h6.547c0.995,0,1.851,0.33,2.569,0.994
		c0.718,0.662,1.229,1.438,1.533,2.32c0.303,0.885,0.386,1.795,0.249,2.734c-0.139,0.939-0.567,1.713-1.285,2.32
		c-1.271,1.051-2.749,1.604-4.434,1.658c-1.686,0.055-3.412,0.082-5.18,0.082c0,3.039-0.014,6.078-0.041,9.117
		c-0.028,3.039-0.015,6.078,0.041,9.115c0,1.326,0.069,2.68,0.208,4.061c0.137,1.383,0.041,2.707-0.291,3.979
		c-0.276,0.994-0.745,1.781-1.408,2.361s-1.409,0.939-2.237,1.078c-0.829,0.137-1.687,0.082-2.569-0.166
		c-0.885-0.248-1.713-0.705-2.486-1.367c-0.387-0.389-0.678-1.049-0.87-1.99c-0.194-0.938-0.318-1.932-0.373-2.982
		c-0.056-1.215-0.056-2.514,0-3.895c0-1.105,0-2.541,0-4.311c0-1.768-0.015-3.605-0.042-5.51c-0.027-1.906-0.041-3.717-0.041-5.43
		c0-1.711,0-3.066,0-4.061L507.766,892.186z"/>
	<path style="fill:#FFFFFF;stroke:#000000;stroke-width:2;" d="M538.179,870.307c0.221-2.043,0.925-3.549,2.113-4.518
		c1.188-0.965,2.445-1.436,3.771-1.408c1.325,0.029,2.555,0.539,3.688,1.533c1.132,0.994,1.726,2.404,1.781,4.227
		c0.11,1.879-0.372,3.33-1.45,4.352c-1.077,1.021-2.308,1.604-3.688,1.74c-1.382,0.139-2.681-0.234-3.895-1.119
		c-1.217-0.883-1.962-2.293-2.238-4.227L538.179,870.307z"/>
	<path style="fill:#FFFFFF;stroke:#000000;stroke-width:2;" d="M549.118,917.461c-0.111,1.105-0.497,2.086-1.16,2.941
		c-0.663,0.857-1.423,1.479-2.279,1.865s-1.781,0.469-2.776,0.248c-0.994-0.221-1.878-0.828-2.651-1.822
		c-0.443-0.553-0.76-1.174-0.953-1.865c-0.194-0.689-0.318-1.408-0.373-2.154c-0.056-0.746-0.069-1.492-0.041-2.238
		c0.027-0.744,0.041-1.422,0.041-2.029c-0.056-3.26-0.069-6.492-0.041-9.697c0.027-3.203,0.013-6.436-0.042-9.695
		c0-1.326-0.083-2.664-0.248-4.02c-0.166-1.354-0.083-2.693,0.248-4.02c0.276-0.994,0.759-1.85,1.45-2.568
		c0.69-0.717,1.464-1.215,2.32-1.492c0.856-0.275,1.741-0.303,2.652-0.082c0.912,0.221,1.699,0.801,2.362,1.74
		c0.883,1.105,1.325,2.195,1.325,3.273c0,1.076,0,2.391,0,3.936c0,1.879,0,3.758,0,5.637s0.027,3.729,0.083,5.551
		c0.055,2.652,0.083,5.305,0.083,7.957s0,5.303,0,7.955V917.461z"/>
	<path style="fill:#FFFFFF;stroke:#000000;stroke-width:2;" d="M579.035,909.422c1.381-0.883,2.693-1.27,3.937-1.16
		c1.243,0.111,2.265,0.539,3.066,1.285c0.801,0.746,1.243,1.74,1.326,2.984c0.083,1.242-0.346,2.555-1.284,3.936
		c-0.609,0.939-1.479,1.797-2.611,2.568c-1.133,0.773-2.225,1.381-3.273,1.824c-2.432,1.104-4.889,1.602-7.375,1.492
		c-2.486-0.111-4.794-0.719-6.92-1.824c-2.128-1.104-3.965-2.637-5.512-4.6c-1.547-1.961-2.597-4.238-3.148-6.836
		c-1.106-4.973-0.885-9.752,0.663-14.338c0.606-1.658,1.339-3.26,2.195-4.807c0.856-1.545,1.893-2.955,3.108-4.227
		c1.214-1.27,2.568-2.389,4.061-3.355c1.491-0.967,3.121-1.617,4.89-1.947c1.215-0.221,2.762-0.209,4.641,0.041
		c1.878,0.248,3.715,0.732,5.511,1.449c1.795,0.719,3.37,1.658,4.725,2.818c1.353,1.16,2.113,2.541,2.278,4.145
		c0.11,0.883,0,1.697-0.331,2.443c-0.332,0.746-0.802,1.367-1.409,1.865c-0.608,0.498-1.312,0.844-2.113,1.035
		c-0.802,0.195-1.616,0.18-2.444-0.041c-0.995-0.275-1.782-0.648-2.362-1.119c-0.58-0.469-1.34-1.09-2.279-1.863
		c-0.442-0.111-0.856-0.291-1.242-0.539c-0.388-0.25-0.802-0.346-1.243-0.291l-2.238,0.25c-0.387,0.221-0.745,0.414-1.077,0.58
		c-0.331,0.164-0.663,0.33-0.994,0.496c-1.879,1.879-3.261,3.965-4.144,6.258c-0.885,2.293-1.106,4.764-0.663,7.416
		c0.275,1.713,0.814,3.123,1.616,4.227c0.8,1.105,1.74,1.865,2.817,2.279s2.265,0.455,3.563,0.125
		c1.298-0.332,2.582-1.078,3.854-2.238L579.035,909.422z"/>
	<path style="fill:#FFFFFF;stroke:#000000;stroke-width:2;" d="M662.322,913.152c0.938,1.604,1.256,3.039,0.953,4.309
		c-0.305,1.271-0.926,2.225-1.865,2.859s-2.086,0.883-3.439,0.746c-1.354-0.139-2.666-0.844-3.936-2.113
		c-1.326,0.939-2.708,1.67-4.145,2.195s-2.956,0.98-4.558,1.367c-2.486,0.553-4.877,0.512-7.169-0.123
		c-2.293-0.637-4.323-1.672-6.091-3.107c-1.769-1.438-3.205-3.219-4.31-5.346c-1.105-2.127-1.713-4.434-1.823-6.92
		c-0.165-2.762,0.042-5.414,0.622-7.955s1.505-4.861,2.776-6.963c1.27-2.098,2.941-3.895,5.014-5.387
		c2.071-1.49,4.517-2.539,7.334-3.148c1.657-0.332,3.328-0.498,5.014-0.498c1.685,0,3.356,0.139,5.014,0.414
		c-0.056-1.213-0.097-2.609-0.124-4.184c-0.028-1.574-0.041-3.107-0.041-4.6s0.054-2.83,0.165-4.02
		c0.11-1.188,0.249-2.031,0.415-2.527c0.386-0.994,0.979-1.754,1.781-2.279c0.801-0.525,1.644-0.801,2.528-0.828
		c0.883-0.027,1.753,0.193,2.61,0.662c0.855,0.471,1.533,1.174,2.03,2.113c0.109,0.277,0.248,0.539,0.414,0.787
		s0.249,0.512,0.249,0.787c0.054,7.238,0.068,14.393,0.041,21.465c-0.028,7.072-0.041,14.227-0.041,21.463
		C661.962,912.654,662.156,912.932,662.322,913.152z"/>
	<path style="fill:#FFFFFF;stroke:#000000;stroke-width:2;" d="M650.803,908.594c0.11-0.166,0.317-0.332,0.621-0.498
		c0.304-0.164,0.456-0.385,0.456-0.662c0-2.32,0-4.6,0-6.838c0-2.236-0.028-4.516-0.083-6.836c-1.326-0.275-2.707-0.441-4.144-0.498
		c-1.438-0.053-2.832,0.084-4.185,0.416c-1.354,0.33-2.598,0.883-3.729,1.656c-1.133,0.775-2.03,1.879-2.693,3.314
		c-0.332,1.051-0.636,2.102-0.912,3.15s-0.429,2.072-0.455,3.066c-0.029,0.994,0.096,1.975,0.372,2.941s0.746,1.893,1.409,2.775
		c0.221,0.223,0.483,0.443,0.787,0.664s0.897,0.607,1.782,1.16c2.043,0.166,3.99-0.027,5.843-0.58
		C647.722,911.273,649.365,910.197,650.803,908.594z"/>
	<path style="fill:#FFFFFF;stroke:#000000;stroke-width:2;" d="M669.862,899.975c0.386-1.602,0.925-3.176,1.616-4.723
		c0.69-1.547,1.533-3.025,2.527-4.434c0.995-1.41,2.113-2.693,3.356-3.854s2.582-2.1,4.02-2.818c2.54-1.326,5.097-2.002,7.666-2.031
		c2.568-0.027,4.958,0.484,7.168,1.533c2.209,1.051,4.088,2.611,5.636,4.684c1.546,2.07,2.569,4.545,3.066,7.416
		c0.275,1.879,0.427,3.662,0.455,5.346c0.027,1.686-0.152,3.439-0.538,5.262c-0.553,2.598-1.672,5.18-3.356,7.75
		c-1.686,2.568-3.702,4.723-6.05,6.463c-2.349,1.74-4.918,2.887-7.707,3.439c-2.791,0.553-5.594,0.111-8.412-1.326
		c-1.271-0.607-2.417-1.312-3.438-2.113c-1.023-0.799-1.948-1.752-2.776-2.859c-0.94-1.213-1.672-2.484-2.196-3.811
		c-0.525-1.326-0.953-2.707-1.284-4.145c-0.388-1.545-0.526-3.107-0.415-4.682c0.11-1.574,0.304-3.107,0.58-4.6L669.862,899.975z"/>
	<path style="fill:#FFFFFF;stroke:#000000;stroke-width:2;" d="M679.808,901.715c-0.166,0.885-0.305,1.756-0.415,2.611
		c-0.111,0.857-0.111,1.727,0,2.609c0.166,1.273,0.511,2.434,1.036,3.482c0.524,1.049,1.215,1.879,2.072,2.484
		c0.855,0.609,1.836,0.928,2.941,0.953c1.104,0.029,2.292-0.316,3.563-1.035c1.602-0.939,2.983-2.389,4.144-4.352
		c1.16-1.959,1.878-4.004,2.155-6.131c0.275-2.127,0.054-4.145-0.663-6.051c-0.719-1.906-2.128-3.273-4.227-4.102
		c-1.382,0-2.652,0.262-3.812,0.787s-2.169,1.215-3.024,2.072c-0.857,0.857-1.604,1.863-2.237,3.023
		C680.704,899.229,680.193,900.445,679.808,901.715z"/>
	<path style="fill:#FFFFFF;stroke:#000000;stroke-width:2;" d="M713.038,937.102c-0.94-1.16-1.438-2.361-1.492-3.604
		c-0.056-1.244,0.221-2.309,0.829-3.191c0.607-0.885,1.478-1.492,2.61-1.824c1.132-0.33,2.389-0.164,3.771,0.498
		c0.607,0.441,1.16,0.773,1.657,0.994c0.498,0.221,1.188,0.553,2.072,0.994c0.829,0.387,1.768,0.678,2.817,0.871
		c1.049,0.193,2.044,0.234,2.983,0.125c1.878-0.111,3.328-0.43,4.352-0.953c1.021-0.527,1.753-1.217,2.195-2.072
		c0.442-0.857,0.705-1.906,0.788-3.15c0.083-1.242,0.124-2.639,0.124-4.184c-1.769,0.607-3.536,1.062-5.304,1.367
		c-1.769,0.303-3.592,0.344-5.47,0.123c-3.646-0.441-6.645-1.74-8.992-3.895c-2.349-2.154-4.061-4.723-5.138-7.707
		c-1.077-2.982-1.521-6.174-1.326-9.572c0.193-3.396,0.98-6.531,2.362-9.406c0.828-1.656,1.96-3.189,3.397-4.598
		c1.437-1.41,3.052-2.57,4.848-3.482c1.795-0.91,3.674-1.504,5.636-1.781c1.961-0.275,3.854-0.109,5.677,0.498
		c1.049,0.387,2.072,0.773,3.066,1.16s1.961,0.885,2.9,1.492c1.049-0.939,2.279-1.41,3.688-1.41c1.408,0,2.61,0.664,3.604,1.99
		c0.22,0.33,0.469,0.703,0.746,1.117c0.275,0.416,0.414,0.816,0.414,1.203c0.055,5.912,0.068,11.809,0.042,17.693
		c-0.029,5.883-0.042,11.781-0.042,17.693c0,2.375-0.318,4.584-0.953,6.629c-0.636,2.043-1.589,3.854-2.859,5.428
		c-1.271,1.576-2.846,2.859-4.724,3.854c-1.879,0.996-4.061,1.629-6.547,1.906c-1.271,0.111-2.515,0.166-3.729,0.166
		c-1.216,0-2.459-0.139-3.729-0.414c-1.77-0.332-3.468-0.885-5.097-1.658c-1.631-0.773-3.247-1.629-4.849-2.568L713.038,937.102z"/>
	<path style="fill:#FFFFFF;stroke:#000000;stroke-width:2;" d="M722.816,911.826c2.431,1.16,4.669,1.533,6.713,1.119
		s4.115-1.34,6.216-2.777v-13.176c-1.604-1.602-3.163-2.721-4.683-3.357c-1.52-0.635-3.329-0.814-5.428-0.539
		c-0.388,0.223-0.761,0.416-1.119,0.582c-0.359,0.164-0.732,0.33-1.118,0.496c-1.161,1.326-2.045,2.611-2.652,3.854
		c-0.608,1.244-0.968,2.516-1.077,3.812c-0.111,1.299-0.015,2.625,0.29,3.979c0.303,1.354,0.759,2.832,1.367,4.434
		c0.166,0.277,0.414,0.553,0.746,0.828C722.402,911.357,722.651,911.605,722.816,911.826z"/>
	<path style="fill:#FFFFFF;stroke:#000000;stroke-width:2;" d="M755.965,924.754c0.441-0.443,0.842-0.842,1.201-1.201
		s0.718-0.719,1.077-1.078s0.705-0.76,1.036-1.201c0.332-0.443,0.69-0.967,1.077-1.574c1.603-2.596,2.818-5.553,3.646-8.867
		c0.829-3.316,1.326-6.727,1.492-10.236c0.166-3.508,0.027-6.961-0.414-10.357c-0.443-3.398-1.189-6.506-2.238-9.324
		c-0.719-1.934-1.616-3.756-2.693-5.469s-2.169-3.398-3.273-5.057c-0.497-0.717-0.981-1.422-1.45-2.113
		c-0.47-0.689-0.732-1.504-0.787-2.443c-0.056-1.438,0.29-2.623,1.036-3.564c0.745-0.938,1.643-1.533,2.693-1.781
		c1.049-0.248,2.126-0.152,3.231,0.289c1.104,0.443,1.989,1.299,2.652,2.57c1.215,1.713,2.375,3.453,3.48,5.221
		c1.104,1.77,2.126,3.562,3.066,5.387c1.546,2.982,2.721,6.215,3.522,9.695c0.8,3.48,1.27,7.045,1.408,10.691
		c0.138,3.646-0.041,7.252-0.538,10.814c-0.498,3.564-1.243,6.893-2.238,9.986c-0.884,2.652-1.947,5.316-3.19,7.998
		c-1.243,2.678-2.832,5.041-4.765,7.086c-0.829,0.883-1.77,1.711-2.818,2.484c-1.05,0.773-2.21,1.162-3.48,1.162
		c-1.16,0-2.113-0.25-2.859-0.746c-0.745-0.498-1.271-1.133-1.574-1.906c-0.305-0.775-0.401-1.617-0.29-2.527
		c0.11-0.912,0.386-1.811,0.829-2.693L755.965,924.754z"/>
	<path style="fill:#FFFFFF;stroke:#000000;stroke-width:2;" d="M324.824,356.463c5.888-5.887,12.612-9.297,20.166-10.221
		c7.545-0.915,14.451,0.095,20.718,3.039c6.259,2.952,11.137,7.648,14.641,14.088c3.497,6.449,4.325,14.088,2.486,22.928
		c-2.21,8.84-6.448,17.041-12.707,24.585c-6.267,7.554-12.525,14.46-18.784,20.718c-14.365,15.107-30.301,26.243-47.79,33.426
		c-17.498,7.182-35.178,10.583-53.039,10.221c-17.869-0.371-35.359-4.61-52.486-12.707c-17.127-8.106-32.51-20.252-46.132-36.464
		c-8.106-9.573-14.918-19.699-20.442-30.387c-5.524-10.678-9.764-21.909-12.707-33.702c-4.42-17.308-6.448-35.359-6.077-54.144
		c0.362-18.785,3.314-37.017,8.84-54.696c5.524-17.679,13.346-34.34,23.48-50c10.126-15.65,22.557-29.005,37.293-40.055
		c10.678-8.097,21.451-15.098,32.32-20.994c10.859-5.888,22.375-11.413,34.53-16.575c6.992-2.944,14.175-5.801,21.547-8.563
		c7.363-2.763,14.917-4.877,22.651-6.354c7.735-1.468,15.47-2.02,23.205-1.658c7.734,0.371,15.279,2.029,22.651,4.973
		c5.154,2.21,10.308,5.249,15.47,9.116c5.154,3.868,9.945,8.288,14.365,13.26s8.287,10.221,11.602,15.746
		c3.315,5.524,5.706,10.868,7.183,16.022c1.105,4.791,1.381,9.668,0.829,14.641c-0.553,4.973-2.029,9.487-4.42,13.536
		c-2.4,4.057-5.62,7.458-9.669,10.221c-4.058,2.763-8.658,4.515-13.812,5.249c-8.478,1.105-15.013,0.19-19.613-2.763
		c-4.61-2.944-8.288-6.63-11.05-11.05c-2.763-4.42-5.438-8.745-8.012-12.983c-2.581-4.23-6.267-7.269-11.05-9.116
		c-2.952,0-5.162,0.19-6.63,0.552c-12.525,3.315-25.138,7.83-37.845,13.536c-12.707,5.715-24.499,12.621-35.359,20.718
		c-10.868,8.106-20.355,17.498-28.453,28.177c-8.105,10.687-14.002,22.652-17.68,35.912c-4.42,15.841-6.077,31.863-4.972,48.066
		c1.104,16.212,5.524,31.492,13.26,45.856c4.419,8.478,10.307,15.841,17.679,22.1c7.364,6.267,15.47,10.963,24.31,14.088
		c8.84,3.134,17.861,4.239,27.072,3.315c9.202-0.915,18.042-4.144,26.52-9.668c7.363-5.154,13.993-11.507,19.889-19.061
		C314.689,371.847,320.033,364.198,324.824,356.463z"/>
</g>
</svg>
