<?xml version="1.0" encoding="utf-8"?>
<!-- Generator: Adobe Illustrator 16.0.0, SVG Export Plug-In . SVG Version: 6.00 Build 0)  -->
<!DOCTYPE svg PUBLIC "-//W3C//DTD SVG 1.1//EN" "http://www.w3.org/Graphics/SVG/1.1/DTD/svg11.dtd">
<svg version="1.1" id="Layer_1" xmlns="http://www.w3.org/2000/svg" xmlns:xlink="http://www.w3.org/1999/xlink" x="0px" y="0px"
	 width="100%" height="100%" viewBox="0 0 600 600" enable-background="new 0 0 600 600" xml:space="preserve">
<path fill="none" stroke="#000000" stroke-width="2" d="M154.331,112.732c1.295-1.295,2.775-2.045,4.437-2.249
	c1.66-0.201,3.179,0.021,4.558,0.669c1.377,0.649,2.45,1.683,3.221,3.099c0.77,1.419,0.952,3.1,0.547,5.044
	c-0.486,1.945-1.419,3.749-2.796,5.409c-1.379,1.662-2.756,3.181-4.132,4.558c-3.161,3.324-6.667,5.773-10.514,7.354
	c-3.85,1.58-7.739,2.329-11.668,2.249c-3.931-0.082-7.779-1.014-11.547-2.795c-3.768-1.783-7.152-4.456-10.149-8.022
	c-1.784-2.106-3.282-4.334-4.498-6.685c-1.215-2.35-2.148-4.82-2.795-7.415c-0.973-3.808-1.419-7.779-1.337-11.912
	c0.08-4.133,0.729-8.144,1.944-12.033c1.216-3.89,2.937-7.555,5.166-11c2.228-3.443,4.962-6.381,8.205-8.812
	c2.349-1.782,4.719-3.322,7.11-4.619c2.389-1.295,4.922-2.511,7.597-3.646c1.538-0.648,3.118-1.276,4.74-1.884
	c1.62-0.607,3.282-1.073,4.983-1.397c1.702-0.323,3.403-0.445,5.105-0.365c1.702,0.082,3.362,0.446,4.983,1.094
	c1.134,0.486,2.268,1.155,3.403,2.005c1.134,0.851,2.188,1.823,3.16,2.917c0.973,1.094,1.823,2.249,2.553,3.464
	c0.729,1.215,1.255,2.391,1.58,3.525c0.243,1.054,0.304,2.127,0.182,3.221c-0.122,1.094-0.446,2.087-0.972,2.978
	c-0.528,0.893-1.236,1.641-2.127,2.249c-0.893,0.607-1.905,0.993-3.039,1.154c-1.865,0.243-3.302,0.042-4.315-0.607
	c-1.014-0.648-1.823-1.458-2.431-2.431c-0.608-0.972-1.197-1.924-1.763-2.856c-0.568-0.93-1.378-1.599-2.431-2.005
	c-0.649,0-1.136,0.042-1.458,0.122c-2.756,0.729-5.531,1.723-8.326,2.978c-2.795,1.257-5.39,2.776-7.779,4.558
	c-2.391,1.783-4.479,3.85-6.26,6.199c-1.783,2.351-3.081,4.983-3.89,7.9c-0.972,3.485-1.337,7.01-1.094,10.575
	c0.243,3.567,1.215,6.928,2.917,10.088c0.973,1.865,2.268,3.485,3.89,4.862c1.62,1.379,3.403,2.412,5.348,3.1
	c1.945,0.689,3.929,0.933,5.956,0.729c2.024-0.201,3.969-0.912,5.834-2.127c1.62-1.134,3.079-2.532,4.375-4.193
	C152.101,116.116,153.276,114.434,154.331,112.732z"/>
<path fill="none" stroke="#000000" stroke-width="2" d="M222.03,61.561c0.323-2.997,1.356-5.206,3.099-6.625
	c1.742-1.417,3.586-2.106,5.53-2.066c1.945,0.042,3.747,0.79,5.409,2.249c1.66,1.458,2.531,3.525,2.613,6.199
	c0.161,2.756-0.547,4.883-2.127,6.381c-1.58,1.5-3.384,2.351-5.409,2.552c-2.026,0.203-3.931-0.344-5.712-1.641
	c-1.784-1.295-2.877-3.362-3.282-6.199L222.03,61.561z"/>
<path fill="none" stroke="#000000" stroke-width="2" d="M238.074,130.721c-0.163,1.622-0.729,3.06-1.702,4.315
	c-0.972,1.255-2.087,2.167-3.342,2.735c-1.257,0.566-2.613,0.688-4.072,0.365c-1.458-0.325-2.755-1.216-3.889-2.674
	c-0.649-0.811-1.115-1.721-1.398-2.735c-0.285-1.012-0.467-2.066-0.547-3.16c-0.082-1.094-0.103-2.188-0.061-3.282
	c0.04-1.094,0.061-2.085,0.061-2.978c-0.082-4.78-0.103-9.521-0.061-14.221c0.04-4.699,0.019-9.439-0.061-14.221
	c0-1.945-0.122-3.908-0.365-5.895c-0.243-1.984-0.122-3.95,0.365-5.895c0.404-1.458,1.113-2.714,2.127-3.768
	c1.012-1.052,2.146-1.781,3.403-2.188c1.255-0.405,2.553-0.444,3.89-0.122c1.337,0.325,2.492,1.175,3.464,2.552
	c1.295,1.622,1.945,3.221,1.945,4.801s0,3.506,0,5.773c0,2.756,0,5.511,0,8.265c0,2.756,0.04,5.47,0.122,8.144
	c0.08,3.89,0.122,7.779,0.122,11.668c0,3.89,0,7.779,0,11.669L238.074,130.721L238.074,130.721z"/>
<path fill="none" stroke="#000000" stroke-width="2" d="M248.647,125.98c-0.486-1.377-0.689-2.735-0.607-4.072
	c0.08-1.337,0.425-2.553,1.033-3.646c0.607-1.094,1.478-1.945,2.613-2.553c1.134-0.607,2.511-0.83,4.132-0.668
	c0.891,0.082,1.702,0.325,2.431,0.729c0.729,0.406,1.397,0.893,2.005,1.458c0.608,0.568,1.215,1.176,1.823,1.823
	c0.608,0.649,1.234,1.215,1.884,1.702c1.377,1.054,2.835,1.823,4.376,2.31c1.538,0.486,3.16,0.851,4.862,1.094
	c1.134,0,2.045-0.283,2.735-0.851c0.688-0.566,1.155-1.255,1.398-2.066c0.243-0.809,0.304-1.681,0.182-2.613
	c-0.122-0.931-0.425-1.681-0.912-2.249c-1.379-1.376-3.06-2.268-5.044-2.674c-1.986-0.404-3.829-0.891-5.53-1.458
	c-2.431-0.809-4.822-1.842-7.171-3.1c-2.351-1.255-4.254-2.978-5.712-5.166c-1.541-2.268-2.452-4.68-2.735-7.232
	c-0.285-2.553-0.082-5.044,0.608-7.475c0.688-2.431,1.842-4.659,3.464-6.686c1.62-2.024,3.565-3.686,5.834-4.983
	c1.702-0.972,3.564-1.599,5.591-1.884c2.025-0.283,4.072-0.344,6.138-0.182c2.066,0.163,4.112,0.547,6.138,1.154
	c2.024,0.608,3.89,1.276,5.591,2.006c1.945,0.893,3.403,2.148,4.375,3.768c0.973,1.622,1.438,3.263,1.398,4.922
	c-0.042,1.662-0.608,3.1-1.702,4.315c-1.094,1.215-2.695,1.823-4.801,1.823c-1.297,0-2.473-0.222-3.525-0.668
	c-1.054-0.444-2.148-0.87-3.282-1.276c-1.458-0.566-3.039-0.952-4.74-1.155c-1.702-0.201-3.081-0.101-4.133,0.304
	c-0.325,0.082-0.689,0.346-1.094,0.79c-0.406,0.446-0.71,0.993-0.912,1.641c-0.203,0.649-0.243,1.297-0.122,1.945
	c0.122,0.649,0.547,1.176,1.276,1.58c1.945,1.054,4.011,1.865,6.199,2.431c2.188,0.568,4.334,1.215,6.442,1.945
	c2.106,0.729,4.072,1.662,5.895,2.795c1.823,1.136,3.343,2.756,4.558,4.862c1.782,3.081,2.693,6.301,2.735,9.663
	c0.04,3.363-0.628,6.502-2.005,9.42c-1.379,2.917-3.403,5.409-6.078,7.475c-2.674,2.066-5.794,3.301-9.359,3.707
	c-2.513,0.243-4.983,0.101-7.415-0.425c-2.431-0.528-4.782-1.379-7.049-2.553c-2.27-1.175-4.376-2.571-6.321-4.193
	c-1.945-1.62-3.646-3.321-5.105-5.105L248.647,125.98z"/>
<path fill="none" stroke="#000000" stroke-width="2" d="M368.855,135.583c-1.054,1.295-2.27,2.188-3.646,2.674
	c-1.379,0.486-2.795,0.486-4.254,0c-1.459-0.486-2.674-1.581-3.646-3.282c-0.406-0.649-0.729-1.337-0.973-2.066
	c-0.243-0.729-0.365-1.458-0.365-2.188V98.754c-1.54,0-2.938-0.425-4.192-1.276c-1.257-0.851-2.188-1.903-2.795-3.16
	c-0.608-1.255-0.832-2.592-0.668-4.011c0.162-1.417,0.809-2.734,1.944-3.95c0.81-0.891,1.682-1.478,2.613-1.762
	c0.931-0.283,1.924-0.465,2.978-0.547c-0.082-2.511-0.143-4.983-0.183-7.415c-0.042-2.431,0.141-4.862,0.547-7.293
	c0.486-3.808,1.62-7.05,3.403-9.724c1.782-2.674,3.99-4.74,6.625-6.199c2.632-1.458,5.57-2.31,8.812-2.553
	c3.24-0.243,6.604,0.243,10.089,1.458c1.457,0.486,2.855,1.094,4.192,1.823s2.532,1.662,3.586,2.796
	c0.729,0.811,1.255,1.762,1.58,2.856c0.323,1.094,0.383,2.188,0.183,3.282c-0.203,1.094-0.608,2.108-1.216,3.039
	c-0.607,0.932-1.479,1.641-2.612,2.127c-1.541,0.649-3.061,0.811-4.559,0.486c-1.5-0.323-2.978-0.851-4.437-1.58
	c-0.894-0.323-1.743-0.648-2.553-0.973c-0.811-0.323-1.661-0.566-2.553-0.729c-0.893-0.162-1.702-0.04-2.431,0.364
	c-0.729,0.407-1.358,0.954-1.884,1.641c-0.528,0.689-0.934,1.458-1.216,2.31c-0.284,0.851-0.425,1.683-0.425,2.492
	c-0.082,1.865-0.103,3.749-0.061,5.652c0.04,1.905,0.061,3.789,0.061,5.652c1.215-0.08,2.511-0.162,3.89-0.243
	c1.377-0.08,2.734-0.122,4.071-0.122s2.572,0.042,3.708,0.122c1.135,0.082,2.024,0.243,2.674,0.486
	c1.296,0.486,2.351,1.236,3.16,2.249c0.81,1.014,1.337,2.108,1.58,3.282c0.243,1.176,0.142,2.37-0.304,3.585
	c-0.446,1.216-1.236,2.27-2.37,3.16c-1.054,0.811-2.27,1.379-3.646,1.702c-1.38,0.325-2.837,0.547-4.375,0.669
	c-1.541,0.122-3.039,0.163-4.498,0.122c-1.458-0.04-2.755-0.062-3.89-0.062v32.453C370.558,132.747,369.908,134.286,368.855,135.583
	z"/>
<path fill="none" stroke="#000000" stroke-width="2" d="M391.463,105.074c0.566-2.349,1.356-4.659,2.37-6.928
	c1.012-2.268,2.249-4.437,3.707-6.502c1.459-2.066,3.1-3.951,4.923-5.652c1.823-1.701,3.787-3.078,5.896-4.132
	c3.726-1.945,7.475-2.936,11.242-2.978c3.769-0.04,7.272,0.71,10.515,2.249c3.24,1.541,5.996,3.829,8.265,6.868
	s3.769,6.666,4.498,10.878c0.404,2.755,0.626,5.369,0.668,7.84c0.04,2.473-0.224,5.044-0.79,7.718
	c-0.811,3.81-2.452,7.597-4.923,11.364c-2.473,3.768-5.43,6.928-8.873,9.481c-3.445,2.552-7.213,4.233-11.304,5.044
	c-4.093,0.809-8.205,0.162-12.337-1.945c-1.865-0.893-3.546-1.925-5.044-3.099c-1.5-1.174-2.856-2.572-4.072-4.193
	c-1.379-1.782-2.452-3.646-3.221-5.591c-0.771-1.945-1.398-3.969-1.885-6.077c-0.567-2.268-0.771-4.558-0.606-6.868
	c0.161-2.309,0.444-4.558,0.851-6.746L391.463,105.074z"/>
<path fill="none" stroke="#000000" stroke-width="2" d="M406.049,107.627c-0.243,1.297-0.445,2.573-0.606,3.829
	c-0.164,1.257-0.164,2.533,0,3.829c0.243,1.865,0.748,3.567,1.519,5.105c0.771,1.541,1.782,2.756,3.039,3.646
	c1.255,0.893,2.693,1.358,4.314,1.398c1.619,0.042,3.361-0.465,5.227-1.52c2.35-1.377,4.376-3.504,6.078-6.381
	c1.702-2.875,2.754-5.874,3.16-8.994c0.403-3.119,0.08-6.078-0.973-8.873c-1.054-2.795-3.121-4.801-6.198-6.017
	c-2.026,0-3.891,0.385-5.592,1.155c-1.701,0.771-3.181,1.783-4.436,3.039c-1.257,1.257-2.353,2.735-3.282,4.438
	C407.365,103.98,406.615,105.764,406.049,107.627z"/>
<path fill="none" stroke="#000000" stroke-width="2" d="M454.666,96.627c0.08-0.526,0.04-1.478-0.122-2.856
	c-1.297-0.729-2.31-1.66-3.039-2.796c-0.729-1.134-1.155-2.349-1.276-3.646c-0.121-1.295,0.122-2.532,0.729-3.708
	c0.608-1.173,1.599-2.167,2.978-2.978c1.863-1.052,3.909-1.255,6.139-0.608c2.228,0.649,4.151,1.622,5.772,2.917
	c2.024-1.538,4.134-2.835,6.32-3.889c2.188-1.052,4.416-1.763,6.685-2.127s4.577-0.304,6.929,0.183
	c2.35,0.486,4.659,1.5,6.928,3.039c1.134,0.729,2.188,1.641,3.16,2.735c0.973,1.094,1.58,2.33,1.823,3.707
	c0.404,2.026,0.242,3.789-0.486,5.287c-0.729,1.5-1.744,2.595-3.039,3.282c-1.297,0.689-2.755,0.893-4.375,0.607
	c-1.622-0.283-3.16-1.155-4.619-2.613c-0.486-0.323-0.832-0.587-1.033-0.79c-0.203-0.201-0.629-0.465-1.275-0.79
	c-1.297-0.323-2.573-0.243-3.829,0.243c-1.257,0.486-2.474,1.155-3.646,2.005c-1.176,0.851-2.27,1.784-3.281,2.796
	c-1.015,1.014-1.927,1.926-2.735,2.735v30.994c0,1.216-0.243,2.391-0.729,3.525c-0.729,1.863-1.884,3.16-3.464,3.89
	c-1.58,0.729-3.16,0.931-4.739,0.607c-1.58-0.325-2.96-1.135-4.134-2.431c-1.175-1.297-1.762-2.957-1.762-4.983V96.931
	C454.544,97.255,454.584,97.155,454.666,96.627z"/>
<path fill="none" stroke="#000000" stroke-width="2" d="M263.902,508.732c1.295-1.296,2.775-2.046,4.437-2.249
	c1.66-0.201,3.179,0.021,4.558,0.669c1.377,0.648,2.45,1.683,3.221,3.099c0.77,1.419,0.952,3.1,0.547,5.044
	c-0.486,1.945-1.419,3.749-2.796,5.409c-1.379,1.662-2.756,3.181-4.132,4.558c-3.161,3.324-6.667,5.773-10.514,7.354
	c-3.85,1.58-7.739,2.329-11.668,2.249c-3.931-0.082-7.779-1.015-11.547-2.795c-3.768-1.783-7.152-4.456-10.149-8.022
	c-1.784-2.105-3.282-4.334-4.498-6.685c-1.215-2.351-2.148-4.82-2.795-7.415c-0.973-3.809-1.419-7.779-1.337-11.912
	c0.08-4.133,0.729-8.145,1.944-12.033c1.216-3.89,2.937-7.555,5.166-11c2.228-3.442,4.962-6.381,8.205-8.812
	c2.349-1.782,4.719-3.322,7.11-4.619c2.389-1.295,4.922-2.511,7.597-3.646c1.538-0.647,3.118-1.275,4.74-1.884
	c1.62-0.606,3.282-1.073,4.983-1.396c1.702-0.323,3.403-0.445,5.105-0.365c1.702,0.082,3.362,0.446,4.983,1.094
	c1.134,0.486,2.268,1.155,3.403,2.005c1.134,0.852,2.188,1.823,3.16,2.917c0.973,1.094,1.823,2.249,2.553,3.464
	c0.729,1.215,1.255,2.392,1.58,3.525c0.243,1.054,0.304,2.127,0.182,3.221s-0.446,2.087-0.972,2.979
	c-0.528,0.893-1.236,1.641-2.127,2.249c-0.893,0.606-1.905,0.992-3.039,1.153c-1.865,0.243-3.302,0.042-4.315-0.606
	c-1.014-0.648-1.823-1.458-2.431-2.432c-0.608-0.972-1.197-1.924-1.763-2.855c-0.568-0.93-1.378-1.599-2.431-2.005
	c-0.649,0-1.136,0.042-1.458,0.122c-2.756,0.729-5.531,1.723-8.326,2.978c-2.795,1.257-5.39,2.776-7.779,4.559
	c-2.391,1.782-4.479,3.85-6.26,6.198c-1.783,2.352-3.081,4.983-3.89,7.9c-0.972,3.485-1.337,7.01-1.094,10.575
	c0.243,3.566,1.215,6.928,2.917,10.088c0.973,1.865,2.268,3.484,3.89,4.862c1.62,1.379,3.403,2.411,5.348,3.1
	c1.945,0.688,3.929,0.933,5.956,0.729c2.024-0.2,3.969-0.911,5.834-2.127c1.62-1.134,3.079-2.531,4.375-4.192
	C261.672,512.116,262.848,510.434,263.902,508.732z"/>
<path fill="none" stroke="#000000" stroke-width="2" d="M338.53,524.776c0.646,2.351,0.525,4.296-0.365,5.834
	c-0.894,1.538-2.127,2.57-3.708,3.099c-1.58,0.526-3.302,0.465-5.166-0.182c-1.865-0.649-3.485-1.945-4.862-3.891
	c-2.27,1.702-4.479,2.896-6.625,3.586c-2.147,0.688-4.6,1.073-7.354,1.154c-4.132,0.162-7.821-0.304-11.061-1.396
	c-3.242-1.095-5.977-2.735-8.205-4.924c-2.229-2.188-3.871-4.922-4.923-8.203c-1.054-3.282-1.418-7.069-1.094-11.365
	c0.162-1.782,0.465-3.525,0.912-5.228c0.444-1.702,0.952-3.361,1.52-4.982c0.647-1.782,1.559-3.688,2.735-5.713
	c1.173-2.024,2.37-3.769,3.585-5.228c4.375-5.348,9.845-9.196,16.409-11.547c1.134-0.404,2.674-0.769,4.619-1.094
	c1.944-0.323,3.908-0.465,5.895-0.425c1.985,0.042,3.891,0.304,5.713,0.79c1.823,0.485,3.18,1.337,4.072,2.552
	c0.729,0.972,1.255,1.823,1.58,2.553c0.323,0.729,0.505,1.5,0.547,2.31c0.04,0.811,0.04,1.683,0,2.612
	c-0.042,0.934-0.061,2.087-0.061,3.464c0,2.271-0.021,4.479-0.062,6.624c-0.042,2.148-0.021,4.315,0.062,6.503
	c0,0.729,0,1.684,0,2.856c0,1.175,0.039,2.412,0.121,3.707c0.08,1.297,0.183,2.534,0.305,3.707c0.122,1.176,0.304,2.127,0.547,2.855
	L338.53,524.776z"/>
<path fill="none" stroke="#000000" stroke-width="2" d="M312.762,519.306c0.892-0.565,1.903-1.193,3.039-1.884
	c1.134-0.688,2.146-1.478,3.039-2.37c-0.729-4.294-1.155-8.588-1.275-12.884c-0.122-4.294-0.104-8.63,0.061-13.006
	c-3.646,0.648-6.928,2.229-9.845,4.74c-2.917,2.513-4.944,5.47-6.078,8.873c-0.486,1.379-0.894,2.796-1.215,4.254
	c-0.325,1.458-0.446,2.877-0.365,4.254c0.08,1.865,0.565,3.424,1.458,4.68c0.891,1.257,1.964,2.208,3.221,2.856
	c1.255,0.648,2.592,1.014,4.012,1.094C310.229,519.996,311.546,519.792,312.762,519.306z"/>
<path fill="none" stroke="#000000" stroke-width="2" d="M348.618,489.649c-1.622-0.405-3.021-1.095-4.193-2.066
	c-1.175-0.972-1.985-2.106-2.431-3.403c-0.446-1.295-0.446-2.632,0-4.011c0.443-1.377,1.438-2.632,2.978-3.768
	c1.295-0.974,2.753-1.458,4.375-1.458c1.62,0,3.2,0,4.74,0c0-0.566-0.042-1.804-0.122-3.708c-0.082-1.903-0.103-3.99-0.061-6.261
	c0.04-2.268,0.182-4.436,0.425-6.502c0.243-2.065,0.688-3.504,1.337-4.314c1.62-2.269,3.625-3.344,6.017-3.222
	c2.39,0.122,4.355,1.276,5.896,3.465c0.323,0.405,0.627,0.893,0.912,1.458c0.283,0.567,0.425,1.094,0.425,1.579
	c0.08,2.917,0.101,5.834,0.061,8.751c-0.042,2.917-0.061,5.834-0.061,8.752h9.603c1.458,0,2.715,0.485,3.769,1.457
	c1.052,0.973,1.803,2.108,2.249,3.403c0.443,1.297,0.565,2.634,0.363,4.011c-0.202,1.38-0.831,2.514-1.884,3.403
	c-1.864,1.541-4.032,2.353-6.503,2.431c-2.473,0.082-5.004,0.122-7.597,0.122c0,4.458-0.021,8.915-0.062,13.37
	c-0.041,4.458-0.021,8.915,0.062,13.37c0,1.945,0.101,3.932,0.304,5.956c0.201,2.026,0.062,3.971-0.426,5.834
	c-0.406,1.458-1.094,2.613-2.066,3.464c-0.973,0.852-2.065,1.376-3.281,1.58c-1.217,0.201-2.474,0.122-3.769-0.243
	c-1.297-0.364-2.513-1.032-3.646-2.006c-0.568-0.567-0.993-1.538-1.276-2.917c-0.285-1.377-0.467-2.835-0.547-4.375
	c-0.082-1.782-0.082-3.687,0-5.713c0-1.62,0-3.726,0-6.32c0-2.592-0.021-5.287-0.062-8.083c-0.041-2.795-0.061-5.448-0.061-7.961
	c0-2.511,0-4.497,0-5.956L348.618,489.649z"/>
<path fill="#FFFFFF" stroke="#1D1D1B" stroke-width="2" stroke-miterlimit="10" d="M253.57,368.566
	c9.39-0.237,18.924-0.459,28.015,1.902c2.043,0.531,4.179,1.276,5.471,2.945s1.238,4.516-0.607,5.541
	c-0.813,0.452-1.79,0.473-2.721,0.477c-15.187,0.071-30.378-1.147-45.359-3.638c-3.512-0.583-7.62-1.733-8.762-5.106L253.57,368.566
	z"/>
<path fill="#FFFFFF" stroke="#1D1D1B" stroke-width="2" stroke-miterlimit="10" d="M190.515,297.763
	c7.15-2.595,14.3-5.19,21.451-7.786c1.713-0.623,3.51-1.301,4.677-2.702c5.599-6.719-8.702-17.926-13.135-21.427
	c-8.232-6.501-18.457-10.673-28.945-10.865c-2.026-0.037-2.111,21.811-1.979,23.945c0.487,7.905,2.029,15.509,4.983,22.797
	c2.35,5.799,6.265,1.477,9.601-0.824c4.225-2.917,8.708-5.458,13.38-7.585L190.515,297.763z"/>
<path fill="#FFFFFF" stroke="#1D1D1B" stroke-width="2" stroke-miterlimit="10" d="M94.42,354.583
	c1.185,3.497-0.071,7.422,0.735,11.032c1.395,6.242,8.181,9.376,11.557,14.751c2.328,3.708,3.814,9.126,8.067,9.606
	c2.906,0.33,5.602-2.382,5.945-5.382c0.343-3-1.265-5.979-3.554-7.858c-3.186-2.616-7.803-3.684-9.675-7.418
	c-1.03-2.053-0.966-4.486-0.879-6.797c0.539-14.232,1.077-28.466,1.616-42.699L94.42,354.583z"/>
<path fill="#FFFFFF" stroke="#1D1D1B" stroke-width="2" stroke-miterlimit="10" d="M86.607,264.67
	c-8.423-12.373-10.155-29.01-5.575-43.378c4.581-14.368,15.078-26.373,27.903-33.67c6.971-3.966,14.776-6.653,22.734-6.594
	c7.958,0.06,16.066,3.08,21.474,9.112c5.409,6.032,7.682,15.216,4.768,22.867c-0.598,1.57-1.437,3.108-2.758,4.101
	c-3.384,2.542-8.052,0.566-11.932-1.055c-7.834-3.272-16.348-4.797-24.791-4.439c-4.552,0.192-9.174,0.958-13.207,3.147
	c-6.547,3.556-10.823,10.499-13.208,17.733c-4.112,12.467-3.008,27.304,5.131,37.44L86.607,264.67z"/>
<path fill="#FFFFFF" stroke="#1D1D1B" stroke-width="2" stroke-miterlimit="10" d="M166.065,301.302
	c2.697-0.889,23.376,27.363,25.716,31.691c7.25,13.414,6.3,30.011,18.527,41.008c7.762,6.979,18.616,8.618,28.821,9.967
	c11.173,1.478,23.16,5.169,34.242,5.153c3.841-0.005,11.965-2.898,11.323,3.179c-0.931,8.82-16.959,5.285-22.035,5.056
	c-9.511-0.431-19.002-1.217-28.486-2.062c-19.406-1.728-38.82-3.78-58.318-3.815c-8.446-0.017-17.032,0.332-25.188-1.936
	c-10.715-2.977-19.954-10.35-26.836-19.341c-6.882-8.992-11.585-19.558-15.4-30.323c-0.769-2.17-2.111-4.789-4.341-4.602
	c1.351,8.664-0.926,17.865-6.134,24.796c-3.984,5.302-9.998,11.325-7.325,17.444c1.517,3.471,5.289,5.09,8.47,7.014
	c3.18,1.925,6.347,5.381,5.329,9.041c-1.294,4.65-7.913,4.789-11.924,2.291c-5.941-3.699-9.438-10.594-10.953-17.588
	c-1.516-6.993-1.33-14.239-1.58-21.4c-0.477-13.676-2.575-27.292-6.234-40.443c-4.549-16.354-15.175-42.115-1.521-57.137
	c15.632-17.194,42.182-9.37,55.587,5.616c8.068,9.02,13.938,19.814,21.897,28.932C153.887,298.64,160.018,303.294,166.065,301.302z"
	/>
<path fill="#FFFFFF" stroke="#1D1D1B" stroke-width="2" stroke-miterlimit="10" d="M167.345,357.382
	c7.784,12.772,20.374,19.404,32.207,16.925c2.009-0.421,4.052-1.123,5.689-2.812c2.62-2.705,3.742-7.471,4.056-12.02
	c0.756-10.98-2.324-21.851-6.541-31.156c-7.528-16.612-26.594-46.784-40.298-24.666C153.438,318.21,159.6,344.671,167.345,357.382z"
	/>
<path fill="#FFFFFF" stroke="#1D1D1B" stroke-width="2" stroke-miterlimit="10" d="M203.685,363.383
	c-3.438,1.07-6.247,3.969-7.207,7.439c-0.529,1.91-0.52,3.953-0.078,5.887c0.354,1.549,0.997,3.055,2.032,4.261
	c2.153,2.507,5.641,3.372,8.927,3.726c2.438,0.261,4.979,0.302,7.254-0.616c3.754-1.515,6.164-5.687,5.87-9.726
	C219.947,367.002,210.57,361.24,203.685,363.383z"/>
<path fill="#FFFFFF" stroke="#1D1D1B" stroke-width="2" stroke-miterlimit="10" d="M233.458,283.611
	c0.166-1.359,1.188-2.438,2.178-3.385c10.213-9.763,22.954-16.857,36.632-20.397c4.686,9.385,5.721,20.379,3.768,30.686
	c-1.952,10.307-6.775,19.942-13.125,28.292L233.458,283.611z"/>
<path fill="#FFFFFF" stroke="#1D1D1B" stroke-width="2" stroke-miterlimit="10" d="M191.564,369.696
	c-4.5-1.8-9.122-3.675-12.622-7.025c-3.623-3.467-5.716-8.196-7.625-12.833c-3.277-7.957-6.315-16.218-6.526-24.82
	c-0.493-20.115,14.852-37.761,32.801-46.854c13.276-6.727,28.906-9.897,43.227-5.84c18.613,5.274,31.942,21.561,41.675,38.28
	c7.116,12.225,13.079,27.194,7.403,40.149c-2.809,6.411-8.154,11.378-13.884,15.397c-10,7.014-21.698,11.643-33.764,13.508
	c-8.398,1.298-16.819-1.315-24.955-3.039C208.339,374.721,200.153,373.13,191.564,369.696z"/>
<path fill="#1D1D1B" d="M264.241,300.483c-1.724,0.422-1.988,2.896-1.177,4.215c0.694,1.13,2.127,1.294,3.151,0.516
	c0.735-0.56,1.364-1.348,1.604-2.251c0.58-2.178-1.62-4.318-3.742-3.345c-1.984,0.911-2.406,3.586-1.809,5.479
	c0.29,0.918,1.07,1.498,2.023,1.541c1.406,0.062,2.878-0.91,3.181-2.324c0.219-1.024-0.219-2.043-1.206-2.459
	c-0.944-0.398-2.074-0.049-2.602,0.853c-0.157,0.271,0,0.026,0.13-0.071c0.13-0.097,0.333-0.195,0.497-0.193
	c0.674,0.514,1.348,1.026,2.022,1.541c-0.073-0.205-0.155-0.426-0.181-0.644c0.027,0.229,0.02-0.026,0.024-0.112
	c0.031-0.6-0.096,0.254,0.05-0.332c0.084-0.336,0.109-0.08-0.043-0.006c-0.236,0.114-1.733,0.163-1.917-0.104
	c-0.042-0.163-0.083-0.325-0.125-0.487c-0.003-0.065,0.011-0.124,0.042-0.177c-0.039-0.041-0.134,0.221-0.043,0.096
	c-0.034,0.046-0.389,0.385-0.21,0.285c0.292-0.079,0.583-0.158,0.875-0.236c-0.05-0.005-0.1-0.009-0.151-0.014
	c0.287,0.078,0.574,0.155,0.861,0.232c0.182,0.104,0.039,0.134,0.007-0.092c-0.016-0.11-0.071-0.257-0.1-0.377
	c-0.075-0.324-0.097-0.65-0.184-0.977C265.106,300.615,264.656,300.381,264.241,300.483L264.241,300.483z"/>
<path fill="#1D1D1B" d="M225.525,297.372c-0.863,0.375-1.102,1.551-1.17,2.396c-0.089,1.085,0.206,2.191,1.263,2.685
	c1.917,0.895,3.839-1.021,4.4-2.697c0.65-1.937-0.238-5.054-2.7-5.06c-2.914-0.007-3.38,3.628-2.98,5.801
	c0.336,1.831,2.778,2.198,3.975,1.049c0.975-0.937,1.036-2.418,0.249-3.48c-0.722-0.972-2.269-1.431-3.311-0.646
	c-0.645,0.485-1.098,1.062-1.098,1.914c0,0.724,0.409,1.592,1.098,1.914c0.033,0.016,0.066,0.031,0.099,0.046
	c-0.274-0.272-0.547-0.546-0.821-0.82c0.118,0.191,0.092,0.124-0.078-0.205c0-0.421,0-0.843,0-1.264
	c-0.009,0.043-0.018,0.086-0.027,0.13c0.205-0.351,0.409-0.701,0.613-1.052c-0.029,0.034-0.059,0.068-0.088,0.102
	c1.325,0.35,2.65,0.699,3.976,1.049c-0.045-0.162-0.104-0.332-0.121-0.5c0.032,0.305,0.029-0.179,0.037-0.274
	c0.013-0.125,0.09-0.053,0.04-0.15c0.049-0.146,0.047-0.165-0.007-0.054c-0.053,0.099-0.111,0.195-0.17,0.289
	c-0.331,0.192-0.661,0.385-0.991,0.577c0.066-0.011,0.134-0.022,0.199-0.034c-0.395,0-0.791,0-1.188,0
	c-0.626-0.614-0.812-0.725-0.555-0.334c-0.083-0.207-0.086-0.192-0.011,0.044c0.141-0.533-0.094,0.593-0.007,0.099
	c-0.075,0.219-0.075,0.253,0.001,0.1c-0.056,0.119-0.122,0.232-0.196,0.341c0.081-0.126,0.053-0.102-0.087,0.072
	c0.2-0.09,0.417-0.124,0.648-0.101c0.235,0.138,0.472,0.275,0.708,0.413c-0.389-0.363-0.182-1.532-0.554-2.048
	C226.382,297.271,225.976,297.175,225.525,297.372L225.525,297.372z"/>
<path fill="#FFFFFF" stroke="#1D1D1B" stroke-width="2" stroke-miterlimit="10" d="M234.121,347.125
	c0.123,1.411,0.285,2.852,0.904,4.125c0.618,1.273,1.787,2.367,3.195,2.516c1.32,0.139,2.617-0.578,3.494-1.574
	c0.876-0.995,1.403-2.246,1.881-3.484c1.9-4.926,3.278-10.053,4.103-15.268c-1.597-0.24-2.832-1.623-3.375-3.143
	c-0.543-1.521-0.523-3.176-0.497-4.791c-0.079,4.805-5.632,5.122-7.954,7.664C233.117,336.186,233.802,343.471,234.121,347.125z"/>
<path fill="#1D1D1B" d="M247.925,317.613c0.657-1.54-0.535-3.109-2.158-3.241c-2.231-0.181-4.606,2.96-3.557,4.987
	c2.181,4.218,8.947,1.231,7.725-3.262c-0.595-2.187-2.795-3.668-5.021-3.617c-2.357,0.055-4.3,1.936-4.924,4.127
	c-1.445,5.08,4.741,10.301,9.035,6.268c2.182-2.048,2.218-5.753-0.431-7.434c-2.429-1.543-5.657-0.723-6.58,2.104
	c-0.367,1.124,0.244,2.457,1.235,3.037c1.103,0.645,2.323,0.341,3.26-0.42c-1.084,0.881-2.241-0.967-1.142-1.566
	c0.316-0.172,0.31,0.395,0.051-0.132c-0.083-0.171-0.16-0.237-0.095-0.428c0.033-0.097,0.113-0.47,0.208-0.411
	c0.001,0.001-0.249,0.161-0.371,0.088c-0.393-0.234,0.212-1.043,0.352-1.164c-0.442,0.385-0.1-0.072,0.05,0.041
	c0.271,0.202,0.357,0.002,0.652,0.434c0.078,0.595,0.156,1.189,0.233,1.785c0.046-0.266,0.287-0.841,0.254-1.084
	c0.028-0.07,0.075-0.125,0.144-0.166c-0.172,0.1-0.332,0.051-0.479-0.146C246.562,318.037,247.619,318.332,247.925,317.613
	L247.925,317.613z"/>
<path fill="#1D1D1B" d="M230.704,329.79c0.967,1.681,1.912,2.76,3.876,3.287c1.759,0.473,3.74,0.198,5.358-0.615
	c3.731-1.876,5.817-6.737,4.983-10.776c-0.376-1.824-3.043-1.303-3.125,0.422c-0.134,2.832-0.293,5.653-2.811,7.508
	c-1.976,1.455-5.741,1.48-7.508-0.422C231.092,328.779,230.428,329.311,230.704,329.79L230.704,329.79z"/>
<path fill="#1D1D1B" d="M251.345,333.546c-2.549-0.063-4.213-0.965-4.933-3.562c-0.72-2.596-0.229-5.02,0.201-7.598
	c0.408-2.449-2.944-3.453-3.762-1.037c-1.266,3.735-0.92,8.739,1.447,11.987c1.511,2.073,5.946,4.253,7.473,0.949
	C251.927,333.951,251.744,333.557,251.345,333.546L251.345,333.546z"/>
<path fill="#FFFFFF" stroke="#1D1D1B" stroke-width="2" stroke-miterlimit="10" d="M277.208,327.158
	c3.63,1.005,7.661,0.818,11.399,1.154c1.821,0.164,3.639,0.357,5.455,0.58c2.173,0.264,4.256,0.823,6.428,0.37
	c3.863-0.807,3.137-5.974,0-7.122c-1.973-0.724-4.352-0.351-6.428-0.283c-1.82,0.059-3.638,0.145-5.455,0.256
	c-3.72,0.228-7.879,0.188-11.399,1.502C275.582,324.221,275.349,326.645,277.208,327.158L277.208,327.158z"/>
<path fill="#FFFFFF" stroke="#1D1D1B" stroke-width="2" stroke-miterlimit="10" d="M277.463,336.227
	c1.183,1.705,3.279,2.213,5.135,2.983c2.02,0.838,4.03,1.71,6.021,2.616c3.994,1.818,7.917,3.845,11.742,5.998
	c4.145,2.334,7.908-4.211,3.709-6.346c-4.096-2.082-8.293-3.886-12.632-5.398c-2.079-0.725-4.17-1.379-6.304-1.923
	c-1.924-0.491-4.616-1.546-6.526-0.741C277.57,333.854,276.679,335.096,277.463,336.227L277.463,336.227z"/>
<path fill="#FFFFFF" stroke="#1D1D1B" stroke-width="2" stroke-miterlimit="10" d="M206.902,314.645
	c-0.482-2.052-3.261-2.744-5.025-3.287c-2.449-0.752-4.92-1.242-7.465-1.524c-5.125-0.569-10.276-0.231-15.301,0.905
	c-3.817,0.863-2.203,6.818,1.622,5.881c4.484-1.1,9.062-1.611,13.68-1.375c2.201,0.113,4.408,0.324,6.581,0.691
	c1.859,0.314,4.016,1.088,5.617-0.186C206.925,315.5,206.988,315.008,206.902,314.645L206.902,314.645z"/>
<path fill="#FFFFFF" stroke="#1D1D1B" stroke-width="2" stroke-miterlimit="10" d="M207.996,326.479
	c-0.722-4.541-9.262-1.281-11.756-0.567c-4.806,1.375-9.451,3.173-14.026,5.179c-1.472,0.646-1.783,2.771-1.06,4.042
	c0.864,1.517,2.59,1.697,4.042,1.06c4.343-1.903,8.771-3.627,13.233-5.229c2.08-0.747,4.22-1.625,6.395-2.047
	C206.225,328.645,208.31,328.451,207.996,326.479L207.996,326.479z"/>
<path fill="#FFFFFF" stroke="#1D1D1B" stroke-width="2" stroke-miterlimit="10" d="M502.635,317.902
	c8.793-2.387,17.455-8.93,21.954-16.823c5.405-9.485,4.76-22.762-3.271-30.158c-7.231-6.66-19.36-8.316-23.215-17.36
	c-3.197-7.503,1.862-16.684,9.304-20.022c7.44-3.34,16.252-1.933,23.708,1.371c18.408,8.158,31.001,28.917,27.781,48.792
	c-1.753,10.819-7.75,20.657-15.581,28.325c-7.438,7.281-16.686,12.6-26.599,15.713c-11.849,3.721-40.545,8.535-50.07-3.139
	c-5.59-6.85,2.661-6.759,8.845-6.646C484.496,318.122,493.748,320.314,502.635,317.902z"/>
<path fill="#FFFFFF" stroke="#1D1D1B" stroke-width="2" stroke-miterlimit="10" d="M346.395,318.898
	c0.399,2.393,0.831,4.771,1.269,7.129c2.351,12.689,4.776,25.367,7.277,38.027c2.12,10.727,4.392,21.699,10.146,30.997
	c0.626,1.013,1.377,2.066,2.512,2.426c3.43,1.089,4.825-4.296,4.286-7.853c-0.684-4.516-1.368-9.03-2.051-13.544
	c-0.132-0.878-0.247-1.836,0.012-2.658c0.08-0.263,0.2-0.511,0.37-0.737c0.734-0.99,2.126-1.195,3.357-1.146
	c6.559,0.262,11.954,5.316,15.574,10.79c0.543,0.823,1.062,1.662,1.568,2.511c2.859,4.803,5.265,9.919,8.999,14.062
	c1.384,1.534,3.721,2.978,5.344,1.699c0.714-0.563,1.014-1.495,1.219-2.38c0.962-4.13,0.716-8.535-0.699-12.531
	c30.335,5.707,61.888,4.849,91.868-2.5c7.684-1.885,18.189-4.371,24.79,1.526c4.266,3.813,7.172,20.158,13.78,9.952
	c4.791-7.398-2.789-21.531-5.531-28.588c-3.984-10.256-8.85-20.17-14.541-29.587c-6.188-10.238-13.526-20.08-23.371-26.875
	c-7.811-5.392-16.886-8.65-26.007-11.268c-14.336-4.114-29.086-6.791-43.955-7.976c-2.425-0.192-4.863-0.348-7.288-0.59
	c-3.193-0.319-6.361-0.787-9.438-1.688c-4.836-1.417-9.297-3.859-13.787-6.15c-8.39-4.28-17.026-8.078-25.853-11.372
	c-2.692-1.004-5.54-1.977-8.383-1.546c-5.167,0.784-8.528,5.862-10.329,10.768C342.979,292.197,344.19,305.729,346.395,318.898z"/>
<path fill="#FFFFFF" stroke="#1D1D1B" stroke-width="2" stroke-miterlimit="10" d="M362.392,335.146
	c1.128,12.975,3.635,25.828,7.454,38.276c0.08-0.263,0.2-0.511,0.37-0.737c0.734-0.99,2.126-1.195,3.357-1.146
	c6.559,0.262,11.954,5.316,15.573,10.79c0.544,0.823,1.063,1.662,1.569,2.511c-4.392-13.244-7.533-26.902-9.365-40.734
	c-0.893-6.729-1.581-13.804-5.343-19.451c-1.211-1.818-2.854-3.521-4.984-3.992c-3.217-0.713-6.469,1.724-7.779,4.746
	C361.933,328.432,362.108,331.865,362.392,335.146z"/>
<path fill="#FFFFFF" stroke="#1D1D1B" stroke-width="2" stroke-miterlimit="10" d="M371.784,216.197
	c1.37-8.761,1.471-17.72,0.3-26.51c-0.509-3.816-1.509-8.004-4.697-10.162c-12.932,7.875-19.726,22.914-23.164,37.659
	c-0.612,2.629-0.985,5.812,0.999,7.641L371.784,216.197z"/>
<path fill="#FFFFFF" stroke="#1D1D1B" stroke-width="2" stroke-miterlimit="10" d="M417.688,263.693
	c7.652-4.48,14.655-10.068,20.722-16.536c2.634-2.808,5.246-6.231,4.898-10.066c-14.278-5.035-30.224-0.783-43.818,5.881
	c-2.423,1.188-5.125,2.912-5.287,5.606L417.688,263.693z"/>
<path fill="#FFFFFF" stroke="#1D1D1B" stroke-width="2" stroke-miterlimit="10" d="M346.395,318.9
	c6.688,3.541,14.271,5.104,21.759,5.81c9.321,0.876,19.063,0.445,27.478-3.915c9.635-4.995,18.937-18.398,19.692-31.01
	c-3.193-0.319-6.36-0.788-9.438-1.688c-4.837-1.417-9.297-3.859-13.788-6.15c-8.39-4.28-17.026-8.078-25.853-11.372
	c-2.692-1.004-5.541-1.977-8.382-1.546c-5.167,0.784-8.528,5.862-10.33,10.769C342.979,292.198,344.19,305.73,346.395,318.9z"/>
<path fill="#FFFFFF" stroke="#1D1D1B" stroke-width="2" stroke-miterlimit="10" d="M378.972,313.443
	c7.252-1.004,14.249-3.188,20.512-6.588c16.628-9.029,26.806-29.313,20.88-47.833c-4.239-13.246-13.498-24.513-24.625-32.856
	c-9.38-7.034-20.342-12.226-31.977-13.681c-21.437-2.681-44.442,9.205-52.96,29.059c-6.118,14.259-2.794,28.253,3.701,41.542
	C325.852,306.307,353.933,316.911,378.972,313.443z"/>
<path fill="#231F20" d="M344.066,253.155c-1.054,0.91-2.383,1.504-3.662,2.03c-1.371,0.563-2.777,0.961-4.248,1.165
	c-2.757,0.382-5.573,0.066-8.09-1.169c-4.491-2.205-7.56-7.423-6.293-12.419c0.423-1.671,3.009-0.963,2.584,0.713
	c-1.006,3.97,1.636,7.996,5.112,9.764c2.111,1.074,4.636,1.316,6.966,1.104c1.198-0.11,2.394-0.352,3.548-0.685
	c1.237-0.356,2.384-0.931,3.604-1.326C344.044,252.183,344.439,252.833,344.066,253.155L344.066,253.155z"/>
<path fill="#231F20" d="M374.994,271.061c-2.107,4.118-1.257,9.626,2.26,12.716c3.611,3.173,9.167,2.945,12.904,0.149
	c1.106-0.829,2.532,1.017,1.483,1.924c-3.499,3.029-8.587,3.596-12.807,1.801c-4.167-1.772-6.765-5.938-6.907-10.417
	c-0.077-2.428,0.551-4.831,1.947-6.827C374.351,269.729,375.377,270.311,374.994,271.061L374.994,271.061z"/>
<path fill="#231F20" d="M347.177,272.942c1.395,0.432,1.479,2.403,0.57,3.35c-0.638,0.666-1.652,0.276-2.344-0.132
	c-0.708-0.418-1.305-1.062-1.646-1.81c-0.415-0.904-0.644-1.91,0.347-2.524c0.646-0.401,1.471-0.426,2.171-0.159
	c0.719,0.275,1.354,0.792,1.686,1.497c0.36,0.771,0.407,1.95-0.335,2.523c-0.808,0.624-2.198,0.304-2.98-0.216
	c-0.919-0.611-1.438-1.541-1.519-2.634c-0.053-0.725,0.628-1.221,1.272-1.272c1.652-0.132,4.545,1.125,3.964,3.236
	c-0.292,1.06-1.499,1.518-2.425,0.94c-1.028-0.641-0.967-1.917-0.034-2.597c0.518-0.377,1.325-0.138,1.679,0.335
	c0.386,0.517,0.364,1.239-0.102,1.709c-0.021,0.021-0.041,0.042-0.062,0.063c0.111-0.193,0.224-0.385,0.336-0.578
	c-0.006,0.024-0.011,0.047-0.016,0.07c0-0.233,0-0.466,0-0.699c-0.377-0.214-0.753-0.429-1.13-0.643
	c-0.193,0.112-0.387,0.225-0.58,0.337c-0.021,0.018-0.04,0.035-0.06,0.053c-0.06,0.22-0.119,0.44-0.178,0.661
	c-0.023,0.266,0.179,0.127-0.069,0.011c-0.128-0.061-0.236-0.164-0.369-0.222c-0.317-0.14-0.611-0.153-0.957-0.132
	c0.425-0.424,0.849-0.848,1.272-1.272c0.019,0.327,0.513,0.787,0.891,0.714c-0.242,0.188-0.485,0.374-0.729,0.562
	c-0.073,0.161-0.028,0.092-0.07-0.021c0.069,0.185-0.129-0.118-0.015-0.006c-0.028-0.027-0.204-0.208-0.163-0.174
	c-0.089-0.073-0.196-0.136-0.342-0.159c-0.056-0.009-0.14,0.069-0.006-0.034c0.106-0.259,0.214-0.518,0.32-0.777
	c-0.027,1.021,0.701,1.849,1.672,2.097c-0.214,0.028-0.428,0.056-0.642,0.084c0.581-0.33,0.379-1.066,0.084-1.523
	C346.462,273.273,346.811,272.829,347.177,272.942L347.177,272.942z"/>
<path fill="#231F20" d="M346.758,275.399c-1.592,3.684-2.724,7.864-1.65,11.864c0.743,2.777,2.671,5.855,5.825,6.084
	c1.565,0.114,1.602,2.521,0,2.465c-4.187-0.146-6.973-3.833-7.893-7.631c-1.083-4.466,0.075-9.779,2.992-13.343
	C346.395,274.397,346.948,274.962,346.758,275.399L346.758,275.399z"/>
<path fill="#231F20" d="M345.715,274.695c0.081,2.265-1.565,4.574-3.22,5.986c-1.857,1.586-4.357,2.533-6.815,2.376
	c-5.07-0.323-9.416-4.496-9.82-9.567c-0.107-1.334,2.146-1.662,2.359-0.32c0.596,3.717,3.673,7.121,7.577,7.333
	c1.938,0.104,3.771-0.481,5.398-1.509c1.799-1.135,2.718-2.731,3.774-4.501C345.176,274.145,345.702,274.301,345.715,274.695
	L345.715,274.695z"/>
<path fill="#FFFFFF" stroke="#1D1D1B" stroke-width="2" stroke-miterlimit="10" d="M376.227,298.035
	c1.021,2.59,3.831,4.828,5.888,6.636c2.411,2.122,4.954,4.031,7.689,5.714c2.688,1.653,5.231-2.72,2.468-4.219
	c-2.638-1.432-5.255-2.945-7.739-4.627c-2.232-1.512-4.478-3.872-6.978-4.832C376.822,296.426,375.938,297.297,376.227,298.035
	L376.227,298.035z"/>
<path fill="#FFFFFF" stroke="#1D1D1B" stroke-width="2" stroke-miterlimit="10" d="M370.805,304.88
	c0.213,2.222,1.871,4.24,2.964,6.144c1.311,2.281,2.619,4.562,3.979,6.814c1.567,2.598,5.746-0.003,3.99-2.333
	c-1.532-2.032-3.103-4.035-4.677-6.035c-1.381-1.755-2.792-4.388-4.803-5.425C371.667,303.742,370.73,304.104,370.805,304.88
	L370.805,304.88z"/>
<path fill="#FFFFFF" stroke="#1D1D1B" stroke-width="2" stroke-miterlimit="10" d="M320.205,256.931
	c0.066-0.997-0.953-1.566-1.53-2.234c-1.211-1.4-2.231-3.035-3.351-4.515c-2.218-2.934-4.449-6.062-7.08-8.639
	c-1.964-1.923-5.713,0.68-3.957,3.053c2.211,2.986,4.929,5.653,7.553,8.274c1.782,1.78,4.318,5.26,7.167,5.128
	c0.396-0.019,0.865-0.209,1.042-0.598C320.123,257.241,320.194,257.109,320.205,256.931L320.205,256.931z"/>
<path fill="#FFFFFF" stroke="#1D1D1B" stroke-width="2" stroke-miterlimit="10" d="M314.462,263.241
	c-1.839-1.288-4.51-1.591-6.612-2.355c-2.392-0.87-4.662-1.994-6.854-3.282c-2.732-1.604-5.205,2.936-2.429,4.154
	c2.57,1.127,5.186,2.09,7.914,2.758c2.291,0.561,5.424,1.453,7.727,0.664C315.106,264.872,315.219,263.771,314.462,263.241
	L314.462,263.241z"/>
</svg>
