<?xml version="1.0" encoding="utf-8"?>
<!-- Generator: Adobe Illustrator 16.0.0, SVG Export Plug-In . SVG Version: 6.00 Build 0)  -->
<!DOCTYPE svg PUBLIC "-//W3C//DTD SVG 1.1//EN" "http://www.w3.org/Graphics/SVG/1.1/DTD/svg11.dtd">
<svg version="1.1" xmlns="http://www.w3.org/2000/svg" xmlns:xlink="http://www.w3.org/1999/xlink" x="0px" y="0px" width="100%"
	 height="100%" viewBox="0 0 1000 1000" style="enable-background:new 0 0 1000 1000;" xml:space="preserve">
<g id="Layer_3">
	<rect style="fill:#FFFFFF;" width="1000" height="1000"/>
</g>
<g id="Layer_1">
		<path style="fill:#FFFFFF;stroke:#000000;stroke-width:2;" d="M258.437,846.807c-11.232-2.163-6.961-24.708-6.961-32.499
			c0-6.672,0-13.344,0-20.016c0-3.378,0.425-0.451-3.867-2.347c-9.164-4.041-1.142-12.018,4.53-14.144
			c22.604-8.469,51.03,1.133,53.977,27.473C309.306,833.78,283.312,847.243,258.437,846.807z M270.371,788.133
			c-4.68,0-5.414-0.491-5.414,3.725c0,5.37,0,10.74,0,16.109c0,8.307,0,16.612,0,24.918
			C295.669,832.885,303.898,790.635,270.371,788.133C269.413,788.133,272.36,788.281,270.371,788.133z"/>
		<path style="fill:#FFFFFF;stroke:#000000;stroke-width:2;" d="M362.524,837.746c1.841,6.684-5.276,11.026-10.774,6.63
			c-3.343-2.674-15.075,2.902-21.725,1.633c-20.661-3.942-18.803-29.394-8.053-42.296c9.288-11.352,35.249-20.26,35.249,1.105
			C357.221,817.203,357.078,826.58,362.524,837.746z M339.099,832.773c6.15-3.902,5.094-4.693,4.567-11.675
			c-0.394-5.222-0.343-10.498-0.147-15.728C327.19,808.276,322.792,839.316,339.099,832.773
			C339.909,832.26,337.994,833.217,339.099,832.773z"/>
		<path style="fill:#FFFFFF;stroke:#000000;stroke-width:2;" d="M414.346,839.735c-0.616,5.146-7.88,9.956-11.768,4.724
			c-3.61-4.858-1.723-13.47-1.707-19.082c0.026-8.66,3.265-29.18-11.387-17.797c-6.927,5.633-5.193,14.126-5.193,22.055
			c0,4.396,1.064,9.548-1.326,13.525c-4.903,8.174-12.29-1.307-12.1-7.016c0.212-6.714-0.055-13.449-0.055-20.166
			c0-5.145-2.403-17.209,1.437-21.492c5.074-5.656,9.392,1.586,14.094-0.656c6.869-3.273,15.97-3.955,22.253,0.97
			C418.725,802.74,414.346,828.382,414.346,839.735z"/>
		<path style="fill:#FFFFFF;stroke:#000000;stroke-width:2;" d="M425.616,776.642c1.046-9.712,14.824-10.493,15.138-0.222
			C441.362,786.787,426.081,787.01,425.616,776.642z M440.202,839.515c-1.241,12.322-14.018,5.655-13.646-4.033
			c0.441-12.155-2.982-27.575-0.055-39.282c3.668-13.232,13.48-1.518,13.48,6.409C439.98,814.911,440.202,827.211,440.202,839.515z"
			/>
		<path style="fill:#FFFFFF;stroke:#000000;stroke-width:2;" d="M450.587,816.199c3.268-13.556,15.479-26.55,30.539-23.328
			c15.461,3.309,19.873,22.026,15.103,35.294C484.759,860.067,444.449,848.83,450.587,816.199z M463.847,818.52
			c-4.38,23.413,22.921,16.782,20.718-3.314C482.757,798.718,466.943,808.331,463.847,818.52
			C463.626,819.699,464.362,816.826,463.847,818.52z"/>
		<path style="fill:#FFFFFF;stroke:#000000;stroke-width:2;" d="M547.934,808.52c0.737-4.873-6.393-5.979-3.369-11.822
			c2.84-5.494,9.743-3.634,13.535-0.608c8.042-6.109,19.752-8.538,27.293-0.056c2.841,3.199,2.506,9.01-1.547,11.16
			c-4.58,2.435-6.832-1.534-10.276-3.259c-8.876-2.214-12.265,7.307-12.265,13.606c0,6.811,0,13.621,0,20.432
			c0,9.59-13.481,11.68-13.481,1.763C545.344,832.151,546.709,816.446,547.934,808.52C548.006,808.042,547.859,809,547.934,808.52z"
			/>
		<path style="fill:#FFFFFF;stroke:#000000;stroke-width:2;" d="M628.485,827.802c8.712-2.179,11.177,6.911,5.248,11.686
			c-5.574,4.488-15.035,6.711-22.003,6.711c-19.049,0-27.186-20.478-22.086-36.545c4.705-14.819,30.289-25.109,41.327-11.521
			c15.655,19.315-14.957,27.187-27.458,31.216C610.127,836.91,621.431,831.757,628.485,827.802z M606.165,808.797
			c-3.68,2.077-4.955,5.615-5.524,9.613c3.641-1.122,20.883-3.782,20.883-9.282C621.523,802.144,609.333,806.809,606.165,808.797z"
			/>
		<path style="fill:#FFFFFF;stroke:#000000;stroke-width:2;" d="M648.706,808.52c0.737-4.872-6.394-5.979-3.37-11.822
			c2.843-5.49,9.742-3.638,13.535-0.608c8.04-6.104,19.756-8.543,27.293-0.056c2.844,3.198,2.506,9.01-1.547,11.16
			c-4.576,2.435-6.835-1.532-10.275-3.259c-8.877-2.212-12.266,7.305-12.266,13.606c0,6.811,0,13.621,0,20.432
			c0,9.59-13.48,11.68-13.48,1.763C646.116,832.151,647.481,816.446,648.706,808.52C648.778,808.042,648.632,809,648.706,808.52z"/>
		<path style="fill:#FFFFFF;stroke:#000000;stroke-width:2;" d="M694.56,776.642c1.048-9.711,14.824-10.493,15.138-0.222
			C710.308,786.787,695.023,787.01,694.56,776.642z M709.146,839.515c-1.241,12.322-14.018,5.656-13.646-4.033
			c0.441-12.157-2.979-27.572-0.056-39.282c3.674-13.232,13.48-1.519,13.48,6.409C708.924,814.911,709.146,827.211,709.146,839.515z
			"/>
		<path style="fill:#FFFFFF;stroke:#000000;stroke-width:2;" d="M719.531,816.199c3.268-13.556,15.479-26.55,30.539-23.328
			c15.46,3.309,19.872,22.027,15.102,35.294C753.701,860.066,713.393,848.831,719.531,816.199z M732.791,818.52
			c-4.381,23.414,22.922,16.781,20.718-3.314C751.7,798.719,735.888,808.331,732.791,818.52
			C732.57,819.699,733.306,816.826,732.791,818.52z"/>
		<path style="fill:#FFFFFF;stroke:#000000;stroke-width:2;" d="M342.163,938.658c3.853,7.438-4.45,10.025-9.086,5.718
			c-4.245-3.944-6.747-10.095-8.609-15.462c-5.982-17.24-2.638-34.305,6.051-49.759c5.331-9.468,16.067-4.73,9.282,4.642
			c-3.531,4.872-5.923,9.846-7.086,15.735C330.13,912.631,331,929.598,342.163,938.658z"/>
		<path style="fill:#FFFFFF;stroke:#000000;stroke-width:2;" d="M382.19,925.066c11.123,5.071-1.925,9.761-7.542,9.199
			c-7.287-0.57-14.58,0.779-21.795,0.332c-15.665-1.003,10.527-26.758,13.84-30.414c-4.078,0.192-25.364,3.132-18.646-6.92
			c3.316-4.983,14.904-3.08,19.889-3.191c5.205,0,21.691,0.045,13.218,9.613c-6.121,6.921-12.942,13.173-18.771,20.387
			C368.971,923.962,375.681,924.123,382.19,925.066z"/>
		<path style="fill:#FFFFFF;stroke:#000000;stroke-width:2;" d="M417.412,921.504c7.821-1.959,7.966,6.871,2.237,9.861
			c-6.145,3.205-14.474,5.463-21.195,2.756c-11.144-4.49-13.909-18.596-9.219-28.695c5.093-10.492,25.31-16.035,31.543-3.884
			c7.38,14.387-13.164,18.238-22.096,21.122C403.509,928.182,412.29,924.65,417.412,921.504z M400.671,907.25
			c-2.883,1.627-3.717,4.216-4.144,7.209c2.593-0.797,15.663-3.025,15.663-6.961C412.19,902.277,403.087,905.625,400.671,907.25z"/>
		<path style="fill:#FFFFFF;stroke:#000000;stroke-width:2;" d="M445.753,934.764c-10.512,0.353-15.332-0.429-15.332-10.027
			c0-7.259,0-14.518,0-21.775c0-6.559,0-13.117,0-19.676c0-4.546,6.468-7.155,9.105-3.176c3.206,4.837,1.666,13.4,1.419,18.853
			C468.096,883.867,475.928,933.826,445.753,934.764C444.15,934.817,447.577,934.707,445.753,934.764z M440.532,913.548
			c0,7.198-0.445,16.565,10.732,9.463C461.501,916.506,452.529,897.111,440.532,913.548z"/>
		<path style="fill:#FFFFFF;stroke:#000000;stroke-width:2;" d="M474.593,907.042c0.327-2.163-7.681-14.612,3.688-11.312
			c7.71,2.246,16.856-6.547,24.406,1.947c2.121,2.387,1.851,6.773-1.16,8.37c-3.253,1.729-5.167-1.174-7.707-2.444
			c-5.078-1.267-9.199,4.372-9.199,8.604c0,5.422,0,10.844,0,16.266c0,6.976-10.11,10.359-10.11,1.979
			C472.564,924.961,473.697,912.842,474.593,907.042C474.647,906.684,474.537,907.402,474.593,907.042z"/>
		<path style="fill:#FFFFFF;stroke:#000000;stroke-width:2;" d="M537.824,928.962c2.757,9.985-9.435,3.461-11.902,4.797
			c-4.31,2.332-10.234,2.331-14.782,0.798c-14.992-5.062-10.363-25.246-1.352-33.662c7.75-7.239,24.06-10.744,24.06,3.371
			C533.848,913.807,533.679,920.462,537.824,928.962z M520.256,925.232c6.596-4.188,3.037-13.114,3.314-20.553
			C511.118,906.9,508.249,930.047,520.256,925.232C520.863,924.847,519.428,925.564,520.256,925.232z"/>
		<path style="fill:#FFFFFF;stroke:#000000;stroke-width:2;" d="M556.057,933.604c-9.381,11.521-8.785-14.637-8.785-16.913
			c0-5.693,1.094-6.392-2.858-9.068c-2.576-1.742-3.247-5.216-1.036-7.583c3.929-4.324,3.842,2.739,3.688-6.629
			c-0.124-7.24,2.461-14.811,10.059-17.011c4.814-1.395,14.674-0.343,16.42,5.532c2.161,7.338-6.574,5.871-10.359,4.351
			c-7.202-2.863-5.801,8.16-5.801,11.851c15.579-1.011,15.745,10.193,0,10.193C557.383,914.602,560.276,928.395,556.057,933.604
			C555.338,934.486,556.773,932.719,556.057,933.604z"/>
		<path style="fill:#FFFFFF;stroke:#000000;stroke-width:2;" d="M575.53,883.133c0.773-7.193,11.123-7.703,11.354-0.166
			C587.337,890.675,576.135,890.701,575.53,883.133z M586.469,930.288c-0.917,9.109-10.508,4.16-10.234-3.024
			c0.335-9.146-2.256-20.615-0.041-29.462c0.763-2.757,3.506-4.85,6.422-4.144c4.888,1.183,3.688,8.283,3.688,11.769
			C586.304,913.714,586.469,922,586.469,930.288z"/>
		<path style="fill:#FFFFFF;stroke:#000000;stroke-width:2;" d="M593.68,927.057c-2.478-7.01,4.989-9.157,9.157-4.725
			c7.567,8.103,14.987-1.9,6.464-3.646c-23.68-4.814-13.438-33.192,8.328-23.867c3.136,1.438,5.492,5.854,2.777,8.867
			c-2.882,3.202-8.027-0.497-11.146-0.87c-2.138-0.254-4.781,0.464-4.269,3.19c0.528,2.819,11.16,4.508,13.509,5.967
			C635.619,922.659,608.802,948.281,593.68,927.057z"/>
		<path style="fill:#FFFFFF;stroke:#000000;stroke-width:2;" d="M638.348,934.307c-10.844,7.855-7.956-30.126-7.956-33.96
			c0-5.334,0-10.669,0-16.004c0-4.289,7.188-7.587,9.426-3.219c2.434,4.751,0.787,13.564,0.685,18.749
			c12.71-8.585,23.723,2.202,24.686,15.188c0.372,5.018-0.072,10.041-0.072,15.062c0,10.364-10.992,3.899-10.566-4.849
			c0.762-15.454-1.93-22.766-14.047-10.648C638.399,919.872,643.92,930.267,638.348,934.307
			C637.242,935.107,639.452,933.506,638.348,934.307z"/>
		<path style="fill:#FFFFFF;stroke:#000000;stroke-width:2;" d="M670.419,937.58c10.901-10.901,12.098-29.83,6.878-43.839
			c-1.771-4.771-7.917-10.085-8.203-15.083c-0.473-11.983,10.865-0.825,13.094,2.734c8.691,13.938,10.251,30.926,5.221,46.574
			c-1.934,5.798-6.351,18.73-14.254,18.73C667.859,946.697,667.193,940.578,670.419,937.58z"/>
		<path style="fill:#FFFFFF;stroke:#000000;stroke-width:2;" d="M457.562,432.257c-19.461-3.752-34.807-19.343-34.807-39.622
			c0-5.188,0-10.375,0-15.562c0-26.502,0-53.005,0-79.507c0-45.71,0-91.421,0-137.131c-15.202,2.534-32.818-6.389-38.606-20.994
			c-6.412-16.177,4.533-29.765,17.058-39.049c27.529-20.406,68.249-26.806,101.655-28.148
			c71.923-2.89,144.898,27.465,177.352,94.821c31.672,65.396,19.539,149.381-31.052,201.66
			c-24.401,25.216-55.925,42.262-90.129,49.781c-18.013,3.959-36.341,6.701-54.568,9.453
			C489.735,430.182,472.443,435.22,457.562,432.257z M517.23,138.887c-6.679,0-27.071-3.172-27.071,5.82c0,7.206,0,14.411,0,21.616
			c0,25.262,0,50.523,0,75.785c0,40.179,0,80.357,0,120.536c27.254,0,60.285-7.549,84.457-20.096
			c27.752-14.406,42.819-40.271,51.212-69.554c9.332-32.563,2.701-69.333-18.358-96.007
			C585.139,148.702,551.443,141.44,517.23,138.887C512.439,138.887,527.176,139.629,517.23,138.887z"/>
</g>
<g id="Layer_2">
	<path style="fill:#FFFFFF;stroke:#231F20;stroke-width:2;stroke-miterlimit:10;" d="M481.942,540.891
		c0,0-148.69-232.392-202.039-92.854C233.918,568.312,481.942,540.891,481.942,540.891z"/>
	<path style="fill:#FFFFFF;stroke:#231F20;stroke-width:2;stroke-miterlimit:10;" d="M379.34,618.08
		c-14.712-0.653-29.5-0.444-44.194,0.463c-22.343,1.379-50.272,3.029-69.079,16.665c-5.419,3.929-12.658,12.188-9.323,19.471
		c3.435,7.499,15.263,8.132,22.21,8.278c28.261,0.598,60.157-9.476,82.872-26.253c-12.441,17.995-50.465,73.495-24.349,92.367
		c37.909,27.393,41.948-65.698,37.857-84.342c4.827,14.295,10.358,28.389,16.481,42.177c7.709,17.358,18.061,44.941,36.312,54.042
		c20.028,9.986,15.684-20.479,12.462-29.788C428.54,676.329,403.446,645.268,379.34,618.08z"/>
		<path style="fill:#FFFFFF;stroke:#231F20;stroke-width:2;stroke-miterlimit:10;" d="M573.097,664.538
			c0,0-71.159,91.183-99.771,62.439C450.882,704.429,573.097,664.538,573.097,664.538z"/>
		<path style="fill:#FFFFFF;stroke:#231F20;stroke-width:2;stroke-miterlimit:10;" d="M575.176,649.898
			c0,0,3.4,107.619-36.943,111.749C497.886,765.777,575.176,649.898,575.176,649.898z"/>
	<path style="fill:#FFFFFF;stroke:#231F20;stroke-width:2;stroke-miterlimit:10;" d="M654.546,559.113
		c51.564,48.513,135.242,51.866,199.829,35.281c-30.674,65.08-120.87,88.286-185.036,93.466
		c-78.835,6.364-158.68-7.248-234.769-27.04c-39.229-10.204-77.933-22.436-116.106-36.054c-17.18-6.129-34.265-12.52-51.255-19.159
		c-6.48,15.301-15.337,29.556-26.271,42.072c-24.826,28.419-61.49,49.631-98.899,56.077c44.629-46.26,79.98-111.978,43.022-173.368
		c-15.668-26.026-40.713-47.958-67.789-61.689c54.055-3.085,105.198,18.008,138.916,60.684c2.443,3.093,4.782,6.267,7.012,9.516
		c4.968,7.238,7.22,3.57,14.972,0.033c17.772-8.107,35.765-15.734,53.963-22.835c33.441-13.048,67.56-24.376,102.259-33.589
		c144.032-38.24,306.936-38.628,429.752,56.464c-12.252,13.066-30.252,21.166-46.994,26.474
		C764.619,582.1,706.448,573.841,654.546,559.113z"/>
		<path style="fill:#FFFFFF;stroke:#231F20;stroke-width:2;stroke-miterlimit:10;" d="M645.118,478.152
			c-36.654,0.097-73.31,0.193-109.964,0.291c-22.146,0.058-44.293,0.117-66.44,0.175c-18.523,0.049-33.108,3.564-51.398,8.827
			c76.563-0.202,153.126-0.404,229.688-0.605C646.166,483.989,645.537,481.093,645.118,478.152z"/>
		<path style="fill:#FFFFFF;stroke:#231F20;stroke-width:2;stroke-miterlimit:10;" d="M653.78,522.472
			c-59.29,0.152-118.581,0.304-177.872,0.456c-39.085,0.101-78.17,0.2-117.256,0.301c-11.522,0.029-23.044,0.059-34.567,0.089
			c-11.543,0.029-18.644,3.861-29.884,8.77c122.95-0.312,245.9-0.622,368.85-0.934C659.854,528.376,656.755,525.486,653.78,522.472z
			"/>
		<path style="fill:#FFFFFF;stroke:#231F20;stroke-width:2;stroke-miterlimit:10;" d="M251.962,576.598
			c135.385-0.352,270.77-0.703,406.153-1.054c3.999-0.011,15.178,2.046,18.427-0.767c-11.572-7.002-11.522-7.971-23.479-7.939
			c-12.257,0.031-24.513,0.062-36.77,0.095c-40.286,0.104-80.572,0.208-120.859,0.312c-75.719,0.196-151.438,0.392-227.157,0.588
			C257.146,567.86,258.191,566.207,251.962,576.598z"/>
		<path style="fill:#FFFFFF;stroke:#231F20;stroke-width:2;stroke-miterlimit:10;" d="M674.266,611.309
			c-128.962,0.332-257.924,0.664-386.886,0.995c-0.701,0.002-1.401,0.004-2.102,0.006c12.193,4.627,20.765,8.632,33.182,8.601
			c12.823-0.033,25.647-0.066,38.471-0.1c41.236-0.106,82.472-0.213,123.708-0.319c41.989-0.108,83.978-0.217,125.966-0.325
			c13.787-0.035,27.575-0.071,41.362-0.106C660.922,620.026,662.163,619.543,674.266,611.309z"/>
		<path style="fill:#FFFFFF;stroke:#231F20;stroke-width:2;stroke-miterlimit:10;" d="M661.234,655.892
			c-80.688,0.211-161.374,0.422-242.061,0.633c19.601,5.399,34.165,8.606,53.774,8.557c23.657-0.062,47.314-0.122,70.973-0.183
			c23.868-0.062,47.735-0.123,71.604-0.185c7.432-0.02,14.863-0.038,22.296-0.058C646.849,664.633,653.029,660.177,661.234,655.892z
			"/>
	<path style="fill:#FFFFFF;stroke:#231F20;stroke-width:2;stroke-miterlimit:10;" d="M654.546,559.113
		c51.564,48.513,135.242,51.866,199.829,35.281c-30.674,65.08-120.87,88.286-185.036,93.466c-9.391,0.759-18.805,1.21-28.223,1.396
		c-4.293-3.693-8.153-7.876-11.576-12.385c-7.898-10.403-13.465-22.435-17.422-34.836c-8.504-26.654-10.187-55.401-8.233-83.17
		c1.838-26.142,6.86-52.729,17.131-76.941c3.251-7.665,8.576-23.717,17.752-23.207c20.006,1.111,39.951,3.417,59.652,7.087
		c60.117,11.199,117.285,35.661,165.727,73.167c-12.252,13.066-30.252,21.166-46.994,26.474
		C764.619,582.1,706.448,573.841,654.546,559.113z"/>
	<path style="fill:#FFFFFF;stroke:#231F20;stroke-width:2;stroke-miterlimit:10;" d="M746.986,515.498
		c-0.101,43.52-67.59,43.365-67.489-0.155C679.593,471.822,747.087,471.978,746.986,515.498z"/>
	<path style="fill:#231F20;stroke:#231F20;stroke-width:2;stroke-miterlimit:10;" d="M730.647,515.995
		c-0.066,29.015-45.059,28.91-44.992-0.104C685.722,486.878,730.716,486.982,730.647,515.995
		C730.619,528.42,730.677,503.57,730.647,515.995z"/>
	<path style="fill:#FFFFFF;stroke:#231F20;stroke-width:2;stroke-miterlimit:10;" d="M712.455,508.188
		c-0.025,10.363-16.095,10.327-16.069-0.037C696.411,497.787,712.476,497.824,712.455,508.188
		C712.444,512.625,712.464,503.75,712.455,508.188z"/>
	<path style="fill:#FFFFFF;stroke:#231F20;stroke-width:2;stroke-miterlimit:10;" d="M267.209,605.607
		c-21.424,50.661-71.025,88.712-125.17,98.149c33.551-34.72,65.253-81.152,58.092-131.881
		c-6.394-45.297-43.36-83.104-82.859-103.176c42.622-2.43,84.792,9.694,117.275,37.943c7.816,6.798,15.049,14.348,21.445,22.5
		c4.736,5.968,12.422,12.076,7.949,18.709C251.663,566.057,255.272,588.315,267.209,605.607
		C266.7,606.811,264.887,602.243,267.209,605.607z"/>
	<path style="fill:#FFFFFF;stroke:#231F20;stroke-width:2;stroke-miterlimit:10;" d="M624.927,567.305
		c0,0-167.544-56.048-138.034,34.95C512.331,680.69,624.927,567.305,624.927,567.305z"/>
		<path style="fill:#FFFFFF;stroke:#231F20;stroke-width:2;stroke-miterlimit:10;" d="M190.546,479.731
			c-9.946,0.095-19.892,0.19-29.838,0.285c-9.954,0.095-20.772,2.482-29.209-2.993C150.294,476.845,172.878,472.696,190.546,479.731
			z"/>
		<path style="fill:#FFFFFF;stroke:#231F20;stroke-width:2;stroke-miterlimit:10;" d="M221.022,496.12
			c-11.127,0.105-22.254,0.211-33.381,0.317c-10.031,0.095-26.39,3.866-34.271-2.939c11.393-0.108,22.786-0.216,34.18-0.324
			C198.086,493.074,212.092,489.894,221.022,496.12z"/>
		<path style="fill:#FFFFFF;stroke:#231F20;stroke-width:2;stroke-miterlimit:10;" d="M241.039,512.612
			c-11.83,0.11-23.66,0.222-35.49,0.332c-9.272,0.087-29.015,4.422-35.497-2.938c11.715-0.109,23.431-0.219,35.146-0.329
			C214.987,509.586,233.622,505.374,241.039,512.612z"/>
		<path style="fill:#FFFFFF;stroke:#231F20;stroke-width:2;stroke-miterlimit:10;" d="M255.993,529.143
			c-12.336,0.117-24.672,0.235-37.008,0.353c-8.389,0.08-31.423,4.671-36.309-2.925c11.78-0.111,23.561-0.222,35.341-0.332
			C227.137,526.152,249.925,521.409,255.993,529.143z"/>
		<path style="fill:#FFFFFF;stroke:#231F20;stroke-width:2;stroke-miterlimit:10;" d="M266.724,544.239
			c-5.749,5.527-28.258,1.747-36.018,1.82c-7.847,0.074-35.495,4.808-38.949-2.902c12.304-0.116,24.607-0.232,36.911-0.349
			C235.092,542.748,263.117,538.479,266.724,544.239z"/>
		<path style="fill:#FFFFFF;stroke:#231F20;stroke-width:2;stroke-miterlimit:10;" d="M258.39,559.203
			c-2.357,7.067-23.529,3.497-30.427,3.562c-6.588,0.062-28.386,3.979-30.291-2.987C217.912,559.587,238.15,559.395,258.39,559.203z
			"/>
		<path style="fill:#FFFFFF;stroke:#231F20;stroke-width:2;stroke-miterlimit:10;" d="M256.448,579.165
			c-9.252,0.089-18.504,0.177-27.755,0.266c-6.064,0.058-27.339,3.712-28.022-2.997c9.248-0.089,18.496-0.178,27.744-0.266
			C234.562,576.108,255.634,572.441,256.448,579.165z"/>
		<path style="fill:#FFFFFF;stroke:#231F20;stroke-width:2;stroke-miterlimit:10;" d="M261.471,595.799
			c-20.266,0.189-40.532,0.378-60.798,0.567c0.616-6.801,23.634-3.488,29.8-3.546C237.77,592.752,258.071,588.703,261.471,595.799z"
			/>
		<path style="fill:#FFFFFF;stroke:#231F20;stroke-width:2;stroke-miterlimit:10;" d="M265.65,609.162
			c-3.263,7.284-24.702,3.51-31.918,3.578c-11.968,0.113-23.935,0.227-35.902,0.34c1.777-7.088,24.842-3.512,31.496-3.574
			C241.434,609.391,253.542,609.276,265.65,609.162z"/>
		<path style="fill:#FFFFFF;stroke:#231F20;stroke-width:2;stroke-miterlimit:10;" d="M256.846,625.926
			c-4.35,7.113-22.758,3.479-30.432,3.551c-11.29,0.105-22.58,0.212-33.869,0.318c2.771-7.067,23.051-3.48,29.985-3.546
			C233.969,626.142,245.408,626.033,256.846,625.926z"/>
		<path style="fill:#FFFFFF;stroke:#231F20;stroke-width:2;stroke-miterlimit:10;" d="M245.101,642.708
			c-5.521,6.93-21.794,3.476-30.077,3.554c-10.047,0.094-20.095,0.188-30.143,0.283c3.708-6.907,20.958-3.464,28.217-3.533
			C223.767,642.91,234.434,642.81,245.101,642.708z"/>
		<path style="fill:#FFFFFF;stroke:#231F20;stroke-width:2;stroke-miterlimit:10;" d="M229.435,659.535
			c-6.478,6.027-17.831,3.443-26.358,3.523c-9.377,0.089-18.755,0.177-28.132,0.265c4.394-6.699,19.456-3.455,26.952-3.526
			C211.076,659.71,220.255,659.622,229.435,659.535z"/>
		<path style="fill:#FFFFFF;stroke:#231F20;stroke-width:2;stroke-miterlimit:10;" d="M207.993,676.414
			c-11.453,7.672-31.697,3.567-45.21,3.696C169.588,671.532,197.135,676.519,207.993,676.414z"/>
		<path style="fill:#FFFFFF;stroke:#231F20;stroke-width:2;stroke-miterlimit:10;" d="M176.097,693.391
			c-9.459,3.926-17.499,3.436-27.639,3.527C154.343,690.501,167.639,693.471,176.097,693.391z"/>
	<path style="fill:#FFFFFF;stroke:#231F20;stroke-width:2;stroke-miterlimit:10;" d="M649.086,611.695
		c0,12.435-19.28,12.435-19.28,0S649.086,599.261,649.086,611.695z"/>
	<path style="fill:#FFFFFF;stroke:#231F20;stroke-width:2;stroke-miterlimit:10;" d="M698.495,610.49c0,10.881-16.87,10.881-16.87,0
		S698.495,599.609,698.495,610.49z"/>
	<path style="fill:#FFFFFF;stroke:#231F20;stroke-width:2;stroke-miterlimit:10;" d="M684.033,637.002
		c0,17.098-26.511,17.098-26.511,0C657.522,619.905,684.033,619.905,684.033,637.002z"/>
	<path style="fill:#FFFFFF;stroke:#231F20;stroke-width:2;stroke-miterlimit:10;" d="M739.468,626.156
		c0,12.435-19.279,12.435-19.279,0C720.188,613.723,739.468,613.722,739.468,626.156z"/>
	<path style="fill:#FFFFFF;stroke:#231F20;stroke-width:2;stroke-miterlimit:10;" d="M714.161,650.259
		c0,9.327-14.462,9.326-14.462,0C699.699,640.93,714.161,640.93,714.161,650.259C714.161,654.252,714.161,646.265,714.161,650.259z"
		/>
	<path style="fill:#FFFFFF;stroke:#231F20;stroke-width:2;stroke-miterlimit:10;" d="M645.47,502.029c0,9.327-14.462,9.327-14.462,0
		S645.47,492.702,645.47,502.029z"/>
	<path style="fill:#FFFFFF;stroke:#231F20;stroke-width:2;stroke-miterlimit:10;" d="M668.367,515.285
		c0,7.775-12.053,7.775-12.053,0S668.367,507.51,668.367,515.285z"/>
	<path style="fill:#FFFFFF;stroke:#231F20;stroke-width:2;stroke-miterlimit:10;" d="M645.47,540.593c0,7.775-12.051,7.775-12.051,0
		C633.419,532.816,645.47,532.816,645.47,540.593z"/>
	<path style="fill:#FFFFFF;stroke:#231F20;stroke-width:2;stroke-miterlimit:10;" d="M779.235,508.055
		c0,9.326-14.462,9.325-14.462,0C764.773,498.729,779.235,498.728,779.235,508.055C779.235,512.047,779.235,504.062,779.235,508.055
		z"/>
	<path style="fill:#FFFFFF;stroke:#231F20;stroke-width:2;stroke-miterlimit:10;" d="M810.569,516.49c0,9.328-14.462,9.328-14.462,0
		C796.107,507.163,810.569,507.163,810.569,516.49z"/>
	<path style="fill:#FFFFFF;stroke:#231F20;stroke-width:2;stroke-miterlimit:10;" d="M785.261,536.978c0,9.326-14.46,9.327-14.46,0
		C770.801,527.651,785.261,527.652,785.261,536.978z"/>
</g>
</svg>
