<?xml version="1.0" encoding="utf-8"?>
<!-- Generator: Adobe Illustrator 16.0.0, SVG Export Plug-In . SVG Version: 6.00 Build 0)  -->
<!DOCTYPE svg PUBLIC "-//W3C//DTD SVG 1.1//EN" "http://www.w3.org/Graphics/SVG/1.1/DTD/svg11.dtd">
<svg version="1.1" id="Layer_1" xmlns="http://www.w3.org/2000/svg" xmlns:xlink="http://www.w3.org/1999/xlink" x="0px" y="0px"
	 width="600px" height="600px" viewBox="0 0 600 600" enable-background="new 0 0 600 600" xml:space="preserve">
<g>
	<path fill="#FFFFFF" stroke="#231F20" stroke-width="2" stroke-linecap="square" stroke-miterlimit="10" d="M129.849,360.057
		c0,0,0.605-18.582-15.418-20.093c-16.024-1.513-26.907,13.604-25.395,16.626c1.512,3.024,11.187,1.211,11.187,1.211
		s-20.256,7.256-26,23.581c-5.745,16.326,12.999,7.255,16.628,1.511c0,0-18.315,28.116,10.644,20.559
		C130.454,395.895,129.849,360.057,129.849,360.057"/>
	<path fill="#FFFFFF" stroke="#231F20" stroke-width="2" stroke-linecap="square" stroke-miterlimit="10" d="M229.313,505.938
		c0,0,6.349,6.048,10.582,16.63c0,0-13,6.322-16.326,2.708c-3.327-3.616-4.333-22.662-4.333-22.662L229.313,505.938z"/>
	<path fill="#FFFFFF" stroke="#231F20" stroke-width="2" stroke-linecap="square" stroke-miterlimit="10" d="M148.913,508.055
		c0,0,5.727,4.776,7.541,14.513c0,0-9.069,4.23-13.906,2.114c-4.837-2.114-6.953-16.627-6.953-16.627H148.913z"/>
	<path fill="#FFFFFF" stroke="#231F20" stroke-width="2" stroke-linecap="square" stroke-miterlimit="10" d="M173.384,419.172
		c0,0-16.024,35.372-19.954,49.582c-3.929,14.208-5.138,32.349-4.231,33.859c0.906,1.511,2.451,3.629-0.286,5.441
		c-2.738,1.813-9.993,3.931-13.319,0c-3.325-3.931-1.511-85.255,4.535-93.117C146.175,407.079,168.819,416.191,173.384,419.172"/>
	<path fill="#FFFFFF" stroke="#231F20" stroke-width="2" stroke-linecap="square" stroke-miterlimit="10" d="M245.034,411.819
		c8.967,6.345-13.604,80.213-15.721,87.468c0,0,3.023,4.535,0,6.653c-3.023,2.114-11.187,0.604-13.301-1.816
		c-2.117-2.417,1.511-63.185,0-71.347C214.5,424.614,240.197,408.397,245.034,411.819"/>
	<path fill="#FFFFFF" stroke="#231F20" stroke-width="2" stroke-linecap="square" stroke-miterlimit="10" d="M231.018,282.669
		c0,0,15.344-12.096,13.59-34.235c0,0-7.06,4.249-14.27,0.007c-7.211-4.239-6.145-10.917-2.388-12.065
		c3.757-1.148,7.036,7.998,11.563,6.545c4.526-1.452,7.512-8.46-1.446-20.004s-20.825-19.655-18.328-40.855
		c2.497-21.2,31.44-24.314,38.643-13.398c7.204,10.917-16.129,21.775-14.949,32.187c1.179,10.41,10.039,21.442,10.359,25.142
		c0,0,6.374,0.693,7.798-3.341c1.426-4.035-2.098-14.117,5.327-17.089c7.425-2.973,12.343,13.125,5.143,23.337
		c-7.2,10.211-14.697,8.841-14.697,8.841s2.749,31.501-23.341,49.921C234.022,287.662,227.13,286.599,231.018,282.669"/>
	<path fill="#FFFFFF" stroke="#231F20" stroke-width="2" stroke-linecap="square" stroke-miterlimit="10" d="M205.531,281.213
		c10.731-7.077,83.844-4.914,96.742,8.024c12.899,12.938-6.853,40.348-52.401,42.363c0,0-5.644,11.49-5.241,25.496
		c0.403,14.008,16.93,43.03,4.435,63.589c-12.496,20.558-49.178,24.186-81.023,21.363c-31.843-2.822-66.511-19.349-69.735-43.131
		c-3.225-23.783,8.465-39.012,24.588-43.087c16.125-4.074,36.28,7.595,46.76,8.611c10.479,1.019,24.186-0.75,27.813-5.912
		C201.097,353.367,186.585,293.709,205.531,281.213"/>
	<path fill="#FFFFFF" stroke="#231F20" stroke-width="2" stroke-linecap="square" stroke-miterlimit="10" d="M231.732,330.568
		c0,0-3.628,15.822,0,31.654c3.628,15.834,5.14,40.02-9.373,52.715c-14.511,12.699-61.976,8.165-81.625-1.812
		c-13.675-6.942-17.537,6.312-18.624,15.019c13.1,7.568,29.873,12.48,45.934,13.904c31.843,2.823,68.526-0.807,81.021-21.364
		c12.495-20.557-4.031-49.582-4.435-63.588c-0.403-14.006,5.241-25.496,5.241-25.496S242.275,332.786,231.732,330.568"/>
	<path fill="#FFFFFF" stroke="#231F20" stroke-width="2" stroke-linecap="square" stroke-miterlimit="10" d="M293.809,279.456
		c19.844-0.104,30.231,10.144,27.813,18.042c-2.418,7.898-8.062,13.441-25.396,15.104c-17.333,1.664-26.604-10.447-27.409-16.887
		C268.01,289.275,274.057,279.561,293.809,279.456"/>
	<path fill="#FFFFFF" stroke="#231F20" stroke-width="2" stroke-linecap="square" stroke-miterlimit="10" d="M231.732,315.677
		c0,0,16.326,4.636,24.185,5.039c0,0-3.425,7.658-10.279,8.868C238.786,330.793,231.732,319.307,231.732,315.677"/>
	<path fill="#FFFFFF" stroke="#231F20" stroke-width="2" stroke-linecap="square" stroke-miterlimit="10" d="M236.771,304.004
		c0,3.014-3.926,5.458-8.768,5.458c-4.842,0-8.767-2.442-8.767-5.458c0-3.015,3.924-5.459,8.767-5.459
		C232.844,298.545,236.771,300.989,236.771,304.004"/>
	<path fill="#231F20" stroke="#231F20" stroke-width="2" stroke-linecap="square" stroke-miterlimit="10" d="M238.95,289.056
		c0.408,2.809-0.87,5.32-2.852,5.607c-1.983,0.289-3.92-1.755-4.328-4.564c-0.408-2.81,0.869-5.321,2.852-5.607
		C236.604,284.203,238.542,286.247,238.95,289.056"/>
	<path fill="#231F20" stroke="#231F20" stroke-width="2" stroke-linecap="square" stroke-miterlimit="10" d="M251.082,287.141
		c0.407,2.809-0.87,5.32-2.852,5.607c-1.983,0.288-3.922-1.755-4.329-4.564c-0.408-2.809,0.869-5.32,2.851-5.607
		C248.736,282.288,250.673,284.331,251.082,287.141"/>
	<path fill="#FFFFFF" stroke="#231F20" stroke-width="2" stroke-linecap="square" stroke-miterlimit="10" d="M201.96,279.455
		c4.191-7.896,27.882-8.42,29.734-6.003c1.852,2.42-3.691,4.237-3.691,4.237s4.433,3.151,0,5.958c-4.435,2.807-12.9,0-12.9,0
		s4.233,2.504,0.302,4.016C211.477,289.173,199.095,284.853,201.96,279.455"/>
	<path fill="#FFFFFF" stroke="#231F20" stroke-width="2" stroke-linecap="square" stroke-miterlimit="10" d="M203.569,287.818
		c0,0-21.524-2.727-32.529-24.796c0,0,9.15,0,13.583-8.164c4.433-8.162-0.403-13.906-4.635-12.849
		c-4.233,1.058-2.117,11.64-7.256,12.849c-5.14,1.209-11.993-3.75-10.077-19.864c1.915-16.112,8.565-30.625-5.945-49.368
		c-14.512-18.744-43.837-5.14-44.441,9.373c-0.605,14.51,27.813,11.488,32.651,22.068c4.835,10.582,2.719,26.151,4.533,29.854
		c0,0-5.669,4.31-9.334,1.285c-3.665-3.022-6.083-14.634-14.852-13.213c-8.768,1.423-4.233,19.557,8.466,25.152
		c12.696,5.595,19.046,0,19.046,0s15.418,29.131,50.789,31.723C203.569,291.87,209.517,289.333,203.569,287.818"/>
	<path fill="#FFFFFF" stroke="#231F20" stroke-width="2" stroke-linecap="square" stroke-miterlimit="10" d="M207.352,293.777
		c0,0-6.65,2.201-9.876,0c-3.226-2.2-13.101-16.91-31.239,10.299c0,0,8.666,12.093,22.774,11.085
		c14.108-1.009,12.898-10.736,21.163-13.631"/>
	<path fill="#FFFFFF" stroke="#231F20" stroke-width="2" stroke-linecap="square" stroke-miterlimit="10" d="M138.24,508.055
		c0,0,7.632,12.396,8.54,18.139c0,0-13.6,1.815-16.928,0c-3.328-1.813-5.164-13.09-4.398-15.917
		C126.222,507.45,138.24,508.055,138.24,508.055"/>
	<path fill="#FFFFFF" stroke="#231F20" stroke-width="2" stroke-linecap="square" stroke-miterlimit="10" d="M153.43,403.451
		c0,0-12.092,39.604-14.813,50.791c-2.721,11.186-1.209,53.743,0,55.593c1.21,1.847-6.954,3.663-12.093,2.755
		c-5.14-0.908-1.209-6.65-1.511-9.976c-0.303-3.325-13-63.791-16.628-71.952c-3.628-8.164-12.665-27.729-10.604-40.432
		C99.844,377.525,151.919,369.289,153.43,403.451"/>
	<path fill="#FFFFFF" stroke="#231F20" stroke-width="2" stroke-linecap="square" stroke-miterlimit="10" d="M220.518,506.358
		c0,0,9.703,13.588,11.214,20.642c0,0-15.116,2.621-19.349,0c-4.232-2.62-2.721-20.642-2.721-20.642H220.518z"/>
	<path fill="#FFFFFF" stroke="#231F20" stroke-width="2" stroke-linecap="square" stroke-miterlimit="10" d="M224.477,395.57
		c0,0-0.021,0.428-0.061,1.229c-0.558,11.226-4.716,95.817-3.87,104.001c0,0,2.608,5.745,1.909,7.559
		c-0.698,1.812-13.094,2.115-15.815,0c-2.721-2.115,0.303-3.326,0-11.488c-0.302-8.163-9.473-64.092-15.016-87.976
		C186.081,385.009,222.058,388.293,224.477,395.57"/>
	<path fill="#FFFFFF" stroke="#231F20" stroke-width="2" stroke-linecap="square" stroke-miterlimit="10" d="M200.688,301.271
		c0,0-6.073-4.691-12.074-6.582c-5.453-1.717-11.534,5.41-13.347,8.585c0,0,3.235,7.681,12.652,6.186
		S198.057,302.179,200.688,301.271"/>
</g>
<path fill="none" stroke="#000000" stroke-width="2" d="M129.197,134.619c-2.108-0.406-3.91-1.379-5.409-2.917
	c-1.5-1.54-2.249-3.443-2.249-5.713V74.818c-1.458,0.243-2.877,0.061-4.254-0.547c-1.378-0.607-2.473-1.417-3.282-2.431
	c-0.811-1.012-1.276-2.188-1.397-3.525s0.304-2.613,1.276-3.829c1.052-1.377,2.31-2.532,3.768-3.464
	c1.458-0.931,2.997-1.702,4.619-2.309c1.62-0.608,3.301-1.113,5.044-1.52c1.742-0.404,3.422-0.769,5.044-1.094
	c4.537-0.729,9.074-0.912,13.613-0.547c4.537,0.365,8.832,1.358,12.884,2.978c4.051,1.622,7.758,3.89,11.122,6.807
	c3.361,2.917,6.096,6.563,8.204,10.939c1.295,2.674,2.228,5.451,2.796,8.326c0.566,2.877,0.891,5.773,0.972,8.691
	c0.08,3.81-0.365,7.496-1.337,11.061c-0.972,3.567-2.431,6.909-4.375,10.028c-1.945,3.12-4.296,5.895-7.05,8.326
	c-2.756,2.431-5.834,4.458-9.238,6.078c-2.999,1.377-6.18,2.389-9.542,3.039c-3.363,0.647-6.666,1.215-9.906,1.702
	c-1.622,0.243-3.343,0.505-5.166,0.79c-1.823,0.283-3.585,0.425-5.287,0.425L129.197,134.619z M142.325,70.077
	c-1.054,0-2.047,0.042-2.978,0.122c-0.933,0.082-1.926,0.204-2.978,0.365v48.74c0.486,0,0.891-0.04,1.215-0.122
	c0.323-0.08,0.648-0.122,0.973-0.122c0.323,0,0.607-0.04,0.851-0.121c1.134-0.162,2.066-0.283,2.796-0.365
	c0.729-0.08,1.417-0.183,2.066-0.304c0.648-0.121,1.316-0.262,2.006-0.425c0.688-0.161,1.478-0.365,2.37-0.607
	c4.699-1.216,8.406-3.14,11.122-5.774c2.714-2.632,4.759-6.259,6.138-10.878c0.891-2.674,1.295-5.388,1.215-8.144
	c-0.082-2.754-0.589-5.388-1.52-7.9c-0.932-2.511-2.29-4.801-4.072-6.868c-1.783-2.066-3.971-3.707-6.563-4.922
	c-2.108-0.973-4.193-1.62-6.26-1.945C146.64,70.484,144.512,70.241,142.325,70.077z"/>
<path fill="none" stroke="#000000" stroke-width="2" d="M236.764,57.437c0.323-2.997,1.356-5.206,3.099-6.625
	c1.742-1.417,3.586-2.106,5.53-2.066c1.945,0.042,3.747,0.79,5.409,2.249c1.66,1.458,2.531,3.525,2.613,6.199
	c0.161,2.756-0.547,4.883-2.127,6.381c-1.58,1.5-3.384,2.351-5.409,2.552c-2.026,0.203-3.931-0.344-5.712-1.641
	c-1.784-1.295-2.877-3.362-3.282-6.199L236.764,57.437z M252.808,126.597c-0.163,1.622-0.729,3.06-1.702,4.315
	c-0.972,1.255-2.087,2.167-3.342,2.735c-1.257,0.566-2.613,0.688-4.072,0.365c-1.458-0.325-2.755-1.216-3.889-2.674
	c-0.649-0.811-1.115-1.721-1.398-2.735c-0.285-1.012-0.467-2.066-0.547-3.16c-0.082-1.094-0.103-2.188-0.061-3.282
	c0.04-1.094,0.061-2.085,0.061-2.978c-0.082-4.78-0.103-9.521-0.061-14.221c0.04-4.699,0.019-9.439-0.061-14.221
	c0-1.945-0.122-3.908-0.365-5.895c-0.243-1.984-0.122-3.95,0.365-5.895c0.404-1.458,1.113-2.714,2.127-3.768
	c1.012-1.052,2.146-1.781,3.403-2.188c1.255-0.405,2.553-0.444,3.89-0.122c1.337,0.325,2.492,1.175,3.464,2.552
	c1.295,1.622,1.945,3.221,1.945,4.801s0,3.506,0,5.773c0,2.756,0,5.511,0,8.265c0,2.756,0.04,5.47,0.122,8.144
	c0.08,3.89,0.122,7.779,0.122,11.668c0,3.89,0,7.779,0,11.669L252.808,126.597L252.808,126.597z"/>
<path fill="none" stroke="#000000" stroke-width="2" d="M263.382,121.856c-0.486-1.377-0.689-2.735-0.607-4.072
	c0.08-1.337,0.425-2.553,1.033-3.646c0.607-1.094,1.478-1.945,2.613-2.553c1.134-0.607,2.511-0.83,4.132-0.668
	c0.891,0.082,1.702,0.325,2.431,0.729c0.729,0.406,1.397,0.893,2.005,1.458c0.608,0.568,1.215,1.176,1.823,1.823
	c0.608,0.649,1.234,1.215,1.884,1.702c1.377,1.054,2.835,1.823,4.376,2.31c1.538,0.486,3.16,0.851,4.862,1.094
	c1.134,0,2.045-0.283,2.735-0.851c0.688-0.566,1.155-1.255,1.398-2.066c0.243-0.809,0.304-1.681,0.182-2.613
	c-0.122-0.931-0.425-1.681-0.912-2.249c-1.379-1.376-3.06-2.268-5.044-2.674c-1.986-0.404-3.829-0.891-5.53-1.458
	c-2.431-0.809-4.822-1.842-7.171-3.1c-2.351-1.255-4.254-2.978-5.712-5.166c-1.541-2.268-2.452-4.68-2.735-7.232
	c-0.285-2.553-0.082-5.044,0.608-7.475c0.688-2.431,1.842-4.659,3.464-6.686c1.62-2.024,3.565-3.686,5.834-4.983
	c1.702-0.972,3.564-1.599,5.591-1.884c2.025-0.283,4.072-0.344,6.138-0.182c2.066,0.163,4.112,0.547,6.138,1.154
	c2.024,0.608,3.89,1.276,5.591,2.006c1.945,0.893,3.403,2.148,4.375,3.768c0.974,1.622,1.438,3.263,1.398,4.922
	c-0.042,1.662-0.608,3.1-1.702,4.315s-2.695,1.823-4.801,1.823c-1.297,0-2.473-0.222-3.525-0.668
	c-1.054-0.444-2.148-0.87-3.282-1.276c-1.458-0.566-3.039-0.952-4.74-1.155c-1.702-0.201-3.081-0.101-4.133,0.304
	c-0.325,0.082-0.689,0.346-1.094,0.79c-0.406,0.446-0.71,0.993-0.912,1.641c-0.203,0.649-0.243,1.297-0.122,1.945
	c0.122,0.649,0.547,1.176,1.276,1.58c1.945,1.054,4.011,1.865,6.199,2.431c2.188,0.568,4.334,1.215,6.442,1.945
	c2.106,0.729,4.072,1.662,5.895,2.795c1.822,1.136,3.343,2.756,4.558,4.862c1.782,3.081,2.693,6.301,2.735,9.663
	c0.04,3.363-0.628,6.502-2.005,9.42c-1.38,2.917-3.403,5.409-6.078,7.475c-2.674,2.066-5.794,3.301-9.359,3.707
	c-2.513,0.243-4.983,0.101-7.415-0.425c-2.431-0.528-4.782-1.379-7.049-2.553c-2.27-1.175-4.376-2.571-6.321-4.193
	c-1.945-1.62-3.646-3.321-5.105-5.105L263.382,121.856z"/>
<path fill="none" stroke="#000000" stroke-width="2" d="M383.591,131.458c-1.054,1.295-2.27,2.188-3.646,2.674
	c-1.379,0.486-2.795,0.486-4.254,0c-1.459-0.486-2.675-1.581-3.646-3.282c-0.407-0.649-0.729-1.337-0.973-2.066
	c-0.243-0.729-0.365-1.458-0.365-2.188V94.63c-1.54,0-2.938-0.425-4.193-1.276c-1.257-0.851-2.188-1.903-2.795-3.16
	c-0.607-1.255-0.832-2.592-0.668-4.011c0.162-1.417,0.81-2.734,1.945-3.95c0.809-0.891,1.681-1.478,2.613-1.762
	c0.931-0.283,1.924-0.465,2.978-0.547c-0.082-2.511-0.143-4.983-0.183-7.415c-0.042-2.431,0.141-4.862,0.547-7.293
	c0.486-3.808,1.62-7.05,3.402-9.724c1.782-2.674,3.99-4.74,6.625-6.199c2.633-1.458,5.57-2.31,8.812-2.553
	c3.24-0.243,6.604,0.243,10.088,1.458c1.458,0.486,2.856,1.094,4.193,1.823s2.532,1.662,3.586,2.796
	c0.729,0.811,1.255,1.762,1.58,2.856c0.322,1.094,0.383,2.188,0.182,3.282c-0.203,1.094-0.607,2.108-1.215,3.039
	c-0.608,0.932-1.479,1.641-2.613,2.127c-1.541,0.649-3.06,0.811-4.558,0.486c-1.5-0.323-2.979-0.851-4.438-1.58
	c-0.893-0.323-1.743-0.648-2.552-0.973c-0.811-0.323-1.662-0.566-2.553-0.729c-0.894-0.162-1.702-0.04-2.432,0.364
	c-0.729,0.407-1.357,0.954-1.884,1.641c-0.527,0.689-0.933,1.458-1.215,2.31c-0.285,0.851-0.425,1.683-0.425,2.492
	c-0.082,1.865-0.104,3.749-0.062,5.652c0.04,1.905,0.062,3.789,0.062,5.652c1.215-0.08,2.511-0.162,3.889-0.243
	c1.377-0.08,2.735-0.122,4.072-0.122s2.572,0.042,3.708,0.122c1.134,0.082,2.024,0.243,2.674,0.486
	c1.295,0.486,2.351,1.236,3.16,2.249c0.809,1.014,1.337,2.108,1.58,3.282c0.243,1.176,0.141,2.37-0.304,3.585
	c-0.446,1.216-1.236,2.27-2.37,3.16c-1.054,0.811-2.271,1.379-3.646,1.702c-1.379,0.325-2.837,0.547-4.375,0.669
	c-1.541,0.122-3.039,0.163-4.498,0.122c-1.458-0.04-2.755-0.061-3.889-0.061v32.453
	C385.292,128.623,384.643,130.162,383.591,131.458z"/>
<path fill="none" stroke="#000000" stroke-width="2" d="M406.198,100.95c0.565-2.349,1.355-4.659,2.37-6.928
	c1.012-2.268,2.249-4.437,3.707-6.502c1.459-2.066,3.1-3.951,4.923-5.652c1.823-1.701,3.787-3.078,5.895-4.132
	c3.727-1.945,7.476-2.936,11.243-2.978c3.768-0.04,7.272,0.71,10.514,2.249c3.24,1.541,5.996,3.829,8.266,6.868
	c2.268,3.039,3.768,6.666,4.498,10.878c0.403,2.755,0.626,5.369,0.668,7.84c0.04,2.473-0.225,5.044-0.79,7.718
	c-0.812,3.81-2.452,7.597-4.923,11.364c-2.474,3.768-5.431,6.928-8.873,9.481c-3.445,2.552-7.213,4.233-11.305,5.044
	c-4.093,0.809-8.205,0.162-12.337-1.945c-1.864-0.893-3.546-1.925-5.044-3.099c-1.5-1.174-2.855-2.572-4.072-4.193
	c-1.379-1.782-2.451-3.646-3.221-5.591c-0.771-1.945-1.397-3.969-1.884-6.077c-0.568-2.268-0.771-4.558-0.607-6.868
	c0.161-2.309,0.444-4.558,0.852-6.746L406.198,100.95z M420.784,103.503c-0.243,1.297-0.446,2.573-0.607,3.829
	c-0.164,1.257-0.164,2.533,0,3.829c0.243,1.865,0.748,3.567,1.52,5.105c0.77,1.541,1.782,2.756,3.039,3.646
	c1.255,0.893,2.692,1.358,4.313,1.398c1.62,0.042,3.362-0.465,5.228-1.52c2.35-1.377,4.376-3.504,6.077-6.381
	c1.702-2.875,2.755-5.874,3.16-8.994c0.404-3.119,0.08-6.078-0.972-8.873c-1.054-2.795-3.121-4.801-6.199-6.017
	c-2.025,0-3.89,0.385-5.591,1.155c-1.702,0.771-3.181,1.783-4.436,3.039c-1.258,1.257-2.353,2.735-3.282,4.438
	C422.1,99.856,421.35,101.64,420.784,103.503z"/>
<path fill="none" stroke="#000000" stroke-width="2" d="M469.4,92.503c0.08-0.526,0.04-1.478-0.122-2.856
	c-1.298-0.729-2.311-1.66-3.039-2.796c-0.729-1.134-1.155-2.349-1.276-3.646c-0.122-1.295,0.122-2.532,0.729-3.708
	c0.607-1.173,1.599-2.167,2.978-2.978c1.863-1.052,3.909-1.255,6.138-0.608c2.229,0.649,4.152,1.622,5.773,2.917
	c2.024-1.538,4.133-2.835,6.32-3.889c2.188-1.052,4.416-1.763,6.685-2.127c2.268-0.364,4.577-0.304,6.928,0.183
	c2.351,0.486,4.659,1.5,6.929,3.039c1.134,0.729,2.188,1.641,3.159,2.735c0.974,1.094,1.58,2.33,1.823,3.707
	c0.405,2.026,0.243,3.789-0.485,5.287c-0.729,1.5-1.744,2.595-3.039,3.282c-1.297,0.689-2.756,0.893-4.375,0.607
	c-1.622-0.283-3.16-1.155-4.619-2.613c-0.486-0.323-0.832-0.587-1.033-0.79c-0.203-0.201-0.629-0.465-1.276-0.79
	c-1.297-0.323-2.572-0.243-3.829,0.243c-1.257,0.486-2.473,1.155-3.646,2.005c-1.176,0.851-2.271,1.784-3.282,2.796
	c-1.014,1.014-1.926,1.926-2.734,2.735v30.994c0,1.216-0.243,2.391-0.729,3.525c-0.729,1.863-1.884,3.16-3.464,3.89
	c-1.58,0.729-3.16,0.931-4.74,0.607c-1.58-0.325-2.959-1.135-4.133-2.431c-1.175-1.297-1.762-2.957-1.762-4.983V92.807
	C469.279,93.131,469.319,93.031,469.4,92.503z"/>
<path fill="none" stroke="#000000" stroke-width="2" d="M296.987,530.619c-2.108-0.406-3.91-1.379-5.409-2.917
	c-1.5-1.54-2.249-3.443-2.249-5.713v-51.171c-1.458,0.242-2.877,0.061-4.254-0.547c-1.378-0.607-2.473-1.417-3.282-2.432
	c-0.811-1.012-1.276-2.188-1.397-3.524s0.304-2.613,1.276-3.829c1.052-1.377,2.31-2.532,3.768-3.464s2.997-1.702,4.619-2.31
	c1.62-0.607,3.301-1.113,5.044-1.52c1.742-0.404,3.422-0.77,5.044-1.095c4.537-0.729,9.074-0.911,13.613-0.547
	c4.537,0.365,8.832,1.358,12.885,2.979c4.051,1.622,7.758,3.89,11.121,6.807c3.361,2.917,6.097,6.563,8.204,10.939
	c1.295,2.674,2.229,5.45,2.796,8.325c0.566,2.878,0.892,5.773,0.973,8.691c0.08,3.811-0.365,7.496-1.337,11.062
	c-0.973,3.566-2.432,6.908-4.375,10.027c-1.945,3.12-4.296,5.896-7.051,8.326c-2.756,2.431-5.834,4.458-9.237,6.078
	c-2.999,1.377-6.181,2.389-9.542,3.039c-3.363,0.646-6.666,1.215-9.906,1.702c-1.622,0.243-3.343,0.505-5.166,0.79
	c-1.823,0.282-3.585,0.425-5.287,0.425L296.987,530.619z M310.114,466.077c-1.055,0-2.047,0.042-2.979,0.122
	c-0.933,0.082-1.926,0.204-2.978,0.365v48.739c0.486,0,0.891-0.04,1.215-0.122c0.322-0.08,0.648-0.122,0.973-0.122
	c0.323,0,0.607-0.04,0.852-0.12c1.134-0.162,2.065-0.283,2.796-0.365c0.729-0.08,1.417-0.184,2.065-0.305
	c0.648-0.12,1.316-0.262,2.007-0.425c0.688-0.161,1.478-0.364,2.369-0.606c4.699-1.216,8.406-3.141,11.122-5.774
	c2.715-2.632,4.76-6.259,6.139-10.878c0.891-2.674,1.295-5.388,1.215-8.144c-0.082-2.754-0.589-5.389-1.521-7.9
	c-0.932-2.511-2.29-4.801-4.071-6.868c-1.783-2.065-3.972-3.707-6.563-4.922c-2.107-0.973-4.192-1.62-6.26-1.945
	C314.429,466.484,312.302,466.241,310.114,466.077z"/>
<path fill="none" stroke="#000000" stroke-width="2" d="M401.396,509.713c1.944-0.486,3.666-0.505,5.166-0.061
	c1.498,0.445,2.652,1.196,3.464,2.249c0.809,1.054,1.173,2.352,1.094,3.89c-0.082,1.54-0.771,3.16-2.066,4.862
	c-1.054,1.379-2.512,2.553-4.375,3.524c-1.864,0.974-3.605,1.744-5.227,2.311c-3.972,1.458-7.739,2.471-11.304,3.039
	c-3.567,0.565-6.909,0.565-10.028,0c-3.12-0.568-6.038-1.744-8.751-3.525c-2.716-1.781-5.247-4.294-7.598-7.536
	c-1.621-2.188-2.815-4.679-3.584-7.475c-0.771-2.795-1.197-5.652-1.276-8.569c-0.082-2.917,0.162-5.792,0.729-8.63
	c0.566-2.835,1.377-5.388,2.432-7.657c1.377-2.835,3.564-5.428,6.562-7.778c2.997-2.35,6.321-4.213,9.967-5.592
	c3.646-1.376,7.373-2.167,11.184-2.37c3.808-0.2,7.171,0.387,10.088,1.764c2.431,1.136,4.516,2.775,6.26,4.922
	c1.741,2.147,2.937,4.479,3.585,6.989c0.647,2.513,0.708,5.044,0.183,7.597c-0.528,2.552-1.845,4.883-3.95,6.989
	c-2.026,2.025-4.254,3.667-6.686,4.923c-2.431,1.257-4.942,2.351-7.535,3.282c-2.595,0.933-5.248,1.723-7.962,2.37
	c-2.716,0.648-5.329,1.379-7.84,2.188c1.702,1.944,3.646,3.181,5.834,3.707c2.188,0.528,4.477,0.628,6.867,0.304
	c2.389-0.322,4.801-0.991,7.232-2.005c2.431-1.012,4.698-2.127,6.807-3.343L401.396,509.713z M376.843,488.807
	c-1.864,1.055-3.242,2.37-4.132,3.95c-0.893,1.58-1.541,3.789-1.945,6.625c2.106-0.647,4.477-1.337,7.11-2.065
	c2.632-0.729,5.124-1.499,7.475-2.311c2.351-0.809,4.334-1.702,5.956-2.674c1.62-0.973,2.432-2.024,2.432-3.16
	c0-0.647-0.104-1.275-0.305-1.884c-0.203-0.607-0.628-1.033-1.275-1.276c-2.271-0.809-4.619-0.973-7.05-0.485
	c-2.432,0.485-4.457,1.176-6.077,2.065L376.843,488.807z"/>
<path fill="none" stroke="#000000" stroke-width="2" d="M461.684,509.713c1.945-0.486,3.666-0.505,5.166-0.061
	c1.499,0.445,2.653,1.196,3.465,2.249c0.809,1.054,1.173,2.352,1.094,3.89c-0.082,1.54-0.771,3.16-2.066,4.862
	c-1.054,1.379-2.512,2.553-4.375,3.524c-1.865,0.974-3.605,1.744-5.227,2.311c-3.972,1.458-7.739,2.471-11.305,3.039
	c-3.566,0.565-6.908,0.565-10.027,0c-3.12-0.568-6.038-1.744-8.751-3.525c-2.716-1.781-5.247-4.294-7.598-7.536
	c-1.622-2.188-2.815-4.679-3.585-7.475c-0.771-2.795-1.196-5.652-1.275-8.569c-0.082-2.917,0.162-5.792,0.729-8.63
	c0.566-2.835,1.377-5.388,2.432-7.657c1.377-2.835,3.564-5.428,6.562-7.778c2.997-2.35,6.321-4.213,9.967-5.592
	c3.646-1.376,7.373-2.167,11.184-2.37c3.808-0.2,7.171,0.387,10.088,1.764c2.431,1.136,4.516,2.775,6.26,4.922
	c1.741,2.147,2.936,4.479,3.585,6.989c0.647,2.513,0.708,5.044,0.183,7.597c-0.528,2.552-1.845,4.883-3.95,6.989
	c-2.026,2.025-4.254,3.667-6.686,4.923c-2.431,1.257-4.942,2.351-7.536,3.282c-2.594,0.933-5.248,1.723-7.961,2.37
	c-2.716,0.648-5.329,1.379-7.84,2.188c1.702,1.944,3.646,3.181,5.834,3.707c2.188,0.528,4.477,0.628,6.867,0.304
	c2.389-0.322,4.801-0.991,7.232-2.005c2.431-1.012,4.698-2.127,6.807-3.343L461.684,509.713z M437.131,488.807
	c-1.865,1.055-3.242,2.37-4.132,3.95c-0.893,1.58-1.541,3.789-1.945,6.625c2.106-0.647,4.477-1.337,7.11-2.065
	c2.632-0.729,5.124-1.499,7.475-2.311c2.351-0.809,4.334-1.702,5.956-2.674c1.62-0.973,2.432-2.024,2.432-3.16
	c0-0.647-0.104-1.275-0.305-1.884c-0.202-0.607-0.628-1.033-1.275-1.276c-2.271-0.809-4.619-0.973-7.05-0.485
	c-2.432,0.485-4.457,1.176-6.077,2.065L437.131,488.807z"/>
<path fill="none" stroke="#000000" stroke-width="2" d="M483.926,488.503c0.08-0.526,0.04-1.478-0.122-2.855
	c-1.297-0.729-2.31-1.66-3.039-2.797c-0.729-1.134-1.154-2.349-1.275-3.646c-0.122-1.295,0.122-2.532,0.729-3.708
	c0.608-1.173,1.6-2.167,2.979-2.979c1.862-1.052,3.909-1.255,6.138-0.607c2.229,0.648,4.152,1.622,5.773,2.917
	c2.023-1.538,4.133-2.835,6.319-3.889c2.188-1.053,4.416-1.764,6.686-2.128c2.268-0.363,4.577-0.304,6.928,0.184
	c2.35,0.486,4.659,1.5,6.928,3.039c1.134,0.729,2.188,1.641,3.16,2.734c0.973,1.095,1.58,2.33,1.823,3.707
	c0.404,2.026,0.243,3.789-0.486,5.287c-0.729,1.5-1.744,2.596-3.039,3.282c-1.297,0.689-2.755,0.893-4.375,0.607
	c-1.622-0.283-3.16-1.155-4.619-2.613c-0.485-0.323-0.832-0.587-1.033-0.79c-0.202-0.201-0.629-0.465-1.275-0.79
	c-1.297-0.323-2.573-0.243-3.829,0.243c-1.257,0.485-2.473,1.155-3.646,2.005c-1.176,0.851-2.27,1.784-3.281,2.796
	c-1.015,1.014-1.927,1.926-2.735,2.735v30.994c0,1.216-0.243,2.391-0.729,3.524c-0.729,1.863-1.885,3.16-3.465,3.89
	s-3.16,0.932-4.739,0.607c-1.58-0.325-2.959-1.135-4.134-2.431c-1.175-1.297-1.762-2.957-1.762-4.983v-34.033
	C483.804,489.131,483.844,489.031,483.926,488.503z"/>
</svg>
