<?xml version="1.0" encoding="utf-8"?>
<!-- Generator: Adobe Illustrator 16.0.0, SVG Export Plug-In . SVG Version: 6.00 Build 0)  -->
<!DOCTYPE svg PUBLIC "-//W3C//DTD SVG 1.1//EN" "http://www.w3.org/Graphics/SVG/1.1/DTD/svg11.dtd">
<svg version="1.1" id="Layer_1" xmlns="http://www.w3.org/2000/svg" xmlns:xlink="http://www.w3.org/1999/xlink" x="0px" y="0px"
	 width="100%" height="100%" viewBox="0 0 600 600" enable-background="new 0 0 600 600" xml:space="preserve">
<path fill="#FFFFFF" stroke="#000000" stroke-width="2" d="M394.402,181.576c21.16,7.416,35.222,30.081,40.391,50.739
	c4.312,17.237,4.256,35.201,5.555,52.819c1.143,15.507,2.922,32.687,12.616,45.499c-0.714,1.165-1.428,2.33-2.143,3.495
	c-20.818-18.905-18.118-51.067-24.802-75.893C418.865,231.658,407.373,205.817,394.402,181.576"/>
<path fill="#FFFFFF" stroke="#000000" stroke-width="2" d="M451.253,353.359c-6.472-0.01-8.32-7.361-7.826-12.59
	c0.744-7.873,5.744-13.983,12.939-17.035c5.73-2.43,16.008-3.803,19.817,2.681c2.969,5.049-0.972,9.552-5.684,11.175
	c10.311,2.37,24.593,11.223,17.666,23.66c-2.721,4.886-8.359,5.635-13.114,3.35c-8.608-4.139-13.39-14.299-16.176-22.879
	C459.578,347.121,457.7,353.367,451.253,353.359"/>
<path fill="#FFFFFF" stroke="#000000" stroke-width="2" d="M195.455,371.827c2.652,2.787,2.774,11.673,3.485,15.229
	c1.788,8.948,3.517,17.945,5.966,26.741c1.459,5.24,2.398,10.552,8.217,12.015c9.062,2.276,19.246,1.844,28.469,1.019
	c4.892-0.438,13.199-0.235,15.201-5.76c2.414-6.658,2.333-14.503,2.518-21.485c0.343-12.995-0.09-26.041-0.919-39.012
	C237.413,364.325,216.434,368.076,195.455,371.827z"/>
<path fill="#FFFFFF" stroke="#000000" stroke-width="2" d="M266.82,360.574c1.564,15.303,3.375,30.615,5.872,45.795
	c1.021,6.199,1.416,15.073,5.032,20.474c3.082,4.605,16.949,2.476,21.373,2.222c9.805-0.562,20.237-1.402,29.625-4.486
	c6.08-1.997,5.959-7.326,6.666-13.068c2.136-17.361,2.569-35.003,2.985-52.478c0.01-0.382,0.019-0.763,0.026-1.144
	C314.539,358.784,290.679,359.679,266.82,360.574z"/>
<path fill="#FFFFFF" stroke="#000000" stroke-width="2" d="M350.537,353.259c-1.082,5.224,1.422,12.954,2.144,18.124
	c1.4,10.021,2.893,20.037,4.686,29.996c0.792,4.402,0.558,11.65,5.402,13.432c9.302,3.422,20.415,4.494,30.229,3.63
	c8.036-0.708,14.528-3.144,17.746-10.755c3.315-7.84,5.134-16.381,6.886-24.678c4.509-21.361,7.554-43.099,9.844-64.805
	c0.485-4.604,0.934-9.212,1.242-13.831c0.133-1.99,1.074-6.065-0.308-7.792c-3.917-4.888-18.139,2.992-21.875,4.812
	c-12.458,6.066-24.247,13.906-34.731,22.959C363.145,331.829,352.958,341.562,350.537,353.259"/>
<path fill="#FFFFFF" stroke="#000000" stroke-width="2" d="M214.82,426.183c-1.474-4.957-2.496-10.847-0.965-15.892
	c2.074-6.839,9.733-7.883,13.215-1.721c2.9,5.134,3.747,11.542,4.202,17.34C231.567,429.677,217.379,427.107,214.82,426.183"/>
<path fill="#FFFFFF" stroke="#000000" stroke-width="2" d="M248.993,425.847c0.715-5.048,1.835-19.479-6.606-18.552
	c-7.485,0.822-9.987,14.15-11.024,20.029C237.13,427.396,243.422,427.497,248.993,425.847"/>
<path fill="#FFFFFF" stroke="#000000" stroke-width="2" d="M308.189,428.317c-0.366-5.264-0.336-10.718,0.701-15.902
	c1.292-6.464,6.566-12.048,11.338-4.49c1.012,1.604,7.062,17.44,3.218,18.034C318.36,426.745,313.275,427.531,308.189,428.317z"/>
<path fill="#FFFFFF" stroke="#000000" stroke-width="2" d="M286.26,429.177c-1.13-6.117-5.055-32.303,7.618-28.968
	c8.556,2.252,10.104,17.183,10.63,24.117c0.403,5.329-0.22,4.411-5.029,4.714C295.131,429.315,290.602,429.714,286.26,429.177"/>
<path fill="#FFFFFF" stroke="#000000" stroke-width="2" d="M366.255,415.882c-1.181-5.097-2.708-26.843,8.399-22.13
	c7.098,3.011,6.092,18.352,5.826,24.564C375.765,417.758,370.798,417.317,366.255,415.882"/>
<path fill="#FFFFFF" stroke="#000000" stroke-width="2" d="M385.51,418.315c-0.638-5.296-0.454-11.009,1.257-16.09
	c1.403-4.167,10.031-14.431,13.552-6.616c2.44,5.42,0.971,12.879-0.014,18.494c-0.203,1.157-0.014,3.132-1.324,3.27
	C394.516,417.845,390.004,418.315,385.51,418.315"/>
<path fill="#FFFFFF" stroke="#000000" stroke-width="2" d="M219.565,365.663c9.605,5.063,21.227,7.011,31.84,8.403
	c31.155,4.091,64.618,1.982,94.91-6.297c24.386-6.668,48.829-18.274,66.35-36.94c14.753-15.72,17.954-34.315,17.589-55.396
	c-0.438-25.342-4.262-55.614-18.281-77.413c-12.678-19.714-38.346-29.754-60.357-33.915c-33.223-6.28-69.272-0.436-99.211,15.177
	c-18.565,9.682-31.18,26.959-38.418,46.269c-10.09,26.916-11.299,56.973-8.523,85.33c1.156,11.809,3.054,23.605,6.127,35.074
	C213.332,352.463,215.227,360.292,219.565,365.663"/>
<path fill="#FFFFFF" stroke="#000000" stroke-width="2" d="M315.083,210.978c16.281,27.775,10.447,64.932-1.496,92.991
	C320.925,273.749,326.376,241.073,315.083,210.978"/>
<path fill="#FFFFFF" stroke="#000000" stroke-width="2" d="M292.908,200.269c11.607-12.365,28.187-21.544,44.941-24.103
	c25.703-3.925,55.577,9.251,67.609,32.842c3.739,7.331,5.596,15.263,7.153,23.286c2.457,12.67,0.72,25.45,1.552,38.239
	c0.652,10.047,7.16,18.082,6.713,28.232c-0.575,13.084-10.016,23.131-20.994,29.154c-31.58,17.326-77.06,12.755-94.957-21.468
	C288.62,275.268,287.774,234.507,292.908,200.269"/>
<path fill="#FFFFFF" stroke="#000000" stroke-width="2" d="M184.746,213.759c-7.05-15.718-24.517-22.548-40.891-19.951
	c-29.249,4.641-40.111,32.06-39.955,58.79c0.08,13.73,1.613,28.476,6.143,41.512c3.593,10.34,10.105,19.029,16.684,27.639
	c15.895,20.808,44.077,21.156,63.634,5.276c10.102-8.203,18.482-19.998,20.401-33.068c1.777-12.106-0.768-24.587-4.5-36.09
	C201.24,242.383,193.792,227.305,184.746,213.759"/>
<path fill="#FFFFFF" stroke="#000000" stroke-width="2" d="M301.868,217.811c10.238-13.993,27.396-23.967,44.856-24.157
	c26.466-0.288,41.65,20.522,46.104,44.631c4,21.653,1.925,44.277-16.488,58.546c-19.971,15.478-49.364,17.897-66.458-3.066
	C292.999,273.061,293.102,242.018,301.868,217.811"/>
<path fill="#FFFFFF" stroke="#000000" stroke-width="2" d="M178.472,223.528c-1.907-2.498-5.979-4.227-8.659-5.634
	c-6.174-3.242-12.876-5.762-19.808-6.727c-12.841-1.788-21.687,3.292-26.722,15.113c-5.635,13.229-6.112,28.713-4.447,42.802
	c1.57,13.278,5.061,27.695,14.551,37.669c12.751,13.401,33.728,13.295,48.675,3.629c17.424-11.268,12.614-34.779,8.781-52.099
	C188.381,247.146,185.582,232.834,178.472,223.528"/>
<path fill="#FFFFFF" stroke="#000000" stroke-width="2" d="M195.455,311.621c-4.717,3.881-38.46,34.1-22.941,37.72
	c9.164,2.138,21.554-3.854,28.707-9.126C210.822,333.136,206.556,315.3,195.455,311.621"/>
<path fill="#FFFFFF" stroke="#000000" stroke-width="2" d="M236.183,172.639c-23.519,0.877-46.688,9.574-59.628,30.191
	c-9.29,14.802-12.447,33.053-11.376,50.315c1.785,28.773,25.174,49.246,29.798,76.866c1.712,10.224-0.602,24.96-12.726,27.278
	c-10.25,1.959-21.122-4.514-26.911-12.575c-4.455-6.202-7.336-13.837-7.963-21.456c-0.493-6.004,1.167-9.451,3.753-14.415
	c4.067-7.81,0.426-18.462-8.374-21.261c-8.433-2.682-10.637,6.664-12.618,12.344c-2.742,7.864-7.939,8.959-15.327,9.896
	c-4.756,0.604-12.137,2.05-12.709,7.97c-1.222,12.649,13.985,20.09,24.062,14.647c2.657,13.776,9.13,27.414,17.84,38.346
	c17.301,21.714,43.561,28.728,70.274,23.949c26.498-4.739,54.339-18.625,71.483-39.814c8.275-10.229,14.418-22.98,20.362-34.664
	c6.765-13.298,12.317-27.258,15.169-41.947c5.346-27.534,2.919-62.125-17.094-83.685C286.973,176.07,260.37,171.739,236.183,172.639
	"/>
<path fill="#FFFFFF" stroke="#000000" stroke-width="2" d="M287.582,329.998c-1.488-10.148,12.118-17.68,20.782-14.891
	c10.33,3.324,11.755,18.117,10.448,27.099c-1.288,8.849-5.29,14.375-13.899,8.882C298.205,346.809,288.811,338.381,287.582,329.998"
	/>
<g>
	<path fill="#FFFFFF" stroke="#000000" stroke-width="2" d="M300.57,309.964c0,11.653-24.449,11.653-24.449,0
		C276.121,298.311,300.57,298.312,300.57,309.964"/>
</g>
<g>
	<path fill="#FFFFFF" stroke="#000000" stroke-width="2" d="M215.647,309.964c0,11.653-24.45,11.653-24.45,0
		C191.197,298.311,215.647,298.311,215.647,309.964"/>
</g>
<path fill="#FFFFFF" stroke="#000000" stroke-width="2" d="M263.808,365.637c3.851-10.156,8.07-20.752,9.819-31.509
	C286.51,342.678,279.64,366.503,263.808,365.637"/>
<path fill="#231F20" stroke="#000000" stroke-width="2" d="M278.118,284.423c0,10.458-11.907,10.458-11.907,0
	C266.211,273.966,278.118,273.966,278.118,284.423"/>
<path fill="#231F20" stroke="#000000" stroke-width="2" d="M212.529,284.423c0,10.458-11.908,10.458-11.908,0
	C200.621,273.966,212.529,273.966,212.529,284.423"/>
<path fill="#FFFFFF" stroke="#000000" stroke-width="2" d="M153.063,117.053c1.459,0.082,2.735,0.467,3.829,1.155
	c1.094,0.689,1.984,1.519,2.674,2.492c0.688,0.972,1.094,2.087,1.215,3.342c0.122,1.257-0.142,2.534-0.79,3.829
	c-0.243,0.567-0.75,1.236-1.519,2.005c-0.771,0.771-1.479,1.236-2.127,1.398c-5.187,1.538-10.514,2.492-15.984,2.856
	c-5.469,0.365-10.878,0.262-16.226-0.304c-1.541-0.164-3.221-0.325-5.044-0.486c-1.823-0.163-3.424-0.689-4.801-1.58
	c-2.512-1.62-3.768-3.929-3.768-6.928V73.053c-0.893-0.646-1.622-1.458-2.188-2.431c-0.568-0.972-0.912-2.005-1.033-3.099
	c-0.122-1.094,0.019-2.146,0.425-3.16c0.405-1.013,1.094-1.884,2.066-2.613c1.62-1.295,3.483-2.167,5.591-2.613
	c2.106-0.445,4.172-0.83,6.199-1.155c4.212-0.648,8.427-0.973,12.641-0.973c4.212,0,8.508-0.04,12.884-0.122
	c1.295,0,2.795-0.101,4.497-0.304c1.702-0.201,3.2-0.061,4.498,0.425c1.538,0.568,2.753,1.459,3.646,2.674
	c0.891,1.215,1.417,2.513,1.58,3.89c0.161,1.378-0.103,2.715-0.79,4.011c-0.689,1.297-1.884,2.31-3.586,3.039
	c-2.026,0.811-4.193,1.176-6.502,1.094c-2.31-0.08-4.519-0.122-6.625-0.122c-3.081,0-6.159,0.042-9.238,0.122
	c-3.08,0.082-6.159,0.325-9.237,0.729V89.34c2.917,0.164,5.834,0.164,8.751,0c2.917-0.161,5.834-0.365,8.751-0.607
	c1.295-0.08,2.592-0.202,3.889-0.365c1.295-0.162,2.632-0.162,4.011,0c1.781,0.243,3.16,0.972,4.132,2.188
	c0.973,1.215,1.56,2.573,1.763,4.072c0.201,1.5-0.061,2.978-0.79,4.437c-0.729,1.458-1.905,2.512-3.525,3.16
	c-1.379,0.568-3.242,0.993-5.591,1.276c-2.351,0.285-4.822,0.486-7.414,0.608c-2.594,0.122-5.147,0.182-7.658,0.182
	c-2.513,0-4.619-0.04-6.32-0.121v14.95c4.456,0.568,8.953,0.649,13.492,0.243c4.537-0.405,8.995-1.174,13.37-2.31H153.063z"/>
<path fill="#FFFFFF" stroke="#000000" stroke-width="2" d="M217.116,59.562c0.323-2.997,1.356-5.206,3.099-6.625
	c1.742-1.417,3.586-2.106,5.53-2.066c1.945,0.042,3.747,0.79,5.409,2.249c1.66,1.458,2.531,3.525,2.613,6.199
	c0.161,2.756-0.547,4.883-2.127,6.381c-1.58,1.5-3.384,2.351-5.409,2.552c-2.026,0.203-3.931-0.344-5.712-1.641
	c-1.784-1.295-2.877-3.362-3.282-6.199L217.116,59.562z"/>
<path fill="#FFFFFF" stroke="#000000" stroke-width="2" d="M233.16,128.722c-0.163,1.622-0.729,3.06-1.702,4.315
	c-0.972,1.255-2.087,2.167-3.342,2.735c-1.257,0.566-2.613,0.688-4.072,0.365c-1.458-0.325-2.755-1.216-3.889-2.674
	c-0.649-0.811-1.115-1.721-1.398-2.735c-0.285-1.012-0.467-2.066-0.547-3.16c-0.082-1.094-0.103-2.188-0.061-3.282
	c0.04-1.094,0.061-2.085,0.061-2.978c-0.082-4.78-0.103-9.521-0.061-14.221c0.04-4.699,0.019-9.439-0.061-14.221
	c0-1.945-0.122-3.908-0.365-5.895c-0.243-1.984-0.122-3.95,0.365-5.895c0.404-1.458,1.113-2.714,2.127-3.768
	c1.012-1.052,2.146-1.781,3.403-2.188c1.255-0.405,2.553-0.444,3.89-0.122c1.337,0.325,2.492,1.175,3.464,2.552
	c1.295,1.622,1.945,3.221,1.945,4.801s0,3.506,0,5.773c0,2.756,0,5.511,0,8.265c0,2.756,0.04,5.47,0.122,8.144
	c0.08,3.89,0.122,7.779,0.122,11.668c0,3.89,0,7.779,0,11.669L233.16,128.722L233.16,128.722z"/>
<path fill="#FFFFFF" stroke="#000000" stroke-width="2" d="M243.734,123.981c-0.486-1.377-0.689-2.735-0.607-4.072
	c0.08-1.337,0.425-2.553,1.033-3.646c0.607-1.094,1.478-1.945,2.613-2.553c1.134-0.607,2.511-0.83,4.132-0.668
	c0.891,0.082,1.702,0.325,2.431,0.729c0.729,0.406,1.397,0.893,2.005,1.458c0.608,0.568,1.215,1.176,1.823,1.823
	c0.608,0.649,1.234,1.215,1.884,1.702c1.377,1.054,2.835,1.823,4.376,2.31c1.538,0.486,3.16,0.851,4.862,1.094
	c1.134,0,2.045-0.283,2.735-0.851c0.688-0.566,1.155-1.255,1.398-2.066c0.243-0.809,0.304-1.681,0.182-2.613
	c-0.122-0.931-0.425-1.681-0.912-2.249c-1.379-1.376-3.06-2.268-5.044-2.674c-1.986-0.404-3.829-0.891-5.53-1.458
	c-2.431-0.809-4.822-1.842-7.171-3.1c-2.351-1.255-4.254-2.978-5.712-5.166c-1.541-2.268-2.452-4.68-2.735-7.232
	c-0.285-2.553-0.082-5.044,0.608-7.475c0.688-2.431,1.842-4.659,3.464-6.686c1.62-2.024,3.565-3.686,5.834-4.983
	c1.702-0.972,3.564-1.599,5.591-1.884c2.025-0.283,4.072-0.344,6.138-0.182c2.066,0.163,4.112,0.547,6.138,1.154
	c2.024,0.608,3.89,1.276,5.591,2.006c1.945,0.893,3.403,2.148,4.375,3.768c0.973,1.622,1.438,3.263,1.398,4.922
	c-0.042,1.662-0.608,3.1-1.702,4.315c-1.094,1.215-2.695,1.823-4.801,1.823c-1.297,0-2.473-0.222-3.525-0.668
	c-1.054-0.444-2.148-0.87-3.282-1.276c-1.458-0.566-3.039-0.952-4.74-1.155c-1.702-0.201-3.081-0.101-4.133,0.304
	c-0.325,0.082-0.689,0.346-1.094,0.79c-0.406,0.446-0.71,0.993-0.912,1.641c-0.203,0.649-0.243,1.297-0.122,1.945
	c0.122,0.649,0.547,1.176,1.276,1.58c1.945,1.054,4.011,1.865,6.199,2.431c2.188,0.568,4.334,1.215,6.442,1.945
	c2.106,0.729,4.072,1.662,5.895,2.795c1.823,1.136,3.343,2.756,4.558,4.862c1.782,3.081,2.693,6.301,2.735,9.663
	c0.04,3.363-0.628,6.502-2.005,9.42c-1.379,2.917-3.403,5.409-6.078,7.475c-2.674,2.066-5.794,3.301-9.359,3.707
	c-2.513,0.243-4.983,0.101-7.415-0.425c-2.431-0.528-4.782-1.379-7.049-2.553c-2.27-1.175-4.376-2.571-6.321-4.193
	c-1.945-1.62-3.646-3.321-5.105-5.105L243.734,123.981z"/>
<path fill="#FFFFFF" stroke="#000000" stroke-width="2" d="M363.942,133.583c-1.055,1.295-2.271,2.188-3.646,2.674
	c-1.379,0.486-2.795,0.486-4.254,0c-1.459-0.486-2.674-1.581-3.646-3.282c-0.407-0.649-0.729-1.337-0.974-2.066
	c-0.243-0.729-0.365-1.458-0.365-2.188V96.755c-1.54,0-2.938-0.425-4.192-1.276c-1.257-0.851-2.188-1.903-2.795-3.16
	c-0.608-1.255-0.832-2.592-0.668-4.011c0.162-1.417,0.809-2.734,1.944-3.95c0.81-0.891,1.682-1.478,2.613-1.762
	c0.931-0.283,1.924-0.465,2.978-0.547c-0.081-2.511-0.143-4.983-0.183-7.415c-0.042-2.431,0.142-4.862,0.547-7.293
	c0.486-3.808,1.62-7.05,3.403-9.724c1.782-2.674,3.99-4.74,6.625-6.199c2.632-1.458,5.57-2.31,8.812-2.553
	c3.24-0.243,6.604,0.243,10.089,1.458c1.458,0.486,2.855,1.094,4.192,1.823s2.532,1.662,3.586,2.796
	c0.729,0.811,1.255,1.762,1.58,2.856c0.323,1.094,0.383,2.188,0.183,3.282c-0.203,1.094-0.608,2.108-1.216,3.039
	c-0.607,0.932-1.479,1.641-2.612,2.127c-1.541,0.649-3.061,0.811-4.559,0.486c-1.5-0.323-2.978-0.851-4.437-1.58
	c-0.894-0.323-1.743-0.648-2.552-0.973c-0.812-0.323-1.662-0.566-2.554-0.729c-0.893-0.162-1.702-0.04-2.431,0.364
	c-0.729,0.407-1.358,0.954-1.884,1.641c-0.528,0.689-0.934,1.458-1.216,2.31c-0.284,0.851-0.425,1.683-0.425,2.492
	c-0.082,1.865-0.103,3.749-0.061,5.652c0.04,1.905,0.061,3.789,0.061,5.652c1.216-0.08,2.512-0.162,3.89-0.243
	c1.377-0.08,2.734-0.122,4.071-0.122s2.572,0.042,3.708,0.122c1.135,0.082,2.024,0.243,2.675,0.486
	c1.295,0.486,2.35,1.236,3.159,2.249c0.81,1.014,1.338,2.108,1.58,3.282c0.243,1.176,0.142,2.37-0.304,3.585
	c-0.446,1.216-1.236,2.27-2.37,3.16c-1.054,0.811-2.27,1.379-3.646,1.702c-1.379,0.325-2.837,0.547-4.375,0.669
	c-1.541,0.122-3.039,0.163-4.498,0.122c-1.458-0.04-2.755-0.061-3.89-0.061v32.453C365.645,130.748,364.994,132.287,363.942,133.583
	z"/>
<path fill="#FFFFFF" stroke="#000000" stroke-width="2" d="M386.549,103.075c0.566-2.349,1.356-4.659,2.37-6.928
	c1.012-2.268,2.249-4.437,3.707-6.502c1.459-2.066,3.1-3.951,4.923-5.652c1.823-1.701,3.787-3.078,5.896-4.132
	c3.726-1.945,7.475-2.936,11.243-2.978c3.768-0.04,7.271,0.71,10.514,2.249c3.24,1.541,5.996,3.829,8.265,6.868
	s3.769,6.666,4.498,10.878c0.404,2.755,0.626,5.369,0.668,7.84c0.04,2.473-0.224,5.044-0.79,7.718
	c-0.811,3.81-2.452,7.597-4.923,11.364c-2.473,3.768-5.43,6.928-8.873,9.481c-3.445,2.552-7.213,4.233-11.304,5.044
	c-4.093,0.809-8.205,0.162-12.337-1.945c-1.865-0.893-3.546-1.925-5.044-3.099c-1.5-1.174-2.856-2.572-4.072-4.193
	c-1.379-1.782-2.452-3.646-3.221-5.591c-0.771-1.945-1.398-3.969-1.885-6.077c-0.567-2.268-0.771-4.558-0.606-6.868
	c0.161-2.309,0.444-4.558,0.851-6.746L386.549,103.075z"/>
<path fill="#FFFFFF" stroke="#000000" stroke-width="2" d="M401.135,105.628c-0.243,1.297-0.445,2.573-0.606,3.829
	c-0.164,1.257-0.164,2.533,0,3.829c0.243,1.865,0.748,3.567,1.519,5.105c0.771,1.541,1.782,2.756,3.039,3.646
	c1.255,0.893,2.693,1.358,4.314,1.398c1.619,0.042,3.361-0.465,5.227-1.52c2.35-1.377,4.376-3.504,6.078-6.381
	c1.702-2.875,2.754-5.874,3.16-8.994c0.404-3.119,0.08-6.078-0.973-8.873c-1.054-2.795-3.12-4.801-6.198-6.017
	c-2.026,0-3.891,0.385-5.591,1.155c-1.702,0.771-3.182,1.783-4.437,3.039c-1.257,1.257-2.352,2.735-3.282,4.438
	C402.451,101.981,401.701,103.765,401.135,105.628z"/>
<path fill="#FFFFFF" stroke="#000000" stroke-width="2" d="M449.752,94.628c0.08-0.526,0.04-1.478-0.122-2.856
	c-1.297-0.729-2.31-1.66-3.039-2.796c-0.729-1.134-1.155-2.349-1.275-3.646c-0.122-1.295,0.122-2.532,0.729-3.708
	c0.608-1.173,1.599-2.167,2.978-2.978c1.863-1.052,3.909-1.255,6.139-0.608c2.228,0.649,4.152,1.622,5.772,2.917
	c2.024-1.538,4.134-2.835,6.32-3.889c2.188-1.052,4.416-1.763,6.685-2.127s4.577-0.304,6.929,0.183
	c2.35,0.486,4.659,1.5,6.928,3.039c1.134,0.729,2.188,1.641,3.16,2.735c0.973,1.094,1.58,2.33,1.823,3.707
	c0.404,2.026,0.242,3.789-0.486,5.287c-0.729,1.5-1.744,2.595-3.039,3.282c-1.297,0.689-2.755,0.893-4.375,0.607
	c-1.622-0.283-3.16-1.155-4.619-2.613c-0.485-0.323-0.832-0.587-1.033-0.79c-0.202-0.201-0.629-0.465-1.275-0.79
	c-1.297-0.323-2.573-0.243-3.829,0.243c-1.257,0.486-2.473,1.155-3.646,2.005c-1.176,0.851-2.27,1.784-3.281,2.796
	c-1.015,1.014-1.927,1.926-2.735,2.735v30.994c0,1.216-0.243,2.391-0.729,3.525c-0.729,1.863-1.885,3.16-3.465,3.89
	c-1.58,0.729-3.159,0.931-4.739,0.607c-1.58-0.325-2.959-1.135-4.134-2.431c-1.175-1.297-1.762-2.957-1.762-4.983V94.932
	C449.63,95.256,449.67,95.156,449.752,94.628z"/>
<path fill="#FFFFFF" stroke="#000000" stroke-width="2" d="M124.498,513.053c1.459,0.082,2.735,0.467,3.829,1.155
	c1.094,0.689,1.984,1.519,2.674,2.492c0.688,0.972,1.094,2.087,1.215,3.342c0.122,1.257-0.142,2.534-0.79,3.829
	c-0.243,0.566-0.75,1.236-1.519,2.005c-0.771,0.771-1.479,1.236-2.127,1.398c-5.187,1.538-10.514,2.491-15.984,2.855
	c-5.469,0.365-10.878,0.262-16.226-0.304c-1.541-0.164-3.221-0.325-5.044-0.486c-1.823-0.163-3.424-0.688-4.801-1.58
	c-2.512-1.62-3.768-3.929-3.768-6.928v-51.779c-0.893-0.646-1.622-1.458-2.188-2.431c-0.568-0.972-0.912-2.005-1.033-3.099
	c-0.122-1.095,0.019-2.146,0.425-3.16c0.405-1.014,1.094-1.885,2.066-2.613c1.62-1.295,3.483-2.167,5.591-2.613
	c2.106-0.444,4.172-0.83,6.199-1.154c4.212-0.648,8.427-0.974,12.641-0.974c4.212,0,8.508-0.04,12.884-0.122
	c1.295,0,2.795-0.101,4.497-0.304c1.702-0.201,3.2-0.062,4.498,0.425c1.538,0.568,2.753,1.459,3.646,2.674
	c0.891,1.215,1.417,2.514,1.58,3.891c0.161,1.378-0.103,2.715-0.79,4.011c-0.689,1.297-1.884,2.31-3.586,3.039
	c-2.026,0.811-4.193,1.176-6.502,1.094c-2.31-0.08-4.519-0.122-6.625-0.122c-3.081,0-6.159,0.042-9.238,0.122
	c-3.08,0.082-6.159,0.325-9.237,0.729v16.895c2.917,0.164,5.834,0.164,8.751,0c2.917-0.161,5.834-0.365,8.751-0.606
	c1.295-0.08,2.592-0.202,3.889-0.365c1.295-0.162,2.632-0.162,4.011,0c1.781,0.243,3.16,0.972,4.132,2.188
	c0.973,1.215,1.56,2.573,1.763,4.072c0.201,1.5-0.061,2.978-0.79,4.438c-0.729,1.458-1.905,2.512-3.525,3.159
	c-1.379,0.568-3.242,0.993-5.591,1.276c-2.351,0.285-4.822,0.486-7.414,0.608c-2.594,0.122-5.147,0.182-7.658,0.182
	c-2.513,0-4.619-0.04-6.32-0.121v14.95c4.456,0.567,8.953,0.648,13.492,0.243c4.537-0.405,8.995-1.174,13.37-2.311H124.498z"/>
<path fill="#FFFFFF" stroke="#000000" stroke-width="2" d="M160.596,520.589c0.891,0.812,1.641,1.844,2.249,3.101
	c0.608,1.257,0.931,2.513,0.973,3.768c0.04,1.255-0.243,2.431-0.851,3.525c-0.607,1.094-1.683,1.924-3.221,2.491
	c-1.216,0.404-2.553,0.486-4.011,0.243s-2.898-0.729-4.315-1.458c-1.418-0.729-2.674-1.601-3.768-2.612
	c-1.094-1.015-1.884-2.128-2.37-3.344c-0.163-0.403-0.285-0.87-0.365-1.397c-0.082-0.526-0.122-0.991-0.122-1.397V456.05
	c0-1.863,0.708-3.442,2.127-4.741c1.417-1.295,2.978-2.065,4.679-2.309c0.809-0.08,1.681,0.042,2.613,0.365
	c0.931,0.325,1.803,0.79,2.613,1.396c0.809,0.608,1.478,1.318,2.006,2.127c0.526,0.812,0.79,1.662,0.79,2.554
	c0,2.107,0,4.903,0,8.387c0,3.485,0.019,7.293,0.061,11.425c0.04,4.133,0.061,8.408,0.061,12.823c0,4.417-0.021,8.65-0.061,12.702
	c-0.042,4.053-0.061,7.76-0.061,11.122s-0.042,6.059-0.122,8.083L160.596,520.589z"/>
<path fill="#FFFFFF" stroke="#000000" stroke-width="2" d="M215.9,511.838c1.945-0.486,3.666-0.505,5.166-0.061
	c1.499,0.445,2.653,1.196,3.464,2.249c0.809,1.054,1.173,2.352,1.094,3.89c-0.082,1.54-0.771,3.16-2.066,4.862
	c-1.054,1.379-2.512,2.553-4.375,3.524c-1.865,0.974-3.606,1.744-5.227,2.311c-3.971,1.458-7.739,2.471-11.304,3.039
	c-3.567,0.565-6.909,0.565-10.028,0c-3.12-0.568-6.038-1.744-8.751-3.525c-2.716-1.781-5.247-4.294-7.597-7.536
	c-1.622-2.188-2.816-4.679-3.585-7.475c-0.771-2.795-1.197-5.652-1.276-8.569c-0.082-2.917,0.162-5.792,0.729-8.63
	c0.566-2.835,1.377-5.388,2.431-7.657c1.377-2.835,3.565-5.428,6.563-7.778c2.997-2.35,6.321-4.213,9.967-5.592
	c3.646-1.376,7.373-2.167,11.183-2.37c3.808-0.2,7.171,0.387,10.088,1.764c2.431,1.136,4.516,2.775,6.26,4.922
	c1.741,2.148,2.936,4.479,3.585,6.989c0.647,2.513,0.708,5.044,0.182,7.597c-0.528,2.552-1.844,4.883-3.95,6.989
	c-2.026,2.025-4.254,3.667-6.685,4.923c-2.431,1.257-4.943,2.351-7.536,3.282c-2.594,0.933-5.248,1.723-7.961,2.37
	c-2.716,0.648-5.329,1.379-7.84,2.188c1.702,1.944,3.646,3.181,5.834,3.707c2.188,0.528,4.476,0.628,6.867,0.304
	c2.389-0.322,4.801-0.991,7.232-2.005c2.431-1.012,4.699-2.127,6.807-3.343L215.9,511.838z"/>
<path fill="#FFFFFF" stroke="#000000" stroke-width="2" d="M191.348,490.932c-1.865,1.055-3.242,2.37-4.132,3.95
	c-0.893,1.58-1.541,3.789-1.945,6.625c2.106-0.647,4.476-1.337,7.11-2.065c2.632-0.729,5.124-1.499,7.475-2.311
	c2.35-0.809,4.334-1.702,5.956-2.674c1.62-0.973,2.431-2.024,2.431-3.16c0-0.647-0.103-1.275-0.304-1.884
	c-0.203-0.607-0.628-1.033-1.276-1.276c-2.27-0.809-4.619-0.973-7.05-0.485c-2.431,0.485-4.457,1.176-6.077,2.065L191.348,490.932z"
	/>
<path fill="#FFFFFF" stroke="#000000" stroke-width="2" d="M235.104,478.169c0.566-1.945,1.478-3.422,2.735-4.437
	c1.255-1.013,2.592-1.6,4.011-1.764c1.417-0.161,2.774,0.082,4.072,0.729c1.295,0.648,2.309,1.662,3.039,3.039
	c0.891-0.486,1.781-0.932,2.674-1.337c0.891-0.405,1.903-0.771,3.039-1.095c5.185-1.376,9.784-1.275,13.795,0.305
	c4.011,1.58,7.354,4.011,10.028,7.292s4.577,7.131,5.712,11.547c1.134,4.417,1.398,8.833,0.79,13.249
	c-0.607,4.417-2.169,8.55-4.68,12.396c-2.512,3.851-6.119,6.828-10.817,8.935c-3.081,1.377-6.302,2.249-9.663,2.612
	c-3.363,0.364-6.706,0.426-10.027,0.183c0,0.08,0.019,0.729,0.061,1.944c0.04,1.216,0.061,2.755,0.061,4.619
	c0,1.863,0,3.891,0,6.078c0,2.188-0.061,4.294-0.182,6.32c-0.122,2.023-0.285,3.829-0.486,5.409
	c-0.203,1.58-0.507,2.652-0.912,3.221c-1.054,1.538-2.351,2.511-3.889,2.917c-1.541,0.404-2.999,0.344-4.376-0.182
	c-1.379-0.528-2.573-1.419-3.585-2.675c-1.014-1.257-1.52-2.775-1.52-4.558v-74.021L235.104,478.169z"/>
<path fill="#FFFFFF" stroke="#000000" stroke-width="2" d="M250.662,493.97c-0.243,0.407-0.365,0.589-0.365,0.547
	c0-0.04-0.163,0.104-0.486,0.427v20.055c1.62,0.243,3.24,0.365,4.862,0.365c1.62,0,3.321-0.243,5.105-0.729
	c3.646-0.891,6.521-2.653,8.63-5.287c2.106-2.632,2.917-5.895,2.431-9.785c-0.243-1.619-0.71-3.301-1.398-5.044
	c-0.689-1.74-1.601-3.221-2.734-4.437c-1.136-1.215-2.473-2.066-4.011-2.552c-1.54-0.486-3.282-0.323-5.227,0.485
	c-1.379,0.568-2.613,1.418-3.707,2.553C252.667,491.703,251.634,492.836,250.662,493.97z"/>
<path fill="#FFFFFF" stroke="#000000" stroke-width="2" d="M307.423,530.617c-1.622,1.174-3.303,1.721-5.044,1.641
	c-1.744-0.082-3.282-0.79-4.619-2.127c-1.337-1.337-2.005-3.179-2.005-5.53v-67.58c0-1.862,0.729-3.442,2.188-4.739
	c1.458-1.295,3.079-2.106,4.862-2.432c1.781-0.322,3.443-0.04,4.983,0.852c1.539,0.893,2.389,2.552,2.553,4.982
	c0.323,4.215,0.465,8.326,0.425,12.337c-0.042,4.012-0.103,8.044-0.183,12.095c2.997-2.024,6.117-3.382,9.359-4.072
	c3.239-0.688,6.359-0.668,9.358,0.061c2.997,0.729,5.792,2.188,8.387,4.375c2.594,2.188,4.699,5.228,6.321,9.116
	c1.134,2.595,1.903,5.369,2.31,8.326c0.404,2.959,0.627,5.956,0.668,8.995c0.04,3.039,0,6.059-0.122,9.055
	c-0.122,2.999-0.183,5.834-0.183,8.508c0,1.702-0.445,3.242-1.337,4.619c-0.893,1.377-2.005,2.39-3.343,3.039
	c-1.337,0.647-2.755,0.852-4.254,0.607c-1.5-0.243-2.856-1.136-4.072-2.674c-1.216-1.622-1.966-3.525-2.249-5.713
	c-0.285-2.188-0.364-4.517-0.243-6.989c0.122-2.472,0.305-5.002,0.547-7.598c0.243-2.592,0.305-5.084,0.183-7.475
	c-0.122-2.389-0.588-4.598-1.397-6.625c-0.811-2.024-2.229-3.686-4.254-4.983c-1.622-0.242-3.081-0.141-4.375,0.305
	c-1.297,0.445-2.473,1.114-3.524,2.006c-1.055,0.893-2.047,1.905-2.979,3.039c-0.933,1.136-1.884,2.27-2.855,3.402
	c-0.243,0.406-0.528,0.79-0.852,1.155c-0.325,0.365-0.688,0.75-1.094,1.155v23.094C310.097,527.517,309.043,529.441,307.423,530.617
	z"/>
<path fill="#FFFFFF" stroke="#000000" stroke-width="2" d="M409.765,522.777c0.647,2.351,0.526,4.296-0.364,5.834
	c-0.894,1.538-2.127,2.57-3.708,3.099c-1.58,0.526-3.303,0.465-5.166-0.182c-1.865-0.649-3.485-1.945-4.862-3.891
	c-2.27,1.702-4.479,2.896-6.625,3.586c-2.148,0.688-4.6,1.073-7.354,1.154c-4.133,0.162-7.821-0.304-11.062-1.397
	c-3.242-1.094-5.977-2.734-8.205-4.923c-2.229-2.188-3.871-4.922-4.923-8.204c-1.054-3.281-1.418-7.068-1.094-11.364
	c0.162-1.782,0.465-3.525,0.912-5.228c0.443-1.702,0.951-3.361,1.52-4.982c0.647-1.782,1.559-3.688,2.735-5.713
	c1.173-2.024,2.37-3.769,3.585-5.228c4.375-5.348,9.845-9.196,16.408-11.547c1.135-0.404,2.675-0.769,4.619-1.094
	c1.945-0.323,3.909-0.465,5.896-0.425c1.984,0.042,3.89,0.304,5.713,0.79c1.823,0.485,3.179,1.337,4.072,2.552
	c0.729,0.972,1.255,1.823,1.58,2.553c0.322,0.729,0.505,1.5,0.547,2.309c0.04,0.812,0.04,1.684,0,2.613
	c-0.042,0.934-0.062,2.087-0.062,3.464c0,2.271-0.021,4.479-0.061,6.624c-0.042,2.148-0.021,4.315,0.061,6.503
	c0,0.729,0,1.684,0,2.856c0,1.175,0.04,2.412,0.122,3.707c0.08,1.297,0.183,2.534,0.304,3.707c0.122,1.176,0.305,2.127,0.548,2.855
	L409.765,522.777z"/>
<path fill="#FFFFFF" stroke="#000000" stroke-width="2" d="M383.997,517.307c0.891-0.565,1.903-1.193,3.039-1.884
	c1.134-0.688,2.146-1.478,3.039-2.37c-0.729-4.294-1.155-8.588-1.276-12.884c-0.122-4.294-0.103-8.63,0.062-13.006
	c-3.646,0.649-6.929,2.229-9.846,4.74c-2.917,2.513-4.943,5.47-6.077,8.873c-0.486,1.379-0.894,2.796-1.216,4.254
	c-0.325,1.458-0.445,2.877-0.364,4.254c0.08,1.865,0.565,3.424,1.458,4.68c0.891,1.257,1.964,2.208,3.221,2.856
	c1.255,0.648,2.592,1.014,4.011,1.094C381.463,517.997,382.781,517.793,383.997,517.307z"/>
<path fill="#FFFFFF" stroke="#000000" stroke-width="2" d="M466.77,524.965c-0.243,2.026-0.993,3.687-2.25,4.983
	c-1.257,1.295-2.674,2.105-4.254,2.431c-1.58,0.323-3.099,0.122-4.558-0.606c-1.458-0.729-2.513-2.148-3.16-4.255
	c-0.729-2.268-1.014-4.638-0.851-7.109c0.162-2.471,0.243-4.759,0.243-6.867c0-4.376,0.019-8.73,0.061-13.066
	c0.04-4.334-0.142-8.69-0.547-13.065c-0.082-0.162-0.163-0.304-0.243-0.425c-0.082-0.122-0.243-0.305-0.486-0.547
	c-1.864-0.486-3.85-0.365-5.955,0.363c-2.108,0.729-3.891,1.662-5.349,2.796c-1.297,1.055-2.573,2.492-3.829,4.315
	c-1.257,1.823-1.884,3.585-1.884,5.287v16.772c0,1.297,0.04,2.716,0.122,4.254c0.08,1.54,0.019,3.039-0.184,4.497
	s-0.668,2.795-1.396,4.012c-0.729,1.215-1.905,2.105-3.525,2.674c-0.893,0.323-1.723,0.443-2.491,0.365
	c-0.771-0.082-1.602-0.285-2.492-0.608c-1.459-0.486-2.513-1.318-3.161-2.492c-0.649-1.174-1.094-2.431-1.337-3.768
	s-0.347-2.632-0.304-3.89c0.039-1.255,0.061-2.249,0.061-2.978c0-1.863-0.021-4.558-0.061-8.083
	c-0.043-3.525-0.062-7.232-0.062-11.122c0-3.889,0-7.597,0-11.122s0-6.218,0-8.083c0-1.782,0.526-3.261,1.58-4.437
	c1.052-1.175,2.289-1.945,3.708-2.311c1.417-0.365,2.917-0.283,4.497,0.243c1.58,0.528,2.896,1.601,3.95,3.221
	c3.24-2.105,6.807-3.524,10.695-4.254c3.891-0.729,7.556-0.607,11,0.365c3.443,0.972,6.32,2.795,8.631,5.47
	c2.31,2.674,3.504,6.362,3.585,11.062c0,0.164,0.04,0.648,0.122,1.458c0.079,0.811,0.121,1.944,0.121,3.402v31.117H466.77z"/>
<path fill="#FFFFFF" stroke="#000000" stroke-width="2" d="M481.84,487.65c-1.622-0.405-3.02-1.095-4.193-2.066
	c-1.175-0.972-1.985-2.106-2.431-3.403c-0.446-1.295-0.446-2.632,0-4.011c0.444-1.377,1.438-2.632,2.979-3.768
	c1.295-0.974,2.753-1.458,4.375-1.458c1.62,0,3.2,0,4.739,0c0-0.566-0.042-1.804-0.121-3.708c-0.082-1.903-0.104-3.99-0.062-6.261
	c0.04-2.268,0.182-4.436,0.425-6.502c0.243-2.065,0.688-3.504,1.337-4.314c1.62-2.269,3.625-3.343,6.018-3.222
	c2.389,0.122,4.354,1.276,5.895,3.465c0.323,0.405,0.627,0.893,0.912,1.458c0.283,0.567,0.425,1.094,0.425,1.579
	c0.08,2.917,0.102,5.834,0.062,8.752c-0.042,2.916-0.062,5.834-0.062,8.751h9.604c1.458,0,2.714,0.485,3.768,1.458
	c1.052,0.972,1.803,2.107,2.249,3.402c0.444,1.297,0.566,2.634,0.364,4.011c-0.203,1.38-0.832,2.514-1.884,3.403
	c-1.865,1.541-4.032,2.353-6.503,2.432c-2.474,0.081-5.004,0.121-7.598,0.121c0,4.458-0.021,8.915-0.061,13.37
	c-0.042,4.458-0.021,8.915,0.061,13.37c0,1.945,0.102,3.932,0.305,5.956c0.2,2.026,0.061,3.971-0.427,5.834
	c-0.405,1.458-1.094,2.613-2.065,3.464c-0.974,0.852-2.066,1.376-3.282,1.58c-1.216,0.201-2.473,0.122-3.768-0.243
	c-1.298-0.364-2.514-1.032-3.646-2.006c-0.568-0.567-0.993-1.538-1.276-2.917c-0.284-1.377-0.467-2.835-0.547-4.375
	c-0.082-1.781-0.082-3.687,0-5.713c0-1.62,0-3.726,0-6.32c0-2.592-0.021-5.287-0.061-8.083c-0.042-2.795-0.062-5.448-0.062-7.961
	c0-2.511,0-4.497,0-5.956L481.84,487.65z"/>
</svg>
