<?xml version="1.0" encoding="utf-8"?>
<!-- Generator: Adobe Illustrator 16.0.0, SVG Export Plug-In . SVG Version: 6.00 Build 0)  -->
<!DOCTYPE svg PUBLIC "-//W3C//DTD SVG 1.1//EN" "http://www.w3.org/Graphics/SVG/1.1/DTD/svg11.dtd">
<svg version="1.1" id="Layer_1" xmlns="http://www.w3.org/2000/svg" xmlns:xlink="http://www.w3.org/1999/xlink" x="0px" y="0px"
	 width="100%" height="100%" viewBox="0 0 1000 1000" style="enable-background:new 0 0 1000 1000;" xml:space="preserve">
<rect style="fill:#FFFFFF;" width="1000" height="1000"/>
<path style="fill:#FFFFFF;stroke:#231F20;stroke-width:2;stroke-miterlimit:10;" d="M629.777,512.914
	c1.223,29.896-5.297,58.338-10.488,87.442c-2.849,15.974-6.496,38.619-12.751,57.888c-3.627,11.166-8.124,21.197-13.854,28.141
	c-7.672,9.305-17.957,10.243-26.592,0.284c-8.856-10.216-7.381-18.929-7.429-32.444c-0.001-0.104,0.001-0.211,0-0.313
	c-0.198-36.708-4.696-74.472-18.497-107.822L629.777,512.914z"/>
<path style="fill:#FFFFFF;stroke:#231F20;stroke-width:2;stroke-miterlimit:10;" d="M389.574,540.969
	c-3.32,15.481-20.292,19.381-33.412,21.49c-25.021,4.014-50.938-1.996-60.304,18.888c-1.772,3.949-2.952,8.859-3.421,14.981
	c-1.026,13.403,2.97,26.409-18.771,20.648c-12.201-3.229-18.914-18.451-23.619-29.589c-1.375-3.255-2.47-6.695-3.251-10.248
	c-4.393-19.862,0.86-43.093,20.47-55.358c17.329-10.836,73.125-10.928,70.546-41.793L389.574,540.969z"/>
<path style="fill:#FFFFFF;stroke:#231F20;stroke-width:2;stroke-miterlimit:10;" d="M669.669,410.127
	c11.569,18.366,66.612,11.206,87.516,20.865c26.123,12.072,46.88,47.949,52.907,75.822c4.264,19.7-9.479,50.164,0.771,65.668
	c16.625,25.147,34.193-1.235,43.288-13.56c17.358,15.479,2.521,48.465-19.118,52.145c5.375,3.608,6.214,5.107,12.352,4.678
	c2.183,13.874-14.467,20.45-25.76,22.365c-18.062,3.06-20.076-4.197-31.1-14.261c1.34,10.362-8.271,17.253-2.907,26.749
	c-39.482-2.003-49.257-68.223-48.011-98.688c0.941-23.004,6.525-50.734-2.853-72.502c-7.291-16.928-31.342-42.744-49.635-44.736
	L669.669,410.127z"/>
<path style="fill:#FFFFFF;stroke:#231F20;stroke-width:2;stroke-miterlimit:10;" d="M736.168,463.758
	c-37.994-96.342-161.341-99.293-253.001-90.468c-8.655-17-19.787-33.17-31.259-48.581c-24.827-33.356-75.743-72.367-121.367-72.2
	c-10.989-2.896-22.327-2.47-32.918,3.097c-33.459,17.592-60.473,45.267-96.105,59.98c-31.798,13.13-56.232,43.796-51.105,78.875
	c5.504,37.693,37.69,56.771,73.73,56.425c22.583-0.213,40.876-9.563,62.747-13.888c9.487-1.875,18.868-3.178,28.17-4.583
	c5.37-0.812,10.711-1.661,16.039-2.67c-8.196,31.459-18.96,68.885-4.628,94.333c3.33,5.922,8.019,11.189,14.414,15.589
	c2.333,1.603,4.775,3.036,7.297,4.312c1.235,10.573,11.154,20.812,15.484,30.557c8.205,18.484,12.838,37.495,12.169,57.281
	c-0.357,10.56-5.707,20.979-10.04,31.476c-3.815,9.248-6.842,18.55-4.974,28.049c5.312,27.072,35.306,19.792,46.822,0.821
	c3.117-5.131,6.023-10.379,8.771-15.714c12.6-24.433,21.979-50.687,33.369-75.919c17.231,1,34.513,1.376,51.666,4.83
	c25.759,5.187,44.113,10.077,71.16,7.075c17.518-1.943,36.428-3.913,55.162-7.324c4.111,17.23,6.169,35.009,6.829,52.724
	c0.015,0.293,0.023,0.593,0.032,0.887c0.08,2.21,0.133,4.417,0.169,6.626c0.041,2.427,0.055,4.843,0.045,7.263
	c-0.043,13.695-2.03,22.489,8.678,32.699c10.364,9.876,22.834,8.836,32.226-0.548c7.542-7.534,13.395-18.632,18.067-30.855
	c7.171-18.752,11.566-40.168,15.018-55.478c4.312-19.115,9.294-37.953,11.896-57.08c1.547-1.702,3.062-3.441,4.514-5.271
	C746.174,529.677,748.287,494.479,736.168,463.758z"/>
<path style="fill:#FFFFFF;stroke:#231F20;stroke-width:2;stroke-miterlimit:10;" d="M412.361,300.833
	c-21.285-25.656-86.199-66.199-119.69-44.509c-8.957,5.8-13.995,18.862-26.062,19.114c-23.291,0.485-4.857-24.036,7.512-30.221
	c-6.468-6.898-21.723-3.205-16.372-15.038c4.188-9.26,18.571-6.413,27.582-6.688c-7.39-4.966-18.742-22.522-6.127-28.553
	c7.508-3.589,22.458,11.97,26.177,17.735c6.731-38.016,34.134-2.471,50.736,0.174c28.328,4.513,57.767,18.104,81.769,35.533
	c31.915,23.174,61.056,101.272,104.027,102.502c17.069,0.489,18.254-14.228,26.134-23.17c15.354,7.234,12.371,30.354,0.143,37.936
	c2.868-1.231,5.468-0.846,8.479-1.618c1.818,17.042-23.082,34.083-37.646,35.624c-1.405-7.521-0.592-15.021,1.522-21.793
	c-5.993,11.245-17.742,24.042-30.467,27.495c-27.75,7.532-16.026-12.204-14.327-28.479c-27.77,6.241-33.746,6.098-45.63-21.689
	C441.625,335.326,426.19,317.501,412.361,300.833z"/>
<path style="fill:#FFFFFF;stroke:#231F20;stroke-width:2;stroke-miterlimit:10;" d="M404.113,288.501
	c-2.476,3.53-5.632,6.729-9.597,9.501l-3.451-2.547l-24.916-18.38l-31.671-23.363c24.054-13.524,35.983-47.396,59.102-63.72
	c0.3,0.906,0.62,1.841,0.949,2.8C403.389,218.394,422.361,262.482,404.113,288.501z"/>
<path style="fill:#FFFFFF;stroke:#231F20;stroke-width:2;stroke-miterlimit:10;" d="M404.113,288.501
	c-0.889,0.109-8.391,11.238-9.36,11.211l-5.501-5.595l-5.496,6.199c-10.45-3.438-15.801-12.131-17.606-23.242
	c-4.489-27.6,12.887-70.139,28.38-84.282C403.389,218.394,422.361,262.482,404.113,288.501z"/>
<path style="fill:#FFFFFF;stroke:#231F20;stroke-width:2;stroke-miterlimit:10;" d="M226.74,459.572
	c-57.722,20.746-94.273-56.664-77.013-105.49c9.655-27.312,37.213-33.034,62.617-19.621c28.865,15.24,61.555,101.14,23.646,121.021
	C232.85,457.127,229.766,458.485,226.74,459.572z"/>
<path style="fill:#FFFFFF;stroke:#231F20;stroke-width:2;stroke-miterlimit:10;" d="M334.372,357.613
	c-22.653,18.188-55.905,1.709-64.539-23.745c-9.938-29.304,25.707-57.137,52.739-48.011c20.425,6.896,32.104,27.12,26.267,48.148
	C345.832,344.835,340.674,352.553,334.372,357.613z"/>
<path style="fill:#231F20;stroke:#231F20;stroke-width:2;stroke-miterlimit:10;" d="M290.042,313.837
	c-2.777-21.503,22.774-33.584,37.604-17.649c13.185,14.174,1.93,39.178-18.006,35.813
	C299.636,330.312,291.431,324.577,290.042,313.837z"/>
<path style="fill:#FFFFFF;stroke:#231F20;stroke-width:2;stroke-miterlimit:10;" d="M305.558,303.36
	c-4.743-5.397,0.5-14.549,7.69-12.81c5.753,1.393,9.219,7.901,4.934,12.164C314.613,306.265,309.244,307.555,305.558,303.36z"/>
<path style="fill:#FFFFFF;stroke:#231F20;stroke-width:2;stroke-miterlimit:10;" d="M201.226,385.02
	c34.357-10.934-23.924-52.493-19.954-14.537C182.414,381.394,190.035,388.578,201.226,385.02z"/>
<path style="fill:#FFFFFF;stroke:#231F20;stroke-width:2;stroke-miterlimit:10;" d="M295.858,581.347
	c-1.772,3.949-2.952,8.859-3.421,14.981c-1.026,13.403,2.97,26.409-18.771,20.648c-12.201-3.229-18.914-18.451-23.619-29.589
	c-1.375-3.255-2.47-6.695-3.251-10.248c10.86,5.132,29.387,5.039,36.018,5.028C286.1,582.166,291.511,581.161,295.858,581.347z"/>
<path style="fill:#FFFFFF;stroke:#231F20;stroke-width:2;stroke-miterlimit:10;" d="M416.416,676.447
	c-2.749,5.335-5.655,10.583-8.771,15.714c-11.517,18.971-41.509,26.251-46.822-0.821c-1.868-9.499,1.158-18.801,4.974-28.049
	c9.524,7.459,29.246,10.48,36.104,11.556C405.543,675.417,412.031,675.165,416.416,676.447z"/>
<path style="fill:#FFFFFF;stroke:#231F20;stroke-width:2;stroke-miterlimit:10;" d="M606.538,658.244
	c-3.627,11.166-8.124,21.197-13.854,28.141c-7.672,9.305-17.957,10.243-26.592,0.284c-8.856-10.216-7.381-18.929-7.429-32.444
	c10.906,4.96,29.098,4.87,35.655,4.857C597.402,659.078,602.352,658.195,606.538,658.244z"/>
<path style="fill:#FFFFFF;stroke:#231F20;stroke-width:2;stroke-miterlimit:10;" d="M693.818,673.903
	c-4.674,12.225-10.525,23.321-18.067,30.855c-9.392,9.384-21.86,10.424-32.226,0.548c-10.708-10.21-8.721-19.004-8.678-32.699
	c0.01-2.42-0.004-4.836-0.045-7.263c9.624,7.462,32.353,7.351,39.855,7.338c4.736-0.008,13.884-2.092,17.903,0.313
	C693.015,673.271,693.432,673.568,693.818,673.903z"/>
<path style="fill:#FFFFFF;stroke:#231F20;stroke-width:2;stroke-miterlimit:10;" d="M260.73,798.053
	c6.475,0.362,10.406,11.083,2.983,12.928c-9.46,2.804-19.499,3.354-29.282,2.32c-14.381-1.515-12.376-9.885-12.376-21.192
	c0-9.834,0-19.669,0-29.503c0-4.12-0.001-3.349-1.989-6.764c-4.774-8.166,6.662-10.627,12.044-11.491
	c7.682-1.181,15.461-0.852,23.205-0.994c4.826,0,20.135,3.497,10.925,11.3c-4.457,3.775-12.777,2.03-18.108,2.1
	c-8.953,0.116-12.596-1.892-12.596,7.15c0,5.425-2.18,9.064,3.978,9.064c5.854,0,15.938-3.155,21.271-0.332
	c6.46,3.42,2.641,11.339-2.928,12.61c-7.117,1.625-15.066,1.438-22.319,1.091c0,4.336,0,8.672,0,13.008
	C235.537,802.595,258.123,798.531,260.73,798.053z"/>
<path style="fill:#FFFFFF;stroke:#231F20;stroke-width:2;stroke-miterlimit:10;" d="M321.281,834.959
	c-2.055,10.778-12.659,6.488-13.039-2.486c-0.274-6.407,0.817-13.44-0.441-19.724c-38.029,9.806-42.859-48.88-5.525-51.492
	c18.995-1.889,19.046,7.594,19.073,23.509C321.377,801.496,321.275,818.229,321.281,834.959z"/>
<path style="fill:#FFFFFF;stroke:#231F20;stroke-width:2;stroke-miterlimit:10;" d="M289.569,794.959
	c1.593,7.168,10.962,5.856,16.118,4.28c4.114-1.259,2.113-9.684,2.113-13.438c0-6.03,2.284-10.955-5.194-10.955
	C290.713,774.846,288.367,785.083,289.569,794.959C290.011,796.947,289.273,792.527,289.569,794.959z"/>
<path style="fill:#FFFFFF;stroke:#231F20;stroke-width:2;stroke-miterlimit:10;" d="M378.629,803.135
	c2.756,3.986,0.744,11.104-4.862,10.828c-6.359-0.492-5.188-7.479-10.86-3.85c-10.896,6.974-23.824,3.001-29.803-8.194
	c-4.897-9.352-2.43-20.819-2.43-30.884c0-3.599,1.148-8.41,5.525-9.062c8.41-1.227,8.179,7.83,7.93,13.366
	c-0.266,5.909-3.227,25.336,7.442,24.992c12.3-0.396,9.16-15.301,9.379-22.942c0-4.671,0.055-12.133,4.945-14.709
	c5.16-2.72,9.419,2.163,9.419,7.195C375.314,780.879,371.645,793.289,378.629,803.135
	C379.292,804.094,377.375,801.367,378.629,803.135z"/>
<path style="fill:#FFFFFF;stroke:#231F20;stroke-width:2;stroke-miterlimit:10;" d="M433.655,803.135
	c2.756,3.986,0.744,11.104-4.862,10.828c-6.359-0.492-5.188-7.479-10.86-3.85c-10.896,6.974-23.824,3.001-29.803-8.194
	c-4.899-9.351-2.43-20.82-2.43-30.884c0-3.598,1.148-8.41,5.524-9.062c8.409-1.227,8.18,7.83,7.931,13.366
	c-0.266,5.909-3.228,25.336,7.441,24.992c12.3-0.396,9.16-15.301,9.38-22.942c0-4.671,0.054-12.133,4.944-14.709
	c5.161-2.719,9.419,2.162,9.419,7.195C430.34,780.882,426.674,793.285,433.655,803.135
	C434.318,804.094,432.402,801.367,433.655,803.135z"/>
<path style="fill:#FFFFFF;stroke:#231F20;stroke-width:2;stroke-miterlimit:10;" d="M441.277,804.351
	c-1.681-4.758,0.758-10.519,6.52-9.942c4.539,0.416,7.021,5.911,11.381,7.293c3.52,1.108,12.443-0.31,7.515-6.078
	c-3.179-3.177-8.899-3.283-12.901-5.013c-26.594-11.491,1.558-45.151,21.74-27.775c3.274,2.819,4.521,9.712-0.455,11.602
	c-5.691,2.16-10.961-4.366-16.782-2.127c-9.542,2.401,14.934,11.224,16.077,11.936c12.265,7.64,6.336,27.656-6.121,31.312
	C458.454,818.432,446.711,812.554,441.277,804.351z"/>
<path style="fill:#FFFFFF;stroke:#231F20;stroke-width:2;stroke-miterlimit:10;" d="M550.557,813.08
	c-11.784,14.487-11.712-15.184-11.712-18.949c0-4.735,0-9.47,0-14.205c0,2.134-6.398-4.453-6.353-4.358
	c-2.336-4.828,1.659-8.987,6.244-9.338c-0.578-17.762,8.38-39.225,30.441-27.183c9.636,5.252,3.136,16.796-6.795,11.823
	c-11.445-4.146-10.055,6.218-10.055,14.918c5.426-0.355,15.77-2.349,17.349,5.247c1.93,9.3-12.122,8.343-17.348,8.343
	C552.329,787.791,556.182,806.146,550.557,813.08C549.599,814.258,551.514,811.9,550.557,813.08z"/>
<path style="fill:#FFFFFF;stroke:#231F20;stroke-width:2;stroke-miterlimit:10;" d="M613.65,796.947
	c8.711-2.175,11.179,6.909,5.247,11.685c-5.574,4.488-15.035,6.712-22.003,6.712c-19.046,0-27.188-20.48-22.086-36.546
	c4.707-14.817,30.29-25.111,41.327-11.518c15.666,19.308-14.965,27.191-27.459,31.215
	C595.292,806.054,606.595,800.904,613.65,796.947z"/>
<path style="fill:#FFFFFF;stroke:#231F20;stroke-width:2;stroke-miterlimit:10;" d="M591.33,777.941
	c-3.679,2.081-4.953,5.613-5.526,9.612c3.64-1.117,20.886-3.783,20.886-9.282C606.689,771.288,594.497,775.953,591.33,777.941z"/>
<path style="fill:#FFFFFF;stroke:#231F20;stroke-width:2;stroke-miterlimit:10;" d="M633.871,777.666
	c0.736-4.876-6.392-5.978-3.369-11.824c2.847-5.487,9.739-3.639,13.535-0.607c8.045-6.115,19.748-8.533,27.293-0.056
	c2.845,3.196,2.504,9.011-1.547,11.16c-4.584,2.434-6.831-1.536-10.278-3.26c-8.875-2.215-12.262,7.31-12.262,13.607
	c0,6.81,0,13.62,0,20.43c0,9.59-13.481,11.682-13.481,1.764C631.283,801.298,632.646,785.592,633.871,777.666
	C633.943,777.188,633.797,778.146,633.871,777.666z"/>
<path style="fill:#FFFFFF;stroke:#231F20;stroke-width:2;stroke-miterlimit:10;" d="M727.129,803.135
	c2.754,3.988,0.744,11.103-4.863,10.828c-6.359-0.492-5.188-7.479-10.858-3.85c-10.894,6.972-23.829,3.005-29.804-8.194
	c-4.898-9.349-2.433-20.821-2.433-30.884c0-3.599,1.148-8.41,5.525-9.062c8.408-1.227,8.181,7.83,7.932,13.366
	c-0.267,5.908-3.228,25.336,7.441,24.992c12.3-0.396,9.16-15.301,9.38-22.942c0-4.671,0.053-12.134,4.943-14.709
	c5.16-2.718,9.423,2.16,9.423,7.195C723.815,780.879,720.145,793.289,727.129,803.135
	C727.791,804.094,725.875,801.367,727.129,803.135z"/>
<path style="fill:#FFFFFF;stroke:#231F20;stroke-width:2;stroke-miterlimit:10;" d="M734.75,804.351
	c-1.678-4.759,0.754-10.519,6.52-9.942c4.54,0.416,7.019,5.913,11.381,7.293c3.512,1.106,12.456-0.318,7.513-6.078
	c-3.177-3.178-8.899-3.283-12.899-5.013c-26.593-11.494,1.562-45.152,21.741-27.775c3.274,2.82,4.519,9.711-0.457,11.602
	c-5.69,2.161-10.96-4.368-16.78-2.127c-9.544,2.394,14.936,11.226,16.075,11.936c12.267,7.636,6.338,27.657-6.119,31.312
	C751.927,818.432,740.186,812.554,734.75,804.351z"/>
<path style="fill:#FFFFFF;stroke:#231F20;stroke-width:2;stroke-miterlimit:10;" d="M398.281,907.804
	c3.853,7.438-4.449,10.026-9.086,5.718c-4.246-3.944-6.746-10.094-8.609-15.462c-5.983-17.242-2.636-34.302,6.049-49.76
	c5.33-9.467,16.072-4.728,9.282,4.641c-3.53,4.869-5.925,9.847-7.087,15.734C386.245,881.778,387.121,898.736,398.281,907.804z"/>
<path style="fill:#FFFFFF;stroke:#231F20;stroke-width:2;stroke-miterlimit:10;" d="M414.11,903.453
	c-10.852,7.844-7.956-30.117-7.956-33.961c0-5.334,0-10.669,0-16.004c0-4.289,7.19-7.587,9.427-3.219
	c2.432,4.749,0.787,13.566,0.683,18.749c12.709-8.59,23.722,2.205,24.685,15.188c0.372,5.018-0.073,10.041-0.073,15.062
	c0,10.355-11.002,3.91-10.565-4.849c0.753-15.479-1.915-22.739-14.046-10.651C414.16,889.02,419.682,899.405,414.11,903.453
	C413.004,904.253,415.214,902.651,414.11,903.453z"/>
<path style="fill:#FFFFFF;stroke:#231F20;stroke-width:2;stroke-miterlimit:10;" d="M446.429,881.947
	c5.231-21.733,35.104-23.942,35.511,1.12C482.412,912.186,439.177,911.81,446.429,881.947z"/>
<path style="fill:#FFFFFF;stroke:#231F20;stroke-width:2;stroke-miterlimit:10;" d="M456.374,883.688
	c-2.392,12.76,10.51,15.827,14.75,3.749C475.924,873.764,460.475,870.189,456.374,883.688
	C456.208,884.573,456.76,882.418,456.374,883.688z"/>
<path style="fill:#FFFFFF;stroke:#231F20;stroke-width:2;stroke-miterlimit:10;" d="M489.521,876.188
	c0.33-2.158-7.683-14.611,3.688-11.311c7.709,2.251,16.856-6.549,24.406,1.947c2.124,2.386,1.851,6.773-1.16,8.37
	c-3.251,1.728-5.169-1.171-7.706-2.445c-5.079-1.262-9.198,4.37-9.198,8.605c0,5.422,0,10.844,0,16.266
	c0,6.975-10.11,10.357-10.11,1.979C487.498,894.112,488.624,881.984,489.521,876.188
	C489.576,875.83,489.466,876.547,489.521,876.188z"/>
<path style="fill:#FFFFFF;stroke:#231F20;stroke-width:2;stroke-miterlimit:10;" d="M520.93,896.201
	c-2.48-7.012,4.988-9.146,9.156-4.724c7.578,8.097,14.979-1.9,6.463-3.646c-23.68-4.817-13.442-33.187,8.328-23.867
	c3.137,1.439,5.49,5.852,2.777,8.866c-2.882,3.203-8.026-0.497-11.146-0.87c-2.139-0.252-4.779,0.463-4.268,3.191
	c0.53,2.817,11.161,4.506,13.51,5.966C562.866,891.762,536.05,917.468,520.93,896.201z"/>
<path style="fill:#FFFFFF;stroke:#231F20;stroke-width:2;stroke-miterlimit:10;" d="M586.812,890.648
	c7.821-1.954,7.965,6.868,2.237,9.86c-6.146,3.207-14.473,5.461-21.194,2.755c-11.144-4.486-13.911-18.598-9.22-28.694
	c5.09-10.493,25.312-16.037,31.544-3.885c7.376,14.384-13.16,18.243-22.097,21.12C572.91,897.322,581.688,893.792,586.812,890.648z"
	/>
<path style="fill:#FFFFFF;stroke:#231F20;stroke-width:2;stroke-miterlimit:10;" d="M570.072,876.395
	c-2.884,1.632-3.715,4.214-4.144,7.211c2.593-0.796,15.664-3.026,15.664-6.961C581.593,871.425,572.489,874.774,570.072,876.395z"/>
<path style="fill:#FFFFFF;stroke:#231F20;stroke-width:2;stroke-miterlimit:10;" d="M596.344,906.727
	c10.014-10.036,11.427-26.046,8.225-39.394c-1.556-6.482-5.079-11.659-8.764-17.083c-5.195-7.641,6.297-8.804,10.606-2.34
	c9.798,14.697,12.389,32.188,6.92,49.205c-1.933,5.799-6.351,18.728-14.254,18.728C593.781,915.843,593.118,909.725,596.344,906.727
	z"/>
<path style="fill:#FFFFFF;stroke:#231F20;stroke-width:2;stroke-miterlimit:10;" d="M827.889,378.499
	c17.167,0.961,33.38,14.146,35.081,31.768c2.208,22.793-16.832,32.443-35.409,37.001c-42.705,10.479-87.531,12.091-131.165,7.474
	c-27.818-2.953-61.879-6.082-61.879-41.949c0-10.71,0-21.419,0-32.129c0-43.106,0-86.213,0-129.32c0-18.035,0-36.069,0-54.104
	c0-4.864,0-9.729,0-14.593c0-6.34-3.876-6.513-7.875-12.021c-9.837-13.543-9.453-32.997,4.562-43.508
	c15.1-12.073,35.116-14.166,53.591-17.127c42.465-6.53,85.023-2.108,127.623-5.468c17.129-1.351,34.416-2.375,45.857,13.204
	c11.685,15.948,8.988,38.275-9.032,47.959c-17.873,9.604-39.1,6.326-58.519,6.2c-22.567-0.146-45.304-0.133-67.812,1.644
	c-2.308,0.183-20.991,1.226-20.991,2.714c0,2.264,0,4.527,0,6.792c0,10.367,0,20.733,0,31.1c0,9.776,0,19.553,0,29.33
	c0,2.649,0,5.298,0,7.948c0,2.731,16.975,1.676,19.89,1.676c19.904,0,39.845-1.667,59.668-3.319
	c16.615-1.021,38.677-7.277,52.332,5.71c11.915,11.33,14,30.781,4.958,44.414c-10.096,15.22-32.559,16.418-48.903,18.021
	c-29.101,2.855-58.737,3.423-87.944,2.022c0,21.523,0,43.045,0,64.568c0,6.979,9.555,4.498,15.226,4.91
	c13.625,0.988,27.32,0.977,40.946-0.001c13.706-0.984,27.368-2.803,40.873-5.327C808.076,382.385,818.621,377.761,827.889,378.499z"
	/>
</svg>
