<?xml version="1.0" encoding="utf-8"?>
<!-- Generator: Adobe Illustrator 16.0.0, SVG Export Plug-In . SVG Version: 6.00 Build 0)  -->
<!DOCTYPE svg PUBLIC "-//W3C//DTD SVG 1.1//EN" "http://www.w3.org/Graphics/SVG/1.1/DTD/svg11.dtd">
<svg version="1.1" id="Layer_1" xmlns="http://www.w3.org/2000/svg" xmlns:xlink="http://www.w3.org/1999/xlink" x="0px" y="0px"
	 width="100%" height="100%" viewBox="0 0 1000 1000" style="enable-background:new 0 0 1000 1000;" xml:space="preserve">
<g id="Layer_3">
	<rect style="fill:#FFFFFF;" width="1000" height="1000"/>
</g>
<g id="Layer_2">
	<path style="fill:#FFFFFF;stroke:#000000;stroke-width:2;" d="M420.982,456.493c-24.091,29.604-58.564,5.26-58.564-26.819
		c0-22.945,0-45.89,0-68.835c0-18.84,0-37.679,0-56.519c0,4.655-12.003-14.38-10.773-11.917c-4.782-9.532-4.798-20.965,0.277-30.386
		c2.606-4.822,6.105-8.874,10.497-12.155c-0.356-5.89-0.45-11.783-0.276-17.679c0.349-9.113,0.276-18.23,0.276-27.348
		c0-19.643-9.416-35.133-11.466-53.934c-2.904-26.633,21.418-34.238,42.619-36.669c46.814-5.368,94.283-2.493,141.224-7.186
		c43.137-4.317,67.938,47.276,22.477,65.006c-37.919,14.789-89.607,4.121-129.658,6.541c2.321,22.17,2.21,44.588,2.21,66.851
		c27.098,0,54.834,0.099,81.49-5.455c23.375-4.87,51.229-8.5,60.775,20.093c19.891,59.833-115.021,52.211-142.266,52.211
		c0,22.344,0,44.688,0,67.032C429.824,401.97,436.552,437.296,420.982,456.493C416.191,462.381,425.765,450.597,420.982,456.493z"/>
	<path style="fill:#FFFFFF;stroke:#000000;stroke-width:2;" d="M266.798,787.657c-12.927,15.893-11.712-23.095-11.712-25.327
		c0-9.273,0.951-18.269-0.221-28.264c-1.546-21.488,15.581-14.372,34.695-16.299c5.597-0.555,12.121,3.559,8.508,9.891
		c-4.334,7.573-22.916,4-29.945,4.421c0.385,4.447,0.532,8.904,0.441,13.37c6.434,0,25.458-6.046,28.455,2.928
		c3.993,12.031-22.86,10.444-28.453,10.444C268.566,766.199,271.833,781.45,266.798,787.657
		C265.84,788.835,267.754,786.479,266.798,787.657z"/>
	<path style="fill:#FFFFFF;stroke:#000000;stroke-width:2;" d="M342.6,771.193c16.802-4.193,2.331,14.412-7.046,16.933
		c-20.889,5.614-36.953-10.366-32.734-31.408c2.941-14.718,21.963-26.569,36.575-19.668c30.011,14.011-10.027,31.909-21.768,35.691
		C324.145,780.189,335.835,775.351,342.6,771.193z"/>
	<path style="fill:#FFFFFF;stroke:#000000;stroke-width:2;" d="M320.278,752.188c-3.528,2.18-5.37,5.384-5.525,9.613
		c3.954-1.214,22.925-3.971,20.608-10.995C333.729,745.944,323.01,750.354,320.278,752.188z"/>
	<path style="fill:#FFFFFF;stroke:#000000;stroke-width:2;" d="M373.87,779.149c12.401,11.278-14.364,17.585-14.364,2.65
		c-4.609-10.074,0-32.762,0-43.801c0-3.93,1.444-37.735,12.764-20.398C380.622,730.488,370.735,764.912,373.87,779.149z"/>
	<path style="fill:#FFFFFF;stroke:#000000;stroke-width:2;" d="M385.693,720.033c1.052-9.752,14.821-10.55,15.138-0.221
		C401.5,731.326,388.003,728.938,385.693,720.033z"/>
	<path style="fill:#FFFFFF;stroke:#000000;stroke-width:2;" d="M400.279,782.906c-0.999,9.922-12.956,7.69-13.592-1.051
		c-0.914-12.236,1.051-24.693-0.442-36.905c-1.331-10.881,13.812-15.42,13.812-4.198
		C400.058,754.804,400.352,768.855,400.279,782.906z"/>
	<path style="fill:#FFFFFF;stroke:#000000;stroke-width:2;" d="M409.892,778.597c-8.105-23.043,28.084,7.458,26.243-6.683
		c-1.186-9.188-23.041-5.436-24.64-19.891c-2.041-18.295,17.346-21.975,30.331-16.407c11.398,5.229,2.861,15.192-6.851,11.714
		c-8.684-3.379-14.922,3.82-3.202,6.851C469.499,764.006,433.938,811.646,409.892,778.597z"/>
	<path style="fill:#FFFFFF;stroke:#000000;stroke-width:2;" d="M529.227,772.188c10.154-6.492,14.239,7.129,5.913,12.819
		c-9.938,6.778-23.277,5.367-30.772-4.145c-17.354-21.978,10.222-63.279,35.525-41.603c18.243,15.628-15.578,7.594-16.352,7.68
		C505.497,748.942,512.709,788.247,529.227,772.188z"/>
	<path style="fill:#FFFFFF;stroke:#000000;stroke-width:2;" d="M595.083,781.139c2.494,9.069-8.491,10.53-12.818,4.42
		c-8.333,6.253-22.546,6.104-30.221-1.438c-13.49-13.236-1.725-37.175,11.769-44.922
		C599.222,718.871,584.452,765.294,595.083,781.139z"/>
	<path style="fill:#FFFFFF;stroke:#000000;stroke-width:2;" d="M571.657,776.166c8.793-5.59,4.048-17.482,4.421-27.404
		C559.502,751.721,555.617,782.57,571.657,776.166C572.467,775.651,570.552,776.607,571.657,776.166z"/>
	<path style="fill:#FFFFFF;stroke:#000000;stroke-width:2;" d="M604.254,749.205c-12.421-3.102-3.808-13.371,4.975-13.371
		c0-24.636,13.48-26.369,13.48,0c5.431-1.31,21.971,3.408,12.817,11.16c-7.555,6.24-12.774-3.76-12.832,8.397
		c-0.037,7.834-0.492,15.837,0.291,23.646c1.206,12.168-13.041,12.95-13.646,1.215C608.938,771.497,614.069,749.48,604.254,749.205z
		"/>
	<path style="fill:#FFFFFF;stroke:#000000;stroke-width:2;" d="M691.546,777.381c6.548,9.471-6.81,13.46-12.817,4.861
		c-12.586,10.33-30.422,4.891-34.601-10.967c-2.225-8.44-0.539-17.426-0.539-25.994c0-8.614,12.911-13.412,13.48-3.262
		c0.31,7.942-4.596,27.521,4.861,32.047c15.398,6.703,11.766-21.978,12.102-27.017c0.44-6.632,10.051-17.165,13.646-6.464
		C691.655,752.548,683.153,765.551,691.546,777.381C692.209,778.34,690.292,775.613,691.546,777.381z"/>
	<path style="fill:#FFFFFF;stroke:#000000;stroke-width:2;" d="M699.168,778.597c-8.12-23.029,28.083,7.449,26.243-6.683
		c-1.197-9.2-23.039-5.425-24.64-19.891c-2.051-18.3,17.351-21.969,30.33-16.407c11.399,5.229,2.86,15.192-6.85,11.714
		c-8.683-3.379-14.922,3.819-3.204,6.851C758.776,764.002,723.213,811.65,699.168,778.597z"/>
	<path style="fill:#FFFFFF;stroke:#000000;stroke-width:2;" d="M273.428,882.05c4.669,9.021-6.781,9.151-11.023,3.564
		c-4.859-6.412-7.799-14.898-9.042-22.754c-0.692-4.372,3.219-54.497,18.157-45.534c4.528,2.827-7.603,24.54-8.286,30.37
		C261.821,859.657,263.584,873.992,273.428,882.05z"/>
	<path style="fill:#FFFFFF;stroke:#000000;stroke-width:2;" d="M315.113,869.37c5.972,10.214-24.902,10.472-30.25,6.133
		c-17.432-14.155,0.736-38.942,19.641-35.802c-0.174-3.801-2.217-23.004,7.334-17.776
		C323.985,828.595,307.86,859.771,315.113,869.37C316.051,870.974,314.947,869.15,315.113,869.37z"/>
	<path style="fill:#FFFFFF;stroke:#000000;stroke-width:2;" d="M303.594,864.812c8.229-12.381-7.811-22.819-13.757-9.946
		C286.874,864.244,293.514,876.05,303.594,864.812C303.704,864.646,302.156,866.415,303.594,864.812z"/>
	<path style="fill:#FFFFFF;stroke:#000000;stroke-width:2;" d="M322.653,856.193c6.013-24.979,40.725-20.827,34.972,6.381
		C352.029,888.874,316.431,881.809,322.653,856.193z"/>
	<path style="fill:#FFFFFF;stroke:#000000;stroke-width:2;" d="M332.599,857.934c-1.735,9.264,6.75,17.896,13.343,6.752
		C354.221,850.685,337.325,842.365,332.599,857.934C332.433,858.819,332.984,856.663,332.599,857.934z"/>
	<path style="fill:#FFFFFF;stroke:#000000;stroke-width:2;" d="M384.725,852.299c-5.244-9.461-10.771-2.607-10.771,4.883
		c0,3.367,1.771,13.176,0,16.084c0,11.549-10.069,2.493-10.142-5.821c-0.053-6.218-3.086-24.077,1.067-28.735
		c2.84-3.178,18.484-1.232,21.618,0.404c9.483,4.954,28.561-7.989,28.561,15.75c0,1.949,1.573,33.178-8.865,22.05
		c-4.974-5.308,4.744-30.191-6.299-29.584c-11.576,0.647-0.765,23.351-6.505,29.253
		C382.793,887.477,384.792,855.984,384.725,852.299z"/>
	<path style="fill:#FFFFFF;stroke:#000000;stroke-width:2;" d="M453.26,864.896c10.607-2.655,5.106,9.188-1.326,11.434
		c-16.343,6.008-32.202-3.856-28.508-22.293c5.99-29.948,61.774-4.315,11.104,12.016
		C439.279,871.481,448.366,868.229,453.26,864.896z"/>
	<path style="fill:#FFFFFF;stroke:#000000;stroke-width:2;" d="M436.52,850.641c-2.646,1.635-4.025,4.037-4.143,7.21
		C445.222,853.91,453.243,842.654,436.52,850.641z"/>
	<path style="fill:#FFFFFF;stroke:#000000;stroke-width:2;" d="M464.198,870.447c-5.581-15.821,17.879,2.351,19.556-3.231
		c1.774-5.932-13.594-7.421-16.492-11.767c-7.97-11.736,6.317-21.836,17.074-18.605c23.884,7.167-11.163,11.854-7.954,13.631
		c8.686,4.707,23.174,6.531,16.244,21.215C486.629,884.373,470.704,879.249,464.198,870.447z"/>
	<path style="fill:#FFFFFF;stroke:#000000;stroke-width:2;" d="M502.816,848.403c-10.819-2.695,3.515-11.909,3.604-16.822
		c0.305-17.207,10.235-5.129,10.235,6.796c4-0.962,16.481,2.556,9.612,8.369c-8.875,7.328-9.502-6.783-9.654,10.854
		c-0.041,4.389,1.191,12.435-0.042,17.155c-2.021,7.264-9.661,2.348-9.943-3.064C506.248,863.366,509.805,851.051,502.816,848.403z"
		/>
	<path style="fill:#FFFFFF;stroke:#000000;stroke-width:2;" d="M533.23,826.524c0.789-7.313,11.119-7.914,11.353-0.165
		C545.09,834.994,534.963,833.201,533.23,826.524z"/>
	<path style="fill:#FFFFFF;stroke:#000000;stroke-width:2;" d="M544.17,873.68c-0.558,5.539-8.199,7.161-9.819,1.367
		c-2.618-9.338,0.467-20.231-0.702-29.833c-1.002-8.162,10.355-11.564,10.355-3.149C544.004,852.604,544.226,863.141,544.17,873.68z
		"/>
	<path style="fill:#FFFFFF;stroke:#000000;stroke-width:2;" d="M574.088,865.641c5.266-3.365,10.67,1.711,7.045,7.045
		c-5.68,8.771-19.866,6.849-25.689-0.539c-13.113-16.62,7.748-47.378,26.646-31.202c13.678,11.724-11.684,5.694-12.264,5.76
		C557.501,848.074,559.681,876.315,574.088,865.641z"/>
	<path style="fill:#FFFFFF;stroke:#000000;stroke-width:2;" d="M643.782,865.641c5.268-3.367,10.666,1.711,7.045,7.045
		c-5.688,8.767-19.864,6.854-25.691-0.539c-13.106-16.623,7.747-47.379,26.646-31.202c13.673,11.728-11.682,5.694-12.266,5.76
		C627.193,848.075,629.374,876.314,643.782,865.641z"/>
	<path style="fill:#FFFFFF;stroke:#000000;stroke-width:2;" d="M693.175,872.354c2.42,8.796-27.207,7.222-32.278,2.238
		c-11.741-11.509,0.993-31.317,13.053-35.634C696.812,830.767,685.686,861.13,693.175,872.354z"/>
	<path style="fill:#FFFFFF;stroke:#000000;stroke-width:2;" d="M675.605,868.624c7.143-4.543,3.021-12.722,3.312-20.551
		C665.762,850.41,663.784,873.358,675.605,868.624C676.212,868.238,674.776,868.956,675.605,868.624z"/>
	<path style="fill:#FFFFFF;stroke:#000000;stroke-width:2;" d="M700.053,848.403c-10.817-2.697,3.517-11.908,3.605-16.822
		c0.293-17.198,10.233-5.136,10.233,6.796c4.001-0.963,16.483,2.556,9.613,8.369c-8.877,7.335-9.496-6.79-9.655,10.854
		c-0.039,4.387,1.191,12.437-0.042,17.155c-2.013,7.267-9.659,2.345-9.941-3.064C703.479,863.364,707.048,851.051,700.053,848.403z"
		/>
	<path style="fill:#FFFFFF;stroke:#000000;stroke-width:2;" d="M728.146,880.973c10.918-10.941,12.104-29.8,6.878-43.838
		c-1.785-4.795-7.903-9.936-8.203-15.083c-0.225-5.676,7.026-7.443,9.61-2.484c12.78,18.006,14.958,39.396,5.512,59.792
		C737.541,888.846,721.557,894.197,728.146,880.973z"/>
</g>
<path style="fill:#FFFFFF;stroke:#000000;stroke-width:2;stroke-miterlimit:10;" d="M422.617,614.276
	c15.586-0.395,31.465-0.785,46.689,3.17c7.522,1.957,17.092,14.878,3.571,14.938c-15.888,0.074-83.728,4.54-90.202-14.573
	C395.99,616.633,409.304,615.454,422.617,614.276z"/>
<path style="fill:#FFFFFF;stroke:#000000;stroke-width:2;stroke-miterlimit:10;" d="M317.525,496.271
	c14.983-5.439,58.368-11.433,40.688-35.061c-15.262-20.398-41.744-35.773-67.277-36.241c-4.099-0.075-3.559,35.713-3.298,39.908
	c0.565,9.175,1.868,37.5,11.676,42.397c6.353,3.172,28.934-15.688,34.931-18.417C328.673,491.33,323.099,493.801,317.525,496.271z"
	/>
<path style="fill:#FFFFFF;stroke:#000000;stroke-width:2;stroke-miterlimit:10;" d="M157.367,590.972
	c2.73,8.06-1.126,16.411,3.581,24.079c3.348,5.454,8.658,9.289,12.965,13.896c3.393,3.628,24.264,38.509,27.294,12.038
	c1.995-17.444-24.239-17.528-23.513-36.788c0.898-23.723,1.795-47.443,2.693-71.165
	C172.714,552.345,165.041,571.658,157.367,590.972z"/>
<path style="fill:#FFFFFF;stroke:#000000;stroke-width:2;stroke-miterlimit:10;" d="M144.345,441.116
	c-22.806-33.498-14.804-79.002,11.537-107.891c24.108-26.439,80.643-50.669,104.11-9.726c7.326,12.781,8.981,46.594-14.514,39.187
	c-18.77-5.917-35.475-12.292-55.68-9.304c-41.859,6.189-51.221,67.452-27.888,96.507C156.055,446.965,150.2,444.041,144.345,441.116
	z"/>
<path style="fill:#FFFFFF;stroke:#000000;stroke-width:2;stroke-miterlimit:10;" d="M276.775,502.17
	c6.288-2.071,25.687,28.391,28.771,32.546c13.31,17.941,19.859,34.46,26.418,55.956c8.974,29.406,27.967,43.452,58.021,48.071
	c15.651,2.405,31.131,5.679,46.769,8.124c5.701,0.892,32.847-2.476,36.8,2.523c13.112,16.584-31.325,13.069-35.789,12.868
	c-37.495-1.698-74.754-6.604-112.218-8.761c-35.107-2.021-73.085,4.684-102.365-19.08c-11.202-9.092-20.08-20.673-27.135-33.192
	c-3.686-6.54-14.157-43.134-22.563-42.432c1.797,11.532-0.241,23.628-5.611,33.979c-5.349,10.312-22.629,23.123-16.821,36.421
	c3.534,8.087,13.429,9.751,19.152,15.666c8.876,9.174,1.15,19.706-10.405,17.157c-23.78-5.24-25.847-39.532-26.279-58.26
	c-0.704-30.495-5.472-59.745-14.344-88.917c-12.251-40.284-16.883-105.457,45.474-98.587c21.873,2.41,40.468,14.974,53.917,31.869
	C230.24,462.79,252.308,510.23,276.775,502.17C281.27,500.689,266.697,505.49,276.775,502.17z"/>
<path style="fill:#FFFFFF;stroke:#000000;stroke-width:2;stroke-miterlimit:10;" d="M278.908,595.637
	c9.925,16.284,53.272,48.35,66.735,18.01c12.558-28.298-5.131-65.857-20.293-89.735c-11.76-18.521-36.723-46.656-54.587-17.822
	C255.107,531.354,264.407,571.836,278.908,595.637C291.882,616.923,266,574.451,278.908,595.637z"/>
<path style="fill:#FFFFFF;stroke:#000000;stroke-width:2;stroke-miterlimit:10;" d="M339.475,605.639
	c-26.61,8.283-6.555,44.488,18.216,34.495C380.773,630.824,359.184,599.503,339.475,605.639
	C333.746,607.422,350.95,602.066,339.475,605.639z"/>
<path style="fill:#FFFFFF;stroke:#000000;stroke-width:2;stroke-miterlimit:10;" d="M389.097,472.685
	c1.271-10.417,23.999-22.077,31.991-26.527c10.719-5.968,30.833-19.958,36.096-5.082c11.014,31.134,0.292,64.903-19,90.27
	C421.822,511.791,405.459,492.238,389.097,472.685z"/>
<path style="fill:#FFFFFF;stroke:#000000;stroke-width:2;stroke-miterlimit:10;" d="M319.273,616.16
	c-46.805-18.723-56.754-86.068-26.433-123.457c32.107-39.591,93.854-56.67,136.713-24.575
	c33.547,25.122,80.61,91.872,43.863,130.786C432.451,642.297,370.037,636.454,319.273,616.16
	C311.773,613.16,333.588,621.883,319.273,616.16z"/>
<path style="fill:#1D1D1B;stroke:#000000;stroke-miterlimit:10;" d="M440.401,500.805c-2.873,0.704-3.313,4.827-1.962,7.025
	c1.155,1.883,3.546,2.156,5.252,0.86c1.226-0.936,2.271-2.247,2.674-3.754c0.967-3.63-2.7-7.195-6.237-5.573
	c-3.307,1.519-4.01,5.977-3.015,9.132c0.481,1.53,1.783,2.496,3.372,2.566c2.343,0.104,4.796-1.517,5.302-3.874
	c0.364-1.704-0.365-3.402-2.011-4.098c-1.573-0.664-3.456-0.082-4.336,1.422c-0.264,0.451,0,0.043,0.216-0.119
	c0.217-0.159,0.556-0.322,0.829-0.319c1.123,0.854,2.246,1.71,3.37,2.566c-0.122-0.342-0.261-0.71-0.304-1.071
	c0.045,0.382,0.033-0.045,0.04-0.188c0.053-1-0.16,0.423,0.083-0.554c0.142-0.562,0.184-0.133-0.069-0.01
	c-0.396,0.188-2.891,0.271-3.195-0.176c-0.07-0.271-0.139-0.541-0.208-0.812c-0.006-0.108,0.018-0.206,0.069-0.295
	c-0.064-0.068-0.225,0.368-0.071,0.16c-0.059,0.074-0.648,0.642-0.353,0.475c0.487-0.132,0.974-0.263,1.459-0.393
	c-0.084-0.011-0.167-0.018-0.252-0.023c0.479,0.13,0.957,0.258,1.438,0.387c0.303,0.173,0.062,0.225,0.011-0.151
	c-0.026-0.186-0.118-0.431-0.166-0.63c-0.125-0.539-0.162-1.082-0.307-1.629C441.844,501.025,441.094,500.635,440.401,500.805
	L440.401,500.805z"/>
<path style="fill:#1D1D1B;stroke:#000000;stroke-miterlimit:10;" d="M375.875,495.62c-1.438,0.625-1.837,2.585-1.95,3.993
	c-0.146,1.809,0.344,3.649,2.105,4.475c3.192,1.492,6.396-1.701,7.333-4.494c1.083-3.229-0.396-8.424-4.5-8.434
	c-4.856-0.012-5.633,6.047-4.967,9.668c0.561,3.052,4.63,3.663,6.625,1.749c1.625-1.562,1.727-4.03,0.413-5.801
	c-1.201-1.62-3.779-2.387-5.519-1.076c-1.074,0.809-1.83,1.77-1.83,3.188c0,1.207,0.684,2.653,1.83,3.19
	c0.056,0.026,0.11,0.052,0.165,0.076c-0.456-0.453-0.911-0.909-1.368-1.366c0.197,0.318,0.153,0.207-0.13-0.342
	c0-0.701,0-1.405,0-2.106c-0.015,0.071-0.03,0.146-0.045,0.217c0.342-0.585,0.682-1.169,1.021-1.754
	c-0.048,0.059-0.099,0.113-0.146,0.17c2.208,0.584,4.417,1.165,6.627,1.749c-0.075-0.271-0.174-0.554-0.202-0.834
	c0.054,0.511,0.049-0.298,0.062-0.456c0.021-0.209,0.148-0.089,0.065-0.25c0.081-0.241,0.078-0.273-0.012-0.09
	c-0.089,0.165-0.188,0.324-0.283,0.481c-0.552,0.319-1.103,0.642-1.651,0.962c0.109-0.021,0.225-0.037,0.332-0.057
	c-0.657,0-1.317,0-1.979,0c-1.043-1.023-1.354-1.211-0.925-0.559c-0.14-0.346-0.146-0.32-0.021,0.073
	c0.235-0.89-0.154,0.988-0.012,0.165c-0.125,0.364-0.125,0.421,0.002,0.166c-0.094,0.198-0.203,0.387-0.326,0.566
	c0.136-0.21,0.088-0.17-0.146,0.12c0.333-0.147,0.693-0.206,1.08-0.168c0.392,0.229,0.787,0.458,1.18,0.688
	c-0.648-0.605-0.303-2.555-0.923-3.414C377.304,495.451,376.627,495.292,375.875,495.62L375.875,495.62z"/>
<path style="fill:#FFFFFF;stroke:#000000;stroke-width:2;stroke-miterlimit:10;" d="M390.201,578.542
	c1.88,21.558,15.544,4.496,18.666-5.678c1.723-5.617,3.044-11.327,3.963-17.131c-6.129-0.923-6.526-8.771-6.453-13.225
	c-0.131,7.96-9.021,8.138-13.257,12.773C387.909,560.987,389.6,571.649,390.201,578.542
	C390.406,580.894,389.67,572.451,390.201,578.542z"/>
<path style="fill:#1D1D1B;stroke:#000000;stroke-miterlimit:10;" d="M413.208,529.355c1.096-2.567-0.892-5.184-3.597-5.402
	c-3.72-0.302-7.679,4.934-5.93,8.312c3.637,7.03,14.911,2.054,12.875-5.437c-0.99-3.646-4.656-6.113-8.366-6.028
	c-3.931,0.092-7.167,3.229-8.207,6.879c-2.408,8.466,7.899,17.168,15.059,10.446c3.637-3.413,3.696-9.588-0.719-12.39
	c-4.048-2.572-9.429-1.205-10.968,3.507c-0.61,1.873,0.406,4.095,2.06,5.062c1.838,1.074,3.872,0.568,5.434-0.7
	c-1.807,1.47-3.733-1.61-1.901-2.608c0.524-0.286,0.517,0.658,0.085-0.22c-0.141-0.285-0.269-0.396-0.158-0.715
	c0.055-0.16,0.188-0.782,0.347-0.686c0.001,0.002-0.415,0.271-0.619,0.146c-0.652-0.392,0.354-1.738,0.588-1.939
	c-0.735,0.642-0.166-0.12,0.084,0.068c0.45,0.336,0.596,0.003,1.087,0.723c0.13,0.992,0.26,1.982,0.389,2.976
	c0.076-0.441,0.479-1.4,0.423-1.807c0.047-0.117,0.125-0.209,0.24-0.277c-0.286,0.167-0.553,0.085-0.798-0.241
	C410.938,530.062,412.698,530.554,413.208,529.355L413.208,529.355z"/>
<path style="fill:#1D1D1B;stroke:#000000;stroke-miterlimit:10;" d="M384.507,549.65c1.611,2.801,3.188,4.6,6.46,5.478
	c2.934,0.789,6.233,0.33,8.93-1.022c6.221-3.129,9.695-11.229,8.307-17.961c-0.626-3.039-5.071-2.173-5.208,0.702
	c-0.226,4.722-0.488,9.423-4.687,12.516c-3.294,2.425-9.566,2.466-12.514-0.704C385.153,547.965,384.047,548.852,384.507,549.65
	L384.507,549.65z"/>
<path style="fill:#1D1D1B;stroke:#000000;stroke-miterlimit:10;" d="M418.908,555.91c-4.248-0.105-7.021-1.608-8.224-5.938
	c-1.198-4.327-0.382-8.366,0.337-12.664c0.68-4.081-4.906-5.755-6.271-1.728c-2.11,6.225-1.533,14.562,2.411,19.978
	c2.519,3.455,9.91,7.091,12.455,1.582C419.878,556.585,419.573,555.929,418.908,555.91L418.908,555.91z"/>
<path style="fill:#FFFFFF;stroke:#000000;stroke-width:2;stroke-miterlimit:10;" d="M462.014,545.264
	c4.909,1.359,48.746,9.185,42.559-4.733c-3.255-7.321-17.979-4.017-23.561-3.675C480.285,536.9,450.674,542.133,462.014,545.264z"/>
<path style="fill:#FFFFFF;stroke:#000000;stroke-width:2;stroke-miterlimit:10;" d="M462.438,560.378
	c3.89,5.604,50.331,27.817,47.305,12.452c-1.498-7.604-22.95-12.484-29.23-14.412C479.025,557.961,456.806,552.249,462.438,560.378z
	"/>
<path style="fill:#FFFFFF;stroke:#000000;stroke-width:2;stroke-miterlimit:10;" d="M344.837,524.408
	c-2.84-12.086-52.835-11.798-49.743-0.484C297.089,531.219,344.748,524.032,344.837,524.408z"/>
<path style="fill:#FFFFFF;stroke:#000000;stroke-width:2;stroke-miterlimit:10;" d="M346.66,544.132
	c-1.674-10.528-43.904,4.724-45.226,10.664C298.391,568.48,347.217,547.627,346.66,544.132z"/>
<path style="fill:#FFFFFF;stroke:#000000;stroke-width:2;stroke-miterlimit:10;" d="M837.725,529.837
	c25.063-6.804,46.676-31.287,41.741-58.321c-5.31-29.093-39.271-25.396-49.293-48.915c-12.341-28.961,27.107-40.203,47.329-33.971
	c24.839,7.654,44.741,29.081,51.946,53.866c16.776,57.711-39.958,100.854-90.656,108.814c-18.293,2.872-47.654,6.104-61.047-10.31
	C764.312,524.539,829.521,532.062,837.725,529.837C852.38,525.858,822.913,533.856,837.725,529.837z"/>
<path style="fill:#FFFFFF;stroke:#000000;stroke-width:2;stroke-miterlimit:10;" d="M577.325,531.497
	c4.693,28.154,10.18,56.287,16.057,84.218c3.11,14.787,7.065,29.729,15.097,42.703c9.773,15.811,10.914-11.787,10.19-16.57
	c-0.702-4.633-4.856-16.429-1.642-20.707c8.16-10.994,27.896,10.545,31.552,16.073c5.893,8.933,11.256,26.438,21.915,30.797
	c11.131,4.555,6.89-21.184,5.469-25.193c33.706,6.341,68.314,7.818,102.445,4.472c22.728-2.229,72.25-23.724,91.983-6.095
	c6.075,5.43,6.745,14.938,12.734,20.488c10.312,9.558,12.979-16.46,12.029-21.296c-5.352-27.196-21.105-56.158-35.25-79.563
	c-40.454-66.938-105.948-66.974-175.641-78.891c-27.96-4.78-59.105-37.9-87.831-33.55
	C565.911,453.018,574.074,512.08,577.325,531.497C577.99,535.485,573.65,509.549,577.325,531.497z"/>
<path style="fill:#FFFFFF;stroke:#000000;stroke-width:2;stroke-miterlimit:10;" d="M603.986,558.576
	c1.88,21.623,6.058,43.044,12.424,63.794c4.9-16.177,32.093,14.521,34.781,19.03c-8.289-24.998-12.938-50.381-16.746-76.365
	c-1.396-9.516-3.599-21.455-11.347-28.113C608.745,524.587,603.194,549.418,603.986,558.576
	C605.866,580.201,603.514,553.108,603.986,558.576z"/>
<path style="fill:#FFFFFF;stroke:#000000;stroke-width:2;stroke-miterlimit:10;" d="M619.64,360.328
	c2.306-14.742,7.743-50.916-7.327-61.12c-19.461,11.85-30.396,33.334-36.482,54.572c-5.746,20.054-2.405,21.56,14.15,16.183
	C599.866,366.751,609.753,363.54,619.64,360.328z"/>
<path style="fill:#FFFFFF;stroke:#000000;stroke-width:2;stroke-miterlimit:10;" d="M696.146,439.488
	c14.134-8.274,35.852-21.939,41.815-38.188c7.086-19.302-55.198-3.795-63.479-0.303c-19.559,8.247-19.77,11.824-4.562,21.611
	C678.663,428.235,687.404,433.862,696.146,439.488z"/>
<path style="fill:#FFFFFF;stroke:#000000;stroke-width:2;stroke-miterlimit:10;" d="M577.325,531.5
	c43.336,22.945,111.454,8.769,114.882-48.525c-32.191-3.208-57.467-27.197-88.689-34.2
	C566.604,440.495,574.281,513.318,577.325,531.5C588.471,537.401,573.65,509.55,577.325,531.5z"/>
<path style="fill:#FFFFFF;stroke:#000000;stroke-width:2;stroke-miterlimit:10;" d="M631.62,522.405
	c47.336-6.557,86.666-50.377,65.956-98.823c-17.995-42.097-67.76-76.185-114.371-69.077c-52.463,8-83.526,57.859-63.318,107.742
	C537.887,506.682,585.073,528.852,631.62,522.405C643.707,520.731,589.889,528.185,631.62,522.405z"/>
<path style="fill:#231F20;stroke:#000000;stroke-miterlimit:10;" d="M573.443,421.925c-1.759,1.519-3.974,2.507-6.104,3.384
	c-2.285,0.938-4.628,1.604-7.08,1.941c-4.595,0.637-9.288,0.11-13.481-1.948c-7.484-3.675-12.602-12.372-10.488-20.698
	c0.705-2.783,5.016-1.604,4.307,1.188c-1.677,6.616,2.729,13.326,8.521,16.273c3.519,1.79,7.727,2.19,11.607,1.84
	c1.997-0.186,3.99-0.587,5.914-1.144c2.062-0.594,3.975-1.552,6.008-2.21C573.406,420.305,574.065,421.389,573.443,421.925
	L573.443,421.925z"/>
<path style="fill:#231F20;stroke:#000000;stroke-miterlimit:10;" d="M624.99,451.769c-3.514,6.863-2.098,16.045,3.767,21.193
	c6.021,5.288,15.278,4.908,21.507,0.248c1.845-1.382,4.222,1.695,2.474,3.207c-5.832,5.048-14.312,5.993-21.348,3.001
	c-6.942-2.953-11.272-9.896-11.512-17.361c-0.128-4.047,0.919-8.052,3.245-11.378C623.918,449.549,625.628,450.519,624.99,451.769
	L624.99,451.769z"/>
<path style="fill:#231F20;stroke:#000000;stroke-miterlimit:10;" d="M578.628,454.903c2.325,0.72,2.466,4.005,0.95,5.583
	c-1.063,1.108-2.753,0.46-3.906-0.222c-1.181-0.694-2.175-1.77-2.743-3.017c-0.69-1.507-1.071-3.184,0.578-4.207
	c1.076-0.668,2.451-0.71,3.618-0.265c1.198,0.458,2.257,1.318,2.81,2.495c0.603,1.283,0.681,3.25-0.558,4.203
	c-1.347,1.04-3.664,0.509-4.967-0.358c-1.532-1.021-2.396-2.568-2.532-4.392c-0.088-1.208,1.047-2.033,2.12-2.118
	c2.754-0.222,7.575,1.875,6.606,5.394c-0.486,1.767-2.498,2.529-4.041,1.566c-1.716-1.068-1.612-3.195-0.059-4.328
	c0.863-0.629,2.208-0.23,2.798,0.559c0.646,0.861,0.607,2.064-0.17,2.85c-0.035,0.033-0.066,0.068-0.104,0.104
	c0.186-0.322,0.374-0.642,0.561-0.964c-0.01,0.04-0.019,0.079-0.025,0.117c0-0.391,0-0.777,0-1.165
	c-0.63-0.356-1.257-0.715-1.885-1.072c-0.319,0.188-0.645,0.375-0.967,0.562c-0.035,0.027-0.064,0.058-0.1,0.088
	c-0.103,0.365-0.198,0.731-0.297,1.102c-0.038,0.443,0.298,0.212-0.115,0.021c-0.213-0.104-0.395-0.273-0.615-0.37
	c-0.527-0.233-1.018-0.255-1.595-0.222c0.708-0.707,1.415-1.411,2.12-2.118c0.031,0.545,0.854,1.312,1.483,1.188
	c-0.401,0.313-0.809,0.624-1.216,0.938c-0.121,0.268-0.046,0.151-0.116-0.035c0.115,0.309-0.215-0.197-0.023-0.012
	c-0.046-0.046-0.34-0.347-0.271-0.29c-0.146-0.12-0.325-0.228-0.567-0.266c-0.096-0.015-0.233,0.115-0.013-0.057
	c0.179-0.434,0.356-0.863,0.533-1.295c-0.045,1.7,1.169,3.082,2.787,3.494c-0.354,0.048-0.714,0.095-1.07,0.141
	c0.971-0.55,0.634-1.776,0.143-2.538C577.438,455.455,578.019,454.715,578.628,454.903L578.628,454.903z"/>
<path style="fill:#231F20;stroke:#000000;stroke-miterlimit:10;" d="M577.93,458.998c-2.651,6.141-4.54,13.107-2.75,19.773
	c1.238,4.629,4.452,9.759,9.709,10.141c2.608,0.188,2.67,4.201,0,4.105c-6.979-0.241-11.622-6.388-13.153-12.718
	c-1.807-7.441,0.125-16.299,4.984-22.238C577.325,457.328,578.247,458.27,577.93,458.998L577.93,458.998z"/>
<path style="fill:#231F20;stroke:#000000;stroke-miterlimit:10;" d="M576.191,457.825c0.135,3.772-2.608,7.623-5.366,9.977
	c-3.095,2.646-7.264,4.224-11.358,3.96c-8.45-0.538-15.691-7.493-16.367-15.943c-0.178-2.225,3.577-2.771,3.934-0.533
	c0.994,6.193,6.122,11.868,12.629,12.222c3.229,0.174,6.285-0.802,8.996-2.515c2.999-1.894,4.529-4.552,6.29-7.502
	C575.293,456.908,576.17,457.168,576.191,457.825L576.191,457.825z"/>
<path style="fill:#FFFFFF;stroke:#000000;stroke-width:2;stroke-miterlimit:10;" d="M627.045,496.725
	c1.862,4.725,27.699,29.384,28.717,17.1C656.33,506.962,626.46,495.233,627.045,496.725z"/>
<path style="fill:#FFFFFF;stroke:#000000;stroke-width:2;stroke-miterlimit:10;" d="M618.008,508.134
	c0.43,4.478,12.937,29.685,18.379,21.403C640.62,523.095,617.798,505.938,618.008,508.134z"/>
<path style="fill:#FFFFFF;stroke:#000000;stroke-width:2;stroke-miterlimit:10;" d="M533.675,428.219
	c0.33-4.973-21.893-33.312-26.849-24.347C501.815,412.938,533.464,431.576,533.675,428.219z"/>
<path style="fill:#FFFFFF;stroke:#000000;stroke-width:2;stroke-miterlimit:10;" d="M524.104,438.735
	c-3.877-2.718-27.932-13.915-28.51-5.765C494.812,443.957,527.692,441.247,524.104,438.735z"/>
</svg>
