<?xml version="1.0" encoding="utf-8"?>
<!-- Generator: Adobe Illustrator 16.0.0, SVG Export Plug-In . SVG Version: 6.00 Build 0)  -->
<!DOCTYPE svg PUBLIC "-//W3C//DTD SVG 1.1//EN" "http://www.w3.org/Graphics/SVG/1.1/DTD/svg11.dtd">
<svg version="1.1" id="Layer_1" xmlns="http://www.w3.org/2000/svg" xmlns:xlink="http://www.w3.org/1999/xlink" x="0px" y="0px"
	 width="100%" height="100%" viewBox="0 0 1000 1000" enable-background="new 0 0 1000 1000" xml:space="preserve">
<path fill="#FFFFFF" stroke="#231F20" stroke-width="2" stroke-miterlimit="10" d="M302.13,707.065
	c1.05-10.999,5.653-19.697,10.597-20.517l22.09-89.124l5.99,1.483l-22.474,90.672c2.665,3.941,4.032,11.212,3.255,19.343
	c-0.776,8.12-3.489,14.989-6.843,18.362l64.479,136.538l-5.58,2.637l-64.77-137.155C304.043,727.785,301.062,718.238,302.13,707.065
	z"/>
<path fill="#FFFFFF" stroke="#231F20" stroke-width="2" stroke-miterlimit="10" d="M379.225,719.028
	c0-9.542-2.805-17.627-6.687-20.481v-92.67h-6.171v92.67c-3.886,2.854-6.688,10.939-6.688,20.481c0,9.543,2.802,17.625,6.688,20.486
	v153.358h6.171V739.515C376.42,736.653,379.225,728.571,379.225,719.028z"/>
<path fill="#FFFFFF" stroke="#231F20" stroke-width="2" stroke-miterlimit="10" d="M505.594,456.847
	c14.916-27.773,20.573-36.003,41.146-59.146c5.84-6.572,20.795-26.817,24.062-39.732c-4.737,1.735-9.901,2.7-15.32,2.7
	c-22.724,0-41.145-16.81-41.145-37.545c0-20.735,18.421-37.545,41.145-37.545c21.684,0,36.72,16.963,41.021,34.724
	c2.802,11.013,9.04,47.546-18.903,84.085c0,0-74.577,88.979-31.372,111.095c0,0,15.941,7.715,40.63-20.573
	c24.69-28.286,72.521-88.979,162.014-50.916c89.493,38.06,74.578,146.069,75.092,159.443c0,0-28.802-55.035-108.523-20.061
	c-79.722,34.974-175.585,10.24-201.102-23.66C489.167,526.273,490.679,484.62,505.594,456.847z"/>
<path fill="#FFFFFF" stroke="#231F20" stroke-width="2" stroke-miterlimit="10" d="M717.257,686.783
	c-1.05-10.998-5.653-19.696-10.597-20.517l-22.09-89.123l-5.99,1.483l22.474,90.672c-2.665,3.941-4.032,11.211-3.255,19.343
	c0.776,8.12,3.489,14.988,6.843,18.361l-64.479,136.539l5.579,2.637l64.771-137.155
	C715.344,707.503,718.323,697.957,717.257,686.783z"/>
<path fill="#FFFFFF" stroke="#231F20" stroke-width="2" stroke-miterlimit="10" d="M640.162,698.747
	c0-9.542,2.805-17.627,6.687-20.482v-92.67h6.171v92.67c3.886,2.855,6.688,10.94,6.688,20.482c0,9.543-2.802,17.625-6.688,20.486
	v153.358h-6.171V719.233C642.967,716.372,640.162,708.29,640.162,698.747z"/>
<g>
	<g>
		<path id="SVGID_1_" fill="#FFFFFF" d="M449.146,381.337c0,0,47.992,19.005,28.51,69.371c0,0-1.366,3.259-3.798,3.017
			c-1.372,0-2.557-1.243-2.855-3.017c-0.741-4.444-4.276-33.734-26.608-36.586C444.395,414.122,449.146,393.69,449.146,381.337z"/>
	</g>
	<g>
		<defs>
			<path id="SVGID_5_" d="M449.146,381.337c0,0,47.992,19.005,28.51,69.371c0,0-1.366,3.259-3.798,3.017
				c-1.372,0-2.557-1.243-2.855-3.017c-0.741-4.444-4.276-33.734-26.608-36.586C444.395,414.122,449.146,393.69,449.146,381.337z"/>
		</defs>
		<clipPath id="SVGID_6_">
			<use xlink:href="#SVGID_5_"  overflow="visible"/>
		</clipPath>
		<path clip-path="url(#SVGID_6_)" fill="#FFFFFF" stroke="#231F20" stroke-width="2" stroke-miterlimit="10" d="M449.146,381.337
			c0,0,47.992,19.005,28.51,69.371c0,0-1.366,3.259-3.798,3.017c-1.372,0-2.557-1.243-2.855-3.017
			c-0.741-4.444-4.276-33.734-26.608-36.586C444.395,414.122,449.146,393.69,449.146,381.337z"/>
	</g>
	<g>
		<defs>
			<path id="SVGID_7_" d="M449.146,381.337c0,0,47.992,19.005,28.51,69.371c0,0-1.366,3.259-3.798,3.017
				c-1.372,0-2.557-1.243-2.855-3.017c-0.741-4.444-4.276-33.734-26.608-36.586C444.395,414.122,449.146,393.69,449.146,381.337z"/>
		</defs>
		<clipPath id="SVGID_8_">
			<use xlink:href="#SVGID_7_"  overflow="visible"/>
		</clipPath>
		<path clip-path="url(#SVGID_8_)" fill="#FFFFFF" stroke="#231F20" stroke-width="2" stroke-miterlimit="10" d="M482.31,407.771
			c0,0,2.172,18.528-37.915,29.932l18.967,34.209c0,0,36.448-2.851,40.726-8.554c4.274-5.7,7.128-38.483,7.128-38.483
			L482.31,407.771z"/>
	</g>
	<g>
		<path id="SVGID_2_" fill="none" stroke="#231F20" stroke-width="2" stroke-miterlimit="10" d="M449.146,381.337
			c0,0,47.992,19.005,28.51,69.371c0,0-1.366,3.259-3.798,3.017c-1.372,0-2.557-1.243-2.855-3.017
			c-0.741-4.444-4.276-33.734-26.608-36.586C444.395,414.122,449.146,393.69,449.146,381.337z"/>
	</g>
</g>
<path fill="#FFFFFF" stroke="#231F20" stroke-width="2" stroke-miterlimit="10" d="M462.856,514.316
	c-13.781-25.658-19.007-33.262-38.013-54.642c-5.396-6.071-19.211-24.774-22.229-36.705c4.376,1.604,9.148,2.495,14.151,2.495
	c20.991,0,38.012-15.528,38.012-34.685s-17.019-34.687-38.012-34.687c-20.031,0-33.923,15.67-37.896,32.079
	c-2.588,10.175-8.352,43.923,17.464,77.68c0,0,68.896,82.2,28.983,102.632c0,0-14.729,7.127-37.535-19.005
	c-22.807-26.134-66.995-82.2-149.67-47.04c-82.677,35.16-68.896,134.941-69.372,147.295c0,0,26.608-50.842,100.255-18.531
	c73.648,32.31,162.21,9.458,185.784-21.855C478.033,578.451,476.635,539.974,462.856,514.316z"/>
<path fill="#FFFFFF" stroke="#231F20" stroke-width="2" stroke-miterlimit="10" d="M418.406,384.731
	c1.269,10.77,14.572,12.037,17.738,1.267"/>
<g>
	<path fill="#FFFFFF" stroke="#231F20" stroke-width="2" stroke-miterlimit="10" d="M371.38,555.745
		c-13.913-18.278-43.825-45.34-99.71-47.113c0,0-41.667-0.271-56.413,20.036c-13.392,18.448,10.635,23.542,26.793,26.962
		c10.147,0.42,20.157-2.123,29.517-7.366c2.635-1.477,4.99,2.564,2.36,4.038c-10.645,5.962-22.23,8.767-33.894,7.918
		c-11.323,6.896-29.458,22.101,11.545,31.125c6.812-1.519,13.634-3.104,20.144-5.571c9.71-3.684,17.813-9.401,24.528-17.332
		c1.948-2.305,5.242,1.021,3.305,3.309c-6.593,7.785-14.677,13.804-24.173,17.594c-4.972,1.981-10.095,3.465-15.272,4.762
		c-1.688,5.088-5.413,26.683,56.792,19.103C409.713,601.903,371.38,555.745,371.38,555.745z"/>
</g>
<g>
	<g>
		<g>
			<path id="SVGID_3_" fill="#FFFFFF" d="M520.434,312.901c0,0-51.945,20.574-30.86,75.092c0,0,1.48,3.527,4.112,3.265
				c1.481,0,2.768-1.345,3.088-3.265c0.809-4.812,4.63-36.517,28.805-39.603C525.578,348.39,520.434,326.275,520.434,312.901z"/>
		</g>
		<g>
			<defs>
				<path id="SVGID_9_" d="M520.434,312.901c0,0-51.945,20.574-30.86,75.092c0,0,1.48,3.527,4.112,3.265
					c1.481,0,2.768-1.345,3.088-3.265c0.809-4.812,4.63-36.517,28.805-39.603C525.578,348.39,520.434,326.275,520.434,312.901z"/>
			</defs>
			<clipPath id="SVGID_10_">
				<use xlink:href="#SVGID_9_"  overflow="visible"/>
			</clipPath>
			<path clip-path="url(#SVGID_10_)" fill="#FFFFFF" stroke="#231F20" stroke-width="2" stroke-miterlimit="10" d="M520.434,312.901
				c0,0-51.945,20.574-30.86,75.092c0,0,1.48,3.527,4.112,3.265c1.481,0,2.768-1.345,3.088-3.265
				c0.809-4.812,4.63-36.517,28.805-39.603C525.578,348.39,520.434,326.275,520.434,312.901z"/>
		</g>
		<g>
			<defs>
				<path id="SVGID_11_" d="M520.434,312.901c0,0-51.945,20.574-30.86,75.092c0,0,1.48,3.527,4.112,3.265
					c1.481,0,2.768-1.345,3.088-3.265c0.809-4.812,4.63-36.517,28.805-39.603C525.578,348.39,520.434,326.275,520.434,312.901z"/>
			</defs>
			<clipPath id="SVGID_12_">
				<use xlink:href="#SVGID_11_"  overflow="visible"/>
			</clipPath>
			<path clip-path="url(#SVGID_12_)" fill="#FFFFFF" stroke="#231F20" stroke-width="2" stroke-miterlimit="10" d="M484.537,341.517
				c0,0-2.353,20.057,41.041,32.4l-20.533,37.03c0,0-39.451-3.086-44.08-9.258c-4.628-6.172-7.717-41.658-7.717-41.658
				L484.537,341.517z"/>
		</g>
		<g>
			<path id="SVGID_4_" fill="none" stroke="#231F20" stroke-width="2" stroke-miterlimit="10" d="M520.434,312.901
				c0,0-51.945,20.574-30.86,75.092c0,0,1.48,3.527,4.112,3.265c1.481,0,2.768-1.345,3.088-3.265
				c0.809-4.812,4.63-36.517,28.805-39.603C525.578,348.39,520.434,326.275,520.434,312.901z"/>
		</g>
	</g>
	<path fill="#FFFFFF" stroke="#231F20" stroke-width="2" stroke-miterlimit="10" d="M505.594,456.847
		c14.916-27.773,20.573-36.003,41.146-59.146c5.84-6.572,20.795-26.817,24.062-39.732c-4.737,1.735-9.901,2.7-15.32,2.7
		c-22.724,0-41.145-16.81-41.145-37.545c0-20.735,18.421-37.545,41.145-37.545c21.684,0,36.72,16.963,41.021,34.724
		c2.802,11.013,9.04,47.546-18.903,84.085c0,0-74.577,88.979-31.372,111.095c0,0,15.941,7.715,40.63-20.573
		c24.69-28.286,72.521-88.979,162.014-50.916c89.493,38.06,74.578,146.069,75.092,159.443c0,0-28.802-55.035-108.523-20.061
		c-79.722,34.974-175.585,10.24-201.102-23.66C489.167,526.273,490.679,484.62,505.594,456.847z"/>
</g>
<path fill="#FFFFFF" stroke="#231F20" stroke-width="2" stroke-miterlimit="10" d="M553.71,316.577
	c-1.373,11.658-15.773,13.028-19.201,1.372"/>
<g>
	<path fill="#FFFFFF" stroke="#231F20" stroke-width="2" stroke-miterlimit="10" d="M604.615,501.693
		c15.059-19.787,47.437-49.08,107.93-50.998c0,0,45.104-0.294,61.065,21.689c14.496,19.971-11.512,25.483-29,29.186
		c-10.983,0.455-21.82-2.301-31.952-7.977c-2.852-1.597-5.403,2.776-2.555,4.369c11.521,6.455,24.062,9.49,36.688,8.574
		c12.257,7.465,31.885,23.923-12.497,33.691c-7.375-1.644-14.76-3.36-21.805-6.032c-10.512-3.986-19.283-10.177-26.554-18.76
		c-2.111-2.495-5.675,1.105-3.578,3.58c7.137,8.429,15.885,14.943,26.167,19.043c5.381,2.147,10.927,3.752,16.531,5.157
		c1.828,5.508,5.86,28.882-61.477,20.678C563.122,551.656,604.615,501.693,604.615,501.693z"/>
</g>
<path fill="#FFFFFF" stroke="#231F20" stroke-width="2" stroke-miterlimit="10" d="M218.443,231.368
	c-1.757,2.159-3.783,3.647-6.077,4.457c-2.298,0.81-4.658,0.81-7.09,0c-2.43-0.81-4.457-2.634-6.077-5.47
	c-0.679-1.082-1.215-2.229-1.622-3.443c-0.405-1.215-0.606-2.432-0.606-3.646v-47.809c-1.757-1.08-3.073-2.498-3.95-4.255
	c-0.88-1.753-1.318-3.612-1.318-5.57c0-1.957,0.472-3.815,1.418-5.572c0.943-1.753,2.229-3.242,3.85-4.457
	c-0.137-2.565-0.172-4.725-0.102-6.483c0.066-1.753,0.102-3.443,0.102-5.065s0-3.273,0-4.963c0-1.687-0.137-3.679-0.405-5.975
	c-0.136-1.89-0.576-3.749-1.316-5.572c-0.743-1.823-1.387-3.646-1.925-5.47c-0.542-1.824-0.744-3.679-0.608-5.57
	c0.133-1.89,0.943-3.713,2.43-5.47c2.027-2.432,4.488-3.882,7.395-4.355c2.903-0.472,5.84-0.842,8.813-1.114
	c6.21-0.405,12.388-0.608,18.535-0.608c6.145,0,12.323-0.133,18.537-0.405c1.753,0,3.646-0.168,5.671-0.506
	c2.027-0.337,4.052-0.608,6.077-0.81c2.025-0.202,4.052-0.204,6.077,0c2.025,0.203,3.85,0.778,5.47,1.722
	c2.025,1.215,3.51,2.77,4.457,4.658c0.943,1.893,1.383,3.85,1.317,5.875c-0.07,2.025-0.644,3.985-1.722,5.875
	c-1.083,1.893-2.633,3.376-4.66,4.457c-3.513,1.894-7.362,2.872-11.547,2.938c-4.187,0.07-8.171,0.172-11.952,0.303
	c-4.457,0.137-8.913,0.172-13.37,0.102c-4.457-0.066-8.914,0.035-13.37,0.303c0.27,2.567,0.472,5.605,0.608,9.117
	c0.133,3.513,0.203,8.645,0.203,15.395c4.32,0,8.712-0.066,13.167-0.203c4.457-0.133,8.843-0.538,13.168-1.215
	c2.293-0.27,4.725-0.775,7.292-1.52c2.563-0.74,4.995-0.979,7.292-0.708c2.7,0.271,5.065,1.285,7.09,3.038
	c2.025,1.757,3.408,3.749,4.153,5.975c0.74,2.229,0.708,4.527-0.102,6.889c-0.81,2.363-2.633,4.355-5.47,5.975
	c-3.376,1.893-6.988,3.276-10.836,4.153c-3.85,0.88-7.8,1.488-11.852,1.823c-4.052,0.338-8.104,0.475-12.153,0.405
	c-4.052-0.067-7.97-0.102-11.75-0.102v45.175C221.28,226.642,220.197,229.205,218.443,231.368z"/>
<path fill="#FFFFFF" stroke="#231F20" stroke-width="2" stroke-miterlimit="10" d="M368.957,107.39
	c0.538-4.995,2.26-8.677,5.165-11.042c2.903-2.361,5.977-3.51,9.216-3.443c3.242,0.07,6.245,1.317,9.016,3.749
	c2.767,2.43,4.218,5.875,4.354,10.332c0.269,4.593-0.911,8.139-3.545,10.635c-2.633,2.5-5.64,3.918-9.015,4.253
	c-3.377,0.339-6.552-0.573-9.521-2.735c-2.973-2.158-4.795-5.603-5.47-10.332L368.957,107.39z"/>
<path fill="#FFFFFF" stroke="#231F20" stroke-width="2" stroke-miterlimit="10" d="M395.695,222.657
	c-0.271,2.703-1.215,5.1-2.837,7.191c-1.62,2.092-3.479,3.612-5.57,4.559c-2.095,0.943-4.354,1.146-6.786,0.608
	c-2.431-0.542-4.592-2.027-6.482-4.457c-1.081-1.352-1.857-2.869-2.329-4.559c-0.476-1.687-0.778-3.443-0.912-5.267
	c-0.137-1.823-0.172-3.646-0.102-5.47c0.066-1.823,0.102-3.475,0.102-4.963c-0.137-7.966-0.172-15.868-0.102-23.702
	c0.066-7.832,0.031-15.731-0.102-23.702c0-3.241-0.203-6.513-0.608-9.825c-0.405-3.307-0.203-6.583,0.608-9.825
	c0.673-2.43,1.854-4.523,3.545-6.28c1.687-1.753,3.576-2.968,5.672-3.647c2.092-0.675,4.255-0.74,6.483-0.203
	c2.228,0.542,4.153,1.958,5.773,4.253c2.158,2.703,3.241,5.368,3.241,8.001s0,5.843,0,9.622c0,4.594,0,9.185,0,13.775
	c0,4.593,0.066,9.116,0.203,13.573c0.134,6.483,0.203,12.965,0.203,19.446c0,6.483,0,12.965,0,19.449L395.695,222.657
	L395.695,222.657z"/>
<path fill="#FFFFFF" stroke="#231F20" stroke-width="2" stroke-miterlimit="10" d="M413.318,214.757
	c-0.811-2.295-1.148-4.559-1.012-6.787c0.134-2.228,0.708-4.255,1.722-6.076c1.012-1.824,2.464-3.242,4.355-4.255
	c1.89-1.012,4.185-1.383,6.886-1.113c1.485,0.137,2.837,0.542,4.052,1.215c1.216,0.676,2.329,1.488,3.342,2.43
	c1.014,0.947,2.025,1.96,3.038,3.039c1.014,1.082,2.058,2.025,3.141,2.836c2.295,1.757,4.725,3.039,7.293,3.85
	c2.563,0.81,5.267,1.418,8.104,1.823c1.891,0,3.408-0.472,4.559-1.418c1.146-0.943,1.925-2.091,2.33-3.443
	c0.404-1.348,0.506-2.801,0.303-4.355c-0.203-1.551-0.708-2.801-1.52-3.748c-2.299-2.293-5.1-3.78-8.406-4.457
	c-3.311-0.674-6.382-1.485-9.217-2.43c-4.052-1.348-8.037-3.07-11.952-5.167c-3.918-2.092-7.09-4.963-9.52-8.61
	c-2.568-3.78-4.087-7.8-4.559-12.053c-0.476-4.255-0.137-8.407,1.014-12.458c1.146-4.051,3.069-7.765,5.772-11.143
	c2.7-3.374,5.942-6.144,9.724-8.305c2.837-1.62,5.94-2.665,9.318-3.14c3.375-0.472,6.787-0.574,10.23-0.304
	c3.443,0.272,6.853,0.912,10.229,1.923c3.373,1.013,6.483,2.127,9.318,3.343c3.242,1.488,5.672,3.58,7.292,6.28
	c1.621,2.703,2.396,5.438,2.33,8.203c-0.07,2.77-1.014,5.167-2.837,7.192s-4.491,3.038-8.002,3.038c-2.161,0-4.121-0.37-5.875-1.113
	c-1.756-0.74-3.58-1.45-5.47-2.126c-2.43-0.943-5.065-1.587-7.899-1.925c-2.837-0.335-5.136-0.168-6.889,0.507
	c-0.542,0.137-1.148,0.577-1.823,1.317c-0.677,0.743-1.184,1.655-1.521,2.735c-0.338,1.082-0.404,2.162-0.203,3.242
	c0.203,1.082,0.912,1.96,2.127,2.633c3.241,1.756,6.685,3.108,10.331,4.052c3.647,0.947,7.224,2.025,10.737,3.242
	c3.51,1.215,6.786,2.77,9.824,4.658c3.039,1.893,5.572,4.593,7.598,8.104c2.97,5.135,4.488,10.501,4.558,16.104
	c0.067,5.605-1.047,10.837-3.342,15.7c-2.298,4.862-5.671,9.015-10.13,12.458c-4.456,3.443-9.656,5.501-15.598,6.178
	c-4.188,0.405-8.306,0.168-12.358-0.708c-4.052-0.88-7.971-2.298-11.749-4.255c-3.783-1.958-7.293-4.285-10.535-6.988
	c-3.241-2.7-6.076-5.535-8.508-8.508L413.318,214.757z"/>
<path fill="#FFFFFF" stroke="#231F20" stroke-width="2" stroke-miterlimit="10" d="M613.667,230.76
	c-1.757,2.159-3.783,3.647-6.077,4.457c-2.298,0.81-4.658,0.81-7.09,0c-2.432-0.81-4.457-2.635-6.076-5.47
	c-0.679-1.082-1.216-2.228-1.622-3.443c-0.405-1.215-0.608-2.43-0.608-3.646v-53.278c-2.566,0-4.896-0.708-6.988-2.127
	c-2.095-1.418-3.646-3.171-4.658-5.267c-1.014-2.091-1.387-4.32-1.113-6.685c0.27-2.361,1.348-4.557,3.241-6.583
	c1.349-1.485,2.802-2.463,4.355-2.937c1.552-0.471,3.206-0.775,4.963-0.912c-0.137-4.185-0.238-8.305-0.305-12.358
	c-0.07-4.051,0.235-8.103,0.911-12.155c0.811-6.347,2.7-11.75,5.672-16.207c2.971-4.457,6.65-7.9,11.042-10.332
	c4.387-2.43,9.283-3.85,14.687-4.255c5.4-0.405,11.007,0.405,16.813,2.43c2.43,0.81,4.76,1.823,6.988,3.038
	c2.229,1.215,4.22,2.77,5.977,4.66c1.215,1.352,2.092,2.937,2.634,4.76c0.538,1.823,0.638,3.646,0.303,5.47
	c-0.338,1.823-1.013,3.514-2.024,5.065c-1.014,1.553-2.466,2.735-4.355,3.545c-2.568,1.082-5.1,1.352-7.597,0.81
	c-2.5-0.538-4.963-1.418-7.395-2.633c-1.488-0.538-2.905-1.08-4.254-1.622c-1.352-0.538-2.77-0.943-4.255-1.215
	c-1.488-0.27-2.837-0.067-4.052,0.606c-1.215,0.678-2.264,1.59-3.14,2.735c-0.88,1.148-1.556,2.43-2.025,3.85
	c-0.475,1.418-0.708,2.805-0.708,4.153c-0.137,3.108-0.172,6.249-0.102,9.42c0.066,3.175,0.102,6.315,0.102,9.42
	c2.024-0.133,4.185-0.27,6.481-0.405c2.295-0.133,4.559-0.203,6.787-0.203c2.228,0,4.286,0.07,6.18,0.203
	c1.89,0.137,3.373,0.405,4.457,0.81c2.158,0.81,3.916,2.06,5.267,3.749c1.348,1.69,2.229,3.513,2.633,5.47
	c0.405,1.96,0.235,3.95-0.507,5.975c-0.743,2.027-2.06,3.783-3.949,5.267c-1.757,1.352-3.784,2.298-6.077,2.837
	c-2.298,0.542-4.729,0.912-7.292,1.115c-2.567,0.204-5.064,0.272-7.496,0.204c-2.43-0.067-4.592-0.102-6.481-0.102v54.088
	C616.502,226.035,615.42,228.598,613.667,230.76z"/>
<path fill="#FFFFFF" stroke="#231F20" stroke-width="2" stroke-miterlimit="10" d="M651.345,179.913
	c0.943-3.915,2.261-7.765,3.95-11.546c1.687-3.78,3.748-7.395,6.179-10.836c2.432-3.443,5.166-6.585,8.205-9.42
	c3.038-2.835,6.312-5.13,9.824-6.887c6.21-3.242,12.459-4.893,18.738-4.963c6.28-0.066,12.12,1.184,17.523,3.749
	c5.4,2.568,9.994,6.382,13.775,11.447c3.78,5.065,6.28,11.11,7.497,18.13c0.673,4.592,1.043,8.948,1.113,13.067
	c0.066,4.122-0.374,8.407-1.317,12.863c-1.352,6.35-4.086,12.662-8.205,18.94c-4.121,6.28-9.05,11.546-14.788,15.802
	c-5.741,4.253-12.021,7.055-18.84,8.406c-6.821,1.349-13.675,0.271-20.562-3.241c-3.108-1.488-5.91-3.208-8.407-5.165
	c-2.5-1.957-4.76-4.287-6.786-6.988c-2.299-2.97-4.087-6.077-5.368-9.318c-1.285-3.242-2.33-6.615-3.141-10.128
	c-0.946-3.78-1.285-7.597-1.012-11.447c0.269-3.848,0.74-7.597,1.419-11.243L651.345,179.913z"/>
<path fill="#FFFFFF" stroke="#231F20" stroke-width="2" stroke-miterlimit="10" d="M675.655,184.167
	c-0.405,2.162-0.743,4.289-1.012,6.382c-0.273,2.095-0.273,4.222,0,6.382c0.405,3.108,1.246,5.945,2.531,8.508
	c1.283,2.568,2.97,4.593,5.065,6.077c2.092,1.488,4.488,2.263,7.189,2.33c2.7,0.07,5.604-0.775,8.712-2.533
	c3.917-2.295,7.293-5.84,10.13-10.635c2.837-4.792,4.59-9.79,5.267-14.99c0.674-5.198,0.134-10.13-1.62-14.788
	c-1.756-4.658-5.201-8.002-10.331-10.028c-3.377,0-6.483,0.642-9.318,1.925c-2.837,1.285-5.302,2.972-7.394,5.065
	c-2.095,2.095-3.92,4.559-5.47,7.395C677.849,178.09,676.597,181.062,675.655,184.167z"/>
<path fill="#FFFFFF" stroke="#231F20" stroke-width="2" stroke-miterlimit="10" d="M756.682,165.833
	c0.133-0.877,0.066-2.463-0.203-4.76c-2.162-1.215-3.851-2.767-5.065-4.66c-1.215-1.89-1.925-3.915-2.126-6.076
	c-0.204-2.159,0.203-4.22,1.215-6.18c1.013-1.955,2.665-3.612,4.963-4.963c3.105-1.753,6.516-2.092,10.23-1.013
	c3.713,1.082,6.92,2.703,9.621,4.861c3.373-2.563,6.889-4.725,10.533-6.481c3.647-1.753,7.36-2.938,11.142-3.545
	c3.78-0.607,7.629-0.507,11.547,0.305c3.917,0.81,7.766,2.5,11.547,5.065c1.89,1.215,3.646,2.735,5.267,4.559
	c1.622,1.823,2.634,3.883,3.038,6.178c0.676,3.377,0.405,6.315-0.81,8.812c-1.215,2.5-2.906,4.325-5.065,5.47
	c-2.161,1.148-4.591,1.488-7.291,1.012c-2.704-0.472-5.267-1.925-7.698-4.355c-0.811-0.539-1.387-0.979-1.722-1.317
	c-0.339-0.335-1.049-0.775-2.127-1.316c-2.162-0.539-4.288-0.405-6.382,0.405c-2.095,0.81-4.121,1.925-6.076,3.342
	c-1.96,1.418-3.783,2.973-5.471,4.66c-1.689,1.69-3.21,3.21-4.558,4.558v51.657c0,2.027-0.405,3.985-1.216,5.875
	c-1.215,3.105-3.14,5.267-5.772,6.483c-2.634,1.215-5.267,1.552-7.9,1.012c-2.634-0.542-4.932-1.892-6.889-4.052
	c-1.958-2.162-2.937-4.928-2.937-8.305V166.34C756.48,166.882,756.547,166.713,756.682,165.833z"/>
<path fill="#FFFFFF" stroke="#231F20" stroke-width="2" stroke-miterlimit="10" d="M169.927,891.368
	c-1.757,2.158-3.783,3.646-6.077,4.457c-2.298,0.81-4.659,0.81-7.09,0c-2.43-0.811-4.457-2.634-6.076-5.47
	c-0.679-1.082-1.215-2.229-1.622-3.443c-0.405-1.216-0.606-2.432-0.606-3.647v-47.808c-1.757-1.08-3.073-2.499-3.95-4.255
	c-0.88-1.754-1.318-3.612-1.318-5.57c0-1.957,0.472-3.815,1.418-5.571c0.943-1.754,2.229-3.242,3.85-4.457
	c-0.137-2.565-0.172-4.726-0.102-6.483c0.066-1.753,0.102-3.443,0.102-5.065c0-1.621,0-3.273,0-4.963
	c0-1.687-0.137-3.679-0.405-5.975c-0.137-1.891-0.577-3.749-1.316-5.572c-0.743-1.823-1.387-3.646-1.925-5.47
	c-0.542-1.823-0.744-3.679-0.608-5.57c0.133-1.89,0.943-3.713,2.43-5.47c2.027-2.432,4.488-3.882,7.395-4.355
	c2.903-0.472,5.84-0.842,8.813-1.113c6.21-0.404,12.388-0.608,18.535-0.608c6.145,0,12.323-0.133,18.537-0.404
	c1.753,0,3.646-0.169,5.671-0.507c2.027-0.337,4.052-0.608,6.077-0.811c2.025-0.201,4.052-0.203,6.077,0
	c2.025,0.204,3.85,0.778,5.47,1.722c2.025,1.216,3.51,2.771,4.457,4.659c0.943,1.893,1.383,3.85,1.317,5.875
	c-0.07,2.024-0.644,3.984-1.722,5.874c-1.083,1.894-2.634,3.377-4.66,4.457c-3.513,1.894-7.362,2.872-11.547,2.938
	c-4.187,0.07-8.171,0.172-11.952,0.304c-4.457,0.137-8.913,0.171-13.37,0.102c-4.457-0.067-8.914,0.035-13.37,0.303
	c0.27,2.567,0.472,5.605,0.608,9.117c0.133,3.513,0.203,8.645,0.203,15.395c4.32,0,8.712-0.066,13.167-0.203
	c4.457-0.133,8.844-0.538,13.168-1.215c2.293-0.271,4.725-0.775,7.292-1.521c2.563-0.739,4.995-0.978,7.292-0.708
	c2.7,0.271,5.065,1.285,7.09,3.038c2.025,1.757,3.408,3.749,4.153,5.976c0.74,2.229,0.708,4.526-0.102,6.888
	c-0.81,2.363-2.633,4.355-5.47,5.976c-3.376,1.894-6.988,3.276-10.836,4.153c-3.85,0.88-7.8,1.488-11.852,1.823
	c-4.052,0.338-8.104,0.475-12.153,0.405c-4.052-0.067-7.97-0.102-11.75-0.102v45.175
	C172.762,886.642,171.68,889.205,169.927,891.368z"/>
<path fill="#FFFFFF" stroke="#231F20" stroke-width="2" stroke-miterlimit="10" d="M273.847,875.769
	c1.485,1.352,2.735,3.073,3.748,5.166c1.014,2.096,1.552,4.188,1.622,6.28c0.066,2.092-0.405,4.052-1.418,5.875
	c-1.012,1.823-2.805,3.207-5.368,4.153c-2.027,0.674-4.255,0.811-6.685,0.405c-2.43-0.405-4.83-1.215-7.192-2.43
	c-2.363-1.216-4.457-2.669-6.28-4.355c-1.823-1.689-3.14-3.545-3.95-5.571c-0.271-0.674-0.475-1.45-0.608-2.33
	c-0.137-0.877-0.203-1.652-0.203-2.329V768.2c0-3.105,1.18-5.738,3.545-7.901c2.362-2.159,4.963-3.443,7.798-3.849
	c1.348-0.134,2.802,0.069,4.355,0.608c1.552,0.541,3.005,1.316,4.355,2.328c1.349,1.014,2.463,2.196,3.343,3.545
	c0.877,1.352,1.317,2.77,1.317,4.255c0,3.514,0,8.174,0,13.979c0,5.809,0.032,12.155,0.102,19.042
	c0.067,6.888,0.102,14.013,0.102,21.371c0,7.362-0.035,14.419-0.102,21.17c-0.07,6.755-0.102,12.934-0.102,18.537
	c0,5.604-0.07,10.099-0.204,13.472L273.847,875.769z"/>
<path fill="#FFFFFF" stroke="#231F20" stroke-width="2" stroke-miterlimit="10" d="M378.988,879.415
	c1.078,3.918,0.877,7.16-0.608,9.724c-1.488,2.562-3.545,4.284-6.18,5.165c-2.634,0.876-5.504,0.774-8.61-0.304
	c-3.108-1.082-5.809-3.242-8.104-6.483c-3.783,2.837-7.465,4.826-11.041,5.977c-3.58,1.146-7.667,1.788-12.257,1.924
	c-6.887,0.27-13.035-0.507-18.436-2.329c-5.403-1.823-9.961-4.558-13.675-8.205c-3.715-3.646-6.452-8.203-8.205-13.673
	c-1.757-5.47-2.364-11.781-1.824-18.941c0.27-2.97,0.775-5.875,1.52-8.712c0.74-2.837,1.587-5.604,2.534-8.305
	c1.078-2.971,2.598-6.146,4.558-9.521c1.955-3.374,3.95-6.28,5.975-8.712c7.292-8.913,16.408-15.327,27.349-19.245
	c1.89-0.674,4.456-1.281,7.698-1.823c3.241-0.538,6.515-0.775,9.825-0.708c3.308,0.069,6.483,0.506,9.521,1.316
	c3.038,0.81,5.298,2.229,6.786,4.253c1.215,1.62,2.092,3.038,2.634,4.255c0.538,1.216,0.842,2.5,0.911,3.849
	c0.067,1.352,0.067,2.805,0,4.355c-0.069,1.555-0.102,3.478-0.102,5.772c0,3.784-0.035,7.464-0.102,11.04
	c-0.07,3.58-0.035,7.192,0.102,10.839c0,1.215,0,2.805,0,4.76c0,1.958,0.066,4.02,0.203,6.179c0.134,2.161,0.304,4.223,0.507,6.178
	c0.204,1.96,0.507,3.545,0.912,4.761L378.988,879.415z"/>
<path fill="#FFFFFF" stroke="#231F20" stroke-width="2" stroke-miterlimit="10" d="M336.042,870.3
	c1.484-0.943,3.171-1.99,5.064-3.14c1.891-1.146,3.577-2.464,5.065-3.95c-1.215-7.156-1.925-14.313-2.127-21.474
	c-0.203-7.156-0.172-14.383,0.102-21.677c-6.076,1.082-11.547,3.716-16.408,7.9c-4.861,4.188-8.24,9.116-10.13,14.788
	c-0.81,2.299-1.488,4.66-2.025,7.09c-0.541,2.431-0.743,4.795-0.608,7.091c0.134,3.108,0.943,5.706,2.431,7.8
	c1.484,2.095,3.273,3.68,5.368,4.76c2.092,1.082,4.32,1.69,6.685,1.823C331.818,871.448,334.015,871.11,336.042,870.3z"/>
<path fill="#FFFFFF" stroke="#231F20" stroke-width="2" stroke-miterlimit="10" d="M442.392,830.392v-2.837
	c-1.215-3.104-3.175-5.298-5.875-6.585c-2.703-1.281-5.604-2.057-8.712-2.328c-1.756,0.542-3.175,1.148-4.253,1.823
	c-1.082,0.677-2.025,1.418-2.837,2.229c-0.81,0.81-1.555,1.722-2.229,2.735c-0.678,1.011-1.488,2.06-2.43,3.14v53.075
	c0,4.188-1.25,7.461-3.748,9.825c-2.5,2.361-5.267,3.713-8.306,4.051c-3.038,0.336-5.843-0.404-8.406-2.228
	c-2.566-1.823-3.918-4.896-4.052-9.217c-0.271-10.398-0.373-22.215-0.303-35.452c0.066-13.233,0.102-28.021,0.102-44.364
	c0-2.837,0.842-5.198,2.533-7.091c1.687-1.89,3.713-3.171,6.076-3.848c2.362-0.676,4.792-0.641,7.292,0.102
	c2.498,0.743,4.559,2.264,6.18,4.559c7.562-3.78,15.092-4.964,22.587-3.546c7.495,1.419,14.281,4.964,20.358,10.636
	c2.7-2.7,5.604-5.132,8.712-7.294c3.104-2.158,6.482-3.576,10.13-4.253c4.185-0.675,8.406-0.507,12.661,0.507
	c4.254,1.013,8.203,2.668,11.851,4.963c3.646,2.297,6.853,5.134,9.621,8.509c2.767,3.376,4.827,7.023,6.179,10.938
	c0.675,2.703,1.014,5.135,1.014,7.291v55.102c0,1.62-0.204,3.176-0.608,4.658c-1.216,3.511-3.141,5.976-5.773,7.396
	c-2.634,1.418-5.337,1.925-8.104,1.52c-2.771-0.404-5.167-1.689-7.191-3.85c-2.027-2.162-3.039-5.065-3.039-8.712v-54.493
	c-1.215-3.241-2.972-5.604-5.267-7.09c-2.298-1.485-4.66-2.158-7.09-2.025c-2.43,0.137-4.76,1.012-6.988,2.634
	c-2.229,1.62-4.02,3.85-5.368,6.685v53.075c0,3.646-1.184,6.685-3.545,9.115c-2.363,2.432-4.964,3.981-7.799,4.66
	c-2.836,0.673-5.505,0.404-8.001-0.811c-2.5-1.215-3.95-3.646-4.355-7.291L442.392,830.392z"/>
<path fill="#FFFFFF" stroke="#231F20" stroke-width="2" stroke-miterlimit="10" d="M535.776,767.39
	c0.539-4.995,2.261-8.677,5.165-11.041c2.903-2.362,5.977-3.511,9.217-3.443c3.242,0.069,6.245,1.316,9.016,3.748
	c2.767,2.43,4.218,5.875,4.354,10.332c0.269,4.593-0.912,8.138-3.545,10.635c-2.634,2.5-5.64,3.918-9.015,4.253
	c-3.377,0.339-6.552-0.573-9.521-2.734c-2.974-2.158-4.795-5.604-5.47-10.332L535.776,767.39z"/>
<path fill="#FFFFFF" stroke="#231F20" stroke-width="2" stroke-miterlimit="10" d="M562.517,882.656
	c-0.271,2.704-1.215,5.101-2.837,7.192c-1.619,2.092-3.479,3.611-5.569,4.558c-2.096,0.943-4.355,1.147-6.787,0.608
	c-2.43-0.541-4.592-2.026-6.481-4.456c-1.082-1.352-1.858-2.869-2.33-4.559c-0.475-1.687-0.778-3.443-0.912-5.267
	c-0.137-1.823-0.171-3.646-0.102-5.47c0.067-1.823,0.102-3.476,0.102-4.964c-0.137-7.967-0.171-15.868-0.102-23.701
	c0.067-7.832,0.032-15.732-0.102-23.702c0-3.241-0.203-6.514-0.608-9.825c-0.405-3.307-0.203-6.583,0.608-9.824
	c0.674-2.431,1.855-4.523,3.545-6.28c1.687-1.754,3.577-2.969,5.672-3.646c2.092-0.676,4.255-0.74,6.483-0.204
	c2.229,0.542,4.153,1.959,5.773,4.254c2.158,2.703,3.241,5.368,3.241,8.002c0,2.633,0,5.843,0,9.621c0,4.594,0,9.186,0,13.775
	c0,4.593,0.067,9.116,0.204,13.573c0.133,6.483,0.203,12.965,0.203,19.446c0,6.483,0,12.966,0,19.448v1.42H562.517z"/>
<path fill="#FFFFFF" stroke="#231F20" stroke-width="2" stroke-miterlimit="10" d="M665.832,883.062
	c-0.405,3.377-1.655,6.144-3.749,8.305c-2.095,2.158-4.456,3.511-7.09,4.052c-2.633,0.539-5.165,0.204-7.597-1.012
	c-2.43-1.215-4.188-3.58-5.267-7.09c-1.215-3.78-1.69-7.729-1.418-11.85c0.27-4.118,0.404-7.932,0.404-11.445
	c0-7.293,0.032-14.55,0.103-21.776c0.066-7.224-0.237-14.485-0.912-21.777c-0.137-0.27-0.271-0.506-0.405-0.708
	c-0.137-0.203-0.405-0.507-0.81-0.911c-3.108-0.811-6.417-0.608-9.927,0.606c-3.514,1.215-6.483,2.77-8.913,4.66
	c-2.162,1.756-4.289,4.153-6.382,7.191c-2.095,3.038-3.14,5.975-3.14,8.812v27.955c0,2.161,0.066,4.526,0.203,7.09
	c0.133,2.566,0.031,5.065-0.306,7.495c-0.338,2.43-1.113,4.658-2.328,6.686c-1.215,2.024-3.175,3.51-5.875,4.456
	c-1.488,0.538-2.871,0.74-4.153,0.608c-1.285-0.137-2.668-0.475-4.153-1.014c-2.432-0.81-4.188-2.196-5.269-4.153
	c-1.081-1.956-1.823-4.052-2.229-6.279c-0.404-2.229-0.576-4.387-0.506-6.481c0.066-2.092,0.102-3.749,0.102-4.964
	c0-3.104-0.035-7.597-0.102-13.472c-0.07-5.875-0.102-12.054-0.102-18.537c0-6.481,0-12.661,0-18.536s0-10.363,0-13.472
	c0-2.97,0.876-5.436,2.633-7.396c1.754-1.956,3.815-3.241,6.18-3.85c2.362-0.608,4.862-0.472,7.495,0.405
	c2.634,0.88,4.827,2.668,6.584,5.368c5.399-3.51,11.345-5.875,17.826-7.09c6.483-1.215,12.592-1.014,18.334,0.608
	c5.738,1.619,10.533,4.658,14.383,9.116c3.851,4.457,5.84,10.604,5.976,18.436c0,0.272,0.066,1.081,0.203,2.43
	c0.133,1.352,0.203,3.241,0.203,5.672v51.861H665.832z"/>
<path fill="#FFFFFF" stroke="#231F20" stroke-width="2" stroke-miterlimit="10" d="M691.354,930.668
	c-2.299-2.836-3.514-5.773-3.646-8.812c-0.137-3.038,0.538-5.64,2.024-7.8c1.485-2.162,3.612-3.646,6.382-4.457
	c2.767-0.81,5.84-0.404,9.219,1.216c1.484,1.078,2.836,1.89,4.052,2.43c1.215,0.538,2.903,1.349,5.064,2.43
	c2.026,0.943,4.321,1.653,6.889,2.127c2.564,0.472,4.995,0.573,7.291,0.304c4.591-0.272,8.136-1.047,10.636-2.329
	c2.498-1.284,4.286-2.972,5.368-5.064c1.078-2.095,1.722-4.66,1.925-7.698c0.203-3.039,0.304-6.452,0.304-10.23
	c-4.323,1.485-8.646,2.601-12.965,3.344c-4.323,0.739-8.782,0.842-13.37,0.303c-8.914-1.081-16.242-4.253-21.98-9.52
	c-5.741-5.269-9.927-11.547-12.56-18.84c-2.634-7.292-3.715-15.092-3.242-23.398c0.472-8.305,2.396-15.97,5.773-22.992
	c2.025-4.052,4.792-7.8,8.305-11.243c3.511-3.443,7.46-6.28,11.851-8.508c4.387-2.229,8.979-3.679,13.774-4.355
	c4.792-0.673,9.421-0.269,13.877,1.215c2.563,0.947,5.065,1.894,7.495,2.837c2.43,0.946,4.792,2.162,7.09,3.646
	c2.563-2.293,5.57-3.443,9.016-3.443c3.444,0,6.381,1.62,8.812,4.861c0.538,0.811,1.146,1.723,1.823,2.735
	c0.673,1.014,1.012,1.995,1.012,2.938c0.133,14.451,0.168,28.866,0.102,43.25c-0.07,14.384-0.102,28.802-0.102,43.25
	c0,5.805-0.778,11.208-2.328,16.207c-1.556,4.995-3.886,9.42-6.989,13.268c-3.108,3.851-6.958,6.988-11.546,9.42
	c-4.594,2.432-9.927,3.982-16.006,4.66c-3.107,0.269-6.146,0.405-9.114,0.405c-2.974,0-6.012-0.338-9.117-1.014
	c-4.323-0.81-8.477-2.161-12.458-4.052c-3.985-1.892-7.935-3.984-11.852-6.279L691.354,930.668z"/>
<path fill="#FFFFFF" stroke="#231F20" stroke-width="2" stroke-miterlimit="10" d="M715.257,868.882
	c5.941,2.837,11.411,3.748,16.408,2.734c4.995-1.012,10.06-3.271,15.193-6.786v-32.21c-3.919-3.917-7.733-6.65-11.445-8.205
	c-3.717-1.552-8.138-1.99-13.269-1.316c-0.946,0.541-1.857,1.013-2.734,1.418c-0.88,0.405-1.792,0.81-2.735,1.215
	c-2.837,3.242-4.998,6.382-6.483,9.42c-1.488,3.038-2.363,6.146-2.633,9.318c-0.273,3.175-0.035,6.417,0.708,9.724
	c0.74,3.31,1.855,6.922,3.344,10.837c0.404,0.678,1.012,1.352,1.823,2.026C714.245,867.736,714.852,868.344,715.257,868.882z"/>
<path fill="#FFFFFF" stroke="#231F20" stroke-width="2" stroke-miterlimit="10" d="M786.967,839.913
	c0.943-3.915,2.26-7.765,3.95-11.547c1.687-3.779,3.748-7.395,6.178-10.836c2.432-3.443,5.167-6.585,8.205-9.42
	s6.312-5.131,9.825-6.887c6.21-3.242,12.458-4.894,18.738-4.964c6.28-0.066,12.12,1.184,17.523,3.748
	c5.4,2.568,9.993,6.382,13.775,11.447c3.779,5.064,6.279,11.109,7.496,18.13c0.674,4.592,1.043,8.948,1.113,13.066
	c0.066,4.122-0.373,8.407-1.316,12.863c-1.352,6.351-4.087,12.662-8.205,18.94c-4.121,6.28-9.05,11.547-14.788,15.802
	c-5.742,4.253-12.021,7.055-18.84,8.406c-6.822,1.349-13.675,0.271-20.562-3.241c-3.108-1.488-5.91-3.209-8.407-5.165
	c-2.5-1.957-4.76-4.287-6.786-6.988c-2.299-2.97-4.087-6.077-5.369-9.318c-1.284-3.242-2.33-6.615-3.14-10.129
	c-0.946-3.779-1.285-7.597-1.012-11.446c0.269-3.849,0.74-7.597,1.419-11.243L786.967,839.913z"/>
<path fill="#FFFFFF" stroke="#231F20" stroke-width="2" stroke-miterlimit="10" d="M811.276,844.167
	c-0.404,2.161-0.743,4.288-1.012,6.382c-0.273,2.095-0.273,4.221,0,6.381c0.405,3.108,1.247,5.945,2.532,8.509
	c1.283,2.568,2.97,4.593,5.064,6.076c2.092,1.488,4.488,2.264,7.19,2.33c2.7,0.07,5.604-0.774,8.712-2.533
	c3.916-2.295,7.293-5.84,10.13-10.635c2.837-4.792,4.59-9.79,5.267-14.99c0.673-5.198,0.133-10.13-1.62-14.788
	c-1.757-4.658-5.202-8.002-10.332-10.028c-3.376,0-6.483,0.642-9.318,1.925c-2.836,1.285-5.302,2.972-7.393,5.065
	c-2.096,2.095-3.921,4.558-5.471,7.395C813.47,838.09,812.22,841.062,811.276,844.167z"/>
</svg>
