<?xml version="1.0" encoding="utf-8"?>
<!-- Generator: Adobe Illustrator 16.0.0, SVG Export Plug-In . SVG Version: 6.00 Build 0)  -->
<!DOCTYPE svg PUBLIC "-//W3C//DTD SVG 1.1//EN" "http://www.w3.org/Graphics/SVG/1.1/DTD/svg11.dtd">
<svg version="1.1" xmlns="http://www.w3.org/2000/svg" xmlns:xlink="http://www.w3.org/1999/xlink" x="0px" y="0px" width="100%"
	 height="100%" viewBox="0 0 1000 1000" style="enable-background:new 0 0 1000 1000;" xml:space="preserve">
<g id="Layer_3">
	<rect style="fill:#FFFFFF;" width="1000" height="1000"/>
</g>
<g id="Layer_1">
		<path style="fill:#FFFFFF;stroke:#000000;stroke-width:2;" d="M286.201,757.341c6.003,1.804,8.129,8.919,2.542,12.376
			c-2.169,3.215,0.355,13.14-0.471,17.224c-2.804,13.864-25.917,16.017-36.08,12.106c-15.296-5.885-24.012-22.254-22.746-38.253
			c1.464-18.492,16.38-30.231,33.771-33.619c5.707-1.107,12.728-0.912,18.079,1.645c5.336,2.549,9.396,12.835,0.429,13.771
			c-5.315,0.544-9.531-3.388-14.973-2.486c-7.728,2.206-15.775,5.488-20.718,12.154c-8.579,11.57-1.196,30.684,12.168,34.572
			c3.404,0.99,17.058,1.176,17.058-4.626c0-3.758,0-7.515,0-11.272c-5.998,0.302-12.621,2.015-18.232-1.104
			c-4.964-2.912-3.499-10.626,1.878-12.044C267.247,755.929,277.728,757.341,286.201,757.341
			C287.674,757.783,283.254,757.341,286.201,757.341z"/>
		<path style="fill:#FFFFFF;stroke:#000000;stroke-width:2;" d="M347.969,791.816c1.842,6.683-5.278,11.024-10.774,6.629
			c-3.342-2.672-15.077,2.901-21.725,1.633c-20.662-3.94-18.802-29.395-8.053-42.295c9.287-11.353,35.249-20.261,35.249,1.104
			C342.665,771.272,342.522,780.65,347.969,791.816z M324.543,786.844c6.147-3.908,5.094-4.689,4.567-11.676
			c-0.394-5.223-0.343-10.498-0.147-15.729C312.666,762.349,308.199,793.373,324.543,786.844
			C325.353,786.329,323.438,787.285,324.543,786.844z"/>
		<path style="fill:#FFFFFF;stroke:#000000;stroke-width:2;" d="M371.284,789.827c12.397,11.29-14.365,17.576-14.365,2.651
			c-1.198-4.628,0-11.159,0-15.899c0-15.143,0-30.284,0-45.427c0-5.677,6.858-7.86,10.939-4.807
			c4.775,3.587,2.53,13.387,2.565,18.607c0.053,7.708,0.112,15.416,0.062,23.125C370.448,773.885,368.371,785.333,371.284,789.827z"
			/>
		<path style="fill:#FFFFFF;stroke:#000000;stroke-width:2;" d="M402.003,789.827c12.397,11.29-14.365,17.576-14.365,2.651
			c-1.198-4.628,0-11.159,0-15.899c0-15.143,0-30.284,0-45.427c0-5.677,6.858-7.86,10.939-4.807
			c4.775,3.587,2.53,13.387,2.566,18.607c0.053,7.708,0.111,15.416,0.062,23.125C401.167,773.885,399.09,785.333,402.003,789.827z"
			/>
		<path style="fill:#FFFFFF;stroke:#000000;stroke-width:2;" d="M460.125,788.059c2.756,3.986,0.745,11.104-4.862,10.829
			c-6.36-0.492-5.188-7.479-10.86-3.849c-10.894,6.972-23.829,3.004-29.803-8.195c-4.899-9.351-2.431-20.821-2.431-30.885
			c0-3.596,1.147-8.412,5.524-9.061c8.409-1.227,8.181,7.828,7.931,13.365c-0.267,5.908-3.228,25.337,7.441,24.992
			c12.3-0.398,9.159-15.301,9.379-22.943c0-4.671,0.055-12.132,4.944-14.709c5.161-2.719,9.42,2.162,9.42,7.195
			C456.81,765.802,453.142,778.212,460.125,788.059C460.788,789.018,458.871,786.291,460.125,788.059z"/>
		<path style="fill:#FFFFFF;stroke:#000000;stroke-width:2;" d="M467.746,789.274c-1.68-4.76,0.757-10.517,6.52-9.944
			c4.541,0.416,7.017,5.914,11.381,7.293c3.52,1.111,12.444-0.313,7.514-6.078c-3.179-3.176-8.899-3.283-12.901-5.013
			c-26.593-11.492,1.559-45.152,21.74-27.776c3.274,2.819,4.521,9.711-0.456,11.602c-5.69,2.161-10.959-4.367-16.781-2.127
			c-9.542,2.401,14.934,11.222,16.078,11.934c12.266,7.638,6.335,27.658-6.121,31.313
			C484.92,803.353,473.189,797.473,467.746,789.274z"/>
		<path style="fill:#FFFFFF;stroke:#000000;stroke-width:2;" d="M560.342,819.771c-7.074-8.727,2.956-12.571,9.834-9.502
			c11.679,5.167,20.441,2.433,20.441-11.16c-19.098,6.551-36.155-5.451-34.973-26.244c0.56-9.838,5.15-18.751,14.145-23.314
			c4.6-2.338,10.083-3.379,15.082-1.713c2.786,0.878,5.438,2.057,7.957,3.536c1.399-1.252,3.038-1.878,4.916-1.878
			c12.019,0,6.354,44.678,6.354,52.928C604.098,826.791,577.46,831.76,560.342,819.771z M573.38,786.07
			c6.233,2.975,17.237,2.201,17.237-6.006c0-4.591,0-9.183,0-13.773C575.438,751.118,563.314,772.664,573.38,786.07
			C576.621,787.617,573.159,785.776,573.38,786.07z"/>
		<path style="fill:#FFFFFF;stroke:#000000;stroke-width:2;" d="M660.229,791.816c1.842,6.683-5.278,11.024-10.773,6.629
			c-3.342-2.673-15.077,2.901-21.726,1.633c-20.66-3.939-18.805-29.396-8.053-42.295c9.286-11.354,35.248-20.26,35.248,1.104
			C654.926,771.272,654.783,780.65,660.229,791.816z M636.805,786.844c6.146-3.911,5.094-4.688,4.566-11.676
			c-0.394-5.223-0.342-10.498-0.146-15.729C624.928,762.349,620.457,793.371,636.805,786.844
			C637.613,786.329,635.699,787.285,636.805,786.844z"/>
		<path style="fill:#FFFFFF;stroke:#000000;stroke-width:2;" d="M683.545,789.827c12.397,11.291-14.365,17.575-14.365,2.651
			c-1.197-4.628,0-11.159,0-15.899c0-15.143,0-30.284,0-45.427c0-5.677,6.859-7.86,10.939-4.807
			c4.774,3.584,2.529,13.389,2.565,18.607c0.054,7.708,0.112,15.416,0.062,23.125C682.708,773.886,680.632,785.331,683.545,789.827z
			"/>
		<path style="fill:#FFFFFF;stroke:#000000;stroke-width:2;" d="M714.264,789.827c12.397,11.291-14.365,17.575-14.365,2.651
			c-1.197-4.628,0-11.159,0-15.899c0-15.143,0-30.284,0-45.427c0-5.677,6.859-7.86,10.939-4.807
			c4.774,3.584,2.529,13.389,2.565,18.607c0.054,7.708,0.112,15.416,0.062,23.125C713.427,773.886,711.351,785.331,714.264,789.827z
			"/>
		<path style="fill:#FFFFFF;stroke:#000000;stroke-width:2;" d="M772.385,788.059c2.76,3.985,0.743,11.104-4.861,10.829
			c-6.359-0.493-5.188-7.478-10.859-3.849c-10.895,6.972-23.828,3.003-29.804-8.195c-4.899-9.351-2.431-20.821-2.431-30.885
			c0-3.597,1.147-8.412,5.524-9.061c8.41-1.227,8.181,7.828,7.931,13.365c-0.266,5.908-3.227,25.337,7.441,24.992
			c12.301-0.398,9.159-15.301,9.379-22.943c0-4.671,0.056-12.132,4.945-14.709c5.16-2.72,9.42,2.162,9.42,7.195
			C769.07,765.803,765.404,778.211,772.385,788.059C773.049,789.018,771.132,786.291,772.385,788.059z"/>
		<path style="fill:#FFFFFF;stroke:#000000;stroke-width:2;" d="M780.007,789.274c-1.682-4.76,0.759-10.517,6.52-9.944
			c4.541,0.416,7.018,5.914,11.382,7.293c3.521,1.111,12.44-0.312,7.514-6.078c-3.18-3.175-8.899-3.283-12.901-5.013
			c-26.594-11.492,1.562-45.154,21.741-27.776c3.273,2.819,4.52,9.712-0.456,11.602c-5.691,2.16-10.96-4.367-16.782-2.127
			c-9.542,2.401,14.934,11.222,16.078,11.934c12.263,7.643,6.338,27.656-6.121,31.313
			C797.183,803.353,785.447,797.473,780.007,789.274z"/>
		<path style="fill:#FFFFFF;stroke:#000000;stroke-width:2;" d="M395.204,892.728c3.855,7.438-4.451,10.025-9.086,5.718
			c-4.245-3.945-6.747-10.094-8.609-15.462c-5.982-17.24-2.637-34.305,6.051-49.759c5.328-9.47,16.074-4.726,9.282,4.641
			c-3.531,4.871-5.924,9.847-7.086,15.736C383.171,866.699,384.041,883.668,395.204,892.728z"/>
		<path style="fill:#FFFFFF;stroke:#000000;stroke-width:2;" d="M421.89,876.318c7.615-4.87,10.678,5.346,4.434,9.613
			c-5.226,3.566-11.846,4.465-17.569,1.492c-12.6-6.547-11.54-25.555-2.693-34.807c6.075-6.354,20.342-8.301,25.411,0.912
			c6.719,12.211-12.316,3.398-14.969,3.977C404.216,864.571,411.928,886.972,421.89,876.318z"/>
		<path style="fill:#FFFFFF;stroke:#000000;stroke-width:2;" d="M446.833,888.377c-10.468,7.57-7.956-19.575-7.956-23.014
			c0-9.056,0-18.111,0-27.166c0-4.285,7.295-7.165,9.426-3.004c2.434,4.75,0.787,13.566,0.684,18.75
			c12.71-8.589,23.721,2.202,24.686,15.187c0.373,5.018-0.072,10.041-0.072,15.062c0,10.359-10.997,3.906-10.566-4.848
			c0.756-15.438-1.932-22.786-14.047-10.649C446.884,873.944,452.405,884.333,446.833,888.377
			C445.728,889.177,447.938,887.575,446.833,888.377z"/>
		<path style="fill:#FFFFFF;stroke:#000000;stroke-width:2;" d="M482.053,837.203c0.775-7.194,11.124-7.705,11.354-0.166
			C493.857,844.744,482.658,844.771,482.053,837.203z M492.992,884.357c-0.917,9.109-10.508,4.159-10.235-3.025
			c0.335-9.148-2.253-20.612-0.041-29.461c0.764-2.759,3.506-4.847,6.422-4.144c4.887,1.188,3.688,8.279,3.688,11.769
			C492.827,867.783,492.992,876.069,492.992,884.357z"/>
		<path style="fill:#FFFFFF;stroke:#000000;stroke-width:2;" d="M522.91,876.318c7.615-4.868,10.678,5.347,4.434,9.613
			c-5.224,3.566-11.847,4.465-17.569,1.492c-12.601-6.546-11.54-25.556-2.693-34.807c6.075-6.354,20.342-8.301,25.411,0.912
			c6.719,12.211-12.316,3.398-14.969,3.977C505.241,864.577,512.949,886.972,522.91,876.318z"/>
		<path style="fill:#FFFFFF;stroke:#000000;stroke-width:2;" d="M546.693,887.963c-10.406,7.529-7.955-18.866-7.955-22.314
			c0-9.675,0-19.351,0-29.025c0-4.082,6.367-6.793,9.074-3.522c3.563,4.32,1.115,19.427,1.036,24.571
			c4.125-3.047,10.315-13.973,16.367-12.514c11.102,2.701-4.929,16.367-7.997,18.729c3.253,3.533,23.305,20.747,12.887,24.778
			c-6.576,2.547-17.334-14.991-21.257-19.061C548.849,874.092,551.021,884.82,546.693,887.963
			C545.588,888.763,547.799,887.16,546.693,887.963z"/>
		<path style="fill:#FFFFFF;stroke:#000000;stroke-width:2;" d="M606.195,875.572c7.822-1.952,7.968,6.87,2.238,9.862
			c-6.146,3.205-14.473,5.462-21.195,2.755c-11.143-4.487-13.91-18.596-9.219-28.693c5.089-10.495,25.311-16.034,31.543-3.885
			c7.376,14.381-13.16,18.244-22.096,21.121C592.294,882.25,601.073,878.721,606.195,875.572z M589.455,861.318
			c-2.884,1.63-3.715,4.215-4.144,7.21c2.593-0.797,15.663-3.026,15.663-6.961C600.975,856.347,591.871,859.695,589.455,861.318z"/>
		<path style="fill:#FFFFFF;stroke:#000000;stroke-width:2;" d="M650.449,884.523c-1.059,8.855-10.79,4.682-10.275-3.107
			c0.323-4.984,2.451-18.566-0.332-22.791c-3.332-4.998-11.934,5.661-11.934,8.963c0,3.601,0,7.202,0,10.803
			c0,14.49-9.941,12.013-10.037-0.922c-0.046-6.115-0.073-12.229-0.073-18.346c0-4.405,3.527-16.718,9.364-7.749
			c11.831-7.694,23.287-1.062,23.287,12.351C650.449,870.658,650.449,877.591,650.449,884.523z"/>
		<path style="fill:#FFFFFF;stroke:#000000;stroke-width:2;" d="M655.671,891.65c10.893-10.916,12.103-29.819,6.878-43.84
			c-1.771-4.77-7.918-10.085-8.203-15.083c-0.473-11.984,10.865-0.824,13.094,2.735c8.697,13.932,10.247,30.931,5.221,46.574
			c-1.934,5.798-6.352,18.729-14.254,18.729C653.113,900.766,652.443,894.648,655.671,891.65z"/>
		<path style="fill:#FFFFFF;stroke:#000000;stroke-width:2;" d="M396.666,239.339c15.729,4.72,31.044,18.796,29.972,36.464
			c-0.493,8.11-4.39,15.127-10.421,20.414c-7.874,6.902-7.909,7.599-7.396,18.537c0.893,19.507,1.363,39.067,0,58.563
			c-1.517,21.453-9.426,34.247-25.967,47.79c-63.647,53.329-157.021,46.85-215.348-11.382
			c-57.797-57.704-72.816-154.823-32.961-226.472c20.087-36.113,52.35-58.423,89.3-75.093
			c39.06-17.622,78.848-27.393,121.602-19.282c25.583,4.854,67.519,24.05,53.982,57.92c-14.128,35.258-53.79,10.888-77.627,5.712
			c-15.695-3.408-32.177,3.268-46.656,8.522c-16.486,5.982-32.474,13.023-47.134,22.735c-28.359,18.786-45.784,44.931-48.593,79.069
			c-5.559,67.56,46.855,140.455,120.91,126.036c14.405-2.805,27.62-9.069,38.524-18.941c4.903-4.438,3.118-10.382,3.118-16.807
			c0-15.276,0-30.553,0-45.83c-24.694,1.245-49.833,6.9-74.366,1.018c-26.467-6.346-42.997-32.065-23.977-56.267
			c14.08-17.92,44.524-12.049,64.333-11.631C337.512,241.038,367.109,239.339,396.666,239.339
			C404.03,241.549,381.931,239.339,396.666,239.339z"/>
</g>
<g id="Layer_2">
	<path style="fill:#FFFFFF;stroke:#231F20;stroke-width:2;stroke-miterlimit:10;" d="M604.199,588.166
		c-7.875,0.057-8.5,20.218-9.653,26.545c-0.38,2.079-2.903,18.623-3.074,31.624c-4.679-2.745-10.599-4.658-13.911-6.403
		c-8.39-4.427-16.533-7.668-26.371-4.062c-10.96,4.013-5.594,5.643,2.386,6.345c7.678,0.675,14.517,2.206,21.557,6.255
		c-4.838-0.104-38.961-1.842-34.769,10.598c1.585,4.704,28.262,0.211,34.089,0.42c-8.379,1.106-18.789,8.796-19.693,17.579
		c0.209,0.483,0.525,0.882,0.942,1.197c10.384-1.55,18.781-12.07,29.146-15.078c2.616-0.76,6.157-0.965,8.968-1.896
		c0.548,0.661,1.208,1.016,1.998,0.99c8.278-0.266,5.164-30.244,6.758-36.77C604.042,619.486,620.391,588.048,604.199,588.166z"/>
	<path style="fill:#FFFFFF;stroke:#231F20;stroke-width:2;stroke-miterlimit:10;" d="M682.2,631.392
		c-1.325-6.057-0.43-41.482-14.928-34.271c-7.051,3.508,1.233,21.897,2.978,28.088c0.572,2.035,5.565,18.016,11.119,29.773
		c-5.412-0.415-11.57,0.458-15.313,0.343c-9.485-0.295-18.223,0.368-25.48,7.921c-8.089,8.417-2.554,7.528,4.931,4.656
		c7.191-2.762,14.01-4.385,22.113-3.841c-4.394,2.031-35.815,15.445-26.591,24.782c3.488,3.532,25.486-12.214,30.817-14.583
		c-7.046,4.673-13.024,16.15-9.985,24.44c0.401,0.342,0.859,0.56,1.376,0.66c8.649-5.949,11.577-19.086,19.571-26.337
		c2.018-1.831,5.109-3.57,7.226-5.642c0.782,0.353,1.53,0.381,2.229,0.012C699.585,663.523,683.631,637.951,682.2,631.392z"/>
	<path style="fill:#FFFFFF;stroke:#231F20;stroke-width:2;stroke-miterlimit:10;" d="M700.957,575.24
		c-10.652-7.648-45.984-9.581-53.839,2.772c-8.023,12.617,5.943,31.933,12.171,41.735c11.269,17.742,27.093,14.042,35.679-1.683
		C701.045,606.942,712.459,583.518,700.957,575.24z"/>
	<path style="fill:#FFFFFF;stroke:#231F20;stroke-width:2;stroke-miterlimit:10;" d="M631.911,556.158
		c-10.648-7.648-45.98-9.58-53.834,2.772c-8.026,12.616,5.943,31.933,12.169,41.734c11.271,17.743,27.092,14.04,35.681-1.682
		C632.002,587.859,643.417,564.436,631.911,556.158z"/>
	<path style="fill:#FFFFFF;stroke:#231F20;stroke-width:2;stroke-miterlimit:10;" d="M464.515,637.022
		c-0.49-13.452-32.591,0.59-37.195,2.447c5.287-6.438,11.292-10.39,18.408-13.819c7.401-3.569,11.957-7.079-0.011-6.954
		c-10.743,0.114-17.378,6.172-23.822,13.463c-1.985,2.245-5.458,5.164-8.548,8.397c-9.285-9.969-24.691-21.821-26.567-23.18
		c-5.341-3.867-20.106-18.355-25.979-12.811c-12.074,11.397,22.334,23.082,27.695,26.5c3.475,2.214,11.656,11.837,19.022,17.998
		c-0.436,1.323-0.602,2.648-0.384,3.956c1.476,8.849,10.359,4.549,16.207,4.085c11.034-0.872,22.904,6.173,33.426,3.892
		c0.289-0.452,0.446-0.948,0.472-1.488c-4.055-8.095-16.829-11.697-25.27-9.718C437.483,647.473,464.7,642.11,464.515,637.022z"/>
	<path style="fill:#FFFFFF;stroke:#231F20;stroke-width:2;stroke-miterlimit:10;" d="M338.579,666.138
		c-7.444-7.745-16.403-8.426-26.128-8.124c-3.839,0.119-10.156-0.776-15.706-0.351c5.695-12.057,10.816-28.444,11.403-30.532
		c1.786-6.349,10.284-25.207,3.052-28.804c-14.866-7.395-13.952,28.932-15.306,35.144c-1.468,6.728-17.829,32.951-10.32,36.921
		c0.716,0.379,1.483,0.35,2.286-0.013c2.171,2.123,5.342,3.905,7.411,5.782c8.198,7.437,11.201,20.909,20.071,27.011
		c0.528-0.099,0.998-0.326,1.409-0.676c3.117-8.502-3.013-20.272-10.238-25.064c5.466,2.43,28.024,18.577,31.603,14.954
		c9.459-9.573-22.764-23.331-27.27-25.41c8.31-0.562,15.303,1.103,22.678,3.935C341.194,673.857,346.872,674.767,338.579,666.138z"
		/>
	<path style="fill:#FFFFFF;stroke:#231F20;stroke-width:2;stroke-miterlimit:10;" d="M379.536,589.104
		c7.005,7.486,33.02,40.26,15.085,48.037c-9.671,4.192-22.503-3.413-31.337-7.375c-10.664-4.782-25.131-8.814-31.624-19.02
		L379.536,589.104z"/>
	<path style="fill:#FFFFFF;stroke:#231F20;stroke-width:2;stroke-miterlimit:10;" d="M325.758,614.026
		c0.485,7.65-7.18,17.144-10.987,23.756c-5.181,8.994-12.344,12.845-22.606,9.198c-19.305-6.857-7.214-28.679-16.906-41.479
		L325.758,614.026z"/>
			<path style="fill:#FFFFFF;stroke:#231F20;stroke-width:2;stroke-miterlimit:10;" d="M933.751,456.188
				c-7.245-0.752-12.383-33.45-19.996-42.619c-6.714-8.101-13.295-13.377-20.811-16.097c-6.907-2.496-14.606-2.823-23.956-1.183
				c-26.268,4.599-51.352,22.145-71.342,39.561c-6.81,5.943-24.956,15.927-39.594,26.142c2.721-3.691,5.363-7.572,7.901-11.42
				c7.108-8.895,13.832-19.555,19.68-28.733c4.635-7.244,8.703-13.569,11.973-17.356c19.679-22.788,44.023-40.809,74.556-43.177
				C920.648,357.542,951.307,414.53,933.751,456.188z"/>
			<path style="fill:#FFFFFF;stroke:#231F20;stroke-width:2;stroke-miterlimit:10;" d="M913.458,509.836
				c-7.245-0.749-12.385-33.451-19.998-42.63c-5.923-7.128-11.738-12.077-18.179-15.006c-7.585-3.457-16.032-4.124-26.587-2.273
				c-15.408,2.698-30.415,9.857-44.215,18.836c-9.506,0.581-18.918,1.921-27.772,3.585c-2.452,0.463-5.888,0.728-9.949,0.917
				c4.039-6.311,7.613-11.749,10.556-15.142c0.222-0.255,0.443-0.506,0.665-0.761c1.905-2.189,3.849-4.314,5.839-6.398
				c18.474-19.322,40.799-33.904,68.038-36.019c5.67-0.434,11.084-0.043,16.203,1.057c0.359,0.074,0.706,0.147,1.068,0.233
				c21.394,5.012,37.572,22.399,44.935,43.125v0.011C919.825,475.583,920.193,493.835,913.458,509.836z"/>
			<path style="fill:#FFFFFF;stroke:#231F20;stroke-width:2;stroke-miterlimit:10;" d="M914.062,459.359v0.011
				c-0.752,4.242-1.956,8.407-3.649,12.426c-6.725-0.698-11.507-31.07-18.581-39.594c-7.23-8.714-14.274-13.906-22.704-15.968
				c-0.362-0.085-0.709-0.159-1.068-0.233c-5.256-1.111-11.072-1.026-17.799,0.147c-22.293,3.903-43.664,17.84-61.349,32.561h-0.009
				c-1.67,1.396-3.311,2.804-4.919,4.198c-1.479,1.291-3.541,2.792-6.005,4.453c1.905-2.189,3.849-4.314,5.839-6.398
				c-7.646,3.605-17.662,9.095-27.869,13.812c0.698-0.911,1.408-1.842,2.104-2.783c2.721-3.691,5.363-7.572,7.901-11.42
				c7.149-10.883,13.418-21.512,17.998-26.809c0.562-0.645,1.122-1.291,1.682-1.924c17.979-20.263,40.068-36.051,67.567-38.188
				c15.641-1.216,29.283,4.378,39.743,13.821C909.48,412.396,918.079,436.919,914.062,459.359z"/>
			<path style="fill:#FFFFFF;stroke:#231F20;stroke-width:2;stroke-miterlimit:10;" d="M873.312,550.392
				c-5.297-3.892,5.659-31.684,3.927-42.301c-2.932-17.989-10.186-27.642-26.927-33.916c-14.064-5.254-30.075-6.387-45.833-5.412
				c-9.506,0.581-18.918,1.921-27.772,3.585c-2.452,0.463-5.888,0.728-9.949,0.917c-4.283,0.202-9.242,0.321-14.446,0.457
				c9.128-6.028,18.908-11.802,25.667-16.36c1.905-2.189,3.849-4.314,5.839-6.398c1.848-0.877,3.54-1.64,5.085-2.253h0.009
				c0.743-0.295,1.449-0.56,2.105-0.782c25.739-8.735,52.92-11.633,77.748,0.476c2.318,1.131,4.485,2.39,6.517,3.796
				C907.854,474.376,904.098,527.434,873.312,550.392z"/>
		<path style="fill:#FFFFFF;stroke:#231F20;stroke-width:2;stroke-miterlimit:10;" d="M768.586,474.914
			c14.096-19.436,53.264-10.026,67.015,5.952c11.691,13.588,11.131,62.404-9.636,68.397c-2.798-18.884,11.995-45.22-8.252-59.675
			c-16.75-11.962-49.037,8.399-60.063-14.354c3.832-0.4,8.671-1.07,12.524-0.321H768.586z"/>
	<path style="fill:#FFFFFF;stroke:#231F20;stroke-width:2;stroke-miterlimit:10;" d="M554.533,531.937
		c20.235,46.732,65.191,74.93,116.902,67.09c67.028-10.159,96.289-70.539,111.471-128.827c1.958-7.521,4.096-15.818,4.469-23.603
		c-0.14,2.928-72.748,3.999-82.733-4.245c-21.556-17.798-32.945-48.248-64.546-53.088c-32.341-4.951-66.613,26.464-83.695,50.868
		C537.057,467.764,541.734,502.373,554.533,531.937z"/>
	<path style="fill:#FFFFFF;stroke:#231F20;stroke-width:2;stroke-miterlimit:10;" d="M541.326,344.757
		c15.894,18.783-2.552,33.072-8.26,52.424c-4.972,16.848-6.25,44.31,17.881,44.657c46.29,0.667,15.299-77.908,1.412-95.054
		L541.326,344.757z"/>
	<path style="fill:#FFFFFF;stroke:#231F20;stroke-width:2;stroke-miterlimit:10;" d="M496.205,339.936
		c12.843,0.749,38.951,8.334,49.28-2.602c10.264-10.864,6.017-34.115-6.296-41.453c-12.114-7.217-25.147-12.548-39.043-6.715
		c7.095,7.098,15.37,15.46,23.342,22.425C513.783,319.771,500.906,327.172,496.205,339.936z"/>
	<path style="fill:#FFFFFF;stroke:#231F20;stroke-width:2;stroke-miterlimit:10;" d="M563.965,292.499
		c-5.811-15.815-35.614-10.489-34.664-31.49c13.761-5.489,18.801,1.324,31.221,5.909c2.206-8.168,4.09-22.009,12.568-27.157
		c10.193-6.191,14.684,1.575,12.998,14.106c4.984-12.674,16.55-25.599,31.808-24.812c21.412,1.106,6.421,12.445,0.156,23.547
		c10.489-3.007,25.885-8.593,35.094-0.194c11.998,10.942-2.604,15.858-14.067,16.214c10.158,2.461,34.734,17.29,13.715,25.537
		c-9.99,3.917-37.837-16.717-36.402,10.474c-6.906-10.78-35.521-13.756-47.391-11.858c-0.766,3.852-3.138,3.217-5.035,6.067V292.499
		z"/>
	<path style="fill:#FFFFFF;stroke:#231F20;stroke-width:2;stroke-miterlimit:10;" d="M548.429,426.353
		c-0.491,9.535-2.171,24.003,9.008,28.419c9.962,3.936,14.948-4.518,16.844-13.92c14.252,13.993,24.806,15.751,29.978-5.11
		c12.789,8.722,28.83,23.036,27.08-5.142c11.778,9.032,40.062,14.401,25.849-7.883c14.341,15.437,44.196-17.243,25.589-23.252
		c-2.907-0.939-9.886,5.226-14.209,2.708c-4.469-2.605-3.737-9.571-3.881-14.142c-0.318-9.977,1.478-21.454,1.359-31.94
		c-0.271-24.146-4.542-43.397-24.528-58.787c-16.662-12.83-37.43-18.323-58.193-15.269c-23.646,3.479-43.874,15.657-54.605,37.01
		c-3.979,7.918-6.595,19.053-3.677,27.719c4.894,14.515,16.491,10.524,26.142,18.607
		C565.67,377.507,549.268,409.964,548.429,426.353z"/>
	<path style="fill:#FFFFFF;stroke:#231F20;stroke-width:2;stroke-miterlimit:10;" d="M612.616,344.947
		c15.976-14.685,7.54-41.09-10.289-50.325c-20.521-10.63-45.078,12.566-41.376,33.552c2.799,15.86,16.423,26.755,32.606,24.805
		C601.892,351.975,608.171,349.033,612.616,344.947z"/>
	<path style="fill:#231F20;stroke:#231F20;stroke-width:2;stroke-miterlimit:10;" d="M585.267,307.298
		c-15.566-4.468-27.358,13.044-17.257,25.784c8.987,11.33,28.718,5.826,28.469-9.272
		C596.354,316.231,593.042,309.527,585.267,307.298z"/>
	<path style="fill:#FFFFFF;stroke:#231F20;stroke-width:2;stroke-miterlimit:10;" d="M575.788,317.576
		c-3.453-4.11-10.802-1.263-10.324,4.24c0.382,4.406,4.799,7.695,8.431,5.01C576.916,324.592,578.471,320.771,575.788,317.576z"/>
	<path style="fill:#FFFFFF;stroke:#231F20;stroke-width:2;stroke-miterlimit:10;" d="M695.329,446.418
		c11.29-9.002,25.699-22.695,39.856-24.718c6.128,11.085-10.327,26.636-17.549,32.821c6.155-2.501,27.247-20.095,33.084-17.933
		c12.965,4.796-9.523,23.782-13.667,29.004c6.168-4.23,13.299-9.685,20.319-10.69c0.658,21.599-25.31,38.822-39.399,51.157
		c4.41-1.928,9.442-3.227,14.505-2.658c1.971,28.014-60.526,49.898-82.873,45.482c-23.247-4.593-33.963-35.758-27.922-56.53
		c3.562-12.251,9.719-16.308,21.051-20.098C662.307,465.709,678.438,459.889,695.329,446.418z"/>
	<path style="fill:#FFFFFF;stroke:#231F20;stroke-width:2;stroke-miterlimit:10;" d="M162.287,453.622
		c-6.491,0.326-11.775,2.841-13.154,9.889c-1.287,6.574,17.741,25.878,23.99,24.838c-10.89,1.814-30.682,8.226-36.198,18.837
		c-10.749,20.686,14.686,17.841,26.246,19.923c-9.13,5.102-15.674,13.861-9.35,24.201c7.905,12.92,22.562,6.923,32.784,0.328
		c16.871-10.881,59.046-27.456,58.415-51.491c-0.626-23.838-34.624-36.894-53.729-40.967
		C185.564,457.959,172.447,453.111,162.287,453.622z"/>
	<path style="fill:#FFFFFF;stroke:#231F20;stroke-width:2;stroke-miterlimit:10;" d="M452.121,389.014
		c3.801-6.143,20.436-6.068,17.949-13.068c-2.841-7.997-21.491-4.386-27.09-4.769c-3.285-7.263-16.203-41.016-20.043-2.565
		c-11.555-12.158-39.396-10.341-39.702,3.658c-0.164,7.465,25.695,11.579,29.813,21.398L452.121,389.014z"/>
	<path style="fill:#FFFFFF;stroke:#231F20;stroke-width:2;stroke-miterlimit:10;" d="M271.739,617.708
		c-26.104-18.707-47.842-47.566-57.977-70.72c-5.581-12.746-10.444-34.857-3.936-48.285c15.925-32.854,45.796-37.622,79.484-39.714
		c19.082-1.186,38.612-5.637,55.963-13.763c14.884-6.972,26.941-15.616,43.933-11.381c13.103,3.264,27.504,11.39,35.957,22.11
		c4.952,6.28,7.648,12.248,8.938,18.1c5.445,24.673-2.418,56.474-6.743,81.206c-4.081,23.34-14.15,42.743-34.709,55.571
		C353.086,635.521,312.187,646.69,271.739,617.708z"/>
	<path style="fill:#FFFFFF;stroke:#231F20;stroke-width:2;stroke-miterlimit:10;" d="M398.418,389.252
		c24.62-17.947,67.77-7.189,84.404,17.439c6.066,8.983,9.17,19.417,5.629,29.404c-5.822-0.51-15.309,22.553-19.326,28.275
		c-7.321,10.427-17.257,19.472-24.214,29.977c-2.754,4.161-5.738,10.812-7.493,15.605c-1.509,4.119-1.066,12.91-3.675,16.046
		c-9.087,10.918-11.35-14.965-11.531-21.529c-8.676,2.092-13.219,15.163-24.05,12.926c-9.76-2.017-6.641-13.596-6.445-21.996
		c-5.526,5.291-19.21,10.019-26.115,7.363c-9.892-3.802-6.315-16.63-4.796-24.09c-14.346,4.014-27.744,4.87-19.584-12.762
		c0.395-0.297,0.412-0.281,0.049,0.049c-10.356,7.084-27.688-1.335-26.813-14.388c1.304-19.438,27.055-11.159,39.097-14.183
		C376.846,431.539,380.691,402.175,398.418,389.252z"/>
	<path style="fill:#FFFFFF;stroke:#231F20;stroke-width:2;stroke-miterlimit:10;" d="M403.739,437.095
		c-11.856-10.901-5.596-30.5,7.636-37.354c15.233-7.89,33.459,9.328,30.71,24.904c-2.076,11.77-12.188,19.857-24.2,18.41
		C411.699,442.311,407.039,440.127,403.739,437.095z"/>
	<path style="fill:#231F20;stroke:#231F20;stroke-width:2;stroke-miterlimit:10;" d="M424.039,409.149
		c11.555-3.316,20.306,9.683,12.808,19.138c-6.669,8.41-21.313,4.324-21.13-6.882C415.808,415.78,418.267,410.805,424.039,409.149z"
		/>
	<path style="fill:#FFFFFF;stroke:#231F20;stroke-width:2;stroke-miterlimit:10;" d="M431.075,416.779
		c2.562-3.05,8.016-0.938,7.662,3.147c-0.284,3.271-3.562,5.711-6.256,3.719C430.236,421.985,429.083,419.149,431.075,416.779z"/>
	<path style="fill:#FFFFFF;stroke:#231F20;stroke-width:2;stroke-miterlimit:10;" d="M480.963,444.604
		c-18.655,8.669-21.583-28.299-12.408-36.714c5.427-4.977,14.597-5.465,21.438-4.709c13.481,1.489,19.216,8.06,29.972,13.951
		C511.782,428.037,493.606,438.729,480.963,444.604z"/>
	<path style="fill:#FFFFFF;stroke:#231F20;stroke-width:2;stroke-miterlimit:10;" d="M278.152,493.437
		c-6.739-4.04-21.275-8.779-22.324,3.749c-0.606,7.226,10.359,13.982,15.741,16.531c-7.434,0.352-16.455,3.212-13.206,12.353
		c2.832,7.964,14.503,9.615,21.32,11.092c-36.011,14.577,34.427,46.31,53.354,44.677c13.019-1.123,29.649-6.333,36.076-19.533
		c9.857-20.25-9.03-30.58-25.772-35.658c-8.956-2.719-17.288-4.115-25.608-8.334C303.777,511.241,291.536,501.459,278.152,493.437z"
		/>
</g>
</svg>
