<?xml version="1.0" encoding="utf-8"?>
<!-- Generator: Adobe Illustrator 16.0.0, SVG Export Plug-In . SVG Version: 6.00 Build 0)  -->
<!DOCTYPE svg PUBLIC "-//W3C//DTD SVG 1.1//EN" "http://www.w3.org/Graphics/SVG/1.1/DTD/svg11.dtd">
<svg version="1.1" id="Layer_1" xmlns="http://www.w3.org/2000/svg" xmlns:xlink="http://www.w3.org/1999/xlink" x="0px" y="0px"
	 width="600px" height="600px" viewBox="0 0 600 600" enable-background="new 0 0 600 600" xml:space="preserve">
<g>
	<g>
		<path fill="#FFFFFF" stroke="#181716" stroke-width="2" stroke-miterlimit="10" d="M478.225,73.277
			c-0.654-0.279-2.703-0.603-3.429-0.178c-1.029,0.603-0.663,2.148-0.677,3.091c-0.043,2.67-1.08,5.286-1.388,7.932
			c-0.653,5.61-1.72,11.242-2.83,16.779c-1.08,5.379-1.808,11.003-3.814,16.136c-0.153,0.392,0.241,0.892,0.652,0.856
			c0.045-0.004,0.092-0.008,0.137-0.012c1.169,0.83,4.355,2.439,4.364,0.187c0.019-4.894,1.474-10.025,2.431-14.805
			c1.858-9.287,4.435-18.471,5.652-27.876C479.471,74.247,479.259,73.717,478.225,73.277z"/>
		<path fill="#FFFFFF" stroke="#181716" stroke-width="2" stroke-miterlimit="10" d="M445.9,112.205
			c-2.014-5.455-3.177-11.071-4.967-16.583c-1.634-5.031-1.979-10.385-3.746-15.361c-0.908-2.555-3.227-0.9-3.891,0.856
			c-0.316,0.013-0.609,0.215-0.563,0.607c0.104,2.256,0.961,4.618,1.465,6.829c0.641,2.809,1.089,5.642,1.64,8.467
			c1.143,5.858,3.528,11.505,5.416,17.147c0.891,2.667,1.743,5.348,2.552,8.041c0.602,2.001,1.037,5.141,2.484,6.744
			c1.246,1.384,5.445,1.003,5.445-1.32c0-2.017-1.731-4.533-2.488-6.377C448.028,118.278,447.013,115.223,445.9,112.205z"/>
	</g>
</g>
<g>
	<path fill="#FFFFFF" stroke="#181716" stroke-width="2" stroke-miterlimit="10" d="M479.698,64.726
		c-2.679-3.567-6.433,0.234-7.279,3.138c-0.768,2.626,0.562,9.749,4.31,9.391c0.046-0.004,0.081-0.021,0.121-0.032
		c1.027-0.001,2.096-0.301,2.607-0.81c1.148-1.144,1.238-3.269,1.417-4.757C481.155,69.338,481.149,66.66,479.698,64.726z"/>
	<path fill="#FFFFFF" stroke="#181716" stroke-width="2" stroke-miterlimit="10" d="M432.918,69.8
		c-0.663,0.246-1.168,0.661-1.496,1.186c-3.036,1.712-1.533,7.911-0.883,10.504c0.809,3.22,4.195,6.523,6.919,3.046
		c2.59-3.305,1.103-9.138-0.929-12.334C435.951,71.292,434.267,69.3,432.918,69.8z"/>
</g>
<path fill="#FFFFFF" stroke="#181716" stroke-width="2" stroke-miterlimit="10" d="M468.396,403.099
	c-0.132-1.598,0.196-6.571-2.562-6.01c-2.92,0.597-6.858,0.458-7.996,3.2c-0.222,0.09-0.398,0.29-0.408,0.605
	c-0.444,16.925-0.3,33.849-2.692,50.647c-2.491,17.482-5.21,34.94-9.436,52.086c-1.996,8.104-4.32,16.159-6.517,24.213
	c-0.855,3.14-2.556,6.844-2.556,10.147c0,2.18,3.515,2.714,4.995,2.802c3.026,0.179,3.676-1.747,5.014-4.176
	c1.925-3.498,2.966-7.719,3.825-11.595c1.945-8.789,4.744-17.441,7.194-26.105c3.042-10.765,5.201-22.053,7.125-33.071
	c1.937-11.083,3.927-22.149,4.702-33.393C469.758,422.732,469.197,412.793,468.396,403.099z"/>
<path fill="#FFFFFF" stroke="#181716" stroke-width="2" stroke-miterlimit="10" d="M328.938,401.167
	c-2.921,0.596-6.858,0.458-7.996,3.199c-0.223,0.09-0.399,0.29-0.408,0.605c-0.446,16.925-0.3,33.849-2.693,50.647
	c-2.491,17.481-5.21,34.939-9.435,52.086c-1.996,8.103-4.321,16.159-6.517,24.213c-0.855,3.139-2.557,6.844-2.557,10.146
	c0,2.182,3.516,2.715,4.996,2.803c3.026,0.179,3.674-1.747,5.012-4.176c1.925-3.498,2.967-7.719,3.825-11.595
	c1.946-8.79,4.746-17.441,7.195-26.105c3.043-10.766,5.2-22.054,7.125-33.071c1.936-11.083,3.926-22.15,4.703-33.393
	c0.671-9.718,0.109-19.656-0.69-29.352C331.366,405.578,331.695,400.604,328.938,401.167z"/>
<path fill="#FFFFFF" stroke="#181716" stroke-width="2" stroke-miterlimit="10" d="M446.848,431.188
	c0.455-4.214,0.281-8.741,0.235-12.983c-0.016-1.341,0.083-6.2-2.168-6.236c-1.687-0.024-3.065,0.805-4.662,1.224
	c-1.505,0.395-2.565,1.652-4.016,2.103c-0.286-0.007-0.573,0.113-0.726,0.342c-0.245,0.27-0.248,0.67-0.066,0.994
	c0.214,3.071-0.273,6.369-0.612,9.404c-0.539,4.838-1.179,9.665-2.005,14.462c-1.438,8.362-3.626,16.562-5.404,24.853
	c-1.845,8.604-4.633,16.947-6.708,25.491c-2,8.239-4.227,16.547-7.041,24.557c-2.715,7.729-4.541,15.759-7.184,23.496
	c-0.578,1.692-2.281,5.824-0.376,7.366c1.479,1.196,4.445,2.347,6.263,1.282c0.992-0.581,1.577-2.305,2.087-3.259
	c0.953-1.782,1.813-3.624,2.67-5.454c1.812-3.862,3.116-7.942,4.628-11.926c1.502-3.959,3.298-7.795,4.757-11.771
	c1.588-4.33,2.72-8.819,4.207-13.186c6.343-18.597,11.595-37.167,14.112-56.701C445.446,440.549,446.339,435.895,446.848,431.188z"
	/>
<path fill="#FFFFFF" stroke="#181716" stroke-width="2" stroke-miterlimit="10" d="M350.525,469.541
	c0-4.475-0.16-8.936-0.205-13.405c-0.051-5.099-0.66-10.199-0.537-15.291c0.202-8.46-0.617-16.932-0.617-25.387
	c0-3.365-1.176-5.527-4.168-7.024c-1.415-0.707-5.477-2.382-7.136-1.509c-0.291,0.153-0.411,0.39-0.43,0.635
	c-0.101,0.131-0.171,0.294-0.159,0.52c0.777,16.223,2.005,32.434,2.902,48.67c0.469,8.451-0.045,16.921,0.176,25.382
	c0.228,8.782,0.286,17.574,0.441,26.358c0.069,3.982,0.203,7.963,0.386,11.943c0.195,4.242-0.192,8.467,0.216,12.7
	c0.283,2.961,0.58,4.714,2.729,6.807c1.316,1.281,3.566,2.348,4.967,0.674c1.646-1.965,1.31-6.114,1.397-8.494
	c0.151-4.05-0.011-8.153,0.328-12.191c0.668-7.959,0.497-16.233,0.174-24.225C350.636,486.984,350.525,478.269,350.525,469.541z"/>
<path fill="#FFFFFF" stroke="#181716" stroke-width="2" stroke-miterlimit="10" d="M328.651,352.955
	c-1.06-0.793-2.104-1.545-3.125-2.387c-2.217-1.825-3.248-4.11-4.053-6.801c-1.46-4.882,0.387-10.391,3.021-14.478
	c1.233-1.915,4.834-5.256,4.131-7.813c-0.584-2.125-3.701-0.422-4.775,0.072c-3.331,1.533-5.388,4.775-6.946,7.926
	c-1.73,3.495-3.073,7.736-2.935,11.656c0.13,3.661,1.705,6.949,3.381,10.11c1.456,2.743,3.664,5.415,6.976,5.534
	c0.285,0.01,0.49-0.149,0.607-0.362c1.594-0.147,2.995-0.777,4.028-2.265C329.256,353.727,329.006,353.221,328.651,352.955z"/>
<path fill="#FFFFFF" stroke="#181716" stroke-width="2" stroke-miterlimit="10" d="M353.617,309.354
	c-2.128-5.004-5.688-9.371-10.152-12.488c-4.053-2.832-9.504-3.899-14.381-3.899c-1.407,0-1.395,1.021-1.625,2.13
	c-0.331,1.597-0.833,3.175-1.043,4.78c-0.258,1.144-0.51,2.287-0.814,3.412c-0.808,2.997-1.63,5.991-2.367,9.006
	c-0.692,2.824-1.491,5.758-2.341,8.542c-0.352,1.152-1.189,3.904-0.5,5.083c1.896,3.233,7.621-1.153,9.354-2.262
	c5.33-3.413,11.443-5.843,17.406-7.829C350.608,314.675,355.643,314.111,353.617,309.354z"/>
<path fill="#FFFFFF" stroke="#181716" stroke-width="2" stroke-miterlimit="10" d="M480.462,282.399
	c-0.173-4.375-0.417-8.747-0.704-13.115c-0.27-4.134-0.02-8.245-0.39-12.388c-0.371-4.127-0.295-8.26-0.545-12.393
	c-0.275-4.513-0.843-8.999-1.034-13.519c-0.372-8.829-1.233-17.56-1.969-26.357c-0.727-8.674-1.73-17.229-3.429-25.769
	c-1.377-6.934-2.571-14.357-9.275-17.992c-4.071-2.208-8.809-2.765-13.004-4.707c-2.54-1.175-4.016-3.031-5.79-5.085
	c-1.196-1.385-2.376-2.466-3.654-3.658c-0.354-0.33-0.773-0.303-1.096-0.109c-0.416,0.073-0.806,0.437-0.705,0.977
	c0.575,3.086,1.052,6.168,1.574,9.264c0.713,4.232,1.934,8.347,2.58,12.617c1.271,8.398,1.964,16.954,2.653,25.424
	c0.691,8.494,2.283,16.869,3.251,25.331c0.463,4.043,1.348,7.947,1.412,12.039c0.066,4.171,0.528,8.448,0.836,12.61
	c0.292,3.953,0.345,7.896,0.258,11.863c-0.081,3.654-0.731,7.276-0.731,10.912c0,3.96-0.868,8.003-1.241,11.951
	c-0.417,4.431-0.812,8.802-1.568,13.197c-1.535,8.912-5.16,17.294-9.711,25.059c-4.535,7.736-9.755,14.512-17.264,19.586
	c-13.847,9.356-30.439,12.608-46.919,12.611c-3.655,0.001-7.262,0.499-10.926,0.34c-4.392-0.189-8.742-0.336-13.151-0.335
	c-4.14,0.001-8.279-0.091-12.418-0.089c-3.622,0.001-7.205,0.577-10.793,0.847c-6.513,0.49-11.281,4.705-13.039,10.792
	c-2.191,7.588-4.658,15.368-4.388,23.368c0.25,7.399,1.909,15.52,5.35,22.098c3.122,5.973,9.214,11.328,15.142,14.387
	c6.881,3.551,15.425,4.587,23.024,5.513c4.043,0.493,8.062,0.49,12.113,0.743c3.789,0.237,7.705,0.68,11.487,0.68
	c8.023,0,15.959-0.569,23.95-0.799c3.776-0.109,7.542-0.778,11.293-1.191c4.155-0.457,8.301-0.279,12.464-0.938
	c8.279-1.309,17.02-3.062,24.853-6.093c3.431-1.328,6.829-2.795,10.174-4.32c1.746-0.795,3.453-1.571,5.082-2.594
	c1.452-0.91,2.75-2.877,3.781-4.222c5.021-6.544,8.185-14.069,10.354-21.975c2.056-7.496,2.154-15.452,2.155-23.188
	c0.002-18.051,0.38-36.096,0.383-54.153C480.885,300.539,480.822,291.471,480.462,282.399z"/>
<path fill="#FFFFFF" stroke="#181716" stroke-width="2" stroke-miterlimit="10" d="M508.362,105.769
	c-0.991-8.163-13.547-1.308-16.682,1.104c-3.407,2.624-6.246,5.18-8.864,8.624c-1.17,1.539-2.266,3.177-3.353,4.778
	c-0.642,0.945-1.528,2.107-1.942,3.243c-0.44,0.237-0.513,0.877-0.184,1.299c1.404,1.805,2.989,3.928,5.7,3.029
	c3.867-1.281,7.579-3.333,11.057-5.437C499.745,118.993,509.318,113.646,508.362,105.769z"/>
<path fill="#FFFFFF" stroke="#181716" stroke-width="2" stroke-miterlimit="10" d="M443.369,135.547
	c-0.091-0.022-0.168-0.017-0.247-0.016c-0.146-0.139-0.344-0.228-0.56-0.192c-4.097,0.66-8.451,0.499-12.593,0.75
	c-2.536,0.154-4.966,0.157-7.503,0.491c-2.377,0.313-4.648,0.881-6.979,1.435c-5.803,1.376-16.622,7.456-9.6,14.099
	c6.693,6.332,18.727,1.312,25.236-2.736c4.146-2.58,8.294-5.237,12.137-8.257C444.808,139.906,446.085,136.227,443.369,135.547z"/>
<path fill="#FFFFFF" stroke="#181716" stroke-width="2" stroke-miterlimit="10" d="M499.391,112.059
	c-1.47-2.903-8.049,1.814-9.352,2.73c-1.907,1.341-3.693,2.9-5.222,4.659c-1.333,1.534-3.285,3.257-3.839,5.276
	c-0.133,0.485,0.427,0.849,0.804,0.683c0.116,0.033,0.243,0.047,0.385,0.019c2.248-0.443,4.216-1.857,6.144-3.035
	c2.092-1.278,4.245-2.415,6.386-3.611C496.896,117.549,500.928,115.095,499.391,112.059z"/>
<path fill="#FFFFFF" stroke="#181716" stroke-width="2" stroke-miterlimit="10" d="M439.686,138.525
	c-2.114-0.43-4.492,0.19-6.546,0.595c-3.154,0.623-6.284,1.408-9.396,2.209c-2.368,0.608-10.041,3.175-7.996,7.164
	c2.045,3.991,8.241,0.29,10.852-0.955c3.015-1.436,5.977-2.976,8.997-4.398c1.751-0.824,4.043-1.65,5.126-3.37
	C441.204,139.001,440.371,138.322,439.686,138.525z"/>
<path fill="#FFFFFF" stroke="#181716" stroke-width="2" stroke-miterlimit="10" d="M509.545,193.964
	c-1.999-1.775-4.012-3.341-5.792-5.367c-2.058-2.342-3.613-5.112-5.378-7.671c-3.495-5.067-6.358-11.01-7.098-17.162
	c-0.743-6.185-0.214-12.633-0.214-18.842c0-5.658-1.233-11.139-3.532-16.33c-2.125-4.798-5.389-8.34-9.569-11.422
	c-4.147-3.056-10.251-5.628-15.505-4.786c-4.528,0.726-9.333,3.267-12.89,6.097c-0.903,0.718-1.761,1.458-2.595,2.212
	c-3.142,2.034-5.927,4.777-8.024,7.417c-4.451,5.6-5.539,13.222-4.405,20.076c1.354,8.179,5.641,15.452,10.554,22.004
	c4.93,6.573,8.691,14.185,12.02,21.673c1.675,3.771,2.768,7.765,4.032,11.684c1.027,3.186,1.263,6.729,2.653,9.799
	c0.946,2.088,2.389,3.961,4.877,3.38c1.354-0.315,2.813-1.827,3.893-2.642c1.834-1.386,3.673-2.687,5.651-3.859
	c7.383-4.372,15.793-6.883,24.157-8.565c1.881-0.378,3.753-0.8,5.632-1.195c0.86-0.181,2.413-0.525,3.064-1.237
	C512.648,197.504,510.953,195.212,509.545,193.964z"/>
<path fill="#FFFFFF" stroke="#181716" stroke-width="2" stroke-miterlimit="10" d="M525.107,202.542
	c-0.615-3.245-2.479-6.198-4.642-8.634c-5.022-5.661-14.55-4.645-21.24-3.935c-7.736,0.823-15.288,3.714-22.4,6.737
	c-6.826,2.902-16.217,9.185-16.279,17.425c0,0.011,0.004,0.019,0.004,0.028c-0.334,1.508-0.513,3.03-0.505,4.435
	c0.035,6.304,2.604,12.715,7.912,16.329c5.771,3.933,15.234,3.375,21.801,2.409c7.983-1.174,15.5-3.963,22.362-8.188
	c3.199-1.971,5.887-4.386,8.227-7.313c2.23-2.789,3.46-6.171,4.696-9.493C526.109,209.479,525.665,205.484,525.107,202.542z"/>
<g>
	<path fill="#181716" d="M496.76,208.54c-0.49-0.662-1.304-1.339-2.177-1.26c-0.438,0.04-0.853,0.284-1.146,0.627
		c-0.216,0.097-0.418,0.225-0.597,0.374c-0.588,0.493-0.642,1.429-0.598,2.128c0.114,1.765,1.655,2.976,3.391,2.37
		C497.475,212.137,497.845,210.002,496.76,208.54z"/>
	<path fill="#181716" d="M514.826,203.015c-0.491-0.662-1.303-1.339-2.177-1.259c-0.439,0.04-0.854,0.283-1.146,0.627
		c-0.216,0.097-0.419,0.225-0.597,0.374c-0.587,0.493-0.643,1.43-0.599,2.129c0.114,1.764,1.655,2.975,3.393,2.37
		C515.541,206.612,515.911,204.477,514.826,203.015z"/>
</g>
<path fill="#FFFFFF" stroke="#181716" stroke-width="2" stroke-miterlimit="10" d="M498.783,221.263
	c-1.042,0.22-1.94,0.795-2.979,1.078c-1.854,0.506-3.749,0.618-5.659,0.619c-3.731,0-7.114-0.562-10.411-2.355
	c-1.539-0.837-3.114-2.193-3.833-3.836c-0.229-0.521-0.538-1.378-1.18-1.555c-0.92-0.254-1.535,0.354-1.714,1.128
	c-1.468,1.438-1.204,5.054-0.81,6.724c0.813,3.452,2.73,6.326,6.019,7.805c3.893,1.75,8.697,1.416,12.595-0.036
	c3.812-1.421,6.511-4.832,8.927-7.929C500.335,222.141,499.806,221.047,498.783,221.263z"/>
<path fill="#FFFFFF" stroke="#181716" stroke-width="2" stroke-miterlimit="10" d="M450.253,202.715
	c0.879,0.957,1.708,1.479,3.004,1.052c1.357-0.448,2.048-1.568,2.344-2.9c0.544-2.444-0.77-5.876-3.301-6.652
	c-2.412-0.74-3.285,2.716-3.054,4.711C449.168,200.379,449.591,201.993,450.253,202.715z"/>
<path fill="#FFFFFF" stroke="#181716" stroke-width="2" stroke-miterlimit="10" d="M455.787,221.224
	c-0.986-2.952-3.249-6.415-6.688-6.414c-0.335,0-0.646,0.059-0.938,0.164c0.276,1.98,0.54,3.96,0.767,5.947
	c0.463,4.043,1.349,7.947,1.412,12.039c0.066,4.171,0.528,8.448,0.836,12.61c0.14,1.874,0.221,3.746,0.262,5.62
	c0.131,0.066,0.246,0.149,0.385,0.207c2.486,1.049,4.766-0.971,5.556-3.232c1.317-3.767,0.769-8.42,0.769-12.352
	C458.146,230.977,457.314,225.802,455.787,221.224z"/>
<path fill="#FFFFFF" stroke="#181716" stroke-width="2" stroke-miterlimit="10" d="M468.846,246.668
	c1.973-2.058,1.823-5.344-0.524-7.018c-1.698-1.211-3.703-0.786-4.451,0.668c-0.371,0.333-0.677,0.746-0.876,1.142
	c-0.609,1.208-0.522,2.883,0.021,4.101C464.062,247.91,467.046,248.546,468.846,246.668z"/>
<path fill="#FFFFFF" stroke="#181716" stroke-width="2" stroke-miterlimit="10" d="M454.656,262.109
	c-1.126-0.657-2.383-0.819-3.521-0.129c-0.007,0.003-0.012,0.009-0.018,0.013c-0.201,2.118-0.418,4.233-0.418,6.351
	c0,0.663-0.031,1.329-0.073,1.995c1.611,0.491,3.563-0.385,4.625-1.651C456.64,267.035,456.746,263.33,454.656,262.109z"/>
<path fill="#FFFFFF" stroke="#181716" stroke-width="2" stroke-miterlimit="10" d="M465.344,277.331
	c2.816-0.123,4.275-2.44,5.106-4.913c1.235-3.681,1.103-12.878-4.388-13.135c-2.168-0.102-3.767,2.548-4.431,4.234
	c-0.438,1.113-0.743,2.132-0.881,3.127c-0.695,2.057-0.703,4.427-0.087,6.419C461.166,274.692,463.431,277.415,465.344,277.331z"/>
<path fill="#FFFFFF" stroke="#181716" stroke-width="2" stroke-miterlimit="10" d="M473.345,288.327
	c-1.271-0.975-2.644-0.492-3.776,0.439c-0.549,0.45-0.889,1.01-1.096,1.619c-0.095,0.143-0.184,0.285-0.269,0.426
	c-0.951,1.583-0.794,3.702-0.235,5.396c1.02,3.085,4.916,1.943,6.247-0.091C475.648,293.925,475.569,290.033,473.345,288.327z"/>
<path fill="#FFFFFF" stroke="#181716" stroke-width="2" stroke-miterlimit="10" d="M454.833,283.843
	c-2.222-0.477-4.182,0.159-5.862,1.44c-0.283,2.739-0.606,5.47-1.08,8.208c-1.147,6.669-3.468,13.04-6.469,19.077
	c0.612,1.151,1.446,2.172,2.469,2.953c3.075,2.346,7.741,2.067,11.116,0.684c3.851-1.582,5.993-5.229,7.263-9.012
	c1.621-4.824,1.115-10.214-0.315-15.005C460.8,288.329,459.043,284.746,454.833,283.843z"/>
<path fill="#FFFFFF" stroke="#181716" stroke-width="2" stroke-miterlimit="10" d="M462.215,338.469
	c3.696-5.49,1.519-13.578-4.573-16.279c-3.934-1.744-7.646,1.199-9.126,4.856c-1.812,2.919-1.826,7.24-0.425,10.29
	C450.77,343.164,458.54,343.927,462.215,338.469z"/>
<path fill="#FFFFFF" stroke="#181716" stroke-width="2" stroke-miterlimit="10" d="M439.059,346.578
	c-4.182,2.061-6.798,5.949-8.113,10.229c-2.122,4.818-1.573,11.111,1.749,14.982c3.145,3.664,7.89,2.921,11.841,1.227
	c4.775-2.05,7.765-5.986,9.693-10.66c1.899-4.605,0.745-9.84-2.551-13.533C448.324,345.062,443.52,344.381,439.059,346.578z"/>
<path fill="#FFFFFF" stroke="#181716" stroke-width="2" stroke-miterlimit="10" d="M426.593,355.364
	c2.88-3.974,4.079-8.075,3.276-12.911c-0.521-3.146-1.827-6.073-4.12-8.096c-1.506,1.341-3.104,2.609-4.834,3.778
	c-7.933,5.36-16.766,8.709-25.963,10.601c0.136,4.89,3.323,10.25,6.897,12.93C409.863,367.668,421.323,362.633,426.593,355.364z"/>
<path fill="#FFFFFF" stroke="#181716" stroke-width="2" stroke-miterlimit="10" d="M441.404,336.076
	c1.488-1.957,1.527-6.014-1.326-6.866c-2.255-0.672-5.396,1.019-5.485,3.494c-0.313,1.299-0.327,2.603,0.406,3.788
	C436.486,338.896,439.969,337.96,441.404,336.076z"/>
<path fill="#FFFFFF" stroke="#181716" stroke-width="2" stroke-miterlimit="10" d="M463.985,346.518
	c-0.959-0.055-1.655,0.11-2.263,0.875c-0.461,0.325-0.752,0.903-0.973,1.442c-0.395,0.963-0.429,2.291,0.346,3.088
	c1.416,1.458,3.735,0.797,4.809-0.725c0.644-0.913,0.853-1.888,0.356-2.913C465.828,347.391,465.037,346.578,463.985,346.518z"/>
<path fill="#FFFFFF" stroke="#181716" stroke-width="2" stroke-miterlimit="10" d="M418.774,379.494
	c-1.383-1.051-3.393-2.032-5.137-1.26c-1.112,0.492-2.087,1.482-2.458,2.66c-1.008,1.116-1.042,3.353-0.816,4.688
	c0.627,3.72,4.902,4.6,7.873,3.049C421.527,386.916,421.64,381.674,418.774,379.494z"/>
<path fill="#FFFFFF" stroke="#181716" stroke-width="2" stroke-miterlimit="10" d="M432.651,391.129
	c-0.206,0.051-0.409,0.117-0.628,0.27c-0.481,0.336-0.811,0.838-1.202,1.264c-0.753,0.814-0.569,2.494-0.165,3.407
	c1.025,2.312,3.988,2.233,5.88,1.274c2.411-1.222,2.267-4.283,0.561-5.99C435.86,390.116,433.815,390.021,432.651,391.129z"/>
<path fill="#FFFFFF" stroke="#181716" stroke-width="2" stroke-miterlimit="10" d="M363.071,351.087
	c-2.623-0.114-5.236-0.196-7.854-0.258c0,2.024,0.919,4.153,2.093,5.617c4.36,5.438,12.218,6.683,18.17,3.338
	c3.91-2.198,4.754-5.832,3.523-9.15c-1.669,0.069-3.339,0.113-5.009,0.113C370.342,350.749,366.734,351.246,363.071,351.087z"/>
<path fill="#FFFFFF" stroke="#181716" stroke-width="2" stroke-miterlimit="10" d="M389.651,365.997
	c1.436-1.152,2.114-3.429,0.896-4.972c-0.649-0.824-1.855-1.393-2.906-1.318c-0.865,0.061-1.658,0.582-1.932,1.35
	c-0.116,0.109-0.227,0.222-0.323,0.332c-0.71,0.828-0.882,1.93-0.652,2.973C385.233,366.625,387.945,367.365,389.651,365.997z"/>
<path fill="#FFFFFF" stroke="#181716" stroke-width="2" stroke-miterlimit="10" d="M398.064,377.514
	c-3.41-2.936-10.043-2.436-14.002,0.451c-1.602,0.557-2.9,1.537-4.044,3.342c-1.901,3.006-1.712,6.877-0.293,9.982
	c3.208,7.014,12.949,8.449,18.972,4.527C405.689,391.268,403.536,382.225,398.064,377.514z"/>
<path fill="#FFFFFF" stroke="#181716" stroke-width="2" stroke-miterlimit="10" d="M368.512,394.05
	c-1.513-0.344-3.146-0.042-4.444,0.776c-0.12,0.074-0.216,0.162-0.313,0.248c-0.316,0.158-0.607,0.427-0.843,0.764
	c-1.062,1.52-1.056,3.325-0.09,4.89c1.879,3.045,6.291,2.373,8.557,0.29C374.29,398.343,371.569,394.745,368.512,394.05z"/>
<path fill="#FFFFFF" stroke="#181716" stroke-width="2" stroke-miterlimit="10" d="M365.438,385.184
	c2.707-4.271,3.146-9.673,0.822-14.187c-2.578-5.005-8.541-7.597-13.815-8.396c-6.394-0.969-12-0.027-17.38,3.715
	c-1.481,1.029-2.463,2.431-3.114,4.017c-1.953,2.938-2.57,7.071-2.489,10.371c0.137,5.608,2.913,9.968,7.656,12.838
	C347.277,399.692,359.398,394.715,365.438,385.184z"/>
<path fill="#FFFFFF" stroke="#181716" stroke-width="2" stroke-miterlimit="10" d="M325.175,351.708
	c-5.723,0.99-9.889,4.996-11.506,10.594c-0.932,3.229-1.912,6.491-2.713,9.791c2.127,2.167,5.463,2.509,8.293,2.062
	c6.615-1.044,9.91-9.039,9.442-14.925C328.459,356.311,327.113,353.893,325.175,351.708z"/>
<path fill="#FFFFFF" stroke="#181716" stroke-width="2" stroke-miterlimit="10" d="M419.357,533.01
	c-3.519-1.4-7.377-1.279-10.95-0.167c-0.604,2.029-1.23,4.048-1.915,6.049c-0.578,1.692-2.281,5.824-0.376,7.366
	c1.479,1.196,4.444,2.348,6.263,1.282c0.992-0.581,1.577-2.305,2.087-3.259c0.953-1.782,1.813-3.624,2.67-5.454
	c0.882-1.88,1.642-3.812,2.366-5.76C419.455,533.048,419.403,533.028,419.357,533.01z"/>
<path fill="#FFFFFF" stroke="#181716" stroke-width="2" stroke-miterlimit="10" d="M449.806,526.162
	c-3.434-1.189-7.15-0.998-10.59,0.123c-0.143,0.518-0.287,1.038-0.428,1.556c-0.855,3.14-2.556,6.844-2.556,10.147
	c0,2.18,3.515,2.714,4.996,2.802c3.025,0.179,3.675-1.747,5.013-4.176C447.977,533.457,448.993,529.712,449.806,526.162z"/>
<path fill="#FFFFFF" stroke="#181716" stroke-width="2" stroke-miterlimit="10" d="M341.212,526.332
	c-0.026,2.268-0.037,4.533,0.183,6.801c0.283,2.961,0.58,4.714,2.729,6.807c1.316,1.281,3.566,2.348,4.967,0.674
	c1.646-1.965,1.31-6.114,1.397-8.494c0.102-2.712,0.07-5.448,0.136-8.172C347.377,523.884,344.1,524.788,341.212,526.332z"/>
<path fill="#FFFFFF" stroke="#181716" stroke-width="2" stroke-miterlimit="10" d="M312.961,530.002
	c-3.421-1.207-7.125-1.038-10.562,0.061c-0.17,0.618-0.342,1.236-0.51,1.855c-0.855,3.139-2.557,6.844-2.557,10.147
	c0,2.181,3.516,2.714,4.996,2.802c3.025,0.179,3.674-1.747,5.012-4.176C311.117,537.463,312.138,533.623,312.961,530.002z"/>
<path fill="#181716" d="M481.829,140.517c-0.05,0.038-0.104,0.055-0.151,0.099c-0.973,0.898-1.222,2.129-1.261,3.404
	c-0.091,2.935,3.398,4.124,5.683,2.898c2.135-1.143,2.049-4.003,0.656-5.662C485.648,139.936,483.071,138.904,481.829,140.517z"/>
<path fill="#181716" d="M451.648,150.292c-0.049,0.037-0.104,0.055-0.15,0.099c-0.973,0.897-1.222,2.128-1.262,3.404
	c-0.09,2.935,3.397,4.124,5.683,2.898c2.135-1.144,2.048-4.004,0.657-5.662C455.469,149.712,452.892,148.681,451.648,150.292z"/>
<path fill="#FFFFFF" stroke="#181716" stroke-width="2" stroke-miterlimit="10" d="M469.501,185.389
	c-0.1-0.454-0.303-0.913-0.547-1.36c-0.423-1.412-1.696-2.692-2.918-3.36c-1.42-0.779-3.021-1.027-4.601-0.685
	c-1.477,0.319-2.53,1.32-3.367,2.509c-0.51,0.721-0.773,1.569-0.856,2.452c-0.04,0.236-0.072,0.476-0.101,0.72
	c-0.118,1.007,0.174,1.967,0.639,2.84c0.089,0.233,0.184,0.461,0.29,0.675c1.043,2.122,3.371,3.545,5.729,3.494
	c1.608-0.035,3.297-0.724,4.397-1.915C469.56,189.252,469.93,187.352,469.501,185.389z"/>
<path fill="none" stroke="#000000" stroke-width="2" d="M148.406,124.166c1.033,0.31,1.911,0.814,2.635,1.512
	c0.723,0.697,1.202,1.473,1.434,2.325s0.18,1.705-0.155,2.558c-0.336,0.853-1.046,1.616-2.131,2.287
	c-0.104,0.155-0.13,0.789-0.078,1.899c0.051,1.112,0.09,2.391,0.116,3.837c0.025,1.447-0.013,2.907-0.116,4.379
	c-0.104,1.473-0.336,2.623-0.698,3.449c-0.362,0.672-0.802,1.267-1.317,1.783c-0.517,0.517-1.06,1.008-1.628,1.473
	c-1.912,1.602-3.953,2.829-6.123,3.682c-2.17,0.853-4.393,1.356-6.666,1.512c-2.274,0.155-4.561-0.078-6.86-0.698
	c-2.3-0.62-4.509-1.602-6.627-2.945c-2.688-1.705-4.949-3.901-6.782-6.588c-1.835-2.687-3.166-5.581-3.992-8.681
	c-0.517-1.963-0.814-4.018-0.892-6.162c-0.077-2.144,0.09-4.263,0.504-6.356c0.413-2.093,1.085-4.095,2.015-6.007
	c0.93-1.911,2.093-3.643,3.488-5.193c1.653-1.808,3.552-3.306,5.697-4.496c2.144-1.188,4.353-2.221,6.627-3.101
	c1.756-0.723,3.565-1.266,5.426-1.627c1.86-0.361,3.746-0.491,5.658-0.388c1.446,0.104,3.009,0.349,4.689,0.736
	c1.678,0.388,3.112,1.073,4.302,2.054c0.568,0.465,1.046,1.034,1.434,1.705c0.388,0.672,0.62,1.356,0.698,2.054
	c0.078,0.697-0.013,1.37-0.271,2.015c-0.259,0.646-0.725,1.228-1.396,1.744c-0.672,0.517-1.383,0.813-2.131,0.891
	c-0.75,0.078-1.512,0.027-2.287-0.155c-0.775-0.181-1.55-0.426-2.325-0.736c-0.775-0.31-1.5-0.568-2.17-0.775
	c-0.569-0.206-1.176-0.297-1.821-0.271c-0.647,0.026-1.279,0.091-1.899,0.193c-1.809,0.518-3.631,1.151-5.464,1.899
	c-1.835,0.75-3.527,1.667-5.077,2.751c-1.55,1.085-2.881,2.377-3.992,3.875c-1.112,1.5-1.821,3.308-2.131,5.426
	c-0.414,2.635-0.285,5.258,0.388,7.867c0.671,2.61,1.911,4.896,3.72,6.86c1.188,1.292,2.57,2.338,4.147,3.139
	c1.576,0.802,3.217,1.279,4.922,1.434c1.705,0.155,3.384-0.025,5.038-0.542c1.653-0.516,3.126-1.42,4.418-2.713V133.7
	c-1.034,0.052-2.106,0.143-3.216,0.271c-1.112,0.129-2.223,0.207-3.333,0.232c-1.112,0.027-2.197-0.051-3.255-0.232
	c-1.06-0.181-2.054-0.529-2.984-1.046c-0.879-0.516-1.486-1.202-1.821-2.054c-0.337-0.853-0.426-1.705-0.271-2.558
	s0.516-1.64,1.085-2.364c0.568-0.723,1.343-1.213,2.326-1.473c0.465-0.103,1.046-0.167,1.744-0.194
	c0.698-0.025,1.396-0.039,2.093-0.039c0.698,0,1.33,0.013,1.899,0.039c0.568,0.027,1.007,0.039,1.317,0.039
	c2.015,0,4.017-0.026,6.007-0.078C144.31,124.193,146.339,124.166,148.406,124.166z"/>
<path fill="none" stroke="#000000" stroke-width="2" d="M187.316,105.486c0.206-1.911,0.865-3.319,1.976-4.224
	c1.111-0.903,2.287-1.343,3.527-1.318c1.24,0.027,2.39,0.504,3.449,1.434c1.059,0.93,1.614,2.248,1.667,3.953
	c0.103,1.757-0.349,3.114-1.356,4.069c-1.007,0.957-2.158,1.499-3.449,1.627c-1.292,0.13-2.507-0.219-3.643-1.046
	c-1.137-0.826-1.834-2.144-2.093-3.953L187.316,105.486z"/>
<path fill="none" stroke="#000000" stroke-width="2" d="M197.547,149.589c-0.104,1.034-0.465,1.951-1.085,2.752
	c-0.62,0.8-1.331,1.382-2.131,1.744c-0.802,0.361-1.667,0.438-2.597,0.232c-0.93-0.207-1.757-0.775-2.48-1.705
	c-0.414-0.517-0.711-1.097-0.891-1.744c-0.182-0.646-0.298-1.317-0.349-2.015c-0.052-0.697-0.065-1.395-0.039-2.093
	c0.025-0.697,0.039-1.33,0.039-1.899c-0.052-3.048-0.065-6.071-0.039-9.069c0.025-2.996,0.012-6.019-0.039-9.068
	c0-1.24-0.078-2.493-0.233-3.759c-0.155-1.266-0.077-2.52,0.233-3.759c0.258-0.93,0.709-1.731,1.356-2.403
	c0.646-0.671,1.369-1.136,2.17-1.396c0.801-0.258,1.628-0.283,2.48-0.077c0.853,0.207,1.589,0.75,2.209,1.627
	c0.826,1.034,1.24,2.054,1.24,3.062c0,1.008,0,2.236,0,3.682c0,1.757,0,3.515,0,5.271c0,1.757,0.025,3.488,0.078,5.193
	c0.051,2.48,0.077,4.96,0.077,7.441s0,4.96,0,7.441L197.547,149.589L197.547,149.589z"/>
<path fill="none" stroke="#000000" stroke-width="2" d="M204.291,146.566c-0.31-0.878-0.44-1.744-0.388-2.597
	c0.051-0.853,0.271-1.627,0.659-2.325c0.388-0.697,0.942-1.24,1.667-1.627c0.723-0.388,1.601-0.529,2.635-0.426
	c0.568,0.052,1.085,0.207,1.55,0.465c0.465,0.259,0.892,0.569,1.279,0.93c0.388,0.362,0.775,0.75,1.163,1.163
	c0.388,0.414,0.788,0.775,1.202,1.085c0.878,0.672,1.808,1.163,2.791,1.473c0.981,0.31,2.015,0.542,3.1,0.697
	c0.723,0,1.305-0.18,1.744-0.542c0.438-0.361,0.736-0.8,0.892-1.318c0.155-0.516,0.193-1.072,0.116-1.667
	c-0.078-0.593-0.271-1.072-0.582-1.434c-0.879-0.878-1.951-1.446-3.217-1.706c-1.267-0.258-2.441-0.568-3.526-0.93
	c-1.55-0.516-3.075-1.175-4.573-1.977c-1.5-0.801-2.713-1.899-3.643-3.294c-0.982-1.446-1.563-2.984-1.744-4.612
	c-0.182-1.628-0.052-3.217,0.388-4.767c0.438-1.55,1.175-2.971,2.209-4.263c1.033-1.291,2.273-2.351,3.721-3.178
	c1.085-0.62,2.273-1.02,3.565-1.201c1.291-0.181,2.597-0.219,3.914-0.116c1.318,0.104,2.622,0.349,3.915,0.736
	c1.291,0.387,2.48,0.813,3.565,1.279c1.24,0.569,2.17,1.37,2.791,2.403c0.62,1.034,0.917,2.081,0.891,3.139
	c-0.027,1.06-0.388,1.977-1.085,2.751c-0.698,0.775-1.719,1.163-3.062,1.163c-0.827,0-1.577-0.142-2.248-0.426
	c-0.672-0.283-1.37-0.555-2.093-0.813c-0.93-0.361-1.938-0.607-3.023-0.737c-1.085-0.128-1.964-0.064-2.635,0.194
	c-0.207,0.052-0.44,0.221-0.698,0.504c-0.259,0.285-0.453,0.633-0.581,1.046c-0.13,0.414-0.155,0.827-0.078,1.24
	c0.078,0.414,0.349,0.75,0.814,1.008c1.24,0.672,2.558,1.189,3.953,1.55c1.396,0.362,2.764,0.775,4.108,1.24
	c1.343,0.465,2.596,1.06,3.759,1.783c1.163,0.725,2.131,1.757,2.906,3.101c1.136,1.964,1.718,4.019,1.744,6.162
	c0.025,2.145-0.401,4.147-1.279,6.007c-0.879,1.86-2.17,3.449-3.875,4.767c-1.706,1.318-3.695,2.105-5.968,2.364
	c-1.603,0.155-3.178,0.064-4.729-0.271c-1.55-0.336-3.049-0.879-4.496-1.628c-1.447-0.75-2.79-1.64-4.03-2.674
	c-1.24-1.033-2.325-2.118-3.255-3.255L204.291,146.566z"/>
<path fill="none" stroke="#000000" stroke-width="2" d="M280.947,152.69c-0.672,0.826-1.447,1.395-2.325,1.705
	c-0.879,0.31-1.783,0.31-2.713,0c-0.93-0.31-1.706-1.007-2.326-2.093c-0.259-0.414-0.465-0.853-0.62-1.317
	c-0.155-0.465-0.232-0.93-0.232-1.396v-20.385c-0.982,0-1.874-0.271-2.674-0.814c-0.802-0.542-1.396-1.213-1.783-2.015
	c-0.388-0.8-0.531-1.653-0.426-2.558c0.103-0.904,0.516-1.744,1.24-2.519c0.516-0.568,1.072-0.942,1.667-1.124
	c0.594-0.181,1.227-0.297,1.899-0.349c-0.052-1.601-0.091-3.178-0.116-4.729c-0.026-1.55,0.09-3.1,0.349-4.65
	c0.31-2.428,1.033-4.496,2.17-6.201c1.136-1.706,2.545-3.023,4.225-3.953c1.679-0.93,3.552-1.473,5.62-1.628
	c2.066-0.155,4.211,0.155,6.433,0.93c0.93,0.311,1.822,0.698,2.674,1.163c0.853,0.465,1.614,1.06,2.287,1.783
	c0.465,0.517,0.8,1.124,1.007,1.822c0.206,0.697,0.245,1.395,0.116,2.093c-0.129,0.697-0.387,1.344-0.775,1.938
	c-0.388,0.595-0.943,1.046-1.667,1.356c-0.982,0.414-1.951,0.517-2.907,0.31c-0.957-0.206-1.899-0.542-2.829-1.007
	c-0.569-0.206-1.112-0.413-1.627-0.62c-0.518-0.206-1.06-0.361-1.628-0.465c-0.569-0.103-1.085-0.025-1.55,0.232
	c-0.465,0.259-0.866,0.608-1.201,1.046c-0.337,0.44-0.595,0.93-0.775,1.473c-0.182,0.543-0.271,1.073-0.271,1.589
	c-0.052,1.189-0.065,2.391-0.039,3.604c0.025,1.215,0.039,2.416,0.039,3.604c0.775-0.051,1.601-0.103,2.48-0.155
	c0.878-0.051,1.744-0.078,2.597-0.078s1.64,0.027,2.364,0.078c0.723,0.052,1.291,0.155,1.705,0.31
	c0.826,0.31,1.498,0.789,2.015,1.434c0.516,0.646,0.853,1.344,1.008,2.093c0.155,0.75,0.09,1.511-0.194,2.287
	c-0.285,0.775-0.788,1.447-1.511,2.015c-0.672,0.517-1.447,0.879-2.325,1.085c-0.879,0.207-1.81,0.349-2.791,0.426
	c-0.982,0.078-1.938,0.104-2.868,0.078c-0.93-0.025-1.757-0.039-2.48-0.039v20.695C282.032,150.882,281.618,151.863,280.947,152.69z
	"/>
<path fill="none" stroke="#000000" stroke-width="2" d="M295.364,133.235c0.361-1.498,0.865-2.971,1.511-4.418
	c0.646-1.446,1.434-2.83,2.364-4.147c0.93-1.318,1.977-2.519,3.139-3.604c1.163-1.085,2.415-1.963,3.759-2.635
	c2.376-1.24,4.768-1.872,7.169-1.899c2.403-0.025,4.639,0.453,6.705,1.434c2.066,0.982,3.823,2.441,5.271,4.379
	c1.446,1.938,2.403,4.251,2.868,6.938c0.258,1.757,0.399,3.424,0.426,5c0.025,1.577-0.144,3.217-0.503,4.922
	c-0.518,2.429-1.563,4.844-3.14,7.247c-1.576,2.403-3.463,4.418-5.658,6.046c-2.197,1.628-4.601,2.7-7.208,3.217
	c-2.61,0.516-5.232,0.103-7.868-1.24c-1.189-0.569-2.262-1.228-3.217-1.977c-0.957-0.749-1.821-1.64-2.596-2.674
	c-0.879-1.136-1.563-2.325-2.054-3.565c-0.492-1.24-0.892-2.531-1.201-3.875c-0.362-1.446-0.492-2.907-0.388-4.379
	c0.103-1.473,0.283-2.906,0.542-4.302L295.364,133.235z"/>
<path fill="none" stroke="#000000" stroke-width="2" d="M304.665,134.862c-0.155,0.827-0.285,1.641-0.388,2.442
	c-0.104,0.802-0.104,1.616,0,2.441c0.154,1.189,0.477,2.274,0.969,3.255c0.49,0.982,1.136,1.757,1.938,2.325
	c0.801,0.569,1.718,0.866,2.751,0.892c1.033,0.027,2.145-0.297,3.333-0.969c1.498-0.878,2.791-2.234,3.875-4.069
	c1.086-1.833,1.757-3.746,2.016-5.736c0.258-1.989,0.051-3.875-0.62-5.658c-0.672-1.783-1.99-3.062-3.953-3.837
	c-1.292,0-2.479,0.246-3.565,0.736c-1.085,0.492-2.028,1.137-2.829,1.938c-0.803,0.802-1.499,1.744-2.094,2.829
	C305.504,132.537,305.025,133.674,304.665,134.862z"/>
<path fill="none" stroke="#000000" stroke-width="2" d="M335.667,127.848c0.051-0.335,0.025-0.942-0.078-1.821
	c-0.827-0.465-1.473-1.059-1.938-1.783c-0.466-0.723-0.736-1.498-0.814-2.325c-0.078-0.826,0.078-1.615,0.465-2.364
	c0.388-0.749,1.021-1.382,1.899-1.899c1.188-0.671,2.492-0.801,3.914-0.388c1.421,0.414,2.646,1.034,3.682,1.86
	c1.291-0.981,2.636-1.808,4.031-2.48c1.395-0.671,2.816-1.124,4.263-1.356s2.918-0.194,4.418,0.116
	c1.498,0.31,2.972,0.957,4.418,1.938c0.724,0.465,1.396,1.046,2.016,1.744c0.62,0.697,1.008,1.486,1.163,2.364
	c0.258,1.292,0.154,2.416-0.311,3.372c-0.465,0.957-1.112,1.655-1.938,2.093c-0.827,0.44-1.758,0.569-2.791,0.388
	c-1.034-0.18-2.016-0.736-2.945-1.667c-0.311-0.206-0.53-0.374-0.659-0.504c-0.129-0.128-0.401-0.296-0.813-0.503
	c-0.827-0.206-1.642-0.155-2.441,0.155c-0.802,0.31-1.577,0.736-2.325,1.279c-0.75,0.542-1.446,1.137-2.093,1.783
	c-0.647,0.647-1.229,1.228-1.744,1.744v19.765c0,0.775-0.155,1.525-0.465,2.248c-0.465,1.188-1.201,2.015-2.209,2.48
	c-1.007,0.465-2.015,0.594-3.023,0.388c-1.007-0.207-1.887-0.724-2.635-1.55c-0.75-0.827-1.124-1.886-1.124-3.178v-21.703
	C335.59,128.249,335.615,128.185,335.667,127.848z"/>
<path fill="none" stroke="#000000" stroke-width="2" d="M148.406,208.342c1.033,0.31,1.911,0.814,2.635,1.512
	c0.723,0.697,1.202,1.473,1.434,2.325c0.232,0.853,0.18,1.705-0.155,2.558c-0.336,0.853-1.046,1.616-2.131,2.287
	c-0.104,0.155-0.13,0.789-0.078,1.899c0.051,1.112,0.09,2.391,0.116,3.837c0.025,1.447-0.013,2.907-0.116,4.379
	c-0.104,1.473-0.336,2.623-0.698,3.449c-0.362,0.672-0.802,1.267-1.317,1.783c-0.517,0.517-1.06,1.008-1.628,1.473
	c-1.912,1.603-3.953,2.829-6.123,3.682c-2.17,0.853-4.393,1.356-6.666,1.512c-2.274,0.155-4.561-0.078-6.86-0.698
	c-2.3-0.62-4.509-1.602-6.627-2.945c-2.688-1.705-4.949-3.901-6.782-6.588c-1.835-2.687-3.166-5.581-3.992-8.681
	c-0.517-1.963-0.814-4.018-0.892-6.162c-0.077-2.144,0.09-4.263,0.504-6.356c0.413-2.093,1.085-4.095,2.015-6.007
	c0.93-1.911,2.093-3.643,3.488-5.193c1.653-1.808,3.552-3.306,5.697-4.496c2.144-1.188,4.353-2.221,6.627-3.101
	c1.756-0.723,3.565-1.266,5.426-1.627c1.86-0.361,3.746-0.491,5.658-0.388c1.446,0.104,3.009,0.349,4.689,0.736
	c1.678,0.388,3.112,1.073,4.302,2.054c0.568,0.465,1.046,1.034,1.434,1.705c0.388,0.672,0.62,1.356,0.698,2.054
	c0.078,0.697-0.013,1.37-0.271,2.015c-0.259,0.646-0.725,1.228-1.396,1.744c-0.672,0.517-1.383,0.813-2.131,0.891
	c-0.75,0.078-1.512,0.027-2.287-0.155c-0.775-0.181-1.55-0.426-2.325-0.736c-0.775-0.31-1.5-0.568-2.17-0.775
	c-0.569-0.206-1.176-0.297-1.821-0.271c-0.647,0.026-1.279,0.091-1.899,0.193c-1.809,0.518-3.631,1.151-5.464,1.899
	c-1.835,0.75-3.527,1.667-5.077,2.751c-1.55,1.085-2.881,2.377-3.992,3.875c-1.112,1.5-1.821,3.308-2.131,5.426
	c-0.414,2.635-0.285,5.258,0.388,7.867c0.671,2.61,1.911,4.896,3.72,6.86c1.188,1.292,2.57,2.338,4.147,3.139
	c1.576,0.802,3.217,1.279,4.922,1.434c1.705,0.155,3.384-0.025,5.038-0.542c1.653-0.516,3.126-1.42,4.418-2.713v-8.371
	c-1.034,0.052-2.106,0.143-3.216,0.271c-1.112,0.129-2.223,0.207-3.333,0.232c-1.112,0.027-2.197-0.051-3.255-0.232
	c-1.06-0.181-2.054-0.529-2.984-1.046c-0.879-0.516-1.486-1.202-1.821-2.054c-0.337-0.853-0.426-1.705-0.271-2.558
	c0.155-0.854,0.516-1.64,1.085-2.364c0.568-0.723,1.343-1.213,2.326-1.473c0.465-0.103,1.046-0.167,1.744-0.194
	c0.698-0.025,1.396-0.039,2.093-0.039c0.698,0,1.33,0.013,1.899,0.039c0.568,0.027,1.007,0.039,1.317,0.039
	c2.015,0,4.017-0.026,6.007-0.078C144.31,208.369,146.339,208.342,148.406,208.342z"/>
<path fill="none" stroke="#000000" stroke-width="2" d="M158.25,189.662c0.206-1.911,0.865-3.319,1.976-4.224
	c1.111-0.903,2.287-1.343,3.527-1.318c1.24,0.027,2.39,0.504,3.449,1.434c1.059,0.93,1.614,2.248,1.667,3.953
	c0.103,1.757-0.349,3.114-1.356,4.069c-1.007,0.957-2.158,1.499-3.449,1.627c-1.292,0.13-2.507-0.219-3.643-1.046
	c-1.137-0.826-1.834-2.144-2.093-3.953L158.25,189.662z"/>
<path fill="none" stroke="#000000" stroke-width="2" d="M168.481,233.766c-0.104,1.034-0.465,1.951-1.085,2.752
	c-0.62,0.8-1.331,1.382-2.131,1.744c-0.802,0.361-1.667,0.438-2.597,0.232c-0.93-0.207-1.757-0.775-2.48-1.705
	c-0.414-0.517-0.711-1.097-0.891-1.744c-0.182-0.646-0.298-1.317-0.349-2.015c-0.052-0.697-0.065-1.396-0.039-2.093
	c0.025-0.697,0.039-1.33,0.039-1.899c-0.052-3.048-0.065-6.071-0.039-9.069c0.025-2.996,0.012-6.019-0.039-9.068
	c0-1.24-0.078-2.493-0.233-3.759c-0.155-1.266-0.077-2.52,0.233-3.759c0.258-0.93,0.709-1.731,1.356-2.403
	c0.646-0.671,1.369-1.136,2.17-1.396c0.801-0.258,1.628-0.283,2.48-0.077c0.853,0.207,1.589,0.75,2.209,1.627
	c0.826,1.034,1.24,2.054,1.24,3.062c0,1.008,0,2.236,0,3.682c0,1.757,0,3.515,0,5.271c0,1.757,0.025,3.488,0.078,5.193
	c0.051,2.48,0.077,4.96,0.077,7.441c0,2.481,0,4.96,0,7.441L168.481,233.766L168.481,233.766z"/>
<path fill="none" stroke="#000000" stroke-width="2" d="M179.255,212.024c0.051-0.335,0.025-0.942-0.078-1.821
	c-0.827-0.465-1.473-1.059-1.938-1.783c-0.465-0.723-0.736-1.498-0.814-2.325c-0.078-0.826,0.078-1.615,0.465-2.364
	c0.387-0.749,1.02-1.382,1.899-1.899c1.188-0.671,2.492-0.801,3.914-0.388c1.421,0.414,2.647,1.034,3.682,1.86
	c1.291-0.981,2.636-1.808,4.031-2.48c1.395-0.671,2.816-1.124,4.263-1.356c1.446-0.232,2.918-0.194,4.418,0.116
	c1.498,0.31,2.971,0.957,4.418,1.938c0.723,0.465,1.396,1.046,2.015,1.744c0.62,0.697,1.008,1.486,1.163,2.364
	c0.258,1.292,0.155,2.416-0.31,3.372c-0.465,0.957-1.112,1.655-1.938,2.093c-0.827,0.44-1.757,0.569-2.791,0.388
	c-1.034-0.18-2.015-0.736-2.945-1.667c-0.31-0.206-0.53-0.374-0.659-0.504c-0.129-0.128-0.401-0.296-0.814-0.503
	c-0.827-0.206-1.641-0.155-2.441,0.155c-0.802,0.31-1.577,0.736-2.325,1.279c-0.75,0.542-1.447,1.137-2.093,1.783
	c-0.647,0.647-1.229,1.228-1.744,1.744v19.765c0,0.775-0.155,1.525-0.465,2.248c-0.465,1.188-1.201,2.015-2.209,2.48
	c-1.007,0.465-2.015,0.594-3.023,0.388c-1.007-0.207-1.887-0.724-2.635-1.55c-0.75-0.827-1.124-1.886-1.124-3.178V212.22
	C179.177,212.425,179.203,212.361,179.255,212.024z"/>
<path fill="none" stroke="#000000" stroke-width="2" d="M238.396,232.525c0.413,1.5,0.335,2.74-0.232,3.721
	c-0.569,0.981-1.356,1.64-2.364,1.977c-1.008,0.335-2.106,0.297-3.294-0.116c-1.189-0.415-2.223-1.24-3.101-2.48
	c-1.447,1.085-2.856,1.847-4.225,2.287c-1.37,0.438-2.933,0.684-4.689,0.736c-2.636,0.103-4.987-0.194-7.054-0.892
	c-2.067-0.697-3.811-1.744-5.232-3.139c-1.422-1.395-2.468-3.139-3.139-5.232c-0.672-2.093-0.905-4.507-0.698-7.247
	c0.103-1.136,0.297-2.248,0.582-3.333c0.283-1.085,0.607-2.144,0.969-3.178c0.413-1.136,0.995-2.351,1.744-3.643
	c0.749-1.291,1.511-2.403,2.287-3.333c2.79-3.411,6.278-5.864,10.464-7.363c0.723-0.258,1.705-0.491,2.945-0.698
	c1.24-0.206,2.493-0.297,3.759-0.271c1.266,0.027,2.48,0.194,3.643,0.504c1.163,0.31,2.027,0.853,2.597,1.628
	c0.465,0.62,0.8,1.163,1.007,1.627c0.206,0.465,0.322,0.957,0.349,1.473c0.025,0.517,0.025,1.073,0,1.667
	c-0.027,0.595-0.039,1.331-0.039,2.209c0,1.447-0.013,2.856-0.039,4.225c-0.027,1.37-0.013,2.751,0.039,4.146
	c0,0.465,0,1.073,0,1.821c0,0.75,0.025,1.538,0.078,2.364c0.051,0.827,0.116,1.615,0.194,2.364c0.078,0.75,0.194,1.356,0.349,1.822
	L238.396,232.525z"/>
<path fill="none" stroke="#000000" stroke-width="2" d="M221.963,229.038c0.568-0.361,1.213-0.762,1.938-1.201
	c0.723-0.438,1.369-0.942,1.938-1.512c-0.465-2.738-0.736-5.477-0.814-8.216c-0.078-2.738-0.065-5.503,0.039-8.293
	c-2.325,0.414-4.418,1.422-6.278,3.023c-1.86,1.603-3.152,3.488-3.875,5.658c-0.31,0.879-0.569,1.783-0.775,2.713
	c-0.207,0.93-0.285,1.835-0.232,2.713c0.051,1.189,0.361,2.184,0.93,2.984c0.568,0.802,1.252,1.408,2.054,1.821
	c0.801,0.414,1.653,0.647,2.558,0.698C220.348,229.477,221.188,229.348,221.963,229.038z"/>
<path fill="none" stroke="#000000" stroke-width="2" d="M255.448,236.866c-0.672,0.826-1.447,1.395-2.325,1.705
	c-0.879,0.31-1.783,0.31-2.713,0c-0.93-0.31-1.706-1.007-2.326-2.093c-0.259-0.414-0.465-0.853-0.62-1.317
	c-0.155-0.465-0.232-0.93-0.232-1.396V213.38c-0.982,0-1.874-0.271-2.674-0.814c-0.802-0.542-1.396-1.213-1.783-2.015
	c-0.388-0.8-0.531-1.653-0.426-2.558c0.103-0.904,0.516-1.744,1.24-2.519c0.516-0.568,1.072-0.942,1.667-1.124
	c0.594-0.181,1.227-0.297,1.899-0.349c-0.052-1.601-0.091-3.178-0.116-4.729c-0.026-1.55,0.09-3.1,0.349-4.65
	c0.31-2.428,1.033-4.496,2.17-6.201c1.136-1.706,2.545-3.023,4.225-3.953c1.679-0.93,3.552-1.473,5.62-1.628
	c2.066-0.155,4.211,0.155,6.433,0.93c0.93,0.31,1.822,0.698,2.674,1.163c0.853,0.465,1.614,1.06,2.287,1.783
	c0.465,0.517,0.8,1.124,1.007,1.822c0.206,0.697,0.245,1.395,0.116,2.093c-0.129,0.697-0.387,1.344-0.775,1.938
	c-0.388,0.595-0.943,1.046-1.667,1.356c-0.982,0.414-1.951,0.517-2.907,0.31c-0.957-0.206-1.899-0.542-2.829-1.007
	c-0.569-0.206-1.112-0.413-1.627-0.62c-0.518-0.206-1.06-0.361-1.628-0.465c-0.569-0.103-1.085-0.025-1.55,0.232
	c-0.465,0.259-0.866,0.608-1.201,1.046c-0.337,0.44-0.595,0.93-0.775,1.473c-0.182,0.543-0.271,1.073-0.271,1.589
	c-0.052,1.189-0.065,2.391-0.039,3.604c0.025,1.215,0.039,2.416,0.039,3.604c0.775-0.051,1.601-0.103,2.48-0.155
	c0.878-0.051,1.744-0.078,2.597-0.078s1.64,0.027,2.364,0.078c0.723,0.052,1.291,0.155,1.705,0.31
	c0.826,0.31,1.498,0.789,2.015,1.434c0.516,0.646,0.853,1.344,1.008,2.093c0.155,0.75,0.09,1.511-0.194,2.287
	c-0.285,0.775-0.788,1.447-1.511,2.015c-0.672,0.517-1.447,0.879-2.325,1.085c-0.879,0.207-1.81,0.349-2.791,0.426
	c-0.982,0.078-1.938,0.104-2.868,0.078c-0.93-0.025-1.757-0.039-2.48-0.039v20.695C256.533,235.058,256.119,236.039,255.448,236.866
	z"/>
<path fill="none" stroke="#000000" stroke-width="2" d="M285.211,236.866c-0.672,0.826-1.447,1.395-2.325,1.705
	c-0.879,0.31-1.783,0.31-2.713,0c-0.93-0.31-1.706-1.007-2.326-2.093c-0.259-0.414-0.465-0.853-0.62-1.317
	c-0.155-0.465-0.232-0.93-0.232-1.396V213.38c-0.982,0-1.874-0.271-2.674-0.814c-0.802-0.542-1.396-1.213-1.783-2.015
	c-0.388-0.8-0.531-1.653-0.426-2.558c0.103-0.904,0.516-1.744,1.24-2.519c0.516-0.568,1.072-0.942,1.667-1.124
	c0.594-0.181,1.227-0.297,1.899-0.349c-0.052-1.601-0.091-3.178-0.116-4.729c-0.026-1.55,0.09-3.1,0.349-4.65
	c0.31-2.428,1.033-4.496,2.17-6.201c1.136-1.706,2.545-3.023,4.225-3.953c1.679-0.93,3.552-1.473,5.62-1.628
	c2.066-0.155,4.211,0.155,6.433,0.93c0.93,0.31,1.822,0.698,2.674,1.163c0.853,0.465,1.614,1.06,2.288,1.783
	c0.465,0.517,0.799,1.124,1.006,1.822c0.207,0.697,0.246,1.395,0.117,2.093c-0.129,0.697-0.388,1.344-0.775,1.938
	c-0.389,0.595-0.943,1.046-1.667,1.356c-0.982,0.414-1.951,0.517-2.907,0.31c-0.957-0.206-1.899-0.542-2.829-1.007
	c-0.569-0.206-1.112-0.413-1.627-0.62c-0.518-0.206-1.06-0.361-1.628-0.465c-0.569-0.103-1.085-0.025-1.55,0.232
	c-0.465,0.259-0.866,0.608-1.201,1.046c-0.337,0.44-0.595,0.93-0.775,1.473c-0.182,0.543-0.271,1.073-0.271,1.589
	c-0.052,1.189-0.065,2.391-0.039,3.604c0.025,1.215,0.039,2.416,0.039,3.604c0.775-0.051,1.601-0.103,2.48-0.155
	c0.878-0.051,1.744-0.078,2.597-0.078s1.64,0.027,2.364,0.078c0.723,0.052,1.291,0.155,1.705,0.31
	c0.826,0.31,1.498,0.789,2.015,1.434c0.516,0.646,0.853,1.344,1.008,2.093c0.155,0.75,0.09,1.511-0.194,2.287
	c-0.285,0.775-0.788,1.447-1.511,2.015c-0.672,0.517-1.447,0.879-2.325,1.085c-0.879,0.207-1.81,0.349-2.791,0.426
	c-0.982,0.078-1.938,0.104-2.868,0.078c-0.93-0.025-1.757-0.039-2.48-0.039v20.695C286.296,235.058,285.882,236.039,285.211,236.866
	z"/>
<path fill="none" stroke="#000000" stroke-width="2" d="M329.469,225.55c1.24-0.31,2.337-0.322,3.294-0.039
	c0.955,0.285,1.692,0.763,2.209,1.434c0.517,0.672,0.748,1.5,0.697,2.48c-0.052,0.982-0.492,2.015-1.317,3.1
	c-0.672,0.879-1.603,1.628-2.791,2.248s-2.3,1.112-3.332,1.473c-2.532,0.93-4.936,1.576-7.209,1.938
	c-2.273,0.361-4.405,0.361-6.395,0c-1.99-0.362-3.85-1.111-5.581-2.248c-1.731-1.136-3.347-2.738-4.845-4.806
	c-1.034-1.395-1.797-2.984-2.287-4.767c-0.492-1.783-0.764-3.604-0.812-5.464c-0.053-1.86,0.103-3.694,0.465-5.503
	c0.36-1.809,0.877-3.436,1.55-4.883c0.878-1.808,2.272-3.461,4.186-4.961c1.911-1.498,4.031-2.686,6.356-3.565
	c2.325-0.878,4.701-1.382,7.131-1.511c2.428-0.128,4.573,0.246,6.433,1.124c1.55,0.724,2.88,1.771,3.992,3.139
	c1.11,1.37,1.872,2.854,2.287,4.457c0.413,1.603,0.452,3.217,0.116,4.845c-0.337,1.627-1.176,3.114-2.52,4.457
	c-1.292,1.292-2.713,2.339-4.263,3.139c-1.55,0.802-3.153,1.5-4.806,2.093c-1.654,0.595-3.347,1.099-5.077,1.512
	c-1.732,0.414-3.398,0.879-5,1.395c1.085,1.24,2.326,2.029,3.721,2.364c1.396,0.336,2.854,0.401,4.379,0.194
	c1.523-0.206,3.062-0.632,4.612-1.279c1.55-0.646,2.996-1.356,4.341-2.131L329.469,225.55z"/>
<path fill="none" stroke="#000000" stroke-width="2" d="M313.812,212.218c-1.189,0.672-2.067,1.512-2.636,2.519
	c-0.568,1.008-0.981,2.417-1.239,4.225c1.343-0.413,2.854-0.853,4.534-1.318c1.679-0.465,3.268-0.956,4.768-1.473
	c1.498-0.516,2.764-1.085,3.798-1.705c1.033-0.62,1.55-1.291,1.55-2.016c0-0.413-0.065-0.813-0.194-1.201
	c-0.129-0.388-0.4-0.659-0.812-0.814c-1.447-0.516-2.946-0.62-4.496-0.31s-2.843,0.75-3.875,1.318L313.812,212.218z"/>
</svg>
