<?xml version="1.0" encoding="utf-8"?>
<!-- Generator: Adobe Illustrator 16.0.0, SVG Export Plug-In . SVG Version: 6.00 Build 0)  -->
<!DOCTYPE svg PUBLIC "-//W3C//DTD SVG 1.1//EN" "http://www.w3.org/Graphics/SVG/1.1/DTD/svg11.dtd">
<svg version="1.1" id="Layer_1" xmlns="http://www.w3.org/2000/svg" xmlns:xlink="http://www.w3.org/1999/xlink" x="0px" y="0px"
	 width="600px" height="600px" viewBox="0 0 600 600" enable-background="new 0 0 600 600" xml:space="preserve">
<path fill="#FFFFFF" stroke="#000000" stroke-width="2" d="M319.347,148.09c-3.264-6.568-10.771-6.882-16.87-3.937
	c-7.039,3.399-9.746,10.086-8.095,17.442c0.114,0.506,0.599,0.687,1.029,0.604c1.654,2.058,4.366,2.939,6.876,3.648
	c3.216,0.906,7.575,2.05,10.701,0.232C318.575,162.833,322.418,154.271,319.347,148.09z"/>
<path fill="#FFFFFF" stroke="#000000" stroke-width="2" d="M258.934,162.668c-0.725-0.463-1.483-0.857-2.199-1.103
	c-4.64-1.597-10.168-1.461-14.537,0.859c-3.548,1.885-6.279,6.826-6.758,10.705c-0.618,5.003,1.358,8.394,5.266,11.395
	c6.546,5.027,20.732,6.94,24.598-2.613c1.704-4.21,3.07-10.604-0.065-14.511C263.643,165.411,261.402,163.735,258.934,162.668z"/>
<path fill="#FFFFFF" stroke="#000000" stroke-width="2" d="M193.753,359.338c-1.94-1.939-4.088,0.201-5.577,1.803
	c-2.011,0.203-5.165-0.494-5.966-0.764c-3.532-1.189-4.94-4.477-6.474-7.539c-1.27-2.536-4.204-4.865-7.108-4.582
	c-3.245,0.316-3.513,4.359-3.192,6.793c0.463,3.52,3.112,6.416,5.85,8.444c5.596,4.146,16.288,6.524,22.003,1.687
	C194.937,363.787,195.348,360.934,193.753,359.338z"/>
<path fill="#FFFFFF" stroke="#000000" stroke-width="2" d="M245.986,409.415c-0.063-1.551-0.114-3.7-1.002-5.021
	c-1.561-2.323-4.406-2.253-6.974-2.577c-4.365-0.551-9.126-0.744-13.532-0.739c-0.358,0-0.625,0.136-0.822,0.328
	c-0.486,0.006-0.973,0.321-0.938,0.906c0.094,1.562,0.339,3.086,0.694,4.609c0.752,3.221,0.29,6.748-0.155,9.992
	c-0.792,5.757-3.35,10.83-5.631,16.085c-2.066,4.759-4.128,9.261-7.339,13.382c-3.327,4.271-7.522,7.922-11.827,11.164
	c-2.092,1.576-5.621,3.146-6.66,5.612c-0.844,2.005,3.521,5.516,4.645,6.535c2.922,2.652,5.329,5.229,9.08,6.907
	c3.357,1.502,7.935-1.947,10.826-3.271c7.991-3.665,15.203-11.045,20.05-18.216c5.262-7.782,9.003-17.327,10.087-26.667
	c0.494-4.25,0.053-8.433,0.053-12.666C246.542,413.626,246.076,411.565,245.986,409.415z"/>
<path fill="#FFFFFF" stroke="#000000" stroke-width="2" d="M312.667,420.799c-2.312-6.177-6.232-11.577-9.646-17.188
	c-1.539-2.527-3.247-5.069-5.226-7.274c-1.811-2.019-4.386-3.628-6.459-5.392c-1.212-1.029-2.759-0.666-4.087-0.105
	c-2.889,1.221-5.667,1.745-8.355,3.456c-4.167,2.649-9.812,6.4-11.585,11.25c-0.42,1.149,1.199,1.986,1.995,1.162
	c0.069-0.072,0.14-0.142,0.209-0.212c3.765,1.161,7.746,4.813,10.083,7.492c4.561,5.223,8.161,11.557,10.686,18
	c2.355,6.012,4.076,12.23,4.562,18.679c0.389,5.138-0.927,9.843-2.531,14.672c-0.187,0.565,0.118,1.205,0.609,1.498
	c6.958,4.165,24.104,2.962,24.128-7.976c0.017-5.932,0.237-11.807,0.045-17.758C316.865,433.922,315.175,427.496,312.667,420.799z"
	/>
<path fill="#FFFFFF" stroke="#000000" stroke-width="2" d="M258.02,259.834c-0.077-0.051-0.165-0.089-0.266-0.105
	c-3.576-0.574-7.13,0.67-10.83-0.12c-4.875-1.042-10.199-4.661-13.342-8.458c-3.648-4.407-6.234-9.032-7.375-14.66
	c-1.076-5.312-0.938-10.492-0.808-15.847c-0.019,0.002-0.039,0.005-0.058,0.007c-0.023-0.25-0.129-0.457-0.268-0.636
	c0.197-3.513-6.693-1.751-9.125-0.991c-2.824,0.881-5.309,2.49-7.517,4.424c-0.865,0.757-2.027,1.52-2.705,2.474
	c-0.041,0.039-0.085,0.069-0.124,0.108c-1.375,1.375-1.312,3.058-1.819,4.789c-0.66,2.263-0.802,4.781-0.543,7.278
	c0.086,2.165,0.419,4.365,1.049,6.715c1.633,6.097,3.761,11.176,7.752,16.127c7.028,8.718,19.959,17.139,31.572,14.563
	c0.175-0.04,0.312-0.107,0.425-0.19c4.451-0.441,8.358-3.667,11.022-7.323c1.224-1.681,5.642-5.557,3.625-7.796
	C258.481,259.964,258.249,259.871,258.02,259.834z"/>
<path fill="#FFFFFF" stroke="#000000" stroke-width="2" d="M352.885,321.15c-0.269-2.148-0.784-4.313-1.609-6.603
	c-2.141-5.938-4.689-10.821-9.082-15.417c-7.737-8.096-21.331-15.398-32.686-11.855c-0.172,0.054-0.302,0.134-0.409,0.228
	c-4.397,0.813-8.021,4.356-10.366,8.224c-1.079,1.777-5.156,6.012-2.958,8.073c0.224,0.21,0.463,0.285,0.697,0.303
	c0.08,0.045,0.17,0.074,0.273,0.082c3.612,0.272,7.049-1.268,10.801-0.791c4.948,0.629,10.556,3.785,14.008,7.306
	c4.004,4.084,6.974,8.475,8.581,13.987c1.521,5.205,1.819,10.375,2.139,15.724c0.02-0.004,0.037-0.009,0.058-0.013
	c0.043,0.248,0.168,0.443,0.319,0.61c0.1,3.519,6.815,1.183,9.178,0.22c2.738-1.117,5.081-2.928,7.117-5.041
	c0.797-0.828,1.891-1.687,2.486-2.693c0.036-0.042,0.077-0.075,0.114-0.118c1.252-1.485,1.05-3.158,1.408-4.926
	C353.424,326.139,353.354,323.617,352.885,321.15z"/>
<path fill="#FFFFFF" stroke="#000000" stroke-width="2" d="M337.749,365.209c-1.568-4.725-4.83-8.936-7.748-12.898
	c-3.283-4.459-6.387-9.175-10.032-13.347c-8.549-9.788-10.486-21.741-7.166-34.104c2.922-10.881,8.115-21.356,9.588-32.55
	c1.299-9.861-7.327-19.646-14-25.718c-10.056-9.15-20.56-17.746-33.322-22.762c-0.353-0.139-0.712-0.045-0.998,0.164
	c-0.576-0.499-1.688-0.25-1.727,0.748c-0.017,0.458,0.246,0.847,0.17,1.176c-0.326,1.411-1.531,2.764-2.322,3.936
	c-3.335,4.929-7.87,9.323-12.015,13.565c-3.855,3.947-8.462,7.938-12.946,11.15c-4.358,3.122-8.178,7.036-12.077,10.705
	c-8.839,8.313-16.757,17.256-24.227,26.806c-6.925,8.854-13.152,17.764-17.453,28.198c-4.39,10.656-6.506,21.685-6.865,33.185
	c-0.356,11.447,2.351,22.256,6.945,32.688c9.127,20.726,30.064,31.611,51.325,35.828c22.479,4.46,47.149,1.357,67.654-8.918
	c8.854-4.438,18.094-11.478,23.828-19.634c2.936-4.178,5.008-8.743,5.972-13.769C341.267,374.814,339.249,369.723,337.749,365.209z"
	/>
<path fill="#FFFFFF" stroke="#000000" stroke-width="2" d="M293.59,285.878c1.763-5.118,3.231-10.167,6.119-14.792
	c4.363-6.995,12.167-14.056,13.262-22.539c0.477-3.687-1.68-7.544-3.736-10.405c-2.629-3.656-7.25-4.604-10.584-7.287
	c-0.494-0.397-1.183-0.401-1.622-0.062c-2.57,0.184-6.395,5.069-7.991,6.624c-4.366,4.253-7.784,9.334-11.603,14.064
	c-7.124,8.824-12.455,18.427-16.666,28.938c-4.563,11.387-8.547,22.812-10.185,35.024c-1.607,11.982-1.391,24.189-0.017,36.187
	c1.084,9.472,4.53,19.12,11.519,25.872c6.927,6.693,17.922,10.102,27.175,6.833c9.258-3.269,13.213-11.796,11.967-21.101
	c-0.668-4.993-3.146-9.801-5.059-14.412c-2.246-5.426-4.586-11.022-5.46-16.862c-0.735-4.905-1.745-9.427-1.787-14.424
	c-0.045-5.084,0.598-10.085,1.072-15.134C290.529,296.688,291.724,291.292,293.59,285.878z"/>
<path fill="#FFFFFF" stroke="#000000" stroke-width="2" d="M314.186,149.752c-2.283-1.254-5.488,2.057-6.651,3.566
	c-2.392,3.105-3.308,6.425-4.425,10.065c-0.129,0.424,0.314,0.916,0.756,0.755c0.129-0.047,0.236-0.125,0.35-0.194
	c0.438,0.276,1.012,0.327,1.393-0.132c0.883-1.065,2.541-1.881,3.652-2.721c1.354-1.022,3.167-1.84,4.188-3.241
	C314.816,155.979,317.09,151.348,314.186,149.752z"/>
<path fill="#FFFFFF" stroke="#000000" stroke-width="2" d="M262.817,177.687c0.084-0.387-0.019-0.815-0.419-1.051
	c-2.116-1.239-3.997-3.444-6.398-4.122c-2.474-0.697-4.913-1.124-7.48-1.195c-2.547-0.07-8.516,0.691-8.516,4.222
	c0,3.388,4.835,4.807,7.372,5.302c5.037,0.981,10.708,0.228,15.659-0.874C264.269,179.695,264.043,177.641,262.817,177.687z"/>
<path fill="#FFFFFF" stroke="#000000" stroke-width="2" d="M387.77,247.032c-0.973-15.769-12.269-29.041-23.166-39.483
	c-5.845-5.6-12.125-10.749-17.858-16.467c-5.886-5.87-11.979-11.778-18.272-17.204c-11.331-9.769-24.695-19.916-39.879-21.884
	c-7.125-0.923-14.554-0.875-21.189,2.307c-3.406,1.633-5.723,4.883-7.398,8.477c-2.354,3.049-4.07,6.156-4.922,10.157
	c-2.122,9.965-0.584,20.358,2.111,30.071c1.504,5.419,4.127,10.215,6.052,15.462c1.923,5.249,4.156,10.372,7.107,15.129
	c5.532,8.915,12.672,17.534,20.904,24.076c3.927,3.122,7.288,6.934,11.298,10.007c4.922,3.771,10.368,6.818,15.854,9.678
	c9.528,4.968,20.831,7.043,31.478,7.62c10.883,0.588,19.938-3.746,27.992-10.647C385.696,267.635,388.379,256.912,387.77,247.032z"
	/>
<path fill="#FFFFFF" stroke="#000000" stroke-width="2" d="M450.078,225.123c-1.159-9.647-4.016-19.138-9.205-27.409
	c-10.367-16.52-26.436-27.455-45.361-31.595c-18.816-4.115-39.197,0.89-56.174,9.065c-8.498,4.093-16.195,9.331-23.187,15.682
	c-4.243,3.856-9.336,9.383-11.833,15.139c-2.529,4.56-4.238,9.183-5.428,14.29c-2.343,10.059-2.083,21.074,0.46,31.091
	c1.188,4.678,2.597,9.098,4.841,13.367c2.604,4.954,5.737,8.635,9.553,12.711c7.461,7.971,15.696,14.323,25.624,18.869
	c4.781,2.189,9.261,4.284,14.442,5.226c5.67,1.031,11.09,1.516,16.824,1.955c11.568,0.883,22.867-2.162,33.669-5.954
	c19.603-6.878,36.058-25.087,42.343-44.663C449.549,243.863,451.214,234.581,450.078,225.123z"/>
<path fill="#FFFFFF" stroke="#000000" stroke-width="2" d="M429.712,208.215c-1.508-1.719-4.167-2.097-6.094-1.095
	c-1.092-0.11-2.119,0.629-2.909,1.471c-1.389,1.483-1.347,3.991-1.013,5.827c0.271,1.487,2.062,2.802,3.289,3.446
	c1.747,0.916,3.61,0.367,5.218-0.569C431.441,215.411,432.196,211.042,429.712,208.215z"/>
<path fill="#FFFFFF" stroke="#000000" stroke-width="2" d="M397.479,230.07c-1.51-1.719-4.168-2.097-6.096-1.095
	c-1.093-0.11-2.12,0.629-2.909,1.471c-1.389,1.483-1.348,3.99-1.013,5.826c0.271,1.487,2.062,2.803,3.289,3.446
	c1.747,0.916,3.611,0.367,5.218-0.569C399.206,237.266,399.961,232.896,397.479,230.07z"/>
<path fill="#FFFFFF" stroke="#000000" stroke-width="2" d="M388.936,264.352c-3.078-0.135-6.369,1.403-9.506,1.571
	c-4.785,0.257-9.054-0.245-13.431-2.262c-8.358-3.849-11.304-11.495-13.546-19.711c0.212-0.572-0.102-1.304-0.942-1.402
	c-0.091-0.011-0.181-0.021-0.272-0.033c-0.222-0.025-0.42,0.067-0.598,0.197c-0.466,0.019-0.922,0.27-1.115,0.83
	c-2.233,6.485-4.59,13.439-3.809,20.367c0.756,6.688,4.328,10.997,10.017,14.223c5.878,3.334,13.472,2.159,19.579,0.194
	c5.614-1.806,12.785-6.503,14.942-12.242C390.583,265.211,389.756,264.388,388.936,264.352z"/>
<path fill="#FFFFFF" stroke="#000000" stroke-width="2" d="M226.192,236.403c-1.056-5.282-0.922-10.434-0.792-15.76
	c-0.019,0.002-0.039,0.005-0.058,0.007c-0.023-0.25-0.129-0.457-0.268-0.636c0.197-3.513-6.693-1.751-9.125-0.991
	c-2.824,0.881-5.309,2.49-7.517,4.424c-0.865,0.757-2.027,1.52-2.705,2.474c-0.041,0.039-0.085,0.069-0.124,0.108
	c-1.375,1.375-1.312,3.058-1.819,4.789c-0.66,2.263-0.802,4.781-0.543,7.278c0.075,1.871,0.347,3.773,0.821,5.77
	c0.74-0.016,1.526-0.081,2.41-0.247c6.145-1.153,12.771-2.552,18.096-6.042C225.148,237.198,225.678,236.803,226.192,236.403z"/>
<path fill="#FFFFFF" stroke="#000000" stroke-width="2" d="M352.885,321.15c-0.269-2.148-0.784-4.313-1.609-6.603
	c-0.648-1.797-1.344-3.489-2.106-5.114c-1.79,2.268-3.018,4.932-5.287,6.94c-2.605,2.308-5.59,4.396-8.511,6.291
	c-1.571,1.019-3.406,1.629-5.202,2.149c1.487,5.16,1.787,10.291,2.104,15.595c0.02-0.004,0.037-0.009,0.058-0.013
	c0.043,0.248,0.168,0.443,0.319,0.61c0.1,3.519,6.815,1.183,9.178,0.22c2.738-1.117,5.081-2.928,7.117-5.041
	c0.797-0.828,1.891-1.687,2.486-2.693c0.036-0.042,0.077-0.075,0.114-0.118c1.252-1.485,1.05-3.158,1.408-4.926
	C353.424,326.139,353.354,323.617,352.885,321.15z"/>
<path fill="#FFFFFF" stroke="#000000" stroke-width="2" d="M317.103,441.478c-1.343,1.122-2.632,2.299-4.066,3.372
	c-3.085,2.312-8.409,3.434-12.134,4.128c-2.021,0.376-4.096,0.466-6.176,0.475c0.04,0.405,0.089,0.808,0.12,1.214
	c0.389,5.138-0.927,9.843-2.531,14.672c-0.187,0.565,0.118,1.205,0.609,1.498c6.958,4.165,24.104,2.962,24.128-7.976
	C317.067,453.054,317.273,447.3,317.103,441.478z"/>
<path fill="#FFFFFF" stroke="#000000" stroke-width="2" d="M227.602,465.489c-1.097-0.374-2.118-0.717-2.828-1.042
	c-3.997-1.826-7.811-3.877-11.125-6.801c-2.523-2.229-4.59-4.916-6.371-7.814c-2.699,2.83-5.724,5.384-8.817,7.714
	c-2.092,1.576-5.621,3.146-6.66,5.612c-0.844,2.005,3.521,5.516,4.645,6.535c2.922,2.652,5.329,5.229,9.08,6.907
	c3.357,1.503,7.935-1.947,10.826-3.271C220.367,471.487,224.183,468.708,227.602,465.489z"/>
<path d="M282.52,189.432c2.528-1.971,3.134-5.832,0.193-7.722c-1.202-0.771-3.467-1.22-4.78-0.522
	c-0.245,0.13-0.516,0.319-0.786,0.535c-0.801,0.224-1.49,1.05-1.932,1.738c-0.858,1.329-1.009,3.16-0.338,4.592
	C276.314,191.119,280.052,191.355,282.52,189.432z"/>
<path d="M312.216,166.139c-1.202-0.771-3.467-1.22-4.778-0.523c-0.245,0.13-0.517,0.32-0.786,0.535
	c-0.802,0.224-1.49,1.05-1.933,1.738c-0.857,1.33-1.009,3.16-0.337,4.592c1.437,3.065,5.174,3.302,7.643,1.379
	C314.551,171.89,315.157,168.028,312.216,166.139z"/>
<path fill="#FFFFFF" stroke="#000000" stroke-width="2" d="M326.258,227.284c-2.038-2.989-5.091-4.601-8.647-4.917
	c-2.487-0.221-4.613,1.081-6.157,2.906c-2.437,2.021-4.005,5.133-3.798,8.459c0.415,6.699,7.913,12.383,14.378,9.115
	c0.611-0.309,2.367-1.262,3.34-2.169c1.142-1.063,1.771-2.55,2.285-3.98C328.747,233.66,328.036,229.89,326.258,227.284z"/>
<path fill="#FFFFFF" stroke="#000000" stroke-width="2" d="M443.798,228.766c-2.436,2.02-4.006,5.134-3.8,8.459
	c0.286,4.625,3.95,8.762,8.318,9.808c1.741-6.926,2.571-13.986,1.825-21.149c-0.063-0.006-0.124-0.021-0.188-0.025
	C447.467,225.639,445.342,226.939,443.798,228.766z"/>
<path fill="#FFFFFF" stroke="#000000" stroke-width="2" d="M387.702,267.199c-0.06-0.706-0.211-1.405-0.371-2.093
	c-0.052-0.219-0.072-0.444-0.097-0.667c-1.933,0.229-3.916,0.859-5.871,1.227c0.028,0.477,0.002,0.962,0.043,1.438
	c0.054,0.638-0.213,1.27-0.104,1.888c0.195,1.101,1.189,1.567,2.223,1.537c0.945-0.025,1.9-0.378,2.806-0.618
	C387.669,269.556,387.8,268.388,387.702,267.199z"/>
<path fill="#FFFFFF" stroke="#000000" stroke-width="2" d="M352.986,245.834c-0.429,0.208-0.846,0.434-1.239,0.652
	c-1.073,0.595-1.915,1.093-2.297,2.311c-0.437,1.389,0.729,5.492,2.646,5.279c1.107-0.121,2.5-0.355,3.605-0.927
	C354.595,250.86,353.737,248.389,352.986,245.834z"/>
<path fill="none" stroke="#000000" stroke-width="2" d="M215.616,87.751c1.238,0.361,2.166,1.019,2.785,1.972
	c0.619,0.955,0.915,1.947,0.889,2.978c-0.026,1.032-0.348,1.999-0.967,2.9c-0.619,0.903-1.521,1.483-2.707,1.74v13.458
	c0,1.29-0.323,2.437-0.967,3.442c-0.646,1.005-1.431,1.713-2.359,2.127c-0.928,0.412-1.908,0.503-2.939,0.271
	c-1.032-0.232-1.96-0.916-2.785-2.05c-0.361-0.515-0.606-1.108-0.735-1.779c-0.129-0.669-0.193-1.288-0.193-1.856V97.575h-18.022
	v13.149c0,0.568-0.052,1.148-0.155,1.74c-0.104,0.594-0.284,1.122-0.542,1.586c-0.67,1.237-1.521,2.036-2.552,2.397
	c-1.032,0.36-2.038,0.348-3.017-0.039c-0.98-0.387-1.818-1.058-2.514-2.011c-0.696-0.953-1.044-2.127-1.044-3.519V70.889
	c0-1.34,0.399-2.5,1.199-3.48c0.799-0.979,1.714-1.663,2.746-2.05c1.031-0.387,2.075-0.412,3.133-0.077
	c1.056,0.336,1.843,1.148,2.359,2.437c0.155,0.413,0.257,0.787,0.31,1.122c0.051,0.336,0.077,0.709,0.077,1.122v17.48h18.022V70.889
	c0-1.031,0.232-2.011,0.696-2.939c0.567-1.134,1.379-1.934,2.437-2.398c1.056-0.464,2.088-0.592,3.094-0.387
	c1.006,0.207,1.882,0.709,2.63,1.508c0.747,0.8,1.122,1.895,1.122,3.288L215.616,87.751L215.616,87.751z"/>
<path fill="none" stroke="#000000" stroke-width="2" d="M252.742,67.95c0.205-1.907,0.863-3.312,1.972-4.215
	c1.108-0.902,2.282-1.34,3.52-1.315c1.237,0.026,2.384,0.502,3.442,1.431c1.056,0.928,1.611,2.243,1.663,3.945
	c0.103,1.754-0.348,3.107-1.354,4.061c-1.005,0.955-2.153,1.496-3.442,1.624c-1.29,0.129-2.501-0.219-3.635-1.044
	c-1.135-0.824-1.831-2.139-2.088-3.945L252.742,67.95z"/>
<path fill="none" stroke="#000000" stroke-width="2" d="M262.952,111.961c-0.104,1.032-0.464,1.947-1.083,2.746
	c-0.619,0.799-1.328,1.379-2.127,1.74c-0.8,0.36-1.663,0.438-2.591,0.232c-0.928-0.207-1.753-0.773-2.475-1.702
	c-0.414-0.516-0.709-1.095-0.89-1.74c-0.181-0.644-0.297-1.315-0.348-2.011c-0.052-0.696-0.065-1.393-0.039-2.088
	c0.025-0.696,0.039-1.327,0.039-1.895c-0.052-3.042-0.065-6.059-0.039-9.05c0.025-2.99,0.012-6.007-0.039-9.05
	c0-1.238-0.078-2.487-0.232-3.751c-0.155-1.263-0.078-2.514,0.232-3.751c0.257-0.928,0.708-1.727,1.354-2.397
	c0.644-0.67,1.366-1.134,2.166-1.393c0.799-0.257,1.625-0.283,2.476-0.077c0.851,0.207,1.585,0.748,2.204,1.624
	c0.824,1.032,1.238,2.05,1.238,3.056c0,1.005,0,2.231,0,3.674c0,1.753,0,3.507,0,5.26c0,1.753,0.025,3.48,0.077,5.182
	c0.051,2.475,0.078,4.95,0.078,7.425c0,2.476,0,4.951,0,7.426L262.952,111.961L262.952,111.961z"/>
<path fill="none" stroke="#000000" stroke-width="2" d="M269.682,108.945c-0.31-0.876-0.439-1.741-0.387-2.591
	c0.05-0.851,0.271-1.625,0.657-2.32c0.387-0.696,0.94-1.238,1.663-1.625c0.721-0.387,1.598-0.528,2.63-0.425
	c0.567,0.052,1.083,0.207,1.547,0.464c0.464,0.259,0.89,0.568,1.276,0.928c0.387,0.361,0.773,0.748,1.16,1.16
	c0.387,0.414,0.786,0.773,1.199,1.083c0.876,0.671,1.804,1.16,2.785,1.47c0.979,0.309,2.011,0.542,3.094,0.696
	c0.722,0,1.302-0.18,1.74-0.541c0.438-0.36,0.735-0.799,0.89-1.315c0.155-0.515,0.193-1.07,0.116-1.663
	c-0.078-0.592-0.271-1.07-0.58-1.431c-0.877-0.876-1.947-1.443-3.21-1.702c-1.264-0.257-2.437-0.567-3.52-0.928
	c-1.547-0.515-3.068-1.172-4.563-1.972c-1.496-0.799-2.707-1.895-3.635-3.287c-0.98-1.443-1.561-2.978-1.74-4.603
	c-0.182-1.624-0.052-3.21,0.387-4.757c0.438-1.547,1.172-2.964,2.204-4.254c1.031-1.289,2.269-2.346,3.713-3.171
	c1.083-0.619,2.269-1.018,3.558-1.199c1.288-0.18,2.591-0.219,3.906-0.116c1.315,0.104,2.617,0.348,3.906,0.735
	c1.288,0.387,2.475,0.812,3.558,1.276c1.237,0.568,2.166,1.367,2.784,2.397c0.619,1.032,0.915,2.077,0.89,3.133
	c-0.026,1.058-0.387,1.972-1.083,2.746c-0.696,0.773-1.715,1.16-3.055,1.16c-0.825,0-1.573-0.141-2.243-0.425
	c-0.67-0.283-1.367-0.553-2.088-0.812c-0.928-0.36-1.934-0.605-3.017-0.735c-1.083-0.128-1.96-0.064-2.629,0.193
	c-0.207,0.052-0.439,0.22-0.696,0.503c-0.259,0.284-0.452,0.632-0.58,1.044c-0.129,0.414-0.155,0.826-0.078,1.238
	c0.078,0.413,0.348,0.748,0.812,1.005c1.237,0.671,2.552,1.187,3.945,1.547c1.392,0.361,2.758,0.773,4.099,1.238
	c1.34,0.464,2.591,1.058,3.751,1.779c1.16,0.723,2.127,1.754,2.9,3.094c1.134,1.96,1.714,4.01,1.741,6.149
	c0.025,2.141-0.4,4.138-1.276,5.995c-0.877,1.856-2.166,3.442-3.868,4.757c-1.702,1.314-3.687,2.101-5.956,2.359
	c-1.599,0.155-3.171,0.064-4.718-0.271c-1.547-0.336-3.043-0.877-4.486-1.625c-1.444-0.748-2.784-1.636-4.022-2.668
	c-1.238-1.031-2.32-2.114-3.249-3.249L269.682,108.945z"/>
<path fill="none" stroke="#000000" stroke-width="2" d="M346.177,115.055c-0.671,0.824-1.443,1.392-2.319,1.702
	c-0.877,0.31-1.779,0.31-2.708,0c-0.929-0.31-1.702-1.005-2.32-2.088c-0.259-0.414-0.464-0.851-0.619-1.315
	s-0.231-0.928-0.231-1.392V91.619c-0.98,0-1.87-0.271-2.669-0.812c-0.8-0.542-1.393-1.211-1.778-2.011
	c-0.387-0.799-0.529-1.649-0.425-2.552c0.103-0.902,0.515-1.741,1.236-2.514c0.516-0.567,1.07-0.94,1.663-1.122
	c0.592-0.18,1.226-0.296,1.896-0.348c-0.053-1.598-0.091-3.171-0.116-4.718c-0.027-1.547,0.089-3.094,0.348-4.641
	c0.311-2.423,1.031-4.486,2.166-6.188c1.134-1.702,2.539-3.017,4.215-3.944c1.676-0.928,3.545-1.47,5.608-1.625
	c2.062-0.155,4.202,0.155,6.42,0.928c0.928,0.309,1.817,0.696,2.668,1.16s1.611,1.058,2.282,1.779
	c0.464,0.516,0.799,1.122,1.005,1.818c0.206,0.696,0.244,1.392,0.116,2.088c-0.129,0.696-0.388,1.341-0.773,1.934
	c-0.387,0.594-0.94,1.044-1.663,1.354c-0.979,0.414-1.946,0.516-2.899,0.31c-0.955-0.206-1.896-0.542-2.823-1.005
	c-0.568-0.206-1.109-0.412-1.625-0.619c-0.517-0.205-1.058-0.36-1.624-0.464c-0.568-0.103-1.083-0.025-1.547,0.232
	c-0.464,0.259-0.864,0.607-1.199,1.044c-0.336,0.438-0.593,0.928-0.773,1.47c-0.181,0.541-0.271,1.07-0.271,1.585
	c-0.052,1.187-0.065,2.386-0.039,3.597c0.025,1.212,0.039,2.411,0.039,3.597c0.772-0.051,1.598-0.103,2.475-0.155
	c0.876-0.051,1.74-0.077,2.592-0.077c0.851,0,1.637,0.026,2.358,0.077c0.721,0.052,1.288,0.155,1.702,0.31
	c0.824,0.309,1.495,0.787,2.011,1.431c0.516,0.646,0.852,1.342,1.006,2.088c0.155,0.748,0.09,1.508-0.192,2.282
	c-0.284,0.773-0.787,1.444-1.508,2.011c-0.671,0.516-1.444,0.877-2.321,1.083c-0.877,0.207-1.805,0.348-2.784,0.425
	c-0.979,0.077-1.934,0.104-2.862,0.077c-0.928-0.025-1.754-0.039-2.475-0.039v20.652
	C347.26,113.251,346.847,114.229,346.177,115.055z"/>
<path fill="none" stroke="#000000" stroke-width="2" d="M360.562,95.641c0.36-1.495,0.863-2.964,1.509-4.409
	c0.645-1.443,1.431-2.823,2.358-4.138c0.929-1.315,1.973-2.514,3.133-3.597s2.409-1.959,3.75-2.63
	c2.371-1.237,4.758-1.868,7.155-1.895c2.398-0.025,4.627,0.452,6.69,1.431c2.062,0.98,3.814,2.437,5.26,4.37
	c1.443,1.934,2.398,4.242,2.862,6.922c0.258,1.754,0.398,3.417,0.426,4.989c0.024,1.573-0.144,3.21-0.503,4.912
	c-0.516,2.424-1.561,4.834-3.133,7.232c-1.573,2.398-3.455,4.409-5.646,6.033s-4.59,2.694-7.192,3.21
	c-2.604,0.515-5.222,0.103-7.852-1.238c-1.187-0.568-2.256-1.225-3.21-1.972c-0.955-0.747-1.818-1.636-2.591-2.668
	c-0.877-1.134-1.56-2.32-2.049-3.558c-0.491-1.238-0.891-2.526-1.199-3.867c-0.361-1.443-0.491-2.901-0.387-4.371
	c0.103-1.469,0.282-2.9,0.542-4.292L360.562,95.641z"/>
<path fill="none" stroke="#000000" stroke-width="2" d="M369.846,97.265c-0.154,0.825-0.283,1.638-0.387,2.437
	c-0.104,0.8-0.104,1.612,0,2.437c0.155,1.187,0.477,2.27,0.967,3.249c0.489,0.98,1.133,1.753,1.935,2.32
	c0.799,0.568,1.714,0.864,2.746,0.89c1.03,0.026,2.139-0.296,3.325-0.967c1.495-0.876,2.785-2.23,3.867-4.061
	c1.083-1.83,1.752-3.738,2.011-5.724c0.258-1.984,0.052-3.868-0.618-5.646c-0.672-1.779-1.986-3.055-3.945-3.829
	c-1.29,0-2.475,0.245-3.559,0.735c-1.082,0.491-2.023,1.135-2.822,1.934c-0.8,0.8-1.496,1.74-2.088,2.823
	C370.683,94.945,370.206,96.08,369.846,97.265z"/>
<path fill="none" stroke="#000000" stroke-width="2" d="M400.784,90.265c0.051-0.335,0.024-0.94-0.078-1.818
	c-0.825-0.464-1.469-1.056-1.935-1.779c-0.464-0.722-0.734-1.495-0.812-2.32c-0.077-0.824,0.077-1.611,0.464-2.359
	c0.387-0.747,1.019-1.379,1.896-1.896c1.186-0.669,2.486-0.799,3.905-0.387c1.417,0.414,2.643,1.032,3.675,1.856
	c1.288-0.979,2.63-1.805,4.021-2.475c1.392-0.669,2.81-1.122,4.254-1.354c1.443-0.232,2.913-0.193,4.409,0.116
	c1.495,0.31,2.964,0.955,4.409,1.934c0.721,0.464,1.392,1.044,2.011,1.741c0.619,0.696,1.006,1.483,1.161,2.359
	c0.257,1.29,0.154,2.411-0.31,3.365c-0.465,0.955-1.109,1.651-1.935,2.088c-0.826,0.438-1.754,0.568-2.785,0.387
	c-1.032-0.18-2.011-0.735-2.938-1.663c-0.31-0.206-0.529-0.374-0.657-0.502c-0.129-0.128-0.4-0.296-0.812-0.503
	c-0.825-0.206-1.638-0.155-2.437,0.155c-0.8,0.309-1.574,0.735-2.32,1.276c-0.749,0.542-1.443,1.135-2.088,1.779
	c-0.646,0.646-1.226,1.226-1.741,1.74v19.724c0,0.773-0.154,1.522-0.464,2.243c-0.464,1.186-1.199,2.011-2.205,2.475
	c-1.005,0.464-2.011,0.592-3.017,0.387c-1.005-0.207-1.883-0.723-2.63-1.547c-0.748-0.825-1.122-1.882-1.122-3.171V90.458
	C400.706,90.665,400.73,90.601,400.784,90.265z"/>
<path fill="none" stroke="#000000" stroke-width="2" d="M120.209,507.751c1.238,0.361,2.166,1.019,2.785,1.972
	c0.619,0.955,0.915,1.947,0.889,2.979c-0.026,1.032-0.348,1.999-0.967,2.899c-0.619,0.903-1.521,1.483-2.707,1.74v13.458
	c0,1.29-0.323,2.438-0.967,3.442c-0.646,1.005-1.431,1.713-2.359,2.127c-0.928,0.412-1.908,0.503-2.939,0.271
	c-1.032-0.231-1.96-0.916-2.785-2.05c-0.361-0.515-0.606-1.107-0.735-1.778c-0.129-0.67-0.193-1.288-0.193-1.856v-13.381H92.209
	v13.148c0,0.568-0.052,1.148-0.155,1.74c-0.104,0.594-0.284,1.122-0.542,1.586c-0.67,1.237-1.521,2.036-2.552,2.397
	c-1.032,0.359-2.038,0.348-3.017-0.039c-0.98-0.388-1.818-1.059-2.514-2.012c-0.696-0.952-1.044-2.127-1.044-3.519v-39.989
	c0-1.34,0.399-2.5,1.199-3.479c0.799-0.979,1.714-1.663,2.746-2.05c1.031-0.388,2.075-0.412,3.133-0.077
	c1.056,0.336,1.843,1.147,2.359,2.437c0.155,0.413,0.257,0.787,0.31,1.122c0.051,0.336,0.077,0.709,0.077,1.122v17.48h18.022
	v-16.554c0-1.03,0.232-2.011,0.696-2.938c0.567-1.134,1.379-1.935,2.438-2.398c1.056-0.464,2.088-0.592,3.094-0.387
	c1.006,0.207,1.882,0.709,2.63,1.508c0.747,0.8,1.122,1.896,1.122,3.288L120.209,507.751L120.209,507.751z"/>
<path fill="none" stroke="#000000" stroke-width="2" d="M128.331,487.95c0.205-1.907,0.863-3.312,1.972-4.215
	c1.108-0.902,2.282-1.341,3.521-1.315c1.237,0.026,2.384,0.502,3.442,1.431c1.056,0.929,1.611,2.243,1.663,3.945
	c0.104,1.754-0.348,3.107-1.354,4.062c-1.005,0.955-2.153,1.496-3.442,1.624c-1.29,0.129-2.501-0.22-3.635-1.044
	c-1.135-0.824-1.831-2.14-2.088-3.945L128.331,487.95z"/>
<path fill="none" stroke="#000000" stroke-width="2" d="M138.541,531.961c-0.104,1.032-0.464,1.947-1.083,2.746
	s-1.328,1.379-2.127,1.74c-0.8,0.359-1.663,0.438-2.591,0.231c-0.928-0.207-1.753-0.772-2.475-1.702
	c-0.414-0.516-0.709-1.095-0.89-1.739s-0.297-1.315-0.348-2.012c-0.052-0.695-0.065-1.393-0.039-2.088
	c0.025-0.695,0.039-1.327,0.039-1.895c-0.052-3.042-0.065-6.06-0.039-9.05c0.025-2.99,0.012-6.008-0.039-9.051
	c0-1.237-0.078-2.486-0.232-3.751c-0.155-1.263-0.078-2.514,0.232-3.751c0.257-0.928,0.708-1.727,1.354-2.396
	c0.644-0.67,1.366-1.134,2.166-1.394c0.799-0.257,1.625-0.282,2.476-0.077c0.851,0.207,1.585,0.748,2.204,1.624
	c0.824,1.032,1.238,2.051,1.238,3.057c0,1.005,0,2.23,0,3.674c0,1.753,0,3.507,0,5.26s0.025,3.48,0.077,5.183
	c0.051,2.475,0.078,4.949,0.078,7.425s0,4.951,0,7.426L138.541,531.961L138.541,531.961z"/>
<path fill="none" stroke="#000000" stroke-width="2" d="M146.121,502.337c0.36-1.238,0.94-2.178,1.74-2.823
	c0.799-0.644,1.649-1.018,2.552-1.122c0.902-0.103,1.766,0.053,2.591,0.465c0.824,0.412,1.47,1.057,1.934,1.934
	c0.567-0.31,1.134-0.592,1.702-0.851c0.567-0.258,1.211-0.489,1.934-0.696c3.3-0.876,6.227-0.812,8.779,0.192
	c2.552,1.006,4.68,2.553,6.381,4.642c1.701,2.089,2.913,4.538,3.635,7.348c0.721,2.812,0.89,5.621,0.502,8.431
	c-0.387,2.812-1.38,5.441-2.978,7.89c-1.599,2.45-3.894,4.345-6.884,5.685c-1.96,0.876-4.01,1.432-6.149,1.663
	c-2.141,0.232-4.268,0.271-6.381,0.116c0,0.051,0.012,0.464,0.039,1.237c0.025,0.772,0.039,1.752,0.039,2.938s0,2.476,0,3.867
	c0,1.393-0.039,2.733-0.116,4.022c-0.077,1.288-0.181,2.436-0.31,3.441c-0.129,1.005-0.323,1.688-0.58,2.05
	c-0.67,0.979-1.496,1.599-2.475,1.856c-0.98,0.258-1.908,0.219-2.785-0.116c-0.877-0.336-1.637-0.903-2.282-1.702
	c-0.645-0.8-0.967-1.767-0.967-2.9v-47.105L146.121,502.337z"/>
<path fill="none" stroke="#000000" stroke-width="2" d="M156.021,512.392c-0.155,0.26-0.232,0.375-0.232,0.349
	c0-0.025-0.104,0.064-0.31,0.271v12.764c1.031,0.154,2.062,0.231,3.094,0.231c1.031,0,2.114-0.155,3.249-0.464
	c2.32-0.567,4.15-1.688,5.492-3.365c1.34-1.675,1.856-3.751,1.547-6.227c-0.155-1.031-0.452-2.102-0.89-3.21s-1.019-2.05-1.74-2.823
	c-0.723-0.772-1.574-1.315-2.553-1.625c-0.979-0.309-2.088-0.205-3.326,0.31c-0.877,0.361-1.663,0.903-2.359,1.625
	C157.298,510.949,156.64,511.67,156.021,512.392z"/>
<path fill="none" stroke="#000000" stroke-width="2" d="M184.64,502.337c0.36-1.238,0.94-2.178,1.74-2.823
	c0.799-0.644,1.649-1.018,2.552-1.122c0.902-0.103,1.766,0.053,2.591,0.465c0.824,0.412,1.47,1.057,1.934,1.934
	c0.567-0.31,1.134-0.592,1.702-0.851c0.567-0.258,1.211-0.489,1.934-0.696c3.3-0.876,6.227-0.812,8.779,0.192
	c2.552,1.006,4.68,2.553,6.381,4.642s2.913,4.538,3.635,7.348c0.721,2.812,0.89,5.621,0.502,8.431
	c-0.387,2.812-1.38,5.441-2.978,7.89c-1.599,2.45-3.894,4.345-6.884,5.685c-1.96,0.876-4.01,1.432-6.149,1.663
	c-2.141,0.232-4.268,0.271-6.381,0.116c0,0.051,0.012,0.464,0.039,1.237c0.025,0.772,0.039,1.752,0.039,2.938s0,2.476,0,3.867
	c0,1.393-0.039,2.733-0.116,4.022c-0.077,1.288-0.181,2.436-0.31,3.441c-0.129,1.005-0.323,1.688-0.58,2.05
	c-0.67,0.979-1.496,1.599-2.475,1.856c-0.98,0.258-1.908,0.219-2.785-0.116c-0.877-0.336-1.637-0.903-2.282-1.702
	c-0.645-0.8-0.967-1.767-0.967-2.9v-47.105L184.64,502.337z"/>
<path fill="none" stroke="#000000" stroke-width="2" d="M194.54,512.392c-0.155,0.26-0.232,0.375-0.232,0.349
	c0-0.025-0.104,0.064-0.31,0.271v12.764c1.031,0.154,2.062,0.231,3.094,0.231c1.031,0,2.114-0.155,3.249-0.464
	c2.32-0.567,4.15-1.688,5.492-3.365c1.34-1.675,1.856-3.751,1.547-6.227c-0.155-1.031-0.452-2.102-0.89-3.21
	c-0.438-1.108-1.019-2.05-1.74-2.823c-0.723-0.772-1.574-1.315-2.553-1.625c-0.98-0.309-2.088-0.205-3.326,0.31
	c-0.877,0.361-1.663,0.903-2.359,1.625C195.816,510.949,195.159,511.67,194.54,512.392z"/>
<path fill="none" stroke="#000000" stroke-width="2" d="M222.074,515.641c0.36-1.494,0.863-2.964,1.508-4.408
	c0.645-1.443,1.431-2.823,2.359-4.139c0.928-1.314,1.972-2.514,3.132-3.597c1.161-1.083,2.41-1.959,3.751-2.63
	c2.371-1.237,4.757-1.868,7.155-1.896c2.398-0.024,4.627,0.452,6.69,1.432c2.062,0.979,3.815,2.437,5.26,4.37
	c1.443,1.934,2.398,4.241,2.862,6.922c0.258,1.754,0.399,3.417,0.426,4.988c0.025,1.573-0.143,3.211-0.503,4.912
	c-0.516,2.424-1.56,4.834-3.133,7.232c-1.573,2.397-3.455,4.409-5.646,6.033c-2.192,1.624-4.59,2.693-7.193,3.21
	c-2.604,0.515-5.221,0.103-7.851-1.238c-1.187-0.568-2.256-1.225-3.21-1.972c-0.955-0.747-1.818-1.637-2.591-2.668
	c-0.877-1.135-1.56-2.32-2.049-3.559c-0.491-1.237-0.89-2.525-1.199-3.867c-0.361-1.442-0.491-2.9-0.387-4.37
	c0.103-1.47,0.283-2.9,0.542-4.292L222.074,515.641z"/>
<path fill="none" stroke="#000000" stroke-width="2" d="M231.356,517.265c-0.155,0.825-0.284,1.639-0.387,2.438
	c-0.104,0.8-0.104,1.612,0,2.437c0.155,1.188,0.477,2.271,0.967,3.249c0.489,0.98,1.133,1.753,1.934,2.32
	c0.799,0.568,1.714,0.864,2.746,0.89c1.031,0.026,2.139-0.296,3.326-0.967c1.495-0.876,2.785-2.229,3.867-4.061
	c1.083-1.83,1.752-3.738,2.011-5.725c0.257-1.983,0.051-3.867-0.619-5.646c-0.671-1.779-1.986-3.055-3.945-3.829
	c-1.29,0-2.475,0.245-3.558,0.735s-2.024,1.135-2.823,1.934c-0.8,0.8-1.496,1.74-2.088,2.823
	C232.193,514.945,231.716,516.08,231.356,517.265z"/>
<path fill="none" stroke="#000000" stroke-width="2" d="M261.83,502.337c0.36-1.238,0.94-2.178,1.74-2.823
	c0.799-0.644,1.649-1.018,2.552-1.122c0.902-0.103,1.766,0.053,2.591,0.465c0.824,0.412,1.47,1.057,1.934,1.934
	c0.567-0.31,1.134-0.592,1.702-0.851c0.567-0.258,1.211-0.489,1.934-0.696c3.3-0.876,6.227-0.812,8.779,0.192
	c2.552,1.006,4.68,2.553,6.381,4.642c1.701,2.089,2.913,4.538,3.635,7.348c0.721,2.812,0.89,5.621,0.502,8.431
	c-0.387,2.812-1.38,5.441-2.978,7.89c-1.599,2.45-3.894,4.345-6.884,5.685c-1.96,0.876-4.01,1.432-6.149,1.663
	c-2.141,0.232-4.268,0.271-6.381,0.116c0,0.051,0.012,0.464,0.039,1.237c0.025,0.772,0.039,1.752,0.039,2.938s0,2.476,0,3.867
	c0,1.393-0.039,2.733-0.116,4.022c-0.077,1.288-0.181,2.436-0.31,3.441c-0.129,1.005-0.323,1.688-0.58,2.05
	c-0.67,0.979-1.496,1.599-2.475,1.856c-0.98,0.258-1.908,0.219-2.785-0.116c-0.877-0.336-1.637-0.903-2.282-1.702
	c-0.645-0.8-0.967-1.767-0.967-2.9v-47.105L261.83,502.337z"/>
<path fill="none" stroke="#000000" stroke-width="2" d="M271.73,512.392c-0.155,0.26-0.232,0.375-0.232,0.349
	c0-0.025-0.104,0.064-0.31,0.271v12.764c1.031,0.154,2.062,0.231,3.094,0.231c1.031,0,2.114-0.155,3.249-0.464
	c2.32-0.567,4.15-1.688,5.492-3.365c1.34-1.675,1.856-3.751,1.547-6.227c-0.155-1.031-0.452-2.102-0.89-3.21s-1.019-2.05-1.74-2.823
	c-0.723-0.772-1.574-1.315-2.553-1.625c-0.98-0.309-2.088-0.205-3.326,0.31c-0.877,0.361-1.663,0.903-2.359,1.625
	C273.007,510.949,272.349,511.67,271.73,512.392z"/>
<path fill="none" stroke="#000000" stroke-width="2" d="M299.265,515.641c0.36-1.494,0.863-2.964,1.508-4.408
	c0.645-1.443,1.431-2.823,2.358-4.139c0.929-1.314,1.972-2.514,3.132-3.597c1.161-1.083,2.41-1.959,3.751-2.63
	c2.371-1.237,4.758-1.868,7.155-1.896c2.398-0.024,4.627,0.452,6.69,1.432c2.062,0.979,3.814,2.437,5.26,4.37
	c1.442,1.934,2.397,4.241,2.862,6.922c0.258,1.754,0.398,3.417,0.426,4.988c0.024,1.573-0.144,3.211-0.503,4.912
	c-0.517,2.424-1.561,4.834-3.133,7.232c-1.573,2.397-3.455,4.409-5.646,6.033c-2.192,1.624-4.59,2.693-7.193,3.21
	c-2.604,0.515-5.221,0.103-7.851-1.238c-1.188-0.568-2.256-1.225-3.21-1.972c-0.955-0.747-1.817-1.637-2.591-2.668
	c-0.877-1.135-1.561-2.32-2.049-3.559c-0.491-1.237-0.89-2.525-1.199-3.867c-0.361-1.442-0.491-2.9-0.387-4.37
	c0.103-1.47,0.283-2.9,0.542-4.292L299.265,515.641z"/>
<path fill="none" stroke="#000000" stroke-width="2" d="M308.547,517.265c-0.155,0.825-0.284,1.639-0.387,2.438
	c-0.104,0.8-0.104,1.612,0,2.437c0.155,1.188,0.477,2.271,0.967,3.249c0.489,0.98,1.133,1.753,1.934,2.32
	c0.8,0.568,1.715,0.864,2.746,0.89c1.031,0.026,2.14-0.296,3.326-0.967c1.495-0.876,2.785-2.229,3.867-4.061
	c1.083-1.83,1.752-3.738,2.011-5.725c0.257-1.983,0.052-3.867-0.619-5.646c-0.671-1.779-1.985-3.055-3.944-3.829
	c-1.29,0-2.476,0.245-3.559,0.735s-2.023,1.135-2.822,1.934c-0.801,0.8-1.496,1.74-2.089,2.823
	C309.384,514.945,308.907,516.08,308.547,517.265z"/>
<path fill="none" stroke="#000000" stroke-width="2" d="M339.486,508.37c-1.032-0.257-1.921-0.696-2.668-1.315
	c-0.748-0.619-1.265-1.34-1.547-2.166c-0.284-0.823-0.284-1.675,0-2.552c0.282-0.876,0.914-1.675,1.895-2.397
	c0.824-0.619,1.752-0.929,2.785-0.929c1.031,0,2.036,0,3.016,0c0-0.359-0.025-1.146-0.077-2.358
	c-0.052-1.211-0.064-2.539-0.039-3.983c0.025-1.443,0.116-2.823,0.271-4.138c0.155-1.315,0.438-2.23,0.851-2.746
	c1.031-1.443,2.308-2.127,3.829-2.049c1.521,0.076,2.771,0.812,3.751,2.204c0.206,0.259,0.399,0.567,0.58,0.928
	c0.18,0.36,0.271,0.696,0.271,1.006c0.051,1.856,0.063,3.712,0.039,5.569c-0.027,1.855-0.039,3.713-0.039,5.568h6.11
	c0.929,0,1.728,0.311,2.397,0.929s1.146,1.342,1.431,2.166c0.283,0.824,0.36,1.676,0.232,2.552
	c-0.129,0.877-0.529,1.599-1.199,2.166c-1.187,0.979-2.566,1.496-4.138,1.547c-1.574,0.052-3.186,0.077-4.834,0.077
	c0,2.836-0.014,5.673-0.039,8.508c-0.026,2.836-0.014,5.673,0.039,8.508c0,1.238,0.063,2.502,0.192,3.79
	c0.128,1.29,0.039,2.527-0.271,3.713c-0.259,0.928-0.696,1.663-1.315,2.205c-0.619,0.541-1.314,0.876-2.088,1.005
	c-0.772,0.128-1.574,0.077-2.397-0.155c-0.825-0.231-1.6-0.656-2.32-1.275c-0.361-0.361-0.632-0.979-0.812-1.856
	c-0.182-0.876-0.297-1.804-0.348-2.784c-0.052-1.134-0.052-2.346,0-3.635c0-1.031,0-2.372,0-4.021s-0.013-3.365-0.039-5.145
	c-0.027-1.778-0.039-3.467-0.039-5.065s0-2.862,0-3.79L339.486,508.37z"/>
<path fill="none" stroke="#000000" stroke-width="2" d="M395.332,530.724c0.412,1.496,0.335,2.734-0.232,3.714
	c-0.567,0.979-1.354,1.636-2.358,1.972c-1.006,0.335-2.103,0.296-3.288-0.116c-1.188-0.413-2.218-1.237-3.094-2.475
	c-1.444,1.083-2.851,1.843-4.215,2.281c-1.367,0.438-2.928,0.684-4.681,0.735c-2.63,0.103-4.977-0.193-7.039-0.889
	c-2.062-0.696-3.804-1.741-5.221-3.134c-1.419-1.392-2.463-3.133-3.133-5.221s-0.902-4.498-0.696-7.231
	c0.104-1.134,0.296-2.243,0.58-3.326c0.283-1.083,0.604-2.14,0.967-3.171c0.412-1.135,0.992-2.347,1.74-3.636
	c0.747-1.288,1.508-2.397,2.282-3.325c2.784-3.403,6.265-5.853,10.441-7.349c0.723-0.257,1.702-0.488,2.939-0.695
	c1.237-0.206,2.487-0.297,3.751-0.271c1.263,0.027,2.475,0.193,3.635,0.503s2.023,0.852,2.591,1.624
	c0.464,0.619,0.799,1.161,1.005,1.625s0.321,0.955,0.349,1.47c0.024,0.517,0.024,1.071,0,1.663
	c-0.027,0.593-0.039,1.328-0.039,2.204c0,1.444-0.015,2.851-0.039,4.215c-0.026,1.367-0.013,2.746,0.039,4.139
	c0,0.464,0,1.07,0,1.817c0,0.748,0.024,1.535,0.077,2.359c0.051,0.826,0.115,1.612,0.192,2.358c0.077,0.748,0.193,1.354,0.349,1.817
	L395.332,530.724z"/>
<path fill="none" stroke="#000000" stroke-width="2" d="M378.934,527.243c0.566-0.36,1.211-0.76,1.935-1.199
	c0.721-0.438,1.366-0.94,1.934-1.508c-0.464-2.732-0.734-5.465-0.812-8.199c-0.078-2.731-0.065-5.492,0.039-8.276
	c-2.32,0.414-4.409,1.42-6.266,3.018c-1.855,1.599-3.146,3.48-3.868,5.646c-0.309,0.878-0.567,1.779-0.772,2.707
	c-0.207,0.929-0.284,1.831-0.232,2.708c0.051,1.188,0.36,2.18,0.929,2.979c0.566,0.8,1.25,1.406,2.05,1.818
	c0.799,0.412,1.648,0.646,2.552,0.695C377.322,527.682,378.16,527.552,378.934,527.243z"/>
<path fill="none" stroke="#000000" stroke-width="2" d="M419.541,512.005v-1.083c-0.464-1.186-1.212-2.022-2.243-2.514
	c-1.032-0.489-2.141-0.786-3.326-0.891c-0.67,0.207-1.212,0.439-1.624,0.696c-0.414,0.259-0.772,0.542-1.083,0.852
	c-0.31,0.309-0.593,0.656-0.851,1.044c-0.259,0.387-0.568,0.787-0.928,1.198v20.267c0,1.599-0.479,2.848-1.432,3.751
	c-0.955,0.901-2.011,1.418-3.171,1.547c-1.16,0.128-2.23-0.155-3.21-0.851c-0.979-0.696-1.496-1.87-1.547-3.521
	c-0.104-3.97-0.143-8.481-0.116-13.536c0.025-5.053,0.039-10.7,0.039-16.938c0-1.083,0.321-1.984,0.967-2.707
	c0.645-0.723,1.417-1.211,2.32-1.471c0.902-0.257,1.83-0.243,2.785,0.039c0.954,0.284,1.74,0.864,2.359,1.741
	c2.887-1.443,5.763-1.895,8.625-1.354c2.861,0.541,5.452,1.895,7.772,4.061c1.031-1.031,2.139-1.959,3.326-2.785
	c1.186-0.824,2.475-1.366,3.867-1.624c1.598-0.258,3.21-0.192,4.834,0.193c1.624,0.387,3.132,1.019,4.523,1.895
	c1.394,0.877,2.617,1.96,3.674,3.249c1.057,1.29,1.844,2.683,2.359,4.178c0.258,1.031,0.387,1.96,0.387,2.784v21.039
	c0,0.619-0.076,1.212-0.231,1.779c-0.464,1.34-1.199,2.282-2.204,2.823c-1.006,0.542-2.038,0.734-3.094,0.58
	c-1.059-0.155-1.973-0.646-2.746-1.471c-0.773-0.824-1.16-1.934-1.16-3.325v-20.808c-0.464-1.237-1.135-2.139-2.011-2.707
	c-0.877-0.566-1.779-0.824-2.707-0.772c-0.929,0.052-1.818,0.387-2.669,1.005c-0.852,0.619-1.535,1.47-2.049,2.552v20.265
	c0,1.394-0.452,2.554-1.354,3.481s-1.896,1.521-2.978,1.779c-1.084,0.257-2.103,0.154-3.056-0.31
	c-0.955-0.464-1.508-1.393-1.663-2.785L419.541,512.005z"/>
<path fill="none" stroke="#000000" stroke-width="2" d="M487.297,528.094c0.464,0.671,0.734,1.458,0.812,2.359
	c0.076,0.903-0.027,1.753-0.311,2.552c-0.284,0.8-0.748,1.457-1.392,1.972c-0.646,0.516-1.483,0.747-2.515,0.696
	c-1.342-0.104-2.425-0.567-3.248-1.392c-0.825-0.824-1.6-1.752-2.32-2.785c-2.012,1.65-4.087,2.797-6.228,3.441
	c-2.14,0.646-4.241,0.786-6.304,0.427c-2.062-0.362-3.997-1.227-5.801-2.591c-1.807-1.366-3.326-3.211-4.563-5.53
	c-1.135-2.166-1.767-4.564-1.895-7.193c-0.129-2.63-0.168-5.13-0.116-7.503c0-0.824,0.025-1.636,0.077-2.437
	c0.051-0.8,0.103-1.637,0.155-2.515c0.051-0.669,0.076-1.327,0.076-1.973c0-0.645,0.039-1.25,0.116-1.817
	c0.077-0.566,0.232-1.134,0.464-1.702c0.232-0.566,0.58-1.107,1.045-1.625c0.618-0.669,1.365-1.068,2.242-1.198
	c0.876-0.128,1.713-0.039,2.515,0.271c0.799,0.311,1.495,0.787,2.088,1.432c0.592,0.646,0.915,1.431,0.967,2.358
	c0.103,2.63,0.039,5.287-0.193,7.967c-0.231,2.683-0.22,5.312,0.039,7.891c0.104,1.237,0.425,2.502,0.968,3.79
	c0.541,1.29,1.403,2.218,2.591,2.785c1.186,0.516,2.384,0.478,3.597-0.116c1.211-0.593,2.205-1.302,2.979-2.127
	c0.359-0.412,0.707-0.863,1.044-1.354c0.335-0.49,0.708-0.915,1.122-1.275c-0.207-1.805-0.337-3.609-0.388-5.415
	c-0.052-1.805-0.052-3.608,0-5.414c0-0.979,0.039-2.051,0.116-3.21c0.077-1.16,0.283-2.27,0.619-3.326
	c0.335-1.057,0.837-1.984,1.508-2.784c0.669-0.799,1.625-1.302,2.862-1.508c0.566-0.104,1.122-0.051,1.663,0.153
	c0.542,0.207,1.018,0.491,1.431,0.852c0.721,0.619,1.211,1.314,1.469,2.088s0.388,1.599,0.388,2.475
	c0,0.877-0.065,1.768-0.193,2.668c-0.129,0.903-0.22,1.74-0.271,2.515c-0.104,1.443-0.181,2.966-0.231,4.563
	c-0.052,1.6,0,3.198,0.153,4.795c0.155,1.6,0.451,3.146,0.891,4.642C485.762,525.491,486.42,526.856,487.297,528.094z"/>
<path fill="none" stroke="#000000" stroke-width="2" d="M492.632,528.945c-0.31-0.876-0.438-1.741-0.387-2.592
	c0.05-0.851,0.271-1.625,0.657-2.319c0.387-0.696,0.939-1.238,1.663-1.625c0.721-0.388,1.598-0.528,2.63-0.425
	c0.566,0.052,1.083,0.207,1.547,0.464c0.464,0.259,0.89,0.567,1.275,0.928c0.388,0.361,0.773,0.748,1.16,1.16
	c0.388,0.414,0.786,0.772,1.199,1.083c0.876,0.671,1.804,1.16,2.785,1.47c0.979,0.31,2.011,0.542,3.094,0.696
	c0.723,0,1.302-0.181,1.74-0.541c0.438-0.36,0.734-0.799,0.89-1.315c0.155-0.515,0.193-1.069,0.116-1.663
	c-0.078-0.592-0.271-1.069-0.58-1.431c-0.877-0.876-1.947-1.443-3.21-1.702c-1.264-0.257-2.437-0.567-3.52-0.928
	c-1.548-0.516-3.068-1.172-4.563-1.973c-1.496-0.799-2.707-1.895-3.635-3.286c-0.98-1.443-1.562-2.979-1.74-4.604
	c-0.182-1.624-0.052-3.21,0.387-4.757s1.173-2.964,2.204-4.254c1.031-1.289,2.27-2.346,3.714-3.171
	c1.082-0.619,2.269-1.019,3.558-1.199c1.288-0.18,2.591-0.219,3.906-0.116c1.314,0.104,2.616,0.349,3.905,0.735
	c1.288,0.387,2.476,0.812,3.559,1.275c1.236,0.568,2.166,1.367,2.784,2.397c0.618,1.032,0.915,2.077,0.89,3.133
	c-0.026,1.059-0.387,1.972-1.083,2.746c-0.696,0.773-1.715,1.16-3.055,1.16c-0.825,0-1.573-0.141-2.243-0.425
	c-0.67-0.283-1.367-0.554-2.088-0.812c-0.929-0.359-1.935-0.604-3.018-0.734c-1.083-0.128-1.96-0.064-2.629,0.192
	c-0.207,0.052-0.438,0.221-0.695,0.503c-0.26,0.284-0.452,0.632-0.58,1.044c-0.129,0.414-0.155,0.826-0.078,1.238
	c0.078,0.413,0.348,0.748,0.812,1.005c1.237,0.671,2.552,1.188,3.945,1.547c1.392,0.361,2.758,0.773,4.099,1.238
	c1.34,0.464,2.591,1.058,3.751,1.779c1.16,0.723,2.127,1.754,2.9,3.094c1.134,1.96,1.714,4.01,1.741,6.149
	c0.024,2.141-0.4,4.138-1.276,5.994c-0.877,1.856-2.166,3.442-3.868,4.758c-1.702,1.314-3.687,2.101-5.956,2.358
	c-1.599,0.155-3.171,0.064-4.718-0.271c-1.547-0.336-3.043-0.877-4.486-1.625s-2.783-1.637-4.021-2.668s-2.32-2.114-3.249-3.249
	L492.632,528.945z"/>
</svg>
