<?xml version="1.0" encoding="utf-8"?>
<!-- Generator: Adobe Illustrator 16.0.0, SVG Export Plug-In . SVG Version: 6.00 Build 0)  -->
<!DOCTYPE svg PUBLIC "-//W3C//DTD SVG 1.1//EN" "http://www.w3.org/Graphics/SVG/1.1/DTD/svg11.dtd">
<svg version="1.1" xmlns="http://www.w3.org/2000/svg" xmlns:xlink="http://www.w3.org/1999/xlink" x="0px" y="0px" width="100%"
     height="100%" viewBox="0 0 1000 1000" style="enable-background:new 0 0 1000 1000;" xml:space="preserve">
  <g id="Layer_3">
    <rect style="fill:#FFFFFF;" width="1000" height="1000"/>
  </g>
  
<g id="Layer_2">
		<path style="fill:#FFFFFF;stroke:#231F20;stroke-width:2;stroke-miterlimit:10;" d="M246.358,802.895
			c1.768,0.516,3.094,1.455,3.978,2.817c0.884,1.364,1.307,2.781,1.271,4.254c-0.038,1.475-0.497,2.856-1.381,4.144
			c-0.884,1.29-2.173,2.119-3.867,2.486v19.227c0,1.842-0.461,3.48-1.381,4.917c-0.922,1.437-2.044,2.448-3.37,3.039
			c-1.326,0.589-2.726,0.718-4.199,0.387c-1.475-0.331-2.8-1.31-3.978-2.929c-0.516-0.735-0.867-1.583-1.05-2.541
			c-0.185-0.957-0.276-1.84-0.276-2.652v-19.115h-25.746v18.784c0,0.812-0.074,1.64-0.221,2.486
			c-0.148,0.848-0.406,1.603-0.773,2.265c-0.958,1.768-2.173,2.91-3.646,3.426c-1.474,0.515-2.911,0.497-4.309-0.055
			c-1.4-0.553-2.597-1.512-3.591-2.873c-0.995-1.363-1.492-3.039-1.492-5.028v-57.127c0-1.915,0.57-3.572,1.713-4.972
			c1.141-1.398,2.448-2.377,3.922-2.929c1.473-0.553,2.964-0.589,4.475-0.11c1.509,0.48,2.633,1.641,3.37,3.48
			c0.221,0.59,0.368,1.124,0.442,1.602c0.072,0.48,0.11,1.014,0.11,1.604v24.972h25.746v-23.646c0-1.473,0.332-2.873,0.995-4.198
			c0.81-1.62,1.97-2.764,3.481-3.426c1.509-0.663,2.983-0.846,4.419-0.553c1.437,0.295,2.688,1.014,3.757,2.154
			c1.067,1.144,1.602,2.707,1.602,4.697V802.895z"/>
		<path style="fill:#FFFFFF;stroke:#231F20;stroke-width:2;stroke-miterlimit:10;" d="M255.75,814.165
			c0.515-2.136,1.233-4.235,2.155-6.298c0.92-2.062,2.044-4.033,3.37-5.912c1.326-1.879,2.818-3.592,4.475-5.139
			c1.658-1.547,3.443-2.799,5.359-3.756c3.387-1.769,6.795-2.67,10.221-2.708c3.426-0.036,6.611,0.646,9.558,2.044
			c2.945,1.4,5.451,3.48,7.514,6.244c2.061,2.762,3.425,6.06,4.088,9.889c0.368,2.506,0.569,4.881,0.607,7.127
			c0.036,2.248-0.204,4.586-0.718,7.018c-0.737,3.463-2.229,6.905-4.475,10.331c-2.248,3.425-4.936,6.298-8.066,8.618
			c-3.132,2.32-6.557,3.849-10.276,4.586c-3.721,0.736-7.458,0.146-11.216-1.768c-1.695-0.812-3.223-1.751-4.585-2.818
			c-1.364-1.066-2.597-2.338-3.702-3.812c-1.253-1.62-2.229-3.315-2.928-5.083c-0.701-1.768-1.271-3.608-1.713-5.525
			c-0.516-2.061-0.701-4.143-0.552-6.242c0.147-2.1,0.404-4.145,0.773-6.133L255.75,814.165z M269.009,816.485
			c-0.221,1.179-0.406,2.339-0.552,3.48c-0.148,1.144-0.148,2.304,0,3.481c0.221,1.695,0.68,3.242,1.381,4.641
			c0.699,1.4,1.62,2.505,2.763,3.314c1.141,0.812,2.448,1.234,3.922,1.271c1.473,0.037,3.056-0.424,4.751-1.382
			c2.136-1.252,3.978-3.186,5.525-5.802c1.547-2.613,2.503-5.34,2.873-8.176c0.368-2.836,0.072-5.525-0.884-8.066
			c-0.958-2.541-2.837-4.365-5.636-5.47c-1.842,0-3.536,0.351-5.083,1.05c-1.547,0.701-2.892,1.621-4.033,2.762
			c-1.143,1.144-2.138,2.486-2.983,4.033C270.206,813.17,269.524,814.791,269.009,816.485z"/>
		<path style="fill:#FFFFFF;stroke:#231F20;stroke-width:2;stroke-miterlimit:10;" d="M338.511,808.972v-1.548
			c-0.663-1.693-1.732-2.89-3.205-3.59c-1.474-0.699-3.058-1.123-4.751-1.271c-0.958,0.295-1.731,0.627-2.32,0.994
			c-0.59,0.37-1.105,0.773-1.547,1.216s-0.848,0.939-1.215,1.491c-0.37,0.553-0.812,1.125-1.326,1.713v28.951
			c0,2.283-0.682,4.068-2.044,5.359c-1.364,1.287-2.873,2.024-4.531,2.209c-1.657,0.184-3.187-0.221-4.585-1.215
			c-1.4-0.994-2.137-2.672-2.21-5.027c-0.148-5.672-0.204-12.117-0.166-19.338c0.036-7.219,0.055-15.285,0.055-24.199
			c0-1.547,0.459-2.834,1.381-3.867c0.92-1.03,2.025-1.729,3.315-2.1c1.288-0.367,2.614-0.348,3.978,0.056
			c1.362,0.405,2.486,1.234,3.37,2.486c4.125-2.062,8.232-2.707,12.321-1.934c4.088,0.773,7.79,2.707,11.105,5.801
			c1.473-1.473,3.056-2.798,4.751-3.978c1.694-1.178,3.536-1.951,5.525-2.32c2.283-0.368,4.586-0.276,6.906,0.275
			c2.32,0.553,4.475,1.456,6.464,2.707c1.989,1.254,3.738,2.801,5.249,4.642c1.509,1.843,2.633,3.831,3.37,5.967
			c0.368,1.475,0.552,2.8,0.552,3.978v30.056c0,0.884-0.11,1.731-0.332,2.542c-0.663,1.914-1.712,3.26-3.149,4.033
			s-2.911,1.049-4.42,0.828c-1.511-0.221-2.818-0.922-3.923-2.1c-1.105-1.18-1.657-2.762-1.657-4.752v-29.723
			c-0.663-1.769-1.622-3.057-2.873-3.867c-1.253-0.811-2.542-1.178-3.867-1.105c-1.326,0.074-2.597,0.553-3.812,1.437
			c-1.215,0.884-2.192,2.099-2.928,3.646v28.951c0,1.988-0.646,3.646-1.934,4.973c-1.29,1.326-2.707,2.172-4.254,2.541
			c-1.547,0.367-3.002,0.221-4.365-0.441c-1.364-0.664-2.155-1.99-2.376-3.979L338.511,808.972z"/>
		<path style="fill:#FFFFFF;stroke:#231F20;stroke-width:2;stroke-miterlimit:10;" d="M385.692,814.165
			c0.515-2.136,1.233-4.235,2.155-6.298c0.92-2.062,2.044-4.033,3.37-5.912c1.326-1.879,2.818-3.592,4.475-5.139
			c1.658-1.547,3.443-2.799,5.359-3.756c3.387-1.769,6.795-2.67,10.221-2.708c3.426-0.036,6.611,0.646,9.558,2.044
			c2.945,1.4,5.451,3.48,7.514,6.244c2.061,2.762,3.425,6.06,4.088,9.889c0.368,2.506,0.569,4.881,0.607,7.127
			c0.036,2.248-0.204,4.586-0.718,7.018c-0.737,3.463-2.229,6.905-4.475,10.331c-2.248,3.425-4.936,6.298-8.066,8.618
			c-3.132,2.32-6.557,3.849-10.276,4.586c-3.721,0.736-7.458,0.146-11.216-1.768c-1.695-0.812-3.223-1.751-4.585-2.818
			c-1.364-1.066-2.597-2.338-3.702-3.812c-1.253-1.62-2.229-3.315-2.928-5.083c-0.701-1.768-1.271-3.608-1.713-5.525
			c-0.516-2.061-0.701-4.143-0.552-6.242c0.147-2.1,0.404-4.145,0.773-6.133L385.692,814.165z M398.952,816.485
			c-0.221,1.179-0.406,2.339-0.552,3.48c-0.148,1.144-0.148,2.304,0,3.481c0.221,1.695,0.68,3.242,1.381,4.641
			c0.699,1.4,1.62,2.505,2.763,3.314c1.141,0.812,2.448,1.234,3.922,1.271c1.473,0.037,3.056-0.424,4.751-1.382
			c2.136-1.252,3.978-3.186,5.525-5.802c1.547-2.613,2.503-5.34,2.873-8.176c0.368-2.836,0.072-5.525-0.884-8.066
			c-0.958-2.541-2.837-4.365-5.636-5.47c-1.842,0-3.536,0.351-5.083,1.05c-1.547,0.701-2.892,1.621-4.033,2.762
			c-1.143,1.144-2.138,2.486-2.983,4.033C400.148,813.17,399.466,814.791,398.952,816.485z"/>
		<path style="fill:#FFFFFF;stroke:#231F20;stroke-width:2;stroke-miterlimit:10;" d="M477.292,833.17
			c-0.442-1.252-0.626-2.486-0.552-3.701c0.072-1.215,0.387-2.32,0.939-3.314c0.553-0.995,1.343-1.769,2.376-2.32
			c1.031-0.553,2.282-0.755,3.757-0.608c0.81,0.074,1.547,0.296,2.21,0.663c0.663,0.369,1.271,0.812,1.823,1.326
			c0.552,0.516,1.105,1.068,1.657,1.657c0.553,0.591,1.123,1.104,1.713,1.547c1.251,0.958,2.578,1.657,3.978,2.1
			c1.398,0.442,2.873,0.773,4.42,0.995c1.03,0,1.86-0.258,2.486-0.774c0.625-0.515,1.05-1.142,1.271-1.878s0.276-1.528,0.166-2.376
			c-0.11-0.847-0.387-1.528-0.828-2.044c-1.254-1.252-2.782-2.062-4.586-2.432c-1.806-0.367-3.481-0.809-5.028-1.326
			c-2.21-0.734-4.384-1.674-6.52-2.816c-2.137-1.143-3.867-2.708-5.193-4.697c-1.4-2.061-2.229-4.254-2.486-6.574
			c-0.259-2.32-0.074-4.586,0.552-6.795c0.625-2.211,1.675-4.236,3.149-6.078c1.473-1.84,3.24-3.352,5.304-4.53
			c1.547-0.884,3.241-1.454,5.083-1.712c1.84-0.258,3.702-0.312,5.58-0.166c1.878,0.148,3.738,0.497,5.58,1.049
			c1.841,0.553,3.536,1.16,5.083,1.824c1.769,0.811,3.095,1.952,3.978,3.425c0.885,1.475,1.308,2.966,1.271,4.476
			c-0.038,1.51-0.553,2.817-1.547,3.922c-0.994,1.105-2.45,1.658-4.365,1.658c-1.179,0-2.248-0.202-3.204-0.607
			c-0.958-0.404-1.952-0.791-2.983-1.16c-1.326-0.516-2.762-0.865-4.31-1.051c-1.547-0.183-2.8-0.092-3.757,0.276
			c-0.295,0.075-0.626,0.314-0.994,0.718c-0.37,0.406-0.646,0.904-0.829,1.492c-0.185,0.591-0.221,1.18-0.11,1.768
			c0.11,0.592,0.497,1.069,1.16,1.438c1.768,0.958,3.646,1.695,5.635,2.209c1.99,0.517,3.94,1.105,5.857,1.769
			c1.914,0.663,3.701,1.511,5.359,2.542c1.656,1.031,3.038,2.504,4.143,4.42c1.619,2.8,2.449,5.729,2.486,8.783
			c0.037,3.059-0.571,5.912-1.822,8.564c-1.254,2.652-3.095,4.917-5.525,6.795c-2.432,1.879-5.268,3.001-8.508,3.371
			c-2.285,0.221-4.531,0.091-6.741-0.387c-2.21-0.48-4.348-1.254-6.409-2.32c-2.063-1.069-3.978-2.338-5.746-3.812
			c-1.768-1.473-3.315-3.02-4.641-4.641L477.292,833.17z"/>
		<path style="fill:#FFFFFF;stroke:#231F20;stroke-width:2;stroke-miterlimit:10;" d="M573.314,835.712
			c0.588,2.138,0.479,3.905-0.332,5.304c-0.812,1.398-1.934,2.338-3.37,2.818c-1.437,0.478-3.003,0.422-4.696-0.166
			c-1.695-0.591-3.168-1.768-4.42-3.536c-2.062,1.547-4.07,2.633-6.021,3.26c-1.953,0.625-4.182,0.976-6.686,1.05
			c-3.757,0.146-7.109-0.276-10.055-1.271c-2.947-0.994-5.434-2.486-7.459-4.475c-2.027-1.988-3.519-4.475-4.475-7.459
			c-0.959-2.982-1.29-6.426-0.995-10.331c0.147-1.62,0.423-3.204,0.829-4.751c0.404-1.547,0.865-3.057,1.381-4.531
			c0.589-1.619,1.418-3.351,2.486-5.193c1.066-1.84,2.154-3.425,3.26-4.751c3.978-4.862,8.95-8.36,14.917-10.497
			c1.03-0.368,2.431-0.699,4.198-0.994c1.769-0.294,3.554-0.424,5.359-0.387c1.805,0.037,3.536,0.275,5.193,0.718
			c1.658,0.442,2.891,1.216,3.702,2.32c0.663,0.884,1.142,1.657,1.437,2.32c0.293,0.663,0.459,1.364,0.497,2.1
			c0.036,0.737,0.036,1.53,0,2.376c-0.038,0.848-0.056,1.896-0.056,3.148c0,2.063-0.019,4.072-0.055,6.022
			c-0.038,1.952-0.02,3.923,0.055,5.911c0,0.664,0,1.53,0,2.598c0,1.068,0.037,2.192,0.111,3.369
			c0.072,1.18,0.166,2.304,0.275,3.371c0.111,1.068,0.277,1.934,0.498,2.596L573.314,835.712z M549.889,830.739
			c0.81-0.515,1.73-1.086,2.762-1.712c1.031-0.625,1.951-1.344,2.764-2.155c-0.664-3.903-1.051-7.808-1.16-11.713
			c-0.111-3.903-0.094-7.845,0.055-11.823c-3.314,0.591-6.299,2.027-8.95,4.31c-2.651,2.284-4.494,4.973-5.524,8.066
			c-0.442,1.253-0.812,2.542-1.105,3.867c-0.295,1.326-0.406,2.616-0.332,3.868c0.072,1.695,0.516,3.112,1.326,4.254
			c0.811,1.143,1.785,2.008,2.928,2.596c1.143,0.592,2.357,0.922,3.646,0.995C547.586,831.366,548.783,831.182,549.889,830.739z"/>
		<path style="fill:#FFFFFF;stroke:#231F20;stroke-width:2;stroke-miterlimit:10;" d="M582.041,795.159
			c0.516-1.768,1.344-3.11,2.486-4.033c1.142-0.92,2.357-1.454,3.646-1.603c1.288-0.146,2.522,0.074,3.701,0.664
			c1.178,0.59,2.1,1.51,2.764,2.762c0.809-0.441,1.619-0.846,2.43-1.215c0.811-0.368,1.73-0.699,2.764-0.995
			c4.713-1.251,8.895-1.16,12.541,0.276s6.686,3.646,9.115,6.63c2.432,2.983,4.162,6.483,5.193,10.497
			c1.031,4.016,1.271,8.03,0.719,12.045c-0.553,4.016-1.972,7.772-4.254,11.27c-2.284,3.5-5.562,6.207-9.834,8.122
			c-2.801,1.252-5.729,2.044-8.785,2.376c-3.058,0.332-6.096,0.387-9.115,0.166c0,0.072,0.017,0.662,0.055,1.768
			c0.036,1.105,0.055,2.504,0.055,4.199c0,1.693,0,3.535,0,5.524s-0.055,3.903-0.165,5.746c-0.11,1.841-0.259,3.48-0.442,4.917
			c-0.185,1.437-0.461,2.412-0.828,2.928c-0.959,1.398-2.138,2.283-3.536,2.652c-1.4,0.367-2.726,0.312-3.978-0.166
			c-1.254-0.479-2.34-1.289-3.26-2.431c-0.922-1.144-1.381-2.524-1.381-4.144v-67.293L582.041,795.159z M596.186,809.523
			c-0.222,0.37-0.332,0.535-0.332,0.498s-0.148,0.093-0.441,0.387v18.232c1.473,0.221,2.945,0.331,4.42,0.331
			c1.473,0,3.02-0.222,4.641-0.663c3.314-0.81,5.929-2.412,7.846-4.807c1.914-2.393,2.651-5.359,2.209-8.895
			c-0.221-1.473-0.646-3.002-1.271-4.586c-0.626-1.584-1.456-2.928-2.486-4.033c-1.032-1.105-2.247-1.879-3.646-2.32
			c-1.4-0.442-2.984-0.294-4.752,0.441c-1.254,0.517-2.376,1.29-3.37,2.32C598.008,807.463,597.068,808.493,596.186,809.523z"/>
		<path style="fill:#FFFFFF;stroke:#231F20;stroke-width:2;stroke-miterlimit:10;" d="M636.515,774.607
			c0.294-2.725,1.233-4.732,2.817-6.022c1.584-1.288,3.26-1.915,5.028-1.878c1.768,0.037,3.406,0.717,4.917,2.043
			c1.509,1.326,2.301,3.205,2.375,5.636c0.147,2.505-0.496,4.438-1.934,5.802c-1.436,1.363-3.076,2.137-4.916,2.32
			c-1.843,0.185-3.574-0.312-5.193-1.492c-1.622-1.178-2.616-3.056-2.984-5.635L636.515,774.607z M651.101,837.48
			c-0.148,1.474-0.663,2.781-1.547,3.922s-1.897,1.971-3.039,2.486c-1.143,0.515-2.376,0.625-3.702,0.332
			c-1.325-0.296-2.504-1.105-3.535-2.432c-0.591-0.737-1.014-1.564-1.271-2.486c-0.258-0.92-0.424-1.879-0.496-2.873
			c-0.074-0.994-0.094-1.988-0.056-2.982c0.036-0.995,0.056-1.896,0.056-2.708c-0.074-4.345-0.094-8.655-0.056-12.928
			c0.036-4.271,0.017-8.581-0.056-12.929c0-1.768-0.11-3.553-0.331-5.359c-0.222-1.804-0.11-3.591,0.331-5.358
			c0.368-1.326,1.012-2.468,1.934-3.426c0.921-0.956,1.951-1.619,3.094-1.989c1.143-0.367,2.321-0.403,3.537-0.109
			c1.215,0.295,2.265,1.068,3.148,2.32c1.178,1.475,1.768,2.928,1.768,4.364s0,3.187,0,5.249c0,2.505,0,5.01,0,7.514
			c0,2.505,0.037,4.973,0.111,7.402c0.072,3.537,0.11,7.072,0.11,10.608s0,7.071,0,10.608V837.48z"/>
		<path style="fill:#FFFFFF;stroke:#231F20;stroke-width:2;stroke-miterlimit:10;" d="M703.255,825.768
			c1.769-0.442,3.332-0.46,4.696-0.056c1.362,0.405,2.412,1.087,3.148,2.044c0.736,0.959,1.068,2.138,0.995,3.536
			c-0.074,1.4-0.701,2.873-1.878,4.42c-0.959,1.253-2.285,2.32-3.979,3.204c-1.695,0.885-3.279,1.585-4.752,2.1
			c-3.609,1.326-7.035,2.246-10.275,2.763c-3.242,0.515-6.281,0.515-9.116,0c-2.837-0.517-5.489-1.585-7.956-3.204
			c-2.469-1.62-4.77-3.904-6.906-6.852c-1.475-1.988-2.561-4.254-3.26-6.795c-0.701-2.542-1.088-5.139-1.16-7.791
			c-0.074-2.651,0.146-5.266,0.664-7.845c0.514-2.577,1.251-4.897,2.209-6.962c1.252-2.577,3.241-4.934,5.967-7.071
			c2.725-2.136,5.746-3.829,9.061-5.083c3.315-1.252,6.703-1.97,10.166-2.154c3.462-0.184,6.52,0.35,9.172,1.602
			c2.209,1.033,4.105,2.524,5.69,4.476c1.583,1.952,2.669,4.071,3.26,6.354c0.589,2.284,0.644,4.585,0.165,6.906
			c-0.479,2.32-1.676,4.438-3.591,6.354c-1.842,1.843-3.867,3.334-6.077,4.476c-2.21,1.143-4.494,2.137-6.852,2.982
			c-2.357,0.848-4.77,1.566-7.236,2.155c-2.469,0.591-4.846,1.253-7.127,1.989c1.547,1.768,3.314,2.892,5.303,3.369
			c1.989,0.48,4.07,0.572,6.244,0.277c2.172-0.294,4.364-0.902,6.574-1.824c2.21-0.92,4.271-1.934,6.188-3.038L703.255,825.768z
			 M680.935,806.762c-1.695,0.958-2.947,2.154-3.757,3.591c-0.812,1.437-1.4,3.444-1.768,6.022c1.914-0.589,4.068-1.216,6.463-1.879
			c2.394-0.662,4.658-1.361,6.797-2.1c2.135-0.734,3.939-1.547,5.414-2.431c1.473-0.884,2.209-1.841,2.209-2.872
			c0-0.59-0.093-1.161-0.275-1.713c-0.186-0.553-0.572-0.939-1.16-1.16c-2.063-0.736-4.199-0.885-6.409-0.442
			s-4.052,1.068-5.524,1.878L680.935,806.762z"/>
		<path style="fill:#FFFFFF;stroke:#231F20;stroke-width:2;stroke-miterlimit:10;" d="M762.26,837.701
			c-0.221,1.842-0.902,3.351-2.043,4.529c-1.143,1.178-2.432,1.916-3.867,2.211c-1.438,0.293-2.818,0.11-4.145-0.553
			s-2.284-1.953-2.873-3.867c-0.662-2.062-0.922-4.217-0.773-6.465c0.146-2.246,0.221-4.326,0.221-6.242
			c0-3.979,0.018-7.938,0.056-11.879c0.036-3.939-0.13-7.9-0.497-11.879c-0.074-0.146-0.148-0.275-0.221-0.387
			c-0.074-0.109-0.221-0.275-0.442-0.496c-1.695-0.443-3.499-0.332-5.415,0.331s-3.535,1.511-4.861,2.541
			c-1.18,0.958-2.34,2.266-3.48,3.923c-1.143,1.657-1.713,3.26-1.713,4.807v15.248c0,1.18,0.037,2.47,0.111,3.868
			c0.072,1.399,0.017,2.763-0.166,4.089c-0.186,1.325-0.607,2.541-1.271,3.646c-0.662,1.104-1.731,1.915-3.204,2.431
			c-0.812,0.294-1.565,0.404-2.265,0.332c-0.701-0.074-1.456-0.259-2.266-0.553c-1.326-0.441-2.284-1.197-2.873-2.266
			c-0.59-1.066-0.994-2.209-1.215-3.425c-0.222-1.216-0.314-2.394-0.277-3.536c0.037-1.141,0.056-2.044,0.056-2.707
			c0-1.693-0.019-4.144-0.056-7.348c-0.037-3.205-0.055-6.574-0.055-10.111c0-3.535,0-6.906,0-10.109c0-3.205,0-5.653,0-7.349
			c0-1.62,0.479-2.964,1.437-4.033c0.956-1.067,2.081-1.769,3.37-2.1c1.288-0.331,2.652-0.257,4.088,0.222
			c1.438,0.479,2.633,1.455,3.592,2.928c2.945-1.914,6.188-3.205,9.724-3.867c3.536-0.663,6.868-0.553,10,0.331
			c3.13,0.884,5.745,2.542,7.845,4.973s3.186,5.784,3.26,10.056c0,0.148,0.037,0.59,0.111,1.326
			c0.072,0.736,0.109,1.768,0.109,3.094V837.701z"/>
		<path style="fill:#FFFFFF;stroke:#231F20;stroke-width:2;stroke-miterlimit:10;" d="M768.779,833.17
			c-0.441-1.252-0.627-2.486-0.553-3.701c0.073-1.215,0.387-2.32,0.939-3.314c0.553-0.995,1.344-1.769,2.376-2.32
			c1.03-0.553,2.282-0.755,3.757-0.608c0.81,0.074,1.547,0.296,2.21,0.663c0.663,0.369,1.271,0.812,1.823,1.326
			c0.553,0.516,1.104,1.068,1.657,1.657c0.553,0.591,1.122,1.104,1.713,1.547c1.252,0.958,2.577,1.657,3.978,2.1
			c1.398,0.442,2.873,0.773,4.42,0.995c1.031,0,1.859-0.258,2.486-0.774c0.625-0.515,1.05-1.142,1.271-1.878
			c0.222-0.736,0.276-1.528,0.166-2.376c-0.11-0.847-0.387-1.528-0.829-2.044c-1.253-1.252-2.781-2.062-4.585-2.432
			c-1.807-0.367-3.48-0.809-5.028-1.326c-2.21-0.734-4.383-1.674-6.519-2.816c-2.138-1.143-3.868-2.708-5.193-4.697
			c-1.4-2.061-2.229-4.254-2.486-6.574c-0.259-2.32-0.074-4.586,0.553-6.795c0.625-2.211,1.674-4.236,3.148-6.078
			c1.473-1.84,3.241-3.352,5.304-4.53c1.548-0.884,3.241-1.454,5.083-1.712c1.841-0.258,3.702-0.312,5.58-0.166
			c1.879,0.148,3.738,0.497,5.58,1.049c1.841,0.553,3.536,1.16,5.083,1.824c1.769,0.811,3.094,1.952,3.979,3.425
			c0.884,1.475,1.307,2.966,1.271,4.476c-0.038,1.51-0.553,2.817-1.547,3.922c-0.995,1.105-2.45,1.658-4.365,1.658
			c-1.179,0-2.248-0.202-3.204-0.607c-0.958-0.404-1.953-0.791-2.983-1.16c-1.326-0.516-2.763-0.865-4.31-1.051
			c-1.547-0.183-2.8-0.092-3.757,0.276c-0.295,0.075-0.627,0.314-0.994,0.718c-0.37,0.406-0.646,0.904-0.829,1.492
			c-0.185,0.591-0.221,1.18-0.11,1.768c0.11,0.592,0.497,1.069,1.16,1.438c1.768,0.958,3.646,1.695,5.636,2.209
			c1.988,0.517,3.939,1.105,5.856,1.769c1.914,0.663,3.701,1.511,5.358,2.542c1.658,1.031,3.039,2.504,4.144,4.42
			c1.62,2.8,2.448,5.729,2.486,8.783c0.036,3.059-0.571,5.912-1.823,8.564c-1.253,2.652-3.094,4.917-5.524,6.795
			c-2.431,1.879-5.268,3.001-8.509,3.371c-2.284,0.221-4.53,0.091-6.74-0.387c-2.21-0.48-4.347-1.254-6.408-2.32
			c-2.063-1.069-3.979-2.338-5.746-3.812c-1.769-1.473-3.315-3.02-4.641-4.641L768.779,833.17z"/>
		<path style="fill:#FFFFFF;stroke:#231F20;stroke-width:2;stroke-miterlimit:10;" d="M385.678,936.623
			c0.773,1.492,1.049,2.996,0.829,4.518c-0.222,1.518-1.216,2.637-2.983,3.355c-1.658,0.607-3.247,0.441-4.765-0.497
			c-1.521-0.94-2.888-2.21-4.103-3.812c-1.216-1.604-2.266-3.288-3.149-5.056c-0.884-1.769-1.547-3.205-1.989-4.31
			c-2.817-6.519-4.338-13.301-4.558-20.346c-0.222-7.044,0.69-13.908,2.734-20.594c0.498-1.711,1.161-3.328,1.989-4.848
			s1.657-3.053,2.486-4.6c0.497-0.883,1.119-1.988,1.864-3.314c0.746-1.326,1.616-2.514,2.611-3.564
			c0.994-1.049,2.084-1.795,3.273-2.236c1.188-0.442,2.472-0.25,3.854,0.58c1.326,0.828,2.043,1.81,2.155,2.941
			c0.11,1.133-0.097,2.293-0.622,3.48c-0.526,1.189-1.189,2.335-1.989,3.439c-0.801,1.105-1.45,2.045-1.947,2.817
			c-0.719,1.272-1.313,2.349-1.782,3.232c-0.47,0.884-0.857,1.63-1.16,2.237c-0.304,0.608-0.539,1.147-0.705,1.616
			c-0.166,0.47-0.304,0.926-0.415,1.367c-0.829,2.874-1.437,5.954-1.823,9.24c-0.387,3.288-0.498,6.589-0.332,9.903
			c0.166,3.314,0.663,6.562,1.492,9.738c0.829,3.178,2.043,6.091,3.646,8.742c0.275,0.498,0.634,1.008,1.077,1.533
			c0.441,0.525,0.842,0.994,1.202,1.409c0.358,0.415,0.649,0.745,0.87,0.995c0.22,0.248,0.276,0.316,0.166,0.207L385.678,936.623z"
			/>
		<path style="fill:#FFFFFF;stroke:#231F20;stroke-width:2;stroke-miterlimit:10;" d="M401.507,932.272
			c-1.106,0.8-2.252,1.173-3.439,1.119c-1.188-0.056-2.238-0.539-3.149-1.45c-0.912-0.912-1.368-2.168-1.368-3.771v-46.076
			c0-1.271,0.497-2.348,1.492-3.232c0.995-0.883,2.099-1.437,3.315-1.658c1.215-0.22,2.348-0.027,3.398,0.58
			c1.049,0.609,1.629,1.74,1.74,3.398c0.22,2.873,0.317,5.677,0.29,8.412c-0.028,2.734-0.07,5.483-0.125,8.245
			c2.043-1.38,4.171-2.306,6.381-2.776c2.209-0.469,4.336-0.455,6.381,0.041c2.043,0.498,3.949,1.492,5.718,2.984
			c1.768,1.491,3.204,3.562,4.309,6.215c0.773,1.77,1.298,3.661,1.575,5.678c0.276,2.017,0.427,4.061,0.456,6.132
			c0.027,2.071,0,4.131-0.083,6.175s-0.125,3.977-0.125,5.801c0,1.16-0.304,2.21-0.912,3.148c-0.608,0.939-1.367,1.629-2.279,2.072
			c-0.912,0.441-1.879,0.58-2.9,0.414c-1.023-0.166-1.948-0.773-2.776-1.822c-0.829-1.106-1.34-2.404-1.533-3.896
			c-0.194-1.491-0.249-3.079-0.166-4.766c0.083-1.685,0.207-3.411,0.373-5.179c0.166-1.768,0.208-3.467,0.125-5.098
			c-0.083-1.629-0.401-3.135-0.953-4.516c-0.553-1.381-1.52-2.514-2.9-3.398c-1.106-0.166-2.101-0.096-2.983,0.207
			c-0.885,0.305-1.686,0.76-2.403,1.367c-0.719,0.609-1.396,1.299-2.031,2.072c-0.636,0.774-1.284,1.547-1.947,2.32
			c-0.166,0.277-0.36,0.539-0.58,0.787c-0.222,0.249-0.47,0.512-0.746,0.787v15.746C403.33,930.159,402.611,931.471,401.507,932.272
			z"/>
		<path style="fill:#FFFFFF;stroke:#231F20;stroke-width:2;stroke-miterlimit:10;" d="M470.954,924.109
			c0.497,0.719,0.787,1.562,0.87,2.527c0.083,0.968-0.029,1.879-0.332,2.735c-0.304,0.857-0.802,1.561-1.492,2.113
			c-0.691,0.552-1.589,0.8-2.693,0.745c-1.438-0.111-2.598-0.607-3.481-1.491c-0.884-0.883-1.713-1.878-2.486-2.983
			c-2.155,1.77-4.379,2.996-6.671,3.688c-2.293,0.691-4.545,0.842-6.754,0.457c-2.21-0.388-4.282-1.313-6.215-2.777
			c-1.935-1.463-3.563-3.439-4.89-5.925c-1.216-2.321-1.893-4.89-2.03-7.708c-0.139-2.816-0.18-5.496-0.124-8.038
			c0-0.884,0.027-1.753,0.083-2.61c0.055-0.855,0.11-1.754,0.166-2.693c0.054-0.717,0.083-1.422,0.083-2.113
			c0-0.69,0.042-1.339,0.125-1.947c0.083-0.607,0.249-1.215,0.497-1.824c0.249-0.606,0.622-1.187,1.119-1.74
			c0.663-0.717,1.463-1.146,2.403-1.284c0.938-0.138,1.836-0.041,2.693,0.29c0.856,0.332,1.602,0.844,2.237,1.533
			c0.635,0.691,0.98,1.533,1.036,2.527c0.11,2.818,0.042,5.664-0.208,8.536c-0.249,2.874-0.235,5.691,0.042,8.453
			c0.11,1.326,0.456,2.681,1.036,4.062s1.504,2.375,2.776,2.982c1.27,0.553,2.555,0.512,3.854-0.124
			c1.297-0.634,2.362-1.395,3.19-2.278c0.386-0.441,0.759-0.926,1.119-1.451c0.359-0.523,0.759-0.98,1.202-1.367
			c-0.221-1.934-0.36-3.866-0.414-5.801c-0.056-1.934-0.056-3.867,0-5.801c0-1.049,0.042-2.197,0.124-3.439
			c0.083-1.243,0.303-2.431,0.663-3.564c0.359-1.131,0.897-2.125,1.616-2.982c0.717-0.856,1.74-1.395,3.066-1.616
			c0.607-0.11,1.202-0.055,1.782,0.165c0.58,0.223,1.09,0.526,1.533,0.912c0.773,0.663,1.298,1.408,1.575,2.238
			c0.276,0.828,0.415,1.713,0.415,2.651c0,0.94-0.07,1.894-0.208,2.858c-0.138,0.968-0.235,1.865-0.29,2.693
			c-0.111,1.548-0.194,3.178-0.249,4.891c-0.056,1.713,0,3.426,0.166,5.138c0.166,1.713,0.483,3.37,0.953,4.972
			C469.309,921.32,470.013,922.783,470.954,924.109z"/>
		<path style="fill:#FFFFFF;stroke:#231F20;stroke-width:2;stroke-miterlimit:10;" d="M498.962,906.872v-1.16
			c-0.497-1.271-1.298-2.167-2.403-2.693c-1.105-0.524-2.293-0.842-3.563-0.953c-0.718,0.222-1.299,0.47-1.74,0.746
			c-0.443,0.276-0.829,0.58-1.16,0.911c-0.332,0.332-0.636,0.705-0.912,1.119c-0.277,0.414-0.608,0.843-0.995,1.284v21.713
			c0,1.714-0.511,3.052-1.533,4.02c-1.023,0.966-2.154,1.519-3.397,1.657c-1.243,0.137-2.391-0.166-3.439-0.912
			c-1.05-0.745-1.603-2.002-1.657-3.77c-0.111-4.254-0.153-9.088-0.125-14.504c0.027-5.414,0.042-11.463,0.042-18.148
			c0-1.16,0.344-2.127,1.036-2.9c0.69-0.773,1.519-1.298,2.486-1.574c0.966-0.276,1.96-0.262,2.983,0.041
			c1.022,0.305,1.865,0.926,2.528,1.864c3.093-1.546,6.174-2.03,9.24-1.45s5.843,2.03,8.329,4.352
			c1.104-1.105,2.292-2.1,3.563-2.984c1.271-0.883,2.652-1.463,4.145-1.74c1.711-0.275,3.438-0.207,5.179,0.207
			c1.741,0.414,3.356,1.092,4.849,2.031c1.491,0.939,2.803,2.1,3.936,3.48s1.975,2.873,2.528,4.475
			c0.276,1.105,0.414,2.101,0.414,2.983v22.542c0,0.662-0.083,1.299-0.249,1.906c-0.496,1.436-1.284,2.444-2.361,3.024
			s-2.184,0.787-3.314,0.622c-1.133-0.166-2.113-0.691-2.942-1.575s-1.243-2.071-1.243-3.563v-22.293
			c-0.497-1.326-1.216-2.292-2.154-2.9c-0.94-0.607-1.906-0.883-2.9-0.828c-0.995,0.055-1.948,0.414-2.859,1.076
			c-0.912,0.664-1.645,1.575-2.196,2.735v21.712c0,1.492-0.484,2.735-1.45,3.73c-0.967,0.994-2.031,1.629-3.191,1.906
			c-1.16,0.275-2.252,0.165-3.273-0.332c-1.022-0.498-1.615-1.492-1.781-2.983L498.962,906.872z"/>
		<path style="fill:#FFFFFF;stroke:#231F20;stroke-width:2;stroke-miterlimit:10;" d="M571.807,926.928
			c0.442,1.603,0.359,2.929-0.248,3.978c-0.608,1.049-1.45,1.753-2.527,2.113c-1.078,0.358-2.252,0.317-3.522-0.124
			c-1.271-0.443-2.376-1.326-3.315-2.652c-1.547,1.16-3.053,1.975-4.516,2.445c-1.465,0.469-3.137,0.73-5.014,0.787
			c-2.818,0.109-5.332-0.207-7.542-0.953s-4.075-1.865-5.594-3.356c-1.521-1.491-2.64-3.356-3.356-5.595
			c-0.719-2.236-0.967-4.818-0.746-7.748c0.11-1.215,0.317-2.403,0.622-3.563c0.303-1.16,0.648-2.292,1.036-3.397
			c0.441-1.215,1.062-2.514,1.864-3.896c0.8-1.38,1.616-2.569,2.444-3.563c2.984-3.646,6.713-6.27,11.188-7.873
			c0.773-0.275,1.824-0.524,3.15-0.746c1.326-0.22,2.664-0.316,4.02-0.289c1.353,0.027,2.651,0.207,3.895,0.538
			c1.242,0.331,2.168,0.911,2.775,1.74c0.498,0.663,0.856,1.243,1.078,1.741c0.221,0.496,0.344,1.022,0.373,1.574
			c0.027,0.553,0.027,1.146,0,1.781c-0.029,0.636-0.041,1.424-0.041,2.361c0,1.549-0.016,3.055-0.042,4.518
			c-0.028,1.465-0.015,2.941,0.042,4.434c0,0.497,0,1.146,0,1.947c0,0.802,0.026,1.645,0.082,2.527
			c0.055,0.885,0.125,1.728,0.207,2.527c0.083,0.803,0.207,1.451,0.373,1.948L571.807,926.928z M554.238,923.198
			c0.607-0.386,1.297-0.814,2.072-1.284c0.772-0.469,1.463-1.008,2.071-1.617c-0.497-2.928-0.787-5.855-0.87-8.783
			s-0.07-5.885,0.041-8.868c-2.486,0.442-4.723,1.521-6.713,3.231c-1.988,1.714-3.37,3.73-4.143,6.051
			c-0.332,0.939-0.609,1.906-0.829,2.9c-0.222,0.994-0.304,1.961-0.249,2.9c0.055,1.271,0.387,2.334,0.994,3.19
			c0.607,0.857,1.34,1.506,2.197,1.948c0.855,0.442,1.768,0.691,2.734,0.745C552.511,923.668,553.41,923.529,554.238,923.198z"/>
		<path style="fill:#FFFFFF;stroke:#231F20;stroke-width:2;stroke-miterlimit:10;" d="M610.674,928.419
			c-0.166,1.382-0.678,2.514-1.533,3.397c-0.857,0.883-1.822,1.437-2.9,1.658c-1.077,0.22-2.113,0.082-3.107-0.414
			c-0.994-0.498-1.713-1.465-2.154-2.901c-0.498-1.546-0.691-3.162-0.58-4.848c0.109-1.685,0.165-3.245,0.165-4.683
			c0-2.983,0.013-5.953,0.042-8.908c0.027-2.955-0.098-5.926-0.373-8.909c-0.057-0.11-0.111-0.208-0.166-0.29
			c-0.056-0.083-0.166-0.207-0.332-0.373c-1.271-0.332-2.625-0.248-4.061,0.248c-1.438,0.498-2.652,1.133-3.646,1.906
			c-0.885,0.719-1.754,1.699-2.61,2.942s-1.284,2.444-1.284,3.604v11.438c0,0.884,0.027,1.852,0.082,2.9
			c0.055,1.05,0.014,2.071-0.123,3.066c-0.139,0.994-0.457,1.905-0.953,2.734c-0.498,0.828-1.299,1.436-2.404,1.823
			c-0.608,0.22-1.174,0.303-1.699,0.249c-0.525-0.057-1.091-0.195-1.698-0.415c-0.995-0.331-1.713-0.898-2.155-1.698
			c-0.442-0.801-0.745-1.658-0.911-2.57c-0.165-0.911-0.235-1.794-0.207-2.651c0.027-0.856,0.042-1.533,0.042-2.03
			c0-1.271-0.015-3.107-0.042-5.512c-0.028-2.402-0.042-4.93-0.042-7.582s0-5.18,0-7.583s0-4.239,0-5.511
			c0-1.215,0.359-2.224,1.078-3.025c0.717-0.801,1.561-1.326,2.527-1.574c0.967-0.249,1.989-0.193,3.066,0.166
			s1.975,1.092,2.693,2.195c2.209-1.436,4.641-2.402,7.293-2.9c2.652-0.497,5.15-0.414,7.5,0.249
			c2.348,0.663,4.309,1.905,5.884,3.729c1.575,1.822,2.39,4.338,2.444,7.541c0,0.111,0.027,0.443,0.084,0.994
			c0.054,0.553,0.082,1.326,0.082,2.32V928.419z"/>
		<path style="fill:#FFFFFF;stroke:#231F20;stroke-width:2;stroke-miterlimit:10;" d="M615.895,935.546
			c0.442-0.442,0.842-0.843,1.202-1.202c0.358-0.359,0.718-0.718,1.077-1.076c0.359-0.36,0.705-0.761,1.036-1.202
			c0.331-0.442,0.69-0.968,1.077-1.575c1.602-2.596,2.818-5.552,3.646-8.867c0.829-3.314,1.326-6.725,1.492-10.234
			c0.166-3.508,0.027-6.961-0.414-10.359c-0.443-3.397-1.189-6.506-2.238-9.322c-0.719-1.934-1.615-3.758-2.693-5.471
			c-1.077-1.711-2.169-3.397-3.273-5.055c-0.497-0.718-0.981-1.422-1.45-2.113c-0.47-0.69-0.733-1.505-0.787-2.445
			c-0.056-1.436,0.29-2.623,1.036-3.562s1.643-1.533,2.693-1.782c1.049-0.249,2.126-0.151,3.232,0.29
			c1.104,0.443,1.988,1.299,2.651,2.568c1.214,1.714,2.374,3.454,3.48,5.222c1.104,1.769,2.126,3.563,3.066,5.387
			c1.546,2.983,2.721,6.216,3.522,9.696c0.8,3.48,1.27,7.044,1.408,10.69c0.138,3.646-0.041,7.251-0.539,10.815
			c-0.496,3.562-1.242,6.893-2.236,9.985c-0.885,2.652-1.948,5.317-3.191,7.997c-1.242,2.68-2.832,5.041-4.766,7.086
			c-0.828,0.883-1.768,1.712-2.816,2.486c-1.051,0.773-2.211,1.16-3.481,1.16c-1.16,0-2.113-0.248-2.858-0.746
			c-0.746-0.497-1.271-1.133-1.575-1.906s-0.401-1.615-0.29-2.527c0.109-0.912,0.386-1.811,0.828-2.693L615.895,935.546z"/>
		<path style="fill:#FFFFFF;stroke:#231F20;stroke-width:2;stroke-miterlimit:10;" d="M659.778,270.879
			c8.839,2.582,15.47,7.277,19.89,14.088c4.42,6.82,6.535,13.907,6.354,21.271c-0.189,7.372-2.486,14.278-6.906,20.718
			c-4.42,6.448-10.869,10.592-19.337,12.431v96.133c0,9.211-2.306,17.403-6.906,24.585c-4.61,7.183-10.222,12.241-16.851,15.193
			c-6.63,2.944-13.631,3.591-20.994,1.934c-7.373-1.657-14.002-6.543-19.891-14.641c-2.58-3.678-4.333-7.916-5.248-12.707
			c-0.924-4.783-1.381-9.203-1.381-13.26v-95.58H459.778v93.922c0,4.058-0.372,8.201-1.105,12.431
			c-0.743,4.239-2.029,8.011-3.868,11.326c-4.791,8.839-10.868,14.546-18.232,17.127c-7.372,2.572-14.555,2.486-21.547-0.276
			c-7.001-2.762-12.983-7.554-17.956-14.365c-4.972-6.811-7.458-15.193-7.458-25.138V150.437c0-9.573,2.849-17.861,8.563-24.862
			c5.707-6.992,12.241-11.878,19.613-14.641c7.364-2.762,14.822-2.943,22.376-0.552c7.545,2.4,13.165,8.201,16.851,17.403
			c1.105,2.952,1.839,5.62,2.21,8.011c0.363,2.399,0.553,5.067,0.553,8.011v124.862h128.729V150.437
			c0-7.363,1.657-14.365,4.973-20.995c4.048-8.097,9.85-13.812,17.402-17.127c7.545-3.315,14.918-4.23,22.1-2.762
			c7.183,1.476,13.441,5.067,18.785,10.773c5.334,5.715,8.011,13.536,8.011,23.48V270.879z"/>
</g>
<g id="Layer_1">
		<path style="fill:#FFFFFF;stroke:#231F20;stroke-width:2;stroke-miterlimit:10;" d="M798.854,491.322
			c-0.52,0.453-1.021,0.925-1.513,1.425c6.354,10.876,15.395,19.455,23.354,29.066c5.786,6.981,15.971,14.733,8.18,23.633
			c-7.917,9.048-20.735,21.518-30.272,29.12c-3.064,2.445-18.672,11.021-16.688,15.086c1.572,3.212,8.383,3.969,11.681,3.913
			c10.341-0.178,17.209-6.854,24.812-12.737c10.822-8.375,20.302-18.274,30.336-27.465c15.368-14.079,8.657-23.103,2.754-33.687
			c-3.774-6.771-9.25-11.854-13.277-18.468c-4.157-6.832-8.028-14.09-13.789-19.747c-4.167-4.087-4.583-2.6-9.53,0.246
			C809.435,484.856,803.61,487.172,798.854,491.322z"/>
		<path style="fill:#FFFFFF;stroke:#231F20;stroke-width:2;stroke-miterlimit:10;" d="M744.849,475.43
			c-9.678,10.877-22.757,16.751-34.664,25.119c-10.758,7.56-13.6,15.876-24.047,8.375c-10.214-7.343-24.349-19.368-33.017-28.428
			c-2.784-2.912-12.702-17.989-17.127-15.734c-3.503,1.786-4.14,8.66-3.983,11.964c0.491,10.355,8.058,16.796,14.771,24.027
			c9.558,10.297,20.755,19.146,31.188,28.599c15.982,14.479,25.753,7.155,37.266,0.547c13.458-7.727,25.557-21.304,35.886-28.712
			C757.578,496.555,749.558,470.134,744.849,475.43L744.849,475.43z"/>
	<path style="fill:#FFFFFF;stroke:#231F20;stroke-width:2;stroke-miterlimit:10;" d="M734.137,519.191
		c-2.713-0.365-5.244-4.684-7.095-6.444c-2.809-2.673-5.893-5.598-9.104-7.822c-2.002-1.385-6.644-1.971-7.753-4.376
		c-2.828-6.754,10.988-15.22,15.001-18.787c7.857-6.984,18.867-14.03,29.949-12.419c8.166,1.189,4.73,7.285,1.935,12.866
		c-3.493,6.977-6.774,14.97-11.653,21.043C744.039,504.965,735.953,519.438,734.137,519.191z"/>
	<path style="fill:#FFFFFF;stroke:#231F20;stroke-width:2;stroke-miterlimit:10;" d="M815.245,513.944
		c5.083-4.55,11.806-8.231,17.149-11.768c1.047-0.825,4.089-2.754,4.521-3.913c1.66-4.868-7.815-13.421-11.001-16.355
		c-7.916-7.291-22.433-15.004-33.545-12.599c-12.047,2.608,1.784,26.941,5.471,32.034c0.957,1.32,12.047,18.54,13.942,16.194
		C812.803,516.277,813.973,515.083,815.245,513.944z"/>
		<path style="fill:#FFFFFF;stroke:#231F20;stroke-width:2;stroke-miterlimit:10;" d="M785.719,697.39
			c0.638,4.068,5.519,5.682,8.955,6.515c5.874,1.426,17.821,1.233,18.611-6.883c2.184,2.233,3.678,5.246,5.268,7.9
			c1.703,2.846,3.373,5.718,4.833,8.694c1.649,3.368,3.327,6.413,2.913,10.239c-0.19,1.771,0.209,4.188-0.84,5.75
			c-0.807,1.203-3.245,2.214-4.606,2.631c-6.965,2.146-14.234,2.408-21.467,1.541c-2.453-0.298-5.168-0.03-7.273-1.624
			c-1.695-1.284-3.026-2.787-3.85-4.654c-2.779-6.295-6.875-15.766-4.967-22.731C783.823,702.843,783.729,698.46,785.719,697.39z"/>
		<path style="fill:#FFFFFF;stroke:#231F20;stroke-width:2;stroke-miterlimit:10;" d="M792.131,731.824
			c2.342,4.987,8.429,3.856,12.848,3.671c5.884-0.25,12.146,0.777,17.62-2.005c6.224-3.166,1.021-10.393-3.201-12.498
			c-5.305-2.645-12.781-2.532-18.245-0.479C797.181,722.012,789.725,726.695,792.131,731.824z"/>
		<path style="fill:#FFFFFF;stroke:#231F20;stroke-width:2;stroke-miterlimit:10;" d="M826.2,728.074c0,0-1.985,4.316-15.11,4.694
			c-13.125,0.376-18.148-0.68-20.406-3.05c-3.116-3.269-7.249-18.151-7.826-23.156c0,0-0.396,5.018,0.099,7.462
			c0.493,2.449,3.446,19.992,8.141,21.872c4.692,1.878,12.583,2.797,19.772,2.192c7.188-0.604,14.06-3.149,15.004-5.31
			S826.696,728.681,826.2,728.074z"/>
		<path style="fill:#FFFFFF;stroke:#231F20;stroke-width:2;stroke-miterlimit:10;" d="M815.211,704.766
			c-1.212-1.054-2.877-1.72-4.372-1.925c-4.399-0.609-9.673,0.871-13.658,2.619c-2.14,0.94-4.343,1.979-6.353,3.169
			c-0.908,0.539-0.167,3.957,0.846,3.579c2.897-1.088,6.93-2.113,10.785-2.282c-3.865,0.338-7.592,1.144-11.237,3.507
			c-0.551,0.358-0.073,2.417,0.516,2.153c3.608-1.606,7.729-2.191,11.599-2.724c4.513-0.62,9.052-1.171,13.609-0.786
			c2.271,0.188,1.466-1.624-0.2-1.956c-1.054-0.207-1.729-0.301-2.475-1.169c0.217,0.255,2.021-0.813,2.202-1.078
			c0.445-0.672,0.167-1.332-0.238-1.949C815.956,705.499,815.605,705.109,815.211,704.766z"/>
			<path style="fill:#FFFFFF;stroke:#231F20;stroke-width:2;stroke-miterlimit:10;" d="M775.985,709.195
				c0.075,0.273,0.147,0.549,0.21,0.829c2.848,12.468-13.134,15.259-21.776,16.034c-2.609,0.235-5.233,0.323-7.838,0.577
				c-10.399,1.021-20.576,0.654-30.812-1.87c-0.762-0.189,3.887-8.957,4.467-9.743c1.979-2.678,4.161-5.241,7.232-6.534
				c4.872-2.047,12.923-2.16,14.698-8.359c3.879,3.043,8.521,0.899,12.047-1.547c3.784-2.631,6.98-4.543,8.974-8.894
				c0.08-0.173,4.706,5.912,5.086,6.477c1.55,2.297,3.299,4.397,4.804,6.759C774.321,704.877,775.366,706.958,775.985,709.195z"/>
			<path style="fill:#FFFFFF;stroke:#231F20;stroke-width:2;stroke-miterlimit:10;" d="M730.844,726.427
				c-5.934-0.332-11.846-1.095-17.579-2.323c-0.001-0.146-0.032-0.259-0.029-0.403c0.163-6.27,3.753-9.978,8.521-12.627
				C728.526,712.35,732.172,718.082,730.844,726.427z"/>
			<path style="fill:#FFFFFF;stroke:#231F20;stroke-width:2;stroke-miterlimit:10;" d="M776.054,707.055
				c0.059,0.85,0.138,1.619,0.261,2.213c0.661,3.185,1.239,6.595,0.702,9.791c-2.685,1.149-5.506,2.133-8.388,3.018
				C766.027,715.354,770.087,708.771,776.054,707.055z"/>
			<path style="fill:#FFFFFF;stroke:#231F20;stroke-width:2;stroke-miterlimit:10;" d="M773.757,708.001
				c-0.814,0.506-1.545,1.198-2.12,1.808c-0.884,0.932-2.158,2.034-2.684,3.232c-1.281,2.93-1.493,6.014-0.324,9.035
				c-11.688,3.598-24.445,6.982-37.444,6.261c1.328-8.343-2.658-15.987-9.429-17.264c1.416-0.782,2.923-1.489,4.491-2.122
				c5.358-2.175,12.126-3.686,15.488-8.551c3.076,2.863,10.901,2.777,14.769,3.066c2.541,0.189,5.871,0.56,8.368-0.113
				c1.049-0.282,6.637-3.66,4.961-5.291c0.892,0.865,1.902,1.502,2.729,2.464s1.389,2.085,2.186,3.056
				c0.244,0.297,1.603,3.709,1.334,3.696C775.276,707.242,774.485,707.544,773.757,708.001z"/>
			<path style="fill:#FFFFFF;stroke:#231F20;stroke-width:2;stroke-miterlimit:10;" d="M777.017,719.059
				c-0.281,1.671,0.097,6.036-1.458,6.998c-12.238,7.562-30.512,8.778-43.739,8.062c-1.551-0.088-18.459-0.969-18.502-4.03
				c-0.033-2.611,0.062-4.581-0.082-6.389c10.093,3.709,21.639,3.452,32.934,2.581C756.723,725.471,767.264,723.238,777.017,719.059
				z"/>
		<path style="fill:#FFFFFF;stroke:#231F20;stroke-width:2;stroke-miterlimit:10;" d="M738.331,703.125
			c2.296,1.553,4.59,3.775,4.84,5.767c0.147,1.169-0.674,2.104-2.281,2.374c-0.262,0.047-0.575,0.054-0.906,0.028
			c-0.276,0.587-0.932,1.015-2.018,0.995c-1.739-0.031-3.37-1.265-3.72-2.389c-0.016-0.066-0.041-0.128-0.066-0.194
			c-0.011-0.015-0.015-0.021-0.028-0.043c-0.106-0.173-0.236-0.344-0.363-0.511c-0.03-0.04-0.04-0.058-0.06-0.081
			c-0.025-0.027-0.039-0.045-0.075-0.079c-0.288-0.316-0.621-0.617-0.966-0.914c-0.032-0.028-0.045-0.041-0.068-0.062
			c-0.043-0.025-0.103-0.068-0.203-0.141c-0.229-0.16-0.478-0.308-0.725-0.455c-1.504-0.883-1.937-2.447-1.155-3.306
			c0.618-0.673,1.788-0.78,2.95-0.43C734.368,702.618,736.665,701.994,738.331,703.125z"/>
	<path style="fill:#FFFFFF;stroke:#231F20;stroke-width:2;stroke-miterlimit:10;" d="M789.595,566.101
		c-14.755-1.408-29.956-3.329-42.976-0.032c-15.13,3.834-13.316,14.016-13.43,27.657c-0.184,22.073-1.893,43.133,1.776,65.05
		c1.394,8.325,4.124,17.471,2.82,25.958c-0.286,1.856-1.78,3.498-1.698,5.408c0.125,2.889,2.009,6.451,2.493,9.436
		c0.804,4.953,0.82,5.028,5.953,6.104c14.135,2.968,31.644,1.57,27.611-16.964c-4.225-19.422-8.563-47.517-1.132-66.722
		c1.934-4.994,2.234-1.622,6.86-3.727c-1.939,0.899,4.427,21.438,4.864,23.599c2.2,10.902,0.586,24.097,0.384,35.285
		c-0.038,2.171-0.149,16.566,2.111,17.572c-1.527-0.68-0.292,7.964,0.613,9.005c1.513,1.737,4.894,2.773,7.12,3.271
		c6.671,1.485,12.878,0.833,18.669-2.913c5.952-3.85,4.384-7.363,5.041-13.784c0.899-8.854-1.935-17.806-0.556-26.592
		c1.207-7.672,1.403-15.109,1.424-23.061c0.015-5.694-0.85-73.815-5.721-73.576C804.775,567.419,797.246,566.827,789.595,566.101z"
		/>
		<path style="fill:#FFFFFF;stroke:#231F20;stroke-width:2;stroke-miterlimit:10;" d="M631.351,369.135
			c9.946-15.119,26.83-8.063,35.225,4.107c6.291,9.118,9.253,28.938-3.795,33.948c-8.153,3.127-20.407-1.954-26.223-7.83
			C628.777,391.501,624.759,379.154,631.351,369.135z"/>
		<path style="fill:#FFFFFF;stroke:#231F20;stroke-width:2;stroke-miterlimit:10;" d="M913.573,370.467
			c-9.802-15.211-26.753-8.315-35.261,3.775c-6.374,9.059-9.524,28.85,3.474,33.98c8.124,3.207,20.426-1.761,26.297-7.582
			C915.937,392.857,920.071,380.548,913.573,370.467z"/>
	<path style="fill:#FFFFFF;stroke:#231F20;stroke-width:2;stroke-miterlimit:10;" d="M885.816,260.304
		c-13.65-26.76-50.062-30.758-76.841-33.371c-43.392-4.234-83.993-7.31-124.252,14.479c-48.268,26.12-24.665,101.741-24.87,145.173
		c-0.189,40.207,31.245,53.086,57.354,58.57c26.109,5.485,43.34,9.53,41.955,18.904c-1.384,9.374-8.478,35.557,12.295,35.655
		c0.217,0,0.411-0.006,0.621-0.006c0.209,0.002,0.405,0.009,0.621,0.009c20.773,0.1,14.795-26.502,11.813-35.993
		c-2.839-9.041,16.332-12.812,42.492-18.051c24.12-4.828,51.872-18.523,57.522-45.083c3.146-10.499,3.27-36.383,3.27-36.383
		c1.377-30.247,11.413-72.349-0.586-100.896C886.778,262.278,886.312,261.275,885.816,260.304z"/>
		<path style="fill:#FFFFFF;stroke:#231F20;stroke-width:2;stroke-miterlimit:10;" d="M772.906,426.895
			c-4.406,0.126-8.831-0.775-12.7-2.858c-4.776-2.573-12.501-9.178-9.424-15.365c2.415-4.86,8.279-1.206,11.826,0.265
			c5.888,2.442,11.179,3.72,17.292,0.964c4.49-2.023,11.081-8.457,15.81-3.195c6.094,6.78-7.898,16.124-12.882,18.126
			C779.712,426.088,776.316,426.798,772.906,426.895z"/>
		<path style="fill:#FFFFFF;stroke:#231F20;stroke-width:2;stroke-miterlimit:10;" d="M755.728,420.953
			c1.522,1.284,3.119,2.352,4.479,3.084c3.869,2.083,8.294,2.984,12.7,2.858c3.41-0.097,6.806-0.807,9.922-2.062
			c1.599-0.641,4.119-2.043,6.608-3.867C780.622,411.251,765.268,410.832,755.728,420.953z"/>
	<path style="fill:#FFFFFF;stroke:#231F20;stroke-width:2;stroke-miterlimit:10;" d="M779.389,389.345
		c-1.625,0.858-3.396,1.515-5.271,1.594c-2.062,0.086-3.841-0.734-5.697-1.495c-2.329-0.955-5.391-2.382-3.513-5.453
		c1.115-1.825,3.398-1.397,5.145-0.928c1.929,0.519,4.336,1.172,6.319,0.725c1.971-0.442,3.853-1.799,5.89-1.919
		c2.615-0.154,2.979,3.345,1.641,4.943c-1.126,1.34-2.904,1.666-4.378,2.459C779.479,389.296,779.435,389.32,779.389,389.345z"/>
	<path style="fill:#231F20;stroke:#231F20;stroke-width:2;stroke-miterlimit:10;" d="M704.722,379.262
		c9.434,3.42,15.423-13.728,7.036-18.203C700.488,355.045,695.371,375.869,704.722,379.262z"/>
	<path style="fill:#231F20;stroke:#231F20;stroke-width:2;stroke-miterlimit:10;" d="M836.893,380.22
		c9.962-1.22,7.539-19.221-1.968-19.415C822.155,360.544,827.018,381.429,836.893,380.22z"/>
	<path style="fill:#FFFFFF;stroke:#231F20;stroke-width:2;stroke-miterlimit:10;" d="M716.779,318.404
		c-0.237-16.223-20.792-4.07-23.951,4.604C694.4,322.207,716.73,315.148,716.779,318.404z"/>
	<path style="fill:#FFFFFF;stroke:#231F20;stroke-width:2;stroke-miterlimit:10;" d="M823.974,320.951
		c-5.659-15.207,17.904-11.327,23.992-4.387C846.209,316.387,822.838,317.899,823.974,320.951z"/>
	<path style="fill:#FFFFFF;stroke:#231F20;stroke-width:2;stroke-miterlimit:10;" d="M669.693,310.071
		c12.472,5.095,20.006-12.472,10.795-20.102c5.527-3.291,6.621-10.381,2.752-14.253c7.723,2.009,16.408,3.22,20.116-5.57
		c-0.725,11.941,17.45,12.715,24,6.058c-3.536,13.103,13.056,17.978,19.52,7.503c3.104,9.248,14.396,10.943,21.084,4.408
		c1.344,6.828,11.403,8.388,15.004,2.292c0.029,12.902,20.719,13.043,22.55,0.132c-0.043-0.574-0.062-0.574-0.06,0.002
		c4.257,10.962,22.176,7.656,22.715-3.051c1.933,6.935,14.47,12.537,17.045,3.304c-0.02-0.577-0.032-0.577-0.039,0
		c0.739,8.081,9.908,9.633,16.126,6.073c-5.743,7.216,2.973,15.419,6.649,6.851c-0.021-0.572-0.034-0.572-0.038,0.003
		c0.623,4.372,2.714,7.446,7.06,8.771c-5.214,3.927-5.594,11.634,0.798,14.559c-7.848,4.933-2.477,14.863,3.928,9.385
		c-4.935,4.353-1.969,10.091,3.685,11.449c-6.481,2.382-9.238,13.415-0.279,14.804c-0.271-0.042,1.16,5.986,1.53,6.553
		c6.253-2.186,22.14-16.199,13.641-23.018c6.709-3.693,10.474-14.596,3.67-19.696c5.583-5.13,10.851-16.6,1.86-20.992
		c3.094-6.285,5.96-16.518-3.162-18.615c3.63-6.555,5.099-17.633-3.57-20.219c6.74-7.251,4.43-20.121-7.221-19.299
		c5.436-0.383-14.962-17.374-14.603-17.089c-8.133-6.442-13.129-15.094-25.435-11.15c-1.697-8.155-13.117-15.289-19.699-8.471
		c-3.428-7.57-12.615-10.912-19.315-5.778c-4.048-6.714-13.276-8.252-18.928-3.09c-5.886-5.027-19.77-6.313-23.143,2.019
		c0.274-0.679-20.98-7.772-23.604,3.306c-6.93-5.426-22.503-6.362-21.084,5.875c-7.435-3.102-24.323-5.303-22.137,7.316
		c0.5,0.286,0.582,0.271,0.245-0.044c-8.741-4.275-19.359-2.882-19.43,8.879c0.46,0.11,0.625-0.063,0.499-0.519
		c-7.518-1.129-17.484,0.617-17.202,9.431c-8.939-0.1-24.423,12.854-14.486,21.184c-7.176,1.388-10.358,10.76-3.676,14.769
		c-7.672,2.578-11.593,15.305-1.951,17.298c-3.41,6.594-11.086,16.552-0.631,21.448c-6.283,5.206-9.429,16.054,0.979,18.059
		c-3.935,5.178-4.198,12.69,2.52,14.746c-9.509-2.91,4.817,15.125,4.156,14.24c2.707,3.623,5.004,9.63,7.655,12.957
		c9.854,12.364,9.933-2.515,3.751-12.169c7.664-4.239,11.482-16.387,1.234-20.677c4.562-2.898,4.971-8.362,0.606-11.697
		C675.058,327.055,677.955,314.226,669.693,310.071z"/>
	<path style="fill:#FFFFFF;stroke:#231F20;stroke-width:2;stroke-miterlimit:10;" d="M787.971,467.375
		c6.442,6.383,8.953,15.134,11.834,23.839c6.412,19.377,9.846,39.584,12.354,59.796c2.172,17.492,6.631,34.688,8.327,52.129
		c-21.865,17.462-64.644,4.703-90.474,4.253c-1.281-27.441,2.276-56.247,5.499-83.579c2.059-17.455,6.219-34.282,14.989-49.631
		c1.199-2.1,2.474-4.176,4.043-6.02c0.896-1.054,3.226-4.065,4.654-4.292c-1.541,6.726-0.581,13.262,7.168,15.108
		c6.026,1.438,16.148,0.056,18.695-6.648c1.011-2.66,0.361-6.04-0.548-8.607C785.818,464.643,786.9,466.317,787.971,467.375z"/>
	<path style="fill:#FFFFFF;stroke:#231F20;stroke-width:2;stroke-miterlimit:10;" d="M759.212,463.615c0,0-2.194,8.688,2.478,12.028
		c4.676,3.337,20.272,1.958,21.864-2.324c1.59-4.284,0.959-9.594,0.959-9.594l1.609,1.536c0,0,3.041,12.768-2.06,15.352
		c-5.099,2.59-15.633,3.778-21.958,1.536c-6.327-2.241-8.122-13.613-4.939-17.059L759.212,463.615z"/>
	<path style="fill:#FFFFFF;stroke:#231F20;stroke-width:2;stroke-miterlimit:10;" d="M657.139,458.271
		c1.661-3.806,3.185-7.771-1.646-8.717c-8.167-1.602-8.361,14.652-13.306,12.41c-6.257-2.849-15.041-22.729-23.231-14.973
		c-5.987,5.671,10.276,17.978,13.076,21.481c-4.995-2.669-19.208-18.773-25.717-9.494c-4.345,6.194,13.173,13.466,19.938,18.617
		c-4.534-0.102-23.36-11.493-23.619-1.261c-0.109,4.394,3.555,6.716,7.335,7.69c4.414,1.139,8.993,1.118,13.412,2.325
		c0.095-0.004,0.095-0.007-0.001-0.011c-4.1,0.957-12.33,0.141-14.192,5.098c-0.841,2.237,0.105,4.981,2.269,6.064
		c2.413,1.207,5.248-0.039,7.645-0.637c2.894-0.727,6.125-0.814,9.028-0.09c2.795,0.703,5.197,2.513,8.045,3.045
		c3.915,0.729,7.733-0.184,10.933-2.558c4.82-3.582,11.611-7.833,12.779-14.165c1.23-6.661-4.442-12.605-4.581-19.231
		C655.273,462.398,656.227,460.359,657.139,458.271z"/>
	<path style="fill:#FFFFFF;stroke:#231F20;stroke-width:2;stroke-miterlimit:10;" d="M821.243,580.693
		c0.351-0.449,0.653-1.071,0.901-1.908c1.936-6.554-5.498-18.248-11.316-20.969c-6.697-3.135-10.744,0.466-16.33,4.511
		c-2.07,1.5-6.162,3.707-5.459,6.89c0.73,3.292,4.379,2.51,6.182,0.61c-1.499,1.697-3.872,2.652-3.971,5.225
		c-0.098,2.47,2.014,4.464,4.492,4.113c-3.111,4.473,3,4.357,5.312,4.601c-1.052,1.812,0.458,3.347,2.326,3.252
		c3.345-0.164,6.178-5.237,9.964-5.72C816.433,580.904,819.452,583.012,821.243,580.693z"/>
	<path style="fill:#FFFFFF;stroke:#231F20;stroke-width:2;stroke-miterlimit:10;" d="M403.628,460.854
		c-3.973-16.621-8.265-33.395-13.422-49.686c-4.479-14.136-2.418-23.188,0.095-37.933c5.807-34.036,3.294-68.958-9.344-101.101
		c-11.658-29.645-20.083-41.032-49.179-55.344c-64.202-31.584-173.921-8.023-201.398,63.667
		c-12.259,31.988-0.621,66.271,2.913,98.875c3.442,31.783,2.13,65.705-5.649,96.788c-6.194,24.724-12.156,51.857,13.475,67.953
		c11.05,6.94,22.023,10.417,33.264,1.354c8.479,23.688,36.002,8.072,47.372-4.633c7.953,7.419,18.027,17.115,29.126,18.477
		c12.716,1.558,18.96-9.344,27.684-9.349c8.967-0.004,14.908,10.103,26.405,8.392c9.081-1.357,19.706-12.082,26.527-17.479
		c13.859,17.774,38.165,7.453,48.63-8.207C416.925,540.491,413.278,501.24,403.628,460.854z"/>
		<path style="fill:#FFFFFF;stroke:#231F20;stroke-width:2;stroke-miterlimit:10;" d="M117.539,367.821
			c10.145-14.985,26.933-7.708,35.167,4.574c6.167,9.199,8.869,29.057-4.245,33.892c-8.193,3.022-20.379-2.222-26.117-8.174
			C114.67,390.152,110.813,377.753,117.539,367.821z"/>
		<path style="fill:#FFFFFF;stroke:#231F20;stroke-width:2;stroke-miterlimit:10;" d="M399.721,372.882
			c-9.604-15.339-26.643-8.668-35.312,3.308c-6.493,8.974-9.905,28.722,3.029,34.024c8.078,3.313,20.443-1.491,26.393-7.233
			C401.784,395.301,406.083,383.048,399.721,372.882z"/>
	<path style="fill:#FFFFFF;stroke:#231F20;stroke-width:2;stroke-miterlimit:10;" d="M373.42,262.363
		c-13.295-26.939-49.653-31.416-76.396-34.383c-43.33-4.808-83.888-8.419-124.431,12.835
		c-48.608,25.481-26.008,101.406-26.788,144.833c-0.72,40.201,30.542,53.495,56.576,59.324c26.034,5.828,43.21,10.099,41.702,19.458
		c-1.507,9.354-8.946,35.438,11.823,35.81c0.217,0.006,0.412,0,0.622,0.006c0.209,0.006,0.403,0.015,0.62,0.019
		c20.771,0.37,15.146-26.309,12.291-35.835c-2.72-9.08,16.5-12.599,42.724-17.49c24.182-4.509,52.112-17.837,58.114-44.32
		c3.284-10.454,3.749-36.336,3.749-36.336c1.776-30.225,12.371-72.19,0.749-100.894C374.355,264.349,373.902,263.34,373.42,262.363z
		"/>
	<path style="fill:#FFFFFF;stroke:#231F20;stroke-width:2;stroke-miterlimit:10;" d="M262.926,391.368
		c-1.638,0.838-3.418,1.472-5.292,1.524c-2.063,0.06-3.829-0.783-5.676-1.57c-2.315-0.985-5.36-2.453-3.44-5.498
		c1.141-1.811,3.417-1.352,5.155-0.86c1.922,0.545,4.321,1.229,6.31,0.809c1.976-0.417,3.878-1.749,5.916-1.842
		c2.616-0.118,2.934,3.384,1.576,4.966c-1.142,1.325-2.926,1.627-4.41,2.399C263.018,391.322,262.973,391.344,262.926,391.368z"/>
	<path style="fill:#231F20;stroke:#231F20;stroke-width:2;stroke-miterlimit:10;" d="M192.251,379.292
		c9.825,2.049,13.321-15.777,4.38-19.017C184.623,355.922,182.513,377.262,192.251,379.292z"/>
	<path style="fill:#231F20;stroke:#231F20;stroke-width:2;stroke-miterlimit:10;" d="M321.006,381.71
		c9.997,0.861,11.342-17.254,2.079-19.404C310.645,359.417,311.093,380.856,321.006,381.71z"/>
	<path style="fill:#FFFFFF;stroke:#231F20;stroke-width:2;stroke-miterlimit:10;" d="M180.6,325.502
		c32.567-14.529,66.284-9.084,100.988-18.6c22.659-6.212,43.341-8.24,54.121-33.292c-7.264,16.886,8.238,37.923,16.786,50.862
		c13.078,19.798,11.592,32.605,15.853,54.778c1.045-2.3,3.411-5.038,4.509-7.673c-0.308,2.779-0.032,6.146-0.445,8.88
		c10.466-35.337,18.554-62.725,11.365-100.176c-15.015-78.26-116.98-78.121-177.799-64.278
		c-62.34,14.19-95.829,87.412-65.649,143.997c8.995-8.944,15.887-20.328,27.524-27.676
		C172.081,329.654,176.33,327.408,180.6,325.502z"/>
		<path style="fill:#FFFFFF;stroke:#231F20;stroke-width:2;stroke-miterlimit:10;" d="M208.207,330.893
			c-3.362-4.286-9.027-6.442-14.303-4.565c-4.798,1.706-8.524,6.147-8.227,11.419c0.046,0.812,0.934,3.124,1.736,1.401
			c2.039-4.367,3.511-7.335,8.649-8.429c4.133-0.88,8.266,0.346,11.673,2.663C208.648,334.002,208.554,331.337,208.207,330.893
			L208.207,330.893z"/>
		<path style="fill:#FFFFFF;stroke:#231F20;stroke-width:2;stroke-miterlimit:10;" d="M312.055,335.237
			c3.468-2.145,6.946-2.838,10.982-2.384c5.216,0.587,7.241,4.179,8.967,8.542c0.61,1.543,1.67,0.871,1.808-0.533
			c1.214-12.415-15.057-16.861-22.348-8.088C311.073,333.246,311.114,335.819,312.055,335.237L312.055,335.237z"/>
	<path style="fill:#FFFFFF;stroke:#231F20;stroke-width:2;stroke-miterlimit:10;" d="M250.668,612.454
		c-3.021-8.558-11.759-17.314-20.652-11.169c-11.491,7.937-9.222,37.699-8.629,50.142c0.462,9.757,2.349,19.751,3.729,29.46
		c1.083,7.631-1.042,20.561,3.562,27.136c3.69,5.271,14.048,6.975,19.022,2.549c6.013-5.351,4.348-13.654,3.746-20.588
		c-1.151-13.227-2.329-26.652-1.434-40.854C250.781,636.91,255.026,624.813,250.668,612.454z"/>
	<path style="fill:#FFFFFF;stroke:#231F20;stroke-width:2;stroke-miterlimit:10;" d="M267.323,650.793
		c-0.146-8.355-1.746-16.426-2.698-24.836c-0.882-7.806,0.981-14.469,6.707-20.352c4.419-4.54,12.992-8.551,19.114-4.32
		c7.071,4.881,7.041,15.998,6.985,23.609c-0.073,9.485,0.649,18.428,0.2,27.904c-0.564,11.853-2.562,23.122-3.211,35.012
		c-0.306,5.547,1.673,14.376-1.581,19.268c-3.8,5.7-14.938,8.066-20.073,3.493c-4.517-4.021-3.16-10.201-3.438-15.761
		C268.608,680.3,267.569,665.173,267.323,650.793z"/>
	<path style="fill:#FFFFFF;stroke:#231F20;stroke-width:2;stroke-miterlimit:10;" d="M227.257,695.3
		c0.221,0.178,0.417,0.333,0.573,0.453c2.008,1.493,3.472,1.938,6.022,2.207c4.262,0.451,8.715-0.479,12.596-2.25
		c1.979-0.906,8.46-6.243,7.39-0.48c-0.33,1.779-1.534,3.267-1.985,5.004c-0.489,1.892,0.067,2.718-1.798,3.985
		c-2.761,1.883-6.029,3.801-9.316,4.468c-4.065,0.827-11.434,0.624-14.595-2.624c-1.927-1.975-0.964-4.788-1.397-7.068
		c-0.292-1.534-3.401-3.336-1.857-5.011C224.02,692.764,226.038,694.325,227.257,695.3z"/>
	<path style="fill:#FFFFFF;stroke:#231F20;stroke-width:2;stroke-miterlimit:10;" d="M252.314,698.731
		c-0.583,4.075-5.441,5.75-8.867,6.631c-5.857,1.502-17.805,1.472-18.701-6.638c-2.153,2.268-3.607,5.295-5.162,7.971
		c-1.664,2.869-3.297,5.761-4.72,8.759c-1.605,3.387-3.241,6.455-2.779,10.271c0.216,1.77-0.15,4.196,0.919,5.743
		c0.823,1.192,3.273,2.169,4.642,2.568c6.992,2.056,14.263,2.223,21.483,1.257c2.45-0.329,5.168-0.096,7.252-1.722
		c1.677-1.306,2.989-2.825,3.789-4.701c2.693-6.332,6.665-15.857,4.666-22.798C254.284,704.156,254.319,699.77,252.314,698.731z"/>
	<path style="fill:#FFFFFF;stroke:#231F20;stroke-width:2;stroke-miterlimit:10;" d="M212.243,729.138c0,0,2.042,4.088,15.171,4.28
		c13.126,0.194,18.139-0.876,20.361-3.156c3.074-3.151,7.01-17.363,7.521-22.129c0,0,0.461,4.766,0,7.099
		c-0.46,2.336-3.183,19.062-7.852,20.911c-4.667,1.846-12.544,2.818-19.742,2.333c-7.196-0.487-14.1-2.82-15.073-4.863
		C211.659,731.571,211.756,729.724,212.243,729.138z"/>
	<path style="fill:#FFFFFF;stroke:#231F20;stroke-width:2;stroke-miterlimit:10;" d="M292.871,695.3
		c-0.22,0.178-0.417,0.333-0.574,0.453c-2.008,1.493-3.471,1.938-6.021,2.207c-4.261,0.451-8.714-0.479-12.594-2.25
		c-1.978-0.906-8.461-6.243-7.392-0.48c0.331,1.779,1.535,3.267,1.984,5.004c0.494,1.892-0.064,2.718,1.799,3.985
		c2.763,1.883,6.029,3.801,9.317,4.468c4.065,0.827,11.434,0.624,14.593-2.624c1.926-1.975,0.966-4.788,1.397-7.068
		c0.292-1.534,3.404-3.336,1.857-5.011C296.109,692.764,294.091,694.325,292.871,695.3z"/>
	<path style="fill:#FFFFFF;stroke:#231F20;stroke-width:2;stroke-miterlimit:10;" d="M267.814,698.996
		c0.582,4.077,5.44,5.755,8.868,6.635c5.854,1.5,17.802,1.468,18.698-6.637c2.153,2.263,3.61,5.291,5.165,7.968
		c1.665,2.868,3.297,5.761,4.718,8.757c1.604,3.389,3.241,6.46,2.779,10.273c-0.216,1.771,0.15,4.195-0.919,5.742
		c-0.823,1.196-3.274,2.173-4.642,2.572c-6.993,2.052-14.262,2.218-21.484,1.255c-2.448-0.329-5.167-0.099-7.25-1.721
		c-1.676-1.306-2.988-2.827-3.786-4.703c-2.697-6.331-6.667-15.854-4.667-22.795C265.846,704.426,265.81,700.039,267.814,698.996z"
		/>
	<path style="fill:#FFFFFF;stroke:#231F20;stroke-width:2;stroke-miterlimit:10;" d="M307.885,729.138c0,0-2.041,4.088-15.171,4.28
		c-13.127,0.194-18.137-0.876-20.362-3.156c-3.074-3.151-7.007-17.363-7.519-22.129c0,0-0.464,4.766,0,7.099
		c0.458,2.336,3.182,19.062,7.851,20.911c4.665,1.846,12.543,2.818,19.738,2.333c7.198-0.487,14.102-2.82,15.076-4.863
		C308.468,731.571,308.374,729.724,307.885,729.138z"/>
		<path style="fill:#FFFFFF;stroke:#231F20;stroke-width:2;stroke-miterlimit:10;" d="M222.561,709.913
			c-0.983,0.483-0.721,4.622,0.345,4.345c3.055-0.802,7.232-1.34,11.115-0.902c-3.917-0.241-7.759,0.088-11.74,2.268
			c-0.603,0.331-0.414,2.826,0.212,2.613c3.617-1.219,6.991-1.318,10.756-0.865c3.971,0.479,7.561,2.29,11.456,2.773
			c1.665,0.203,1.031-4.19,0.731-4.885c-0.648-1.498-1.595-2.687-2.754-3.62c1.557,0.534,2.876,1.374,3.762,2.644
			c1.166,1.666,2-3.599,1.048-4.87C242.397,702.611,228.772,706.87,222.561,709.913z"/>
		<path style="fill:#FFFFFF;stroke:#231F20;stroke-width:2;stroke-miterlimit:10;" d="M297.782,715.616
			c-3.818-2.085-7.513-2.475-11.27-2.295c3.812-0.374,7.864,0.162,10.821,0.937c1.036,0.269,1.115-3.872,0.128-4.355
			c-6.257-3.064-19.838-7.267-24.946-0.457c-0.947,1.261,0.09,6.527,1.288,4.808c0.835-1.201,2.055-2.017,3.502-2.551
			c-1.135,0.934-2.069,2.11-2.711,3.598c-0.329,0.759-0.676,5.048,0.969,4.845c3.344-0.417,6.441-2.003,9.814-2.543
			c4.206-0.678,8.084-0.793,12.172,0.592C298.419,718.486,298.425,715.967,297.782,715.616z"/>
	<path style="fill:#FFFFFF;stroke:#231F20;stroke-width:2;stroke-miterlimit:10;" d="M235.53,469.78
		c4.715,7.801,4.419,19.616,0.525,27.54c-1.5,3.019-4.457,8.589-8.4,8.839c-7.251,0.456-4.667-10.771-3.605-16.818
		C225.11,483.294,232.719,465.131,235.53,469.78z"/>
	<path style="fill:#FFFFFF;stroke:#231F20;stroke-width:2;stroke-miterlimit:10;" d="M278.162,469.588
		c-4.71,7.804-4.927,20.779-1.033,28.704c1.502,3.021,4.449,8.838,8.399,8.838c7.199,0,4.67-10.771,3.607-16.819
		C288.075,484.268,280.973,464.936,278.162,469.588z"/>
	<path style="fill:#FFFFFF;stroke:#231F20;stroke-width:2;stroke-miterlimit:10;" d="M305.584,589.24
		c-0.479-1.936-1.036-3.861-1.743-5.759c-3.261-8.782-5.174-18.971-6.114-28.266c-1.23-12.198-3.452-24.216-4.898-36.438
		c-0.326-2.732-3.466-18-2.219-19.197c-2.198,2.12-5.176,1.808-7.158-0.216c-6.473-6.616-5.391-22.046-3.535-30.308
		c-2.942-0.981-6.907-3.675-10.012-3.179c0.322,2.584,1.956,5.925,0.723,8.48c-0.797,1.652-2.389,2.829-3.97,3.656
		c-5.245,2.739-10.541,3.515-16.368,2.07c-6.83-1.696-7.55-7.651-6.443-14.288c-3.476-0.287-7.686,1.864-10.555,3.664
		c6.622,7.786,4.287,24.933-3.2,31.371c-2.244,1.929-4.604,2.404-7.333,1.132c0.949,0.442-1.622,29.809-1.683,32.433
		c-0.278,11.94-0.973,23.885-3.084,35.654c-3.005,16.761-0.983,35.233-7.079,51.278c-2.159,5.684-4.495,10.208,3.373,12.953
		c8.133,2.836,18.086-1.229,26.4-1.818c10.023-0.705,20.056-1.18,29.552,2.737c13.958,5.768,27.627-2.59,40.624-7.782
		c1.739-0.694,3.482-1.38,5.22-2.062c-1.112-6.462-4.275-12.12-6.316-18.231C307.799,601.236,307.058,595.176,305.584,589.24z"/>
	<path style="fill:#FFFFFF;stroke:#231F20;stroke-width:2;stroke-miterlimit:10;" d="M314.342,521.232
		c-0.079-0.171-0.155-0.338-0.234-0.509c-5.384-11.782-10.197-24.494-17.117-35.357c-1.565-2.458-14.85-19.813-16.208-11.821
		c-2.566,15.078,4.872,26.035,8.257,35.488c7.809,21.823,25.812,43.452,22.344,67.918c-0.459,3.237-1.411,6.985-2.422,10.101
		c-0.764,2.357-4.819,5.784-3.796,8.498c1.68,4.458,7.855,0.023,9.121-2.421c0.867-1.673,1.307-4.153,2.946-5.314
		c1.93-1.358,3.281,1.118,4.479,2.206c2.126,1.925,4.22,3.81,6.145,6.004c1.214,1.387,2.494,2.996,4.246,3.729
		c2.051,0.853,3.896-0.732,4.393-2.646c0.634-2.416-1.057-3.97-2.665-5.436c-2.132-1.949-4.524-3.953-6.483-6.047
		c2.97,2.356,6.473,4.466,9.154,7.137c1.664,1.656,3.367,3.479,5.709,1.698c1.057-0.806,2.411-2.439,1.946-3.88
		c-0.584-1.784-3.088-3.289-4.472-4.347c-2.89-2.209-5.917-4.248-8.921-6.299c2.12,1.446,4.932,2.867,7.274,3.936
		c2.441,1.111,6.323,3.757,8.156,0.27c1.413-2.688-1.292-3.56-3.395-4.408c-2.662-1.068-5.726-2.509-8.53-3.068
		c2.117-0.351,4.308,0.126,6.391-0.243c5.227-0.94,1.785-5.219-2.238-4.593c-4.38,0.687-7.982,0.421-12.421,0.323
		c0.124-4.295,0.055-8.321-0.312-12.629C324.575,546.349,319.766,533.171,314.342,521.232z"/>
	<path style="fill:#FFFFFF;stroke:#231F20;stroke-width:2;stroke-miterlimit:10;" d="M207.773,547.77
		c5.151-13.27,13.031-25.321,17.833-38.736c3.384-9.453,10.821-20.41,8.257-35.49c-1.357-7.989-14.643,9.366-16.208,11.824
		c-6.921,10.863-11.735,23.575-17.119,35.357c-0.077,0.171-0.155,0.338-0.23,0.509c-5.425,11.938-10.235,25.116-11.351,38.289
		c-0.328,3.879-1.676,11.011-1.601,16.906c-0.417,0.066-0.828,0.126-1.247,0.197c-4.785,0.837-9.692,2.16-13.37,3.773
		c-1.491,0.653-2.812,1.572-4.266,2.239c-0.848,2.739,0.056,5.773,3.327,4.707c-2.899,2.192-1.851,8.904,2.519,6.688
		c-0.721,0.365-0.592,2.184-0.333,2.752c0.324,0.707,0.993,1.344,1.682,1.694c1.216,0.62,3.156,0.592,4.235-0.329
		c-0.662,1.562,0.937,2.889,2.272,3.304c1.457,0.448,3.735-0.275,4.869-1.254c3.632-3.131,6.379-10.917,12.432-8.44
		c3.577,1.463,4.744,7.029,9.515,5.053c5.773-2.397-2.33-7.824-4.778-9.495c0.7,0.479,0.566-7.061-0.117-8.116
		c-0.331-0.515-0.721-0.936-1.133-1.316c-0.476-3.205-0.94-6.391-0.442-9.767C203.543,561.14,205.219,554.354,207.773,547.77z"/>
	<path style="fill:#FFFFFF;stroke:#231F20;stroke-width:2;stroke-miterlimit:10;" d="M144.897,364.199
		c0,0-43.604-75.917,24.181-121.901c67.785-45.984,141.914-30.503,167.476-14.125c25.565,16.375,54.631,49.869,40.098,137.763
		c0,0,38.069-80.18-20.908-132.681c-58.975-52.5-145.102-33.583-195.01-0.252C110.828,266.331,117.502,332.143,144.897,364.199z"/>
	<path style="fill:#FFFFFF;stroke:#231F20;stroke-width:2;stroke-miterlimit:10;" d="M310.533,214.823
		c11.181-7.051,33.621,14.318,36.572,19.253c8.955-6.688,5.165-38.845-1.309-35.867
		C333.185,204.012,321.924,207.641,310.533,214.823z"/>
	<path style="fill:#FFFFFF;stroke:#231F20;stroke-width:2;stroke-miterlimit:10;" d="M381.822,269.824
		c1.602-13.104-25.018-24.557-30.303-25.177c2.159-10.929,30.632-20.929,30.632-13.803
		C382.151,244.728,383.454,256.475,381.822,269.824z"/>
	<path style="fill:#FFFFFF;stroke:#231F20;stroke-width:2;stroke-miterlimit:10;" d="M342.088,223.622
		c-6.998,4.095-10.878,9.852-6.761,17.424c1.128,2.079,14.56,14.432,16.021,13.634c7.213-3.948,18.725-8.293,12.957-18.1
		C359.675,228.711,350.42,218.068,342.088,223.622z"/>
	<path style="fill:#FFFFFF;stroke:#231F20;stroke-width:2;stroke-miterlimit:10;" d="M255.762,418.92
		c-6.204-0.127-15.989-1.813-20.268-6.95c-3.812-4.576-2.628-7.748,3.646-8.212c8.994-0.665,16.232,5.591,25.871,4.003
		c3.487-0.573,10.654-2.855,9.452,3.247C273.256,417.164,260.637,418.96,255.762,418.92z"/>
	<path style="fill:#FFFFFF;stroke:#231F20;stroke-width:2;stroke-miterlimit:10;" d="M263.558,407.934
		c0.384,0.2,0.773,0.378,1.147,0.603c1.635,1.634,3.264,4.418,4.899,7.537c-4.442,2.14-10.723,2.874-13.842,2.847
		c-6.106-0.125-15.651-1.778-20.03-6.724c4.084-3.759,9.091-6.037,14.219-6.675C254.282,406.86,258.619,408.367,263.558,407.934z"/>
	<path style="fill:#FFFFFF;stroke:#231F20;stroke-width:2;stroke-miterlimit:10;" d="M708.119,374.463
		c5.739,2.081,9.383-8.351,4.279-11.072C705.544,359.732,702.431,372.4,708.119,374.463z"/>
	<path style="fill:#FFFFFF;stroke:#231F20;stroke-width:2;stroke-miterlimit:10;" d="M835.231,375.025
		c5.738,2.081,9.382-8.351,4.28-11.072C832.656,360.294,829.544,372.962,835.231,375.025z"/>
	<path style="fill:#FFFFFF;stroke:#231F20;stroke-width:2;stroke-miterlimit:10;" d="M194.047,374.475
		c5.739,2.081,9.383-8.351,4.28-11.072C191.473,359.744,188.359,372.411,194.047,374.475z"/>
	<path style="fill:#FFFFFF;stroke:#231F20;stroke-width:2;stroke-miterlimit:10;" d="M321.16,376.131
		c5.738,2.081,9.381-8.351,4.28-11.073C318.585,361.399,315.473,374.067,321.16,376.131z"/>
</g>
</svg>
