<?xml version="1.0" encoding="utf-8"?>
<!-- Generator: Adobe Illustrator 16.0.0, SVG Export Plug-In . SVG Version: 6.00 Build 0)  -->
<!DOCTYPE svg PUBLIC "-//W3C//DTD SVG 1.1//EN" "http://www.w3.org/Graphics/SVG/1.1/DTD/svg11.dtd">
<svg version="1.1" id="Layer_1" xmlns="http://www.w3.org/2000/svg" xmlns:xlink="http://www.w3.org/1999/xlink" x="0px" y="0px"
	 width="600px" height="600px" viewBox="0 0 600 600" enable-background="new 0 0 600 600" xml:space="preserve">
<path fill="#FFFFFF" stroke="#231F20" stroke-width="2" d="M142.785,251.687c-8.581-2.806-15.741-10.126-20.917-17.305
	c-2.146,14.388,0.58,28.902,7.539,41.649c3.172,5.811,7.104,11.188,11.51,16.121c2.14,2.396,4.393,4.688,6.736,6.885
	c2.422,2.27,4.539-1.715,6.001-4.005C162.615,281.002,152.385,262.603,142.785,251.687z"/>
<path fill="#FFFFFF" stroke="#231F20" stroke-width="2" d="M152.176,204.35c14.198-2.687,29.949,1.151,43.038,6.449
	c-9.746-1.874-24.803-3.765-32.733,3.636c11.727-2.666,26.106-3.463,36.976,2.424c-6.598,0.213-29.695,0.789-29.096,10.952
	c10.518-4.679,23.584-6.528,34.552-2.465c-6.814,0.942-28.963,4.262-26.368,14.892c9.027-6.233,20.905-9.746,31.823-7.963
	c-5.721,2.39-24.803,10.223-21.216,18.863c6.441-6.938,16.576-15.111,26.671-13.668c-4.405,3.361-23.64,17.747-16.973,24.33
	c4.786-7.625,13.931-19.655,24.247-17.902c-5.034,3.991-17.703,14.668-12.123,21.989c3.589-7.893,11.013-14.533,20.003-14.748
	c-5.208,4.216-13.61,12.854-9.092,20.061c3.691-6.861,10.625-16.278,19.397-15.681c-5.166,5.866-9.95,14.702-7.273,22.66
	c2.993-7.043,8.751-15.402,16.972-16.379c-4.119,6.458-10.159,17.773-5.456,25.222c3.008-8.195,9.46-19.251,19.397-19.248
	c-3.781,6.613-9.989,18.154-6.062,25.747c3.021-8.256,8.786-20.455,18.364-22.321c-3.869,7.204-10.745,21.944-3.21,28.83
	c1.19-9.212,6.409-18.94,15.761-21.851c-3.977,6.184-11.319,19.146-4.85,25.782c3.105-5.862,10.361-8.926,16.427-10.44
	c-3.043,3.018-8.576,8.594-7.386,13.347c1.02,4.075,2.754,1.233,4.378-0.353c3.514-3.431,8.143-6.658,13.252-6.64
	c-3.665,2.674-7.312,7.571-4.243,12.04c3.255-4.041,8.553-6.354,13.335-7.955c-1.727,3.059-5.205,10.6,0,12.23
	c5.229,1.638,10.216-5.565,15.155-6.934c-0.35,1.08-2.383,9.322-3.074,9.364c-2.327,0.144-4.655,0.285-6.982,0.428
	c-10.486,0.644-20.972,1.285-31.458,1.927c-7.323,0.449-14.646,0.897-21.969,1.347c-3.492,0.214-10.558-5.205-13.58-6.72
	c-16.991-8.524-33.983-17.049-50.974-25.573c-3.895-1.954-7.099-6.292-10.203-9.257c-7.977-7.619-15.953-15.237-23.929-22.856
	c-3.236-3.09-6.471-6.181-9.707-9.271c-1.683-1.607-1.995-6.838-2.558-8.992C158.332,227.884,155.254,216.117,152.176,204.35z"/>
<path fill="#FFFFFF" stroke="#231F20" stroke-width="2" d="M154.601,251.138c15.122-7.241,2.417-40.114-1.593-51.035
	c-0.898-2.447-0.63-3.441-0.182-6.213c0.837-5.179-18.167-7.689-22.017-7.958c-12.089-0.842-24.563,2.467-33.539,10.874
	c-5.169,4.842-2.594,8.958-1.488,15.764c0.935,5.752,11.575,10.758,15.961,14.099c4.843,3.689,9.136,6.821,13.023,11.393
	C131.586,246.08,143.3,256.55,154.601,251.138C170.361,243.591,138.84,258.686,154.601,251.138z"/>
<path fill="#FFFFFF" stroke="#231F20" stroke-width="2" d="M158.803,237.187c0,12.091-18.75,12.091-18.75,0
	S158.803,225.096,158.803,237.187z"/>
<path fill="#231F20" d="M137.325,199.046c0,6.84-10.607,6.84-10.607,0C126.717,192.205,137.325,192.205,137.325,199.046z"/>
<path fill="#FFFFFF" stroke="#231F20" stroke-width="2" d="M530.422,382.284c-14.063-19.613-39.038-30.147-61-37.972
	c-28.008-9.979-57.238-16.32-86.372-22.002c-24.812-4.84-50.391-8.011-74.718-15.016c-32.474-9.351-62.974-27.037-90.123-46.874
	c-10.57-7.723-21.818-16.005-30.086-26.287c-11.605-14.43-18.218-31.947-35.07-41.65c-1.557,9.63,4.054,18.993,6.098,28.508
	c2.628,12.233,4.538,37.433-16.367,30.693c11.246,12.784,21.906,34.966,6.259,48.634c11.276,10.238,24.501,18.719,38.442,24.867
	c4.53,1.998,7.982,6.895,11.869,10.01c6.426,5.15,13.432,9.561,20.812,13.212c26.898,13.311,57.725,16.425,87.355,15.165
	c12.255-0.521,24.459-1.828,36.598-3.547c8.292-1.176,16.456-2.797,24.861-2.688c23.67,0.309,47.62,5.368,70.475,11.158
	c19.326,4.896,38.993,10.704,56.747,19.941c8.872,4.615,24.093,13.047,18.286,25.275c-6.864,14.456-28.747,20.716-42.653,25.023
	c-11.373,3.521-23.026,6.369-34.761,8.404C467.896,447.52,567.292,433.705,530.422,382.284"/>
<path fill="#FFFFFF" stroke="#231F20" stroke-width="2" d="M147.843,293.223c-0.691,2.786-0.952,5.684-0.648,8.542
	c0.153,1.437,2.262,6.24,1.859,7.242c-0.759,1.889-1.518,3.775-2.276,5.663c-2.901,7.216-5.803,14.433-8.704,21.649
	c-1.25,3.106-2.2,8.095-4.505,10.617c-4.455,4.873-8.91,9.748-13.365,14.623c-1.59,1.739-7.729,10.838-10.139,10.989
	c-6.524,0.41-13.048,0.819-19.573,1.229c-0.471,0.029-5.244,0.539-5.286,0.185c-0.387-3.299-3.1-5.632-6.244-6.293
	c-7.66-1.61-9.729,6.683-9.848,12.663c0.891-1.973,4.101-9.35,7.164-7.792c2.406,1.226,2.709,5.817,3.498,8.096
	c1.157,3.345,4.301,3.976,7.524,4.126c11.634,0.545,23.348,0.184,34.989,0c-1.468-3.296-5.439-7.572-2.194-10.051
	c5.648-4.314,11.297-8.629,16.946-12.943c4.018-3.069,8.036-6.139,12.053-9.207c2.2-1.68,3.703-8.541,4.763-11.008
	c2.961-6.893,5.922-13.785,8.883-20.679c1.564-3.642,2.786-8.911,5.196-12.095c2.548-3.367,5.818-4.292,6.865-9.04
	c0.918-4.167-0.155-8.684-2.872-11.979C164.903,279.246,150.51,282.481,147.843,293.223
	C146.708,297.797,149.647,285.954,147.843,293.223z"/>
<path fill="#FFFFFF" stroke="#231F20" stroke-width="2" d="M302.416,331.893c-21.625-3.795-45.65-1.541-64.165,11.051
	c19.131,13.275,38.261,26.553,57.392,39.83c-10.24-0.164-20.481-0.325-30.721-0.488c0.465-6.176-3.323-11.113-9.699-11.464
	c-10.572-0.583-13.246,12.05-7.273,19.008c-0.833-3.065-1.534-6.599-0.828-9.748c1.313-5.853,9.329-2.649,11.282,1.155
	c2.323,4.522-1.204,9.603,5.735,10.856c2.455,0.444,5.013,0.253,7.493,0.253c18.026,0,36.053,0,54.079,0
	c-4.525-2.059-9.051-4.117-13.576-6.174c-2.912-1.324-4.029-4.363-5.735-7.033c-5.946-9.307-11.892-18.613-17.837-27.921
	c4.592,0.298,10.456,1.681,14.959,0.356C313.504,348.635,312.667,333.689,302.416,331.893
	C290.507,329.802,305.822,332.489,302.416,331.893z"/>
<path fill="#FFFFFF" stroke="#231F20" stroke-width="2" d="M147.721,107.865c2.106,0.082,3.848,0.71,5.227,1.884
	c1.377,1.176,2.268,2.534,2.674,4.072c0.405,1.54,0.283,3.06-0.365,4.558c-0.649,1.5-1.986,2.653-4.011,3.464
	c-1.458,0.566-3.181,0.931-5.166,1.094c-1.986,0.161-3.971,0.222-5.956,0.182c-1.987-0.042-3.829-0.122-5.53-0.243
	c-1.701-0.121-2.999-0.182-3.89-0.182h-7.171c-1.702,0-3.16-0.467-4.375-1.398c-1.216-0.931-2.087-2.045-2.613-3.342
	c-0.528-1.295-0.649-2.674-0.365-4.133c0.283-1.458,1.033-2.795,2.249-4.011c1.134-1.134,2.632-1.781,4.497-1.944
	c1.863-0.162,3.727-0.162,5.591,0V59.732c-1.865,0-3.606-0.019-5.227-0.061c-1.622-0.04-3.242-0.627-4.862-1.763
	c-1.215-0.891-2.026-1.924-2.431-3.1c-0.407-1.173-0.467-2.349-0.183-3.525c0.283-1.173,0.83-2.288,1.641-3.342
	c0.809-1.052,1.823-1.823,3.039-2.31c1.134-0.486,2.31-0.729,3.525-0.729c4.132,0,8.284-0.019,12.458-0.061
	c4.172-0.04,8.366-0.019,12.58,0.061c0.404,0,0.79,0.122,1.155,0.365c0.365,0.243,0.748,0.446,1.155,0.607
	c1.863,1.054,3.118,2.553,3.768,4.498c0.648,1.944,0.405,3.85-0.729,5.712c-0.568,0.973-1.276,1.723-2.127,2.249
	c-0.851,0.528-1.784,0.893-2.796,1.094c-1.014,0.203-2.047,0.304-3.099,0.304c-1.054,0-2.066,0-3.039,0v48.375
	c0.648,0,1.235-0.019,1.763-0.061c0.526-0.04,1.113-0.101,1.762-0.182h0.851V107.865z"/>
<path fill="#FFFFFF" stroke="#231F20" stroke-width="2" d="M212.746,48.063c0.323-2.997,1.356-5.206,3.099-6.625
	c1.742-1.417,3.586-2.106,5.53-2.066c1.945,0.042,3.747,0.79,5.409,2.249c1.66,1.458,2.531,3.525,2.613,6.199
	c0.161,2.756-0.547,4.883-2.127,6.381c-1.58,1.5-3.384,2.351-5.409,2.552c-2.026,0.203-3.931-0.344-5.712-1.641
	c-1.784-1.295-2.877-3.362-3.282-6.199L212.746,48.063z"/>
<path fill="#FFFFFF" stroke="#231F20" stroke-width="2" d="M228.79,117.224c-0.163,1.622-0.729,3.06-1.702,4.315
	c-0.972,1.255-2.087,2.167-3.342,2.735c-1.257,0.566-2.613,0.688-4.072,0.365c-1.458-0.325-2.755-1.216-3.889-2.674
	c-0.649-0.811-1.115-1.721-1.398-2.735c-0.285-1.012-0.467-2.066-0.547-3.16c-0.082-1.094-0.103-2.188-0.061-3.282
	c0.04-1.094,0.061-2.085,0.061-2.978c-0.082-4.78-0.103-9.521-0.061-14.221c0.04-4.699,0.019-9.439-0.061-14.221
	c0-1.945-0.122-3.908-0.365-5.895c-0.243-1.984-0.122-3.95,0.365-5.895c0.404-1.458,1.113-2.714,2.127-3.768
	c1.012-1.052,2.146-1.781,3.403-2.188c1.255-0.405,2.553-0.444,3.89-0.122c1.337,0.325,2.492,1.175,3.464,2.552
	c1.295,1.622,1.945,3.221,1.945,4.801s0,3.506,0,5.773c0,2.756,0,5.511,0,8.265c0,2.756,0.04,5.47,0.122,8.144
	c0.08,3.89,0.122,7.779,0.122,11.668c0,3.89,0,7.779,0,11.669L228.79,117.224L228.79,117.224z"/>
<path fill="#FFFFFF" stroke="#231F20" stroke-width="2" d="M239.364,112.483c-0.486-1.377-0.689-2.735-0.607-4.072
	c0.08-1.337,0.425-2.553,1.033-3.646c0.607-1.094,1.478-1.945,2.613-2.553c1.134-0.607,2.511-0.83,4.132-0.668
	c0.891,0.082,1.702,0.325,2.431,0.729c0.729,0.406,1.397,0.893,2.005,1.458c0.608,0.568,1.215,1.176,1.823,1.823
	c0.608,0.649,1.234,1.215,1.884,1.702c1.377,1.054,2.835,1.823,4.376,2.31c1.538,0.486,3.16,0.851,4.862,1.094
	c1.134,0,2.045-0.283,2.735-0.851c0.688-0.566,1.155-1.255,1.398-2.066c0.243-0.809,0.304-1.681,0.182-2.613
	c-0.122-0.931-0.425-1.681-0.912-2.249c-1.379-1.376-3.06-2.268-5.044-2.674c-1.986-0.404-3.829-0.891-5.53-1.458
	c-2.431-0.809-4.822-1.842-7.171-3.1c-2.351-1.255-4.254-2.978-5.712-5.166c-1.541-2.268-2.452-4.68-2.735-7.232
	c-0.285-2.553-0.082-5.044,0.608-7.475c0.688-2.431,1.842-4.659,3.464-6.686c1.62-2.024,3.565-3.686,5.834-4.983
	c1.702-0.972,3.564-1.599,5.591-1.884c2.025-0.283,4.072-0.344,6.138-0.182c2.066,0.163,4.112,0.547,6.138,1.154
	c2.024,0.608,3.89,1.276,5.591,2.006c1.945,0.893,3.403,2.148,4.375,3.768c0.973,1.622,1.438,3.263,1.398,4.922
	c-0.042,1.662-0.608,3.1-1.702,4.315c-1.094,1.215-2.695,1.823-4.801,1.823c-1.297,0-2.473-0.222-3.525-0.668
	c-1.054-0.444-2.148-0.87-3.282-1.276c-1.458-0.566-3.039-0.952-4.74-1.155c-1.702-0.201-3.081-0.101-4.133,0.304
	c-0.325,0.082-0.689,0.346-1.094,0.79c-0.406,0.446-0.71,0.993-0.912,1.641c-0.203,0.649-0.243,1.297-0.122,1.945
	c0.122,0.649,0.547,1.176,1.276,1.58c1.945,1.054,4.011,1.865,6.199,2.431c2.188,0.568,4.334,1.215,6.442,1.945
	c2.106,0.729,4.072,1.662,5.895,2.795c1.823,1.136,3.343,2.756,4.558,4.862c1.782,3.081,2.693,6.301,2.735,9.663
	c0.04,3.363-0.628,6.502-2.005,9.42c-1.379,2.917-3.403,5.409-6.078,7.475c-2.674,2.066-5.794,3.301-9.359,3.707
	c-2.513,0.243-4.983,0.101-7.415-0.425c-2.431-0.528-4.782-1.379-7.049-2.553c-2.27-1.175-4.376-2.571-6.321-4.193
	c-1.945-1.62-3.646-3.321-5.105-5.105L239.364,112.483z"/>
<path fill="#FFFFFF" stroke="#231F20" stroke-width="2" d="M359.572,122.085c-1.055,1.295-2.271,2.188-3.646,2.674
	c-1.379,0.486-2.795,0.486-4.254,0c-1.459-0.486-2.674-1.581-3.646-3.282c-0.407-0.649-0.729-1.337-0.974-2.066
	c-0.243-0.729-0.365-1.458-0.365-2.188V85.257c-1.539,0-2.938-0.425-4.192-1.276c-1.257-0.851-2.188-1.903-2.795-3.16
	c-0.608-1.255-0.832-2.592-0.668-4.011c0.162-1.417,0.809-2.734,1.944-3.95c0.81-0.891,1.682-1.478,2.613-1.762
	c0.932-0.283,1.924-0.465,2.979-0.547c-0.082-2.511-0.144-4.983-0.184-7.415c-0.042-2.431,0.142-4.862,0.547-7.293
	c0.486-3.808,1.62-7.05,3.403-9.724c1.782-2.674,3.99-4.74,6.625-6.199c2.632-1.458,5.57-2.31,8.812-2.553
	c3.239-0.243,6.604,0.243,10.088,1.458c1.458,0.486,2.855,1.094,4.192,1.823s2.532,1.662,3.586,2.796
	c0.729,0.811,1.256,1.762,1.58,2.856c0.323,1.094,0.383,2.188,0.183,3.282c-0.203,1.094-0.608,2.108-1.216,3.039
	c-0.607,0.932-1.479,1.641-2.612,2.127c-1.541,0.649-3.061,0.811-4.559,0.486c-1.5-0.323-2.978-0.851-4.437-1.58
	c-0.894-0.323-1.743-0.648-2.552-0.973c-0.812-0.323-1.662-0.566-2.554-0.729c-0.893-0.162-1.701-0.04-2.431,0.364
	c-0.729,0.407-1.358,0.954-1.884,1.641c-0.528,0.689-0.934,1.458-1.215,2.31c-0.285,0.851-0.426,1.683-0.426,2.492
	c-0.082,1.865-0.103,3.749-0.061,5.652c0.04,1.905,0.061,3.789,0.061,5.652c1.216-0.08,2.512-0.162,3.89-0.243
	c1.377-0.08,2.734-0.122,4.071-0.122c1.338,0,2.572,0.042,3.709,0.122c1.134,0.082,2.023,0.243,2.674,0.486
	c1.295,0.486,2.35,1.236,3.16,2.249c0.809,1.014,1.337,2.108,1.579,3.282c0.243,1.176,0.142,2.37-0.304,3.585
	c-0.446,1.216-1.236,2.27-2.37,3.16c-1.054,0.811-2.27,1.379-3.646,1.702c-1.379,0.325-2.837,0.547-4.375,0.669
	c-1.541,0.122-3.039,0.163-4.498,0.122c-1.458-0.04-2.755-0.061-3.889-0.061v32.453C361.273,119.25,360.624,120.789,359.572,122.085
	z"/>
<path fill="#FFFFFF" stroke="#231F20" stroke-width="2" d="M382.179,91.577c0.566-2.349,1.356-4.659,2.37-6.928
	c1.012-2.268,2.249-4.437,3.707-6.502c1.459-2.066,3.1-3.951,4.923-5.652c1.823-1.701,3.787-3.078,5.896-4.132
	c3.726-1.945,7.475-2.937,11.243-2.979c3.768-0.04,7.271,0.71,10.514,2.249c3.24,1.541,5.996,3.829,8.265,6.868
	s3.769,6.666,4.498,10.878c0.404,2.755,0.626,5.369,0.668,7.84c0.04,2.473-0.224,5.044-0.79,7.718
	c-0.811,3.81-2.452,7.597-4.923,11.364c-2.473,3.768-5.43,6.928-8.873,9.481c-3.445,2.552-7.213,4.233-11.304,5.044
	c-4.093,0.809-8.205,0.162-12.337-1.945c-1.865-0.893-3.546-1.925-5.044-3.099c-1.5-1.174-2.856-2.572-4.072-4.193
	c-1.379-1.782-2.452-3.646-3.221-5.591c-0.771-1.945-1.398-3.969-1.884-6.077c-0.568-2.268-0.771-4.558-0.607-6.868
	c0.161-2.309,0.444-4.558,0.851-6.746L382.179,91.577z"/>
<path fill="#FFFFFF" stroke="#231F20" stroke-width="2" d="M396.765,94.13c-0.243,1.297-0.445,2.573-0.606,3.829
	c-0.164,1.257-0.164,2.533,0,3.829c0.243,1.865,0.748,3.567,1.519,5.105c0.771,1.541,1.782,2.756,3.039,3.646
	c1.255,0.893,2.693,1.358,4.314,1.398c1.62,0.042,3.361-0.465,5.227-1.52c2.351-1.377,4.376-3.504,6.078-6.381
	c1.702-2.875,2.754-5.874,3.16-8.994c0.404-3.119,0.08-6.078-0.972-8.873c-1.055-2.795-3.121-4.801-6.199-6.017
	c-2.026,0-3.891,0.385-5.591,1.155c-1.702,0.771-3.182,1.783-4.437,3.039c-1.257,1.257-2.352,2.735-3.282,4.437
	C398.081,90.483,397.331,92.267,396.765,94.13z"/>
<path fill="#FFFFFF" stroke="#231F20" stroke-width="2" d="M445.382,83.13c0.08-0.526,0.04-1.478-0.122-2.856
	c-1.297-0.729-2.31-1.66-3.039-2.796c-0.729-1.134-1.154-2.349-1.275-3.646c-0.122-1.295,0.122-2.532,0.729-3.708
	c0.608-1.173,1.6-2.167,2.979-2.978c1.862-1.052,3.908-1.255,6.138-0.608c2.228,0.649,4.152,1.622,5.772,2.917
	c2.024-1.538,4.134-2.835,6.32-3.889c2.188-1.052,4.416-1.763,6.686-2.127c2.268-0.364,4.576-0.304,6.928,0.183
	c2.35,0.486,4.659,1.5,6.928,3.039c1.134,0.729,2.188,1.641,3.16,2.735c0.973,1.094,1.58,2.33,1.823,3.707
	c0.405,2.026,0.243,3.789-0.486,5.287c-0.729,1.5-1.744,2.595-3.039,3.282c-1.297,0.689-2.755,0.893-4.375,0.607
	c-1.622-0.283-3.16-1.155-4.619-2.613c-0.485-0.323-0.832-0.587-1.032-0.79c-0.203-0.201-0.629-0.465-1.276-0.79
	c-1.297-0.323-2.573-0.243-3.829,0.243c-1.257,0.486-2.473,1.155-3.646,2.005c-1.176,0.851-2.27,1.784-3.281,2.796
	c-1.015,1.014-1.926,1.926-2.735,2.735v30.994c0,1.216-0.243,2.391-0.729,3.525c-0.729,1.863-1.885,3.16-3.464,3.89
	c-1.58,0.729-3.16,0.931-4.74,0.607c-1.58-0.325-2.959-1.135-4.133-2.431c-1.176-1.297-1.763-2.957-1.763-4.983V83.434
	C445.26,83.758,445.3,83.658,445.382,83.13z"/>
<path fill="#FFFFFF" stroke="#231F20" stroke-width="2" d="M159.996,503.865c2.106,0.082,3.848,0.71,5.227,1.884
	c1.377,1.176,2.268,2.534,2.674,4.072c0.405,1.54,0.283,3.06-0.365,4.558c-0.649,1.5-1.986,2.653-4.011,3.464
	c-1.458,0.566-3.181,0.932-5.166,1.094c-1.986,0.161-3.971,0.223-5.956,0.183c-1.987-0.042-3.829-0.122-5.53-0.243
	c-1.701-0.121-2.999-0.182-3.89-0.182h-7.171c-1.702,0-3.16-0.468-4.375-1.398c-1.216-0.931-2.087-2.045-2.613-3.342
	c-0.528-1.295-0.649-2.674-0.365-4.133c0.283-1.458,1.033-2.795,2.249-4.012c1.134-1.134,2.632-1.78,4.497-1.943
	c1.863-0.162,3.727-0.162,5.591,0v-48.133c-1.865,0-3.606-0.02-5.227-0.062c-1.622-0.04-3.242-0.627-4.862-1.763
	c-1.215-0.892-2.026-1.924-2.431-3.101c-0.407-1.173-0.467-2.349-0.183-3.524c0.283-1.173,0.83-2.288,1.641-3.342
	c0.809-1.053,1.823-1.823,3.039-2.311c1.134-0.485,2.31-0.729,3.525-0.729c4.132,0,8.284-0.02,12.458-0.062
	c4.172-0.04,8.366-0.019,12.58,0.062c0.404,0,0.79,0.122,1.155,0.364c0.365,0.243,0.748,0.446,1.155,0.607
	c1.863,1.054,3.118,2.553,3.768,4.498c0.648,1.944,0.405,3.85-0.729,5.712c-0.568,0.973-1.276,1.723-2.127,2.249
	c-0.851,0.528-1.784,0.893-2.796,1.094c-1.014,0.203-2.047,0.305-3.099,0.305c-1.054,0-2.066,0-3.039,0v48.375
	c0.648,0,1.235-0.02,1.763-0.062c0.526-0.04,1.113-0.101,1.762-0.182L159.996,503.865L159.996,503.865z"/>
<path fill="#FFFFFF" stroke="#231F20" stroke-width="2" d="M181.509,542.03c-1.379-1.702-2.108-3.464-2.188-5.287
	c-0.082-1.823,0.323-3.384,1.215-4.68c0.891-1.298,2.167-2.188,3.829-2.675c1.66-0.485,3.504-0.242,5.531,0.729
	c0.891,0.646,1.702,1.134,2.431,1.458c0.729,0.323,1.742,0.809,3.039,1.458c1.216,0.565,2.593,0.992,4.133,1.276
	c1.539,0.282,2.997,0.344,4.375,0.182c2.754-0.163,4.881-0.628,6.381-1.397c1.499-0.771,2.572-1.782,3.221-3.039
	c0.647-1.257,1.033-2.796,1.155-4.618c0.122-1.823,0.182-3.871,0.182-6.139c-2.594,0.892-5.187,1.561-7.779,2.006
	c-2.594,0.444-5.269,0.506-8.022,0.183c-5.348-0.649-9.745-2.552-13.188-5.712c-3.445-3.161-5.956-6.929-7.536-11.305
	c-1.58-4.375-2.229-9.055-1.945-14.039c0.283-4.982,1.438-9.582,3.464-13.795c1.215-2.431,2.875-4.68,4.983-6.746
	c2.106-2.065,4.476-3.768,7.11-5.104c2.632-1.337,5.388-2.207,8.265-2.613c2.875-0.403,5.652-0.161,8.326,0.729
	c1.538,0.567,3.039,1.136,4.497,1.702c1.458,0.567,2.875,1.297,4.254,2.188c1.538-1.376,3.342-2.066,5.409-2.066
	s3.829,0.973,5.287,2.917c0.323,0.486,0.688,1.033,1.094,1.642c0.404,0.607,0.607,1.197,0.607,1.763
	c0.08,8.671,0.101,17.32,0.061,25.95c-0.042,8.63-0.061,17.281-0.061,25.95c0,3.482-0.467,6.725-1.397,9.724
	c-0.933,2.997-2.331,5.652-4.193,7.961c-1.865,2.311-4.175,4.193-6.928,5.652c-2.756,1.459-5.956,2.389-9.603,2.796
	c-1.865,0.161-3.688,0.243-5.469,0.243c-1.784,0-3.607-0.203-5.47-0.608c-2.594-0.486-5.086-1.297-7.475-2.431
	c-2.391-1.135-4.761-2.392-7.111-3.769L181.509,542.03z"/>
<path fill="#FFFFFF" stroke="#231F20" stroke-width="2" d="M195.852,504.958c3.565,1.702,6.847,2.249,9.845,1.641
	c2.997-0.606,6.036-1.963,9.116-4.071v-19.326c-2.351-2.351-4.64-3.99-6.867-4.923c-2.23-0.932-4.883-1.194-7.961-0.79
	c-0.568,0.325-1.115,0.607-1.641,0.851c-0.528,0.243-1.075,0.486-1.641,0.729c-1.702,1.944-2.999,3.829-3.89,5.651
	c-0.893,1.823-1.418,3.688-1.58,5.591c-0.164,1.905-0.021,3.851,0.425,5.835c0.444,1.985,1.113,4.152,2.006,6.502
	c0.243,0.406,0.607,0.811,1.094,1.216C195.244,504.271,195.608,504.636,195.852,504.958z"/>
<path fill="#FFFFFF" stroke="#231F20" stroke-width="2" d="M290.779,507.146c0.729,1.054,1.155,2.289,1.276,3.706
	c0.121,1.419-0.042,2.757-0.486,4.012c-0.446,1.257-1.176,2.288-2.188,3.099c-1.014,0.81-2.33,1.174-3.95,1.094
	c-2.108-0.164-3.81-0.893-5.105-2.188c-1.297-1.295-2.513-2.754-3.646-4.376c-3.16,2.595-6.423,4.395-9.785,5.409
	c-3.363,1.012-6.666,1.233-9.906,0.668c-3.242-0.568-6.281-1.926-9.116-4.072c-2.837-2.146-5.227-5.044-7.171-8.691
	c-1.783-3.402-2.776-7.171-2.978-11.304c-0.204-4.132-0.264-8.062-0.183-11.79c0-1.295,0.04-2.571,0.122-3.829
	c0.08-1.255,0.162-2.571,0.243-3.95c0.08-1.052,0.122-2.085,0.122-3.1c0-1.012,0.061-1.964,0.182-2.855
	c0.122-0.892,0.365-1.781,0.729-2.675c0.365-0.891,0.912-1.741,1.641-2.553c0.973-1.052,2.146-1.681,3.525-1.884
	c1.377-0.201,2.693-0.062,3.951,0.425c1.255,0.486,2.349,1.236,3.282,2.249c0.93,1.014,1.438,2.249,1.519,3.708
	c0.162,4.132,0.061,8.307-0.304,12.519c-0.365,4.215-0.346,8.348,0.061,12.398c0.162,1.945,0.668,3.931,1.52,5.956
	c0.851,2.026,2.207,3.485,4.072,4.376c1.863,0.811,3.747,0.75,5.652-0.183c1.903-0.931,3.464-2.046,4.68-3.343
	c0.566-0.646,1.113-1.355,1.641-2.127c0.526-0.77,1.113-1.438,1.763-2.006c-0.325-2.835-0.528-5.671-0.608-8.508
	c-0.082-2.835-0.082-5.671,0-8.508c0-1.538,0.061-3.222,0.183-5.044c0.122-1.823,0.444-3.565,0.972-5.228
	c0.526-1.66,1.316-3.119,2.37-4.376c1.052-1.255,2.553-2.045,4.498-2.37c0.891-0.161,1.762-0.08,2.613,0.243
	c0.851,0.325,1.599,0.771,2.249,1.337c1.134,0.974,1.903,2.066,2.309,3.282c0.405,1.215,0.608,2.512,0.608,3.889
	c0,1.38-0.103,2.777-0.304,4.193c-0.204,1.419-0.346,2.735-0.426,3.95c-0.163,2.27-0.285,4.661-0.364,7.171
	c-0.082,2.513,0,5.025,0.243,7.536c0.243,2.513,0.708,4.942,1.398,7.292C288.367,503.056,289.4,505.202,290.779,507.146z"/>
<path fill="#FFFFFF" stroke="#231F20" stroke-width="2" d="M351.794,511.279c0.647,2.351,0.526,4.296-0.365,5.834
	c-0.893,1.538-2.127,2.57-3.708,3.099c-1.58,0.526-3.302,0.465-5.166-0.182c-1.864-0.649-3.484-1.945-4.861-3.891
	c-2.271,1.702-4.479,2.896-6.625,3.586c-2.148,0.688-4.601,1.073-7.354,1.154c-4.132,0.162-7.821-0.304-11.061-1.396
	c-3.242-1.095-5.978-2.735-8.205-4.924c-2.229-2.188-3.871-4.922-4.923-8.203c-1.054-3.282-1.418-7.069-1.094-11.365
	c0.162-1.782,0.465-3.525,0.912-5.228c0.444-1.701,0.952-3.361,1.521-4.982c0.646-1.782,1.559-3.688,2.734-5.713
	c1.174-2.024,2.37-3.769,3.585-5.228c4.375-5.348,9.846-9.196,16.409-11.547c1.134-0.404,2.674-0.769,4.619-1.094
	c1.945-0.323,3.909-0.465,5.895-0.425c1.985,0.042,3.891,0.304,5.714,0.79c1.822,0.485,3.179,1.337,4.071,2.552
	c0.729,0.972,1.256,1.823,1.58,2.553c0.323,0.729,0.505,1.5,0.547,2.31c0.04,0.811,0.04,1.683,0,2.612
	c-0.042,0.934-0.061,2.087-0.061,3.464c0,2.271-0.021,4.479-0.062,6.624c-0.042,2.148-0.021,4.315,0.062,6.503
	c0,0.729,0,1.684,0,2.856c0,1.175,0.04,2.412,0.122,3.707c0.08,1.297,0.182,2.534,0.304,3.707c0.122,1.176,0.304,2.127,0.547,2.855
	L351.794,511.279z"/>
<path fill="#FFFFFF" stroke="#231F20" stroke-width="2" d="M326.026,505.809c0.891-0.565,1.902-1.193,3.039-1.884
	c1.134-0.688,2.146-1.478,3.038-2.37c-0.729-4.294-1.154-8.588-1.275-12.884c-0.122-4.294-0.104-8.63,0.061-13.006
	c-3.646,0.649-6.928,2.229-9.845,4.74c-2.917,2.513-4.944,5.47-6.078,8.873c-0.485,1.379-0.893,2.796-1.215,4.254
	c-0.325,1.458-0.446,2.877-0.365,4.254c0.08,1.865,0.566,3.424,1.458,4.68c0.892,1.257,1.964,2.208,3.222,2.856
	c1.255,0.648,2.592,1.014,4.011,1.094C323.493,506.499,324.811,506.295,326.026,505.809z"/>
<path fill="#FFFFFF" stroke="#231F20" stroke-width="2" d="M408.798,513.467c-0.243,2.026-0.993,3.687-2.249,4.983
	c-1.257,1.295-2.674,2.105-4.254,2.431c-1.58,0.323-3.099,0.122-4.558-0.606c-1.458-0.729-2.514-2.148-3.16-4.255
	c-0.729-2.268-1.015-4.638-0.852-7.109c0.162-2.471,0.243-4.759,0.243-6.867c0-4.376,0.02-8.73,0.062-13.066
	c0.04-4.334-0.143-8.69-0.547-13.065c-0.082-0.162-0.163-0.304-0.243-0.425c-0.082-0.122-0.243-0.305-0.486-0.547
	c-1.865-0.486-3.85-0.365-5.956,0.363c-2.107,0.729-3.89,1.662-5.348,2.796c-1.297,1.055-2.573,2.492-3.829,4.315
	c-1.257,1.823-1.884,3.585-1.884,5.287v16.772c0,1.297,0.04,2.717,0.122,4.254c0.08,1.54,0.019,3.039-0.184,4.497
	c-0.203,1.458-0.668,2.795-1.396,4.012c-0.729,1.215-1.905,2.105-3.525,2.674c-0.893,0.323-1.723,0.443-2.492,0.365
	c-0.771-0.082-1.601-0.285-2.492-0.608c-1.459-0.486-2.513-1.318-3.16-2.492c-0.649-1.174-1.095-2.431-1.338-3.768
	c-0.242-1.337-0.346-2.632-0.304-3.89c0.04-1.255,0.062-2.249,0.062-2.978c0-1.863-0.021-4.558-0.062-8.083
	c-0.042-3.525-0.061-7.232-0.061-11.122c0-3.889,0-7.597,0-11.122s0-6.218,0-8.083c0-1.782,0.525-3.261,1.58-4.437
	c1.052-1.175,2.289-1.945,3.708-2.311c1.417-0.365,2.917-0.283,4.497,0.243c1.579,0.528,2.896,1.601,3.949,3.221
	c3.24-2.105,6.808-3.524,10.696-4.254c3.891-0.729,7.555-0.607,11,0.365c3.443,0.972,6.32,2.795,8.63,5.47
	c2.311,2.674,3.504,6.362,3.585,11.062c0,0.164,0.04,0.648,0.122,1.458c0.08,0.811,0.122,1.944,0.122,3.402L408.798,513.467
	L408.798,513.467z"/>
<path fill="#FFFFFF" stroke="#231F20" stroke-width="2" d="M471.759,511.279c0.647,2.351,0.526,4.296-0.364,5.834
	c-0.894,1.538-2.128,2.57-3.709,3.099c-1.579,0.526-3.302,0.465-5.166-0.182c-1.864-0.649-3.484-1.945-4.861-3.891
	c-2.271,1.702-4.479,2.896-6.625,3.586c-2.148,0.688-4.601,1.073-7.354,1.154c-4.132,0.162-7.82-0.304-11.061-1.396
	c-3.242-1.095-5.978-2.735-8.205-4.924c-2.229-2.188-3.871-4.922-4.923-8.203c-1.055-3.282-1.418-7.069-1.094-11.365
	c0.161-1.782,0.465-3.525,0.911-5.228c0.444-1.701,0.952-3.361,1.521-4.982c0.646-1.782,1.559-3.688,2.734-5.713
	c1.174-2.024,2.37-3.769,3.586-5.228c4.375-5.348,9.845-9.196,16.408-11.547c1.135-0.404,2.674-0.769,4.619-1.094
	c1.945-0.323,3.909-0.465,5.896-0.425c1.984,0.042,3.89,0.304,5.713,0.79c1.823,0.485,3.179,1.337,4.071,2.552
	c0.729,0.972,1.256,1.823,1.58,2.553c0.323,0.729,0.506,1.5,0.547,2.31c0.041,0.811,0.041,1.683,0,2.612
	c-0.041,0.934-0.061,2.087-0.061,3.464c0,2.271-0.021,4.479-0.061,6.624c-0.042,2.148-0.021,4.315,0.061,6.503
	c0,0.729,0,1.684,0,2.856c0,1.175,0.04,2.412,0.122,3.707c0.08,1.297,0.182,2.534,0.304,3.707c0.122,1.176,0.305,2.127,0.547,2.855
	L471.759,511.279z"/>
<path fill="#FFFFFF" stroke="#231F20" stroke-width="2" d="M445.991,505.809c0.891-0.565,1.903-1.193,3.039-1.884
	c1.134-0.688,2.146-1.478,3.039-2.37c-0.729-4.294-1.155-8.588-1.276-12.884c-0.122-4.294-0.103-8.63,0.061-13.006
	c-3.646,0.649-6.928,2.229-9.845,4.74c-2.917,2.513-4.943,5.47-6.078,8.873c-0.485,1.379-0.893,2.796-1.215,4.254
	c-0.325,1.458-0.446,2.877-0.365,4.254c0.08,1.865,0.566,3.424,1.458,4.68c0.892,1.257,1.965,2.208,3.222,2.856
	c1.255,0.648,2.592,1.014,4.011,1.094C443.458,506.499,444.775,506.295,445.991,505.809z"/>
</svg>
