<?xml version="1.0" encoding="utf-8"?>
<!-- Generator: Adobe Illustrator 16.0.0, SVG Export Plug-In . SVG Version: 6.00 Build 0)  -->
<!DOCTYPE svg PUBLIC "-//W3C//DTD SVG 1.1//EN" "http://www.w3.org/Graphics/SVG/1.1/DTD/svg11.dtd">
<svg version="1.1" xmlns="http://www.w3.org/2000/svg" xmlns:xlink="http://www.w3.org/1999/xlink" x="0px" y="0px" width="1000px"
	 height="1000px" viewBox="0 0 1000 1000" style="enable-background:new 0 0 1000 1000;" xml:space="preserve">
<g id="Layer_3">
	<rect style="fill:#FFFFFF;" width="1000" height="1000"/>
</g>
<g id="Layer_1">
	<path style="fill:#FFFFFF;stroke:#231F20;stroke-width:2;stroke-miterlimit:10;" d="M382.416,472.979
		c-0.456-0.059-0.911-0.124-1.367-0.188c0.687,0.361,1.367,0.719,2.041,1.076C382.865,473.573,382.641,473.277,382.416,472.979z"/>
	<path style="fill:#FFFFFF;stroke:#231F20;stroke-width:2;stroke-miterlimit:10;" d="M843.754,616.843
		c-5.278-4.098-10.631-8.327-16.059-12.602c-30.395-23.928-63.254-49.304-99.201-61.294
		c-59.582-19.872-122.742-36.511-183.739-51.212c-36.833-8.877-264.958-68.371-286.896-43.34
		c-36.209,41.318,80.803,76.816,101.184,81.418c6.807,1.537,13.66,3.078,20.547,4.607c-17.968,6.539-40.336,20.341-51.642,27.088
		c-18.752,11.19-32.148,26.532-46.462,42.114c4.91,7.938,16.216,8.186,24.405,13.91c7.96,5.565,12.195,14.915,20.185,19.253
		c26.439-24.655,45.091-51.497,77.929-69.615c11.427-6.307,22.429-13.611,33.364-20.708c31.274,5.942,62.803,10.74,93.859,12.9
		c33.214,2.311,64.137,4.196,94.518,10.645c20.904,4.439,41.554,11.035,62.519,21.422c32.731,16.217,55.269,31.203,73.249,58.099
		c3.935,5.882,7.654,12.325,11.21,19.486c16.654,33.534,67.4,111.106,112.55,68.784
		C927.594,698.129,875.301,641.346,843.754,616.843z"/>
	<path style="fill:#FFFFFF;stroke:#231F20;stroke-width:2;stroke-miterlimit:10;" d="M331.496,585.205
		c24.264,47.239-35.958,83.542-73.257,98.834c-2.398-47.256,9.393-129.564,78.987-95.169L331.496,585.205z"/>
	<path style="fill:#FFFFFF;stroke:#231F20;stroke-width:2;stroke-miterlimit:10;" d="M344.201,500.061
		c-11.778-19.469-19.638-52.284-41.149-63.708c-15.024-7.977-50.998-2.56-51.12,19.173c-0.07,12.63,17.882,27.189,27.352,33.178
		C301.515,502.764,320.831,493.736,344.201,500.061z"/>
	<path style="fill:#FFFFFF;stroke:#231F20;stroke-width:2;stroke-miterlimit:10;" d="M839.948,454.78
		c1.344-21.773,40.011-31.453,42.776-6.871c2.728,24.255-24.822,56.603-41.188,70.85L839.948,454.78z"/>
	<path style="fill:#FFFFFF;stroke:#231F20;stroke-width:2;stroke-miterlimit:10;" d="M613.891,391.792
		c0.01-4.233,0.721-9.793-1.16-14.279c-20.613,10.705-39.295,23.855-54.447,38.343l-38.088,80.576
		c16.494,2.558,32.823,5.634,49.111,8.905c11.688-17.907,21.738-37.177,30.891-56.382
		C608.587,430.374,614.018,411.784,613.891,391.792z"/>
	<path style="fill:#FFFFFF;stroke:#231F20;stroke-width:2;stroke-miterlimit:10;" d="M758.025,535.379
		c-4.318-12.18-13.34-20.372-25.146-26.31c-39.418-19.562-79.573-21.569-122.857-22.887c-10.833,0.145-20.686,1.938-31.148,3.613
		c-3.07,5.269-6.252,10.46-9.566,15.542c17.201,3.452,34.358,7.121,51.617,10.626c30.929,6.281,131.066,16.767,129.09,60.21
		c1.102-1.443,2.181-2.88,3.231-4.298C761.092,561.289,763.211,547.039,758.025,535.379z"/>
	<path style="fill:#FFFFFF;stroke:#231F20;stroke-width:2;stroke-miterlimit:10;" d="M362.637,436.835
		c7.056,19.997-1.421,43.569,11.32,61.554c7.074,9.987,10.539,7.9,20.105,8.881c17.753,1.82,8.997,23.775,17.765,37.163
		c10.747,16.405,19.088-14.574,32.317-11.457c18.001,4.243,6.149,40.691,20.592,44.456c9.928,2.591,15.6-14.178,24.434-17.722
		c10.947-4.392,17.064,0.032,26.074,6.871c19.133,14.519,19.514-6.166,25.281-23.572c1.904-5.744,4.735-14.006,8.167-18.784
		c3.007-4.186,7.813-4.82,10.696-8.292c5.159-6.229,3.177-31.411,4.39-38.479"/>
	<path style="fill:#FFFFFF;stroke:#231F20;stroke-width:2;stroke-miterlimit:10;" d="M831.436,402.499
		c-51.042-69.909-146.668-62.396-218.705-24.985c1.881,4.485,1.17,10.046,1.16,14.279c0.127,19.992-5.304,38.582-13.693,57.164
		c-6.554,13.756-13.576,27.542-21.324,40.84c10.463-1.676,20.315-3.469,31.148-3.613c43.284,1.318,83.439,3.324,122.857,22.887
		c11.807,5.938,20.828,14.13,25.146,26.31c5.186,11.66,3.066,25.91-4.78,36.497c-1.051,1.418-2.13,2.854-3.231,4.298
		c-0.331,7.314-3.554,15.562-10.493,24.882c-14.606,19.613-54.646,38.995-78.317,25.271c-12.17-7.056-16.604-23.388-8.418-35.355
		c9.377-13.71,26.398-10.441,40.096-6.357c0.085,2.299-0.891,5.94-2.039,7.942c-31.666,9.277-8.092,18.844,10.359,8.71
		c38.139-20.945-9.564-48.107-35.644-41.9c-28.664,6.824-51.948,26.021-44.896,60.356c7.396,36,50.217,44.678,74.942,40.837
		c52.034-8.081,98.547-37.294,138.093-71.083C884.04,546.46,865.109,448.617,831.436,402.499z"/>
	<path style="fill:#FFFFFF;stroke:#231F20;stroke-width:2;stroke-miterlimit:10;" d="M460.409,455.063
		c11.127-0.148,21.235-10.903,18.483-23.427c-0.547,10.951-14.117,14.917-23.158,15.592c-28.69,2.367-53.345-11.251-75.909-27.297
		c-5.552-4.359-12.678-5.418-19.284-5.608c-2.621-0.131-4.7,0.645-5.607,3.018c0.708,2.593,1.511,5.128,2.386,7.613
		c2.391-0.794,5.063-1.033,8.065-0.537C398.753,429.885,425.983,456.722,460.409,455.063z"/>
	<path style="fill:#FFFFFF;stroke:#231F20;stroke-width:2;stroke-miterlimit:10;" d="M595.702,397.636
		c3.355-14.859,6.51-29.503,6.513-44.363C602.227,291,485,307,452.241,314.112c-36.774,7.984-106.378,46.533-100.241,89.068
		c0.706,4.893,1.691,9.61,2.935,14.161c0.907-2.373,2.986-3.148,5.607-3.018c6.606,0.189,13.732,1.249,19.284,5.608
		c22.563,16.046,47.218,29.665,75.909,27.297c9.041-0.675,22.611-4.641,23.158-15.592c2.751,12.523-7.356,23.278-18.483,23.427
		c-34.426,1.659-61.656-25.179-95.023-30.646c-3.002-0.497-5.674-0.258-8.065,0.537c2.681,7.594,6.133,14.682,10.282,21.289
		c10.752,17.125,26.191,31.006,45.054,42.029c26.14,15.274,55.521,33.139,85.617,38.206c34.176,5.753,56.192-16.285,70.612-46.51
		C582.069,452.332,589.045,427.122,595.702,397.636z"/>
	<path style="fill:#FFFFFF;stroke:#231F20;stroke-width:2;stroke-miterlimit:10;" d="M550.238,391.093
		c3.729-13.419,0.03-29.527-7.328-40.611c-11.521-17.355-33.57-18.841-52.233-14.21c-19.475,4.833-44.312,20.089-38.201,43.696
		c1.419,5.48,4.052,10.167,7.479,14.231c7.476,14.404,23.855,28.183,39.824,33.902c31.229,11.186,46.19-18.471,50.781-36.956
		L550.238,391.093z"/>
	<path style="fill:#FFFFFF;stroke:#231F20;stroke-width:2;stroke-miterlimit:10;" d="M483.178,346.204
		c35.033-15.867,66.708,3.043,63.902,41.017C541.656,460.603,407.32,380.56,483.178,346.204z"/>
	<path style="fill:#231F20;stroke:#231F20;stroke-width:2;stroke-miterlimit:10;" d="M499.699,392.923
		c18.904,14.641,28.198-22.286,8.955-24.071C494.196,367.511,489.033,384.663,499.699,392.923z"/>
	<path style="fill:#FFFFFF;stroke:#231F20;stroke-width:2;stroke-miterlimit:10;" d="M782.766,586.721
		c41.631-40.33,63.081-109.887,27.703-160.375c-31.735-45.292-66.549-67.279-123.299-60.55
		c-24.383,2.892-42.457,12.827-58.803,30.907c43.521,11.91,79.966,16.652,118.057,44.541c31.697,23.207,56.277,54.393,45.937,94.681
		c-4.476,17.44-8.584,34.157-9.946,52.188L782.766,586.721z"/>
	<path style="fill:#FFFFFF;stroke:#231F20;stroke-width:2;stroke-miterlimit:10;" d="M615.872,500.375
		c-0.153,0.499-29.171-0.492-31.76-1.071c-8.64-1.935-13.695-13.119-11.665-21.407c2.299-9.383,8.794-14.681,17.55-17.333
		c9.587-2.905,19.714-3.628,29.509-5.585c12.252-2.448,25.644-2.615,32.698,9.552c10.257,17.694-8.957,38.276-15.774,54.049
		c-5.663,13.109-17.499,25.391-25.502,20.479c-9.417-5.775-21.423-2.781-31.612-4.186c-12.034-1.657-21.528-7.359-6.273-15.426
		c9.905-5.235,24.292,0.466,34.865,0.609C611.641,514.013,613.816,507.09,615.872,500.375z"/>
	<path style="fill:#FFFFFF;stroke:#231F20;stroke-width:2;stroke-miterlimit:10;" d="M704.177,483.852
		c-18.312,19.029,6.739,46.039,6.624,68.212c-13.617-2.571-18.676-17.932-30.345-20.459c-17.077-3.7-10.467,11.746-1.488,18.224
		c9.932,7.163,20.555,8.699,28.627,19.029c6.109,7.813,7.725,22.921,19.778,22.843c7.91-15.565-13.718-60.551,3.162-70.058
		c3.2,4.283,4.561,11.811,6.206,16.789c2.754,8.336,5.027,16.845,7.97,25.113c2.225,6.246,5.369,14.827,12.143,17.472
		c8.105,3.164,14.049-4.637,16.64-11.353c4.222-10.937,2.012-21.658-0.563-32.607c-1.843-7.844-6.363-12.764-11.632-18.479
		c-4.857-5.269-6.543-10.859-9.179-17.35c-4.519-11.124-13.849-24.819-26.646-26.991
		C717.369,472.862,709.58,478.239,704.177,483.852z"/>
	<path style="fill:#FFFFFF;stroke:#231F20;stroke-width:2;stroke-miterlimit:10;" d="M537.131,332.928
		c-15.855-11.124,19.958,1.054,33.659,15.419c17.09,17.922,9.979,24.031,1.301,43.07
		C561.863,376.082,562.203,350.518,537.131,332.928z"/>
	<path style="fill:#FFFFFF;stroke:#231F20;stroke-width:2;stroke-miterlimit:10;" d="M514.729,376.614
		c-6.736-1.927-13.578,4.354-6.483,8.352C518.202,390.577,514.852,376.152,514.729,376.614z"/>
	<path style="fill:#FFFFFF;stroke:#231F20;stroke-width:2;stroke-miterlimit:10;" d="M206.006,539.566
		c18.111-13.78,49.906-25.077,58.982-47.677c6.339-15.786-2.865-50.982-24.489-48.798c-12.565,1.271-25.136,20.667-30.087,30.719
		C198.79,497.406,209.817,515.655,206.006,539.566z"/>
	<path style="fill:#FFFFFF;stroke:#231F20;stroke-width:2;stroke-miterlimit:10;" d="M289.247,344.797
		c-16.159,16.023-46.207,31.372-52.258,54.963c-4.226,16.477,9.491,50.172,30.644,45.186c12.292-2.898,22.227-23.768,25.824-34.38
		C301.902,385.654,288.588,368.999,289.247,344.797z"/>
	<path style="fill:#FFFFFF;stroke:#231F20;stroke-width:2;stroke-miterlimit:10;" d="M339.628,578.279
		c-31.344,42.869-90.797,5.322-121.191-21.157c41.164-23.337,120.021-49.707,120.484,27.919L339.628,578.279z"/>
	<path style="fill:#FFFFFF;stroke:#231F20;stroke-width:2;stroke-miterlimit:10;" d="M370.125,676.234
		c4.172-22.367,20.149-52.085,11.703-74.93c-5.9-15.955-36.353-35.86-50.911-19.723c-8.46,9.378-4.754,32.192-1.675,42.965
		C336.472,649.839,356.897,655.961,370.125,676.234z"/>
	<path style="fill:#FFFFFF;stroke:#231F20;stroke-width:2;stroke-miterlimit:10;" d="M476.35,488.117
		c0,38.003,67.904,38.003,67.904,0S476.35,450.113,476.35,488.117C476.35,504.069,476.35,472.165,476.35,488.117z"/>
	<path style="fill:#FFFFFF;stroke:#231F20;stroke-width:2;stroke-miterlimit:10;" d="M570.592,310.825
		c0,0-5.049-39.318-17.948-40.097c-12.899-0.781-15.837,49.162-15.837,49.162S562.975,325.949,570.592,310.825z"/>
	<path style="fill:#FFFFFF;stroke:#231F20;stroke-width:2;stroke-miterlimit:10;" d="M558.084,315.348
		c0,0,21.94-41.52,34.013-39.157c12.072,2.363-2.1,64.367,0.263,66.139C594.719,344.102,558.061,332.064,558.084,315.348z"/>
	<path style="fill:#FFFFFF;stroke:#231F20;stroke-width:2;stroke-miterlimit:10;" d="M625.908,376.723
		c0,0-8.854-50.785,6.793-52.647c15.646-1.864,37.302,30.428,38.115,32.688C671.629,359.022,651.17,378.828,625.908,376.723z"/>
	<path style="fill:#FFFFFF;stroke:#231F20;stroke-width:2;stroke-miterlimit:10;" d="M680.127,356.366
		c0,0,7.085-46.041,21.258-46.041c14.172,0,15.945,36.423,17.126,40.356C719.69,354.615,698.716,365.045,680.127,356.366z"/>
	<path style="fill:#FFFFFF;stroke:#231F20;stroke-width:2;stroke-miterlimit:10;" d="M728.265,350.33
		c0,0,12.401-40.005,21.259-40.005c8.859,0,12.991,47.794,12.991,47.794S731.809,364.354,728.265,350.33z"/>
	<path style="fill:#FFFFFF;stroke:#231F20;stroke-width:2;stroke-miterlimit:10;" d="M770.573,365.581
		c0,0,19.17-35.908,30.363-31.459c11.192,4.447,0.355,47.302-1.62,51.537C797.343,389.894,772.233,379.483,770.573,365.581z"/>
	<path style="fill:#FFFFFF;stroke:#231F20;stroke-width:2;stroke-miterlimit:10;" d="M805.522,394.158
		c-0.288-2.627,30.835-24.109,37.725-15.978c6.891,8.129-16.059,43.337-16.059,43.337S806.534,403.378,805.522,394.158z"/>
	<path style="fill:#FFFFFF;stroke:#231F20;stroke-width:2;stroke-miterlimit:10;" d="M832.683,430.285
		c0,0,17.894-7.554,20.977-3.068c3.086,4.487-11.962,22.027-11.962,22.027S830.806,439.647,832.683,430.285z"/>
	<path style="fill:#FFFFFF;stroke:#231F20;stroke-width:2;stroke-miterlimit:10;" d="M842.645,458.601
		c0,0,19.879-0.128,19.938,6.255c0.06,6.382-15.562,11.297-15.562,11.297S840.861,465.884,842.645,458.601z"/>
</g>
<g id="Layer_2">
	<path style="fill:#FFFFFF;stroke:#231F20;stroke-width:2;stroke-miterlimit:10;" d="M212.069,826.637
		c4.762,0.185,8.918,4.771,6.851,9.559c-2.6,5.999-13.931,4.438-18.785,4.088c-3.935-0.28-10.67,1.139-14.033-1.436
		c-4.842-3.71-2.947-11.653,3.425-12.211c9.146-0.791,5.083-13.21,5.083-21.878c0-7.642,4.017-21.702-4.751-21.935
		c-5.877-0.141-8.76-6.171-5.304-10.662c3.593-4.677,12.377-2.768,17.293-2.818c4.507-0.042,9.322-0.73,13.536,0.939
		c5.609,3.176,4.244,11.138-1.712,12.32c-9.002,1.811-5.581,7.884-5.581,17.586c0,8.89,0,17.778,0,26.668
		C209.396,826.857,210.775,826.782,212.069,826.637z"/>
	<path style="fill:#FFFFFF;stroke:#231F20;stroke-width:2;stroke-miterlimit:10;" d="M231.626,861.333
		c-8.927-11.018,6.172-11.391,12.597-8.177c11.175,5.205,17.68-1.861,17.68-12.486c-22.298,7.664-39.586-10.501-33.992-32.775
		c2.478-9.868,10.39-17.706,20.677-19.158c3.626-0.51,23.729,2.946,25.249,4.973c6.434,9.678,3.718,48.022,0.276,59.115
		C268.262,871.63,244.833,870.701,231.626,861.333z"/>
	<path style="fill:#FFFFFF;stroke:#231F20;stroke-width:2;stroke-miterlimit:10;" d="M244.665,827.631
		c12.649,6.042,24.647-7.78,17.238-19.778C246.159,792.123,234.902,814.671,244.665,827.631
		C247.906,829.179,244.444,827.338,244.665,827.631z"/>
	<path style="fill:#FFFFFF;stroke:#231F20;stroke-width:2;stroke-miterlimit:10;" d="M330.963,829.621
		c6.554,9.459-6.806,13.462-12.818,4.861c-11.105,9.117-25.937,6.617-32.707-6.078c-2.948-5.627-4.429-52.813,9.668-37.514
		c5.907,6.436-0.997,23.016,2.542,31.438c2.669,6.357,9.348,4.77,13.094,0.773c4.918-5.637,2.333-11.99,2.542-19.227
		c0-6.351,9.211-24.8,13.812-11.051C331.074,804.787,322.574,817.785,330.963,829.621
		C331.626,830.578,329.709,827.853,330.963,829.621z"/>
	<path style="fill:#FFFFFF;stroke:#231F20;stroke-width:2;stroke-miterlimit:10;" d="M386.431,833.377
		c2.498,9.068-8.492,10.533-12.817,4.42c-7.388,5.539-18.917,5.927-26.837,1.175c-16.165-9.699-8.113-34.219,3.412-44.035
		c10.72-9.13,30.939-12.507,30.939,5.513C381.127,812.4,380.076,822.847,386.431,833.377z"/>
	<path style="fill:#FFFFFF;stroke:#231F20;stroke-width:2;stroke-miterlimit:10;" d="M363.006,828.404
		c8.795-5.58,4.05-17.487,4.42-27.402C350.813,803.958,347.004,834.824,363.006,828.404
		C363.815,827.891,361.901,828.848,363.006,828.404z"/>
	<path style="fill:#FFFFFF;stroke:#231F20;stroke-width:2;stroke-miterlimit:10;" d="M438.253,835.366
		c-0.561,4.685-5.446,8.489-10.055,6.188c-6.275-3.144-3.437-17.148-3.412-22.527c0.046-10.191-1.284-31.642-14.875-11.893
		c-3.99,5.781-1.957,17.236-1.602,23.922c0.661,12.802-13.963,13.523-13.536,0.719c0.396-12.508-0.055-25.108-0.055-37.625
		c0-6.97,9.083-8.212,12.486-2.982c5.68-3.693,13.099-5.404,19.724-3.537C443.773,792.393,438.253,822.411,438.253,835.366z"/>
	<path style="fill:#FFFFFF;stroke:#231F20;stroke-width:2;stroke-miterlimit:10;" d="M495.49,833.377
		c2.498,9.068-8.492,10.533-12.817,4.42c-7.388,5.539-18.917,5.927-26.838,1.175c-16.164-9.699-8.113-34.219,3.412-44.035
		c10.72-9.13,30.939-12.507,30.939,5.513C490.187,812.4,489.135,822.847,495.49,833.377z"/>
	<path style="fill:#FFFFFF;stroke:#231F20;stroke-width:2;stroke-miterlimit:10;" d="M472.065,828.404
		c8.795-5.58,4.05-17.487,4.42-27.402C459.872,803.958,456.063,834.824,472.065,828.404
		C472.875,827.891,470.96,828.848,472.065,828.404z"/>
	<path style="fill:#FFFFFF;stroke:#231F20;stroke-width:2;stroke-miterlimit:10;" d="M544.99,772.272
		c1.049-9.753,14.823-10.549,15.139-0.222C560.748,782.644,546.057,782.443,544.99,772.272z"/>
	<path style="fill:#FFFFFF;stroke:#231F20;stroke-width:2;stroke-miterlimit:10;" d="M559.576,835.146
		c-1,9.926-12.948,7.689-13.592-1.05c-0.913-12.236,1.051-24.693-0.441-36.906c-1.714-14.014,13.812-13.616,13.812,1.05
		C559.355,810.542,559.603,822.842,559.576,835.146z"/>
	<path style="fill:#FFFFFF;stroke:#231F20;stroke-width:2;stroke-miterlimit:10;" d="M575.045,861.333
		c-8.926-11.021,6.174-11.389,12.598-8.177c11.174,5.206,17.68-1.863,17.68-12.486c-22.299,7.661-39.586-10.499-33.993-32.775
		c2.478-9.867,10.391-17.707,20.678-19.158c3.627-0.51,23.729,2.946,25.249,4.973c6.432,9.689,3.721,48.013,0.275,59.115
		C611.681,871.63,588.252,870.701,575.045,861.333z"/>
	<path style="fill:#FFFFFF;stroke:#231F20;stroke-width:2;stroke-miterlimit:10;" d="M588.084,827.631
		c12.649,6.043,24.647-7.78,17.238-19.778C589.576,792.128,578.319,814.669,588.084,827.631
		C591.324,829.179,587.863,827.338,588.084,827.631z"/>
	<path style="fill:#FFFFFF;stroke:#231F20;stroke-width:2;stroke-miterlimit:10;" d="M674.382,829.621
		c6.553,9.458-6.807,13.465-12.817,4.861c-11.104,9.115-25.938,6.619-32.707-6.078c-2.948-5.627-4.431-52.813,9.668-37.514
		c5.907,6.439-0.998,23.014,2.541,31.438c2.669,6.356,9.349,4.771,13.094,0.773c4.923-5.632,2.334-11.994,2.542-19.227
		c0-6.352,9.205-24.799,13.812-11.051C674.498,804.786,665.995,817.782,674.382,829.621
		C675.045,830.578,673.129,827.853,674.382,829.621z"/>
	<path style="fill:#FFFFFF;stroke:#231F20;stroke-width:2;stroke-miterlimit:10;" d="M729.851,833.377
		c2.493,9.066-8.491,10.536-12.817,4.42c-7.39,5.537-18.917,5.928-26.838,1.175c-16.164-9.7-8.114-34.218,3.412-44.035
		c10.719-9.129,30.939-12.507,30.939,5.513C724.547,812.399,723.493,822.848,729.851,833.377z"/>
	<path style="fill:#FFFFFF;stroke:#231F20;stroke-width:2;stroke-miterlimit:10;" d="M706.425,828.404
		c8.795-5.58,4.05-17.488,4.42-27.402C694.229,803.958,690.428,834.826,706.425,828.404
		C707.234,827.891,705.32,828.848,706.425,828.404z"/>
	<path style="fill:#FFFFFF;stroke:#231F20;stroke-width:2;stroke-miterlimit:10;" d="M781.672,835.366
		c-0.561,4.684-5.446,8.491-10.055,6.188c-6.274-3.142-3.438-17.149-3.412-22.527c0.047-10.196-1.283-31.637-14.876-11.893
		c-3.988,5.781-1.956,17.236-1.602,23.922c0.661,12.802-13.963,13.523-13.536,0.719c0.396-12.508-0.056-25.108-0.056-37.625
		c0-6.969,9.083-8.214,12.486-2.982c5.68-3.693,13.099-5.404,19.724-3.537C787.192,792.392,781.672,822.412,781.672,835.366z"/>
	<path style="fill:#FFFFFF;stroke:#231F20;stroke-width:2;stroke-miterlimit:10;" d="M838.909,833.377
		c2.494,9.068-8.491,10.533-12.818,4.42c-7.387,5.54-18.917,5.926-26.837,1.175c-16.165-9.698-8.113-34.219,3.412-44.035
		c10.72-9.13,30.938-12.506,30.938,5.513C833.604,812.401,832.555,822.845,838.909,833.377z"/>
	<path style="fill:#FFFFFF;stroke:#231F20;stroke-width:2;stroke-miterlimit:10;" d="M815.483,828.404
		c8.795-5.58,4.05-17.488,4.42-27.402C803.293,803.957,799.479,834.823,815.483,828.404
		C816.293,827.891,814.378,828.848,815.483,828.404z"/>
	<path style="fill:#FFFFFF;stroke:#231F20;stroke-width:2;stroke-miterlimit:10;" d="M393.156,934.289
		c4.67,9.017-6.781,9.155-11.022,3.563c-6.254-8.244-9.377-19.508-9.696-29.71c-0.342-10.861,2.126-20.556,7.21-30.041
		c1.324-2.351,12.68-16.552,13.757-5.594c0.489,5.047-5.345,10.884-7.5,15.207c-3.171,6.332-3.61,15.398-3.273,22.127
		C383.084,918.917,385.875,928.422,393.156,934.289z"/>
	<path style="fill:#FFFFFF;stroke:#231F20;stroke-width:2;stroke-miterlimit:10;" d="M400.532,878.764
		c0.788-7.312,11.117-7.912,11.354-0.166C412.39,887.233,402.265,885.44,400.532,878.764z"/>
	<path style="fill:#FFFFFF;stroke:#231F20;stroke-width:2;stroke-miterlimit:10;" d="M411.471,925.919
		c-0.558,5.538-8.203,7.165-9.82,1.367c-2.627-9.335,0.472-20.235-0.705-29.834c-0.998-8.161,10.359-11.566,10.359-3.149
		C411.305,904.842,411.526,915.38,411.471,925.919z"/>
	<path style="fill:#FFFFFF;stroke:#231F20;stroke-width:2;stroke-miterlimit:10;" d="M423.073,945.56
		c-6.694-8.259,4.627-8.549,9.447-6.132c8.383,3.893,13.26-1.39,13.26-9.365c-38.959,13.377-28.482-55.278,1.657-35.801
		c12.168-10.899,8.453,35.098,8.453,38.287C455.891,950.854,435.657,954.66,423.073,945.56z"/>
	<path style="fill:#FFFFFF;stroke:#231F20;stroke-width:2;stroke-miterlimit:10;" d="M432.852,920.283
		c16.802,8.02,18.587-20.805,2.818-18.729C428.593,905.589,428.225,914.141,432.852,920.283
		C435.283,921.443,432.687,920.063,432.852,920.283z"/>
	<path style="fill:#FFFFFF;stroke:#231F20;stroke-width:2;stroke-miterlimit:10;" d="M497.575,921.775
		c3.183,4.603-2.438,11.32-7.127,6.629c-6.805-6.793-27.854,9.252-29.047-15.248c-0.24-4.869-1.218-14.208,0.829-19.227
		c4.975-12.159,9.542,6.853,9.282,9.861c-0.461,5.328,1.475,23.146,10.898,13.095c4.911-5.619,0.444-14.344,2.693-21.423
		c2.093-6.6,9.986-5.464,9.986,1.367C495.089,905.11,492.307,914.346,497.575,921.775
		C498.072,922.494,496.635,920.449,497.575,921.775z"/>
	<path style="fill:#FFFFFF;stroke:#231F20;stroke-width:2;stroke-miterlimit:10;" d="M539.176,924.593
		c2.427,8.791-27.21,7.218-32.278,2.237c-11.741-11.515,0.992-31.313,13.052-35.635C542.84,883.045,531.668,913.34,539.176,924.593z
		"/>
	<path style="fill:#FFFFFF;stroke:#231F20;stroke-width:2;stroke-miterlimit:10;" d="M521.607,920.863
		c7.146-4.538,3.022-12.727,3.314-20.553C511.768,902.656,509.79,925.602,521.607,920.863
		C522.215,920.478,520.779,921.195,521.607,920.863z"/>
	<path style="fill:#FFFFFF;stroke:#231F20;stroke-width:2;stroke-miterlimit:10;" d="M578.043,926.084
		c-1.584,13.191-10.111-1.322-10.111-7.789c0-6.109,3.995-26.075-8.535-16.326c-2.083,1.691-6.083,38.896-12.846,26.644
		c-3.89-7.017-1.16-20.5-1.16-27.929c0-12.846,7.081-8.854,16.658-10.648C582.933,886.112,578.043,914.138,578.043,926.084z"/>
	<path style="fill:#FFFFFF;stroke:#231F20;stroke-width:2;stroke-miterlimit:10;" d="M620.971,924.593
		c2.422,8.794-27.209,7.217-32.279,2.237c-11.736-11.518,0.988-31.312,13.053-35.635
		C624.633,883.046,613.462,913.339,620.971,924.593z"/>
	<path style="fill:#FFFFFF;stroke:#231F20;stroke-width:2;stroke-miterlimit:10;" d="M603.401,920.863
		c7.146-4.538,3.023-12.728,3.315-20.553C593.567,902.655,591.578,925.599,603.401,920.863
		C604.009,920.478,602.572,921.195,603.401,920.863z"/>
	<path style="fill:#FFFFFF;stroke:#231F20;stroke-width:2;stroke-miterlimit:10;" d="M628.014,933.211
		c8.984-9.004,10.711-22.244,9.116-34.516c-1.103-8.468-4.938-15.003-9.655-21.961c-3.852-5.681,5.432-11.44,8.826-4.932
		c10.957,15.449,14.586,33.49,8.702,51.795c-1.458,4.375-8.668,23.618-17.113,17.984C624.56,939.359,626.216,935.61,628.014,933.211
		z"/>
	<path style="fill:#FFFFFF;stroke:#231F20;stroke-width:2;stroke-miterlimit:10;" d="M269.328,407.125
		c29.957,1.163,53.546,42.242,22.338,60.48c-28.924,16.903-68.976,6.923-100.599,6.923c-18.693,0-42.458,4.218-56.577-10.862
		c-10.777-11.511-12.199-29.001-3.131-41.992c11.625-16.652,32.412-16.129,50.676-14.549c0-55.477,0-110.954,0-166.431
		c0-12.936,0-25.872,0-38.808c0-10.651,3.479-13.489-8.291-13.575c-25.42-0.187-63.151-12.479-46.615-46.169
		c15.446-31.468,62.639-21.196,91.093-21.481c26.11-0.25,66.733-8.843,82.076,18.889c15.262,27.585-11.091,48.791-37.048,48.791
		c-15.073,0-13.812-1.833-13.812,11.151c0,13.822,0,27.645,0,41.467c0,55.757,0,111.514,0,167.271
		C256.087,408.23,262.708,407.484,269.328,407.125z"/>
	<g>
	</g>
	<g>
	</g>
	<g>
	</g>
	<g>
	</g>
	<g>
	</g>
	<g>
	</g>
</g>
</svg>
