<?xml version="1.0" encoding="utf-8"?>
<!-- Generator: Adobe Illustrator 16.0.0, SVG Export Plug-In . SVG Version: 6.00 Build 0)  -->
<!DOCTYPE svg PUBLIC "-//W3C//DTD SVG 1.1//EN" "http://www.w3.org/Graphics/SVG/1.1/DTD/svg11.dtd">
<svg version="1.1" id="Layer_1" xmlns="http://www.w3.org/2000/svg" xmlns:xlink="http://www.w3.org/1999/xlink" x="0px" y="0px"
	 width="100%" height="100%" viewBox="0 0 600 600" enable-background="new 0 0 600 600" xml:space="preserve">
<path fill="#FFFFFF" stroke="#231F20" stroke-width="2" stroke-miterlimit="10" d="M158.307,577.682
	c-11.652-29.855-0.068-62.946,3.188-94.146c3.393-32.524,2.966-64.982-1.202-96.924c-3.85-29.516-14.302-59.118-8.403-89.521
	c2.985-15.373,11.529-30.02,16.841-45.125c5.336-15.174,5.434-30.089,1.495-44.798c-8.552-31.926-31.292-59.882-39.189-92.019
	c-0.828-3.365,6.586-4.436,7.407-1.084c7.098,28.875,26.153,54.346,36.17,82.435c4.542,12.732,7.099,25.978,5.447,39.559
	c-1.823,14.998-9.682,29.349-15.486,43.939c-12.409,31.196-4.046,60.905,0.997,91.187c5.146,30.895,6.707,62.328,4.817,93.905
	c-1.084,18.117-3.676,36.198-6.632,54.328c-3.071,18.828-5.472,37.974,1.487,55.807
	C166.507,578.454,159.578,580.938,158.307,577.682L158.307,577.682z"/>
<path fill="#FFFFFF" stroke="#231F20" stroke-width="2" stroke-miterlimit="10" d="M155.419,118.713
	c13.185,25.29,41.75,43.921,52.11,70.324c10.901,27.777,4.258,58.091-3.486,87.115c-4.06,15.21-8.43,30.433-10.674,45.732
	c-2.3,15.696-1.777,31.263-1.115,46.804c1.297,30.558-1.11,61.008-3.707,91.768c-2.953,34.99-4.303,70.46,8.38,103.51
	c1.243,3.235-5.685,5.72-6.935,2.458c-22.241-57.952-2.985-120.791-4.559-181.149c-0.405-15.504-1.635-30.945-0.989-46.53
	c0.601-14.586,3.419-29.119,7.121-43.663c7.826-30.733,18.897-62.274,12.272-92.701c-6.936-31.864-40.31-52.349-55.354-81.207
	C146.84,118.023,153.775,115.561,155.419,118.713L155.419,118.713z"/>
<path fill="#FFFFFF" stroke="#231F20" stroke-width="2" stroke-miterlimit="10" d="M272.646,560.514
	c5.796-17.49,1.143-33.772-6.585-49.563c-7.11-14.525-15.103-28.626-20.887-43.568c-11.877-30.687-17.754-62.623-12.346-95.589
	c5.24-31.938,18.417-63.389,24.387-95.288c6.254-33.437,1.997-66.548-14.44-96.604c-17.296-31.626-49.059-57.467-61.373-90.924
	c-1.195-3.243,5.731-5.73,6.936-2.46c11.164,30.331,38.433,54.287,56.164,82.118c17.987,28.232,25.563,60.289,22.336,92.657
	c-3.191,31.981-16.106,63.517-23.528,95.301c-8.244,35.317-5.397,69.213,6.612,102.479c6.37,17.646,15.794,34.109,23.938,51.202
	c7.662,16.076,12.007,32.897,6.137,50.607C278.861,564.309,271.498,563.98,272.646,560.514L272.646,560.514z"/>
<path fill="#FFFFFF" stroke="#231F20" stroke-width="2" stroke-miterlimit="10" d="M129.078,100.198
	c1.001,30.746,20.051,57.975,22.602,88.434c1.161,13.864-2.247,27.357-8.7,40.902c-6.551,13.758-15.333,27.278-18.639,41.533
	c-3.819,16.465,3.108,31.119,9.049,46.113c5.667,14.305,7.98,27.973,4.374,43.359c-3.884,16.566-9.138,32.294-9.156,48.969
	c-0.02,16.218,2.05,32.243,1.377,48.514c-1.519,36.656-13.507,73.207-25.438,109.4c-1.128,3.429-8.493,3.102-7.35-0.367
	c10.739-32.583,21.554-65.402,24.69-98.413c1.599-16.829,0.071-33.314-0.53-49.986c-0.539-15.024,0.988-29.705,5.294-44.759
	c2.232-7.803,4.68-15.638,5.526-23.506c0.936-8.715-0.738-17.059-3.626-25.238c-5.045-14.278-13.062-28.112-12.909-43.433
	c0.275-27.44,25.665-52.328,28.559-79.633c3.736-35.22-21.404-66.136-22.531-100.805C121.558,97.842,128.964,96.727,129.078,100.198
	L129.078,100.198z"/>
<path fill="#FFFFFF" stroke="#231F20" stroke-width="2" stroke-miterlimit="10" d="M96.614,100.673
	c1.036,16.101,8.719,30.733,14.058,45.933c4.951,14.093,6.655,28.042,1.769,42.955c-4.954,15.117-13.605,29.665-15.754,45.065
	c-2.063,14.803-0.004,29.424-1.265,44.2c-0.619,7.237-2.131,14.448-5.086,21.547c-3.174,7.626-7.869,15.003-10.575,22.702
	c-5.977,17.004,2.244,32.403,8.788,47.708c11.709,27.382,11.302,56.25,7.092,85.592c-5.014,34.954-14.191,70.238-8.837,104.75
	c0.529,3.417-6.879,4.506-7.409,1.085c-9.259-59.701,26.479-123.284,5.22-181.524c-5.277-14.457-14.278-28.377-14.508-43.907
	c-0.227-15.103,10.7-28.392,15.167-43.069c4.792-15.751,2.693-31.505,3.141-47.188c0.406-14.148,4.323-27.429,10.253-41.234
	c3.871-9.006,7.926-18.111,9.152-27.38c1.169-8.832-0.455-17.475-3.085-25.829c-5.291-16.8-14.392-32.653-15.53-50.321
	C88.984,98.318,96.39,97.211,96.614,100.673L96.614,100.673z"/>
<path fill="#FFFFFF" stroke="#231F20" stroke-width="2" stroke-miterlimit="10" d="M227.667,565.153
	c5.849-17.96-3.18-33.355-10.176-49.433c-6.937-15.94-13.606-32.145-16.69-49.004c-5.92-32.343,3.213-65.738,10.919-98.453
	c3.904-16.58,7.507-33.224,8.666-49.853c1.286-18.444-0.888-36.642-1.894-54.901c-1.001-18.179,1.08-36.545,0.199-54.717
	c-0.799-16.527-6.293-31.567-15.203-46.167c-17.492-28.667-44.206-55.496-41.633-89.479c0.264-3.48,7.612-3.095,7.351,0.367
	c-2.357,31.138,22.111,56.698,38.783,82.753c8.478,13.251,15.21,27.116,17.272,42.119c2.42,17.615-0.191,35.7,0.211,53.495
	c0.404,17.954,2.715,35.728,2.711,53.717c-0.004,16.426-2.465,32.879-6.002,49.334c-7.245,33.713-18.569,67.856-15.266,101.48
	c1.969,20.031,9.696,39.105,17.907,57.762c7.333,16.659,16.253,32.745,10.195,51.342
	C233.898,568.951,226.535,568.62,227.667,565.153L227.667,565.153z"/>
<path fill="#FFFFFF" stroke="#231F20" stroke-width="2" stroke-miterlimit="10" d="M336.084,525.204
	c-15.297-10.215-24.352-24.14-33.98-37.451c-10.69-14.787-21.043-29.749-29.705-45.339c-16.679-30.02-26.598-62.754-18.601-96.711
	c7.169-30.443,25.569-59.571,32.676-90.011c3.723-15.947,3.694-31.944-2.757-46.809c-6.577-15.155-18.21-28.466-30.125-41.369
	c-25.152-27.233-55.361-58.319-42.341-95.163c1.206-3.413,8.572-3.089,7.35,0.367c-11.872,33.595,14.323,62.488,37.517,87.429
	c21.956,23.606,41.923,47.88,40.25,78.711c-1.619,29.838-18.726,58.766-29.308,87.865c-5.706,15.688-9.361,31.502-8.72,47.344
	c0.688,17.027,5.487,33.527,12.6,49.277c7.946,17.59,18.612,34.298,30.031,50.62c11.193,16.001,21.531,34.513,39.802,46.714
	C344.098,522.9,339.443,527.447,336.084,525.204L336.084,525.204z"/>
<path fill="#FFFFFF" stroke="#231F20" stroke-width="2" stroke-miterlimit="10" d="M216.784,40.32
	c32.903,9.167,69.27,36.629,75.466,71.949c1.625,9.266-0.288,19.556-6.842,26.304c-8.408,8.657-23.833,9.072-32.693,0.878
	c-2.454,9.955-12.189,17.174-22.389,18.203c-10.201,1.03-20.457-3.429-27.952-10.424c0.163,6.835-5.099,12.752-11.119,15.994
	c-13.205,7.109-31.2,3.621-40.791-7.908c1.678,4.114-0.066,9.021-3.219,12.149c-3.154,3.128-7.458,4.795-11.723,6.04
	c-8.063,2.353-16.662,3.489-24.883,1.765c-8.221-1.724-16.029-6.602-19.97-14.021c0.188,5.362-2.793,10.527-7.036,13.811
	c-4.243,3.285-9.604,4.861-14.945,5.381c-7.351,0.716-15.062-0.546-21.253-4.574c-18.569-12.081-8.548-45.907-1.31-61.85
	C51.4,102.399,58.937,91.915,67.41,82.376c0.958-1.078,1.929-2.146,2.913-3.202c9.87-10.585,21.09-19.979,33.777-26.915
	C139.349,32.987,178.262,29.587,216.784,40.32z"/>
<path fill="#FFFFFF" stroke="#231F20" stroke-width="2" stroke-miterlimit="10" d="M79.693,113.24
	c-13.525-17.501-34.474,12.168-19.229,20.846c2.132,1.213,4.671,1.517,7.122,1.419c2.966-0.118,5.957-0.812,8.484-2.37
	C82.539,129.146,84.341,119.254,79.693,113.24z"/>
<path fill="#FFFFFF" stroke="#231F20" stroke-width="2" stroke-miterlimit="10" d="M57.856,141.936
	c-5.471-7.079-13.945,4.922-7.778,8.433c0.862,0.491,1.89,0.614,2.88,0.575c1.2-0.048,2.41-0.329,3.432-0.959
	C59.007,148.371,59.736,144.369,57.856,141.936z"/>
<path fill="#231F20" d="M198.628,115.024c0.484-6.106,8.831-7.404,10.711-1.35c0.66,2.124,4.086,1.449,3.418-0.697
	c-1.286-4.143-5.093-7.286-9.6-6.816c-4.45,0.464-7.669,4.294-8.013,8.625C194.968,117.03,198.451,117.263,198.628,115.024
	L198.628,115.024z"/>
<path fill="#231F20" d="M136.185,127.745c0.484-6.107,8.831-7.405,10.711-1.35c0.661,2.125,4.086,1.45,3.42-0.696
	c-1.288-4.143-5.095-7.286-9.601-6.816c-4.45,0.463-7.669,4.294-8.013,8.625C132.524,129.75,136.007,129.983,136.185,127.745
	L136.185,127.745z"/>
<path fill="#231F20" d="M165.9,142.053c6.484,8.63,19.764,6.098,22.779-4.206c0.63-2.154-2.672-3.283-3.304-1.125
	c-2.316,7.916-11.954,9.552-16.874,3.003C167.153,137.931,164.557,140.265,165.9,142.053L165.9,142.053z"/>
<path fill="#FFFFFF" stroke="#000000" stroke-width="2" d="M354.01,269.215c1.031,0,1.935,0.258,2.708,0.773
	c0.773,0.516,1.354,1.173,1.74,1.972c0.387,0.8,0.528,1.651,0.425,2.553c-0.104,0.903-0.516,1.74-1.236,2.514
	c-0.465,0.516-1.032,0.903-1.702,1.16c-0.671,0.259-1.367,0.414-2.089,0.464c-0.723,0.052-1.457,0.065-2.204,0.039
	c-0.748-0.025-1.432-0.039-2.051-0.039c0,0.154,0.052,0.889,0.155,2.204s0.206,2.991,0.311,5.028
	c0.103,2.038,0.18,4.306,0.231,6.807c0.051,2.501,0.025,4.963-0.078,7.387c-0.104,2.424-0.321,4.692-0.657,6.807
	c-0.336,2.115-0.812,3.816-1.431,5.105c-0.928,1.907-2.243,3.571-3.944,4.989c-1.7,1.418-3.584,2.486-5.646,3.209
	c-2.063,0.723-4.19,1.057-6.381,1.006c-2.192-0.053-4.242-0.619-6.149-1.702c-1.65-0.929-3.132-2.216-4.446-3.867
	c-1.315-1.649-2.411-3.326-3.287-5.028c-0.567-0.824-0.852-1.688-0.852-2.591c0-0.901,0.193-1.728,0.58-2.475
	s0.967-1.354,1.74-1.818c0.772-0.464,1.702-0.619,2.785-0.464c1.083,0.154,1.946,0.516,2.591,1.083
	c0.644,0.567,1.211,1.212,1.702,1.935c0.489,0.723,0.954,1.469,1.392,2.242c0.438,0.773,0.967,1.432,1.586,1.973
	c0.619,0.543,1.379,0.916,2.282,1.123c0.901,0.207,2.075,0.104,3.519-0.311c0.773-0.206,1.521-0.592,2.243-1.16
	c0.773-0.619,1.327-1.326,1.663-2.127c0.334-0.799,0.567-1.637,0.696-2.514c0.128-0.876,0.194-1.779,0.194-2.707
	s0.024-1.83,0.076-2.707c0.155-3.558,0.155-7.103,0-10.635c-0.154-3.532-0.259-7.078-0.31-10.636
	c-1.753,0.052-3.494,0.078-5.221,0.078c-1.729,0-3.47,0-5.222,0c-1.187,0-2.475,0.065-3.866,0.193
	c-1.394,0.129-2.683-0.039-3.868-0.503c-1.135-0.412-1.935-1.108-2.397-2.088c-0.464-0.979-0.646-1.972-0.542-2.978
	c0.104-1.005,0.516-1.907,1.237-2.707c0.722-0.799,1.727-1.224,3.017-1.276c0.824-0.051,1.65-0.064,2.476-0.039
	c0.823,0.027,1.675,0.039,2.553,0.039c4.279-0.051,8.547-0.089,12.801-0.116C345.386,269.383,349.679,269.319,354.01,269.215z"/>
<path fill="#FFFFFF" stroke="#000000" stroke-width="2" d="M391.137,271.149c0.205-1.907,0.863-3.312,1.973-4.215
	c1.107-0.902,2.281-1.34,3.52-1.315c1.237,0.026,2.384,0.502,3.442,1.431c1.056,0.928,1.61,2.243,1.663,3.945
	c0.103,1.754-0.349,3.107-1.354,4.061c-1.005,0.955-2.153,1.496-3.442,1.624c-1.289,0.129-2.501-0.219-3.635-1.044
	c-1.135-0.824-1.831-2.139-2.088-3.945L391.137,271.149z"/>
<path fill="#FFFFFF" stroke="#000000" stroke-width="2" d="M401.347,315.16c-0.104,1.031-0.464,1.947-1.083,2.746
	s-1.328,1.379-2.127,1.74c-0.8,0.359-1.663,0.438-2.591,0.231c-0.928-0.207-1.753-0.772-2.475-1.702
	c-0.414-0.516-0.709-1.095-0.891-1.74c-0.181-0.644-0.297-1.314-0.348-2.011c-0.052-0.696-0.065-1.393-0.039-2.088
	c0.025-0.696,0.039-1.327,0.039-1.896c-0.052-3.041-0.065-6.059-0.039-9.049c0.025-2.991,0.012-6.008-0.039-9.051
	c0-1.238-0.078-2.487-0.231-3.751c-0.155-1.263-0.078-2.514,0.231-3.751c0.257-0.928,0.708-1.727,1.354-2.397
	c0.644-0.67,1.365-1.134,2.166-1.393c0.799-0.257,1.625-0.283,2.476-0.077c0.851,0.207,1.585,0.748,2.204,1.624
	c0.824,1.032,1.238,2.05,1.238,3.056c0,1.005,0,2.231,0,3.674c0,1.753,0,3.507,0,5.26s0.024,3.48,0.076,5.182
	c0.052,2.475,0.078,4.95,0.078,7.424c0,2.477,0,4.951,0,7.427L401.347,315.16L401.347,315.16z"/>
<path fill="#FFFFFF" stroke="#000000" stroke-width="2" d="M408.076,312.145c-0.311-0.877-0.439-1.742-0.387-2.592
	c0.05-0.851,0.271-1.625,0.656-2.32c0.388-0.695,0.94-1.237,1.663-1.625c0.722-0.387,1.599-0.527,2.63-0.424
	c0.567,0.051,1.083,0.207,1.547,0.463c0.465,0.26,0.891,0.568,1.276,0.929c0.387,0.36,0.773,0.748,1.16,1.159
	c0.387,0.414,0.786,0.773,1.199,1.084c0.876,0.671,1.804,1.16,2.785,1.47c0.979,0.31,2.011,0.542,3.094,0.696
	c0.722,0,1.302-0.18,1.74-0.541c0.438-0.36,0.734-0.799,0.89-1.315c0.155-0.515,0.193-1.069,0.116-1.663
	c-0.078-0.592-0.271-1.07-0.58-1.431c-0.877-0.876-1.947-1.443-3.21-1.702c-1.265-0.257-2.438-0.566-3.521-0.928
	c-1.547-0.516-3.067-1.172-4.562-1.973c-1.496-0.799-2.707-1.895-3.635-3.287c-0.98-1.443-1.562-2.978-1.74-4.603
	c-0.183-1.624-0.052-3.21,0.387-4.757s1.172-2.964,2.204-4.254c1.031-1.289,2.27-2.346,3.713-3.171
	c1.083-0.619,2.27-1.018,3.559-1.199c1.287-0.18,2.591-0.219,3.905-0.116c1.315,0.104,2.617,0.348,3.906,0.735
	c1.288,0.387,2.475,0.812,3.558,1.276c1.237,0.568,2.166,1.367,2.784,2.397c0.619,1.032,0.915,2.077,0.891,3.133
	c-0.026,1.058-0.388,1.972-1.083,2.746c-0.696,0.773-1.715,1.16-3.056,1.16c-0.825,0-1.572-0.141-2.243-0.425
	c-0.67-0.283-1.366-0.553-2.088-0.812c-0.928-0.36-1.934-0.605-3.017-0.735c-1.083-0.128-1.96-0.064-2.629,0.193
	c-0.207,0.052-0.439,0.22-0.696,0.503c-0.259,0.284-0.452,0.632-0.58,1.044c-0.129,0.414-0.154,0.826-0.078,1.238
	c0.078,0.413,0.349,0.748,0.812,1.005c1.236,0.671,2.552,1.187,3.945,1.547c1.392,0.361,2.758,0.773,4.099,1.238
	c1.34,0.464,2.591,1.058,3.751,1.779c1.16,0.723,2.127,1.754,2.9,3.094c1.134,1.96,1.714,4.01,1.74,6.149
	c0.025,2.141-0.399,4.138-1.275,5.994c-0.877,1.856-2.166,3.442-3.868,4.758c-1.702,1.314-3.688,2.101-5.956,2.358
	c-1.6,0.155-3.171,0.064-4.718-0.271c-1.547-0.336-3.043-0.877-4.486-1.625c-1.444-0.748-2.784-1.637-4.022-2.668
	c-1.237-1.031-2.319-2.114-3.248-3.25L408.076,312.145z"/>
<path fill="#FFFFFF" stroke="#000000" stroke-width="2" d="M484.571,318.254c-0.671,0.824-1.444,1.393-2.32,1.702
	c-0.877,0.31-1.779,0.31-2.708,0c-0.928-0.31-1.702-1.005-2.32-2.088c-0.259-0.414-0.464-0.851-0.619-1.315
	c-0.154-0.464-0.231-0.928-0.231-1.392v-20.343c-0.98,0-1.87-0.271-2.668-0.812c-0.8-0.542-1.394-1.211-1.779-2.011
	c-0.387-0.799-0.528-1.649-0.425-2.552c0.104-0.902,0.515-1.741,1.237-2.514c0.515-0.567,1.069-0.939,1.663-1.122
	c0.592-0.18,1.225-0.296,1.895-0.348c-0.052-1.598-0.09-3.171-0.116-4.718c-0.026-1.547,0.089-3.094,0.349-4.641
	c0.31-2.423,1.03-4.486,2.166-6.188c1.134-1.702,2.539-3.017,4.215-3.944c1.675-0.928,3.545-1.47,5.607-1.625
	c2.062-0.155,4.202,0.155,6.42,0.928c0.929,0.309,1.817,0.696,2.668,1.16c0.852,0.464,1.611,1.058,2.282,1.779
	c0.464,0.516,0.8,1.122,1.005,1.818c0.206,0.696,0.244,1.392,0.116,2.088c-0.129,0.696-0.387,1.341-0.772,1.934
	c-0.388,0.594-0.941,1.044-1.663,1.354c-0.98,0.414-1.947,0.516-2.9,0.31c-0.955-0.206-1.895-0.542-2.823-1.005
	c-0.567-0.206-1.108-0.412-1.625-0.619c-0.516-0.205-1.058-0.36-1.624-0.464c-0.567-0.103-1.083-0.025-1.547,0.232
	c-0.464,0.259-0.864,0.607-1.198,1.044c-0.337,0.438-0.594,0.928-0.773,1.47c-0.181,0.541-0.271,1.07-0.271,1.585
	c-0.052,1.187-0.064,2.386-0.039,3.597c0.025,1.212,0.039,2.411,0.039,3.597c0.773-0.051,1.599-0.103,2.476-0.155
	c0.876-0.051,1.74-0.077,2.591-0.077c0.852,0,1.637,0.026,2.359,0.077c0.721,0.052,1.288,0.155,1.701,0.31
	c0.824,0.309,1.495,0.787,2.012,1.431c0.515,0.646,0.851,1.342,1.006,2.088c0.155,0.748,0.089,1.508-0.193,2.282
	c-0.283,0.773-0.787,1.444-1.508,2.011c-0.671,0.516-1.444,0.877-2.321,1.083c-0.877,0.207-1.805,0.348-2.783,0.425
	c-0.98,0.077-1.935,0.104-2.862,0.077c-0.928-0.025-1.754-0.039-2.475-0.039v20.652C485.654,316.45,485.241,317.428,484.571,318.254
	z"/>
<path fill="#FFFFFF" stroke="#000000" stroke-width="2" d="M498.958,298.839c0.36-1.495,0.863-2.964,1.508-4.409
	c0.646-1.443,1.431-2.823,2.359-4.138c0.928-1.315,1.972-2.514,3.132-3.597c1.161-1.083,2.41-1.959,3.751-2.63
	c2.371-1.237,4.757-1.868,7.155-1.895c2.397-0.025,4.627,0.452,6.689,1.431c2.062,0.98,3.815,2.437,5.261,4.37
	c1.442,1.934,2.397,4.242,2.861,6.922c0.258,1.754,0.399,3.417,0.427,4.989c0.024,1.573-0.144,3.21-0.504,4.912
	c-0.516,2.424-1.56,4.834-3.133,7.231c-1.572,2.398-3.455,4.41-5.646,6.033c-2.192,1.625-4.59,2.694-7.193,3.211
	c-2.604,0.515-5.221,0.103-7.851-1.238c-1.188-0.568-2.256-1.225-3.21-1.973c-0.955-0.746-1.818-1.636-2.591-2.668
	c-0.878-1.134-1.561-2.32-2.05-3.558c-0.491-1.238-0.89-2.526-1.198-3.867c-0.361-1.442-0.491-2.901-0.388-4.371
	c0.104-1.469,0.283-2.899,0.542-4.292L498.958,298.839z"/>
<path fill="#FFFFFF" stroke="#000000" stroke-width="2" d="M508.24,300.464c-0.155,0.825-0.284,1.638-0.387,2.437
	c-0.104,0.801-0.104,1.613,0,2.438c0.154,1.188,0.477,2.27,0.967,3.249c0.488,0.979,1.133,1.753,1.934,2.32
	c0.799,0.567,1.714,0.864,2.746,0.89c1.031,0.026,2.139-0.296,3.326-0.967c1.495-0.876,2.785-2.23,3.867-4.061
	c1.083-1.83,1.752-3.738,2.011-5.725c0.257-1.984,0.051-3.868-0.619-5.646c-0.671-1.779-1.986-3.055-3.945-3.829
	c-1.29,0-2.475,0.245-3.558,0.735c-1.083,0.491-2.024,1.135-2.823,1.934c-0.8,0.8-1.496,1.74-2.088,2.823
	C509.078,298.144,508.6,299.278,508.24,300.464z"/>
<path fill="#FFFFFF" stroke="#000000" stroke-width="2" d="M539.178,293.464c0.051-0.335,0.025-0.94-0.078-1.818
	c-0.824-0.464-1.469-1.056-1.934-1.779c-0.464-0.722-0.735-1.495-0.812-2.32c-0.076-0.824,0.077-1.611,0.465-2.359
	c0.387-0.747,1.018-1.379,1.895-1.895c1.186-0.669,2.487-0.799,3.906-0.387c1.417,0.414,2.642,1.032,3.674,1.855
	c1.289-0.979,2.63-1.805,4.021-2.475c1.393-0.669,2.811-1.122,4.255-1.354c1.442-0.232,2.913-0.193,4.408,0.116
	c1.495,0.31,2.965,0.955,4.409,1.934c0.722,0.464,1.393,1.044,2.012,1.741c0.618,0.696,1.006,1.483,1.16,2.359
	c0.258,1.29,0.154,2.411-0.31,3.365c-0.464,0.955-1.109,1.651-1.935,2.088c-0.825,0.438-1.754,0.568-2.784,0.387
	c-1.032-0.18-2.012-0.735-2.939-1.663c-0.309-0.206-0.529-0.374-0.657-0.502c-0.129-0.128-0.399-0.296-0.812-0.503
	c-0.826-0.206-1.638-0.155-2.438,0.155c-0.8,0.309-1.573,0.735-2.319,1.276c-0.749,0.542-1.444,1.135-2.088,1.779
	c-0.646,0.646-1.227,1.226-1.741,1.74v19.724c0,0.773-0.155,1.522-0.464,2.243c-0.465,1.186-1.199,2.012-2.205,2.475
	c-1.005,0.465-2.012,0.593-3.018,0.388c-1.005-0.207-1.883-0.724-2.63-1.548c-0.748-0.824-1.122-1.881-1.122-3.17v-21.657
	C539.1,293.864,539.125,293.8,539.178,293.464z"/>
<path fill="#FFFFFF" stroke="#000000" stroke-width="2" d="M322.373,353.215c1.031,0,1.934,0.258,2.708,0.773
	c0.772,0.516,1.354,1.173,1.74,1.972c0.387,0.8,0.527,1.651,0.425,2.554c-0.104,0.902-0.516,1.739-1.237,2.514
	c-0.464,0.516-1.032,0.902-1.702,1.16c-0.671,0.259-1.367,0.414-2.088,0.463c-0.723,0.053-1.458,0.065-2.205,0.039
	c-0.748-0.024-1.431-0.039-2.05-0.039c0,0.154,0.051,0.89,0.155,2.205c0.103,1.314,0.206,2.99,0.31,5.027
	c0.104,2.038,0.181,4.307,0.232,6.807c0.051,2.502,0.024,4.963-0.078,7.388c-0.104,2.424-0.322,4.692-0.657,6.807
	c-0.336,2.115-0.812,3.816-1.431,5.105c-0.928,1.908-2.243,3.57-3.944,4.989c-1.701,1.418-3.585,2.486-5.646,3.21
	c-2.063,0.722-4.19,1.056-6.382,1.005c-2.191-0.053-4.242-0.619-6.148-1.702c-1.651-0.928-3.132-2.216-4.447-3.867
	c-1.315-1.65-2.411-3.326-3.287-5.028c-0.567-0.824-0.851-1.688-0.851-2.591c0-0.901,0.193-1.728,0.58-2.476
	c0.387-0.746,0.967-1.354,1.74-1.817s1.702-0.619,2.785-0.464c1.083,0.154,1.946,0.516,2.591,1.083
	c0.644,0.567,1.211,1.212,1.702,1.935c0.489,0.723,0.954,1.469,1.392,2.242s0.967,1.432,1.586,1.973
	c0.619,0.543,1.379,0.916,2.282,1.123c0.902,0.207,2.076,0.104,3.519-0.311c0.773-0.206,1.521-0.592,2.243-1.16
	c0.773-0.619,1.327-1.326,1.663-2.127c0.334-0.799,0.567-1.637,0.696-2.514c0.128-0.876,0.193-1.779,0.193-2.707
	s0.025-1.83,0.077-2.707c0.155-3.559,0.155-7.104,0-10.635c-0.155-3.532-0.259-7.078-0.31-10.637
	c-1.753,0.053-3.494,0.078-5.222,0.078c-1.729,0-3.469,0-5.221,0c-1.187,0-2.475,0.065-3.867,0.193
	c-1.393,0.129-2.682-0.039-3.868-0.503c-1.135-0.412-1.934-1.108-2.397-2.089c-0.464-0.979-0.646-1.971-0.542-2.978
	c0.103-1.005,0.515-1.907,1.237-2.707c0.722-0.799,1.727-1.224,3.017-1.276c0.824-0.051,1.65-0.063,2.475-0.039
	c0.824,0.027,1.675,0.039,2.553,0.039c4.279-0.051,8.547-0.088,12.801-0.115C313.749,353.383,318.042,353.318,322.373,353.215z"/>
<path fill="#FFFFFF" stroke="#000000" stroke-width="2" d="M356.097,390.961c1.238-0.309,2.333-0.32,3.287-0.039
	c0.954,0.284,1.688,0.762,2.205,1.432c0.515,0.67,0.747,1.496,0.696,2.475c-0.052,0.98-0.491,2.011-1.315,3.094
	c-0.671,0.877-1.599,1.625-2.785,2.243c-1.187,0.619-2.295,1.109-3.325,1.47c-2.527,0.929-4.926,1.572-7.193,1.935
	c-2.27,0.359-4.396,0.359-6.381,0c-1.986-0.361-3.842-1.109-5.569-2.243s-3.339-2.732-4.834-4.795
	c-1.032-1.393-1.792-2.979-2.282-4.758c-0.49-1.778-0.762-3.597-0.812-5.453c-0.052-1.855,0.103-3.686,0.464-5.491
	c0.36-1.806,0.876-3.429,1.547-4.873c0.876-1.804,2.27-3.454,4.177-4.95c1.907-1.495,4.022-2.681,6.344-3.558
	c2.319-0.876,4.69-1.38,7.115-1.509c2.423-0.127,4.563,0.246,6.42,1.123c1.548,0.723,2.874,1.767,3.983,3.131
	c1.108,1.367,1.869,2.851,2.282,4.449c0.412,1.599,0.451,3.209,0.116,4.834c-0.336,1.623-1.174,3.106-2.515,4.446
	c-1.29,1.29-2.708,2.334-4.254,3.134c-1.547,0.799-3.146,1.495-4.795,2.088c-1.651,0.592-3.339,1.096-5.065,1.508
	c-1.729,0.412-3.392,0.877-4.989,1.392c1.083,1.237,2.319,2.024,3.712,2.358c1.393,0.336,2.849,0.4,4.37,0.193
	c1.521-0.205,3.055-0.631,4.603-1.275c1.547-0.646,2.99-1.354,4.332-2.127L356.097,390.961z"/>
<path fill="#FFFFFF" stroke="#000000" stroke-width="2" d="M340.472,377.657c-1.187,0.671-2.062,1.508-2.629,2.514
	c-0.567,1.005-0.979,2.411-1.237,4.216c1.34-0.412,2.849-0.852,4.524-1.314c1.675-0.465,3.261-0.954,4.757-1.471
	c1.495-0.515,2.758-1.082,3.79-1.701c1.031-0.619,1.547-1.289,1.547-2.012c0-0.412-0.064-0.812-0.192-1.199
	c-0.129-0.387-0.4-0.657-0.812-0.812c-1.443-0.515-2.938-0.619-4.485-0.31c-1.548,0.31-2.837,0.748-3.867,1.315L340.472,377.657z"/>
<path fill="#FFFFFF" stroke="#000000" stroke-width="2" d="M377.986,396.53c0.566,0.516,1.044,1.173,1.431,1.972
	c0.387,0.8,0.592,1.599,0.619,2.398c0.024,0.799-0.155,1.547-0.542,2.242c-0.387,0.696-1.071,1.225-2.05,1.585
	c-0.773,0.258-1.625,0.311-2.553,0.155s-1.845-0.464-2.745-0.928c-0.903-0.464-1.702-1.02-2.398-1.663
	c-0.696-0.646-1.199-1.354-1.508-2.127c-0.104-0.257-0.182-0.554-0.232-0.89c-0.052-0.334-0.077-0.632-0.077-0.891v-42.928
	c0-1.186,0.451-2.191,1.354-3.018c0.9-0.823,1.895-1.314,2.978-1.47c0.516-0.051,1.069,0.026,1.663,0.232
	c0.592,0.207,1.147,0.503,1.663,0.89c0.515,0.387,0.94,0.839,1.276,1.354c0.335,0.517,0.503,1.059,0.503,1.625
	c0,1.342,0,3.121,0,5.338c0,2.218,0.012,4.641,0.039,7.271c0.024,2.63,0.039,5.351,0.039,8.16c0,2.812-0.014,5.505-0.039,8.083
	c-0.027,2.579-0.039,4.938-0.039,7.077c0,2.142-0.027,3.854-0.078,5.144L377.986,396.53z"/>
<path fill="#FFFFFF" stroke="#000000" stroke-width="2" d="M399.489,396.53c0.566,0.516,1.044,1.173,1.431,1.972
	c0.387,0.8,0.592,1.599,0.619,2.398c0.025,0.799-0.155,1.547-0.542,2.242c-0.387,0.696-1.071,1.225-2.05,1.585
	c-0.773,0.258-1.625,0.311-2.553,0.155s-1.845-0.464-2.745-0.928c-0.903-0.464-1.702-1.02-2.398-1.663
	c-0.696-0.646-1.199-1.354-1.508-2.127c-0.104-0.257-0.181-0.554-0.232-0.89c-0.052-0.334-0.077-0.632-0.077-0.891v-42.928
	c0-1.186,0.451-2.191,1.354-3.018c0.901-0.823,1.895-1.314,2.978-1.47c0.516-0.051,1.069,0.026,1.663,0.232
	c0.593,0.207,1.147,0.503,1.663,0.89s0.94,0.839,1.276,1.354c0.335,0.517,0.503,1.059,0.503,1.625c0,1.342,0,3.121,0,5.338
	c0,2.218,0.012,4.641,0.039,7.271c0.024,2.63,0.039,5.351,0.039,8.16c0,2.812-0.014,5.505-0.039,8.083
	c-0.027,2.579-0.039,4.938-0.039,7.077c0,2.142-0.027,3.854-0.078,5.144L399.489,396.53z"/>
<path fill="#FFFFFF" stroke="#000000" stroke-width="2" d="M433.523,367.215c0.618-1.031,1.392-1.74,2.319-2.127
	c0.929-0.387,1.843-0.477,2.746-0.271c0.901,0.207,1.701,0.672,2.397,1.393c0.695,0.723,1.122,1.676,1.275,2.861
	c0.104,0.878-0.064,2.115-0.503,3.713c-0.438,1.599-0.979,3.249-1.624,4.949c-0.646,1.703-1.303,3.326-1.973,4.873
	s-1.212,2.76-1.624,3.636c-1.754,3.868-3.662,7.657-5.724,11.37c-2.063,3.713-4.178,7.398-6.343,11.061
	c-0.31,0.567-0.671,1.263-1.083,2.088c-0.412,0.824-0.839,1.675-1.275,2.553c-0.438,0.876-0.89,1.701-1.354,2.475
	c-0.464,0.773-0.902,1.34-1.314,1.702c-0.929,0.876-1.884,1.393-2.862,1.547c-0.98,0.154-1.87,0.024-2.668-0.387
	c-0.8-0.414-1.444-1.059-1.934-1.935c-0.491-0.877-0.685-1.934-0.58-3.171c0.051-0.464,0.257-1.071,0.619-1.818
	c0.359-0.747,0.772-1.521,1.237-2.319c0.464-0.8,0.929-1.562,1.393-2.282c0.464-0.723,0.823-1.315,1.083-1.779
	c1.03-1.702,2.022-3.402,2.978-5.104c0.954-1.702,1.92-3.403,2.901-5.105c-3.403-2.835-6.356-5.994-8.856-9.475
	c-2.502-3.48-4.422-7.309-5.763-11.486c-0.258-0.721-0.516-1.443-0.773-2.166c-0.258-0.722-0.336-1.47-0.231-2.242
	c0.103-0.877,0.348-1.664,0.734-2.359c0.388-0.696,0.891-1.264,1.509-1.702s1.326-0.683,2.127-0.735
	c0.799-0.051,1.61,0.129,2.437,0.542c0.669,0.361,1.199,0.864,1.586,1.509c0.388,0.645,0.708,1.34,0.967,2.088
	c0.258,0.748,0.477,1.508,0.657,2.281c0.18,0.773,0.399,1.471,0.658,2.088c2.062,5.105,5.182,9.463,9.359,13.072
	c1.494-3.094,2.835-6.199,4.021-9.32c1.187-3.119,2.243-6.304,3.171-9.553L433.523,367.215z"/>
<path fill="#FFFFFF" stroke="#000000" stroke-width="2" d="M460.903,402.254c-0.671,0.824-1.444,1.393-2.32,1.702
	c-0.877,0.31-1.779,0.31-2.708,0c-0.928-0.31-1.702-1.005-2.32-2.088c-0.259-0.414-0.464-0.852-0.619-1.315
	c-0.154-0.464-0.231-0.928-0.231-1.392v-20.343c-0.98,0-1.87-0.271-2.668-0.812c-0.8-0.542-1.394-1.211-1.779-2.011
	c-0.387-0.8-0.528-1.649-0.425-2.552s0.515-1.741,1.237-2.515c0.515-0.567,1.069-0.939,1.663-1.122
	c0.592-0.18,1.225-0.296,1.895-0.348c-0.052-1.598-0.09-3.171-0.116-4.718c-0.026-1.548,0.089-3.095,0.349-4.642
	c0.31-2.423,1.03-4.485,2.166-6.188c1.134-1.702,2.539-3.018,4.215-3.944c1.675-0.928,3.545-1.47,5.607-1.625
	s4.202,0.155,6.42,0.929c0.929,0.309,1.817,0.695,2.668,1.16c0.852,0.463,1.611,1.058,2.282,1.778
	c0.464,0.517,0.799,1.122,1.005,1.817c0.206,0.697,0.244,1.393,0.116,2.089c-0.129,0.696-0.387,1.341-0.772,1.934
	c-0.388,0.595-0.941,1.044-1.663,1.354c-0.98,0.414-1.947,0.516-2.9,0.31c-0.955-0.206-1.895-0.542-2.823-1.005
	c-0.567-0.206-1.108-0.412-1.625-0.619c-0.516-0.205-1.058-0.359-1.624-0.464c-0.567-0.103-1.083-0.024-1.547,0.231
	c-0.464,0.26-0.864,0.607-1.198,1.045c-0.337,0.438-0.594,0.928-0.773,1.47c-0.181,0.541-0.271,1.069-0.271,1.585
	c-0.052,1.188-0.064,2.386-0.039,3.598c0.025,1.211,0.039,2.41,0.039,3.596c0.773-0.051,1.599-0.103,2.476-0.154
	c0.876-0.051,1.74-0.077,2.591-0.077s1.637,0.026,2.359,0.077c0.721,0.052,1.287,0.154,1.701,0.311
	c0.824,0.309,1.495,0.786,2.012,1.43c0.515,0.646,0.851,1.343,1.006,2.089c0.155,0.748,0.089,1.508-0.193,2.282
	c-0.284,0.772-0.787,1.443-1.508,2.011c-0.671,0.516-1.444,0.877-2.321,1.083c-0.877,0.207-1.805,0.348-2.784,0.425
	s-1.934,0.104-2.861,0.077c-0.928-0.025-1.754-0.039-2.476-0.039v20.652C461.986,400.45,461.572,401.428,460.903,402.254z"/>
<path fill="#FFFFFF" stroke="#000000" stroke-width="2" d="M479.079,355.148c0.205-1.906,0.863-3.312,1.972-4.215
	c1.108-0.901,2.282-1.34,3.521-1.314c1.236,0.025,2.384,0.502,3.441,1.431c1.057,0.929,1.611,2.243,1.663,3.945
	c0.104,1.754-0.348,3.106-1.354,4.062c-1.005,0.954-2.153,1.495-3.442,1.623c-1.29,0.129-2.501-0.219-3.635-1.044
	c-1.135-0.823-1.831-2.139-2.088-3.944L479.079,355.148z"/>
<path fill="#FFFFFF" stroke="#000000" stroke-width="2" d="M489.289,399.16c-0.104,1.032-0.464,1.947-1.083,2.746
	s-1.328,1.379-2.127,1.74c-0.8,0.359-1.663,0.438-2.591,0.231c-0.929-0.207-1.753-0.772-2.476-1.702
	c-0.414-0.516-0.709-1.095-0.89-1.74c-0.181-0.644-0.297-1.314-0.348-2.011c-0.053-0.696-0.065-1.393-0.039-2.088
	c0.024-0.696,0.039-1.327,0.039-1.896c-0.053-3.041-0.065-6.059-0.039-9.049c0.024-2.99,0.012-6.008-0.039-9.051
	c0-1.238-0.078-2.486-0.232-3.751c-0.155-1.263-0.078-2.514,0.232-3.751c0.257-0.928,0.708-1.727,1.354-2.396
	c0.645-0.67,1.366-1.135,2.166-1.394c0.799-0.257,1.625-0.282,2.477-0.077c0.851,0.207,1.585,0.748,2.203,1.625
	c0.824,1.031,1.238,2.049,1.238,3.055s0,2.231,0,3.675c0,1.753,0,3.507,0,5.26s0.025,3.479,0.077,5.183
	c0.051,2.475,0.078,4.949,0.078,7.424c0,2.477,0,4.951,0,7.427L489.289,399.16L489.289,399.16z"/>
<path fill="#FFFFFF" stroke="#000000" stroke-width="2" d="M496.018,396.144c-0.31-0.876-0.438-1.741-0.387-2.591
	c0.05-0.851,0.271-1.625,0.657-2.32c0.387-0.695,0.94-1.237,1.663-1.625c0.721-0.387,1.598-0.527,2.63-0.424
	c0.567,0.051,1.083,0.207,1.547,0.463c0.464,0.26,0.89,0.568,1.276,0.929s0.772,0.748,1.16,1.159
	c0.387,0.414,0.785,0.773,1.198,1.084c0.876,0.671,1.805,1.16,2.785,1.47c0.979,0.31,2.011,0.542,3.094,0.696
	c0.723,0,1.303-0.18,1.74-0.541c0.438-0.36,0.735-0.799,0.891-1.315c0.154-0.515,0.192-1.069,0.115-1.663
	c-0.077-0.592-0.271-1.07-0.58-1.431c-0.877-0.876-1.946-1.443-3.21-1.702c-1.264-0.257-2.437-0.566-3.52-0.928
	c-1.547-0.516-3.068-1.172-4.563-1.973c-1.495-0.799-2.706-1.895-3.635-3.287c-0.979-1.442-1.561-2.978-1.74-4.603
	c-0.182-1.624-0.052-3.21,0.388-4.757c0.438-1.547,1.172-2.964,2.204-4.254c1.03-1.289,2.269-2.346,3.713-3.171
	c1.083-0.619,2.269-1.019,3.558-1.199c1.288-0.181,2.591-0.219,3.906-0.116c1.314,0.104,2.617,0.348,3.906,0.735
	c1.288,0.387,2.475,0.812,3.558,1.276c1.237,0.567,2.166,1.366,2.784,2.396c0.619,1.032,0.915,2.077,0.89,3.133
	c-0.025,1.059-0.387,1.973-1.083,2.746c-0.695,0.773-1.715,1.16-3.055,1.16c-0.825,0-1.573-0.141-2.243-0.425
	c-0.67-0.283-1.367-0.554-2.088-0.812c-0.928-0.36-1.935-0.604-3.017-0.735c-1.084-0.127-1.961-0.063-2.63,0.193
	c-0.206,0.053-0.438,0.221-0.695,0.503c-0.259,0.284-0.452,0.632-0.58,1.044c-0.129,0.414-0.155,0.826-0.078,1.238
	c0.078,0.413,0.348,0.748,0.812,1.005c1.237,0.671,2.553,1.187,3.945,1.548c1.393,0.36,2.758,0.772,4.1,1.237
	c1.34,0.464,2.591,1.058,3.75,1.779c1.16,0.723,2.128,1.754,2.9,3.094c1.134,1.96,1.714,4.01,1.741,6.149
	c0.025,2.141-0.4,4.138-1.276,5.994c-0.877,1.856-2.166,3.442-3.867,4.758c-1.702,1.314-3.688,2.101-5.956,2.358
	c-1.6,0.155-3.171,0.064-4.719-0.271c-1.547-0.336-3.043-0.877-4.485-1.625c-1.444-0.748-2.784-1.637-4.022-2.668
	s-2.319-2.114-3.249-3.249L496.018,396.144z"/>
<path fill="#FFFFFF" stroke="#000000" stroke-width="2" d="M537.708,402.911c-1.032,0.747-2.102,1.095-3.21,1.044
	c-1.109-0.052-2.088-0.503-2.939-1.354c-0.851-0.851-1.275-2.022-1.275-3.52v-43.005c0-1.186,0.464-2.191,1.392-3.018
	c0.928-0.824,1.959-1.34,3.094-1.547c1.134-0.205,2.191-0.024,3.172,0.543c0.979,0.567,1.52,1.623,1.624,3.17
	c0.205,2.683,0.296,5.299,0.271,7.852c-0.027,2.552-0.065,5.117-0.116,7.695c1.907-1.289,3.894-2.152,5.956-2.59
	c2.062-0.438,4.048-0.426,5.956,0.039c1.907,0.463,3.687,1.392,5.337,2.784c1.65,1.392,2.99,3.326,4.022,5.802
	c0.722,1.65,1.211,3.416,1.47,5.297c0.257,1.884,0.399,3.791,0.425,5.725s0,3.855-0.077,5.762c-0.077,1.908-0.116,3.713-0.116,5.415
	c0,1.083-0.283,2.063-0.851,2.939c-0.568,0.876-1.276,1.521-2.127,1.934s-1.754,0.542-2.708,0.387
	c-0.955-0.154-1.817-0.723-2.591-1.701c-0.773-1.032-1.251-2.243-1.432-3.637c-0.181-1.392-0.231-2.874-0.154-4.446
	s0.192-3.185,0.348-4.834s0.193-3.235,0.116-4.758c-0.078-1.521-0.375-2.926-0.891-4.215s-1.419-2.346-2.707-3.171
	c-1.031-0.155-1.96-0.089-2.784,0.193c-0.826,0.284-1.574,0.709-2.243,1.276c-0.671,0.567-1.303,1.211-1.896,1.934
	s-1.198,1.443-1.817,2.166c-0.154,0.258-0.336,0.502-0.541,0.734c-0.207,0.231-0.439,0.478-0.696,0.734v14.696
	C539.409,400.939,538.739,402.163,537.708,402.911z"/>
</svg>
