<?xml version="1.0" encoding="utf-8"?>
<!-- Generator: Adobe Illustrator 16.0.0, SVG Export Plug-In . SVG Version: 6.00 Build 0)  -->
<!DOCTYPE svg PUBLIC "-//W3C//DTD SVG 1.1//EN" "http://www.w3.org/Graphics/SVG/1.1/DTD/svg11.dtd">
<svg version="1.1" xmlns="http://www.w3.org/2000/svg" xmlns:xlink="http://www.w3.org/1999/xlink" x="0px" y="0px" width="100%"
	 height="100%" viewBox="0 0 1000 1000" style="enable-background:new 0 0 1000 1000;" xml:space="preserve">
<g id="Layer_3">
	<rect style="fill:#FFFFFF;" width="1000" height="1000"/>
</g>
<g id="Layer_1">
	<path style="fill:#FFFFFF;stroke:#231F20;stroke-width:2;stroke-miterlimit:10;" d="M673.762,611.615
		c-8.918-18.273-15.265-38.625-20.529-58.192c-3.08-11.446-6.527-23.887-6.242-35.854c0.757-31.855,35.119-0.055,46.843,6.488
		c30.945,17.265,59.067,34.95,82.936,61.666c11.524,12.899,40.03,49.31,35.16,68.829c-2.705,10.837-20.224,13.783-30.103,15.989
		c-22.481,5.022-63.051,15.25-79.383-5.913C691.094,649.921,682.008,628.511,673.762,611.615z"/>
	<path style="fill:#FFFFFF;stroke:#231F20;stroke-width:2;stroke-miterlimit:10;" d="M544.939,592.123
		c13.299-15.38,24.648-33.426,34.747-50.994c5.908-10.276,12.426-21.418,15.216-33.06c7.427-30.989-33.935-9.046-46.941-5.726
		c-34.335,8.765-66.05,18.658-95.963,38.373c-14.442,9.517-51.322,37.414-51.612,57.53c-0.161,11.168,16.019,18.502,25.002,23.165
		c20.448,10.613,57.045,30.888,78.251,14.611C518.376,624.714,532.642,606.345,544.939,592.123z"/>
	<path style="fill:#FFFFFF;stroke:#231F20;stroke-width:2;stroke-miterlimit:10;" d="M763.609,656.661
		c15.414-12.425,14.209-39.039,8.259-55.901c-10.797-30.604-59.56-46.33-79.102-14.598
		C673.125,618.058,728.073,685.296,763.609,656.661z"/>
	<path style="fill:#FFFFFF;stroke:#231F20;stroke-width:2;stroke-miterlimit:10;" d="M450.745,624.181
		c17.792,11.079,43.985,0.608,58.771-11.217c26.839-21.457,25.575-75.694-12.961-84.18
		C457.818,520.26,409.733,598.625,450.745,624.181z"/>
	<path style="fill:#FFFFFF;stroke:#231F20;stroke-width:2;stroke-miterlimit:10;" d="M649.732,406.36
		c10.313-21.421,20.219-44.476,32.518-64.979c25.29-42.161,71.99-69.576,119.316-84.825c35.021-11.283,68.274-11.946,96.135,12.263
		c26.418,22.951,37.035,59.881,21.165,91.259c-7.733,15.289-18.627,29.104-25.592,44.745c-6.085,13.662-8.024,28.447-11.105,42.809
		c-6.816,31.789-13.896,62.912-24.652,93.691c-14.505,41.504-47.486,58.921-93.727,45.732c-30.882-8.811-57.372-32.519-76.26-56.546
		c-14.31-18.204-31.97-35.104-41.386-56.317c-9.762-21.998-7.19-45.524,3.122-66.866
		C649.422,407.005,649.577,406.683,649.732,406.36z"/>
	<path style="fill:#FFFFFF;stroke:#231F20;stroke-width:2;stroke-miterlimit:10;" d="M709.208,396.794
		c-11.848,3.313-48.448,22.831-58.888,10.668c-10.857-12.654,18.348-35.031,26.784-41.225
		c21.081-15.476,40.636-30.188,64.671-41.248c22.094-10.168,50.707-27.024,74.125-15.534c22.167,10.877,16.812,28.082-2.583,40.48
		C781.545,370.244,745.697,386.592,709.208,396.794z"/>
	<path style="fill:#FFFFFF;stroke:#231F20;stroke-width:2;stroke-miterlimit:10;" d="M464.53,607.836
		c12.101,7.536,29.915,0.415,39.971-7.627c18.255-14.594,17.395-51.48-8.813-57.253C469.341,537.158,436.637,590.456,464.53,607.836
		z"/>
	<path style="fill:#FFFFFF;stroke:#231F20;stroke-width:2;stroke-miterlimit:10;" d="M752.643,402.304
		c14.007,0.671,50.367,9.516,40.483,29.311c-8.54,17.109-39.354,14.153-54.839,14.156c-19.107,0.005-40.203-1.787-57.473-10.312
		c-20.076-9.91-5.598-21.309,8.366-24.69C710.023,405.721,731.041,401.271,752.643,402.304z"/>
	<path style="fill:#FFFFFF;stroke:#231F20;stroke-width:2;stroke-miterlimit:10;" d="M738.369,482.375
		c9.035,10.722,27.288,43.389,6.057,49.611c-18.351,5.377-37.147-19.219-47.684-30.566c-13-14.001-26.037-30.683-31.537-49.139
		c-6.394-21.457,11.811-18.599,23.789-10.665C706.87,453.46,724.429,465.837,738.369,482.375z"/>
	<path style="fill:#FFFFFF;stroke:#231F20;stroke-width:2;stroke-miterlimit:10;" d="M394.722,224.167
		c-15.674,14.604-8.872,52.614-4.955,71.222c6.229,29.596,18.512,62.06,8.234,92.03c-11.337,33.063-27.645,64.019-31.129,99.392
		c-3.666,37.233,18.564,58.389,52.463,68.256c50.994,14.843,102.6-25.886,147.75-43.73c20.015-7.908,42.463-12.237,59.793-25.444
		c16.68-12.708,19.276-29.948,19.935-49.783c0.63-19.02-0.485-38.211-5.148-56.72c-3.965-15.738-13.52-27.155-21.076-41.362
		c-16.049-30.178-32.345-61.968-62.877-79.921c-27.05-15.904-57.133-31.172-87.702-37.562
		C446.737,215.681,414.829,205.436,394.722,224.167z"/>
		<path style="fill:#FFFFFF;stroke:#231F20;stroke-width:2;stroke-miterlimit:10;" d="M669.179,571.448
			c-1.896,17.693-6.325,36.039-14.427,51.557c-8.229,15.775-20.249,28.619-37.234,34.87c-33.918,12.478-71.505-15.677-73.599-50.751
			c-0.103-1.677-0.122-3.345-0.071-5.009c0.488-16.052,7.714-31.514,16.079-46.141c6.144-10.729,12.896-21.015,18.057-30.758
			c2.881-5.43,5.831-10.834,8.781-16.242c7.368-13.5,14.735-27.029,20.956-41.057c3.493-7.878,6.627-15.911,9.197-24.188
			c4.706-15.144,19.543-34.473,37.588-22.098c7.33,5.025,3.81,4.419,4.544,12.65c0.973,10.847,1.516,21.866,2.584,32.436
			c0.144,1.431,0.295,2.859,0.452,4.287c1.535,13.976,3.65,27.789,5.362,41.571c1.124,9.07,2.073,18.125,2.575,27.197
			C670.555,549.499,670.367,560.342,669.179,571.448z"/>
		<path style="fill:#FFFFFF;stroke:#231F20;stroke-width:2;stroke-miterlimit:10;" d="M667.448,512.576
			c-17.627,3.811-36.893,3.572-54.573,1.165c-6.62-0.901-16.644-2.195-26.11-4.767c7.368-13.5,14.735-27.029,20.956-41.057
			c6.248,1.922,12.125,3.309,14.407,3.618c13.691,1.833,26.931,1.501,39.958-0.53C663.621,484.981,665.736,498.794,667.448,512.576z
			"/>
		<path style="fill:#FFFFFF;stroke:#231F20;stroke-width:2;stroke-miterlimit:10;" d="M669.179,571.448
			c-1.896,17.693-6.325,36.039-14.427,51.557c-14.446,2.839-32.913,1.741-41.972,2.056c-25.66,0.883-48.797-7.676-68.933-22.945
			c0.488-16.052,7.714-31.514,16.079-46.141c11.563,5.802,25.072,8.96,36.442,11.405
			C619.42,572.347,645.995,578.728,669.179,571.448z"/>
	<path style="fill:#FFFFFF;stroke:#231F20;stroke-width:2;stroke-miterlimit:10;" d="M536.426,350.678
		c9.465,6.389,31.932,27.684,44.068,19.982c16.31-10.349-12.332-38.85-18.778-47.375c-15.213-20.117-50.183-43.316-76.141-41.382
		c-15.234,1.137-32.465,12.496-24.105,30.297c6.91,14.72,28.287,14.826,41.517,19.463
		C515.811,336.161,525.164,343.075,536.426,350.678z"/>
	<path style="fill:#FFFFFF;stroke:#231F20;stroke-width:2;stroke-miterlimit:10;" d="M569.282,417.605
		c6.623,0.432,19.05,0.497,21.5-9.09c3.837-14.998-24.108-22.543-32.456-24.875c-19.705-5.504-78.418-35.139-90.465,1.974
		c-7.335,22.596,15.814,23.592,28.732,26.423c23.513,5.154,48.866,4.014,72.674,5.568
		C569.271,417.605,569.277,417.605,569.282,417.605z"/>
	<path style="fill:#FFFFFF;stroke:#231F20;stroke-width:2;stroke-miterlimit:10;" d="M592.882,425.813
		c-19.462,2.728-138.974,29.43-118.499,64.509c10.042,17.202,55.466-6.699,68.994-11.431c18.432-6.443,44.075-20.092,58.913-32.856
		c4.813-4.141,7.7-9.732,10.341-15.302c-5.277-3.892-14.504-6.409-19.749-3.748"/>
	<path style="fill:#FFFFFF;stroke:#231F20;stroke-width:2;stroke-miterlimit:10;" d="M658.931,292.241
		c42.092,11.871,52.541,62.877,48.386,104.486c-4.229,42.33-58.065,52.547-95.939,46.012c-19.919-3.436-42.303-10.923-56.577-27.241
		c-17.271-19.742-17.626-48.735-7.9-72.593C565.197,298.022,617.197,280.471,658.931,292.241z"/>
	<path style="fill:#FFFFFF;stroke:#231F20;stroke-width:2;stroke-miterlimit:10;" d="M547.968,363.157
		c3.566,24.103,33.415,32.924,53.237,22.186c22.821-12.358,16.762-49.802-5.069-59.599c-16.497-7.402-35.21-1.621-43.608,14.644
		C548.203,348.762,546.978,356.45,547.968,363.157z"/>
	<path style="fill:#231F20;stroke:#231F20;stroke-width:2;stroke-miterlimit:10;" d="M584.273,361.5
		c13.968-11.644,5.138-33.643-13.069-32.294c-16.19,1.202-23.521,23-9.343,32.294C568.979,366.164,577.298,367.315,584.273,361.5z"
		/>
	<path style="fill:#FFFFFF;stroke:#231F20;stroke-width:2;stroke-miterlimit:10;" d="M565.448,349.198
		c5.994-0.615,7.984-9.235,2.571-12.264c-4.334-2.423-10.175-0.395-9.971,4.669C558.221,345.821,560.788,349.677,565.448,349.198z"
		/>
	<path style="fill:#FFFFFF;stroke:#231F20;stroke-width:2;stroke-miterlimit:10;" d="M627.727,351.508
		c3.839,25.953,35.979,35.449,57.322,23.89c24.568-13.309,18.046-53.625-5.46-64.172c-17.762-7.972-37.911-1.745-46.953,15.767
		C627.979,336.011,626.659,344.289,627.727,351.508z"/>
	<path style="fill:#231F20;stroke:#231F20;stroke-width:2;stroke-miterlimit:10;" d="M666.973,350.668
		c15.036-12.537,5.529-36.222-14.071-34.77c-17.434,1.293-25.33,24.764-10.062,34.77
		C650.504,355.692,659.46,356.931,666.973,350.668z"/>
	<path style="fill:#FFFFFF;stroke:#231F20;stroke-width:2;stroke-miterlimit:10;" d="M647.146,336.813
		c6.455-0.662,8.6-9.943,2.771-13.204c-4.667-2.61-10.956-0.425-10.736,5.029C639.365,333.179,642.127,337.331,647.146,336.813z"/>
	<path style="fill:#FFFFFF;stroke:#231F20;stroke-width:2;stroke-linecap:round;stroke-miterlimit:10;" d="M604.998,400.639
		c14.683,1.384,26.573-0.541,38.522-10.783C645.644,412.702,618.422,414.66,604.998,400.639"/>
	<path style="fill:#FFFFFF;stroke:#231F20;stroke-width:2;stroke-miterlimit:10;" d="M638.124,295.003
		c2.92-22.655,2.785-45.754,9.459-67.793c2.588-8.544,6.053-16.953,11.746-23.913c4.684-5.724,10.418-10.676,17.028-14.035
		c5.338-2.716,11.994-4.233,17.61-1.653c6.522,2.996,10.575,10.336,11.886,17.134c2.161,11.194-5.782,21.209-15.574,25.798
		c-1.876,0.877-4.637,1.693-7.043,2.053c0.589-0.088-0.366,0.03-0.394,0.034c-0.29,0.028-0.579,0.044-0.87,0.061
		c-0.568,0.032-1.14,0.031-1.706,0.015c-1.358-0.037-1.52-0.06-2.993-0.448c-1.942-0.51-3.235-1.263-4.664-2.794
		c-0.182-0.196-0.351-0.402-0.521-0.61c0.383,0.469-0.154-0.248-0.181-0.289c-0.317-0.468-0.588-0.969-0.84-1.475
		c-0.381-0.763-0.797-2.201-1.044-3.479c-0.52-2.669-0.403-6.178,0.285-9.016c0.332-1.373,0.535-1.874,1.188-2.996
		c0.136-0.233,0.289-0.457,0.442-0.678c0.485-0.705-0.357,0.412,0.182-0.219c0.202-0.236,1.307-1.2,0.843-0.853
		c0.371-0.28,0.778-0.513,1.189-0.728c0.114-0.06,0.822-0.345,0.139-0.074c0.212-0.084,0.43-0.153,0.648-0.222
		c0.438-0.138,0.889-0.228,1.339-0.302c-0.732,0.122,0.772-0.03,1.064-0.03c0.469-0.003,0.939,0.036,1.406,0.083
		c-0.749-0.078,0.629,0.122,0.858,0.171c0.467,0.101,0.927,0.233,1.382,0.374c0.272,0.085,1.666,0.629,1.081,0.375
		c0.714,0.309,1.399,0.675,2.066,1.071c0.321,0.192,0.635,0.402,0.941,0.615c0.109,0.074,0.708,0.529,0.109,0.063
		c0.17,0.13,0.332,0.268,0.493,0.405c0.261,0.222,0.508,0.46,0.751,0.701c0.16,0.161,0.973,1.138,0.423,0.425
		c0.184,0.236,0.346,0.486,0.499,0.741c0.087,0.145,0.164,0.296,0.241,0.446c0.274,0.544-0.25-0.663-0.046-0.104
		c0.086,0.238,0.141,0.486,0.187,0.737c-0.222-1.244-0.218,0.854-0.01-0.416c-0.129,0.784,0.13-0.119,0.017,0.113
		c-0.388,0.808,0.308-0.232-0.187,0.284c-0.535,0.565,0.445-0.247-0.251,0.218c-0.186,0.125-1.307,0.653-0.656,0.387
		c-0.957,0.392-1.98,0.612-2.995,0.788c-3.719,0.65-2.138,6.297,1.559,5.652c4.427-0.773,8.904-3.332,8.196-8.44
		c-0.517-3.711-4.241-6.619-7.32-8.241c-3.882-2.046-8.652-3.042-12.925-1.702c-5.311,1.667-8.144,6.694-8.919,11.936
		c-0.928,6.262-0.236,12.99,3.869,18.027c3.173,3.896,8.428,5.443,13.284,5.368c11.309-0.176,22.515-7.954,27.599-17.864
		c6.546-12.761,1.577-30.429-11.026-37.622c-13.424-7.661-29.342,2.248-38.838,11.712c-11.429,11.39-16.862,26.892-20.147,42.393
		c-4.032,19.03-4.242,38.573-6.723,57.812c-0.205,1.589,1.487,2.931,2.931,2.931C636.944,297.934,637.919,296.586,638.124,295.003
		L638.124,295.003z"/>
	<path style="fill:#FFFFFF;stroke:#231F20;stroke-width:2;stroke-miterlimit:10;" d="M613.544,294.481
		c-0.617-20.764-5.539-41.542-12.446-61.062c-5.765-16.295-12.774-32.654-26.742-43.571c-10.026-7.836-24.267-12.929-35.408-4.239
		c-6.323,4.934-9.64,12.843-11.638,20.383c-1.615,6.099-2.01,13.249,0.118,19.272c3.281,9.282,12.613,13.775,22.08,12.597
		c8.591-1.07,17.726-6.159,20.178-15.006c1.407-5.073-0.227-10.063-2.738-14.486c-2.75-4.844-7.76-8.921-13.604-7.186
		c-8.545,2.536-14.309,17.414-3.959,21.506c2.608,1.033,5.487,0.814,8.197,0.413c1.583-0.236,2.432-2.208,2.048-3.605
		c-0.462-1.68-2.027-2.282-3.605-2.048c-0.619,0.092-1.249,0.12-1.875,0.137c-0.333,0.009-0.666-0.005-0.998-0.021
		c-0.02,0-1.027-0.12-0.427-0.028c-0.531-0.081-1.047-0.229-1.553-0.409c0.728,0.259-1.185-0.84-0.483-0.27
		c-0.161-0.132-0.308-0.284-0.452-0.436c-0.485-0.505,0.347,0.522-0.045-0.049c-0.114-0.166-0.209-0.345-0.302-0.523
		c-0.322-0.617,0.217,0.611-0.012-0.048c-0.084-0.243-0.274-1.491-0.183-0.638c-0.055-0.502-0.034-1.012,0.008-1.514
		c0.063-0.758-0.112,0.649,0.024-0.109c0.041-0.227,0.098-0.449,0.152-0.673c0.113-0.456,0.271-0.9,0.439-1.338
		c-0.239,0.621,0.312-0.617,0.425-0.823c0.271-0.499,0.587-0.972,0.921-1.432c-0.36,0.498,0.479-0.532,0.64-0.699
		c0.331-0.345,0.692-0.661,1.062-0.962c-0.509,0.414,0.568-0.333,0.768-0.448c0.2-0.113,0.409-0.209,0.618-0.305
		c-0.688,0.318,0.216-0.047,0.365-0.091c0.216-0.066,0.438-0.11,0.66-0.152c-0.758,0.148-0.048,0.014,0.118,0.004
		c0.229-0.014,0.457-0.004,0.685,0.007c0.773,0.034-0.628-0.126,0.146,0.018c0.254,0.047,1.436,0.493,0.938,0.264
		c0.242,0.111,0.475,0.249,0.704,0.382c0.095,0.057,0.899,0.648,0.576,0.388c1.037,0.844,1.792,1.818,2.504,2.921
		c0.481,0.746,0.895,1.535,1.293,2.33c0.16,0.317,0.313,0.638,0.47,0.958c0.301,0.622,0.116,0.224,0.261,0.596
		c0.381,0.974,0.646,1.989,0.821,3.018c-0.117-0.684,0.049,0.678,0.058,0.915c0.022,0.546-0.006,1.094-0.055,1.639
		c-0.069,0.781,0.107-0.638-0.018,0.13c-0.038,0.224-0.086,0.448-0.135,0.67c-0.098,0.44-0.23,0.874-0.373,1.302
		c-0.072,0.213-0.155,0.423-0.238,0.633c0.274-0.696-0.012,0.005-0.069,0.124c-0.226,0.477-0.49,0.935-0.769,1.383
		c-0.653,1.059-0.44,0.759-1.365,1.769c-0.316,0.347-0.654,0.673-0.997,0.994c-0.206,0.192-1.339,1.121-0.871,0.764
		c-0.772,0.592-1.598,1.115-2.441,1.598c-0.43,0.245-0.871,0.47-1.315,0.688c-0.223,0.111-0.45,0.213-0.676,0.315
		c-0.422,0.192,0.276-0.101-0.454,0.186c-0.938,0.369-1.901,0.667-2.877,0.92c-0.486,0.126-0.981,0.232-1.477,0.331
		c-0.247,0.048-0.496,0.09-0.744,0.13c-0.167,0.027-0.333,0.053-0.499,0.076c0.362-0.049,0.373-0.053,0.03-0.011
		c-0.997,0.113-1.999,0.148-3.001,0.134c-0.496-0.007-0.992-0.039-1.485-0.079c-1.005-0.083-0.185,0.016-1.173-0.163
		c-0.958-0.174-1.897-0.435-2.816-0.757c-0.229-0.079-0.452-0.167-0.678-0.257c0.656,0.261-0.085-0.048-0.184-0.093
		c-0.51-0.238-1.001-0.513-1.482-0.802c-1.43-0.862-2.827-2.257-3.711-3.598c-1.35-2.046-1.856-3.68-2.326-6.284
		c-0.426-2.379-0.345-5.788,0.043-8.55c1.041-7.415,3.902-15.451,9.484-20.672c4.005-3.742,9.342-4.736,14.393-3.766
		c6.146,1.181,11.717,4.652,16.413,8.684c5.42,4.654,10.204,10.445,13.467,16.817c6.561,12.809,11.38,26.515,15.109,40.395
		c3.628,13.498,6.206,27.418,6.621,41.414C607.796,298.252,613.657,298.262,613.544,294.481L613.544,294.481z"/>
	<path style="fill:#FFFFFF;stroke:#231F20;stroke-width:2;stroke-miterlimit:10;" d="M851.342,374.061
		c36.961-0.082,60.767-35.484,48.73-68.994c-12.639-35.169-67.377-30.364-88.923-5.234
		C785.778,329.42,816.556,374.14,851.342,374.061z"/>
	<path style="fill:#FFFFFF;stroke:#231F20;stroke-width:2;stroke-miterlimit:10;" d="M448.132,321.443
		c30.492-0.069,50.13-29.272,40.2-56.915c-10.426-29.012-55.579-25.048-73.355-4.32
		C394.048,284.618,419.438,321.509,448.132,321.443z"/>
	<path style="fill:#FFFFFF;stroke:#231F20;stroke-width:2;stroke-miterlimit:10;" d="M816.369,477.85
		c33.315-0.073,54.766-31.98,43.92-62.184c-11.394-31.696-60.725-27.365-80.144-4.714
		C757.278,437.617,785.02,477.921,816.369,477.85z"/>
	<path style="fill:#FFFFFF;stroke:#231F20;stroke-width:2;stroke-miterlimit:10;" d="M450.532,417.756
		c28.629-0.064,47.066-27.48,37.742-53.437c-9.786-27.239-52.181-23.516-68.87-4.053
		C399.754,383.18,423.593,417.816,450.532,417.756z"/>
	<path style="fill:#FFFFFF;stroke:#231F20;stroke-width:2;stroke-miterlimit:10;" d="M774.33,573.008
		c32.207-0.072,52.95-30.918,42.458-60.121c-11.009-30.646-58.706-26.456-77.482-4.561
		C717.196,534.107,744.018,573.075,774.33,573.008z"/>
	<path style="fill:#FFFFFF;stroke:#231F20;stroke-width:2;stroke-miterlimit:10;" d="M445.872,533.865
		c33.958-0.075,55.827-32.602,44.77-63.385c-11.611-32.312-61.898-27.897-81.694-4.809
		C385.638,492.853,413.915,533.938,445.872,533.865z"/>
	<path style="fill:#FFFFFF;stroke:#231F20;stroke-width:2;stroke-miterlimit:10;" d="M754.156,643.711
		c10.482-8.451,9.664-26.552,5.617-38.02c-7.344-20.814-40.507-31.511-53.799-9.929
		C692.616,617.456,729.988,663.186,754.156,643.711z"/>
	<path style="fill:#FFFFFF;stroke:#231F20;stroke-width:2;stroke-miterlimit:10;" d="M447.675,314.036
		c22.026-0.05,36.212-21.144,29.038-41.112c-7.532-20.958-40.147-18.094-52.989-3.121
		C408.607,287.435,426.947,314.083,447.675,314.036z"/>
	<path style="fill:#FFFFFF;stroke:#231F20;stroke-width:2;stroke-miterlimit:10;" d="M449.409,407.625
		c20.68-0.046,33.999-19.851,27.264-38.601c-7.07-19.676-37.693-16.987-49.749-2.927
		C412.729,382.648,429.949,407.668,449.409,407.625z"/>
	<path style="fill:#FFFFFF;stroke:#231F20;stroke-width:2;stroke-miterlimit:10;" d="M446.042,522.976
		c24.529-0.055,40.327-23.55,32.339-45.787c-8.388-23.34-44.712-20.151-59.012-3.474
		C402.533,493.35,422.958,523.028,446.042,522.976z"/>
	<path style="fill:#FFFFFF;stroke:#231F20;stroke-width:2;stroke-miterlimit:10;" d="M847.102,361.747
		c26.089-0.058,42.893-25.047,34.397-48.7c-8.923-24.824-47.56-21.433-62.769-3.694
		C800.822,330.236,822.547,361.802,847.102,361.747z"/>
	<path style="fill:#FFFFFF;stroke:#231F20;stroke-width:2;stroke-miterlimit:10;" d="M812.313,465.419
		c23.551-0.052,38.714-22.607,31.046-43.958c-8.052-22.405-42.925-19.343-56.651-3.333
		C770.545,436.979,790.154,465.469,812.313,465.419z"/>
	<path style="fill:#FFFFFF;stroke:#231F20;stroke-width:2;stroke-miterlimit:10;" d="M770.273,560.196
		c22.795-0.052,37.475-21.882,30.049-42.55c-7.791-21.689-41.546-18.723-54.835-3.227
		C729.841,532.664,748.821,560.244,770.273,560.196z"/>
</g>
<g id="Layer_2">
		<path style="fill:#FFFFFF;stroke:#231F20;stroke-width:2;stroke-miterlimit:10;" d="M211.784,712.008
			c5.724,0,9.289,6.771,5.193,11.161c-2.853,3.173-7.749,2.32-11.492,2.32c0,14.694,3.129,29.942-0.926,44.421
			c-5.588,19.949-31.453,20.523-41.712,4.834c-2.931-4.483-5.727-15.5,3.964-14.117c7.674,1.095,7.428,12.786,15.87,12.045
			c16.441-1.444,9.477-36.236,9.324-46.962c-4.366,0.129-41.396,2.95-28.398-11.437c3.749-4.148,15.754-1.874,20.649-1.919
			C193.433,712.271,202.609,712.229,211.784,712.008C213.257,712.008,205.596,712.157,211.784,712.008z"/>
		<path style="fill:#FFFFFF;stroke:#231F20;stroke-width:2;stroke-miterlimit:10;" d="M268.248,772.119
			c2.759,3.986,0.742,11.104-4.862,10.828c-6.36-0.492-5.188-7.479-10.86-3.848c-10.893,6.973-23.831,3.003-29.803-8.196
			c-4.899-9.35-2.431-20.82-2.431-30.884c0-3.594,1.147-8.416,5.524-9.061c8.409-1.233,8.181,7.831,7.931,13.364
			c-0.267,5.909-3.228,25.336,7.441,24.992c12.3-0.396,9.159-15.301,9.379-22.942c0-4.671,0.055-12.133,4.944-14.709
			c5.161-2.72,9.42,2.162,9.42,7.195C264.933,749.862,261.266,762.272,268.248,772.119
			C268.911,773.077,266.995,770.352,268.248,772.119z"/>
		<path style="fill:#FFFFFF;stroke:#231F20;stroke-width:2;stroke-miterlimit:10;" d="M321.174,777.865
			c-0.617,5.146-7.88,9.956-11.768,4.723c-3.609-4.858-1.723-13.469-1.707-19.081c0.026-8.661,3.265-29.18-11.387-17.797
			c-6.928,5.629-5.193,14.129-5.193,22.054c0,4.397,1.063,9.547-1.326,13.526c-4.906,8.171-12.29-1.307-12.1-7.017
			c0.213-6.714-0.055-13.449-0.055-20.166c0-5.145-2.403-17.208,1.437-21.491c5.069-5.656,9.394,1.584,14.094-0.656
			c6.869-3.274,15.971-3.955,22.253,0.97C325.552,740.871,321.174,766.511,321.174,777.865z"/>
		<path style="fill:#FFFFFF;stroke:#231F20;stroke-width:2;stroke-miterlimit:10;" d="M330.786,754.329
			c3.267-13.557,15.479-26.55,30.539-23.328c15.461,3.307,19.872,22.027,15.103,35.293
			C364.958,798.195,324.646,786.96,330.786,754.329z M344.045,756.649c-4.383,23.411,22.921,16.783,20.718-3.314
			C362.956,736.849,347.14,746.461,344.045,756.649C343.825,757.828,344.56,754.955,344.045,756.649z"/>
		<path style="fill:#FFFFFF;stroke:#231F20;stroke-width:2;stroke-miterlimit:10;" d="M430.231,777.865
			c-0.617,5.146-7.88,9.956-11.768,4.723c-3.609-4.858-1.723-13.469-1.707-19.081c0.026-8.661,3.265-29.18-11.387-17.797
			c-6.928,5.629-5.193,14.129-5.193,22.054c0,4.397,1.063,9.547-1.326,13.526c-4.906,8.171-12.29-1.307-12.1-7.017
			c0.213-6.714-0.055-13.449-0.055-20.166c0-5.145-2.403-17.208,1.437-21.491c5.069-5.656,9.394,1.584,14.094-0.656
			c6.869-3.274,15.971-3.955,22.253,0.97C434.609,740.871,430.231,766.511,430.231,777.865z"/>
		<path style="fill:#FFFFFF;stroke:#231F20;stroke-width:2;stroke-miterlimit:10;" d="M441.501,714.771
			c1.046-9.713,14.825-10.493,15.138-0.222C457.248,724.917,441.966,725.139,441.501,714.771z M456.087,777.645
			c-1.241,12.321-14.018,5.655-13.646-4.033c0.441-12.155-2.982-27.575-0.055-39.282c3.669-13.233,13.48-1.518,13.48,6.409
			C455.866,753.041,456.087,765.341,456.087,777.645z"/>
		<path style="fill:#FFFFFF;stroke:#231F20;stroke-width:2;stroke-miterlimit:10;" d="M514.209,775.876
			c1.838,6.683-5.276,11.027-10.774,6.63c-3.343-2.674-15.075,2.901-21.725,1.633c-20.661-3.943-18.803-29.394-8.053-42.296
			c9.287-11.353,35.248-20.259,35.248,1.104C508.904,755.332,508.763,764.71,514.209,775.876z M490.783,770.903
			c6.147-3.908,5.094-4.689,4.567-11.675c-0.394-5.223-0.343-10.499-0.147-15.729C478.89,746.407,474.458,777.439,490.783,770.903
			C491.593,770.389,489.678,771.346,490.783,770.903z"/>
		<path style="fill:#FFFFFF;stroke:#231F20;stroke-width:2;stroke-miterlimit:10;" d="M593.322,766.926
			c7.016-4.491,14.194,2.332,9.393,9.393c-6.102,9.409-21.245,9.768-29.614,3.751c-17.322-12.454-10.501-47.782,11.05-51.817
			c7.198-1.307,21.954,2.377,22.873,11.271c1.804,14.518-14.359,1.554-17.9,1.989C568.904,739.886,576.669,784.562,593.322,766.926z
			"/>
		<path style="fill:#FFFFFF;stroke:#231F20;stroke-width:2;stroke-miterlimit:10;" d="M609.896,754.329
			c3.267-13.557,15.479-26.549,30.539-23.328c15.462,3.307,19.871,22.027,15.103,35.293
			C644.07,798.197,603.757,786.96,609.896,754.329z M623.156,756.649c-4.384,23.411,22.922,16.783,20.718-3.314
			C642.065,736.849,626.251,746.46,623.156,756.649C622.936,757.828,623.671,754.955,623.156,756.649z"/>
		<path style="fill:#FFFFFF;stroke:#231F20;stroke-width:2;stroke-miterlimit:10;" d="M703.266,765.932
			c8.712-2.181,11.176,6.91,5.248,11.685c-5.573,4.488-15.037,6.712-22.004,6.712c-19.048,0-27.186-20.479-22.085-36.545
			c4.706-14.819,30.287-25.11,41.326-11.521c15.669,19.311-14.968,27.187-27.458,31.216
			C684.909,775.039,696.208,769.885,703.266,765.932z M680.944,746.926c-3.68,2.079-4.953,5.614-5.524,9.613
			c3.64-1.119,20.884-3.784,20.884-9.281C696.304,740.273,684.112,744.938,680.944,746.926z"/>
		<path style="fill:#FFFFFF;stroke:#231F20;stroke-width:2;stroke-miterlimit:10;" d="M762.271,777.865
			c-0.616,5.146-7.88,9.956-11.768,4.723c-3.609-4.858-1.724-13.469-1.707-19.081c0.026-8.655,3.263-29.187-11.387-17.797
			c-6.929,5.627-5.193,14.13-5.193,22.054c0,4.396,1.062,9.548-1.326,13.526c-4.905,8.171-12.29-1.307-12.1-7.017
			c0.213-6.714-0.056-13.449-0.056-20.166c0-5.146-2.402-17.206,1.437-21.491c5.071-5.656,9.394,1.584,14.094-0.656
			c6.869-3.273,15.972-3.956,22.254,0.97C766.648,740.871,762.271,766.511,762.271,777.865z"/>
		<path style="fill:#FFFFFF;stroke:#231F20;stroke-width:2;stroke-miterlimit:10;" d="M773.54,714.771
			c1.048-9.712,14.825-10.494,15.139-0.222C789.285,724.917,774.004,725.139,773.54,714.771z M788.126,777.645
			c-1.241,12.321-14.018,5.655-13.646-4.033c0.441-12.156-2.979-27.573-0.056-39.282c3.674-13.232,13.481-1.519,13.481,6.409
			C787.905,753.041,788.126,765.341,788.126,777.645z"/>
		<path style="fill:#FFFFFF;stroke:#231F20;stroke-width:2;stroke-miterlimit:10;" d="M846.248,775.876
			c1.838,6.683-5.276,11.027-10.774,6.63c-3.343-2.674-15.075,2.902-21.725,1.633c-20.658-3.943-18.808-29.395-8.054-42.296
			c9.287-11.353,35.248-20.259,35.248,1.104C840.943,755.332,840.802,764.71,846.248,775.876z M822.822,770.903
			c6.146-3.907,5.095-4.689,4.567-11.675c-0.395-5.223-0.343-10.499-0.147-15.729C810.931,746.406,806.493,777.438,822.822,770.903
			C823.632,770.389,821.717,771.346,822.822,770.903z"/>
		<path style="fill:#FFFFFF;stroke:#231F20;stroke-width:2;stroke-miterlimit:10;" d="M185.498,876.787
			c3.853,7.438-4.449,10.025-9.086,5.718c-4.245-3.943-6.747-10.095-8.609-15.461c-5.982-17.241-2.637-34.305,6.051-49.759
			c5.328-9.47,16.071-4.729,9.282,4.641c-3.531,4.871-5.923,9.847-7.086,15.736C173.465,850.757,174.333,867.73,185.498,876.787z"/>
		<path style="fill:#FFFFFF;stroke:#231F20;stroke-width:2;stroke-miterlimit:10;" d="M209.696,872.893
			c-10.511,0.358-15.332-0.434-15.332-10.026c0-7.259,0-14.518,0-21.776c0-6.559,0-13.117,0-19.676c0-4.547,6.468-7.154,9.105-3.176
			c3.206,4.837,1.666,13.401,1.419,18.854C232.045,821.993,239.867,871.972,209.696,872.893
			C208.093,872.947,211.52,872.837,209.696,872.893z M204.475,851.678c0,7.198-0.444,16.564,10.732,9.463
			C225.445,854.634,216.47,835.24,204.475,851.678z"/>
		<path style="fill:#FFFFFF;stroke:#231F20;stroke-width:2;stroke-miterlimit:10;" d="M272.016,864.273
			c1.506,2.178,1.151,5.69-0.953,7.376c-4.88,3.895-6.347-4.573-11.944-1.481c-8.064,4.455-17.011,1.132-21.247-6.806
			c-3.689-7.044-1.823-15.579-1.823-23.163c0-6.461,9.685-10.059,10.111-2.445c0.236,6.045-3.48,20.63,3.646,24.033
			c9.465,4.119,8.908-9.781,8.908-13.922c0-3.699,1.291-19.989,8.826-13.426C274.086,840.052,266.339,856.269,272.016,864.273
			C272.513,864.992,271.075,862.947,272.016,864.273z"/>
		<path style="fill:#FFFFFF;stroke:#231F20;stroke-width:2;stroke-miterlimit:10;" d="M300.026,860.379
			c9.071-5.802,9.736,7.818,1.16,11.436c-8.141,3.701-18.005,0.029-21.755-8.109c-6.454-14.012,3.93-36.274,21.143-31.741
			c4.036,1.062,11.885,4.699,9.396,10.308c-3.467,7.791-8.956-1.465-13.094-0.953C280.963,841.614,288.406,872.798,300.026,860.379z
			"/>
		<path style="fill:#FFFFFF;stroke:#231F20;stroke-width:2;stroke-miterlimit:10;" d="M323.81,872.022
			c-10.827,7.83-7.956-34.049-7.956-38.278c0-3.756-1.639-11.887,0.704-15.341c9.946-14.65,9.45,20.515,9.406,23.329
			c4.117-3.045,10.322-13.978,16.367-12.514c11.104,2.688-4.931,16.374-7.997,18.729c3.257,3.539,23.301,20.739,12.887,24.779
			c-6.575,2.546-17.335-14.992-21.257-19.061C325.964,858.151,328.138,868.881,323.81,872.022
			C322.704,872.822,324.914,871.221,323.81,872.022z"/>
		<path style="fill:#FFFFFF;stroke:#231F20;stroke-width:2;stroke-miterlimit:10;" d="M383.312,859.633
			c7.818-1.958,7.969,6.874,2.237,9.861c-6.143,3.208-14.475,5.461-21.195,2.756c-11.145-4.487-13.908-18.597-9.219-28.694
			c5.092-10.492,25.31-16.036,31.543-3.885c7.377,14.384-13.161,18.242-22.096,21.122
			C369.409,866.311,378.189,862.779,383.312,859.633z M366.571,845.379c-2.883,1.629-3.716,4.214-4.144,7.209
			c2.594-0.797,15.663-3.024,15.663-6.961C378.09,840.406,368.987,843.755,366.571,845.379z"/>
		<path style="fill:#FFFFFF;stroke:#231F20;stroke-width:2;stroke-miterlimit:10;" d="M420.107,834.191
			c5.404-9.01,9.849,3.062,8.039,8.577c-2.729,8.315-6.701,16.359-10.939,23.991c-3.587,6.456-6.976,13.148-10.773,19.475
			c-5.014,8.365-12.177,0.279-8.039-6.836c2.962-5.109,6.002-10.172,8.95-15.291c-8.118-6.761-12.989-14.945-16.492-24.778
			c-1.862-5.191,5.407-10.909,8.743-5.345c4.442,7.418,5.339,14.762,12.472,20.925C415.307,848.204,417.703,841.184,420.107,834.191
			z"/>
		<path style="fill:#FFFFFF;stroke:#231F20;stroke-width:2;stroke-miterlimit:10;" d="M461.543,859.633
			c7.818-1.958,7.969,6.874,2.237,9.861c-6.143,3.208-14.475,5.461-21.195,2.756c-11.145-4.487-13.908-18.597-9.219-28.694
			c5.092-10.492,25.31-16.036,31.543-3.885c7.377,14.384-13.161,18.242-22.096,21.122
			C447.641,866.311,456.421,862.779,461.543,859.633z M444.803,845.379c-2.883,1.629-3.716,4.214-4.144,7.209
			c2.594-0.797,15.663-3.024,15.663-6.961C456.322,840.406,447.219,843.755,444.803,845.379z"/>
		<path style="fill:#FFFFFF;stroke:#231F20;stroke-width:2;stroke-miterlimit:10;" d="M520.879,872.893
			c-10.51,0.358-15.331-0.434-15.331-10.026c0-7.259,0-14.518,0-21.776c0-6.559,0-13.117,0-19.676c0-4.547,6.468-7.155,9.105-3.176
			c3.205,4.837,1.666,13.401,1.419,18.854C543.25,822.011,551.034,871.973,520.879,872.893
			C519.276,872.947,522.703,872.837,520.879,872.893z M515.658,851.678c0,7.198-0.444,16.564,10.732,9.463
			C536.627,854.636,527.655,835.241,515.658,851.678z"/>
		<path style="fill:#FFFFFF;stroke:#231F20;stroke-width:2;stroke-miterlimit:10;" d="M583.198,864.273
			c1.506,2.178,1.151,5.69-0.953,7.376c-4.88,3.894-6.346-4.574-11.944-1.481c-8.063,4.455-17.011,1.132-21.246-6.806
			c-3.689-7.044-1.823-15.579-1.823-23.163c0-6.463,9.691-10.056,10.11-2.445c0.236,6.046-3.48,20.629,3.646,24.033
			c9.467,4.118,8.908-9.78,8.908-13.922c0-3.703,1.289-19.984,8.827-13.426C585.268,840.057,577.525,856.266,583.198,864.273
			C583.695,864.992,582.259,862.947,583.198,864.273z"/>
		<path style="fill:#FFFFFF;stroke:#231F20;stroke-width:2;stroke-miterlimit:10;" d="M590.408,843.141
			c-9.316-2.321-2.855-10.027,3.729-10.027c0-3.665-1.38-20.875,7.406-15.715c4.817,2.829,2.704,11.205,2.704,15.715
			c3.831-0.532,16.823,2.27,9.613,8.371c-5.087,4.196-9.584-2.489-9.623,6.299c-0.027,5.875-0.371,11.876,0.218,17.733
			c1.113,11.256-10.669,7.781-10.235-2.983C594.221,857.929,596.68,841.59,590.408,843.141z"/>
		<path style="fill:#FFFFFF;stroke:#231F20;stroke-width:2;stroke-miterlimit:10;" d="M624.138,843.141
			c-9.316-2.321-2.855-10.027,3.729-10.027c0-3.665-1.38-20.875,7.406-15.715c4.817,2.829,2.704,11.205,2.704,15.715
			c3.831-0.532,16.823,2.27,9.613,8.371c-5.087,4.196-9.584-2.489-9.624,6.299c-0.026,5.875-0.37,11.876,0.219,17.733
			c1.113,11.256-10.669,7.781-10.235-2.983C627.95,857.929,630.409,841.59,624.138,843.141z"/>
		<path style="fill:#FFFFFF;stroke:#231F20;stroke-width:2;stroke-miterlimit:10;" d="M680.077,859.633
			c7.818-1.957,7.97,6.874,2.237,9.861c-6.143,3.208-14.475,5.462-21.195,2.756c-11.145-4.487-13.908-18.597-9.219-28.694
			c5.093-10.492,25.31-16.036,31.543-3.885c7.379,14.384-13.161,18.242-22.096,21.122
			C666.175,866.311,674.955,862.778,680.077,859.633z M663.337,845.379c-2.882,1.629-3.717,4.214-4.144,7.209
			c2.594-0.797,15.663-3.024,15.663-6.961C674.856,840.406,665.752,843.755,663.337,845.379z"/>
		<path style="fill:#FFFFFF;stroke:#231F20;stroke-width:2;stroke-miterlimit:10;" d="M695.243,845.172
			c0.329-2.159-7.682-14.615,3.688-11.312c7.711,2.25,16.856-6.548,24.406,1.947c2.122,2.388,1.851,6.772-1.16,8.371
			c-3.257,1.726-5.164-1.174-7.707-2.445c-5.078-1.267-9.199,4.373-9.199,8.605c0,5.422,0,10.844,0,16.266
			c0,6.975-10.11,10.358-10.11,1.979C693.216,863.093,694.346,850.969,695.243,845.172
			C695.298,844.812,695.188,845.531,695.243,845.172z"/>
		<path style="fill:#FFFFFF;stroke:#231F20;stroke-width:2;stroke-miterlimit:10;" d="M742.313,871.732
			c-9.381,11.521-8.784-14.635-8.784-16.912c0-5.698,1.092-6.389-2.859-9.068c-2.576-1.742-3.247-5.216-1.036-7.583
			c3.929-4.325,3.842,2.737,3.688-6.63c-0.124-7.24,2.461-14.81,10.059-17.01c4.814-1.395,14.675-0.344,16.42,5.531
			c2.162,7.342-6.575,5.865-10.359,4.352c-7.199-2.875-5.801,8.172-5.801,11.851c15.579-1.011,15.745,10.193,0,10.193
			C743.64,852.727,746.534,866.529,742.313,871.732C741.595,872.615,743.031,870.848,742.313,871.732z"/>
		<path style="fill:#FFFFFF;stroke:#231F20;stroke-width:2;stroke-miterlimit:10;" d="M773.804,865.6
			c8.825,8.03-10.773,13.229-10.773,0.16c0-11.017,0-22.034,0-33.051c0-3.515,1.51-25.614,9.572-13.27
			c3.12,4.812,0.621,18.453,0.621,23.992C773.224,850.278,771.89,859.574,773.804,865.6z"/>
		<path style="fill:#FFFFFF;stroke:#231F20;stroke-width:2;stroke-miterlimit:10;" d="M810.269,834.191
			c5.404-9.009,9.85,3.061,8.038,8.577c-2.729,8.315-6.7,16.359-10.938,23.991c-3.588,6.455-6.977,13.148-10.773,19.475
			c-5.011,8.367-12.174,0.28-8.039-6.836c2.962-5.109,6.004-10.171,8.95-15.291c-8.114-6.759-12.995-14.946-16.491-24.778
			c-1.862-5.192,5.404-10.907,8.743-5.345c4.442,7.417,5.339,14.762,12.472,20.925C805.47,848.205,807.865,841.184,810.269,834.191z
			"/>
		<path style="fill:#FFFFFF;stroke:#231F20;stroke-width:2;stroke-miterlimit:10;" d="M825.931,875.71
			c10.014-10.036,11.429-26.048,8.224-39.396c-1.557-6.485-5.082-11.652-8.763-17.082c-5.196-7.638,6.296-8.81,10.607-2.341
			c9.795,14.694,12.395,32.189,6.92,49.205c-1.933,5.799-6.352,18.729-14.254,18.729C823.37,884.826,822.705,878.708,825.931,875.71
			z"/>
		<path style="fill:#FFFFFF;stroke:#231F20;stroke-width:2;stroke-miterlimit:10;" d="M363.808,96.354
			c22.614,0,42.062,23.032,32.858,45.36c-10.781,26.155-41.405,22.043-64.35,22.043c0,35.106,4.563,70.437,5.064,105.629
			c0.569,39.9,1.352,84.007-11.481,122.306C300,468.99,188.602,493.69,135.214,431.68c-18.014-20.924-55.786-73.095-12.71-90.642
			c42.866-17.462,49.681,46.964,80.927,57.052c15.901,5.133,36.177-0.88,48.034-12.201c14.528-13.873,14.879-36.014,15.14-54.694
			c0.624-44.724,0.192-88.981-1.018-133.707c-0.294-10.874-0.519-21.75-0.674-32.627c-19.511,0.578-39.022,0.553-58.54,0.553
			c-17.641,0-35.836,2.508-53.37,1.597c-15.775-0.819-31.197-7.214-36.798-22.932c-5.595-15.701-0.427-36.021,15.971-42.958
			c14.25-6.029,33.132-2.558,48.207-2.558c19.742-0.234,39.484-0.433,59.228-0.595C281.014,97.627,322.412,97.347,363.808,96.354
			C371.171,96.354,332.868,97.096,363.808,96.354z"/>
</g>
</svg>
