<?xml version="1.0" encoding="utf-8"?>
<!-- Generator: Adobe Illustrator 16.0.0, SVG Export Plug-In . SVG Version: 6.00 Build 0)  -->
<!DOCTYPE svg PUBLIC "-//W3C//DTD SVG 1.1//EN" "http://www.w3.org/Graphics/SVG/1.1/DTD/svg11.dtd">
<svg version="1.1" xmlns="http://www.w3.org/2000/svg" xmlns:xlink="http://www.w3.org/1999/xlink" x="0px" y="0px" width="100%"
	 height="100%" viewBox="0 0 1000 1000" style="enable-background:new 0 0 1000 1000;" xml:space="preserve">
<g id="Layer_3">
	<rect style="fill:#FFFFFF;" width="1000" height="1000"/>
</g>
<g id="Layer_2">
		<path style="fill:#FFFFFF;stroke:#000000;stroke-width:2;" d="M107.53,858.378c-0.189,1.388-0.726,2.601-1.608,3.641
			c-0.883,1.04-1.891,1.749-3.025,2.128c-1.135,0.378-2.27,0.378-3.404,0c-1.134-0.379-2.018-1.293-2.647-2.742
			c-0.316-0.693-0.536-1.938-0.662-3.735c-0.127-1.797-0.222-3.671-0.284-5.626c-0.063-1.953-0.08-3.766-0.047-5.437
			c0.031-1.67,0.047-2.695,0.047-3.073v-19.762c0-0.189-0.017-1.135-0.047-2.837c-0.033-1.702-0.033-3.577,0-5.626
			c0.031-2.048,0.125-4.033,0.284-5.957c0.157-1.922,0.457-3.229,0.898-3.924c0.567-0.946,1.26-1.622,2.081-2.033
			c0.818-0.409,1.655-0.582,2.505-0.521c0.851,0.063,1.702,0.316,2.553,0.757c0.851,0.441,1.56,1.104,2.127,1.985
			c0.251,0.316,0.488,0.694,0.709,1.135c0.22,0.442,0.331,0.852,0.331,1.229c0.062,3.025,0.062,6.004,0,8.936
			c-0.063,2.931-0.094,5.909-0.094,8.936c2.269-1.324,4.364-2.82,6.288-4.491c1.922-1.67,3.797-3.577,5.626-5.721
			c0.44-0.567,1.071-1.419,1.891-2.554c0.819-1.134,1.702-2.3,2.647-3.498c0.946-1.196,1.891-2.316,2.837-3.356
			c0.945-1.04,1.764-1.717,2.458-2.033c1.386-0.693,2.709-0.945,3.971-0.757c1.26,0.189,2.3,0.679,3.12,1.466
			c0.819,0.789,1.339,1.797,1.561,3.026c0.22,1.229-0.017,2.505-0.709,3.829c-0.252,0.567-0.52,1.04-0.804,1.418
			c-0.284,0.379-0.567,0.726-0.851,1.04c-0.284,0.316-0.583,0.662-0.898,1.04c-0.316,0.379-0.631,0.82-0.946,1.324
			c-0.82,1.323-1.796,2.664-2.931,4.019c-1.135,1.356-2.333,2.68-3.593,3.972c-1.262,1.292-2.553,2.538-3.876,3.734
			c-1.324,1.198-2.585,2.333-3.782,3.404c1.575,1.702,3.151,3.404,4.728,5.105c1.575,1.702,3.183,3.404,4.822,5.106
			c0.378,0.378,1.197,1.182,2.458,2.411c1.26,1.229,2.601,2.585,4.019,4.065c1.418,1.482,2.71,2.948,3.877,4.397
			c1.166,1.45,1.844,2.585,2.033,3.403c0.315,1.262,0.251,2.444-0.189,3.546c-0.442,1.104-1.12,2.002-2.033,2.695
			c-0.915,0.692-1.955,1.071-3.121,1.135c-1.167,0.062-2.316-0.316-3.451-1.135c-0.505-0.379-1.025-0.835-1.56-1.371
			c-0.536-0.535-1.04-1.088-1.513-1.655c-0.473-0.567-0.931-1.118-1.371-1.654c-0.442-0.535-0.82-0.96-1.135-1.276
			c-2.964-3.215-5.895-6.366-8.793-9.456c-2.9-3.088-5.832-6.208-8.794-9.36c-0.316,0.127-0.662,0.269-1.04,0.425
			c-0.378,0.158-0.726,0.301-1.04,0.426c0,3.215,0.031,6.415,0.095,9.598c0.062,3.184,0.156,6.383,0.284,9.598V858.378z"/>
		<path style="fill:#FFFFFF;stroke:#000000;stroke-width:2;" d="M145.164,839.184c0.44-1.827,1.055-3.624,1.844-5.39
			c0.788-1.764,1.75-3.451,2.884-5.059c1.134-1.607,2.411-3.073,3.829-4.396c1.418-1.324,2.946-2.396,4.586-3.215
			c2.899-1.514,5.815-2.284,8.747-2.317c2.931-0.03,5.657,0.553,8.179,1.75c2.521,1.198,4.665,2.979,6.43,5.342
			c1.764,2.364,2.931,5.186,3.499,8.463c0.314,2.144,0.487,4.177,0.52,6.099c0.031,1.924-0.174,3.924-0.615,6.004
			c-0.631,2.964-1.907,5.91-3.83,8.842c-1.923,2.931-4.224,5.39-6.902,7.375c-2.68,1.985-5.611,3.293-8.794,3.924
			c-3.184,0.63-6.382,0.126-9.597-1.513c-1.451-0.694-2.758-1.498-3.924-2.411c-1.167-0.913-2.222-2.001-3.168-3.263
			c-1.072-1.386-1.907-2.836-2.505-4.35c-0.6-1.513-1.087-3.087-1.466-4.728c-0.441-1.764-0.6-3.546-0.473-5.342
			c0.125-1.797,0.346-3.546,0.662-5.248L145.164,839.184z M156.51,841.169c-0.189,1.01-0.347,2.002-0.473,2.979
			c-0.127,0.979-0.127,1.971,0,2.979c0.189,1.451,0.582,2.774,1.182,3.972c0.599,1.198,1.386,2.144,2.364,2.837
			c0.977,0.694,2.095,1.056,3.356,1.087c1.26,0.032,2.615-0.362,4.066-1.182c1.828-1.071,3.404-2.727,4.728-4.965
			c1.324-2.236,2.143-4.569,2.458-6.997c0.315-2.426,0.062-4.728-0.756-6.902c-0.82-2.175-2.427-3.734-4.822-4.681
			c-1.576,0-3.026,0.301-4.35,0.898c-1.324,0.601-2.475,1.388-3.451,2.364c-0.978,0.978-1.829,2.127-2.553,3.451
			C157.534,838.333,156.951,839.72,156.51,841.169z"/>
		<path style="fill:#FFFFFF;stroke:#000000;stroke-width:2;" d="M209.839,864.24c-1.829,0.062-3.579-0.063-5.248-0.378
			c-1.671-0.316-3.326-0.851-4.964-1.607c-0.82,0.44-1.624,0.662-2.411,0.662c-0.789,0-1.513-0.127-2.175-0.378
			c-0.662-0.253-1.229-0.553-1.702-0.898s-0.804-0.615-0.993-0.804c-0.694-1.008-1.104-2.143-1.229-3.404
			c-0.127-1.26,0.284-2.458,1.229-3.593v-48.602c0-1.449,0.504-2.662,1.513-3.641c1.008-0.977,2.175-1.591,3.499-1.844
			c1.324-0.251,2.601-0.031,3.83,0.662c1.229,0.694,2.064,1.955,2.506,3.782c0.251,1.135,0.457,2.255,0.614,3.356
			c0.157,1.104,0.251,2.38,0.284,3.83c0.031,1.45,0.031,3.12,0,5.011c-0.032,1.892-0.111,4.225-0.236,6.997
			c0.567-0.314,1.149-0.614,1.75-0.898c0.598-0.283,1.213-0.582,1.844-0.897c1.764-0.818,3.655-1.324,5.673-1.514
			c2.017-0.188,3.986-0.078,5.91,0.331c1.922,0.411,3.719,1.168,5.39,2.27c1.669,1.104,3.041,2.538,4.113,4.303
			c1.513,2.521,2.537,5.469,3.073,8.841c0.535,3.373,0.535,6.713,0,10.022c-0.536,3.31-1.64,6.383-3.31,9.219
			c-1.671,2.837-4.019,4.95-7.044,6.336c-1.891,0.882-3.83,1.56-5.815,2.032C213.952,863.91,211.919,864.177,209.839,864.24z
			 M203.882,840.034v11.347c0.125,0.127,0.251,0.222,0.378,0.284c0.125,0.063,0.251,0.158,0.378,0.283
			c5.673,1.892,10.59,0.6,14.75-3.877c0.946-2.521,1.402-4.9,1.371-7.139c-0.032-2.236-0.458-4.647-1.276-7.233
			c-0.316-0.756-0.836-1.244-1.56-1.466c-0.726-0.22-1.371-0.487-1.938-0.804c-1.009-0.188-2.097,0-3.262,0.567
			c-1.167,0.567-2.286,1.276-3.356,2.128c-1.073,0.851-2.049,1.781-2.932,2.789c-0.883,1.009-1.576,1.86-2.08,2.553L203.882,840.034
			z"/>
		<path style="fill:#FFFFFF;stroke:#000000;stroke-width:2;" d="M280.943,854.407c0.567,0.819,0.898,1.781,0.993,2.884
			c0.095,1.104-0.032,2.144-0.378,3.12c-0.348,0.979-0.915,1.78-1.702,2.411c-0.789,0.63-1.813,0.913-3.073,0.851
			c-1.64-0.127-2.963-0.694-3.971-1.701c-1.009-1.008-1.955-2.143-2.836-3.404c-2.458,2.019-4.997,3.419-7.612,4.208
			c-2.617,0.787-5.186,0.96-7.707,0.52c-2.522-0.441-4.886-1.498-7.091-3.167c-2.208-1.67-4.066-3.925-5.579-6.761
			c-1.388-2.647-2.16-5.579-2.317-8.794c-0.158-3.215-0.205-6.271-0.142-9.172c0-1.008,0.031-2,0.094-2.979
			c0.062-0.977,0.125-2,0.189-3.073c0.062-0.818,0.094-1.622,0.094-2.411c0-0.787,0.047-1.527,0.142-2.222
			c0.094-0.693,0.284-1.386,0.567-2.08c0.284-0.693,0.709-1.355,1.276-1.986c0.756-0.818,1.669-1.308,2.742-1.465
			c1.071-0.157,2.095-0.048,3.073,0.331c0.977,0.378,1.828,0.961,2.553,1.749c0.724,0.789,1.118,1.749,1.182,2.884
			c0.126,3.215,0.047,6.462-0.236,9.739c-0.284,3.278-0.269,6.493,0.047,9.645c0.125,1.513,0.52,3.059,1.182,4.633
			c0.662,1.577,1.717,2.711,3.167,3.404c1.449,0.631,2.915,0.584,4.397-0.142c1.48-0.725,2.695-1.592,3.64-2.601
			c0.44-0.504,0.866-1.055,1.276-1.654c0.409-0.599,0.866-1.119,1.371-1.561c-0.252-2.206-0.411-4.411-0.473-6.619
			c-0.063-2.205-0.063-4.411,0-6.618c0-1.197,0.047-2.506,0.142-3.925c0.095-1.418,0.346-2.772,0.757-4.065
			c0.409-1.291,1.024-2.426,1.844-3.404c0.818-0.977,1.985-1.591,3.499-1.844c0.693-0.125,1.371-0.062,2.033,0.189
			c0.662,0.253,1.244,0.6,1.75,1.04c0.882,0.757,1.48,1.607,1.796,2.553c0.315,0.945,0.473,1.955,0.473,3.026
			c0,1.072-0.08,2.159-0.236,3.262c-0.158,1.104-0.269,2.128-0.331,3.073c-0.127,1.766-0.221,3.625-0.284,5.578
			c-0.063,1.955,0,3.91,0.189,5.863c0.189,1.954,0.551,3.846,1.087,5.673C279.066,851.225,279.87,852.895,280.943,854.407z"/>
		<path style="fill:#FFFFFF;stroke:#000000;stroke-width:2;" d="M287.465,855.447c-0.378-1.071-0.537-2.128-0.473-3.168
			c0.062-1.04,0.331-1.985,0.804-2.837c0.473-0.851,1.149-1.513,2.033-1.985c0.882-0.473,1.953-0.646,3.215-0.52
			c0.693,0.063,1.324,0.252,1.891,0.567s1.087,0.694,1.56,1.134c0.473,0.442,0.946,0.915,1.418,1.419
			c0.473,0.505,0.96,0.945,1.465,1.323c1.071,0.82,2.206,1.419,3.404,1.797c1.197,0.378,2.458,0.662,3.782,0.851
			c0.882,0,1.591-0.22,2.127-0.661c0.535-0.44,0.898-0.977,1.087-1.607c0.189-0.63,0.236-1.308,0.142-2.033
			c-0.094-0.724-0.331-1.308-0.709-1.749c-1.073-1.071-2.38-1.765-3.924-2.08c-1.545-0.315-2.979-0.693-4.302-1.135
			c-1.891-0.63-3.751-1.434-5.579-2.411c-1.829-0.977-3.31-2.317-4.444-4.019c-1.198-1.765-1.908-3.641-2.127-5.626
			c-0.222-1.986-0.064-3.925,0.473-5.815c0.535-1.892,1.433-3.624,2.695-5.201c1.26-1.574,2.773-2.867,4.539-3.876
			c1.324-0.757,2.773-1.244,4.35-1.466c1.575-0.221,3.167-0.268,4.775-0.142c1.607,0.127,3.199,0.425,4.775,0.897
			c1.575,0.474,3.026,0.993,4.35,1.561c1.513,0.694,2.647,1.671,3.404,2.932c0.757,1.262,1.119,2.538,1.087,3.829
			c-0.032,1.293-0.473,2.411-1.324,3.356c-0.851,0.946-2.096,1.419-3.735,1.419c-1.009,0-1.923-0.173-2.742-0.521
			c-0.82-0.346-1.671-0.677-2.553-0.993c-1.135-0.439-2.364-0.739-3.688-0.897c-1.324-0.157-2.396-0.079-3.215,0.236
			c-0.253,0.063-0.537,0.269-0.851,0.614c-0.316,0.348-0.553,0.772-0.709,1.276c-0.158,0.506-0.189,1.009-0.094,1.513
			c0.094,0.506,0.425,0.915,0.993,1.229c1.513,0.82,3.12,1.451,4.822,1.892c1.702,0.441,3.372,0.945,5.011,1.513
			c1.639,0.567,3.168,1.293,4.586,2.175c1.418,0.883,2.601,2.144,3.546,3.782c1.386,2.396,2.095,4.901,2.127,7.517
			c0.031,2.617-0.489,5.059-1.56,7.328c-1.073,2.27-2.647,4.208-4.728,5.815c-2.081,1.607-4.508,2.567-7.281,2.884
			c-1.955,0.189-3.877,0.078-5.768-0.331c-1.891-0.41-3.72-1.072-5.484-1.985c-1.766-0.915-3.404-2.001-4.917-3.263
			c-1.513-1.26-2.837-2.584-3.971-3.971L287.465,855.447z"/>
		<path style="fill:#FFFFFF;stroke:#000000;stroke-width:2;" d="M398.093,849.112c1.513-0.379,2.852-0.394,4.019-0.048
			c1.166,0.348,2.064,0.931,2.695,1.749c0.629,0.82,0.913,1.829,0.851,3.026c-0.063,1.198-0.6,2.458-1.607,3.782
			c-0.82,1.072-1.955,1.985-3.404,2.742c-1.451,0.756-2.806,1.355-4.066,1.796c-3.089,1.135-6.021,1.923-8.793,2.364
			c-2.775,0.44-5.375,0.44-7.801,0c-2.428-0.441-4.697-1.356-6.808-2.742c-2.113-1.386-4.082-3.341-5.91-5.862
			c-1.262-1.702-2.191-3.641-2.79-5.815c-0.6-2.175-0.931-4.396-0.993-6.666c-0.063-2.27,0.125-4.506,0.567-6.713
			c0.44-2.206,1.071-4.192,1.891-5.957c1.071-2.206,2.773-4.223,5.106-6.052c2.331-1.828,4.917-3.277,7.753-4.35
			c2.837-1.071,5.735-1.686,8.699-1.844c2.962-0.157,5.579,0.3,7.848,1.371c1.891,0.884,3.513,2.16,4.869,3.829
			c1.355,1.671,2.284,3.484,2.79,5.438c0.504,1.954,0.551,3.924,0.142,5.909c-0.411,1.985-1.435,3.799-3.073,5.438
			c-1.576,1.576-3.31,2.853-5.201,3.829c-1.891,0.978-3.846,1.829-5.862,2.553c-2.018,0.726-4.082,1.34-6.193,1.844
			c-2.113,0.506-4.146,1.073-6.099,1.702c1.324,1.513,2.836,2.475,4.539,2.884c1.702,0.411,3.482,0.489,5.342,0.236
			c1.858-0.251,3.735-0.771,5.626-1.56c1.891-0.788,3.655-1.655,5.295-2.601L398.093,849.112z M378.993,832.849
			c-1.451,0.819-2.522,1.844-3.215,3.073c-0.694,1.229-1.198,2.947-1.513,5.152c1.638-0.503,3.482-1.04,5.531-1.607
			c2.048-0.566,3.986-1.165,5.815-1.796c1.828-0.63,3.372-1.324,4.633-2.08c1.26-0.757,1.891-1.575,1.891-2.459
			c0-0.504-0.08-0.992-0.237-1.466c-0.158-0.473-0.489-0.804-0.993-0.992c-1.766-0.63-3.593-0.757-5.484-0.379
			c-1.891,0.379-3.467,0.915-4.728,1.607L378.993,832.849z"/>
		<path style="fill:#FFFFFF;stroke:#000000;stroke-width:2;" d="M424.852,855.92c0.693,0.631,1.276,1.435,1.75,2.411
			c0.473,0.978,0.724,1.954,0.756,2.931c0.031,0.977-0.189,1.892-0.662,2.742c-0.473,0.852-1.309,1.497-2.505,1.938
			c-0.946,0.315-1.986,0.379-3.121,0.189s-2.254-0.567-3.356-1.135c-1.104-0.567-2.081-1.245-2.931-2.033
			c-0.851-0.789-1.466-1.654-1.844-2.6c-0.127-0.315-0.221-0.677-0.283-1.088c-0.064-0.409-0.095-0.771-0.095-1.087v-52.479
			c0-1.449,0.551-2.679,1.655-3.688c1.102-1.008,2.316-1.607,3.64-1.797c0.629-0.062,1.308,0.033,2.033,0.284
			c0.724,0.253,1.402,0.614,2.033,1.087c0.629,0.473,1.149,1.025,1.56,1.655c0.409,0.631,0.615,1.292,0.615,1.985
			c0,1.64,0,3.814,0,6.524c0,2.711,0.015,5.673,0.047,8.888c0.031,3.215,0.047,6.541,0.047,9.976c0,3.437-0.017,6.73-0.047,9.882
			c-0.033,3.152-0.047,6.036-0.047,8.651c0,2.616-0.033,4.713-0.095,6.288L424.852,855.92z"/>
		<path style="fill:#FFFFFF;stroke:#000000;stroke-width:2;" d="M451.139,855.92c0.693,0.631,1.276,1.435,1.75,2.411
			c0.473,0.978,0.724,1.954,0.756,2.931c0.031,0.977-0.189,1.892-0.662,2.742c-0.473,0.852-1.309,1.497-2.505,1.938
			c-0.946,0.315-1.986,0.379-3.121,0.189s-2.254-0.567-3.356-1.135c-1.104-0.567-2.081-1.245-2.931-2.033
			c-0.851-0.789-1.466-1.654-1.844-2.6c-0.127-0.315-0.221-0.677-0.283-1.088c-0.064-0.409-0.095-0.771-0.095-1.087v-52.479
			c0-1.449,0.551-2.679,1.655-3.688c1.102-1.008,2.316-1.607,3.64-1.797c0.629-0.062,1.308,0.033,2.033,0.284
			c0.724,0.253,1.402,0.614,2.033,1.087c0.629,0.473,1.149,1.025,1.56,1.655c0.409,0.631,0.615,1.292,0.615,1.985
			c0,1.64,0,3.814,0,6.524c0,2.711,0.015,5.673,0.047,8.888c0.031,3.215,0.047,6.541,0.047,9.976c0,3.437-0.017,6.73-0.047,9.882
			c-0.033,3.152-0.047,6.036-0.047,8.651c0,2.616-0.033,4.713-0.095,6.288L451.139,855.92z"/>
		<path style="fill:#FFFFFF;stroke:#000000;stroke-width:2;" d="M461.256,805.333c0.251-2.331,1.055-4.05,2.411-5.153
			c1.355-1.103,2.79-1.639,4.302-1.607c1.513,0.032,2.915,0.614,4.208,1.749c1.291,1.135,1.969,2.742,2.033,4.822
			c0.125,2.144-0.425,3.799-1.655,4.964c-1.229,1.168-2.633,1.829-4.208,1.986c-1.577,0.158-3.059-0.268-4.444-1.276
			c-1.387-1.008-2.238-2.615-2.553-4.822L461.256,805.333z M473.738,859.135c-0.127,1.262-0.567,2.38-1.324,3.356
			s-1.624,1.686-2.601,2.128c-0.978,0.44-2.033,0.534-3.167,0.283c-1.135-0.252-2.144-0.945-3.026-2.08
			c-0.505-0.631-0.867-1.339-1.087-2.127c-0.221-0.788-0.363-1.607-0.425-2.459c-0.063-0.851-0.08-1.702-0.047-2.553
			c0.031-0.852,0.047-1.622,0.047-2.316c-0.063-3.719-0.08-7.406-0.047-11.063c0.031-3.655,0.015-7.343-0.047-11.062
			c0-1.513-0.094-3.041-0.284-4.586c-0.189-1.544-0.094-3.073,0.284-4.586c0.315-1.135,0.866-2.111,1.655-2.932
			c0.788-0.818,1.669-1.386,2.647-1.702c0.977-0.314,1.986-0.346,3.026-0.094s1.938,0.914,2.695,1.985
			c1.008,1.262,1.513,2.506,1.513,3.734c0,1.229,0,2.728,0,4.492c0,2.144,0,4.287,0,6.43c0,2.144,0.031,4.255,0.095,6.335
			c0.062,3.025,0.095,6.052,0.095,9.077s0,6.052,0,9.077V859.135z"/>
		<path style="fill:#FFFFFF;stroke:#000000;stroke-width:2;" d="M483.005,822.92c0.44-1.513,1.149-2.662,2.127-3.451
			c0.977-0.787,2.017-1.244,3.121-1.371c1.102-0.125,2.159,0.063,3.167,0.567c1.008,0.505,1.796,1.293,2.364,2.364
			c0.693-0.379,1.386-0.725,2.081-1.04c0.693-0.315,1.48-0.599,2.364-0.852c4.033-1.071,7.611-0.992,10.732,0.236
			c3.119,1.229,5.721,3.12,7.801,5.674c2.08,2.553,3.561,5.548,4.443,8.982c0.883,3.437,1.088,6.871,0.615,10.307
			c-0.473,3.437-1.688,6.651-3.641,9.645c-1.955,2.995-4.76,5.312-8.416,6.95c-2.396,1.07-4.902,1.749-7.517,2.032
			c-2.617,0.284-5.217,0.331-7.801,0.143c0,0.062,0.015,0.566,0.047,1.513c0.031,0.945,0.047,2.142,0.047,3.593
			c0,1.449,0,3.025,0,4.728s-0.047,3.341-0.142,4.917c-0.095,1.575-0.222,2.979-0.378,4.208c-0.158,1.229-0.394,2.063-0.709,2.506
			c-0.82,1.196-1.829,1.953-3.026,2.269c-1.198,0.315-2.333,0.268-3.404-0.142c-1.073-0.41-2.002-1.104-2.79-2.08
			c-0.789-0.978-1.182-2.16-1.182-3.546v-57.584L483.005,822.92z M495.108,835.212c-0.189,0.316-0.284,0.458-0.284,0.426
			c0-0.031-0.127,0.08-0.378,0.331v15.602c1.26,0.189,2.521,0.283,3.782,0.283c1.26,0,2.584-0.188,3.971-0.567
			c2.838-0.692,5.074-2.063,6.714-4.112c1.639-2.048,2.27-4.586,1.892-7.612c-0.189-1.26-0.553-2.567-1.088-3.924
			c-0.536-1.354-1.246-2.506-2.127-3.451c-0.884-0.945-1.924-1.607-3.121-1.985c-1.197-0.379-2.553-0.252-4.065,0.378
			c-1.073,0.441-2.033,1.104-2.884,1.985C496.668,833.448,495.865,834.33,495.108,835.212z"/>
		<path style="fill:#FFFFFF;stroke:#000000;stroke-width:2;" d="M527.066,855.447c-0.378-1.071-0.536-2.128-0.473-3.168
			c0.062-1.04,0.331-1.985,0.804-2.837c0.473-0.851,1.149-1.513,2.033-1.985c0.882-0.473,1.953-0.646,3.215-0.52
			c0.692,0.063,1.323,0.252,1.891,0.567s1.088,0.694,1.561,1.134c0.473,0.442,0.945,0.915,1.418,1.419
			c0.474,0.505,0.961,0.945,1.466,1.323c1.071,0.82,2.206,1.419,3.404,1.797c1.196,0.378,2.458,0.662,3.782,0.851
			c0.882,0,1.591-0.22,2.127-0.661c0.535-0.44,0.898-0.977,1.088-1.607c0.189-0.63,0.236-1.308,0.142-2.033
			c-0.095-0.724-0.331-1.308-0.709-1.749c-1.072-1.071-2.38-1.765-3.924-2.08c-1.546-0.315-2.979-0.693-4.303-1.135
			c-1.891-0.63-3.751-1.434-5.578-2.411c-1.829-0.977-3.31-2.317-4.444-4.019c-1.198-1.765-1.907-3.641-2.128-5.626
			c-0.222-1.986-0.063-3.925,0.473-5.815c0.535-1.892,1.434-3.624,2.695-5.201c1.26-1.574,2.773-2.867,4.538-3.876
			c1.324-0.757,2.773-1.244,4.35-1.466c1.575-0.221,3.168-0.268,4.775-0.142c1.607,0.127,3.198,0.425,4.775,0.897
			c1.574,0.474,3.025,0.993,4.35,1.561c1.513,0.694,2.647,1.671,3.403,2.932c0.757,1.262,1.118,2.538,1.088,3.829
			c-0.033,1.293-0.473,2.411-1.324,3.356c-0.851,0.946-2.097,1.419-3.734,1.419c-1.01,0-1.924-0.173-2.742-0.521
			c-0.82-0.346-1.671-0.677-2.554-0.993c-1.134-0.439-2.363-0.739-3.688-0.897c-1.323-0.157-2.396-0.079-3.215,0.236
			c-0.252,0.063-0.536,0.269-0.851,0.614c-0.316,0.348-0.553,0.772-0.709,1.276c-0.158,0.506-0.189,1.009-0.095,1.513
			c0.095,0.506,0.426,0.915,0.992,1.229c1.514,0.82,3.121,1.451,4.823,1.892c1.701,0.441,3.371,0.945,5.011,1.513
			c1.639,0.567,3.168,1.293,4.586,2.175c1.419,0.883,2.601,2.144,3.546,3.782c1.386,2.396,2.095,4.901,2.128,7.517
			c0.03,2.617-0.489,5.059-1.561,7.328c-1.072,2.27-2.647,4.208-4.728,5.815s-4.508,2.567-7.281,2.884
			c-1.954,0.189-3.876,0.078-5.768-0.331c-1.891-0.41-3.72-1.072-5.484-1.985c-1.766-0.915-3.403-2.001-4.917-3.263
			c-1.513-1.26-2.836-2.584-3.971-3.971L527.066,855.447z"/>
		<path style="fill:#FFFFFF;stroke:#000000;stroke-width:2;" d="M568.387,805.333c0.251-2.331,1.055-4.05,2.411-5.153
			c1.354-1.103,2.789-1.639,4.302-1.607c1.513,0.032,2.915,0.614,4.208,1.749c1.291,1.135,1.969,2.742,2.033,4.822
			c0.125,2.144-0.426,3.799-1.655,4.964c-1.229,1.168-2.633,1.829-4.208,1.986c-1.576,0.158-3.058-0.268-4.443-1.276
			c-1.388-1.008-2.238-2.615-2.554-4.822L568.387,805.333z M580.867,859.135c-0.127,1.262-0.567,2.38-1.323,3.356
			c-0.757,0.977-1.624,1.686-2.601,2.128c-0.978,0.44-2.033,0.534-3.167,0.283c-1.135-0.252-2.145-0.945-3.026-2.08
			c-0.505-0.631-0.867-1.339-1.087-2.127c-0.222-0.788-0.363-1.607-0.426-2.459c-0.063-0.851-0.08-1.702-0.047-2.553
			c0.03-0.852,0.047-1.622,0.047-2.316c-0.063-3.719-0.08-7.406-0.047-11.063c0.03-3.655,0.015-7.343-0.048-11.062
			c0-1.513-0.095-3.041-0.283-4.586c-0.189-1.544-0.095-3.073,0.283-4.586c0.314-1.135,0.866-2.111,1.655-2.932
			c0.787-0.818,1.669-1.386,2.647-1.702c0.977-0.314,1.985-0.346,3.025-0.094s1.938,0.914,2.695,1.985
			c1.007,1.262,1.513,2.506,1.513,3.734c0,1.229,0,2.728,0,4.492c0,2.144,0,4.287,0,6.43c0,2.144,0.031,4.255,0.095,6.335
			c0.062,3.025,0.094,6.052,0.094,9.077s0,6.052,0,9.077V859.135z"/>
		<path style="fill:#FFFFFF;stroke:#000000;stroke-width:2;" d="M590.135,822.92c0.44-1.513,1.149-2.662,2.127-3.451
			c0.977-0.787,2.017-1.244,3.12-1.371c1.103-0.125,2.159,0.063,3.168,0.567c1.008,0.505,1.797,1.293,2.364,2.364
			c0.692-0.379,1.386-0.725,2.08-1.04c0.692-0.315,1.48-0.599,2.363-0.852c4.034-1.071,7.612-0.992,10.732,0.236
			c3.12,1.229,5.721,3.12,7.801,5.674c2.08,2.553,3.561,5.548,4.444,8.982c0.882,3.437,1.087,6.871,0.614,10.307
			c-0.473,3.437-1.688,6.651-3.641,9.645c-1.954,2.995-4.76,5.312-8.415,6.95c-2.396,1.07-4.902,1.749-7.518,2.032
			c-2.616,0.284-5.217,0.331-7.801,0.143c0,0.062,0.016,0.566,0.048,1.513c0.031,0.945,0.047,2.142,0.047,3.593
			c0,1.449,0,3.025,0,4.728s-0.047,3.341-0.142,4.917c-0.095,1.575-0.222,2.979-0.378,4.208c-0.158,1.229-0.395,2.063-0.709,2.506
			c-0.82,1.196-1.829,1.953-3.026,2.269c-1.198,0.315-2.333,0.268-3.404-0.142c-1.072-0.41-2.001-1.104-2.789-2.08
			c-0.789-0.978-1.182-2.16-1.182-3.546v-57.584L590.135,822.92z M602.237,835.212c-0.188,0.316-0.283,0.458-0.283,0.426
			c0-0.031-0.127,0.08-0.379,0.331v15.602c1.261,0.189,2.521,0.283,3.782,0.283c1.261,0,2.584-0.188,3.972-0.567
			c2.837-0.692,5.073-2.063,6.714-4.112c1.638-2.048,2.269-4.586,1.891-7.612c-0.189-1.26-0.553-2.567-1.087-3.924
			c-0.537-1.354-1.246-2.506-2.128-3.451c-0.884-0.945-1.924-1.607-3.12-1.985c-1.198-0.379-2.553-0.252-4.066,0.378
			c-1.072,0.441-2.032,1.104-2.884,1.985C603.798,833.448,602.994,834.33,602.237,835.212z"/>
		<path style="fill:#FFFFFF;stroke:#000000;stroke-width:2;" d="M637.128,832.612c0.062-0.409,0.031-1.149-0.095-2.223
			c-1.009-0.567-1.796-1.291-2.363-2.175c-0.567-0.882-0.898-1.827-0.993-2.836c-0.095-1.008,0.095-1.97,0.567-2.885
			c0.473-0.912,1.244-1.686,2.316-2.316c1.449-0.818,3.041-0.977,4.775-0.473c1.732,0.506,3.229,1.262,4.491,2.27
			c1.575-1.196,3.215-2.206,4.917-3.025s3.435-1.371,5.2-1.655c1.765-0.283,3.561-0.236,5.39,0.142
			c1.828,0.379,3.624,1.168,5.39,2.364c0.882,0.567,1.702,1.276,2.459,2.128c0.756,0.851,1.229,1.812,1.418,2.884
			c0.314,1.576,0.189,2.947-0.378,4.113c-0.567,1.167-1.356,2.018-2.364,2.553c-1.009,0.536-2.144,0.694-3.404,0.473
			c-1.262-0.221-2.458-0.898-3.593-2.033c-0.378-0.251-0.647-0.456-0.804-0.614c-0.158-0.157-0.489-0.362-0.993-0.615
			c-1.009-0.251-2.002-0.188-2.979,0.189c-0.978,0.378-1.923,0.898-2.836,1.561c-0.915,0.661-1.766,1.387-2.554,2.175
			c-0.788,0.789-1.498,1.498-2.127,2.127v24.111c0,0.946-0.189,1.86-0.567,2.742c-0.567,1.449-1.466,2.459-2.695,3.026
			c-1.229,0.567-2.458,0.724-3.688,0.473c-1.229-0.253-2.302-0.884-3.215-1.892c-0.914-1.009-1.371-2.3-1.371-3.876v-26.476
			C637.033,833.101,637.064,833.022,637.128,832.612z"/>
		<path style="fill:#FFFFFF;stroke:#000000;stroke-width:2;" d="M708.232,820.083c0.757-1.26,1.702-2.127,2.837-2.6
			s2.253-0.582,3.356-0.331c1.103,0.253,2.08,0.82,2.932,1.702c0.851,0.883,1.37,2.049,1.56,3.498
			c0.126,1.073-0.08,2.586-0.614,4.539c-0.536,1.954-1.198,3.971-1.986,6.052c-0.788,2.08-1.592,4.065-2.411,5.957
			c-0.819,1.891-1.481,3.372-1.985,4.443c-2.144,4.728-4.477,9.361-6.997,13.899c-2.521,4.539-5.105,9.045-7.753,13.521
			c-0.379,0.693-0.82,1.544-1.324,2.554c-0.505,1.007-1.025,2.047-1.561,3.12c-0.536,1.071-1.087,2.08-1.654,3.025
			s-1.104,1.639-1.607,2.08c-1.135,1.071-2.302,1.702-3.499,1.892c-1.198,0.188-2.285,0.031-3.262-0.473
			c-0.979-0.506-1.766-1.293-2.364-2.364c-0.6-1.072-0.836-2.364-0.709-3.877c0.062-0.567,0.314-1.309,0.757-2.222
			c0.44-0.915,0.945-1.86,1.513-2.837c0.567-0.978,1.135-1.907,1.702-2.789c0.567-0.884,1.008-1.607,1.323-2.175
			c1.261-2.08,2.474-4.16,3.641-6.241c1.166-2.08,2.348-4.16,3.546-6.24c-4.16-3.466-7.77-7.328-10.826-11.583
			c-3.059-4.255-5.406-8.936-7.045-14.041c-0.316-0.883-0.631-1.765-0.945-2.647c-0.316-0.883-0.411-1.797-0.284-2.742
			c0.126-1.071,0.426-2.033,0.898-2.884c0.473-0.852,1.088-1.544,1.844-2.081c0.757-0.534,1.623-0.834,2.601-0.897
			c0.977-0.062,1.97,0.157,2.979,0.661c0.818,0.442,1.466,1.057,1.938,1.844c0.473,0.789,0.865,1.641,1.182,2.554
			c0.314,0.914,0.582,1.844,0.804,2.789c0.221,0.945,0.487,1.797,0.804,2.553c2.521,6.241,6.335,11.568,11.441,15.98
			c1.827-3.782,3.466-7.58,4.917-11.395c1.449-3.813,2.742-7.706,3.877-11.678L708.232,820.083z"/>
		<path style="fill:#FFFFFF;stroke:#000000;stroke-width:2;" d="M747.66,834.739v-1.323c-0.567-1.449-1.481-2.474-2.741-3.073
			c-1.262-0.599-2.617-0.96-4.066-1.088c-0.82,0.253-1.481,0.537-1.985,0.852c-0.506,0.316-0.945,0.662-1.324,1.04
			c-0.378,0.378-0.726,0.804-1.04,1.276c-0.316,0.473-0.694,0.962-1.135,1.466v24.773c0,1.954-0.583,3.482-1.749,4.586
			c-1.167,1.102-2.458,1.732-3.877,1.891c-1.418,0.157-2.728-0.188-3.924-1.04c-1.198-0.851-1.829-2.285-1.891-4.302
			c-0.128-4.854-0.175-10.369-0.143-16.548c0.031-6.177,0.048-13.079,0.048-20.707c0-1.324,0.393-2.426,1.182-3.31
			c0.787-0.882,1.733-1.48,2.837-1.797c1.102-0.314,2.236-0.298,3.403,0.048c1.166,0.347,2.128,1.056,2.885,2.127
			c3.529-1.764,7.044-2.316,10.542-1.654c3.499,0.662,6.667,2.316,9.503,4.964c1.261-1.26,2.615-2.395,4.066-3.403
			c1.449-1.008,3.025-1.67,4.728-1.986c1.953-0.314,3.924-0.236,5.909,0.236c1.986,0.473,3.83,1.246,5.532,2.316
			c1.702,1.073,3.198,2.396,4.491,3.972c1.291,1.576,2.253,3.278,2.884,5.106c0.314,1.262,0.473,2.396,0.473,3.403v25.719
			c0,0.757-0.095,1.482-0.283,2.175c-0.567,1.639-1.466,2.79-2.695,3.452c-1.229,0.661-2.491,0.897-3.782,0.709
			c-1.293-0.189-2.411-0.789-3.356-1.797c-0.945-1.009-1.418-2.364-1.418-4.065v-25.436c-0.567-1.513-1.388-2.615-2.459-3.31
			c-1.072-0.693-2.175-1.008-3.31-0.945c-1.135,0.063-2.222,0.473-3.262,1.229c-1.04,0.757-1.877,1.797-2.506,3.121v24.773
			c0,1.702-0.553,3.12-1.654,4.255c-1.104,1.135-2.317,1.858-3.641,2.175c-1.324,0.314-2.569,0.188-3.735-0.379
			c-1.167-0.567-1.844-1.701-2.032-3.403L747.66,834.739z"/>
		<path style="fill:#FFFFFF;stroke:#000000;stroke-width:2;" d="M826.896,859.324c-0.189,1.576-0.772,2.867-1.749,3.876
			c-0.979,1.008-2.08,1.639-3.31,1.892c-1.229,0.251-2.411,0.095-3.546-0.473s-1.955-1.671-2.458-3.31
			c-0.567-1.765-0.789-3.608-0.662-5.531c0.125-1.923,0.188-3.703,0.188-5.343c0-3.404,0.016-6.792,0.048-10.165
			c0.031-3.371-0.111-6.76-0.426-10.164c-0.063-0.126-0.127-0.236-0.188-0.331c-0.064-0.095-0.189-0.236-0.379-0.426
			c-1.45-0.378-2.994-0.283-4.633,0.284c-1.64,0.567-3.026,1.292-4.16,2.175c-1.01,0.819-2.002,1.938-2.979,3.356
			c-0.979,1.418-1.466,2.789-1.466,4.113v13.049c0,1.009,0.031,2.112,0.095,3.309c0.062,1.198,0.015,2.364-0.143,3.499
			s-0.52,2.175-1.087,3.12s-1.482,1.639-2.742,2.08c-0.694,0.251-1.34,0.346-1.938,0.284c-0.6-0.063-1.245-0.222-1.938-0.473
			c-1.135-0.379-1.954-1.025-2.458-1.938c-0.506-0.913-0.852-1.892-1.04-2.932c-0.189-1.04-0.27-2.048-0.236-3.025
			c0.03-0.977,0.047-1.749,0.047-2.316c0-1.45-0.017-3.546-0.047-6.288c-0.033-2.742-0.048-5.626-0.048-8.652
			c0-3.025,0-5.909,0-8.651s0-4.837,0-6.288c0-1.386,0.409-2.537,1.229-3.451c0.818-0.913,1.78-1.513,2.884-1.797
			c1.103-0.283,2.27-0.22,3.499,0.189c1.229,0.411,2.253,1.245,3.072,2.506c2.521-1.639,5.296-2.742,8.321-3.31
			s5.877-0.473,8.558,0.283c2.678,0.757,4.916,2.175,6.713,4.256c1.797,2.08,2.726,4.949,2.789,8.604
			c0,0.127,0.031,0.505,0.095,1.134c0.062,0.631,0.095,1.514,0.095,2.648V859.324z"/>
		<path style="fill:#FFFFFF;stroke:#000000;stroke-width:2;" d="M877.577,854.407c0.567,0.819,0.898,1.781,0.993,2.884
			c0.095,1.104-0.032,2.144-0.378,3.12c-0.348,0.979-0.915,1.78-1.702,2.411c-0.789,0.63-1.812,0.913-3.073,0.851
			c-1.64-0.127-2.964-0.694-3.971-1.701c-1.01-1.008-1.955-2.143-2.837-3.404c-2.459,2.019-4.997,3.419-7.612,4.208
			c-2.616,0.787-5.186,0.96-7.706,0.52c-2.521-0.441-4.886-1.498-7.092-3.167c-2.207-1.67-4.065-3.925-5.578-6.761
			c-1.388-2.647-2.16-5.579-2.316-8.794c-0.158-3.215-0.206-6.271-0.143-9.172c0-1.008,0.031-2,0.095-2.979
			c0.062-0.977,0.126-2,0.189-3.073c0.062-0.818,0.095-1.622,0.095-2.411c0-0.787,0.047-1.527,0.142-2.222
			c0.095-0.693,0.283-1.386,0.567-2.08c0.283-0.693,0.709-1.355,1.276-1.986c0.757-0.818,1.669-1.308,2.742-1.465
			c1.071-0.157,2.095-0.048,3.073,0.331c0.977,0.378,1.827,0.961,2.553,1.749c0.724,0.789,1.118,1.749,1.182,2.884
			c0.126,3.215,0.048,6.462-0.236,9.739c-0.283,3.278-0.269,6.493,0.048,9.645c0.125,1.513,0.52,3.059,1.182,4.633
			c0.662,1.577,1.717,2.711,3.167,3.404c1.45,0.631,2.915,0.584,4.397-0.142c1.48-0.725,2.694-1.592,3.641-2.601
			c0.439-0.504,0.865-1.055,1.276-1.654c0.409-0.599,0.865-1.119,1.371-1.561c-0.253-2.206-0.411-4.411-0.473-6.619
			c-0.064-2.205-0.064-4.411,0-6.618c0-1.197,0.047-2.506,0.142-3.925c0.095-1.418,0.346-2.772,0.756-4.065
			c0.409-1.291,1.024-2.426,1.844-3.404c0.819-0.977,1.986-1.591,3.499-1.844c0.692-0.125,1.371-0.062,2.033,0.189
			c0.661,0.253,1.243,0.6,1.749,1.04c0.882,0.757,1.48,1.607,1.797,2.553c0.314,0.945,0.473,1.955,0.473,3.026
			c0,1.072-0.08,2.159-0.236,3.262c-0.158,1.104-0.27,2.128-0.331,3.073c-0.127,1.766-0.222,3.625-0.284,5.578
			c-0.063,1.955,0,3.91,0.189,5.863c0.189,1.954,0.551,3.846,1.087,5.673C875.701,851.225,876.505,852.895,877.577,854.407z"/>
		<path style="fill:#FFFFFF;stroke:#000000;stroke-width:2;" d="M884.1,855.447c-0.378-1.071-0.536-2.128-0.473-3.168
			c0.062-1.04,0.331-1.985,0.804-2.837c0.473-0.851,1.149-1.513,2.033-1.985c0.882-0.473,1.953-0.646,3.215-0.52
			c0.692,0.063,1.323,0.252,1.891,0.567s1.088,0.694,1.561,1.134c0.473,0.442,0.945,0.915,1.418,1.419
			c0.474,0.505,0.961,0.945,1.466,1.323c1.071,0.82,2.206,1.419,3.404,1.797c1.196,0.378,2.458,0.662,3.782,0.851
			c0.882,0,1.591-0.22,2.127-0.661c0.535-0.44,0.898-0.977,1.088-1.607c0.189-0.63,0.236-1.308,0.142-2.033
			c-0.095-0.724-0.331-1.308-0.709-1.749c-1.072-1.071-2.38-1.765-3.924-2.08c-1.546-0.315-2.979-0.693-4.303-1.135
			c-1.891-0.63-3.751-1.434-5.578-2.411c-1.829-0.977-3.31-2.317-4.444-4.019c-1.198-1.765-1.907-3.641-2.128-5.626
			c-0.222-1.986-0.063-3.925,0.473-5.815c0.535-1.892,1.434-3.624,2.695-5.201c1.26-1.574,2.773-2.867,4.538-3.876
			c1.324-0.757,2.773-1.244,4.35-1.466c1.575-0.221,3.168-0.268,4.775-0.142c1.607,0.127,3.198,0.425,4.775,0.897
			c1.574,0.474,3.025,0.993,4.35,1.561c1.513,0.694,2.647,1.671,3.403,2.932c0.757,1.262,1.118,2.538,1.088,3.829
			c-0.033,1.293-0.473,2.411-1.324,3.356c-0.851,0.946-2.097,1.419-3.734,1.419c-1.01,0-1.924-0.173-2.742-0.521
			c-0.82-0.346-1.671-0.677-2.554-0.993c-1.134-0.439-2.363-0.739-3.688-0.897c-1.323-0.157-2.396-0.079-3.215,0.236
			c-0.252,0.063-0.536,0.269-0.851,0.614c-0.316,0.348-0.553,0.772-0.709,1.276c-0.158,0.506-0.189,1.009-0.095,1.513
			c0.095,0.506,0.426,0.915,0.992,1.229c1.514,0.82,3.121,1.451,4.823,1.892c1.701,0.441,3.371,0.945,5.011,1.513
			c1.639,0.567,3.168,1.293,4.586,2.175c1.419,0.883,2.601,2.144,3.546,3.782c1.386,2.396,2.095,4.901,2.128,7.517
			c0.03,2.617-0.489,5.059-1.561,7.328c-1.072,2.27-2.647,4.208-4.728,5.815s-4.508,2.567-7.281,2.884
			c-1.954,0.189-3.876,0.078-5.768-0.331c-1.891-0.41-3.72-1.072-5.484-1.985c-1.766-0.915-3.403-2.001-4.917-3.263
			c-1.513-1.26-2.836-2.584-3.971-3.971L884.1,855.447z"/>
		<path style="fill:#FFFFFF;stroke:#000000;stroke-width:2;" d="M349.941,943.974c0.662,1.276,0.897,2.564,0.709,3.865
			c-0.189,1.3-1.041,2.257-2.553,2.872c-1.418,0.52-2.778,0.378-4.078-0.426c-1.301-0.805-2.471-1.892-3.51-3.262
			c-1.041-1.372-1.939-2.813-2.695-4.326c-0.757-1.514-1.324-2.742-1.702-3.688c-2.411-5.578-3.712-11.382-3.9-17.41
			c-0.189-6.027,0.591-11.901,2.34-17.623c0.425-1.465,0.993-2.848,1.702-4.148c0.709-1.3,1.418-2.611,2.127-3.936
			c0.425-0.756,0.957-1.702,1.595-2.837c0.639-1.135,1.383-2.15,2.234-3.049c0.851-0.897,1.784-1.536,2.801-1.915
			c1.016-0.378,2.115-0.213,3.298,0.496c1.135,0.709,1.749,1.55,1.844,2.518c0.094,0.97-0.083,1.963-0.532,2.979
			c-0.45,1.018-1.018,1.998-1.702,2.943c-0.686,0.946-1.241,1.749-1.667,2.411c-0.615,1.088-1.124,2.01-1.525,2.766
			c-0.402,0.757-0.733,1.396-0.993,1.915c-0.26,0.521-0.461,0.981-0.603,1.383c-0.142,0.402-0.26,0.792-0.354,1.17
			c-0.709,2.459-1.23,5.095-1.56,7.907c-0.331,2.813-0.425,5.638-0.284,8.475c0.142,2.836,0.567,5.614,1.276,8.332
			c0.709,2.72,1.749,5.213,3.121,7.482c0.236,0.425,0.543,0.861,0.922,1.312c0.378,0.449,0.72,0.851,1.028,1.206
			c0.307,0.354,0.555,0.638,0.745,0.851c0.188,0.213,0.236,0.271,0.142,0.178L349.941,943.974z"/>
		<path style="fill:#FFFFFF;stroke:#000000;stroke-width:2;" d="M390.01,908.161c0.709-0.945,1.525-1.596,2.447-1.95
			s1.784-0.426,2.588-0.213c0.803,0.213,1.489,0.698,2.057,1.454c0.567,0.757,0.874,1.772,0.922,3.049
			c0.046,0.709-0.248,1.986-0.886,3.83c-0.639,1.844-1.408,4.255-2.305,7.233c-0.047,0.189-0.13,0.425-0.248,0.709
			c-0.119,0.283-0.284,0.757-0.497,1.418c-0.212,0.663-0.521,1.585-0.922,2.766c-0.402,1.183-0.957,2.767-1.667,4.752
			c-0.331,0.992-0.745,2.175-1.241,3.546c-0.497,1.371-1.124,2.588-1.879,3.652c-0.757,1.063-1.656,1.796-2.695,2.198
			c-1.041,0.401-2.294,0.106-3.759-0.887c-0.473-0.331-0.993-1.004-1.56-2.021c-0.567-1.016-1.111-2.115-1.631-3.297
			c-0.521-1.182-0.982-2.305-1.383-3.369c-0.402-1.063-0.674-1.761-0.816-2.092c-0.331-0.756-0.709-1.596-1.134-2.518
			c-0.426-0.922-0.828-1.854-1.206-2.801l-0.425,1.063c-0.615,1.561-1.23,3.12-1.844,4.681c-0.615,1.56-1.23,3.097-1.844,4.609
			c-0.332,0.805-0.638,1.679-0.922,2.624c-0.284,0.946-0.686,1.772-1.206,2.481c-0.426,0.614-0.958,1.052-1.596,1.312
			c-0.638,0.259-1.289,0.365-1.95,0.319c-0.663-0.048-1.289-0.226-1.879-0.532c-0.592-0.308-1.099-0.744-1.525-1.312
			c-0.663-0.945-1.182-2.032-1.56-3.263c-0.379-1.229-0.757-2.363-1.135-3.404c-0.521-1.465-0.993-2.966-1.418-4.503
			c-0.426-1.535-0.875-3.014-1.348-4.432c-0.237-0.756-0.544-1.749-0.922-2.979c-0.379-1.229-0.745-2.493-1.099-3.794
			c-0.354-1.3-0.638-2.564-0.851-3.795c-0.213-1.229-0.296-2.244-0.248-3.049c0.046-0.804,0.319-1.524,0.815-2.163
			s1.099-1.11,1.809-1.418c0.709-0.308,1.454-0.414,2.234-0.319c0.78,0.095,1.477,0.45,2.092,1.063
			c0.897,0.946,1.441,1.95,1.631,3.014c0.188,1.064,0.401,2.211,0.639,3.439c0.377,1.892,0.815,3.759,1.312,5.603
			c0.497,1.844,1.028,3.688,1.596,5.531c0.188-0.425,0.401-0.944,0.638-1.56c0.236-0.614,0.614-1.536,1.135-2.766
			c0.426-1.04,0.839-2.057,1.241-3.05c0.401-0.992,0.791-1.985,1.17-2.979c0.284-0.709,0.567-1.406,0.851-2.092
			c0.284-0.685,0.567-1.358,0.851-2.021c0.33-0.709,0.815-1.287,1.454-1.737c0.638-0.448,1.335-0.732,2.092-0.851
			c0.755-0.117,1.489-0.047,2.198,0.213s1.276,0.744,1.702,1.453c0.614,0.946,1.087,1.998,1.418,3.156
			c0.33,1.159,0.685,2.258,1.063,3.298c0.662,1.701,1.312,3.416,1.95,5.141c0.638,1.727,1.312,3.417,2.021,5.071
			c1.04-2.837,1.961-5.685,2.766-8.546c0.803-2.859,1.677-5.709,2.624-8.545L390.01,908.161z"/>
		<path style="fill:#FFFFFF;stroke:#000000;stroke-width:2;" d="M432.063,935.677c0.377,1.372,0.307,2.506-0.213,3.403
			c-0.521,0.898-1.241,1.501-2.163,1.809s-1.927,0.271-3.014-0.106c-1.088-0.379-2.034-1.135-2.837-2.269
			c-1.324,0.992-2.613,1.689-3.865,2.092c-1.253,0.401-2.684,0.626-4.291,0.674c-2.411,0.094-4.563-0.178-6.454-0.815
			c-1.891-0.639-3.487-1.596-4.787-2.873c-1.301-1.276-2.258-2.872-2.872-4.786c-0.615-1.915-0.828-4.124-0.638-6.631
			c0.094-1.039,0.271-2.057,0.532-3.05c0.259-0.992,0.555-1.961,0.886-2.907c0.378-1.039,0.91-2.15,1.596-3.333
			c0.685-1.182,1.383-2.198,2.092-3.05c2.553-3.12,5.744-5.365,9.574-6.736c0.661-0.236,1.56-0.449,2.695-0.639
			c1.134-0.188,2.28-0.271,3.439-0.248c1.158,0.024,2.269,0.177,3.333,0.461c1.063,0.283,1.855,0.78,2.375,1.489
			c0.426,0.567,0.732,1.063,0.922,1.489c0.188,0.426,0.295,0.875,0.319,1.348c0.023,0.473,0.023,0.981,0,1.524
			c-0.024,0.544-0.036,1.218-0.036,2.021c0,1.323-0.012,2.612-0.035,3.864c-0.024,1.254-0.012,2.518,0.035,3.794
			c0,0.426,0,0.982,0,1.667c0,0.686,0.023,1.407,0.071,2.163c0.047,0.757,0.106,1.478,0.178,2.163
			c0.071,0.686,0.177,1.24,0.319,1.666L432.063,935.677z M417.028,932.485c0.52-0.33,1.11-0.697,1.773-1.1
			c0.662-0.4,1.252-0.861,1.773-1.383c-0.425-2.505-0.674-5.011-0.745-7.517s-0.06-5.035,0.036-7.588
			c-2.127,0.379-4.042,1.301-5.744,2.766c-1.702,1.466-2.884,3.191-3.546,5.177c-0.284,0.805-0.521,1.631-0.709,2.482
			c-0.19,0.851-0.261,1.679-0.213,2.481c0.046,1.088,0.33,1.998,0.851,2.73c0.52,0.733,1.146,1.289,1.879,1.666
			c0.732,0.38,1.513,0.592,2.34,0.639C415.55,932.888,416.319,932.769,417.028,932.485z"/>
		<path style="fill:#FFFFFF;stroke:#000000;stroke-width:2;" d="M437.949,915.182c-0.946-0.236-1.762-0.638-2.446-1.205
			c-0.686-0.567-1.159-1.229-1.418-1.986c-0.26-0.756-0.26-1.535,0-2.34c0.259-0.804,0.839-1.536,1.737-2.198
			c0.756-0.567,1.607-0.852,2.553-0.852c0.945,0,1.867,0,2.766,0c0-0.33-0.024-1.051-0.071-2.163
			c-0.048-1.109-0.06-2.327-0.036-3.651c0.023-1.323,0.106-2.589,0.249-3.794c0.142-1.206,0.401-2.045,0.78-2.518
			c0.945-1.323,2.115-1.95,3.51-1.88c1.394,0.071,2.541,0.745,3.439,2.021c0.188,0.237,0.366,0.521,0.532,0.851
			c0.165,0.331,0.248,0.639,0.248,0.922c0.046,1.702,0.059,3.404,0.036,5.106c-0.024,1.702-0.036,3.403-0.036,5.105h5.603
			c0.851,0,1.583,0.284,2.198,0.852c0.614,0.567,1.052,1.229,1.312,1.985c0.259,0.757,0.33,1.537,0.213,2.34
			c-0.119,0.805-0.485,1.467-1.1,1.986c-1.088,0.898-2.352,1.371-3.794,1.418c-1.442,0.048-2.919,0.071-4.432,0.071
			c0,2.601-0.012,5.201-0.036,7.801c-0.024,2.601-0.012,5.201,0.036,7.801c0,1.135,0.059,2.293,0.177,3.475
			c0.118,1.183,0.036,2.317-0.248,3.404c-0.237,0.851-0.638,1.524-1.206,2.021c-0.567,0.497-1.206,0.804-1.915,0.922
			c-0.709,0.118-1.442,0.071-2.198-0.142c-0.757-0.213-1.466-0.603-2.127-1.17c-0.332-0.331-0.58-0.897-0.745-1.702
			c-0.167-0.804-0.272-1.654-0.319-2.553c-0.047-1.039-0.047-2.151,0-3.333c0-0.945,0-2.174,0-3.688
			c0-1.513-0.012-3.085-0.035-4.716c-0.024-1.632-0.036-3.18-0.036-4.646c0-1.465,0-2.624,0-3.475L437.949,915.182z"/>
		<path style="fill:#FFFFFF;stroke:#000000;stroke-width:2;" d="M485.818,929.294c1.135-0.283,2.139-0.295,3.014-0.035
			c0.874,0.26,1.548,0.698,2.021,1.312c0.472,0.615,0.685,1.372,0.638,2.27c-0.048,0.898-0.45,1.844-1.206,2.837
			c-0.615,0.805-1.466,1.489-2.553,2.057c-1.088,0.567-2.104,1.017-3.049,1.347c-2.317,0.852-4.515,1.442-6.595,1.773
			c-2.081,0.33-4.031,0.33-5.851,0c-1.82-0.331-3.522-1.018-5.106-2.057c-1.584-1.039-3.062-2.505-4.432-4.396
			c-0.946-1.276-1.643-2.73-2.092-4.361c-0.45-1.632-0.698-3.298-0.745-5c-0.047-1.702,0.094-3.38,0.426-5.035
			c0.33-1.654,0.803-3.144,1.418-4.468c0.803-1.654,2.08-3.167,3.829-4.538c1.749-1.371,3.688-2.458,5.815-3.263
			c2.127-0.803,4.301-1.264,6.524-1.383c2.222-0.117,4.184,0.225,5.886,1.028c1.418,0.663,2.635,1.62,3.652,2.872
			c1.016,1.253,1.713,2.613,2.092,4.078c0.378,1.466,0.414,2.942,0.106,4.432c-0.308,1.489-1.076,2.85-2.305,4.078
			c-1.182,1.183-2.482,2.14-3.9,2.872c-1.418,0.733-2.884,1.372-4.397,1.915c-1.514,0.544-3.062,1.005-4.645,1.383
			c-1.584,0.379-3.109,0.804-4.574,1.276c0.993,1.135,2.127,1.855,3.404,2.163s2.612,0.366,4.007,0.177
			c1.394-0.188,2.801-0.578,4.219-1.17c1.418-0.591,2.742-1.241,3.972-1.95L485.818,929.294z M471.493,917.097
			c-1.088,0.615-1.891,1.383-2.411,2.305c-0.521,0.922-0.898,2.211-1.135,3.865c1.229-0.378,2.612-0.78,4.149-1.206
			c1.536-0.426,2.989-0.874,4.361-1.348c1.371-0.472,2.528-0.992,3.475-1.56c0.945-0.567,1.418-1.182,1.418-1.844
			c0-0.378-0.06-0.745-0.177-1.1c-0.119-0.354-0.367-0.603-0.745-0.744c-1.324-0.473-2.695-0.567-4.113-0.284
			c-1.418,0.284-2.601,0.686-3.545,1.206L471.493,917.097z"/>
		<path style="fill:#FFFFFF;stroke:#000000;stroke-width:2;" d="M498.795,916.919c0.047-0.307,0.023-0.862-0.071-1.666
			c-0.757-0.426-1.347-0.969-1.773-1.631c-0.425-0.662-0.674-1.371-0.745-2.128c-0.071-0.756,0.071-1.478,0.426-2.163
			c0.354-0.685,0.933-1.265,1.737-1.737c1.087-0.614,2.28-0.732,3.582-0.354c1.299,0.379,2.422,0.946,3.368,1.702
			c1.181-0.897,2.411-1.654,3.688-2.27c1.276-0.614,2.577-1.028,3.9-1.241s2.671-0.177,4.042,0.106s2.719,0.875,4.043,1.772
			c0.661,0.426,1.276,0.958,1.844,1.596c0.567,0.639,0.922,1.36,1.063,2.163c0.236,1.183,0.142,2.211-0.283,3.085
			c-0.426,0.876-1.018,1.514-1.773,1.915c-0.757,0.402-1.607,0.521-2.553,0.354c-0.946-0.165-1.844-0.674-2.695-1.524
			c-0.283-0.188-0.485-0.343-0.603-0.461c-0.118-0.118-0.367-0.271-0.744-0.461c-0.757-0.188-1.502-0.143-2.234,0.142
			c-0.733,0.283-1.442,0.674-2.127,1.17c-0.687,0.496-1.324,1.04-1.915,1.631c-0.592,0.592-1.124,1.124-1.596,1.596v18.084
			c0,0.709-0.142,1.395-0.426,2.057c-0.425,1.087-1.099,1.844-2.021,2.27c-0.922,0.425-1.844,0.543-2.766,0.354
			c-0.922-0.189-1.727-0.663-2.412-1.419c-0.686-0.757-1.028-1.725-1.028-2.907v-19.856
			C498.724,917.286,498.748,917.228,498.795,916.919z"/>
		<path style="fill:#FFFFFF;stroke:#000000;stroke-width:2;" d="M540.918,940.641c-1.372,0.047-2.684-0.048-3.936-0.283
			c-1.253-0.237-2.494-0.639-3.724-1.206c-0.614,0.33-1.218,0.496-1.808,0.496c-0.592,0-1.135-0.095-1.632-0.283
			c-0.496-0.189-0.922-0.414-1.276-0.674c-0.354-0.259-0.603-0.461-0.744-0.603c-0.521-0.756-0.828-1.606-0.922-2.553
			c-0.096-0.945,0.213-1.845,0.922-2.695v-36.451c0-1.087,0.378-1.996,1.135-2.73c0.756-0.732,1.631-1.193,2.624-1.383
			c0.992-0.188,1.95-0.022,2.872,0.497c0.922,0.521,1.548,1.466,1.879,2.836c0.188,0.852,0.343,1.691,0.461,2.518
			c0.117,0.828,0.188,1.785,0.213,2.872c0.023,1.089,0.023,2.341,0,3.759c-0.024,1.419-0.083,3.168-0.178,5.248
			c0.426-0.236,0.862-0.461,1.312-0.674c0.448-0.213,0.909-0.437,1.383-0.674c1.323-0.613,2.741-0.992,4.255-1.135
			c1.513-0.142,2.989-0.059,4.433,0.249c1.441,0.308,2.789,0.875,4.042,1.701c1.252,0.828,2.28,1.904,3.085,3.227
			c1.135,1.892,1.902,4.103,2.305,6.631c0.401,2.53,0.401,5.035,0,7.518c-0.402,2.481-1.23,4.787-2.482,6.914
			c-1.253,2.128-3.014,3.712-5.283,4.752c-1.418,0.661-2.872,1.17-4.361,1.524S542.479,940.593,540.918,940.641z M536.45,922.486
			v8.51c0.095,0.096,0.188,0.166,0.284,0.213c0.094,0.048,0.188,0.118,0.283,0.213c4.255,1.418,7.942,0.449,11.063-2.908
			c0.709-1.89,1.051-3.675,1.028-5.354c-0.024-1.678-0.344-3.486-0.958-5.426c-0.237-0.567-0.627-0.933-1.17-1.099
			c-0.544-0.165-1.028-0.366-1.454-0.603c-0.757-0.143-1.572,0-2.446,0.425c-0.875,0.426-1.714,0.958-2.518,1.596
			c-0.805,0.639-1.537,1.337-2.198,2.092c-0.663,0.757-1.183,1.396-1.561,1.915L536.45,922.486z"/>
		<path style="fill:#FFFFFF;stroke:#000000;stroke-width:2;" d="M594.246,933.266c0.426,0.615,0.674,1.336,0.745,2.163
			c0.07,0.827-0.024,1.607-0.284,2.34c-0.26,0.733-0.686,1.335-1.276,1.809c-0.592,0.472-1.359,0.685-2.305,0.638
			c-1.229-0.095-2.223-0.521-2.979-1.276c-0.757-0.756-1.466-1.606-2.127-2.553c-1.844,1.514-3.748,2.564-5.709,3.155
			c-1.963,0.591-3.89,0.721-5.78,0.391c-1.891-0.331-3.664-1.124-5.318-2.376c-1.655-1.252-3.05-2.942-4.184-5.07
			c-1.041-1.985-1.62-4.185-1.738-6.596s-0.153-4.703-0.106-6.879c0-0.755,0.023-1.5,0.071-2.233c0.047-0.732,0.095-1.5,0.142-2.305
			c0.047-0.614,0.071-1.217,0.071-1.809c0-0.591,0.035-1.146,0.106-1.666s0.213-1.04,0.426-1.561
			c0.212-0.52,0.531-1.016,0.957-1.489c0.567-0.614,1.252-0.98,2.057-1.1c0.804-0.117,1.571-0.035,2.305,0.249
			c0.732,0.283,1.371,0.721,1.915,1.312c0.543,0.592,0.839,1.312,0.886,2.163c0.095,2.411,0.036,4.847-0.177,7.305
			s-0.202,4.869,0.035,7.233c0.095,1.135,0.391,2.293,0.887,3.475c0.496,1.183,1.287,2.033,2.376,2.553
			c1.087,0.474,2.186,0.438,3.297-0.106c1.11-0.543,2.021-1.193,2.73-1.95c0.33-0.378,0.649-0.791,0.958-1.241
			c0.307-0.448,0.648-0.838,1.027-1.17c-0.189-1.654-0.308-3.309-0.354-4.964c-0.047-1.654-0.047-3.309,0-4.964
			c0-0.897,0.036-1.88,0.106-2.943c0.071-1.063,0.26-2.08,0.567-3.05c0.308-0.968,0.769-1.819,1.383-2.553
			c0.614-0.732,1.489-1.193,2.624-1.383c0.52-0.094,1.028-0.047,1.524,0.142c0.497,0.189,0.934,0.45,1.312,0.78
			c0.661,0.567,1.11,1.206,1.348,1.915c0.235,0.709,0.354,1.466,0.354,2.27s-0.061,1.62-0.178,2.446
			c-0.118,0.828-0.201,1.596-0.248,2.305c-0.096,1.324-0.166,2.72-0.213,4.185c-0.048,1.466,0,2.932,0.142,4.396
			c0.143,1.466,0.414,2.884,0.816,4.255C592.839,930.879,593.442,932.131,594.246,933.266z"/>
		<path style="fill:#FFFFFF;stroke:#000000;stroke-width:2;" d="M618.215,929.933c1.182-0.756,2.305-1.087,3.369-0.993
			c1.063,0.096,1.938,0.461,2.624,1.1c0.685,0.638,1.063,1.489,1.135,2.553c0.07,1.063-0.296,2.188-1.1,3.368
			c-0.521,0.805-1.266,1.537-2.234,2.198c-0.969,0.662-1.903,1.182-2.801,1.561c-2.081,0.945-4.184,1.371-6.312,1.276
			s-4.103-0.615-5.922-1.56c-1.82-0.945-3.393-2.258-4.716-3.937c-1.324-1.678-2.223-3.628-2.694-5.851
			c-0.946-4.255-0.757-8.344,0.567-12.269c0.52-1.418,1.146-2.789,1.879-4.113c0.732-1.322,1.619-2.528,2.659-3.616
			c1.04-1.087,2.198-2.045,3.476-2.872c1.276-0.827,2.67-1.383,4.184-1.667c1.039-0.188,2.363-0.177,3.972,0.036
			c1.606,0.212,3.179,0.627,4.716,1.24c1.535,0.615,2.883,1.419,4.042,2.411c1.158,0.993,1.809,2.176,1.95,3.546
			c0.094,0.757,0,1.454-0.283,2.093c-0.284,0.638-0.687,1.17-1.206,1.596c-0.521,0.425-1.123,0.721-1.809,0.886
			c-0.686,0.166-1.383,0.154-2.092-0.035c-0.851-0.236-1.524-0.556-2.021-0.957c-0.496-0.401-1.146-0.934-1.95-1.596
			c-0.379-0.095-0.733-0.248-1.063-0.461c-0.331-0.213-0.686-0.295-1.063-0.248l-1.915,0.212c-0.331,0.189-0.638,0.354-0.922,0.497
			c-0.283,0.142-0.567,0.283-0.851,0.425c-1.608,1.608-2.79,3.394-3.546,5.354c-0.757,1.963-0.946,4.078-0.567,6.347
			c0.236,1.467,0.697,2.672,1.383,3.617c0.685,0.946,1.489,1.596,2.411,1.95s1.938,0.39,3.05,0.106
			c1.109-0.284,2.209-0.922,3.297-1.915L618.215,929.933z"/>
		<path style="fill:#FFFFFF;stroke:#000000;stroke-width:2;" d="M638.568,939.896c-0.946,0.685-1.927,1.004-2.943,0.957
			c-1.017-0.048-1.914-0.461-2.694-1.241s-1.17-1.854-1.17-3.227v-40.422c0-0.71,0.2-1.359,0.603-1.95
			c0.401-0.591,0.909-1.075,1.524-1.454c0.614-0.378,1.288-0.626,2.021-0.745c0.732-0.117,1.406-0.094,2.021,0.071
			c0.614,0.166,1.146,0.521,1.596,1.063c0.449,0.544,0.697,1.289,0.745,2.234c0.142,3.688,0.213,6.997,0.213,9.928
			c0,2.933-0.024,5.887-0.071,8.865c1.087-0.804,2.115-1.643,3.085-2.518c0.969-0.875,1.926-1.784,2.872-2.73
			c0.851-0.897,1.678-1.902,2.482-3.014c0.803-1.11,1.819-1.88,3.049-2.306c0.897-0.283,1.737-0.33,2.518-0.142
			c0.78,0.189,1.441,0.557,1.985,1.1c0.543,0.544,0.91,1.205,1.1,1.985c0.188,0.78,0.142,1.62-0.142,2.518
			c-0.237,0.663-0.77,1.489-1.596,2.482c-0.828,0.992-1.75,2.01-2.766,3.049c-1.018,1.041-2.021,1.998-3.014,2.872
			c-0.993,0.876-1.798,1.55-2.411,2.021c1.654,1.797,3.285,3.617,4.893,5.461c1.606,1.844,3.238,3.688,4.894,5.531
			c0.709,0.805,1.383,1.524,2.021,2.163c0.639,0.638,1.193,1.407,1.667,2.305c0.378,0.757,0.496,1.537,0.354,2.34
			c-0.142,0.805-0.461,1.502-0.957,2.092c-0.497,0.591-1.111,1.028-1.844,1.312c-0.733,0.283-1.525,0.307-2.376,0.07
			c-0.805-0.236-1.585-0.673-2.34-1.312c-0.757-0.639-1.479-1.335-2.163-2.092c-0.687-0.756-1.337-1.536-1.95-2.341
			c-0.615-0.803-1.183-1.489-1.702-2.057c-1.276-1.465-2.542-2.918-3.794-4.361c-1.254-1.441-2.542-2.848-3.865-4.219v12.339
			C640.129,938.088,639.514,939.21,638.568,939.896z"/>
		<path style="fill:#FFFFFF;stroke:#000000;stroke-width:2;" d="M664.878,943.052c0.378-0.379,0.721-0.722,1.028-1.028
			c0.307-0.308,0.614-0.615,0.922-0.922c0.307-0.308,0.603-0.65,0.887-1.028c0.283-0.379,0.591-0.827,0.922-1.348
			c1.37-2.222,2.411-4.751,3.12-7.588s1.135-5.755,1.276-8.758c0.142-3.002,0.023-5.957-0.354-8.864
			c-0.379-2.908-1.018-5.567-1.915-7.979c-0.614-1.654-1.383-3.215-2.305-4.681c-0.922-1.465-1.855-2.907-2.801-4.325
			c-0.426-0.614-0.84-1.217-1.241-1.809c-0.402-0.591-0.627-1.288-0.674-2.093c-0.048-1.229,0.248-2.244,0.887-3.049
			c0.638-0.804,1.406-1.312,2.305-1.524c0.897-0.213,1.819-0.13,2.766,0.248c0.945,0.379,1.702,1.111,2.27,2.198
			c1.039,1.466,2.032,2.955,2.979,4.468c0.945,1.514,1.819,3.049,2.624,4.609c1.323,2.553,2.328,5.318,3.014,8.297
			c0.685,2.979,1.087,6.028,1.206,9.148c0.117,3.12-0.036,6.205-0.461,9.255c-0.426,3.049-1.064,5.898-1.915,8.545
			c-0.757,2.27-1.667,4.55-2.73,6.844c-1.063,2.293-2.423,4.313-4.078,6.063c-0.709,0.756-1.513,1.465-2.411,2.127
			s-1.891,0.993-2.978,0.993c-0.993,0-1.809-0.213-2.447-0.638c-0.638-0.426-1.088-0.97-1.348-1.632s-0.343-1.383-0.248-2.163
			c0.095-0.779,0.33-1.549,0.709-2.305L664.878,943.052z"/>
		<path style="fill:#FFFFFF;stroke:#000000;stroke-width:2;" d="M201.31,465.03c-1.105,8.106-4.239,15.193-9.393,21.271
			c-5.162,6.078-11.05,10.222-17.679,12.432c-6.63,2.21-13.26,2.21-19.89,0s-11.792-7.554-15.47-16.022
			c-1.847-4.049-3.134-11.326-3.867-21.823c-0.743-10.497-1.295-21.452-1.658-32.873c-0.371-11.412-0.466-22.004-0.276-31.768
			c0.182-9.755,0.276-15.746,0.276-17.956V262.82c0-1.104-0.095-6.63-0.276-16.574c-0.189-9.945-0.189-20.899,0-32.873
			c0.182-11.965,0.734-23.567,1.658-34.807c0.915-11.231,2.667-18.871,5.249-22.928c3.315-5.525,7.364-9.479,12.155-11.878
			c4.782-2.391,9.668-3.401,14.641-3.039c4.973,0.371,9.945,1.847,14.917,4.42c4.972,2.581,9.116,6.448,12.431,11.602
			c1.468,1.847,2.849,4.057,4.144,6.63c1.287,2.581,1.934,4.972,1.934,7.182c0.362,17.68,0.362,35.083,0,52.21
			c-0.372,17.127-0.553,34.53-0.553,52.21c13.26-7.735,25.501-16.48,36.74-26.243c11.231-9.755,22.186-20.899,32.873-33.426
			c2.573-3.314,6.259-8.287,11.05-14.917c4.782-6.63,9.945-13.441,15.47-20.442c5.525-6.993,11.05-13.536,16.575-19.613
			c5.524-6.078,10.307-10.031,14.364-11.878c8.098-4.049,15.833-5.525,23.205-4.42c7.364,1.105,13.441,3.962,18.232,8.563
			c4.783,4.61,7.821,10.497,9.116,17.68c1.286,7.182-0.095,14.641-4.144,22.375c-1.477,3.315-3.039,6.078-4.696,8.288
			c-1.658,2.21-3.315,4.238-4.973,6.077c-1.657,1.848-3.41,3.867-5.249,6.077c-1.847,2.21-3.686,4.791-5.525,7.734
			c-4.791,7.735-10.497,15.565-17.127,23.481c-6.63,7.925-13.631,15.659-20.994,23.204c-7.373,7.554-14.917,14.831-22.652,21.823
			c-7.735,7.001-15.107,13.631-22.099,19.89c9.202,9.944,18.413,19.89,27.624,29.834c9.203,9.945,18.595,19.89,28.177,29.834
			c2.21,2.21,6.993,6.906,14.365,14.089c7.364,7.183,15.193,15.107,23.48,23.757c8.288,8.658,15.833,17.222,22.652,25.69
			c6.811,8.478,10.773,15.107,11.878,19.89c1.838,7.372,1.467,14.278-1.105,20.718c-2.581,6.449-6.543,11.697-11.878,15.746
			c-5.344,4.049-11.421,6.259-18.232,6.63c-6.819,0.362-13.536-1.848-20.166-6.63c-2.952-2.21-5.991-4.877-9.116-8.011
			c-3.133-3.125-6.077-6.354-8.839-9.669c-2.763-3.314-5.439-6.534-8.011-9.668c-2.581-3.125-4.791-5.611-6.63-7.459
			c-17.317-18.784-34.444-37.197-51.381-55.248c-16.946-18.042-34.073-36.274-51.381-54.696c-1.848,0.742-3.868,1.571-6.078,2.486
			c-2.21,0.924-4.239,1.752-6.077,2.486c0,18.784,0.181,37.482,0.552,56.077c0.363,18.603,0.915,37.293,1.658,56.077V465.03z"/>
</g>
<g id="Layer_1">
	<path style="fill:#FFFFFF;stroke:#231F20;stroke-width:2;stroke-linecap:square;stroke-miterlimit:10;" d="M763.078,461.888
		c0,0-1.139,67.421,53.342,81.636c54.477,14.217,20.023-38.675,20.023-38.675c6.826,10.805,42.088,27.87,31.281-2.844
		c-10.807-30.71-48.912-44.36-48.912-44.36s18.201,3.41,21.045-2.279c2.844-5.684-17.629-34.123-47.775-31.276
		C761.939,426.931,763.078,461.888,763.078,461.888"/>
	<path style="fill:#FFFFFF;stroke:#231F20;stroke-width:2;stroke-linecap:square;stroke-miterlimit:10;" d="M594.922,730.071
		c0,0-1.893,35.827-8.152,42.631c-6.256,6.8-30.713-5.095-30.713-5.095c7.965-19.906,19.908-31.285,19.908-31.285L594.922,730.071z"
		/>
	<path style="fill:#FFFFFF;stroke:#231F20;stroke-width:2;stroke-linecap:square;stroke-miterlimit:10;" d="M752.269,740.305
		c0,0-3.979,27.303-13.079,31.28c-9.1,3.979-26.161-3.978-26.161-3.978c3.413-18.317,14.187-27.303,14.187-27.303H752.269z"/>
	<path style="fill:#FFFFFF;stroke:#231F20;stroke-width:2;stroke-linecap:square;stroke-miterlimit:10;" d="M681.181,573.097
		c8.587-5.607,51.185-22.751,62.559-7.967c11.374,14.791,14.787,167.777,8.532,175.175c-6.258,7.394-19.906,3.41-25.057,0
		c-5.148-3.411-2.242-7.395-0.538-10.236c1.706-2.842-0.567-36.968-7.96-63.696C711.324,639.64,681.181,573.097,681.181,573.097"/>
	<path style="fill:#FFFFFF;stroke:#231F20;stroke-width:2;stroke-linecap:square;stroke-miterlimit:10;" d="M546.391,559.264
		c9.1-6.437,57.44,24.072,54.597,39.427c-2.843,15.354,3.981,129.674,0,134.22c-3.978,4.553-19.337,7.395-25.022,3.417
		c-5.688-3.985,0-12.518,0-12.518C571.981,710.164,529.521,571.201,546.391,559.264"/>
	<path style="fill:#FFFFFF;stroke:#231F20;stroke-width:2;stroke-linecap:square;stroke-miterlimit:10;" d="M572.757,316.304
		c4.343,4.389,0.996,7.662-3.739,8.965c-5.655,1.556-16.99-11.362-20.967-15.237c-11.829-11.529-21.414-25.615-25.094-41.901
		c-6.327-28.006,4.615-58.589,15.637-83.921c6.49-14.918,73.47-124.13,91.221-108.843c-17.215,25.79-36.032,50.488-52.955,76.472
		c-15.863,24.356-25.396,50.122-31.368,78.591C538.64,263.093,543.528,295.785,572.757,316.304"/>
	<path style="fill:#FFFFFF;stroke:#231F20;stroke-width:2;stroke-linecap:square;stroke-miterlimit:10;" d="M620.703,313.565
		c35.643,23.507,8.342,135.738,15.166,145.449c6.824,9.71,32.611,13.037,52.324,11.122c19.715-1.912,57.631-23.864,87.967-16.199
		c30.33,7.665,52.322,36.315,46.254,81.055c-6.064,44.74-71.283,75.83-131.188,81.141c-59.906,5.31-128.914-1.514-152.422-40.188
		c-23.506-38.677,7.586-93.272,8.343-119.626c0.759-26.349-9.858-47.962-9.858-47.962c-85.688-3.792-122.845-55.356-98.579-79.696
		C462.974,304.32,600.517,300.251,620.703,313.565"/>
	<path style="fill:#FFFFFF;stroke:#231F20;stroke-width:2;stroke-linecap:square;stroke-miterlimit:10;" d="M571.414,406.413
		c-19.834,4.173-34.123,1.942-34.123,1.942s10.617,21.613,9.858,47.962c-0.759,26.349-31.849,80.951-8.343,119.623
		c23.506,38.673,92.516,45.501,152.418,40.19c30.215-2.68,61.77-11.918,86.414-26.156c-2.045-16.379-9.312-41.312-35.037-28.253
		c-36.964,18.768-126.256,27.297-153.555,3.408c-27.303-23.882-24.458-69.382-17.633-99.17
		C578.238,436.177,571.414,406.413,571.414,406.413"/>
	<path style="fill:#FFFFFF;stroke:#231F20;stroke-width:2;stroke-linecap:square;stroke-miterlimit:10;" d="M454.633,310.259
		c16.949,0.089,50.001,6.747,47.015,30.587c-2.875,23.007-31.76,33.669-51.563,31.768c-18.901-1.813-45.062-7.938-48.277-30.672
		C398.3,317.133,438.043,310.172,454.633,310.259"/>
	<path style="fill:#FFFFFF;stroke:#231F20;stroke-width:2;stroke-linecap:square;stroke-miterlimit:10;" d="M571.414,378.399
		c0,6.83-13.27,28.438-26.16,26.162c-12.895-2.275-19.338-16.683-19.338-16.683C540.701,387.121,571.414,378.399,571.414,378.399"/>
	<path style="fill:#FFFFFF;stroke:#231F20;stroke-width:2;stroke-linecap:square;stroke-miterlimit:10;" d="M561.935,356.439
		c0-14.469,32.987-14.47,32.987,0C594.922,370.909,561.935,370.907,561.935,356.439"/>
	<path style="fill:#FFFFFF;stroke:#231F20;stroke-width:2;stroke-linecap:square;stroke-miterlimit:10;" d="M619.539,319.777
		c33.91-1.483,56.255-24.575,67.906-54.494c9.807-25.182,16.752-51.003,17.048-78.123c0.368-33.757-2.833-67.478-3.542-101.217
		c23.499-3.395,20.798,126.248,18.184,142.194c-4.5,27.448-11.949,59.298-33.111,79.144c-11.129,10.437-25.371,16.679-40.125,20.02
		c-4.582,1.038-23.674,6.316-27.048,3.057C615.212,326.845,612.656,321.338,619.539,319.777"/>
	<path style="fill:#231F20;stroke:#231F20;stroke-width:2;stroke-linecap:square;stroke-miterlimit:10;" d="M557.835,328.319
		c1.721-11.851,15.228-9.888,13.508,1.962C569.622,342.133,556.115,340.169,557.835,328.319"/>
	<path style="fill:#231F20;stroke:#231F20;stroke-width:2;stroke-linecap:square;stroke-miterlimit:10;" d="M535.012,324.717
		c1.727-11.85,15.232-9.889,13.51,1.962C546.806,338.53,533.294,336.566,535.012,324.717"/>
	<path style="fill:#FFFFFF;stroke:#231F20;stroke-width:2;stroke-linecap:square;stroke-miterlimit:10;" d="M627.422,310.257
		c5.389,10.155-17.904,18.282-25.293,15.441c-7.396-2.845,0.568-7.555,0.568-7.555s-15.925,5.281-24.268,0
		c-8.341-5.281,0-11.208,0-11.208s-10.428-3.418-6.943-7.971C574.969,294.417,619.537,295.404,627.422,310.257"/>
	<path style="fill:#FFFFFF;stroke:#231F20;stroke-width:2;stroke-linecap:square;stroke-miterlimit:10;" d="M611.969,351.785
		c15.549,5.447,13.273,23.746,39.812,25.644c26.541,1.896,42.844-20.854,42.844-20.854c-34.122-51.186-52.699-23.513-58.768-19.375
		c-6.068,4.141-18.58,0-18.58,0"/>
	<path style="fill:#FFFFFF;stroke:#231F20;stroke-width:2;stroke-linecap:square;stroke-miterlimit:10;" d="M747.293,740.305
		c0,0,22.608-1.139,24.054,4.182c1.44,5.318-2.013,26.532-8.273,29.942c-6.261,3.415-31.845,0-31.845,0
		C732.936,763.624,747.293,740.305,747.293,740.305"/>
	<path style="fill:#FFFFFF;stroke:#231F20;stroke-width:2;stroke-linecap:square;stroke-miterlimit:10;" d="M718.717,543.521
		c2.844-64.265,100.809-48.771,104.689-24.872c3.877,23.898-13.123,60.705-19.949,76.062
		c-6.824,15.353-30.711,129.103-31.281,135.357c-0.567,6.259,6.828,17.062-2.842,18.768c-9.668,1.709-25.026-1.706-22.75-5.183
		c2.273-3.479,5.119-83.54,0-104.583C741.465,618.026,718.717,543.521,718.717,543.521"/>
	<path style="fill:#FFFFFF;stroke:#231F20;stroke-width:2;stroke-linecap:square;stroke-miterlimit:10;" d="M612.933,737.112
		c0,0,2.843,33.904-5.119,38.833c-7.962,4.93-36.399,0-36.399,0c2.844-13.271,21.096-38.833,21.096-38.833H612.933z"/>
	<path style="fill:#FFFFFF;stroke:#231F20;stroke-width:2;stroke-linecap:square;stroke-miterlimit:10;" d="M585.062,528.695
		c4.551-13.688,72.231-19.867,61.804,25.068c-10.427,44.931-27.681,150.146-28.249,165.503c-0.57,15.354,5.119,17.632,0,21.611
		c-5.118,3.979-28.438,3.408-29.75,0c-1.316-3.413,3.591-14.221,3.591-14.221c1.591-15.396-6.231-174.529-7.28-195.649
		C585.102,529.502,585.062,528.695,585.062,528.695"/>
	<path style="fill:#FFFFFF;stroke:#231F20;stroke-width:2;stroke-linecap:square;stroke-miterlimit:10;" d="M629.814,351.298
		c4.95,1.709,6.306,12.594,24.021,15.406c17.715,2.812,23.801-11.637,23.801-11.637c-3.41-5.973-14.85-19.38-25.107-16.15
		C641.239,342.474,629.814,351.298,629.814,351.298"/>
	<path style="fill:#FFFFFF;stroke:#231F20;stroke-width:2;stroke-linecap:square;stroke-miterlimit:10;" d="M558.858,327.599
		c1.181-8.13,10.446-6.784,9.267,1.346C566.945,337.076,557.679,335.728,558.858,327.599"/>
	<path style="fill:#FFFFFF;stroke:#231F20;stroke-width:2;stroke-linecap:square;stroke-miterlimit:10;" d="M535.965,323.215
		c1.185-8.129,10.449-6.784,9.268,1.346C544.056,332.692,534.786,331.344,535.965,323.215"/>
</g>
</svg>
