<?xml version="1.0" encoding="utf-8"?>
<!-- Generator: Adobe Illustrator 16.0.0, SVG Export Plug-In . SVG Version: 6.00 Build 0)  -->
<!DOCTYPE svg PUBLIC "-//W3C//DTD SVG 1.1//EN" "http://www.w3.org/Graphics/SVG/1.1/DTD/svg11.dtd">
<svg version="1.1" id="Layer_1" xmlns="http://www.w3.org/2000/svg" xmlns:xlink="http://www.w3.org/1999/xlink" x="0px" y="0px"
	 width="100%" height="100%" viewBox="0 0 600 600" enable-background="new 0 0 600 600" xml:space="preserve">
<path fill="#FFFFFF" stroke="#231F20" stroke-width="2" stroke-miterlimit="10" d="M459.669,260.516
	c0,0,26.371,14.275,31.133,45.458c4.761,31.186-5.236,53.965-35.711,67.812c-30.475,13.845-62.376,19.082-75.233,37.175
	c-12.854,18.095-11.483,0.285-8.121-8.19c3.359-8.474,20.025-21.603,41.928-30.275c21.905-8.673,45.71-17.276,52.379-50.352
	C472.707,289.068,459.669,260.516,459.669,260.516"/>
<path fill="#FFFFFF" stroke="#231F20" stroke-width="2" stroke-miterlimit="10" d="M363.562,455.246
	c-9.572,2.281-20.616-26.189-8.112-42.379c12.502-16.188,39.645-5.236,46.309,0c6.668,5.239,10.739,17.62-7.248,15.239
	c15.345,16.666,8.679,28.567,2.964,30.473c-5.714,1.906-23.7-7.142-28.041-19.998C369.435,438.58,371.554,453.341,363.562,455.246"
	/>
<path fill="#FFFFFF" stroke="#231F20" stroke-width="2" stroke-miterlimit="10" d="M317.481,238.195c0,0,95.708-2.22,123.562,10.636
	c27.855,12.856,42.141,34.998,37.855,65.71c-4.286,30.711-28.568,47.854-47.14,55.709c-18.569,7.857-47.854,20.713-71.424,18.572
	c-23.567-2.143-10.489-18.572-10.489-18.572s-15.221,7.145-21.65,7.145c0,0,0.162,25.712-21.703,28.569
	c-21.866,2.856-30.249-20.713-29.271-32.142c0.979-11.428-47.59,6.428-47.59,6.428s9.222,24.761-23.602,25.952
	c-32.823,1.19-22.109-27.38-22.109-27.38s-29.999,7.857-36.426-4.284c-6.427-12.142,15.621-28.624,15.621-28.624L317.481,238.195z"
	/>
<path fill="#231F20" d="M424.901,276.878c0,0-2.636,0.541-7.007,2.189c-2.166,0.864-4.793,1.941-7.623,3.522
	c-1.447,0.729-2.884,1.687-4.426,2.638c-0.76,0.492-1.49,1.07-2.266,1.62c-0.383,0.279-0.772,0.561-1.165,0.847
	c-0.371,0.314-0.745,0.632-1.122,0.952c-3.109,2.47-5.982,5.71-8.54,9.415c-2.666,3.669-4.362,8.193-5.749,12.868
	c-1.218,4.724-1.297,9.892,0.108,14.787c1.387,4.901,4.175,9.437,7.676,13.306c3.488,3.899,7.669,7.188,12.071,9.906
	c0.686,0.428,1.383,0.828,2.07,1.217c1.061,0.599,2.693,1.385,4.136,2.056c-0.812,0.343-1.618,0.684-2.421,1.022l-1.214,0.504
	l-0.895,0.354c-0.851,0.318-1.691,0.634-2.527,0.947c-1.68,0.607-3.343,1.18-5.003,1.703c-4.817,1.517-9.574,2.756-14.227,3.289
	c-2.303,0.324-4.646,0.328-6.824,0.189c-2.146-0.165-4.216-0.23-6.207-0.247c-3.968,0.021-7.618,0.356-10.716,1.222
	c-3.105,0.829-5.637,2.135-7.456,3.561c-0.955,0.663-1.636,1.453-2.292,2.072c-0.554,0.709-1.079,1.283-1.417,1.808
	c-0.666,1.062-1.021,1.628-1.021,1.628s0.322-0.588,0.928-1.688c0.31-0.547,0.801-1.153,1.323-1.906
	c0.624-0.665,1.276-1.512,2.208-2.248c1.787-1.551,4.334-3.029,7.494-4.02c3.155-1.026,6.885-1.516,10.931-1.658
	c2.022-0.058,4.134-0.055,6.307,0.049c2.14,0.072,4.288,0.02,6.539-0.342c4.478-0.631,9.127-1.939,13.852-3.486
	c1.628-0.539,3.26-1.128,4.905-1.748c0.819-0.32,1.645-0.643,2.477-0.967l0.363-0.147l0.022-0.014
	c0.013-0.009,0.032-0.022,0.032-0.022c-0.067-0.033,0.054,0.039-0.276-0.141c-0.718-0.398-1.442-0.812-2.151-1.252
	c-4.559-2.798-8.89-6.18-12.559-10.249c-3.647-4.065-6.6-8.886-8.064-14.156c-1.444-5.272-1.279-10.821,0.069-15.78
	c0.135-0.633,0.331-1.24,0.562-1.832c0.213-0.598,0.43-1.191,0.642-1.783c0.435-1.178,0.807-2.37,1.422-3.443
	c0.56-1.098,1.112-2.184,1.657-3.255c0.664-1.001,1.32-1.993,1.966-2.969c2.723-3.797,5.809-7.027,9.063-9.459
	c0.397-0.316,0.781-0.64,1.179-0.938c0.411-0.279,0.816-0.554,1.22-0.826c0.809-0.536,1.573-1.096,2.364-1.569
	c1.604-0.913,3.098-1.827,4.594-2.507c2.931-1.482,5.63-2.445,7.848-3.207C422.238,277.25,424.901,276.878,424.901,276.878"/>
<path fill="#FFFFFF" stroke="#231F20" stroke-width="2" stroke-miterlimit="10" d="M366.996,387.154c0,0-0.094-0.266-0.23-0.756
	c-0.13-0.49-0.261-1.219-0.239-2.098c-0.007-0.443,0.026-0.923,0.113-1.423c0.07-0.504,0.199-1.026,0.36-1.562
	c0.195-0.521,0.382-1.07,0.648-1.594c0.252-0.533,0.589-1.024,0.902-1.533c0.375-0.465,0.729-0.947,1.146-1.362
	c0.384-0.446,0.854-0.793,1.285-1.146c0.453-0.324,0.894-0.64,1.356-0.858c0.449-0.242,0.883-0.446,1.312-0.572
	c0.825-0.31,1.562-0.413,2.069-0.446c0.505-0.012,0.795-0.019,0.795-0.019s-0.24,0.155-0.663,0.426
	c-0.416,0.255-0.991,0.64-1.625,1.126c-0.323,0.235-0.649,0.518-0.995,0.803c-0.347,0.285-0.668,0.639-1.03,0.955
	c-0.328,0.359-0.676,0.713-1.003,1.102c-0.352,0.365-0.638,0.794-0.952,1.199c-0.282,0.427-0.596,0.836-0.829,1.285
	c-0.289,0.422-0.5,0.875-0.729,1.303c-0.176,0.451-0.431,0.861-0.569,1.289c-0.154,0.422-0.333,0.818-0.436,1.207
	c-0.253,0.76-0.414,1.433-0.516,1.91C367.061,386.867,366.996,387.154,366.996,387.154"/>
<path fill="#FFFFFF" stroke="#231F20" stroke-width="2" stroke-miterlimit="10" d="M352.031,385.752c0,0-0.105-0.234-0.255-0.666
	c-0.15-0.43-0.317-1.068-0.372-1.854c-0.04-0.394-0.056-0.822-0.022-1.274c0.02-0.453,0.076-0.931,0.167-1.421
	c0.12-0.479,0.229-0.987,0.403-1.48c0.167-0.496,0.401-0.975,0.618-1.461c0.272-0.459,0.526-0.927,0.837-1.35
	c0.282-0.441,0.646-0.816,0.977-1.186c0.353-0.352,0.692-0.689,1.068-0.953c0.355-0.282,0.707-0.529,1.062-0.709
	c0.677-0.405,1.305-0.623,1.745-0.742c0.446-0.104,0.7-0.16,0.7-0.16s-0.174,0.189-0.478,0.525
	c-0.307,0.317-0.725,0.777-1.188,1.326c-0.235,0.272-0.471,0.579-0.724,0.893c-0.252,0.312-0.479,0.674-0.747,1.012
	c-0.237,0.366-0.479,0.742-0.725,1.121c-0.258,0.373-0.46,0.787-0.686,1.188c-0.202,0.408-0.431,0.811-0.593,1.232
	c-0.209,0.405-0.357,0.826-0.521,1.23c-0.119,0.416-0.312,0.804-0.408,1.195c-0.107,0.387-0.242,0.754-0.318,1.104
	c-0.187,0.696-0.313,1.305-0.396,1.735C352.086,385.489,352.031,385.752,352.031,385.752"/>
<path fill="#FFFFFF" stroke="#231F20" stroke-width="2" stroke-miterlimit="10" d="M317.503,402.333c0,0-0.348-0.063-0.932-0.169
	c-0.593-0.124-1.436-0.352-2.389-0.771c-0.484-0.194-1-0.438-1.52-0.736c-0.529-0.286-1.064-0.628-1.604-1.005
	c-0.516-0.403-1.064-0.806-1.575-1.273c-0.52-0.459-0.987-0.982-1.478-1.489c-0.436-0.551-0.891-1.087-1.275-1.663
	c-0.418-0.552-0.731-1.16-1.054-1.732c-0.294-0.59-0.582-1.155-0.777-1.727c-0.219-0.561-0.403-1.096-0.519-1.61
	c-0.282-1.005-0.377-1.876-0.413-2.479c-0.017-0.605-0.025-0.951-0.025-0.951s0.16,0.306,0.438,0.838
	c0.263,0.531,0.655,1.276,1.142,2.136c0.237,0.432,0.519,0.885,0.805,1.364c0.285,0.479,0.635,0.955,0.95,1.468
	c0.355,0.487,0.725,0.993,1.1,1.502c0.362,0.519,0.792,0.996,1.201,1.491c0.43,0.475,0.84,0.97,1.3,1.405
	c0.422,0.475,0.886,0.89,1.325,1.311c0.467,0.379,0.873,0.814,1.321,1.15c0.438,0.349,0.838,0.703,1.24,0.987
	c0.784,0.604,1.474,1.083,1.963,1.415C317.214,402.132,317.503,402.333,317.503,402.333"/>
<path fill="#FFFFFF" stroke="#231F20" stroke-width="2" stroke-miterlimit="10" d="M299.311,406.271c0,0-0.947-0.494-2.041-1.634
	c-0.276-0.281-0.565-0.598-0.835-0.959c-0.278-0.355-0.56-0.745-0.816-1.167c-0.24-0.429-0.504-0.87-0.726-1.339
	c-0.224-0.471-0.402-0.968-0.596-1.46c-0.147-0.509-0.307-1.011-0.417-1.521c-0.134-0.501-0.181-1.018-0.244-1.504
	c-0.044-0.492-0.081-0.97-0.057-1.425c0.002-0.453,0.025-0.88,0.09-1.271c0.083-0.781,0.265-1.421,0.411-1.856
	c0.166-0.432,0.258-0.678,0.258-0.678s0.063,0.255,0.17,0.7c0.098,0.45,0.234,1.073,0.39,1.782c0.084,0.367,0.174,0.754,0.265,1.154
	c0.103,0.41,0.208,0.834,0.312,1.268c0.124,0.434,0.25,0.879,0.376,1.33c0.112,0.455,0.273,0.904,0.419,1.356
	c0.155,0.452,0.293,0.909,0.476,1.341c0.142,0.45,0.325,0.875,0.491,1.294c0.195,0.403,0.322,0.831,0.509,1.205
	c0.169,0.374,0.336,0.744,0.488,1.083C298.863,405.309,299.311,406.271,299.311,406.271"/>
<path fill="#FFFFFF" stroke="#231F20" stroke-width="2" stroke-miterlimit="10" d="M217.238,402.771c0,0,0.017-0.297,0.044-0.788
	c0.037-0.49,0.065-1.185,0.034-1.989c0.006-0.403-0.054-0.836-0.085-1.288c-0.017-0.452-0.147-0.921-0.193-1.402
	c-0.101-0.479-0.18-0.976-0.339-1.464c-0.102-0.498-0.292-0.98-0.449-1.472c-0.189-0.479-0.349-0.976-0.586-1.423
	c-0.208-0.467-0.446-0.904-0.665-1.344c-0.262-0.406-0.475-0.836-0.732-1.209c-0.254-0.373-0.491-0.736-0.738-1.054
	c-0.478-0.646-0.928-1.176-1.26-1.538c-0.334-0.378-0.523-0.596-0.523-0.596s0.276,0.088,0.763,0.24
	c0.481,0.174,1.162,0.479,1.874,1.008c0.378,0.242,0.74,0.561,1.106,0.918c0.389,0.341,0.724,0.768,1.073,1.206
	c0.318,0.46,0.676,0.927,0.922,1.464c0.289,0.518,0.495,1.08,0.729,1.632c0.163,0.58,0.352,1.147,0.445,1.733
	c0.115,0.58,0.142,1.163,0.188,1.718c0.007,0.561-0.014,1.102-0.085,1.61c-0.054,0.507-0.152,0.979-0.283,1.404
	c-0.22,0.858-0.548,1.524-0.809,1.96C217.401,402.539,217.238,402.771,217.238,402.771"/>
<path fill="#FFFFFF" stroke="#231F20" stroke-width="2" stroke-miterlimit="10" d="M203.193,407.147c0,0,0.064-0.282,0.172-0.745
	c0.115-0.464,0.266-1.122,0.401-1.896c0.085-0.383,0.124-0.808,0.195-1.244c0.084-0.434,0.075-0.906,0.147-1.375
	c0.025-0.478,0.073-0.966,0.052-1.465c0.035-0.497-0.004-1.001-0.014-1.505c-0.037-0.501-0.045-1.008-0.126-1.497
	c-0.066-0.493-0.132-0.979-0.195-1.452c-0.108-0.461-0.166-0.926-0.271-1.354c-0.103-0.429-0.193-0.843-0.299-1.222
	c-0.202-0.758-0.398-1.403-0.549-1.857c-0.143-0.469-0.226-0.735-0.226-0.735s0.215,0.185,0.587,0.507
	c0.361,0.336,0.854,0.857,1.307,1.576c0.251,0.35,0.472,0.756,0.68,1.199c0.235,0.434,0.405,0.924,0.582,1.432
	c0.148,0.516,0.326,1.049,0.396,1.61c0.107,0.555,0.139,1.13,0.195,1.701c-0.01,0.577,0.004,1.149-0.058,1.714
	c-0.05,0.562-0.169,1.104-0.266,1.631c-0.126,0.523-0.279,1.02-0.459,1.477c-0.165,0.46-0.364,0.878-0.573,1.252
	c-0.389,0.753-0.822,1.318-1.148,1.687C203.393,406.955,203.193,407.147,203.193,407.147"/>
<path fill="#FFFFFF" stroke="#231F20" stroke-width="2" stroke-miterlimit="10" d="M287.484,154.553
	c94.8,14.839,125.17,105.912,96.868,167.59c-28.302,61.679-127.579,73.107-169.72,61.679
	c-42.139-11.427-111.421-53.054-99.992-123.305C126.066,190.264,205.347,141.697,287.484,154.553"/>
<path fill="#FFFFFF" stroke="#231F20" stroke-width="2" stroke-miterlimit="10" d="M233.202,205.978c0,0,21.069,9.285,33.569-3.571
	c0,0,9.642,21.606,34.999,18.303c0,0-0.357,19.908,12.855,30.266c1.07,55.354-31.427,101.778-93.922,75.352
	c-62.496-26.427-37.857-65.187-28.215-80.185C202.13,231.142,233.202,205.978,233.202,205.978"/>
<path fill="#231F20" d="M270.699,251.332c0,0-0.008,0.349-0.022,0.935c-0.013,0.263,0.116,0.609,0.162,0.928
	c0.088,0.329,0.265,0.688,0.409,1.034c0.222,0.353,0.417,0.7,0.705,1.044c0.216,0.369,0.637,0.635,0.905,0.976
	c0.354,0.286,0.694,0.583,1.099,0.761c0.167,0.148,0.368,0.215,0.559,0.293c0.188,0.085,0.373,0.184,0.569,0.191
	c0.371,0.162,0.745,0.144,1.122,0.189c0.37-0.121,0.776-0.006,1.182-0.193c0.199-0.075,0.411-0.109,0.623-0.176
	c0.202-0.107,0.408-0.201,0.622-0.289c0.427-0.164,0.815-0.417,1.201-0.652c0.788-0.436,1.439-0.935,1.94-1.262
	c0.538-0.324,0.845-0.509,0.845-0.509s-0.043,0.354-0.123,0.971c-0.119,0.61-0.266,1.517-0.845,2.457
	c-0.238,0.502-0.547,1.026-1.041,1.491c-0.223,0.249-0.462,0.503-0.718,0.755c-0.286,0.225-0.625,0.419-0.963,0.618
	c-0.638,0.457-1.509,0.671-2.363,0.838c-0.89,0.033-1.805,0.028-2.664-0.247c-0.444-0.105-0.829-0.31-1.21-0.519
	c-0.386-0.201-0.763-0.407-1.074-0.684c-0.659-0.525-1.15-1.159-1.603-1.771c-0.399-0.655-0.7-1.322-0.863-2
	c-0.235-0.642-0.203-1.337-0.218-1.917c0.063-0.604,0.16-1.145,0.353-1.584c0.236-0.437,0.39-0.799,0.639-1.034
	C270.42,251.504,270.699,251.332,270.699,251.332"/>
<path fill="#231F20" d="M220.345,238.049c0,0-0.01,0.357-0.028,0.956c0,0.576,0.119,1.349,0.333,2.138
	c0.172,0.394,0.283,0.806,0.518,1.188c0.163,0.41,0.508,0.732,0.716,1.103l0.44,0.461c0.144,0.154,0.34,0.233,0.49,0.359
	c0.312,0.221,0.635,0.423,0.998,0.481l0.253,0.112l0.284,0.026c0.193,0.007,0.371,0.102,0.586,0.042
	c0.209-0.033,0.417-0.036,0.635-0.023c0.23-0.041,0.457-0.083,0.681-0.125c0.459-0.049,0.921-0.268,1.398-0.381
	c0.473-0.111,0.903-0.357,1.348-0.505c0.879-0.314,1.622-0.692,2.194-0.906c0.597-0.209,0.937-0.331,0.937-0.331
	s-0.119,0.339-0.327,0.932c-0.251,0.57-0.576,1.434-1.295,2.246c-0.337,0.431-0.684,0.922-1.222,1.297
	c-0.509,0.41-1.019,0.886-1.749,1.156c-0.348,0.155-0.695,0.333-1.074,0.467c-0.405,0.095-0.825,0.177-1.251,0.229
	c-0.415,0.091-0.884,0.011-1.335-0.012l-0.683-0.064l-0.67-0.201c-0.894-0.279-1.687-0.818-2.346-1.403
	c-0.291-0.334-0.614-0.642-0.834-0.999c-0.219-0.358-0.426-0.714-0.62-1.062c-0.309-0.732-0.478-1.474-0.53-2.168
	c-0.13-0.683,0.049-1.355,0.114-1.922C218.878,238.75,220.435,238.051,220.345,238.049"/>
<g>
	<path fill="#FFFFFF" stroke="#231F20" stroke-width="2" stroke-miterlimit="10" d="M304.046,279.169
		c-0.918,4.272-6.431,6.711-12.313,5.446c-5.881-1.265-9.903-5.755-8.984-10.028c0.921-4.272,6.434-6.712,12.313-5.448
		C300.943,270.406,304.966,274.895,304.046,279.169"/>
</g>
<g>
	<path fill="#FFFFFF" stroke="#231F20" stroke-width="2" stroke-miterlimit="10" d="M213.636,251.354
		c-0.784,3.646-5.486,5.725-10.502,4.647c-5.016-1.08-8.449-4.91-7.665-8.555c0.785-3.646,5.487-5.725,10.504-4.646
		C210.99,243.878,214.42,247.708,213.636,251.354"/>
</g>
<path fill="#FFFFFF" stroke="#231F20" stroke-width="2" stroke-miterlimit="10" d="M244.971,255.645
	c24.791,4.81,49.594,35.354,31.36,59.807c-12.395,16.627-39.959,14.601-56.7,6.692c-12.312-5.817-22.8-16.002-24.565-30.028
	c-2.231-17.72,10.945-32.457,27.611-36.256C229.742,254.247,237.486,254.191,244.971,255.645"/>
<path fill="#FFFFFF" stroke="#231F20" stroke-width="2" stroke-miterlimit="10" d="M216.06,262.402
	c-0.477-2.48,33.461,2.247,37.889,9.642c4.428,7.396-19.317,9.908-22.89,9.596C227.487,281.329,217.846,271.687,216.06,262.402"/>
<path fill="#FFFFFF" stroke="#231F20" stroke-width="2" stroke-miterlimit="10" d="M229.22,280.973c0,0-6.733,13.333-6.733,21.486"
	/>
<path fill="#FFFFFF" stroke="#231F20" stroke-width="2" stroke-miterlimit="10" d="M204.369,280.042c0,0-5.808,5.395-4.379,9.146
	c1.429,3.748,9.352,0.44,9.352,0.44S205.536,283.205,204.369,280.042"/>
<path fill="#FFFFFF" stroke="#231F20" stroke-width="2" stroke-miterlimit="10" d="M252.553,301.27c0,0,5.469,7.201,9.753,6.129
	c4.287-1.07,2.213-13.188,2.213-13.188S257.327,299.241,252.553,301.27"/>
<path fill="#231F20" d="M203.204,276.878c0,0,0.536,1.185,1.603,3.165c1.067,1.977,2.663,4.755,4.839,7.855
	c0.545,0.774,1.157,1.547,1.758,2.363c0.645,0.78,1.311,1.584,1.997,2.412c1.425,1.596,3.026,3.172,4.781,4.644
	c0.891,0.713,1.768,1.483,2.773,2.081c0.485,0.32,0.975,0.642,1.467,0.966c0.52,0.266,1.044,0.534,1.571,0.802
	c1.015,0.613,2.131,1.004,3.237,1.429c0.551,0.23,1.105,0.429,1.667,0.556c0.552,0.17,1.123,0.277,1.698,0.377
	c2.289,0.438,4.685,0.496,7.046,0.236c2.357-0.267,4.693-0.721,6.929-1.343c2.229-0.637,4.37-1.384,6.382-2.167
	c2.005-0.808,3.881-1.647,5.609-2.452c3.43-1.656,6.25-3.188,8.21-4.299c1.979-1.085,3.071-1.79,3.071-1.79s-0.891,0.943-2.57,2.485
	c-1.699,1.512-4.209,3.604-7.503,5.746c-1.636,1.087-3.473,2.181-5.497,3.207c-2.011,1.049-4.212,2.035-6.589,2.836
	c-2.37,0.813-4.911,1.504-7.589,1.813c-2.67,0.33-5.479,0.313-8.253-0.182c-0.691-0.132-1.38-0.279-2.056-0.494
	c-0.691-0.177-1.341-0.42-1.972-0.694c-1.28-0.513-2.565-1.007-3.72-1.722c-0.585-0.339-1.168-0.681-1.746-1.019
	c-0.539-0.393-1.074-0.785-1.605-1.174c-1.096-0.744-2.029-1.641-2.976-2.485c-1.879-1.708-3.38-3.636-4.761-5.455
	c-0.66-0.936-1.269-1.864-1.843-2.765c-0.527-0.933-1.05-1.821-1.517-2.691c-1.839-3.499-2.93-6.591-3.582-8.774
	C203.415,278.162,203.204,276.878,203.204,276.878"/>
<path fill="#FFFFFF" stroke="#231F20" stroke-width="2" stroke-miterlimit="10" d="M326.528,221.251
	c0,0,14.284,27.002,16.188,34.314c32.38-0.781,34.228-13.995,29.971-28.339C368.43,212.882,347.747,195.814,326.528,221.251"/>
<path fill="#FFFFFF" stroke="#231F20" stroke-width="2" stroke-miterlimit="10" d="M329.637,227.226c0,0,14.984-14.82,24.984-3.393
	c9.999,11.429,5.547,20.713-13.416,27.498C341.206,251.331,335.757,238.72,329.637,227.226"/>
<path fill="#FFFFFF" stroke="#231F20" stroke-width="2" stroke-miterlimit="10" d="M190.825,208.299
	c0,0,19.522-16.843,31.665-22.081c0,0-13.249-29.764-35.676-16.622C168.037,180.601,174.159,203.716,190.825,208.299"/>
<path fill="#FFFFFF" stroke="#231F20" stroke-width="2" stroke-miterlimit="10" d="M194.819,204.967c0,0-15.9-9.894-5.9-22.416
	c10-12.523,22.845-2.905,27.136,7.047C216.055,189.598,205.843,196.438,194.819,204.967"/>
<path fill="#FFFFFF" stroke="#000000" stroke-width="2" d="M158.467,115.033c1.863,0.893,3.282,2.026,4.254,3.403
	c0.972,1.379,1.438,2.776,1.398,4.193c-0.042,1.418-0.568,2.756-1.58,4.011c-1.014,1.255-2.574,2.207-4.68,2.856
	c-0.811,0.243-1.945,0.384-3.403,0.426c-1.458,0.04-3.485,0.061-6.078,0.061c-2.594,0-5.876,0-9.845,0
	c-3.971,0-8.873,0.04-14.707,0.122c-1.458,0.08-2.959,0.122-4.497,0.122c-1.541,0-2.877-0.528-4.011-1.58
	c-0.972-0.811-1.683-2.045-2.127-3.707c-0.446-1.66-0.729-3.403-0.851-5.227c-0.122-1.824-0.163-3.646-0.122-5.47
	c0.04-1.823,0.061-3.343,0.061-4.558c0-2.431,0.019-5.227,0.061-8.387c0.04-3.16,0.08-6.381,0.122-9.663
	c0.04-3.282,0.061-6.502,0.061-9.663c0-3.161,0-5.956,0-8.387c0-4.294,0.04-7.758,0.122-10.392c0.08-2.632,0.262-4.699,0.547-6.199
	c0.283-1.499,0.748-2.592,1.397-3.282c0.648-0.688,1.539-1.276,2.674-1.763c0.972-0.404,2.045-0.547,3.221-0.425
	c1.174,0.122,2.268,0.446,3.282,0.972c1.013,0.528,1.863,1.257,2.553,2.188c0.688,0.933,1.033,1.966,1.033,3.1
	c0.161,9.724,0.161,19.368,0,28.928c-0.164,9.562-0.243,19.125-0.243,28.685c5.105,0,10.189-0.061,15.254-0.183
	c5.063-0.122,10.189-0.262,15.376-0.425L158.467,115.033z"/>
<path fill="#FFFFFF" stroke="#000000" stroke-width="2" d="M217.66,54.259c0.323-2.997,1.356-5.206,3.099-6.625
	c1.742-1.417,3.586-2.106,5.53-2.066c1.945,0.042,3.747,0.79,5.409,2.249c1.66,1.458,2.531,3.525,2.613,6.199
	c0.161,2.756-0.547,4.883-2.127,6.381c-1.58,1.5-3.384,2.351-5.409,2.552c-2.026,0.203-3.931-0.344-5.712-1.641
	c-1.784-1.295-2.877-3.362-3.282-6.199L217.66,54.259z"/>
<path fill="#FFFFFF" stroke="#000000" stroke-width="2" d="M233.704,123.419c-0.163,1.622-0.729,3.06-1.702,4.315
	c-0.972,1.255-2.087,2.167-3.342,2.735c-1.257,0.566-2.613,0.688-4.072,0.365c-1.458-0.325-2.755-1.216-3.889-2.674
	c-0.649-0.811-1.115-1.721-1.398-2.735c-0.285-1.012-0.467-2.066-0.547-3.16c-0.082-1.094-0.103-2.188-0.061-3.282
	c0.04-1.094,0.061-2.085,0.061-2.978c-0.082-4.78-0.103-9.521-0.061-14.221c0.04-4.699,0.019-9.439-0.061-14.221
	c0-1.945-0.122-3.908-0.365-5.895c-0.243-1.984-0.122-3.95,0.365-5.895c0.404-1.458,1.113-2.714,2.127-3.768
	c1.012-1.052,2.146-1.781,3.403-2.188c1.255-0.405,2.553-0.444,3.89-0.122c1.337,0.325,2.492,1.175,3.464,2.552
	c1.295,1.622,1.945,3.221,1.945,4.801s0,3.506,0,5.773c0,2.756,0,5.511,0,8.265c0,2.756,0.04,5.47,0.122,8.144
	c0.08,3.89,0.122,7.779,0.122,11.668c0,3.89,0,7.779,0,11.669L233.704,123.419L233.704,123.419z"/>
<path fill="#FFFFFF" stroke="#000000" stroke-width="2" d="M244.277,118.679c-0.486-1.377-0.689-2.735-0.607-4.072
	c0.08-1.337,0.425-2.553,1.033-3.646c0.607-1.094,1.478-1.945,2.613-2.553c1.134-0.607,2.511-0.83,4.132-0.668
	c0.891,0.082,1.702,0.325,2.431,0.729c0.729,0.406,1.397,0.893,2.005,1.458c0.608,0.568,1.215,1.176,1.823,1.823
	c0.608,0.649,1.234,1.215,1.884,1.702c1.377,1.054,2.835,1.823,4.376,2.31c1.538,0.486,3.16,0.851,4.862,1.094
	c1.134,0,2.045-0.283,2.735-0.851c0.688-0.566,1.155-1.255,1.398-2.066c0.243-0.809,0.304-1.681,0.182-2.613
	c-0.122-0.931-0.425-1.681-0.912-2.249c-1.379-1.376-3.06-2.268-5.044-2.674c-1.986-0.404-3.829-0.891-5.53-1.458
	c-2.431-0.809-4.822-1.842-7.171-3.1c-2.351-1.255-4.254-2.978-5.712-5.166c-1.541-2.268-2.452-4.68-2.735-7.232
	c-0.285-2.553-0.082-5.044,0.608-7.475c0.688-2.431,1.842-4.659,3.464-6.686c1.62-2.024,3.565-3.686,5.834-4.983
	c1.702-0.972,3.564-1.599,5.591-1.884c2.025-0.283,4.072-0.344,6.138-0.182c2.066,0.163,4.112,0.547,6.138,1.154
	c2.024,0.608,3.89,1.276,5.591,2.006c1.945,0.893,3.403,2.148,4.375,3.768c0.973,1.622,1.438,3.263,1.398,4.922
	c-0.042,1.662-0.608,3.1-1.702,4.315c-1.094,1.215-2.695,1.823-4.801,1.823c-1.297,0-2.473-0.222-3.525-0.668
	c-1.054-0.444-2.148-0.87-3.282-1.276c-1.458-0.566-3.039-0.952-4.74-1.155c-1.702-0.201-3.081-0.101-4.133,0.304
	c-0.325,0.082-0.689,0.346-1.094,0.79c-0.406,0.446-0.71,0.993-0.912,1.641c-0.203,0.649-0.243,1.297-0.122,1.945
	c0.122,0.649,0.547,1.176,1.276,1.58c1.945,1.054,4.011,1.865,6.199,2.431c2.188,0.568,4.334,1.215,6.442,1.945
	c2.106,0.729,4.072,1.662,5.895,2.795c1.823,1.136,3.343,2.756,4.558,4.862c1.782,3.081,2.693,6.301,2.735,9.663
	c0.04,3.363-0.628,6.502-2.005,9.42c-1.379,2.917-3.403,5.409-6.078,7.475c-2.674,2.066-5.794,3.301-9.359,3.707
	c-2.513,0.243-4.983,0.101-7.415-0.425c-2.431-0.528-4.782-1.379-7.049-2.553c-2.27-1.175-4.376-2.571-6.321-4.193
	c-1.945-1.62-3.646-3.321-5.105-5.105L244.277,118.679z"/>
<path fill="#FFFFFF" stroke="#000000" stroke-width="2" d="M364.486,128.281c-1.055,1.295-2.271,2.188-3.646,2.674
	c-1.379,0.486-2.795,0.486-4.254,0c-1.459-0.486-2.674-1.581-3.646-3.282c-0.407-0.649-0.729-1.337-0.974-2.066
	c-0.243-0.729-0.365-1.458-0.365-2.188V91.453c-1.539,0-2.938-0.425-4.192-1.276c-1.257-0.851-2.188-1.903-2.795-3.16
	c-0.608-1.255-0.832-2.592-0.668-4.011c0.162-1.417,0.809-2.734,1.944-3.95c0.81-0.891,1.682-1.478,2.613-1.762
	c0.932-0.283,1.924-0.465,2.979-0.547c-0.082-2.511-0.144-4.983-0.184-7.415c-0.042-2.431,0.142-4.862,0.547-7.293
	c0.486-3.808,1.62-7.05,3.403-9.724c1.782-2.674,3.99-4.74,6.625-6.199c2.632-1.458,5.57-2.31,8.812-2.553
	c3.24-0.243,6.604,0.243,10.089,1.458c1.458,0.486,2.855,1.094,4.192,1.823c1.337,0.729,2.532,1.662,3.586,2.796
	c0.729,0.811,1.255,1.762,1.58,2.856c0.323,1.094,0.383,2.188,0.183,3.282c-0.203,1.094-0.608,2.108-1.216,3.039
	c-0.607,0.932-1.479,1.641-2.612,2.127c-1.541,0.649-3.061,0.811-4.559,0.486c-1.5-0.323-2.978-0.851-4.437-1.58
	c-0.894-0.323-1.743-0.648-2.552-0.973c-0.812-0.323-1.662-0.566-2.554-0.729c-0.893-0.162-1.702-0.04-2.431,0.364
	c-0.729,0.407-1.358,0.954-1.884,1.641c-0.528,0.689-0.934,1.458-1.215,2.31c-0.285,0.851-0.426,1.683-0.426,2.492
	c-0.082,1.865-0.103,3.749-0.061,5.652c0.04,1.905,0.061,3.789,0.061,5.652c1.215-0.08,2.512-0.162,3.89-0.243
	c1.377-0.08,2.734-0.122,4.071-0.122c1.338,0,2.572,0.042,3.708,0.122c1.135,0.082,2.024,0.243,2.675,0.486
	c1.295,0.486,2.35,1.236,3.16,2.249c0.809,1.014,1.337,2.108,1.579,3.282c0.243,1.176,0.142,2.37-0.304,3.585
	c-0.446,1.216-1.236,2.27-2.37,3.16c-1.054,0.811-2.27,1.379-3.646,1.702c-1.379,0.325-2.837,0.547-4.375,0.669
	c-1.541,0.122-3.039,0.163-4.498,0.122c-1.458-0.04-2.755-0.061-3.89-0.061v32.453C366.188,125.446,365.538,126.984,364.486,128.281
	z"/>
<path fill="#FFFFFF" stroke="#000000" stroke-width="2" d="M387.093,97.773c0.566-2.349,1.356-4.659,2.37-6.928
	c1.012-2.268,2.249-4.437,3.707-6.502c1.459-2.066,3.1-3.951,4.923-5.652c1.823-1.701,3.787-3.078,5.896-4.132
	c3.726-1.945,7.475-2.936,11.242-2.978c3.769-0.04,7.272,0.71,10.515,2.249c3.24,1.541,5.996,3.829,8.265,6.868
	c2.269,3.039,3.769,6.666,4.498,10.878c0.404,2.755,0.626,5.369,0.668,7.84c0.04,2.473-0.224,5.044-0.79,7.718
	c-0.811,3.81-2.452,7.597-4.923,11.364c-2.473,3.768-5.43,6.928-8.873,9.481c-3.445,2.552-7.213,4.233-11.304,5.044
	c-4.093,0.809-8.205,0.162-12.337-1.945c-1.865-0.893-3.546-1.925-5.044-3.099c-1.5-1.174-2.856-2.572-4.072-4.193
	c-1.379-1.782-2.452-3.646-3.221-5.591c-0.771-1.945-1.398-3.969-1.884-6.077c-0.568-2.268-0.771-4.558-0.607-6.868
	c0.161-2.309,0.444-4.558,0.851-6.746L387.093,97.773z"/>
<path fill="#FFFFFF" stroke="#000000" stroke-width="2" d="M401.679,100.326c-0.243,1.297-0.445,2.573-0.606,3.829
	c-0.164,1.257-0.164,2.533,0,3.829c0.243,1.865,0.748,3.567,1.519,5.105c0.771,1.541,1.782,2.756,3.039,3.646
	c1.255,0.893,2.693,1.358,4.314,1.398c1.62,0.042,3.361-0.465,5.227-1.52c2.351-1.377,4.376-3.504,6.078-6.381
	c1.702-2.875,2.754-5.874,3.16-8.994c0.403-3.119,0.08-6.078-0.972-8.873c-1.055-2.795-3.121-4.801-6.199-6.017
	c-2.026,0-3.891,0.385-5.592,1.155c-1.701,0.771-3.181,1.783-4.436,3.039c-1.257,1.257-2.352,2.735-3.282,4.437
	C402.995,96.679,402.245,98.462,401.679,100.326z"/>
<path fill="#FFFFFF" stroke="#000000" stroke-width="2" d="M450.295,89.326c0.08-0.526,0.04-1.478-0.122-2.856
	c-1.297-0.729-2.31-1.66-3.039-2.796c-0.729-1.134-1.155-2.349-1.275-3.646c-0.122-1.295,0.122-2.532,0.729-3.708
	c0.608-1.173,1.599-2.167,2.979-2.978c1.862-1.052,3.908-1.255,6.138-0.608c2.228,0.649,4.152,1.622,5.772,2.917
	c2.024-1.538,4.134-2.835,6.32-3.889c2.188-1.052,4.416-1.763,6.686-2.127c2.268-0.364,4.576-0.304,6.928,0.183
	c2.35,0.486,4.659,1.5,6.928,3.039c1.134,0.729,2.188,1.641,3.16,2.735c0.973,1.094,1.58,2.33,1.823,3.707
	c0.404,2.026,0.243,3.789-0.486,5.287c-0.729,1.5-1.744,2.595-3.039,3.282c-1.297,0.689-2.755,0.893-4.375,0.607
	c-1.622-0.283-3.16-1.155-4.619-2.613c-0.485-0.323-0.832-0.587-1.033-0.79c-0.202-0.201-0.629-0.465-1.275-0.79
	c-1.297-0.323-2.573-0.243-3.829,0.243c-1.257,0.486-2.473,1.155-3.646,2.005c-1.177,0.851-2.271,1.784-3.282,2.796
	c-1.015,1.014-1.927,1.926-2.735,2.735v30.994c0,1.216-0.243,2.391-0.729,3.525c-0.729,1.863-1.885,3.16-3.465,3.89
	s-3.159,0.931-4.739,0.607c-1.58-0.325-2.959-1.135-4.134-2.431c-1.175-1.297-1.762-2.957-1.762-4.983V89.629
	C450.174,89.954,450.214,89.854,450.295,89.326z"/>
<path fill="#FFFFFF" stroke="#000000" stroke-width="2" d="M247.681,511.033c1.863,0.893,3.282,2.025,4.254,3.402
	c0.972,1.38,1.438,2.776,1.398,4.193c-0.042,1.418-0.568,2.756-1.58,4.011c-1.014,1.255-2.574,2.207-4.68,2.856
	c-0.811,0.243-1.945,0.384-3.403,0.426c-1.458,0.04-3.485,0.062-6.078,0.062c-2.594,0-5.876,0-9.845,0
	c-3.971,0-8.873,0.04-14.707,0.122c-1.458,0.079-2.959,0.121-4.497,0.121c-1.541,0-2.877-0.527-4.011-1.58
	c-0.972-0.811-1.683-2.045-2.127-3.706c-0.446-1.66-0.729-3.403-0.851-5.228c-0.122-1.824-0.163-3.646-0.122-5.47
	c0.04-1.823,0.061-3.343,0.061-4.559c0-2.431,0.019-5.227,0.061-8.387c0.04-3.16,0.08-6.381,0.122-9.663
	c0.04-3.282,0.061-6.502,0.061-9.663s0-5.956,0-8.387c0-4.294,0.04-7.758,0.122-10.392c0.08-2.633,0.262-4.699,0.547-6.199
	c0.283-1.499,0.748-2.592,1.397-3.282c0.648-0.688,1.539-1.276,2.674-1.763c0.972-0.404,2.045-0.547,3.221-0.425
	c1.174,0.122,2.268,0.445,3.282,0.972c1.013,0.528,1.863,1.257,2.553,2.188c0.688,0.934,1.033,1.967,1.033,3.101
	c0.161,9.724,0.161,19.368,0,28.928c-0.164,9.562-0.243,19.125-0.243,28.686c5.104,0,10.189-0.062,15.254-0.184
	c5.063-0.122,10.189-0.262,15.376-0.425L247.681,511.033z"/>
<path fill="#FFFFFF" stroke="#000000" stroke-width="2" d="M261.294,450.259c0.323-2.997,1.356-5.206,3.099-6.625
	c1.742-1.417,3.586-2.105,5.53-2.065c1.945,0.042,3.747,0.79,5.409,2.249c1.66,1.458,2.531,3.524,2.613,6.198
	c0.161,2.757-0.547,4.884-2.127,6.382c-1.58,1.5-3.384,2.351-5.409,2.552c-2.026,0.203-3.931-0.344-5.712-1.642
	c-1.784-1.295-2.877-3.361-3.282-6.198L261.294,450.259z"/>
<path fill="#FFFFFF" stroke="#000000" stroke-width="2" d="M277.338,519.419c-0.163,1.622-0.729,3.06-1.702,4.315
	c-0.972,1.255-2.087,2.167-3.342,2.734c-1.257,0.566-2.613,0.688-4.072,0.365c-1.458-0.325-2.755-1.216-3.889-2.674
	c-0.649-0.812-1.115-1.721-1.398-2.735c-0.285-1.012-0.467-2.065-0.547-3.16c-0.082-1.094-0.103-2.188-0.061-3.281
	c0.04-1.095,0.061-2.085,0.061-2.979c-0.082-4.78-0.103-9.521-0.061-14.221c0.04-4.699,0.019-9.439-0.061-14.222
	c0-1.944-0.122-3.907-0.365-5.895c-0.243-1.984-0.122-3.95,0.365-5.895c0.404-1.458,1.113-2.715,2.127-3.769
	c1.012-1.052,2.146-1.781,3.403-2.188c1.255-0.405,2.553-0.444,3.89-0.122c1.337,0.324,2.492,1.175,3.464,2.552
	c1.295,1.622,1.945,3.221,1.945,4.801s0,3.506,0,5.773c0,2.756,0,5.511,0,8.265c0,2.756,0.04,5.47,0.122,8.145
	c0.08,3.89,0.122,7.778,0.122,11.668s0,7.778,0,11.669L277.338,519.419L277.338,519.419z"/>
<path fill="#FFFFFF" stroke="#000000" stroke-width="2" d="M288.763,493.773c0.566-2.35,1.356-4.659,2.37-6.929
	c1.012-2.268,2.249-4.437,3.707-6.502c1.459-2.065,3.1-3.951,4.923-5.651c1.823-1.701,3.787-3.078,5.895-4.133
	c3.726-1.944,7.475-2.936,11.243-2.978c3.768-0.04,7.271,0.71,10.514,2.249c3.24,1.541,5.996,3.829,8.265,6.868
	s3.769,6.666,4.498,10.878c0.404,2.755,0.626,5.369,0.668,7.84c0.04,2.473-0.224,5.044-0.79,7.718
	c-0.811,3.811-2.452,7.597-4.923,11.364c-2.473,3.768-5.43,6.928-8.873,9.48c-3.444,2.553-7.213,4.233-11.304,5.045
	c-4.093,0.809-8.205,0.161-12.337-1.945c-1.865-0.894-3.546-1.925-5.044-3.1c-1.5-1.174-2.856-2.571-4.072-4.192
	c-1.379-1.782-2.452-3.646-3.221-5.591c-0.771-1.945-1.398-3.97-1.884-6.077c-0.568-2.269-0.771-4.559-0.607-6.868
	c0.161-2.309,0.444-4.558,0.851-6.746L288.763,493.773z"/>
<path fill="#FFFFFF" stroke="#000000" stroke-width="2" d="M303.35,496.326c-0.244,1.297-0.447,2.573-0.607,3.829
	c-0.164,1.257-0.164,2.532,0,3.829c0.242,1.864,0.748,3.566,1.52,5.104c0.77,1.541,1.781,2.756,3.038,3.646
	c1.255,0.893,2.693,1.357,4.314,1.397c1.62,0.042,3.361-0.465,5.227-1.52c2.351-1.377,4.376-3.504,6.078-6.381
	c1.702-2.875,2.754-5.874,3.16-8.994c0.404-3.119,0.08-6.078-0.972-8.873c-1.055-2.795-3.121-4.801-6.199-6.018
	c-2.026,0-3.891,0.386-5.591,1.155c-1.702,0.771-3.182,1.783-4.437,3.039c-1.257,1.257-2.352,2.735-3.281,4.438
	C304.665,492.679,303.915,494.462,303.35,496.326z"/>
<path fill="#FFFFFF" stroke="#000000" stroke-width="2" d="M398.153,519.663c-0.243,2.026-0.993,3.686-2.249,4.983
	c-1.257,1.295-2.674,2.105-4.254,2.431c-1.58,0.323-3.1,0.122-4.559-0.607c-1.458-0.729-2.513-2.147-3.16-4.254
	c-0.729-2.268-1.014-4.638-0.851-7.109c0.162-2.472,0.243-4.76,0.243-6.867c0-4.376,0.019-8.73,0.061-13.066
	c0.04-4.334-0.142-8.69-0.547-13.065c-0.082-0.162-0.163-0.305-0.243-0.426c-0.082-0.122-0.243-0.304-0.485-0.547
	c-1.865-0.485-3.851-0.365-5.956,0.364c-2.108,0.729-3.891,1.662-5.349,2.796c-1.297,1.054-2.572,2.492-3.829,4.315
	c-1.257,1.822-1.884,3.585-1.884,5.287v16.772c0,1.297,0.04,2.716,0.122,4.254c0.08,1.54,0.02,3.039-0.183,4.497
	c-0.203,1.458-0.668,2.795-1.397,4.011c-0.729,1.216-1.905,2.106-3.524,2.675c-0.894,0.322-1.724,0.443-2.492,0.364
	c-0.771-0.082-1.602-0.285-2.492-0.607c-1.459-0.486-2.513-1.318-3.161-2.492s-1.094-2.431-1.337-3.768
	c-0.243-1.338-0.346-2.633-0.304-3.89c0.04-1.255,0.061-2.249,0.061-2.978c0-1.863-0.021-4.559-0.061-8.083
	c-0.042-3.525-0.062-7.232-0.062-11.122s0-7.598,0-11.122c0-3.525,0-6.218,0-8.083c0-1.782,0.526-3.261,1.58-4.438
	c1.052-1.174,2.289-1.944,3.708-2.31c1.417-0.365,2.917-0.283,4.497,0.243c1.58,0.527,2.896,1.601,3.95,3.221
	c3.24-2.105,6.807-3.525,10.696-4.254c3.89-0.729,7.555-0.608,11,0.365c3.442,0.972,6.319,2.795,8.63,5.47
	c2.31,2.674,3.504,6.362,3.585,11.061c0,0.164,0.04,0.649,0.122,1.458c0.08,0.812,0.122,1.945,0.122,3.403L398.153,519.663
	L398.153,519.663z"/>
</svg>
