<?xml version="1.0" encoding="utf-8"?>
<!-- Generator: Adobe Illustrator 16.0.0, SVG Export Plug-In . SVG Version: 6.00 Build 0)  -->
<!DOCTYPE svg PUBLIC "-//W3C//DTD SVG 1.1//EN" "http://www.w3.org/Graphics/SVG/1.1/DTD/svg11.dtd">
<svg version="1.1" xmlns="http://www.w3.org/2000/svg" xmlns:xlink="http://www.w3.org/1999/xlink" x="0px" y="0px" width="100%"
	 height="100%" viewBox="0 0 1000 1000" style="enable-background:new 0 0 1000 1000;" xml:space="preserve">
<g id="Layer_2">
	<rect style="fill:#FFFFFF;" width="1000" height="1000"/>
</g>
<g id="Layer_1">
	<path style="fill:#FFFFFF;stroke:#000000;stroke-width:2;" d="M754.608,315.922c33.622,11.783,55.966,47.796,64.179,80.619
		c6.851,27.389,6.762,55.934,8.825,83.926c1.817,24.64,4.644,51.937,20.046,72.293c-1.134,1.853-2.27,3.703-3.405,5.554
		c-33.077-30.038-28.787-81.141-39.408-120.588C793.479,395.499,775.218,354.438,754.608,315.922"/>
	<path style="fill:#FFFFFF;stroke:#000000;stroke-width:2;" d="M844.94,588.873c-10.283-0.017-13.221-11.697-12.436-20.004
		c1.183-12.51,9.127-22.218,20.56-27.069c9.104-3.86,25.436-6.042,31.487,4.262c4.718,8.022-1.544,15.178-9.032,17.756
		c16.384,3.764,39.076,17.833,28.07,37.594c-4.323,7.764-13.282,8.953-20.836,5.323c-13.678-6.576-21.277-22.72-25.703-36.353
		C858.168,578.96,855.184,588.885,844.94,588.873"/>
	<path style="fill:#FFFFFF;stroke:#000000;stroke-width:2;" d="M438.496,618.217c4.214,4.429,4.408,18.548,5.538,24.197
		c2.841,14.219,5.588,28.514,9.479,42.49c2.32,8.324,3.811,16.766,13.057,19.09c14.399,3.617,30.58,2.93,45.235,1.619
		c7.771-0.694,20.971-0.374,24.153-9.152c3.834-10.579,3.706-23.045,3.999-34.139c0.546-20.647-0.142-41.376-1.459-61.988
		C505.163,606.296,471.83,612.256,438.496,618.217z"/>
	<path style="fill:#FFFFFF;stroke:#000000;stroke-width:2;" d="M551.89,600.337c2.484,24.314,5.363,48.644,9.33,72.765
		c1.622,9.85,2.249,23.949,7.995,32.532c4.897,7.316,26.932,3.933,33.961,3.53c15.58-0.895,32.154-2.229,47.071-7.129
		c9.661-3.173,9.469-11.641,10.592-20.765c3.395-27.585,4.082-55.616,4.743-83.384c0.016-0.606,0.03-1.211,0.041-1.817
		C627.712,597.493,589.8,598.914,551.89,600.337z"/>
	<path style="fill:#FFFFFF;stroke:#000000;stroke-width:2;" d="M684.91,588.713c-1.72,8.301,2.26,20.585,3.406,28.798
		c2.225,15.923,4.597,31.839,7.446,47.662c1.258,6.994,0.888,18.511,8.585,21.342c14.779,5.438,32.436,7.142,48.031,5.769
		c12.768-1.125,23.084-4.995,28.196-17.09c5.267-12.455,8.157-26.028,10.941-39.211c7.166-33.94,12.003-68.481,15.642-102.971
		c0.771-7.315,1.484-14.637,1.973-21.976c0.212-3.163,1.707-9.638-0.489-12.382c-6.223-7.766-28.821,4.754-34.758,7.647
		c-19.795,9.637-38.526,22.095-55.186,36.479C704.942,554.663,688.757,570.128,684.91,588.713"/>
	<path style="fill:#FFFFFF;stroke:#000000;stroke-width:2;" d="M469.266,704.584c-2.343-7.877-3.966-17.235-1.534-25.25
		c3.296-10.867,15.465-12.526,20.998-2.734c4.607,8.158,5.954,18.339,6.677,27.55C495.875,710.136,473.332,706.053,469.266,704.584"
		/>
	<path style="fill:#FFFFFF;stroke:#000000;stroke-width:2;" d="M523.564,704.051c1.134-8.021,2.915-30.95-10.498-29.478
		c-11.895,1.306-15.869,22.482-17.515,31.825C504.715,706.512,514.712,706.673,523.564,704.051"/>
	<path style="fill:#FFFFFF;stroke:#000000;stroke-width:2;" d="M617.622,707.975c-0.582-8.363-0.536-17.029,1.113-25.267
		c2.053-10.271,10.433-19.144,18.015-7.135c1.609,2.549,11.222,27.711,5.113,28.655
		C633.783,705.477,625.703,706.727,617.622,707.975z"/>
	<path style="fill:#FFFFFF;stroke:#000000;stroke-width:2;" d="M582.778,709.342c-1.796-9.72-8.032-51.327,12.104-46.028
		c13.595,3.579,16.055,27.304,16.891,38.319c0.641,8.469-0.35,7.011-7.991,7.49C596.874,709.561,589.678,710.194,582.778,709.342"/>
	<path style="fill:#FFFFFF;stroke:#000000;stroke-width:2;" d="M709.885,688.217c-1.877-8.099-4.303-42.651,13.345-35.163
		c11.278,4.785,9.68,29.16,9.257,39.03C724.995,691.198,717.104,690.497,709.885,688.217"/>
	<path style="fill:#FFFFFF;stroke:#000000;stroke-width:2;" d="M740.479,692.082c-1.013-8.414-0.722-17.492,1.998-25.565
		c2.229-6.621,15.939-22.93,21.533-10.512c3.876,8.612,1.542,20.465-0.022,29.386c-0.322,1.838-0.021,4.977-2.104,5.196
		C754.789,691.336,747.62,692.082,740.479,692.082"/>
	<path style="fill:#FFFFFF;stroke:#000000;stroke-width:2;" d="M476.805,608.422c15.262,8.045,33.729,11.14,50.591,13.353
		c49.503,6.5,102.673,3.148,150.806-10.006c38.748-10.595,77.586-29.036,105.426-58.695c23.44-24.978,28.527-54.523,27.946-88.02
		c-0.694-40.265-6.771-88.365-29.046-123.002c-20.146-31.324-60.93-47.277-95.904-53.889c-52.788-9.979-110.068-0.693-157.64,24.115
		c-29.497,15.384-49.543,42.836-61.044,73.518c-16.031,42.768-17.952,90.526-13.541,135.583c1.836,18.765,4.853,37.507,9.735,55.73
		C466.901,587.447,469.912,599.888,476.805,608.422"/>
	<path style="fill:#FFFFFF;stroke:#000000;stroke-width:2;" d="M628.577,362.639c25.869,44.132,16.599,103.171-2.379,147.756
		C637.858,462.378,646.52,410.458,628.577,362.639"/>
	<path style="fill:#FFFFFF;stroke:#000000;stroke-width:2;" d="M593.342,345.624c18.444-19.647,44.788-34.232,71.408-38.299
		c40.84-6.236,88.308,14.699,107.426,52.185c5.941,11.647,8.891,24.251,11.365,37c3.904,20.132,1.144,40.438,2.466,60.759
		c1.037,15.963,11.378,28.732,10.667,44.859c-0.914,20.789-15.915,36.754-33.359,46.323c-50.177,27.53-122.441,20.268-150.88-34.11
		C586.528,464.792,585.184,400.025,593.342,345.624"/>
	<path style="fill:#FFFFFF;stroke:#000000;stroke-width:2;" d="M421.48,367.059c-11.202-24.976-38.956-35.828-64.973-31.702
		c-46.476,7.374-63.733,50.942-63.486,93.414c0.126,21.816,2.562,45.246,9.761,65.959c5.708,16.43,16.056,30.237,26.51,43.916
		c25.255,33.063,70.034,33.616,101.11,8.384c16.051-13.034,29.366-31.775,32.414-52.542c2.825-19.235-1.219-39.067-7.15-57.343
		C447.688,412.54,435.853,388.582,421.48,367.059"/>
	<path style="fill:#FFFFFF;stroke:#000000;stroke-width:2;" d="M607.578,373.497c16.267-22.234,43.53-38.082,71.273-38.384
		c42.053-0.458,66.179,32.608,73.255,70.916c6.356,34.406,3.06,70.354-26.197,93.025c-31.731,24.593-78.436,28.437-105.598-4.871
		C593.486,461.285,593.649,411.959,607.578,373.497"/>
	<path style="fill:#FFFFFF;stroke:#000000;stroke-width:2;" d="M411.511,382.581c-3.029-3.97-9.5-6.716-13.758-8.952
		c-9.811-5.151-20.46-9.156-31.474-10.69c-20.404-2.84-34.458,5.232-42.459,24.014c-8.954,21.019-9.711,45.623-7.066,68.008
		c2.495,21.098,8.042,44.005,23.121,59.854c20.261,21.293,53.591,21.125,77.341,5.767c27.685-17.905,20.042-55.262,13.952-82.781
		C427.256,420.107,422.809,397.367,411.511,382.581"/>
	<path style="fill:#FFFFFF;stroke:#000000;stroke-width:2;" d="M438.496,522.554c-7.495,6.167-61.11,54.182-36.45,59.935
		c14.56,3.396,34.247-6.125,45.613-14.501C462.913,556.739,456.134,528.399,438.496,522.554"/>
	<path style="fill:#FFFFFF;stroke:#000000;stroke-width:2;" d="M503.21,301.721c-37.369,1.394-74.183,15.213-94.744,47.971
		c-14.761,23.519-19.778,52.519-18.076,79.947c2.836,45.718,40,78.249,47.347,122.134c2.721,16.245-0.957,39.66-20.221,43.344
		c-16.286,3.112-33.561-7.173-42.759-19.982c-7.078-9.854-11.657-21.985-12.653-34.091c-0.784-9.541,1.855-15.018,5.963-22.904
		c6.462-12.41,0.677-29.335-13.306-33.783c-13.399-4.262-16.902,10.588-20.049,19.614c-4.357,12.493-12.614,14.235-24.354,15.724
		c-7.557,0.959-19.284,3.257-20.194,12.663c-1.942,20.099,22.222,31.922,38.234,23.273c4.221,21.89,14.507,43.559,28.345,60.928
		c27.491,34.502,69.217,45.648,111.661,38.054c42.104-7.529,86.341-29.593,113.581-63.261c13.147-16.254,22.91-36.514,32.354-55.079
		c10.75-21.129,19.57-43.31,24.103-66.65c8.494-43.75,4.639-98.712-27.161-132.969C583.911,307.173,541.641,300.291,503.21,301.721"
		/>
	<path style="fill:#FFFFFF;stroke:#000000;stroke-width:2;" d="M584.88,551.754c-2.364-16.125,19.254-28.093,33.021-23.661
		c16.413,5.281,18.677,28.786,16.601,43.059c-2.046,14.061-8.404,22.841-22.084,14.112
		C601.758,578.464,586.832,565.074,584.88,551.754"/>
	<path style="fill:#FFFFFF;stroke:#000000;stroke-width:2;" d="M592.835,519.921c0,18.516-38.849,18.516-38.849,0
		C553.986,501.404,592.835,501.407,592.835,519.921"/>
	<path style="fill:#FFFFFF;stroke:#000000;stroke-width:2;" d="M480.114,513.247c0,18.516-38.85,18.516-38.85,0
		C441.264,494.73,480.114,494.731,480.114,513.247"/>
	<path style="fill:#FFFFFF;stroke:#000000;stroke-width:2;" d="M547.104,608.381c6.12-16.137,12.823-32.974,15.602-50.065
		C583.176,571.9,572.259,609.757,547.104,608.381"/>
	<path style="fill:#231F20;stroke:#000000;stroke-width:2;" d="M558.934,474.837c0,20.781-23.661,20.781-23.661,0
		C535.274,454.059,558.934,454.059,558.934,474.837"/>
	<path style="fill:#231F20;stroke:#000000;stroke-width:2;" d="M478.027,474.837c0,20.781-23.661,20.781-23.661,0
		C454.366,454.059,478.027,454.059,478.027,474.837"/>
	<path style="fill:#FFFFFF;stroke:#000000;stroke-width:2;" d="M548.818,471.104c0,10.813-12.312,10.813-12.312,0
		C536.507,460.292,548.818,460.292,548.818,471.104"/>
	<path style="fill:#FFFFFF;stroke:#000000;stroke-width:2;" d="M466.845,471.104c0,10.813-12.312,10.813-12.312,0
		C454.533,460.292,466.845,460.292,466.845,471.104"/>
</g>
<g id="Layer_3">
	<path style="fill:#FFFFFF;stroke:#000000;stroke-width:2;" d="M130.715,812.622c1.587,0.761,2.795,1.727,3.623,2.899
		c0.829,1.174,1.225,2.364,1.191,3.571c-0.036,1.208-0.484,2.347-1.346,3.416c-0.864,1.069-2.191,1.88-3.985,2.433
		c-0.691,0.207-1.656,0.327-2.898,0.362c-1.243,0.034-2.968,0.052-5.176,0.052c-2.209,0-5.005,0-8.385,0
		c-3.382,0-7.557,0.034-12.526,0.104c-1.242,0.068-2.52,0.104-3.831,0.104c-1.312,0-2.45-0.449-3.416-1.346
		c-0.828-0.69-1.433-1.742-1.812-3.157c-0.38-1.414-0.621-2.898-0.725-4.451c-0.104-1.554-0.139-3.106-0.104-4.659
		c0.034-1.553,0.052-2.847,0.052-3.882c0-2.07,0.016-4.451,0.052-7.143c0.034-2.692,0.068-5.436,0.104-8.23
		c0.034-2.795,0.052-5.538,0.052-8.23c0-2.691,0-5.072,0-7.143c0-3.657,0.034-6.607,0.104-8.852
		c0.068-2.241,0.223-4.002,0.466-5.279c0.241-1.276,0.637-2.208,1.19-2.795c0.552-0.586,1.31-1.087,2.277-1.501
		c0.828-0.345,1.742-0.466,2.744-0.362c1,0.104,1.931,0.38,2.795,0.828c0.862,0.449,1.587,1.07,2.174,1.863
		c0.585,0.794,0.88,1.674,0.88,2.64c0.138,8.282,0.138,16.496,0,24.639c-0.139,8.144-0.207,16.288-0.207,24.431
		c4.348,0,8.678-0.052,12.992-0.155c4.312-0.104,8.678-0.223,13.096-0.362L130.715,812.622z"/>
	<path style="fill:#FFFFFF;stroke:#000000;stroke-width:2;" d="M140.238,797.922c0.482-2.001,1.155-3.968,2.019-5.9
		c0.862-1.932,1.915-3.778,3.157-5.538c1.242-1.761,2.64-3.365,4.193-4.814c1.553-1.449,3.225-2.622,5.021-3.52
		c3.174-1.656,6.367-2.501,9.576-2.536c3.209-0.034,6.193,0.604,8.955,1.915c2.759,1.312,5.106,3.261,7.04,5.849
		c1.931,2.589,3.209,5.678,3.83,9.266c0.345,2.347,0.534,4.572,0.569,6.677c0.034,2.106-0.19,4.297-0.673,6.574
		c-0.69,3.245-2.088,6.47-4.192,9.68c-2.106,3.209-4.625,5.9-7.557,8.074c-2.935,2.174-6.144,3.605-9.628,4.296
		c-3.485,0.689-6.988,0.138-10.507-1.656c-1.588-0.76-3.02-1.64-4.296-2.64c-1.278-1-2.433-2.19-3.468-3.571
		c-1.174-1.518-2.088-3.105-2.743-4.762c-0.657-1.657-1.191-3.381-1.605-5.177c-0.483-1.932-0.657-3.882-0.518-5.849
		c0.138-1.967,0.378-3.883,0.725-5.746L140.238,797.922z"/>
	<path style="fill:#FFFFFF;stroke:#000000;stroke-width:2;" d="M152.661,800.096c-0.207,1.105-0.38,2.192-0.518,3.262
		c-0.139,1.07-0.139,2.157,0,3.261c0.207,1.588,0.637,3.038,1.294,4.348c0.655,1.312,1.518,2.348,2.588,3.105
		c1.069,0.761,2.293,1.157,3.675,1.19c1.38,0.036,2.863-0.396,4.452-1.294c2-1.172,3.727-2.984,5.176-5.435
		c1.45-2.449,2.346-5.003,2.692-7.66c0.344-2.656,0.068-5.177-0.828-7.558c-0.898-2.381-2.658-4.089-5.28-5.124
		c-1.726,0-3.313,0.328-4.762,0.983c-1.449,0.656-2.709,1.519-3.778,2.588c-1.071,1.07-2.002,2.329-2.795,3.778
		C153.782,796.99,153.143,798.51,152.661,800.096z"/>
	<path style="fill:#FFFFFF;stroke:#000000;stroke-width:2;" d="M224.093,775.354c1.379-0.896,2.777-1.362,4.192-1.397
		c1.414-0.034,2.656,0.259,3.727,0.88c1.069,0.621,1.828,1.553,2.277,2.795c0.448,1.242,0.396,2.728-0.155,4.451
		c-0.553,1.382-1.485,2.658-2.795,3.831c-1.312,1.174-2.45,2.243-3.416,3.209c-1.519,1.588-3.002,3.141-4.452,4.658
		c-1.449,1.519-2.898,3.071-4.348,4.658c2.138,2.485,4.209,5.021,6.211,7.609c2.001,2.588,3.898,5.264,5.693,8.022
		c0.689,1.035,1.38,2.071,2.071,3.106c0.689,1.035,1.103,2.174,1.242,3.416c0.207,1.519-0.104,2.847-0.932,3.985
		s-1.863,1.967-3.106,2.484c-1.242,0.518-2.536,0.638-3.882,0.362c-1.346-0.276-2.468-1.07-3.365-2.381
		c-2.002-2.898-3.985-5.762-5.952-8.592c-1.967-2.829-4.055-5.591-6.263-8.282c-1.588,1.933-3.106,3.899-4.555,5.9
		c-1.449,2.003-2.865,4.038-4.244,6.108c-0.484,0.76-0.932,1.519-1.346,2.277s-0.932,1.414-1.553,1.967
		c-1.242,1.242-2.64,1.967-4.192,2.174c-1.553,0.207-2.935,0-4.141-0.621c-1.208-0.621-2.088-1.57-2.64-2.847
		c-0.553-1.276-0.518-2.743,0.104-4.399c0.621-1.587,1.517-3.295,2.691-5.125c1.173-1.827,2.433-3.639,3.779-5.435
		c1.346-1.794,2.708-3.536,4.089-5.228c1.38-1.69,2.588-3.158,3.624-4.4c-0.898-0.965-1.641-1.76-2.226-2.381
		c-0.587-0.621-1.104-1.173-1.553-1.656c-0.45-0.482-0.916-0.983-1.397-1.501c-0.484-0.518-1.139-1.19-1.967-2.019
		c-0.621-0.621-1.312-1.259-2.071-1.915c-0.76-0.655-1.485-1.362-2.174-2.122c-0.691-0.759-1.33-1.554-1.915-2.382
		c-0.587-0.828-1.019-1.689-1.294-2.588c-0.346-1.242-0.311-2.396,0.104-3.468c0.414-1.069,1.051-1.967,1.915-2.691
		c0.862-0.725,1.879-1.19,3.054-1.397c1.173-0.207,2.312-0.034,3.417,0.518c0.621,0.346,1.121,0.656,1.501,0.932
		c0.378,0.276,0.811,0.656,1.294,1.139c0.414,0.483,1.087,1.156,2.019,2.019c0.932,0.864,1.949,1.829,3.054,2.898
		c1.103,1.071,2.242,2.21,3.416,3.416c1.173,1.209,2.242,2.365,3.209,3.469c2.001-2.277,4.071-4.485,6.211-6.626
		c2.138-2.138,4.312-4.278,6.521-6.418L224.093,775.354z"/>
	<path style="fill:#FFFFFF;stroke:#000000;stroke-width:2;" d="M237.343,797.922c0.482-2.001,1.155-3.968,2.019-5.9
		c0.862-1.932,1.915-3.778,3.157-5.538c1.242-1.761,2.64-3.365,4.193-4.814c1.553-1.449,3.225-2.622,5.021-3.52
		c3.174-1.656,6.367-2.501,9.576-2.536c3.209-0.034,6.193,0.604,8.955,1.915c2.759,1.312,5.106,3.261,7.04,5.849
		c1.931,2.589,3.209,5.678,3.83,9.266c0.345,2.347,0.534,4.572,0.569,6.677c0.034,2.106-0.19,4.297-0.673,6.574
		c-0.69,3.245-2.088,6.47-4.192,9.68c-2.106,3.209-4.625,5.9-7.557,8.074c-2.935,2.174-6.144,3.605-9.628,4.296
		c-3.485,0.689-6.988,0.138-10.507-1.656c-1.588-0.76-3.02-1.64-4.296-2.64c-1.278-1-2.433-2.19-3.468-3.571
		c-1.174-1.518-2.088-3.105-2.743-4.762c-0.657-1.657-1.191-3.381-1.605-5.177c-0.483-1.932-0.657-3.882-0.518-5.849
		c0.138-1.967,0.378-3.883,0.725-5.746L237.343,797.922z"/>
	<path style="fill:#FFFFFF;stroke:#000000;stroke-width:2;" d="M249.766,800.096c-0.207,1.105-0.38,2.192-0.518,3.262
		c-0.139,1.07-0.139,2.157,0,3.261c0.207,1.588,0.637,3.038,1.294,4.348c0.655,1.312,1.518,2.348,2.588,3.105
		c1.069,0.761,2.293,1.157,3.675,1.19c1.38,0.036,2.863-0.396,4.452-1.294c2-1.172,3.727-2.984,5.176-5.435
		c1.45-2.449,2.346-5.003,2.692-7.66c0.344-2.656,0.068-5.177-0.828-7.558c-0.898-2.381-2.658-4.089-5.28-5.124
		c-1.726,0-3.313,0.328-4.762,0.983c-1.449,0.656-2.709,1.519-3.778,2.588c-1.071,1.07-2.002,2.329-2.795,3.778
		C250.887,796.99,250.248,798.51,249.766,800.096z"/>
	<path style="fill:#FFFFFF;stroke:#000000;stroke-width:2;" d="M336.516,814.382c1.172,2.003,1.569,3.797,1.19,5.384
		c-0.38,1.588-1.157,2.778-2.329,3.571c-1.174,0.793-2.606,1.104-4.296,0.932c-1.692-0.173-3.331-1.053-4.917-2.64
		c-1.656,1.173-3.382,2.087-5.176,2.743c-1.795,0.655-3.693,1.225-5.694,1.708c-3.106,0.689-6.092,0.638-8.955-0.155
		c-2.865-0.794-5.401-2.088-7.609-3.882c-2.21-1.794-4.003-4.02-5.383-6.677c-1.381-2.656-2.14-5.539-2.277-8.645
		c-0.207-3.45,0.052-6.763,0.776-9.938c0.725-3.174,1.879-6.072,3.468-8.695c1.587-2.622,3.675-4.866,6.263-6.729
		s5.642-3.174,9.162-3.934c2.071-0.414,4.157-0.621,6.263-0.621c2.104,0,4.193,0.173,6.263,0.518
		c-0.069-1.518-0.122-3.261-0.155-5.228c-0.036-1.968-0.052-3.883-0.052-5.746s0.068-3.536,0.207-5.021
		c0.138-1.483,0.311-2.536,0.518-3.157c0.482-1.242,1.225-2.19,2.226-2.848c1-0.654,2.053-0.999,3.158-1.035
		c1.103-0.033,2.19,0.243,3.261,0.828c1.069,0.588,1.915,1.468,2.537,2.641c0.137,0.346,0.311,0.673,0.518,0.983
		s0.311,0.639,0.311,0.983c0.068,9.042,0.085,17.979,0.052,26.812c-0.036,8.835-0.052,17.771-0.052,26.812
		C336.066,813.761,336.309,814.107,336.516,814.382z"/>
	<path style="fill:#FFFFFF;stroke:#000000;stroke-width:2;" d="M322.126,808.688c0.137-0.207,0.396-0.414,0.776-0.621
		c0.378-0.207,0.569-0.482,0.569-0.828c0-2.898,0-5.745,0-8.541c0-2.795-0.036-5.642-0.104-8.54
		c-1.656-0.345-3.382-0.552-5.176-0.621c-1.795-0.068-3.538,0.104-5.228,0.518c-1.692,0.414-3.245,1.104-4.659,2.07
		c-1.416,0.967-2.536,2.347-3.365,4.141c-0.414,1.312-0.794,2.624-1.139,3.934c-0.346,1.312-0.535,2.589-0.569,3.831
		c-0.036,1.242,0.12,2.468,0.466,3.675c0.345,1.208,0.932,2.365,1.76,3.468c0.275,0.276,0.603,0.554,0.983,0.828
		c0.378,0.277,1.121,0.761,2.226,1.449c2.552,0.207,4.985-0.033,7.298-0.725C318.278,812.037,320.331,810.691,322.126,808.688z"/>
	<path style="fill:#FFFFFF;stroke:#000000;stroke-width:2;" d="M345.936,797.922c0.482-2.001,1.155-3.968,2.019-5.9
		c0.862-1.932,1.915-3.778,3.157-5.538c1.242-1.761,2.64-3.365,4.193-4.814c1.553-1.449,3.225-2.622,5.021-3.52
		c3.174-1.656,6.367-2.501,9.576-2.536c3.209-0.034,6.193,0.604,8.955,1.915c2.759,1.312,5.106,3.261,7.04,5.849
		c1.931,2.589,3.209,5.678,3.83,9.266c0.345,2.347,0.534,4.572,0.569,6.677c0.034,2.106-0.19,4.297-0.673,6.574
		c-0.69,3.245-2.088,6.47-4.192,9.68c-2.106,3.209-4.625,5.9-7.557,8.074c-2.935,2.174-6.144,3.605-9.628,4.296
		c-3.485,0.689-6.988,0.138-10.507-1.656c-1.588-0.76-3.02-1.64-4.296-2.64c-1.278-1-2.433-2.19-3.468-3.571
		c-1.174-1.518-2.088-3.105-2.743-4.762c-0.657-1.657-1.191-3.381-1.605-5.177c-0.483-1.932-0.657-3.882-0.518-5.849
		c0.138-1.967,0.378-3.883,0.725-5.746L345.936,797.922z"/>
	<path style="fill:#FFFFFF;stroke:#000000;stroke-width:2;" d="M358.358,800.096c-0.207,1.105-0.38,2.192-0.518,3.262
		c-0.139,1.07-0.139,2.157,0,3.261c0.207,1.588,0.637,3.038,1.294,4.348c0.655,1.312,1.518,2.348,2.588,3.105
		c1.069,0.761,2.293,1.157,3.675,1.19c1.38,0.036,2.863-0.396,4.452-1.294c2-1.172,3.727-2.984,5.176-5.435
		c1.45-2.449,2.346-5.003,2.692-7.66c0.344-2.656,0.068-5.177-0.828-7.558c-0.898-2.381-2.658-4.089-5.28-5.124
		c-1.726,0-3.313,0.328-4.762,0.983c-1.449,0.656-2.709,1.519-3.778,2.588c-1.071,1.07-2.002,2.329-2.795,3.778
		C359.479,796.99,358.84,798.51,358.358,800.096z"/>
	<path style="fill:#FFFFFF;stroke:#000000;stroke-width:2;" d="M439.104,819.973c-0.207,1.726-0.846,3.14-1.915,4.244
		c-1.071,1.104-2.277,1.794-3.624,2.07c-1.346,0.275-2.64,0.104-3.882-0.518s-2.14-1.829-2.691-3.623
		c-0.621-1.932-0.864-3.95-0.725-6.056c0.138-2.104,0.208-4.054,0.208-5.85c0-3.727,0.016-7.436,0.052-11.129
		c0.034-3.69-0.122-7.401-0.466-11.128c-0.069-0.138-0.139-0.259-0.207-0.362c-0.069-0.104-0.207-0.259-0.414-0.466
		c-1.588-0.414-3.278-0.311-5.072,0.311c-1.795,0.621-3.313,1.415-4.555,2.381c-1.105,0.897-2.192,2.122-3.261,3.675
		c-1.071,1.553-1.605,3.054-1.605,4.503v14.286c0,1.105,0.034,2.313,0.104,3.624c0.068,1.312,0.017,2.588-0.155,3.83
		c-0.173,1.242-0.569,2.381-1.19,3.416s-1.622,1.794-3.002,2.277c-0.76,0.275-1.467,0.379-2.122,0.311
		c-0.657-0.069-1.364-0.242-2.123-0.518c-1.242-0.414-2.14-1.122-2.691-2.122c-0.553-1-0.932-2.07-1.139-3.209
		s-0.294-2.242-0.259-3.312c0.034-1.069,0.052-1.916,0.052-2.537c0-1.586-0.018-3.882-0.052-6.884
		c-0.036-3.002-0.052-6.159-0.052-9.473c0-3.312,0-6.47,0-9.472c0-3.003,0-5.296,0-6.885c0-1.517,0.448-2.777,1.346-3.778
		c0.896-1,1.949-1.656,3.157-1.967c1.207-0.311,2.485-0.241,3.831,0.207c1.346,0.449,2.467,1.363,3.364,2.743
		c2.76-1.794,5.797-3.002,9.11-3.623c3.312-0.621,6.435-0.518,9.369,0.311c2.933,0.828,5.383,2.381,7.35,4.658
		s2.984,5.419,3.054,9.421c0,0.139,0.034,0.553,0.104,1.242c0.068,0.69,0.104,1.656,0.104,2.898V819.973z"/>
	<path style="fill:#FFFFFF;stroke:#000000;stroke-width:2;" d="M451.941,788.191c-1.381-0.345-2.572-0.932-3.572-1.76
		c-1.001-0.829-1.692-1.794-2.07-2.899c-0.38-1.103-0.38-2.241,0-3.416c0.378-1.173,1.225-2.242,2.536-3.209
		c1.104-0.828,2.346-1.242,3.727-1.242c1.38,0,2.726,0,4.037,0c0-0.482-0.036-1.535-0.104-3.157
		c-0.069-1.621-0.087-3.398-0.052-5.332c0.034-1.931,0.155-3.778,0.362-5.538s0.586-2.984,1.139-3.675
		c1.379-1.932,3.087-2.848,5.124-2.744c2.035,0.104,3.709,1.087,5.021,2.951c0.275,0.346,0.534,0.76,0.776,1.242
		c0.241,0.483,0.362,0.932,0.362,1.346c0.068,2.484,0.086,4.969,0.052,7.453c-0.036,2.484-0.052,4.97-0.052,7.454h8.178
		c1.242,0,2.312,0.414,3.209,1.242c0.896,0.828,1.535,1.795,1.915,2.898c0.378,1.104,0.482,2.243,0.311,3.416
		c-0.173,1.175-0.708,2.141-1.604,2.899c-1.588,1.312-3.434,2.002-5.539,2.07c-2.106,0.069-4.262,0.104-6.47,0.104
		c0,3.796-0.018,7.593-0.052,11.387c-0.036,3.797-0.018,7.593,0.052,11.388c0,1.656,0.086,3.349,0.259,5.073
		c0.171,1.726,0.052,3.382-0.362,4.969c-0.346,1.242-0.932,2.226-1.76,2.95s-1.76,1.173-2.795,1.346
		c-1.035,0.172-2.106,0.104-3.209-0.207c-1.105-0.311-2.14-0.88-3.105-1.708c-0.484-0.483-0.846-1.311-1.087-2.484
		c-0.243-1.173-0.398-2.415-0.466-3.727c-0.069-1.518-0.069-3.14,0-4.866c0-1.38,0-3.173,0-5.383c0-2.208-0.018-4.503-0.052-6.885
		c-0.036-2.381-0.052-4.641-0.052-6.78c0-2.139,0-3.83,0-5.072L451.941,788.191z"/>
	<path style="fill:#FFFFFF;stroke:#000000;stroke-width:2;" d="M526.686,818.109c0.551,2.002,0.447,3.658-0.311,4.969
		c-0.761,1.311-1.812,2.19-3.158,2.64c-1.346,0.448-2.812,0.396-4.399-0.155c-1.588-0.553-2.968-1.656-4.141-3.312
		c-1.934,1.449-3.814,2.467-5.643,3.054c-1.829,0.586-3.917,0.914-6.263,0.983c-3.52,0.138-6.661-0.259-9.421-1.19
		c-2.761-0.932-5.09-2.329-6.988-4.192c-1.899-1.863-3.296-4.192-4.192-6.988c-0.898-2.795-1.208-6.021-0.932-9.679
		c0.137-1.518,0.396-3.002,0.776-4.452c0.378-1.449,0.81-2.862,1.294-4.244c0.551-1.518,1.328-3.14,2.329-4.865
		c1-1.725,2.019-3.209,3.054-4.451c3.727-4.556,8.385-7.833,13.976-9.835c0.966-0.345,2.277-0.655,3.934-0.932
		c1.656-0.275,3.329-0.396,5.021-0.362c1.689,0.035,3.312,0.259,4.865,0.673s2.708,1.139,3.468,2.174
		c0.621,0.828,1.069,1.553,1.346,2.174c0.275,0.621,0.431,1.278,0.466,1.967c0.034,0.691,0.034,1.434,0,2.226
		c-0.035,0.795-0.052,1.778-0.052,2.951c0,1.933-0.018,3.813-0.052,5.642c-0.035,1.829-0.018,3.675,0.052,5.538
		c0,0.621,0,1.434,0,2.434c0,1.001,0.034,2.054,0.104,3.157c0.068,1.104,0.155,2.157,0.259,3.157
		c0.104,1.001,0.259,1.812,0.466,2.433L526.686,818.109z"/>
	<path style="fill:#FFFFFF;stroke:#000000;stroke-width:2;" d="M504.738,813.45c0.759-0.481,1.621-1.017,2.588-1.604
		c0.966-0.585,1.828-1.258,2.588-2.019c-0.621-3.657-0.983-7.314-1.087-10.974c-0.104-3.657-0.087-7.35,0.052-11.076
		c-3.105,0.553-5.9,1.898-8.385,4.037c-2.484,2.14-4.21,4.658-5.176,7.557c-0.414,1.175-0.76,2.382-1.035,3.624
		c-0.276,1.242-0.38,2.45-0.311,3.623c0.068,1.588,0.482,2.916,1.242,3.985c0.759,1.071,1.673,1.882,2.744,2.433
		c1.069,0.554,2.208,0.864,3.417,0.932C502.581,814.038,503.703,813.864,504.738,813.45z"/>
	<path style="fill:#FFFFFF;stroke:#000000;stroke-width:2;" d="M617.782,818.109c0.552,2.002,0.448,3.658-0.311,4.969
		c-0.76,1.311-1.812,2.19-3.157,2.64c-1.346,0.448-2.812,0.396-4.399-0.155c-1.589-0.553-2.969-1.656-4.141-3.312
		c-1.934,1.449-3.814,2.467-5.643,3.054c-1.829,0.586-3.918,0.914-6.263,0.983c-3.52,0.138-6.661-0.259-9.421-1.19
		c-2.761-0.932-5.09-2.329-6.987-4.192c-1.899-1.863-3.297-4.192-4.193-6.988c-0.897-2.795-1.208-6.021-0.932-9.679
		c0.138-1.518,0.396-3.002,0.776-4.452c0.379-1.449,0.811-2.862,1.294-4.244c0.552-1.518,1.328-3.14,2.33-4.865
		c0.999-1.725,2.019-3.209,3.054-4.451c3.727-4.556,8.385-7.833,13.976-9.835c0.966-0.345,2.277-0.655,3.934-0.932
		c1.656-0.275,3.329-0.396,5.021-0.362c1.69,0.035,3.313,0.259,4.866,0.673s2.707,1.139,3.468,2.174
		c0.621,0.828,1.069,1.553,1.346,2.174c0.275,0.621,0.431,1.278,0.466,1.967c0.034,0.691,0.034,1.434,0,2.226
		c-0.035,0.795-0.052,1.778-0.052,2.951c0,1.933-0.018,3.813-0.052,5.642c-0.035,1.829-0.018,3.675,0.052,5.538
		c0,0.621,0,1.434,0,2.434c0,1.001,0.034,2.054,0.104,3.157c0.068,1.104,0.155,2.157,0.259,3.157
		c0.104,1.001,0.259,1.812,0.466,2.433L617.782,818.109z"/>
	<path style="fill:#FFFFFF;stroke:#000000;stroke-width:2;" d="M595.836,813.45c0.759-0.481,1.621-1.017,2.588-1.604
		c0.966-0.585,1.828-1.258,2.588-2.019c-0.621-3.657-0.983-7.314-1.087-10.974c-0.104-3.657-0.087-7.35,0.052-11.076
		c-3.105,0.553-5.9,1.898-8.385,4.037c-2.485,2.14-4.211,4.658-5.177,7.557c-0.414,1.175-0.76,2.382-1.035,3.624
		c-0.276,1.242-0.38,2.45-0.311,3.623c0.068,1.588,0.482,2.916,1.242,3.985c0.759,1.071,1.673,1.882,2.743,2.433
		c1.069,0.554,2.208,0.864,3.417,0.932C593.678,814.038,594.801,813.864,595.836,813.45z"/>
	<path style="fill:#FFFFFF;stroke:#000000;stroke-width:2;" d="M640.558,823.906c-0.898,1.104-1.934,1.863-3.106,2.277
		c-1.174,0.414-2.381,0.414-3.623,0s-2.277-1.346-3.105-2.795c-0.347-0.553-0.621-1.139-0.828-1.76s-0.311-1.242-0.311-1.863
		v-27.227c-1.312,0-2.503-0.362-3.571-1.087c-1.071-0.725-1.864-1.621-2.382-2.691c-0.518-1.069-0.708-2.208-0.569-3.417
		c0.138-1.206,0.689-2.329,1.657-3.364c0.688-0.759,1.431-1.258,2.226-1.501c0.792-0.241,1.639-0.396,2.536-0.466
		c-0.069-2.139-0.121-4.244-0.155-6.314c-0.036-2.07,0.119-4.142,0.466-6.212c0.414-3.243,1.38-6.004,2.898-8.281
		c1.518-2.277,3.398-4.038,5.642-5.28c2.242-1.242,4.745-1.967,7.506-2.174c2.76-0.207,5.624,0.207,8.593,1.242
		c1.242,0.414,2.433,0.932,3.571,1.553s2.156,1.416,3.054,2.382c0.621,0.69,1.069,1.501,1.346,2.433
		c0.275,0.932,0.327,1.863,0.155,2.795c-0.173,0.932-0.518,1.795-1.035,2.588c-0.518,0.794-1.26,1.397-2.226,1.812
		c-1.312,0.554-2.606,0.69-3.882,0.414c-1.278-0.274-2.537-0.725-3.779-1.346c-0.76-0.274-1.484-0.552-2.174-0.828
		c-0.69-0.275-1.415-0.482-2.174-0.621c-0.76-0.138-1.449-0.034-2.07,0.311c-0.621,0.347-1.156,0.812-1.604,1.397
		c-0.45,0.587-0.794,1.242-1.035,1.967c-0.243,0.725-0.362,1.434-0.362,2.122c-0.07,1.589-0.088,3.193-0.052,4.814
		c0.033,1.622,0.052,3.227,0.052,4.813c1.035-0.067,2.138-0.138,3.312-0.207c1.173-0.068,2.329-0.104,3.468-0.104
		s2.19,0.035,3.157,0.104c0.966,0.069,1.725,0.207,2.278,0.414c1.103,0.414,2,1.053,2.691,1.915
		c0.688,0.864,1.139,1.796,1.346,2.795c0.207,1.002,0.119,2.02-0.259,3.055c-0.38,1.035-1.054,1.933-2.019,2.691
		c-0.898,0.69-1.934,1.174-3.106,1.449c-1.174,0.276-2.416,0.466-3.727,0.569c-1.312,0.104-2.588,0.139-3.83,0.104
		c-1.242-0.034-2.347-0.052-3.312-0.052v27.641C642.007,821.491,641.453,822.802,640.558,823.906z"/>
	<path style="fill:#FFFFFF;stroke:#000000;stroke-width:2;" d="M667.369,790.728c0.067-0.448,0.033-1.259-0.104-2.433
		c-1.105-0.621-1.968-1.414-2.589-2.381c-0.621-0.966-0.983-2.001-1.087-3.106c-0.104-1.103,0.104-2.156,0.621-3.157
		c0.518-1,1.362-1.846,2.536-2.536c1.587-0.896,3.329-1.069,5.229-0.518c1.897,0.553,3.536,1.381,4.917,2.484
		c1.725-1.311,3.52-2.415,5.384-3.312c1.863-0.896,3.761-1.501,5.693-1.812c1.932-0.311,3.898-0.259,5.9,0.155
		c2.001,0.414,3.968,1.277,5.901,2.588c0.966,0.621,1.863,1.397,2.691,2.329s1.346,1.984,1.553,3.157
		c0.345,1.727,0.207,3.228-0.414,4.504c-0.621,1.277-1.485,2.209-2.588,2.795c-1.104,0.587-2.348,0.76-3.727,0.518
		c-1.382-0.241-2.692-0.983-3.935-2.226c-0.414-0.275-0.708-0.5-0.88-0.673c-0.173-0.172-0.535-0.396-1.087-0.673
		c-1.104-0.275-2.191-0.207-3.261,0.207c-1.071,0.414-2.106,0.983-3.105,1.708c-1.002,0.725-1.934,1.519-2.795,2.381
		c-0.864,0.863-1.641,1.64-2.33,2.329v26.398c0,1.035-0.207,2.036-0.621,3.002c-0.621,1.587-1.604,2.691-2.95,3.312
		s-2.691,0.793-4.037,0.518c-1.346-0.276-2.521-0.967-3.52-2.07c-1.002-1.104-1.501-2.519-1.501-4.244v-28.986
		C667.266,791.263,667.299,791.177,667.369,790.728z"/>
	<path style="fill:#FFFFFF;stroke:#000000;stroke-width:2;" d="M710.327,760.861c0.275-2.553,1.155-4.434,2.641-5.643
		c1.482-1.206,3.054-1.793,4.71-1.76c1.656,0.036,3.191,0.673,4.606,1.915c1.414,1.243,2.156,3.003,2.226,5.28
		c0.138,2.347-0.466,4.158-1.812,5.435c-1.346,1.278-2.882,2.003-4.606,2.174c-1.726,0.174-3.349-0.292-4.865-1.397
		c-1.52-1.103-2.451-2.863-2.796-5.279L710.327,760.861z"/>
	<path style="fill:#FFFFFF;stroke:#000000;stroke-width:2;" d="M723.992,819.766c-0.139,1.381-0.621,2.605-1.449,3.675
		s-1.777,1.846-2.847,2.329c-1.071,0.482-2.226,0.586-3.468,0.311c-1.242-0.276-2.348-1.035-3.312-2.277
		c-0.554-0.69-0.95-1.466-1.191-2.329c-0.242-0.862-0.397-1.76-0.466-2.691c-0.069-0.932-0.087-1.863-0.052-2.795
		c0.034-0.933,0.052-1.776,0.052-2.537c-0.069-4.071-0.087-8.108-0.052-12.111c0.034-4.002,0.017-8.04-0.052-12.112
		c0-1.656-0.104-3.329-0.311-5.021c-0.207-1.69-0.104-3.364,0.311-5.021c0.345-1.242,0.948-2.312,1.812-3.209
		c0.861-0.896,1.827-1.518,2.898-1.863c1.069-0.345,2.174-0.379,3.312-0.104c1.139,0.276,2.122,1.001,2.95,2.174
		c1.104,1.381,1.656,2.743,1.656,4.089s0,2.986,0,4.917c0,2.348,0,4.694,0,7.04c0,2.347,0.034,4.658,0.104,6.936
		c0.068,3.313,0.104,6.626,0.104,9.938s0,6.626,0,9.938V819.766z"/>
	<path style="fill:#FFFFFF;stroke:#000000;stroke-width:2;" d="M761.364,809.724c1.725-1.104,3.364-1.587,4.918-1.449
		c1.553,0.139,2.829,0.673,3.83,1.604c0.999,0.932,1.553,2.174,1.656,3.727s-0.432,3.193-1.604,4.918
		c-0.761,1.174-1.848,2.243-3.261,3.209c-1.416,0.966-2.779,1.725-4.09,2.277c-3.037,1.38-6.107,2.001-9.213,1.863
		c-3.106-0.139-5.988-0.897-8.645-2.277c-2.657-1.38-4.953-3.295-6.884-5.745c-1.934-2.449-3.245-5.296-3.935-8.541
		c-1.381-6.211-1.104-12.18,0.828-17.909c0.759-2.07,1.673-4.071,2.744-6.005c1.068-1.931,2.363-3.69,3.882-5.279
		c1.518-1.587,3.209-2.984,5.072-4.192c1.863-1.207,3.898-2.019,6.108-2.433c1.517-0.275,3.45-0.259,5.797,0.052
		c2.346,0.311,4.641,0.915,6.885,1.812c2.241,0.897,4.208,2.07,5.9,3.52c1.69,1.449,2.64,3.175,2.847,5.176
		c0.138,1.105,0,2.123-0.414,3.055s-1.001,1.708-1.76,2.329c-0.761,0.621-1.641,1.053-2.64,1.294
		c-1.002,0.242-2.019,0.225-3.054-0.052c-1.243-0.345-2.227-0.811-2.951-1.397c-0.725-0.586-1.674-1.362-2.847-2.329
		c-0.553-0.138-1.07-0.362-1.553-0.673c-0.483-0.311-1.001-0.431-1.553-0.362l-2.795,0.311c-0.483,0.276-0.932,0.518-1.346,0.725
		s-0.828,0.414-1.242,0.621c-2.348,2.347-4.073,4.952-5.177,7.815c-1.104,2.865-1.381,5.953-0.828,9.266
		c0.345,2.14,1.018,3.899,2.019,5.279c1,1.382,2.174,2.329,3.521,2.847c1.346,0.518,2.829,0.569,4.451,0.155
		c1.621-0.414,3.226-1.346,4.813-2.795L761.364,809.724z"/>
	<path style="fill:#FFFFFF;stroke:#000000;stroke-width:2;" d="M823.063,818.109c0.552,2.002,0.448,3.658-0.311,4.969
		c-0.76,1.311-1.812,2.19-3.157,2.64c-1.346,0.448-2.812,0.396-4.399-0.155c-1.589-0.553-2.969-1.656-4.141-3.312
		c-1.934,1.449-3.814,2.467-5.643,3.054c-1.829,0.586-3.918,0.914-6.263,0.983c-3.52,0.138-6.661-0.259-9.421-1.19
		c-2.761-0.932-5.09-2.329-6.987-4.192c-1.899-1.863-3.297-4.192-4.193-6.988c-0.897-2.795-1.208-6.021-0.932-9.679
		c0.138-1.518,0.396-3.002,0.776-4.452c0.379-1.449,0.811-2.862,1.294-4.244c0.552-1.518,1.328-3.14,2.33-4.865
		c0.999-1.725,2.019-3.209,3.054-4.451c3.727-4.556,8.385-7.833,13.976-9.835c0.966-0.345,2.277-0.655,3.934-0.932
		c1.656-0.275,3.329-0.396,5.021-0.362c1.69,0.035,3.313,0.259,4.866,0.673s2.707,1.139,3.468,2.174
		c0.621,0.828,1.069,1.553,1.346,2.174c0.275,0.621,0.431,1.278,0.466,1.967c0.034,0.691,0.034,1.434,0,2.226
		c-0.035,0.795-0.052,1.778-0.052,2.951c0,1.933-0.018,3.813-0.052,5.642c-0.035,1.829-0.018,3.675,0.052,5.538
		c0,0.621,0,1.434,0,2.434c0,1.001,0.034,2.054,0.104,3.157c0.068,1.104,0.155,2.157,0.259,3.157
		c0.104,1.001,0.259,1.812,0.466,2.433L823.063,818.109z"/>
	<path style="fill:#FFFFFF;stroke:#000000;stroke-width:2;" d="M801.117,813.45c0.759-0.481,1.621-1.017,2.588-1.604
		c0.966-0.585,1.828-1.258,2.588-2.019c-0.621-3.657-0.983-7.314-1.087-10.974c-0.104-3.657-0.087-7.35,0.052-11.076
		c-3.105,0.553-5.9,1.898-8.385,4.037c-2.485,2.14-4.211,4.658-5.177,7.557c-0.414,1.175-0.76,2.382-1.035,3.624
		c-0.276,1.242-0.38,2.45-0.311,3.623c0.068,1.588,0.482,2.916,1.242,3.985c0.759,1.071,1.673,1.882,2.743,2.433
		c1.069,0.554,2.208,0.864,3.417,0.932C798.959,814.038,800.082,813.864,801.117,813.45z"/>
	<path style="fill:#FFFFFF;stroke:#000000;stroke-width:2;" d="M871.614,819.973c-0.207,1.726-0.846,3.14-1.915,4.244
		c-1.071,1.104-2.277,1.794-3.623,2.07c-1.346,0.275-2.64,0.104-3.883-0.518c-1.242-0.621-2.14-1.829-2.691-3.623
		c-0.621-1.932-0.863-3.95-0.725-6.056c0.138-2.104,0.207-4.054,0.207-5.85c0-3.727,0.017-7.436,0.052-11.129
		c0.034-3.69-0.121-7.401-0.466-11.128c-0.069-0.138-0.139-0.259-0.207-0.362c-0.069-0.104-0.207-0.259-0.414-0.466
		c-1.588-0.414-3.278-0.311-5.072,0.311c-1.796,0.621-3.312,1.415-4.555,2.381c-1.105,0.897-2.192,2.122-3.262,3.675
		c-1.07,1.553-1.604,3.054-1.604,4.503v14.286c0,1.105,0.034,2.313,0.104,3.624c0.068,1.312,0.017,2.588-0.155,3.83
		c-0.173,1.242-0.569,2.381-1.19,3.416s-1.622,1.794-3.002,2.277c-0.761,0.275-1.467,0.379-2.122,0.311
		c-0.657-0.069-1.364-0.242-2.122-0.518c-1.242-0.414-2.141-1.122-2.692-2.122c-0.553-1-0.932-2.07-1.139-3.209
		s-0.294-2.242-0.259-3.312c0.034-1.069,0.052-1.916,0.052-2.537c0-1.586-0.018-3.882-0.052-6.884
		c-0.035-3.002-0.052-6.159-0.052-9.473c0-3.312,0-6.47,0-9.472c0-3.003,0-5.296,0-6.885c0-1.517,0.448-2.777,1.346-3.778
		c0.896-1,1.949-1.656,3.158-1.967c1.206-0.311,2.484-0.241,3.83,0.207c1.346,0.449,2.467,1.363,3.364,2.743
		c2.76-1.794,5.798-3.002,9.11-3.623s6.435-0.518,9.368,0.311c2.933,0.828,5.384,2.381,7.351,4.658s2.984,5.419,3.054,9.421
		c0,0.139,0.034,0.553,0.104,1.242c0.068,0.69,0.104,1.656,0.104,2.898V819.973z"/>
	<path style="fill:#FFFFFF;stroke:#000000;stroke-width:2;" d="M925.238,818.109c0.552,2.002,0.448,3.658-0.311,4.969
		c-0.76,1.311-1.812,2.19-3.157,2.64c-1.346,0.448-2.812,0.396-4.399-0.155c-1.589-0.553-2.969-1.656-4.141-3.312
		c-1.934,1.449-3.814,2.467-5.643,3.054c-1.829,0.586-3.918,0.914-6.263,0.983c-3.52,0.138-6.661-0.259-9.421-1.19
		c-2.761-0.932-5.09-2.329-6.987-4.192c-1.899-1.863-3.297-4.192-4.193-6.988c-0.897-2.795-1.208-6.021-0.932-9.679
		c0.138-1.518,0.396-3.002,0.776-4.452c0.379-1.449,0.811-2.862,1.294-4.244c0.552-1.518,1.328-3.14,2.33-4.865
		c0.999-1.725,2.019-3.209,3.054-4.451c3.727-4.556,8.385-7.833,13.976-9.835c0.966-0.345,2.277-0.655,3.934-0.932
		c1.656-0.275,3.329-0.396,5.021-0.362c1.69,0.035,3.313,0.259,4.866,0.673s2.707,1.139,3.468,2.174
		c0.621,0.828,1.069,1.553,1.346,2.174c0.275,0.621,0.431,1.278,0.466,1.967c0.034,0.691,0.034,1.434,0,2.226
		c-0.035,0.795-0.052,1.778-0.052,2.951c0,1.933-0.018,3.813-0.052,5.642c-0.035,1.829-0.018,3.675,0.052,5.538
		c0,0.621,0,1.434,0,2.434c0,1.001,0.034,2.054,0.104,3.157c0.068,1.104,0.155,2.157,0.259,3.157
		c0.104,1.001,0.259,1.812,0.466,2.433L925.238,818.109z"/>
	<path style="fill:#FFFFFF;stroke:#000000;stroke-width:2;" d="M903.292,813.45c0.759-0.481,1.621-1.017,2.588-1.604
		c0.966-0.585,1.828-1.258,2.588-2.019c-0.621-3.657-0.983-7.314-1.087-10.974c-0.104-3.657-0.087-7.35,0.052-11.076
		c-3.105,0.553-5.9,1.898-8.385,4.037c-2.485,2.14-4.211,4.658-5.177,7.557c-0.414,1.175-0.76,2.382-1.035,3.624
		c-0.276,1.242-0.38,2.45-0.311,3.623c0.068,1.588,0.482,2.916,1.242,3.985c0.759,1.071,1.673,1.882,2.743,2.433
		c1.069,0.554,2.208,0.864,3.417,0.932C901.134,814.038,902.257,813.864,903.292,813.45z"/>
	<path style="fill:#FFFFFF;stroke:#000000;stroke-width:2;" d="M235.762,912.651c0.724,1.397,0.982,2.807,0.776,4.231
		c-0.208,1.423-1.139,2.471-2.795,3.145c-1.553,0.569-3.042,0.414-4.464-0.466c-1.424-0.881-2.706-2.071-3.843-3.571
		c-1.139-1.502-2.123-3.081-2.951-4.736c-0.829-1.657-1.45-3.003-1.863-4.037c-2.64-6.107-4.064-12.462-4.271-19.062
		c-0.207-6.6,0.647-13.03,2.562-19.294c0.466-1.604,1.087-3.118,1.863-4.542c0.776-1.423,1.553-2.859,2.329-4.31
		c0.466-0.827,1.048-1.863,1.747-3.105s1.514-2.354,2.446-3.339c0.932-0.982,1.953-1.681,3.067-2.096
		c1.112-0.414,2.316-0.233,3.61,0.543c1.242,0.776,1.914,1.696,2.019,2.757c0.103,1.062-0.091,2.148-0.583,3.261
		c-0.492,1.113-1.113,2.188-1.863,3.222c-0.751,1.036-1.358,1.916-1.825,2.641c-0.673,1.19-1.23,2.2-1.669,3.027
		c-0.44,0.829-0.803,1.527-1.087,2.097c-0.285,0.57-0.505,1.075-0.66,1.514c-0.155,0.44-0.285,0.867-0.388,1.281
		c-0.776,2.692-1.347,5.578-1.708,8.657c-0.363,3.08-0.466,6.173-0.311,9.278s0.621,6.146,1.397,9.123s1.914,5.706,3.416,8.191
		c0.259,0.466,0.595,0.943,1.009,1.436c0.414,0.491,0.789,0.932,1.126,1.32c0.336,0.388,0.608,0.698,0.815,0.932
		c0.206,0.233,0.258,0.297,0.155,0.194L235.762,912.651z"/>
	<path style="fill:#FFFFFF;stroke:#000000;stroke-width:2;" d="M272.797,903.567c0.414,1.502,0.336,2.744-0.233,3.727
		c-0.57,0.982-1.359,1.643-2.368,1.979s-2.109,0.298-3.3-0.116c-1.191-0.415-2.226-1.242-3.105-2.484
		c-1.45,1.087-2.861,1.85-4.231,2.29c-1.372,0.439-2.938,0.686-4.697,0.738c-2.64,0.103-4.996-0.194-7.065-0.894
		c-2.071-0.698-3.818-1.746-5.241-3.145c-1.424-1.397-2.472-3.145-3.144-5.24c-0.673-2.097-0.906-4.516-0.699-7.26
		c0.104-1.138,0.297-2.252,0.583-3.339c0.284-1.087,0.608-2.146,0.971-3.183c0.414-1.139,0.996-2.355,1.747-3.649
		c0.75-1.293,1.514-2.407,2.291-3.339c2.795-3.416,6.289-5.874,10.482-7.376c0.724-0.258,1.708-0.491,2.95-0.698
		s2.497-0.298,3.766-0.272c1.268,0.027,2.484,0.194,3.649,0.505c1.165,0.311,2.031,0.854,2.601,1.631
		c0.466,0.621,0.802,1.164,1.01,1.63c0.206,0.466,0.322,0.959,0.349,1.476c0.025,0.518,0.025,1.075,0,1.669
		c-0.027,0.596-0.039,1.334-0.039,2.213c0,1.45-0.014,2.86-0.039,4.231c-0.027,1.372-0.013,2.757,0.039,4.154
		c0,0.466,0,1.074,0,1.824c0,0.751,0.025,1.541,0.078,2.368c0.051,0.829,0.116,1.618,0.194,2.368
		c0.078,0.751,0.194,1.358,0.35,1.824L272.797,903.567z"/>
	<path style="fill:#FFFFFF;stroke:#000000;stroke-width:2;" d="M256.337,900.073c0.569-0.361,1.215-0.763,1.941-1.203
		c0.724-0.439,1.371-0.944,1.941-1.515c-0.466-2.742-0.737-5.485-0.815-8.229c-0.078-2.743-0.065-5.513,0.039-8.308
		c-2.329,0.415-4.425,1.424-6.289,3.027c-1.863,1.605-3.158,3.494-3.882,5.668c-0.311,0.881-0.57,1.786-0.776,2.718
		c-0.208,0.932-0.285,1.838-0.233,2.718c0.051,1.191,0.361,2.187,0.932,2.989c0.569,0.803,1.254,1.41,2.058,1.824
		c0.802,0.415,1.656,0.647,2.562,0.699C254.719,900.514,255.561,900.384,256.337,900.073z"/>
	<path style="fill:#FFFFFF;stroke:#000000;stroke-width:2;" d="M289.878,907.915c-0.673,0.827-1.45,1.397-2.329,1.708
		c-0.881,0.311-1.786,0.311-2.717,0s-1.708-1.009-2.33-2.096c-0.259-0.415-0.466-0.854-0.621-1.32s-0.233-0.932-0.233-1.397v-20.42
		c-0.984,0-1.876-0.271-2.679-0.815c-0.803-0.543-1.397-1.216-1.786-2.019c-0.388-0.802-0.531-1.656-0.427-2.562
		c0.103-0.904,0.517-1.747,1.242-2.523c0.517-0.568,1.074-0.943,1.669-1.125c0.595-0.182,1.229-0.298,1.902-0.35
		c-0.052-1.604-0.091-3.184-0.116-4.736c-0.027-1.553,0.09-3.105,0.349-4.658c0.311-2.433,1.035-4.504,2.174-6.212
		c1.138-1.708,2.549-3.027,4.231-3.96c1.681-0.932,3.558-1.475,5.629-1.63c2.07-0.155,4.218,0.155,6.444,0.932
		c0.932,0.311,1.825,0.698,2.679,1.165c0.854,0.466,1.617,1.062,2.29,1.785c0.466,0.519,0.802,1.126,1.01,1.825
		c0.206,0.698,0.245,1.397,0.116,2.096c-0.13,0.699-0.388,1.347-0.776,1.941c-0.388,0.596-0.945,1.048-1.669,1.358
		c-0.984,0.415-1.954,0.519-2.912,0.311c-0.958-0.206-1.902-0.543-2.833-1.009c-0.57-0.207-1.114-0.414-1.631-0.621
		c-0.518-0.207-1.062-0.362-1.63-0.466c-0.57-0.104-1.087-0.026-1.553,0.232c-0.466,0.26-0.868,0.609-1.204,1.048
		c-0.337,0.44-0.596,0.932-0.776,1.476c-0.182,0.543-0.271,1.075-0.271,1.592c-0.052,1.191-0.066,2.395-0.039,3.61
		c0.025,1.217,0.039,2.42,0.039,3.61c0.776-0.051,1.604-0.104,2.484-0.155c0.879-0.051,1.747-0.078,2.601-0.078
		s1.643,0.027,2.368,0.078c0.724,0.052,1.293,0.155,1.708,0.311c0.827,0.311,1.5,0.79,2.019,1.437
		c0.517,0.647,0.854,1.347,1.009,2.096c0.155,0.751,0.09,1.515-0.194,2.291c-0.285,0.776-0.79,1.449-1.514,2.019
		c-0.673,0.518-1.45,0.881-2.329,1.087c-0.881,0.207-1.812,0.35-2.795,0.427c-0.984,0.078-1.941,0.104-2.873,0.078
		c-0.932-0.025-1.76-0.039-2.484-0.039v20.73C290.965,906.104,290.55,907.087,289.878,907.915z"/>
	<path style="fill:#FFFFFF;stroke:#000000;stroke-width:2;" d="M309.986,883.031c0.051-0.336,0.025-0.944-0.078-1.825
		c-0.829-0.466-1.475-1.06-1.941-1.785c-0.466-0.725-0.737-1.501-0.815-2.33c-0.078-0.827,0.078-1.616,0.466-2.367
		c0.388-0.75,1.021-1.385,1.902-1.902c1.19-0.673,2.497-0.802,3.921-0.389c1.423,0.415,2.652,1.036,3.688,1.863
		c1.293-0.982,2.64-1.811,4.037-2.484c1.397-0.672,2.821-1.126,4.271-1.358c1.448-0.233,2.924-0.194,4.425,0.116
		c1.501,0.311,2.976,0.958,4.426,1.941c0.724,0.466,1.397,1.048,2.019,1.747c0.621,0.698,1.009,1.488,1.165,2.367
		c0.258,1.295,0.155,2.421-0.311,3.378c-0.466,0.958-1.113,1.657-1.941,2.097c-0.829,0.44-1.76,0.569-2.795,0.388
		c-1.036-0.181-2.019-0.737-2.951-1.669c-0.311-0.206-0.531-0.375-0.66-0.505c-0.13-0.129-0.402-0.297-0.815-0.505
		c-0.829-0.206-1.644-0.155-2.446,0.155c-0.803,0.311-1.579,0.737-2.329,1.281c-0.751,0.544-1.45,1.139-2.096,1.786
		c-0.648,0.647-1.23,1.229-1.747,1.746v19.799c0,0.776-0.155,1.527-0.466,2.252c-0.466,1.19-1.204,2.019-2.213,2.484
		s-2.019,0.595-3.028,0.389c-1.009-0.208-1.89-0.726-2.64-1.553c-0.751-0.829-1.125-1.89-1.125-3.184v-21.74
		C309.909,883.433,309.934,883.368,309.986,883.031z"/>
	<path style="fill:#FFFFFF;stroke:#000000;stroke-width:2;" d="M342.206,860.631c0.206-1.914,0.866-3.325,1.979-4.231
		c1.113-0.904,2.291-1.345,3.533-1.319c1.242,0.026,2.394,0.505,3.455,1.437c1.061,0.932,1.617,2.251,1.669,3.959
		c0.103,1.761-0.35,3.119-1.359,4.076c-1.009,0.959-2.162,1.502-3.455,1.631c-1.294,0.13-2.511-0.22-3.649-1.048
		c-1.139-0.828-1.838-2.147-2.096-3.96L342.206,860.631z"/>
	<path style="fill:#FFFFFF;stroke:#000000;stroke-width:2;" d="M352.455,904.81c-0.104,1.036-0.466,1.954-1.087,2.756
		s-1.333,1.385-2.135,1.747c-0.803,0.361-1.669,0.439-2.601,0.233c-0.932-0.208-1.76-0.776-2.484-1.708
		c-0.415-0.519-0.712-1.1-0.893-1.747c-0.182-0.646-0.298-1.32-0.349-2.019c-0.052-0.699-0.066-1.398-0.039-2.097
		c0.025-0.699,0.039-1.332,0.039-1.902c-0.052-3.054-0.066-6.081-0.039-9.084c0.025-3.001,0.012-6.029-0.039-9.084
		c0-1.242-0.078-2.497-0.233-3.766c-0.155-1.268-0.078-2.523,0.233-3.766c0.258-0.932,0.711-1.733,1.358-2.407
		c0.647-0.672,1.371-1.138,2.174-1.397c0.802-0.259,1.63-0.284,2.484-0.077s1.592,0.75,2.213,1.63
		c0.827,1.036,1.242,2.058,1.242,3.067c0,1.009,0,2.239,0,3.688c0,1.761,0,3.521,0,5.279c0,1.761,0.025,3.494,0.078,5.202
		c0.051,2.484,0.078,4.97,0.078,7.454s0,4.969,0,7.453V904.81z"/>
	<path style="fill:#FFFFFF;stroke:#000000;stroke-width:2;" d="M380.484,897.278c1.293-0.827,2.523-1.19,3.688-1.087
		c1.165,0.104,2.122,0.505,2.873,1.203c0.75,0.699,1.165,1.631,1.242,2.795c0.078,1.165-0.324,2.396-1.204,3.688
		c-0.57,0.881-1.385,1.683-2.446,2.406c-1.062,0.725-2.084,1.294-3.067,1.709c-2.278,1.034-4.581,1.5-6.91,1.397
		c-2.33-0.104-4.491-0.674-6.483-1.708c-1.993-1.035-3.714-2.472-5.163-4.31c-1.45-1.837-2.434-3.972-2.95-6.405
		c-1.036-4.658-0.829-9.135,0.621-13.433c0.569-1.553,1.254-3.053,2.057-4.503c0.802-1.448,1.772-2.769,2.912-3.96
		c1.138-1.189,2.407-2.238,3.805-3.145c1.397-0.904,2.924-1.514,4.581-1.824c1.138-0.206,2.588-0.194,4.348,0.039
		c1.759,0.232,3.48,0.687,5.163,1.358c1.682,0.674,3.157,1.553,4.426,2.64c1.268,1.087,1.98,2.382,2.135,3.883
		c0.103,0.828,0,1.591-0.311,2.29c-0.311,0.698-0.751,1.281-1.32,1.747c-0.57,0.466-1.23,0.79-1.979,0.971
		c-0.751,0.182-1.514,0.168-2.291-0.039c-0.932-0.259-1.669-0.608-2.213-1.048s-1.255-1.021-2.135-1.747
		c-0.415-0.104-0.803-0.272-1.165-0.505c-0.363-0.233-0.751-0.323-1.165-0.271l-2.096,0.232c-0.363,0.208-0.699,0.389-1.009,0.544
		c-0.311,0.155-0.622,0.311-0.932,0.466c-1.76,1.76-3.055,3.715-3.882,5.861c-0.829,2.148-1.036,4.465-0.621,6.949
		c0.258,1.605,0.763,2.925,1.514,3.96c0.75,1.036,1.631,1.747,2.64,2.135c1.009,0.389,2.122,0.428,3.338,0.117
		c1.216-0.312,2.419-1.01,3.61-2.097L380.484,897.278z"/>
	<path style="fill:#FFFFFF;stroke:#000000;stroke-width:2;" d="M426.758,903.567c0.414,1.502,0.336,2.744-0.233,3.727
		c-0.57,0.982-1.359,1.643-2.368,1.979s-2.109,0.298-3.3-0.116c-1.191-0.415-2.226-1.242-3.105-2.484
		c-1.45,1.087-2.861,1.85-4.231,2.29c-1.372,0.439-2.938,0.686-4.697,0.738c-2.64,0.103-4.996-0.194-7.065-0.894
		c-2.071-0.698-3.818-1.746-5.241-3.145c-1.424-1.397-2.472-3.145-3.144-5.24c-0.673-2.097-0.906-4.516-0.699-7.26
		c0.104-1.138,0.297-2.252,0.583-3.339c0.284-1.087,0.608-2.146,0.971-3.183c0.414-1.139,0.996-2.355,1.747-3.649
		c0.75-1.293,1.514-2.407,2.291-3.339c2.795-3.416,6.289-5.874,10.482-7.376c0.724-0.258,1.708-0.491,2.95-0.698
		s2.497-0.298,3.766-0.272c1.268,0.027,2.484,0.194,3.649,0.505c1.165,0.311,2.031,0.854,2.601,1.631
		c0.466,0.621,0.802,1.164,1.01,1.63c0.206,0.466,0.322,0.959,0.349,1.476c0.025,0.518,0.025,1.075,0,1.669
		c-0.027,0.596-0.039,1.334-0.039,2.213c0,1.45-0.014,2.86-0.039,4.231c-0.027,1.372-0.013,2.757,0.039,4.154
		c0,0.466,0,1.074,0,1.824c0,0.751,0.025,1.541,0.078,2.368c0.051,0.829,0.116,1.618,0.194,2.368
		c0.078,0.751,0.194,1.358,0.35,1.824L426.758,903.567z"/>
	<path style="fill:#FFFFFF;stroke:#000000;stroke-width:2;" d="M410.298,900.073c0.569-0.361,1.215-0.763,1.941-1.203
		c0.724-0.439,1.371-0.944,1.941-1.515c-0.466-2.742-0.737-5.485-0.815-8.229c-0.078-2.743-0.065-5.513,0.039-8.308
		c-2.329,0.415-4.425,1.424-6.289,3.027c-1.863,1.605-3.158,3.494-3.882,5.668c-0.311,0.881-0.57,1.786-0.776,2.718
		c-0.208,0.932-0.285,1.838-0.233,2.718c0.051,1.191,0.361,2.187,0.932,2.989c0.569,0.803,1.254,1.41,2.058,1.824
		c0.802,0.415,1.656,0.647,2.562,0.699C408.679,900.514,409.521,900.384,410.298,900.073z"/>
	<path style="fill:#FFFFFF;stroke:#000000;stroke-width:2;" d="M463.171,904.965c-0.155,1.294-0.635,2.354-1.437,3.184
		c-0.803,0.827-1.708,1.345-2.717,1.553c-1.01,0.206-1.98,0.077-2.912-0.389s-1.605-1.372-2.019-2.718
		c-0.466-1.448-0.647-2.962-0.543-4.542c0.104-1.578,0.155-3.04,0.155-4.387c0-2.795,0.012-5.576,0.039-8.346
		c0.025-2.769-0.091-5.552-0.35-8.347c-0.052-0.104-0.104-0.194-0.155-0.272c-0.052-0.077-0.155-0.193-0.311-0.349
		c-1.191-0.311-2.459-0.233-3.804,0.232c-1.347,0.466-2.485,1.062-3.417,1.786c-0.829,0.673-1.644,1.592-2.446,2.756
		c-0.803,1.165-1.203,2.291-1.203,3.378v10.714c0,0.829,0.025,1.735,0.078,2.718c0.051,0.984,0.012,1.941-0.117,2.873
		c-0.13,0.932-0.427,1.785-0.893,2.562c-0.466,0.776-1.217,1.345-2.252,1.708c-0.57,0.206-1.1,0.283-1.591,0.232
		c-0.493-0.052-1.023-0.182-1.592-0.388c-0.932-0.311-1.605-0.843-2.019-1.592c-0.415-0.75-0.699-1.553-0.854-2.407
		c-0.155-0.854-0.221-1.682-0.194-2.484c0.025-0.802,0.039-1.437,0.039-1.902c0-1.19-0.014-2.911-0.039-5.163
		c-0.027-2.252-0.039-4.62-0.039-7.104s0-4.853,0-7.104c0-2.251,0-3.972,0-5.163c0-1.138,0.336-2.083,1.009-2.834
		c0.672-0.749,1.462-1.242,2.368-1.475c0.905-0.233,1.864-0.181,2.873,0.155c1.009,0.337,1.85,1.022,2.523,2.058
		c2.069-1.346,4.348-2.252,6.833-2.718c2.484-0.466,4.826-0.388,7.026,0.233c2.2,0.621,4.038,1.785,5.513,3.493
		s2.238,4.064,2.291,7.065c0,0.104,0.025,0.415,0.078,0.932c0.051,0.519,0.078,1.242,0.078,2.175V904.965z"/>
	<path style="fill:#FFFFFF;stroke:#000000;stroke-width:2;" d="M526.759,896.579c1.242-0.311,2.341-0.322,3.3-0.038
		c0.957,0.284,1.694,0.764,2.213,1.436c0.517,0.674,0.749,1.502,0.698,2.485c-0.052,0.983-0.492,2.019-1.319,3.105
		c-0.674,0.881-1.605,1.63-2.795,2.251c-1.191,0.621-2.305,1.114-3.339,1.476c-2.537,0.932-4.943,1.578-7.221,1.941
		c-2.278,0.361-4.414,0.361-6.405,0c-1.993-0.363-3.857-1.114-5.591-2.252c-1.734-1.138-3.352-2.743-4.853-4.813
		c-1.036-1.397-1.799-2.989-2.291-4.775c-0.493-1.786-0.764-3.61-0.815-5.474c-0.052-1.863,0.104-3.7,0.466-5.513
		c0.362-1.812,0.88-3.441,1.553-4.892c0.88-1.811,2.277-3.467,4.192-4.969c1.915-1.501,4.038-2.69,6.367-3.571
		c2.329-0.88,4.709-1.385,7.143-1.515c2.433-0.128,4.581,0.247,6.444,1.126c1.553,0.726,2.885,1.773,3.999,3.145
		c1.112,1.372,1.875,2.86,2.29,4.465c0.414,1.604,0.453,3.222,0.116,4.853c-0.337,1.63-1.178,3.119-2.522,4.464
		c-1.295,1.295-2.718,2.343-4.271,3.145c-1.553,0.804-3.158,1.502-4.814,2.097c-1.657,0.596-3.352,1.101-5.085,1.514
		c-1.735,0.415-3.404,0.881-5.008,1.397c1.087,1.242,2.329,2.032,3.727,2.368c1.397,0.338,2.859,0.401,4.387,0.194
		c1.526-0.206,3.066-0.633,4.62-1.281c1.553-0.646,3.001-1.358,4.348-2.135L526.759,896.579z"/>
	<path style="fill:#FFFFFF;stroke:#000000;stroke-width:2;" d="M511.075,883.225c-1.191,0.674-2.071,1.515-2.64,2.523
		c-0.57,1.01-0.984,2.421-1.242,4.231c1.345-0.413,2.859-0.854,4.542-1.319c1.681-0.466,3.272-0.957,4.774-1.476
		c1.501-0.517,2.769-1.087,3.805-1.708c1.035-0.621,1.553-1.293,1.553-2.019c0-0.414-0.065-0.815-0.194-1.203
		c-0.13-0.389-0.401-0.66-0.815-0.815c-1.449-0.517-2.95-0.621-4.503-0.311s-2.847,0.751-3.882,1.319L511.075,883.225z"/>
	<path style="fill:#FFFFFF;stroke:#000000;stroke-width:2;" d="M548.731,902.17c0.568,0.518,1.048,1.178,1.436,1.979
		c0.389,0.803,0.595,1.605,0.621,2.407c0.025,0.802-0.155,1.553-0.543,2.251c-0.389,0.699-1.075,1.229-2.058,1.592
		c-0.776,0.259-1.631,0.311-2.562,0.155s-1.851-0.466-2.756-0.932c-0.906-0.466-1.708-1.022-2.407-1.669
		c-0.698-0.648-1.203-1.359-1.514-2.136c-0.104-0.258-0.182-0.556-0.232-0.893c-0.053-0.336-0.078-0.633-0.078-0.893v-43.092
		c0-1.189,0.452-2.199,1.358-3.027c0.905-0.828,1.902-1.32,2.989-1.476c0.517-0.051,1.074,0.026,1.669,0.233s1.151,0.504,1.67,0.893
		c0.517,0.388,0.943,0.842,1.281,1.358c0.336,0.519,0.504,1.062,0.504,1.631c0,1.347,0,3.132,0,5.357s0.013,4.658,0.039,7.298
		c0.025,2.64,0.039,5.371,0.039,8.191c0,2.822-0.014,5.526-0.039,8.113c-0.026,2.589-0.039,4.957-0.039,7.104
		c0,2.148-0.026,3.87-0.077,5.163L548.731,902.17z"/>
	<path style="fill:#FFFFFF;stroke:#000000;stroke-width:2;" d="M584.059,896.579c1.242-0.311,2.342-0.322,3.3-0.038
		c0.957,0.284,1.695,0.764,2.213,1.436c0.517,0.674,0.75,1.502,0.699,2.485c-0.053,0.983-0.493,2.019-1.32,3.105
		c-0.673,0.881-1.605,1.63-2.795,2.251c-1.191,0.621-2.304,1.114-3.339,1.476c-2.537,0.932-4.943,1.578-7.221,1.941
		c-2.278,0.361-4.413,0.361-6.405,0c-1.993-0.363-3.856-1.114-5.59-2.252c-1.735-1.138-3.353-2.743-4.854-4.813
		c-1.035-1.397-1.799-2.989-2.29-4.775c-0.492-1.786-0.765-3.61-0.815-5.474c-0.052-1.863,0.104-3.7,0.466-5.513
		c0.361-1.812,0.88-3.441,1.553-4.892c0.88-1.811,2.277-3.467,4.193-4.969c1.914-1.501,4.037-2.69,6.366-3.571
		c2.329-0.88,4.71-1.385,7.144-1.515c2.432-0.128,4.58,0.247,6.443,1.126c1.554,0.726,2.886,1.773,3.999,3.145
		c1.112,1.372,1.876,2.86,2.29,4.465s0.453,3.222,0.117,4.853c-0.338,1.63-1.179,3.119-2.523,4.464
		c-1.295,1.295-2.718,2.343-4.271,3.145c-1.553,0.804-3.158,1.502-4.813,2.097c-1.657,0.596-3.353,1.101-5.086,1.514
		c-1.734,0.415-3.404,0.881-5.008,1.397c1.087,1.242,2.329,2.032,3.727,2.368c1.397,0.338,2.859,0.401,4.387,0.194
		c1.526-0.206,3.067-0.633,4.62-1.281c1.553-0.646,3.001-1.358,4.348-2.135L584.059,896.579z"/>
	<path style="fill:#FFFFFF;stroke:#000000;stroke-width:2;" d="M568.375,883.225c-1.191,0.674-2.07,1.515-2.64,2.523
		c-0.57,1.01-0.984,2.421-1.242,4.231c1.345-0.413,2.859-0.854,4.542-1.319c1.682-0.466,3.273-0.957,4.774-1.476
		c1.501-0.517,2.769-1.087,3.805-1.708c1.035-0.621,1.553-1.293,1.553-2.019c0-0.414-0.065-0.815-0.193-1.203
		c-0.13-0.389-0.402-0.66-0.815-0.815c-1.45-0.517-2.95-0.621-4.504-0.311c-1.553,0.311-2.847,0.751-3.882,1.319L568.375,883.225z"
		/>
	<path style="fill:#FFFFFF;stroke:#000000;stroke-width:2;" d="M596.326,875.072c0.361-1.242,0.943-2.186,1.747-2.834
		c0.802-0.646,1.655-1.021,2.562-1.125c0.905-0.104,1.772,0.052,2.602,0.466c0.827,0.414,1.475,1.062,1.94,1.94
		c0.569-0.311,1.139-0.594,1.708-0.854c0.569-0.259,1.216-0.491,1.941-0.699c3.312-0.88,6.25-0.815,8.812,0.194
		c2.562,1.009,4.697,2.562,6.405,4.658c1.708,2.097,2.924,4.556,3.649,7.376c0.725,2.822,0.893,5.643,0.505,8.463
		c-0.389,2.822-1.386,5.462-2.989,7.92c-1.605,2.459-3.909,4.361-6.91,5.706c-1.968,0.88-4.025,1.437-6.173,1.67
		c-2.148,0.232-4.283,0.271-6.405,0.116c0,0.051,0.012,0.466,0.039,1.242c0.025,0.776,0.038,1.759,0.038,2.95
		c0,1.19,0,2.485,0,3.883s-0.038,2.742-0.116,4.037c-0.077,1.293-0.182,2.445-0.311,3.455c-0.13,1.009-0.324,1.694-0.582,2.058
		c-0.674,0.982-1.502,1.604-2.484,1.863c-0.984,0.259-1.916,0.22-2.796-0.116c-0.88-0.338-1.644-0.906-2.29-1.708
		c-0.647-0.804-0.971-1.774-0.971-2.912v-47.284L596.326,875.072z"/>
	<path style="fill:#FFFFFF;stroke:#000000;stroke-width:2;" d="M606.264,885.166c-0.155,0.26-0.232,0.376-0.232,0.35
		c0-0.025-0.104,0.065-0.311,0.271v12.811c1.035,0.155,2.069,0.233,3.105,0.233c1.035,0,2.122-0.155,3.261-0.466
		c2.33-0.569,4.166-1.695,5.513-3.378c1.346-1.681,1.863-3.766,1.553-6.25c-0.155-1.034-0.453-2.108-0.893-3.222
		c-0.44-1.112-1.022-2.058-1.747-2.834c-0.726-0.776-1.579-1.32-2.562-1.631s-2.096-0.206-3.338,0.311
		c-0.881,0.363-1.67,0.906-2.368,1.631C607.545,883.718,606.885,884.441,606.264,885.166z"/>
	<path style="fill:#FFFFFF;stroke:#000000;stroke-width:2;" d="M642.521,908.575c-1.036,0.75-2.11,1.099-3.223,1.048
		c-1.113-0.052-2.096-0.505-2.95-1.358c-0.854-0.854-1.281-2.031-1.281-3.533v-43.169c0-1.189,0.466-2.199,1.397-3.027
		s1.967-1.346,3.106-1.553c1.138-0.207,2.199-0.025,3.183,0.543c0.983,0.57,1.526,1.631,1.631,3.184
		c0.206,2.691,0.297,5.318,0.271,7.881c-0.026,2.562-0.065,5.138-0.116,7.725c1.914-1.293,3.907-2.16,5.979-2.601
		c2.069-0.439,4.062-0.427,5.979,0.039c1.914,0.466,3.7,1.397,5.357,2.795c1.655,1.397,3.001,3.339,4.037,5.823
		c0.725,1.657,1.216,3.43,1.475,5.318c0.259,1.89,0.4,3.805,0.428,5.745c0.025,1.941,0,3.87-0.078,5.784
		c-0.077,1.916-0.116,3.728-0.116,5.436c0,1.087-0.285,2.07-0.854,2.95s-1.28,1.526-2.135,1.941
		c-0.854,0.413-1.76,0.543-2.718,0.388s-1.824-0.726-2.601-1.708c-0.776-1.036-1.256-2.252-1.437-3.649
		c-0.182-1.397-0.232-2.885-0.155-4.464c0.078-1.578,0.194-3.195,0.35-4.853c0.155-1.656,0.194-3.248,0.116-4.775
		c-0.077-1.526-0.376-2.937-0.893-4.231c-0.519-1.293-1.425-2.354-2.718-3.184c-1.036-0.155-1.968-0.09-2.795,0.194
		c-0.829,0.285-1.58,0.712-2.252,1.281c-0.673,0.57-1.308,1.217-1.902,1.941c-0.596,0.725-1.203,1.449-1.824,2.174
		c-0.155,0.26-0.337,0.505-0.544,0.737c-0.207,0.233-0.439,0.479-0.698,0.737v14.752
		C644.229,906.595,643.556,907.824,642.521,908.575z"/>
	<path style="fill:#FFFFFF;stroke:#000000;stroke-width:2;" d="M707.896,903.567c0.413,1.502,0.336,2.744-0.233,3.727
		c-0.57,0.982-1.358,1.643-2.368,1.979c-1.009,0.337-2.109,0.298-3.3-0.116c-1.191-0.415-2.226-1.242-3.105-2.484
		c-1.45,1.087-2.86,1.85-4.231,2.29c-1.372,0.439-2.938,0.686-4.697,0.738c-2.64,0.103-4.996-0.194-7.065-0.894
		c-2.071-0.698-3.818-1.746-5.241-3.145c-1.424-1.397-2.473-3.145-3.145-5.24c-0.673-2.097-0.906-4.516-0.698-7.26
		c0.103-1.138,0.297-2.252,0.582-3.339c0.284-1.087,0.607-2.146,0.971-3.183c0.413-1.139,0.996-2.355,1.747-3.649
		c0.749-1.293,1.514-2.407,2.29-3.339c2.795-3.416,6.289-5.874,10.481-7.376c0.725-0.258,1.708-0.491,2.951-0.698
		c1.242-0.207,2.496-0.298,3.766-0.272c1.268,0.027,2.484,0.194,3.648,0.505c1.165,0.311,2.031,0.854,2.602,1.631
		c0.466,0.621,0.802,1.164,1.009,1.63c0.206,0.466,0.323,0.959,0.35,1.476c0.025,0.518,0.025,1.075,0,1.669
		c-0.026,0.596-0.039,1.334-0.039,2.213c0,1.45-0.013,2.86-0.038,4.231c-0.027,1.372-0.014,2.757,0.038,4.154
		c0,0.466,0,1.074,0,1.824c0,0.751,0.025,1.541,0.078,2.368c0.051,0.829,0.116,1.618,0.194,2.368
		c0.077,0.751,0.193,1.358,0.349,1.824L707.896,903.567z"/>
	<path style="fill:#FFFFFF;stroke:#000000;stroke-width:2;" d="M691.435,900.073c0.569-0.361,1.216-0.763,1.941-1.203
		c0.725-0.439,1.371-0.944,1.941-1.515c-0.466-2.742-0.738-5.485-0.815-8.229c-0.078-2.743-0.065-5.513,0.039-8.308
		c-2.33,0.415-4.426,1.424-6.289,3.027c-1.863,1.605-3.158,3.494-3.883,5.668c-0.311,0.881-0.569,1.786-0.776,2.718
		s-0.285,1.838-0.232,2.718c0.051,1.191,0.361,2.187,0.932,2.989c0.569,0.803,1.254,1.41,2.058,1.824
		c0.802,0.415,1.656,0.647,2.562,0.699S690.658,900.384,691.435,900.073z"/>
	<path style="fill:#FFFFFF;stroke:#000000;stroke-width:2;" d="M744.309,904.965c-0.155,1.294-0.634,2.354-1.437,3.184
		c-0.803,0.827-1.708,1.345-2.717,1.553c-1.01,0.206-1.98,0.077-2.912-0.389s-1.604-1.372-2.019-2.718
		c-0.466-1.448-0.647-2.962-0.543-4.542c0.103-1.578,0.155-3.04,0.155-4.387c0-2.795,0.012-5.576,0.038-8.346
		c0.026-2.769-0.091-5.552-0.349-8.347c-0.053-0.104-0.104-0.194-0.155-0.272c-0.053-0.077-0.155-0.193-0.311-0.349
		c-1.191-0.311-2.459-0.233-3.805,0.232c-1.347,0.466-2.484,1.062-3.416,1.786c-0.829,0.673-1.645,1.592-2.446,2.756
		c-0.803,1.165-1.203,2.291-1.203,3.378v10.714c0,0.829,0.025,1.735,0.077,2.718c0.052,0.984,0.013,1.941-0.116,2.873
		c-0.13,0.932-0.427,1.785-0.893,2.562c-0.466,0.776-1.217,1.345-2.252,1.708c-0.57,0.206-1.101,0.283-1.592,0.232
		c-0.492-0.052-1.022-0.182-1.592-0.388c-0.932-0.311-1.604-0.843-2.019-1.592c-0.415-0.75-0.698-1.553-0.854-2.407
		c-0.155-0.854-0.221-1.682-0.194-2.484c0.025-0.802,0.039-1.437,0.039-1.902c0-1.19-0.014-2.911-0.039-5.163
		c-0.026-2.252-0.039-4.62-0.039-7.104s0-4.853,0-7.104c0-2.251,0-3.972,0-5.163c0-1.138,0.336-2.083,1.01-2.834
		c0.672-0.749,1.462-1.242,2.368-1.475c0.904-0.233,1.863-0.181,2.872,0.155c1.01,0.337,1.851,1.022,2.523,2.058
		c2.07-1.346,4.349-2.252,6.833-2.718s4.826-0.388,7.026,0.233c2.199,0.621,4.037,1.785,5.513,3.493s2.238,4.064,2.29,7.065
		c0,0.104,0.025,0.415,0.078,0.932c0.051,0.519,0.077,1.242,0.077,2.175V904.965z"/>
	<path style="fill:#FFFFFF;stroke:#000000;stroke-width:2;" d="M753.937,881.129c-1.036-0.259-1.93-0.699-2.679-1.32
		c-0.751-0.621-1.27-1.346-1.553-2.174c-0.285-0.827-0.285-1.682,0-2.562c0.283-0.879,0.918-1.681,1.901-2.406
		c0.828-0.621,1.76-0.932,2.796-0.932c1.034,0,2.044,0,3.027,0c0-0.362-0.026-1.151-0.077-2.368
		c-0.053-1.216-0.065-2.549-0.039-3.999c0.025-1.448,0.116-2.834,0.271-4.153c0.155-1.32,0.439-2.238,0.854-2.757
		c1.035-1.448,2.315-2.135,3.843-2.058c1.526,0.078,2.782,0.815,3.766,2.213c0.207,0.26,0.4,0.57,0.583,0.932
		c0.181,0.363,0.271,0.699,0.271,1.01c0.051,1.863,0.064,3.727,0.039,5.59c-0.027,1.863-0.039,3.727-0.039,5.591h6.134
		c0.932,0,1.733,0.311,2.407,0.932c0.672,0.621,1.151,1.347,1.436,2.174c0.284,0.828,0.362,1.683,0.233,2.562
		c-0.13,0.881-0.531,1.605-1.203,2.175c-1.191,0.983-2.576,1.502-4.154,1.553c-1.579,0.052-3.196,0.077-4.853,0.077
		c0,2.848-0.014,5.694-0.039,8.541c-0.026,2.847-0.013,5.694,0.039,8.54c0,1.242,0.064,2.512,0.194,3.805
		c0.128,1.295,0.039,2.537-0.271,3.727c-0.26,0.932-0.699,1.67-1.32,2.213c-0.621,0.544-1.32,0.88-2.097,1.01
		c-0.776,0.129-1.579,0.077-2.406-0.155c-0.829-0.233-1.605-0.66-2.33-1.281c-0.362-0.362-0.634-0.982-0.814-1.863
		c-0.183-0.88-0.299-1.812-0.35-2.795c-0.053-1.139-0.053-2.355,0-3.649c0-1.035,0-2.38,0-4.037c0-1.656-0.014-3.378-0.039-5.163
		c-0.026-1.786-0.039-3.48-0.039-5.086c0-1.604,0-2.873,0-3.805L753.937,881.129z"/>
	<path style="fill:#FFFFFF;stroke:#000000;stroke-width:2;" d="M780.257,911.642c0.414-0.415,0.789-0.789,1.126-1.126
		c0.336-0.337,0.672-0.673,1.01-1.009c0.336-0.337,0.66-0.712,0.971-1.126c0.311-0.415,0.646-0.906,1.009-1.476
		c1.501-2.432,2.64-5.201,3.416-8.308c0.776-3.105,1.242-6.301,1.397-9.588s0.026-6.522-0.388-9.706
		c-0.415-3.183-1.114-6.095-2.097-8.734c-0.673-1.812-1.514-3.52-2.523-5.124c-1.009-1.604-2.031-3.184-3.066-4.736
		c-0.466-0.672-0.92-1.332-1.358-1.98c-0.44-0.646-0.688-1.409-0.738-2.29c-0.052-1.346,0.272-2.458,0.971-3.339
		c0.699-0.879,1.539-1.437,2.523-1.669c0.982-0.233,1.992-0.142,3.028,0.271c1.034,0.415,1.863,1.217,2.484,2.407
		c1.138,1.604,2.225,3.235,3.261,4.892c1.035,1.657,1.992,3.338,2.873,5.047c1.448,2.795,2.549,5.822,3.3,9.084
		c0.749,3.261,1.189,6.6,1.319,10.016c0.129,3.416-0.038,6.794-0.504,10.132c-0.466,3.339-1.165,6.458-2.097,9.356
		c-0.829,2.484-1.824,4.98-2.989,7.492c-1.165,2.51-2.653,4.723-4.465,6.639c-0.776,0.827-1.657,1.604-2.64,2.329
		c-0.983,0.724-2.07,1.087-3.261,1.087c-1.087,0-1.979-0.233-2.679-0.699c-0.698-0.466-1.191-1.062-1.476-1.785
		c-0.284-0.726-0.376-1.515-0.271-2.368c0.104-0.854,0.361-1.696,0.776-2.523L780.257,911.642z"/>
	<path style="fill:#FFFFFF;stroke:#000000;stroke-width:2;" d="M325.225,396.015c8.469,4.058,14.917,9.211,19.337,15.47
		c4.42,6.267,6.535,12.621,6.354,19.061c-0.19,6.448-2.581,12.526-7.182,18.232c-4.61,5.706-11.697,10.031-21.271,12.983
		c-3.686,1.105-8.839,1.744-15.469,1.934c-6.63,0.181-15.841,0.276-27.625,0.276c-11.792,0-26.709,0-44.751,0
		c-18.051,0-40.332,0.181-66.851,0.552c-6.63,0.363-13.45,0.553-20.442,0.553c-7.001,0-13.079-2.4-18.232-7.183
		c-4.42-3.686-7.648-9.297-9.668-16.851c-2.028-7.545-3.315-15.47-3.867-23.757c-0.553-8.288-0.743-16.575-0.553-24.862
		c0.182-8.288,0.276-15.193,0.276-20.718c0-11.05,0.086-23.757,0.276-38.122c0.181-14.365,0.362-29.006,0.552-43.923
		c0.182-14.917,0.276-29.558,0.276-43.922c0-14.365,0-27.072,0-38.122c0-19.519,0.181-35.264,0.553-47.238
		c0.362-11.965,1.191-21.357,2.486-28.177c1.287-6.811,3.401-11.784,6.354-14.917c2.944-3.125,6.993-5.801,12.155-8.011
		c4.42-1.839,9.297-2.486,14.641-1.934c5.335,0.552,10.307,2.029,14.917,4.42c4.601,2.4,8.469,5.715,11.602,9.945
		c3.125,4.238,4.696,8.935,4.696,14.088c0.734,44.199,0.734,88.035,0,131.492c-0.742,43.465-1.105,86.93-1.105,130.387
		c23.205,0,46.314-0.276,69.337-0.829c23.015-0.553,46.314-1.191,69.89-1.934L325.225,396.015z"/>
</g>
</svg>
