<?xml version="1.0" encoding="utf-8"?>
<!-- Generator: Adobe Illustrator 16.0.0, SVG Export Plug-In . SVG Version: 6.00 Build 0)  -->
<!DOCTYPE svg PUBLIC "-//W3C//DTD SVG 1.1//EN" "http://www.w3.org/Graphics/SVG/1.1/DTD/svg11.dtd">
<svg version="1.1" id="Layer_1" xmlns="http://www.w3.org/2000/svg" xmlns:xlink="http://www.w3.org/1999/xlink" x="0px" y="0px"
	 width="100%" height="100%" viewBox="0 0 600 600" enable-background="new 0 0 600 600" xml:space="preserve">
<g>
	<path fill="#FFFFFF" stroke="#231F20" stroke-width="2" stroke-miterlimit="10" d="M155.271,378.258
		c6.329,2.247,13.273,3.893,20.107,5.169c6.881,1.269,13.848,2.13,20.841,2.615c13.989,0.969,28.088,0.422,41.964-1.615
		c27.783-4.034,54.552-14.23,78.393-29.122c23.902-14.865,44.907-34.207,63.022-55.875c18.142-21.697,33.502-45.701,46.761-70.783
		c0.986-1.868,3.303-2.583,5.174-1.595c1.786,0.944,2.517,3.104,1.716,4.925l-0.114,0.251c-1.464,3.299-2.965,6.587-4.502,9.862
		c-1.575,3.253-3.219,6.473-4.886,9.687c-3.342,6.424-6.839,12.781-10.509,19.051c-7.469,12.46-15.666,24.559-24.801,36
		c-9.043,11.513-19.112,22.274-29.932,32.301c-10.857,9.989-22.693,18.987-35.243,26.921c-12.624,7.825-26.058,14.415-40.047,19.537
		c-14.043,4.943-28.574,8.627-43.348,10.318c-7.378,0.87-14.791,1.398-22.199,1.424c-7.412,0.011-14.808-0.367-22.152-1.162
		c-7.334-0.891-14.604-2.177-21.771-3.884c-3.582-0.856-7.142-1.81-10.666-2.903c-3.526-1.167-6.944-2.385-10.483-3.938
		l-0.146-0.065c-1.938-0.853-2.819-3.112-1.966-5.05C151.293,378.482,153.4,377.602,155.271,378.258z"/>
	<path fill="#FFFFFF" stroke="#231F20" stroke-width="2" stroke-miterlimit="10" d="M419.237,243.203
		c0,0,17.322-19.662-19.937-31.487C399.302,211.716,393.026,246.898,419.237,243.203z"/>
	<path fill="#FFFFFF" stroke="#231F20" stroke-width="2" stroke-miterlimit="10" d="M368.558,317.636
		c0,0,17.325-19.662-19.933-31.486C348.625,286.15,342.348,321.331,368.558,317.636z"/>
	<path fill="#FFFFFF" stroke="#231F20" stroke-width="2" stroke-miterlimit="10" d="M184.203,384.271
		c0,0,12.191-27.931-33.27-27.776C150.933,356.496,156.496,397.684,184.203,384.271z"/>
	<path fill="#FFFFFF" stroke="#231F20" stroke-width="2" stroke-miterlimit="10" d="M421.761,256.386c0,0,8.312-37.774,54.878-3.706
		C476.639,252.68,440.207,290.823,421.761,256.386z"/>
	<path fill="#FFFFFF" stroke="#231F20" stroke-width="2" stroke-miterlimit="10" d="M394.825,292.29c0,0,13.77-27.946,43.637,7.656
		C438.462,299.946,402.63,322.771,394.825,292.29z"/>
	<path fill="#FFFFFF" stroke="#231F20" stroke-width="2" stroke-miterlimit="10" d="M200.718,394.177c0,0-25.854-10.034-24,31.289
		C176.719,425.466,213.953,418.86,200.718,394.177z"/>
	<path fill="#FFFFFF" stroke="#231F20" stroke-width="2" stroke-miterlimit="10" d="M238.044,391.314c0,0-26.66-3.461-15.347,35.014
		C222.697,426.329,256.219,411.487,238.044,391.314z"/>
</g>
<path fill="#FFFFFF" stroke="#231F20" stroke-width="2" stroke-miterlimit="10" d="M275.837,377.345
	c-10.892,36.874,16.448,37.279,44.044,34.648c23.424-2.234,47.499,12.173,26.286,35.255c-8.18,8.898-24.086,16.459-35.809,9.329
	c-12.155-7.384-5.61-11.826,4.557-15.27c6.876-2.324,22.908-1.293,18.239-11.973c-4.472-10.231-25.54-6.453-33.305-5.359
	c-34.096,4.8-45.019-12.74-41.374-45.82c3.231,1.301,7.257,1.762,10.894,2.03c3.86,0.277,7.64-2.685,5.516,0.283L275.837,377.345z"
	/>
<path fill="#FFFFFF" stroke="#231F20" stroke-width="2" stroke-miterlimit="10" d="M241.379,386.816
	c20.527,16.443,45.139,17.481,70.214,11.606c59.603-13.959,42.94-111.875-19.387-108.595c-28.448,1.497-36.342,34.037-56.022,49.104
	c-8.752,6.7-38.365,9.697-41.113,20.486C187.067,390.841,233.109,380.189,241.379,386.816z"/>
<path fill="#FFFFFF" stroke="#231F20" stroke-width="2" stroke-miterlimit="10" d="M379.158,203.439
	c-4.217-0.06-8.167,1.042-11.573,2.972c-12.178-29.281-41.839-50.778-77.518-52.588c-35.028-1.774-66.208,15.918-81.6,42.965
	c-2.552-1.305-5.396-2.156-8.438-2.424c-12.415-1.085-23.346,7.926-24.409,20.124c-1.066,12.199,8.134,22.968,20.553,24.053
	c0.751,0.065,1.5,0.089,2.239,0.082c1.948,41.824,37.749,76.328,83.376,78.639c45.817,2.32,85.053-28.655,90.966-70.33
	c1.843,0.508,3.772,0.815,5.775,0.846c12.465,0.176,22.708-9.605,22.88-21.852C401.583,213.681,391.62,203.615,379.158,203.439z"/>
<path fill="#FFFFFF" stroke="#231F20" stroke-width="2" stroke-miterlimit="10" d="M365.06,271.223
	c-1.188-9.875-5.84-18.842-15.081-22.997c3.109-7.702,5.102-15.811,3.631-24.153c-6.731-38.198-53.98-38.419-65.344-3.347
	c-3.134-8-5.23-15.606-11.609-21.24c-28.839-25.46-68.389,3.984-53.042,39.408c-6.015,6.421-11.593,13.604-13.128,22.667
	c-0.938,5.541-0.809,10.659,0.184,15.389c14.554,22.855,40.64,38.767,71.118,40.312C318.128,319.102,350.337,299.998,365.06,271.223
	z"/>
<path fill="#FFFFFF" stroke="#231F20" stroke-width="2" stroke-miterlimit="10" d="M262.354,239.612
	c-0.471,9.319-7.76,18.108-12.272,17.879c-4.513-0.227-9.293-9.629-8.821-18.947c0.473-9.315,6.018-15.022,10.53-14.791
	C256.304,223.98,262.828,230.296,262.354,239.612z"/>
<ellipse transform="matrix(0.0505 -0.9987 0.9987 0.0505 71.9399 546.8571)" fill="#231F20" cx="323.58" cy="235.593" rx="9.501" ry="6.109"/>
<path fill="#FFFFFF" stroke="#231F20" stroke-width="2" stroke-miterlimit="10" d="M393.579,226.389
	c-0.074,8.828-8.09,15.915-17.901,15.835c-9.812-0.083-1.435-5.088-1.361-13.916c0.075-8.827-8.186-18.132,1.627-18.05
	S393.653,217.562,393.579,226.389z"/>
<path fill="#FFFFFF" stroke="#231F20" stroke-width="2" stroke-miterlimit="10" d="M181.438,214.518
	c-0.766,8.793,6.537,16.613,16.311,17.468c9.774,0.853,2.4-7.678,3.17-16.473c0.767-8.792,9.388-14.518-0.388-15.373
	C190.755,199.288,182.206,205.722,181.438,214.518z"/>
<ellipse transform="matrix(0.0248 -0.9997 0.9997 0.0248 31.4314 523.1492)" fill="#FFFFFF" stroke="#231F20" stroke-width="2" stroke-miterlimit="10" cx="283.853" cy="245.465" rx="6.336" ry="10.69"/>
<path fill="#FFFFFF" stroke="#231F20" stroke-width="2" stroke-miterlimit="10" d="M234.144,307.905
	c-1.672-9.434-5.963-23.888,4.46-29.941c11.735-6.822,25.886,6.718,31.735,15.603c7.989,12.13,13.143,47.572-8.896,49.406
	C246.374,344.225,236.223,319.624,234.144,307.905z"/>
<path fill="#FFFFFF" stroke="#231F20" stroke-width="2" stroke-miterlimit="10" d="M263.743,267.078
	c-0.297,2.835-9.234,4.234-19.972,3.125c-10.73-1.112-19.191-4.311-18.898-7.149c0.296-2.837,9.23-4.236,19.968-3.126
	C255.576,261.041,264.035,264.24,263.743,267.078z"/>
<path fill="#FFFFFF" stroke="#231F20" stroke-width="2" stroke-miterlimit="10" d="M300.135,268.24c0,0,15.097,15.037-4.733,20.375
	c0,0-12.813,2.521-8.135-16.797C287.268,271.817,300.107,268.767,300.135,268.24z"/>
<g>
	<path fill="#FFFFFF" stroke="#231F20" stroke-width="2" stroke-miterlimit="10" d="M278.734,272.639
		c-6.511,0-12.7-1.28-17.59-4.643l0.898-1.307c12.912,8.884,37.385,2.286,50.685-4.317l0.705,1.417
		C305.646,267.654,291.566,272.639,278.734,272.639z"/>
</g>
<g>
	<path fill="#FFFFFF" stroke="#231F20" stroke-width="2" stroke-miterlimit="10" d="M295.499,281.108l-1.535-0.389
		c0.726-2.875-0.227-9.043-0.97-10.621l1.431-0.673C295.288,271.257,296.331,277.821,295.499,281.108z"/>
</g>
<path fill="#FFFFFF" stroke="#231F20" stroke-width="2" stroke-miterlimit="10" d="M344.396,256.223
	c-0.019,2.853-8.776,5.114-19.571,5.045c-10.788-0.064-19.521-2.428-19.505-5.284c0.02-2.851,8.776-5.111,19.571-5.046
	C335.682,251.008,344.414,253.371,344.396,256.223z"/>
<ellipse transform="matrix(0.0506 -0.9987 0.9987 0.0506 3.5778 475.3506)" fill="#231F20" cx="251.813" cy="235.793" rx="4.718" ry="5.015"/>
<path fill="none" stroke="#000000" stroke-width="2" d="M193.471,115.04c-0.199,1.459-0.73,2.7-1.591,3.729
	c-0.863,1.027-1.857,1.74-2.983,2.138c-1.128,0.398-2.288,0.414-3.481,0.05c-1.193-0.365-2.188-1.243-2.983-2.635
	c-0.664-1.127-1.044-2.303-1.144-3.531c-0.1-1.226-0.216-2.501-0.348-3.829c-0.134-1.458-0.283-2.735-0.447-3.829
	c-0.167-1.094-0.348-2.37-0.547-3.829c-0.597-3.978-1.26-7.906-1.989-11.785c-0.73-3.878-1.559-7.772-2.486-11.685
	c-1.327,3.316-2.585,6.598-3.779,9.845c-1.193,3.249-2.387,6.531-3.58,9.845c-0.929,2.454-1.84,4.923-2.735,7.409
	s-1.939,4.89-3.133,7.21c-0.397,0.795-1.061,1.442-1.989,1.939c-0.929,0.497-1.924,0.78-2.983,0.845
	c-1.061,0.067-2.056-0.082-2.983-0.447c-0.929-0.364-1.625-0.978-2.088-1.84c-2.852-5.502-5.668-10.972-8.453-16.409
	c-2.785-5.436-5.569-10.905-8.354-16.409c-0.333,3.381-0.631,6.78-0.895,10.193c-0.266,3.416-0.564,6.812-0.895,10.193
	c-0.067,1.062-0.134,2.354-0.199,3.878c-0.067,1.526-0.184,3.067-0.348,4.625c-0.167,1.559-0.365,3.05-0.597,4.475
	c-0.233,1.426-0.614,2.536-1.144,3.332c-0.796,1.326-1.84,2.188-3.133,2.585c-1.293,0.398-2.553,0.431-3.779,0.1
	c-1.228-0.333-2.255-1.012-3.083-2.039c-0.83-1.029-1.21-2.337-1.144-3.928c0.132-2.718,0.363-5.403,0.696-8.055
	c0.331-2.651,0.629-5.336,0.895-8.055c0.53-5.9,1.077-11.768,1.641-17.603c0.562-5.833,1.109-11.735,1.641-17.702
	c0.132-1.723,0.48-3.314,1.044-4.773c0.562-1.458,1.773-2.486,3.63-3.083c0.729-0.264,1.492-0.364,2.287-0.298
	c0.796,0.066,1.524,0.298,2.188,0.696c1.458,0.929,2.601,2.205,3.431,3.829c0.828,1.625,1.606,3.167,2.337,4.625
	c1.258,2.387,2.486,4.791,3.679,7.21c1.193,2.421,2.387,4.823,3.581,7.21c1.458,3.05,2.934,6.051,4.425,9
	c1.492,2.951,3.033,5.917,4.624,8.9c0.398-0.994,0.779-1.989,1.144-2.983c0.363-0.994,0.746-1.989,1.144-2.983
	c0.729-1.723,1.408-3.463,2.039-5.221c0.629-1.756,1.276-3.497,1.939-5.221c0.928-2.253,1.806-4.475,2.636-6.663
	c0.828-2.188,1.641-4.408,2.438-6.663c0.662-1.656,1.292-3.446,1.889-5.37c0.597-1.922,1.557-3.546,2.884-4.873
	c0.928-0.995,1.939-1.591,3.033-1.79c1.094-0.199,2.121-0.115,3.083,0.249c0.96,0.365,1.823,0.979,2.586,1.84
	c0.761,0.862,1.308,1.856,1.641,2.983c0.398,1.526,0.861,3.249,1.393,5.171c0.53,1.924,0.994,3.647,1.392,5.171
	c0.729,2.785,1.392,5.52,1.989,8.205c0.597,2.685,1.159,5.42,1.691,8.204c0.927,4.575,1.74,9.1,2.437,13.575
	c0.696,4.475,1.308,9,1.839,13.575v0.697H193.471z"/>
<path fill="none" stroke="#000000" stroke-width="2" d="M236.828,58.255c0.264-2.452,1.109-4.259,2.536-5.42
	c1.425-1.159,2.934-1.723,4.525-1.69c1.591,0.034,3.065,0.646,4.425,1.839c1.358,1.193,2.071,2.884,2.138,5.072
	c0.132,2.254-0.448,3.995-1.741,5.221c-1.292,1.228-2.769,1.924-4.425,2.088c-1.658,0.167-3.216-0.281-4.674-1.342
	c-1.459-1.06-2.354-2.75-2.685-5.072L236.828,58.255z"/>
<path fill="none" stroke="#000000" stroke-width="2" d="M249.955,114.84c-0.133,1.327-0.597,2.503-1.392,3.531
	c-0.795,1.027-1.708,1.773-2.735,2.237c-1.029,0.463-2.138,0.562-3.332,0.298c-1.193-0.266-2.254-0.995-3.182-2.188
	c-0.532-0.663-0.912-1.408-1.144-2.237c-0.233-0.828-0.382-1.691-0.448-2.586c-0.067-0.895-0.084-1.79-0.05-2.685
	c0.033-0.895,0.05-1.706,0.05-2.436c-0.067-3.911-0.084-7.79-0.05-11.636c0.033-3.844,0.016-7.723-0.05-11.635
	c0-1.591-0.099-3.198-0.298-4.823c-0.199-1.624-0.099-3.232,0.298-4.823c0.331-1.193,0.911-2.22,1.741-3.083
	c0.828-0.861,1.756-1.458,2.784-1.791c1.027-0.331,2.088-0.363,3.183-0.099c1.094,0.266,2.039,0.962,2.834,2.088
	c1.06,1.327,1.591,2.635,1.591,3.928c0,1.292,0,2.868,0,4.724c0,2.255,0,4.509,0,6.762c0,2.255,0.033,4.476,0.1,6.663
	c0.065,3.183,0.099,6.365,0.099,9.547c0,3.183,0,6.365,0,9.547L249.955,114.84L249.955,114.84z"/>
<path fill="none" stroke="#000000" stroke-width="2" d="M258.607,110.962c-0.398-1.126-0.564-2.237-0.497-3.332
	c0.065-1.094,0.348-2.088,0.845-2.983s1.209-1.591,2.138-2.088c0.928-0.497,2.054-0.679,3.381-0.547
	c0.729,0.067,1.393,0.266,1.989,0.597c0.597,0.333,1.144,0.73,1.641,1.193c0.498,0.465,0.995,0.962,1.492,1.492
	c0.498,0.531,1.01,0.995,1.542,1.392c1.126,0.863,2.32,1.492,3.58,1.89c1.259,0.398,2.586,0.696,3.978,0.895
	c0.928,0,1.673-0.231,2.238-0.696c0.562-0.463,0.944-1.027,1.144-1.691c0.199-0.662,0.249-1.375,0.149-2.138
	c-0.099-0.761-0.348-1.375-0.746-1.84c-1.128-1.126-2.503-1.855-4.127-2.188c-1.625-0.331-3.133-0.729-4.525-1.193
	c-1.989-0.662-3.945-1.507-5.868-2.536c-1.924-1.027-3.48-2.437-4.674-4.227c-1.26-1.855-2.006-3.829-2.238-5.917
	c-0.233-2.088-0.067-4.127,0.498-6.116c0.562-1.989,1.507-3.812,2.834-5.469c1.326-1.657,2.917-3.016,4.773-4.078
	c1.393-0.795,2.917-1.308,4.575-1.542c1.656-0.231,3.332-0.281,5.022-0.149c1.691,0.133,3.364,0.447,5.022,0.945
	c1.657,0.497,3.183,1.044,4.575,1.641c1.591,0.73,2.785,1.757,3.58,3.083c0.796,1.327,1.176,2.669,1.144,4.027
	c-0.034,1.36-0.497,2.536-1.392,3.531c-0.895,0.994-2.205,1.492-3.928,1.492c-1.061,0-2.023-0.182-2.884-0.547
	c-0.862-0.364-1.757-0.712-2.685-1.044c-1.193-0.463-2.486-0.778-3.878-0.945c-1.393-0.165-2.521-0.082-3.381,0.249
	c-0.266,0.067-0.564,0.283-0.895,0.646c-0.333,0.365-0.581,0.813-0.746,1.343c-0.166,0.531-0.199,1.061-0.099,1.591
	c0.099,0.532,0.447,0.962,1.044,1.293c1.591,0.862,3.282,1.526,5.072,1.989c1.79,0.465,3.546,0.995,5.271,1.591
	c1.723,0.597,3.332,1.36,4.823,2.288c1.492,0.929,2.735,2.254,3.729,3.978c1.458,2.521,2.204,5.156,2.238,7.906
	c0.033,2.752-0.514,5.32-1.641,7.707c-1.128,2.387-2.784,4.425-4.972,6.116c-2.188,1.69-4.741,2.701-7.658,3.033
	c-2.056,0.199-4.077,0.082-6.066-0.348c-1.989-0.432-3.913-1.128-5.768-2.088c-1.857-0.962-3.58-2.104-5.171-3.431
	c-1.591-1.325-2.983-2.718-4.177-4.177L258.607,110.962z"/>
<path fill="none" stroke="#000000" stroke-width="2" d="M356.959,118.818c-0.862,1.06-1.855,1.79-2.983,2.188
	c-1.128,0.397-2.286,0.397-3.479,0c-1.193-0.398-2.188-1.293-2.983-2.685c-0.333-0.532-0.597-1.094-0.795-1.691
	c-0.199-0.597-0.298-1.193-0.298-1.79V88.686c-1.26,0-2.404-0.348-3.431-1.044c-1.029-0.696-1.79-1.557-2.287-2.585
	c-0.498-1.027-0.681-2.121-0.547-3.282c0.132-1.16,0.662-2.238,1.591-3.232c0.662-0.729,1.375-1.209,2.138-1.442
	c0.761-0.231,1.574-0.381,2.438-0.447c-0.067-2.054-0.117-4.078-0.149-6.066c-0.034-1.989,0.115-3.978,0.448-5.967
	c0.397-3.116,1.325-5.768,2.785-7.956c1.458-2.188,3.265-3.878,5.42-5.072c2.153-1.193,4.557-1.89,7.21-2.088
	c2.65-0.199,5.402,0.199,8.254,1.193c1.193,0.398,2.337,0.895,3.431,1.492c1.095,0.597,2.071,1.36,2.935,2.287
	c0.597,0.664,1.026,1.442,1.292,2.337c0.264,0.895,0.313,1.79,0.148,2.685c-0.167,0.895-0.497,1.725-0.995,2.486
	c-0.496,0.763-1.21,1.343-2.138,1.741c-1.26,0.531-2.503,0.664-3.729,0.397c-1.229-0.264-2.438-0.696-3.63-1.292
	c-0.73-0.264-1.427-0.53-2.089-0.796c-0.664-0.264-1.359-0.463-2.088-0.597c-0.729-0.132-1.392-0.033-1.989,0.298
	c-0.597,0.333-1.11,0.78-1.541,1.343c-0.432,0.564-0.763,1.193-0.994,1.89c-0.233,0.696-0.349,1.376-0.349,2.039
	c-0.066,1.526-0.084,3.067-0.05,4.624c0.033,1.559,0.05,3.1,0.05,4.625c0.995-0.065,2.055-0.132,3.184-0.199
	c1.126-0.065,2.236-0.1,3.331-0.1c1.094,0,2.104,0.034,3.032,0.1s1.657,0.199,2.188,0.397c1.06,0.398,1.922,1.012,2.585,1.84
	c0.662,0.83,1.094,1.725,1.293,2.685c0.199,0.962,0.115,1.939-0.249,2.934c-0.365,0.995-1.012,1.857-1.939,2.586
	c-0.861,0.664-1.856,1.128-2.982,1.392c-1.128,0.266-2.321,0.448-3.58,0.547c-1.26,0.1-2.486,0.134-3.679,0.1
	c-1.194-0.033-2.255-0.05-3.184-0.05v26.553C358.352,116.499,357.82,117.757,356.959,118.818z"/>
<path fill="none" stroke="#000000" stroke-width="2" d="M375.456,93.857c0.463-1.922,1.109-3.812,1.938-5.668
	c0.828-1.855,1.841-3.63,3.033-5.32c1.193-1.691,2.536-3.232,4.028-4.625c1.492-1.392,3.098-2.519,4.823-3.381
	c3.048-1.591,6.115-2.402,9.199-2.438c3.082-0.033,5.949,0.581,8.602,1.84c2.65,1.26,4.906,3.132,6.763,5.619
	c1.855,2.486,3.083,5.454,3.679,8.9c0.331,2.255,0.514,4.393,0.548,6.415c0.032,2.023-0.185,4.127-0.646,6.315
	c-0.664,3.117-2.006,6.215-4.028,9.298s-4.441,5.668-7.26,7.757c-2.817,2.088-5.9,3.463-9.249,4.127
	c-3.349,0.662-6.712,0.132-10.094-1.591c-1.526-0.73-2.901-1.575-4.127-2.536c-1.229-0.96-2.337-2.104-3.332-3.431
	c-1.128-1.458-2.006-2.983-2.635-4.574c-0.632-1.591-1.145-3.248-1.542-4.973c-0.465-1.855-0.631-3.729-0.498-5.619
	c0.132-1.89,0.363-3.729,0.695-5.52L375.456,93.857z"/>
<path fill="none" stroke="#000000" stroke-width="2" d="M387.39,95.945c-0.198,1.062-0.364,2.105-0.497,3.133
	c-0.134,1.029-0.134,2.073,0,3.132c0.199,1.526,0.612,2.918,1.243,4.177c0.629,1.26,1.458,2.255,2.486,2.984
	c1.027,0.73,2.204,1.111,3.53,1.144c1.326,0.034,2.75-0.381,4.275-1.243c1.922-1.126,3.58-2.867,4.974-5.221
	c1.392-2.353,2.253-4.806,2.585-7.359c0.331-2.552,0.064-4.973-0.795-7.26c-0.863-2.287-2.554-3.928-5.072-4.923
	c-1.658,0-3.184,0.315-4.575,0.945c-1.393,0.631-2.603,1.459-3.63,2.486c-1.029,1.029-1.924,2.237-2.686,3.63
	C388.466,92.962,387.854,94.421,387.39,95.945z"/>
<path fill="none" stroke="#000000" stroke-width="2" d="M427.167,86.945c0.065-0.43,0.033-1.209-0.1-2.337
	c-1.062-0.597-1.891-1.358-2.486-2.287c-0.597-0.928-0.944-1.922-1.044-2.983c-0.1-1.06,0.1-2.071,0.597-3.033
	c0.497-0.96,1.309-1.773,2.438-2.437c1.523-0.861,3.197-1.027,5.021-0.497c1.823,0.531,3.397,1.327,4.725,2.387
	c1.656-1.259,3.381-2.32,5.171-3.183c1.79-0.861,3.612-1.442,5.47-1.74c1.854-0.298,3.745-0.249,5.668,0.149
	c1.922,0.398,3.812,1.228,5.668,2.486c0.928,0.597,1.79,1.343,2.585,2.238c0.796,0.895,1.293,1.906,1.492,3.033
	c0.331,1.658,0.199,3.1-0.397,4.326c-0.597,1.228-1.427,2.123-2.485,2.685c-1.062,0.564-2.254,0.73-3.58,0.498
	c-1.327-0.232-2.585-0.945-3.779-2.138c-0.398-0.264-0.681-0.48-0.846-0.646c-0.166-0.165-0.515-0.381-1.044-0.646
	c-1.062-0.264-2.105-0.199-3.134,0.199c-1.027,0.398-2.022,0.945-2.982,1.641c-0.962,0.696-1.857,1.459-2.686,2.287
	c-0.829,0.83-1.575,1.576-2.236,2.238v25.359c0,0.995-0.199,1.957-0.598,2.884c-0.597,1.524-1.541,2.585-2.834,3.182
	c-1.292,0.597-2.585,0.761-3.878,0.497c-1.293-0.266-2.421-0.929-3.381-1.989c-0.962-1.061-1.441-2.419-1.441-4.077V87.194
	C427.067,87.46,427.1,87.377,427.167,86.945z"/>
<path fill="none" stroke="#000000" stroke-width="2" d="M205.702,547.04c-0.199,1.459-0.73,2.7-1.591,3.729
	c-0.863,1.027-1.857,1.74-2.983,2.139c-1.128,0.397-2.288,0.414-3.481,0.05c-1.193-0.365-2.188-1.243-2.983-2.635
	c-0.664-1.127-1.044-2.304-1.144-3.531c-0.1-1.227-0.216-2.501-0.348-3.829c-0.134-1.458-0.283-2.735-0.447-3.829
	c-0.167-1.094-0.348-2.37-0.547-3.829c-0.597-3.978-1.26-7.905-1.989-11.784c-0.73-3.879-1.559-7.772-2.486-11.686
	c-1.327,3.316-2.585,6.598-3.779,9.845c-1.193,3.249-2.387,6.531-3.58,9.846c-0.929,2.453-1.84,4.923-2.735,7.408
	c-0.895,2.486-1.939,4.891-3.133,7.21c-0.397,0.795-1.061,1.442-1.989,1.939c-0.929,0.497-1.924,0.78-2.983,0.845
	c-1.061,0.067-2.056-0.082-2.983-0.446c-0.929-0.364-1.625-0.979-2.088-1.841c-2.852-5.502-5.668-10.972-8.453-16.409
	c-2.785-5.436-5.569-10.904-8.354-16.408c-0.333,3.381-0.631,6.779-0.895,10.192c-0.266,3.416-0.564,6.812-0.895,10.193
	c-0.067,1.062-0.134,2.354-0.199,3.878c-0.067,1.526-0.184,3.067-0.348,4.625c-0.167,1.559-0.365,3.05-0.597,4.475
	c-0.233,1.427-0.614,2.536-1.144,3.332c-0.796,1.326-1.84,2.188-3.133,2.585c-1.293,0.398-2.553,0.432-3.779,0.101
	c-1.228-0.333-2.255-1.013-3.083-2.039c-0.83-1.029-1.21-2.337-1.144-3.928c0.132-2.719,0.363-5.403,0.696-8.056
	c0.331-2.65,0.629-5.336,0.895-8.055c0.53-5.9,1.077-11.769,1.641-17.604c0.562-5.833,1.109-11.734,1.641-17.701
	c0.132-1.724,0.479-3.314,1.044-4.773c0.562-1.458,1.773-2.486,3.63-3.083c0.729-0.264,1.492-0.364,2.287-0.298
	c0.796,0.065,1.524,0.298,2.188,0.696c1.458,0.929,2.601,2.205,3.431,3.828c0.828,1.625,1.606,3.168,2.337,4.625
	c1.258,2.388,2.486,4.791,3.679,7.211c1.193,2.421,2.387,4.822,3.581,7.21c1.458,3.05,2.934,6.051,4.425,9
	c1.492,2.95,3.033,5.917,4.624,8.899c0.398-0.994,0.779-1.989,1.144-2.982c0.363-0.994,0.746-1.989,1.144-2.983
	c0.729-1.723,1.408-3.463,2.039-5.221c0.629-1.756,1.276-3.497,1.939-5.222c0.928-2.253,1.806-4.475,2.636-6.662
	c0.828-2.188,1.641-4.408,2.437-6.663c0.662-1.656,1.292-3.446,1.889-5.37c0.597-1.922,1.557-3.546,2.884-4.873
	c0.928-0.995,1.939-1.591,3.033-1.79c1.094-0.199,2.121-0.115,3.083,0.249c0.96,0.365,1.823,0.979,2.586,1.84
	c0.761,0.862,1.308,1.855,1.641,2.983c0.398,1.525,0.861,3.249,1.393,5.171c0.53,1.924,0.994,3.646,1.392,5.171
	c0.729,2.785,1.392,5.52,1.989,8.205c0.597,2.685,1.159,5.42,1.691,8.204c0.927,4.574,1.74,9.1,2.438,13.574
	c0.696,4.476,1.308,9,1.839,13.575v0.697H205.702z"/>
<path fill="none" stroke="#000000" stroke-width="2" d="M212.264,525.857c0.463-1.923,1.109-3.812,1.939-5.668
	c0.828-1.855,1.84-3.631,3.033-5.32c1.193-1.691,2.536-3.232,4.028-4.625c1.492-1.393,3.098-2.52,4.823-3.381
	c3.048-1.592,6.116-2.402,9.199-2.438c3.083-0.033,5.95,0.581,8.602,1.84c2.651,1.261,4.906,3.132,6.763,5.619
	c1.855,2.486,3.083,5.454,3.679,8.9c0.331,2.255,0.513,4.393,0.547,6.415c0.033,2.022-0.184,4.127-0.646,6.314
	c-0.664,3.117-2.006,6.215-4.028,9.298c-2.023,3.083-4.442,5.668-7.26,7.758c-2.818,2.088-5.901,3.463-9.249,4.127
	c-3.349,0.662-6.712,0.132-10.094-1.592c-1.526-0.729-2.901-1.574-4.127-2.535c-1.228-0.961-2.337-2.104-3.332-3.432
	c-1.128-1.458-2.006-2.982-2.635-4.574c-0.631-1.591-1.144-3.248-1.542-4.973c-0.465-1.854-0.631-3.729-0.498-5.619
	c0.132-1.89,0.364-3.729,0.696-5.52L212.264,525.857z"/>
<path fill="none" stroke="#000000" stroke-width="2" d="M224.198,527.945c-0.199,1.062-0.365,2.104-0.497,3.133
	c-0.134,1.029-0.134,2.073,0,3.132c0.199,1.526,0.612,2.918,1.243,4.177c0.629,1.261,1.458,2.255,2.486,2.984
	c1.027,0.729,2.204,1.111,3.53,1.144c1.326,0.034,2.75-0.381,4.276-1.242c1.922-1.126,3.58-2.867,4.973-5.222
	c1.392-2.353,2.253-4.806,2.585-7.358c0.331-2.553,0.065-4.974-0.795-7.261c-0.863-2.287-2.553-3.928-5.072-4.923
	c-1.658,0-3.183,0.315-4.575,0.945c-1.393,0.631-2.603,1.459-3.63,2.486c-1.029,1.028-1.924,2.236-2.685,3.63
	C225.274,524.962,224.661,526.421,224.198,527.945z"/>
<path fill="none" stroke="#000000" stroke-width="2" d="M301.766,547.04c-0.199,1.658-0.812,3.016-1.84,4.077
	c-1.029,1.06-2.188,1.723-3.48,1.989c-1.293,0.264-2.536,0.1-3.729-0.497c-1.193-0.598-2.056-1.758-2.585-3.48
	c-0.597-1.854-0.83-3.795-0.696-5.818c0.132-2.021,0.199-3.894,0.199-5.618c0-3.58,0.016-7.144,0.05-10.691
	c0.033-3.546-0.117-7.11-0.447-10.69c-0.067-0.132-0.134-0.248-0.199-0.348c-0.067-0.099-0.199-0.249-0.397-0.447
	c-1.526-0.397-3.15-0.298-4.873,0.299c-1.725,0.597-3.183,1.358-4.376,2.286c-1.061,0.862-2.105,2.039-3.132,3.53
	c-1.029,1.492-1.542,2.935-1.542,4.326v13.724c0,1.062,0.033,2.223,0.1,3.481c0.065,1.26,0.015,2.486-0.149,3.679
	c-0.166,1.193-0.547,2.288-1.144,3.282c-0.597,0.995-1.559,1.724-2.884,2.188c-0.73,0.265-1.41,0.364-2.039,0.299
	c-0.631-0.067-1.31-0.233-2.039-0.497c-1.193-0.398-2.056-1.079-2.585-2.039c-0.532-0.96-0.895-1.989-1.094-3.083
	c-0.199-1.095-0.283-2.154-0.249-3.184c0.033-1.026,0.05-1.839,0.05-2.436c0-1.524-0.017-3.729-0.05-6.613
	c-0.034-2.884-0.05-5.917-0.05-9.1c0-3.184,0-6.215,0-9.101c0-2.884,0-5.087,0-6.612c0-1.458,0.431-2.668,1.293-3.63
	c0.861-0.96,1.873-1.592,3.033-1.89c1.159-0.298,2.387-0.231,3.68,0.199c1.292,0.432,2.37,1.31,3.232,2.635
	c2.651-1.723,5.569-2.884,8.751-3.479c3.182-0.598,6.181-0.498,9,0.298c2.817,0.795,5.171,2.287,7.061,4.475
	c1.889,2.188,2.867,5.206,2.934,9.051c0,0.133,0.033,0.53,0.1,1.192c0.064,0.664,0.1,1.591,0.1,2.784v25.46H301.766z"/>
<path fill="none" stroke="#000000" stroke-width="2" d="M320.66,551.167c-1.327,0.96-2.702,1.408-4.127,1.342
	c-1.426-0.065-2.686-0.646-3.779-1.74c-1.094-1.094-1.641-2.601-1.641-4.524v-56.686c0-0.993,0.28-1.904,0.846-2.734
	c0.562-0.828,1.275-1.507,2.138-2.039c0.861-0.53,1.807-0.878,2.834-1.044c1.027-0.165,1.973-0.132,2.834,0.099
	c0.861,0.233,1.606,0.73,2.237,1.492c0.629,0.763,0.979,1.807,1.044,3.133c0.199,5.171,0.298,9.812,0.298,13.922
	c0,4.112-0.033,8.254-0.1,12.432c1.523-1.126,2.966-2.304,4.326-3.53c1.357-1.227,2.699-2.502,4.026-3.829
	c1.193-1.259,2.354-2.668,3.481-4.227c1.126-1.558,2.551-2.637,4.275-3.232c1.26-0.397,2.438-0.463,3.531-0.199
	c1.094,0.267,2.021,0.78,2.784,1.542c0.762,0.764,1.276,1.69,1.542,2.785c0.264,1.094,0.199,2.271-0.199,3.53
	c-0.333,0.929-1.079,2.088-2.237,3.479c-1.161,1.394-2.454,2.819-3.878,4.276c-1.427,1.459-2.834,2.802-4.228,4.028
	c-1.392,1.228-2.52,2.172-3.381,2.834c2.32,2.521,4.606,5.071,6.862,7.657c2.253,2.586,4.54,5.172,6.861,7.758
	c0.994,1.128,1.939,2.138,2.834,3.032c0.896,0.896,1.674,1.974,2.337,3.232c0.53,1.061,0.696,2.155,0.497,3.282
	c-0.198,1.128-0.646,2.104-1.343,2.934c-0.696,0.828-1.559,1.442-2.585,1.84c-1.029,0.398-2.138,0.432-3.332,0.101
	c-1.128-0.333-2.222-0.945-3.282-1.84c-1.062-0.896-2.072-1.873-3.032-2.935c-0.963-1.06-1.874-2.154-2.735-3.282
	c-0.862-1.127-1.658-2.088-2.387-2.884c-1.79-2.054-3.564-4.093-5.32-6.116c-1.757-2.021-3.563-3.993-5.42-5.917v17.305
	C322.848,548.63,321.985,550.205,320.66,551.167z"/>
<path fill="none" stroke="#000000" stroke-width="2" d="M392.062,536.299c1.591-0.396,2.998-0.413,4.227-0.049
	c1.226,0.365,2.171,0.979,2.834,1.839c0.662,0.863,0.96,1.924,0.895,3.183c-0.066,1.261-0.631,2.586-1.689,3.979
	c-0.863,1.128-2.057,2.088-3.581,2.884c-1.526,0.795-2.951,1.426-4.276,1.891c-3.25,1.192-6.332,2.021-9.249,2.485
	c-2.918,0.463-5.652,0.463-8.205,0c-2.553-0.464-4.939-1.426-7.159-2.884c-2.223-1.458-4.293-3.513-6.217-6.166
	c-1.326-1.79-2.304-3.829-2.934-6.116c-0.631-2.287-0.979-4.625-1.044-7.011c-0.067-2.387,0.132-4.739,0.597-7.061
	c0.463-2.32,1.126-4.408,1.989-6.266c1.126-2.319,2.917-4.44,5.37-6.365c2.452-1.922,5.171-3.445,8.155-4.574
	c2.982-1.126,6.031-1.773,9.148-1.939c3.115-0.165,5.867,0.315,8.254,1.442c1.989,0.929,3.695,2.271,5.122,4.026
	c1.425,1.759,2.402,3.664,2.935,5.719c0.529,2.056,0.579,4.127,0.148,6.216c-0.432,2.088-1.509,3.995-3.231,5.718
	c-1.658,1.658-3.48,3-5.47,4.027c-1.988,1.028-4.045,1.924-6.166,2.685c-2.123,0.763-4.293,1.41-6.514,1.939
	c-2.222,0.53-4.36,1.128-6.415,1.79c1.393,1.591,2.983,2.603,4.773,3.032c1.79,0.433,3.662,0.515,5.619,0.249
	c1.954-0.264,3.928-0.811,5.916-1.641c1.989-0.828,3.845-1.74,5.569-2.735L392.062,536.299z"/>
<path fill="none" stroke="#000000" stroke-width="2" d="M371.974,519.194c-1.525,0.862-2.651,1.938-3.381,3.231
	c-0.729,1.292-1.26,3.101-1.591,5.42c1.723-0.529,3.663-1.094,5.818-1.69c2.152-0.598,4.191-1.227,6.115-1.89
	c1.923-0.662,3.547-1.393,4.873-2.188c1.325-0.796,1.989-1.657,1.989-2.586c0-0.53-0.084-1.044-0.249-1.541
	c-0.166-0.498-0.514-0.846-1.044-1.044c-1.856-0.662-3.779-0.795-5.768-0.398c-1.989,0.398-3.647,0.962-4.974,1.691L371.974,519.194
	z"/>
<path fill="none" stroke="#000000" stroke-width="2" d="M436.217,505.769c0.796-1.324,1.79-2.236,2.983-2.734
	c1.192-0.497,2.37-0.612,3.531-0.349c1.158,0.267,2.188,0.863,3.083,1.79c0.895,0.931,1.441,2.155,1.641,3.681
	c0.132,1.128-0.084,2.719-0.646,4.772c-0.563,2.057-1.26,4.178-2.088,6.365c-0.83,2.188-1.675,4.276-2.536,6.265
	c-0.861,1.989-1.558,3.548-2.088,4.675c-2.254,4.972-4.708,9.845-7.358,14.618c-2.652,4.773-5.37,9.514-8.155,14.222
	c-0.398,0.729-0.862,1.624-1.392,2.685c-0.532,1.061-1.079,2.153-1.642,3.282c-0.563,1.126-1.144,2.188-1.74,3.182
	c-0.596,0.994-1.16,1.724-1.689,2.188c-1.193,1.126-2.421,1.79-3.68,1.989c-1.261,0.198-2.404,0.032-3.432-0.497
	c-1.028-0.532-1.855-1.36-2.485-2.486c-0.632-1.128-0.881-2.486-0.746-4.077c0.064-0.597,0.331-1.377,0.796-2.337
	c0.463-0.961,0.994-1.956,1.591-2.982c0.597-1.028,1.193-2.007,1.79-2.935c0.597-0.929,1.06-1.69,1.393-2.287
	c1.325-2.188,2.602-4.376,3.829-6.562c1.227-2.188,2.469-4.376,3.729-6.563c-4.375-3.646-8.171-7.708-11.388-12.183
	c-3.216-4.476-5.686-9.398-7.408-14.769c-0.333-0.927-0.664-1.854-0.995-2.783c-0.333-0.929-0.433-1.891-0.298-2.885
	c0.132-1.126,0.447-2.138,0.944-3.032c0.498-0.896,1.145-1.624,1.939-2.188c0.795-0.562,1.706-0.878,2.735-0.945
	c1.026-0.064,2.07,0.166,3.132,0.696c0.86,0.465,1.542,1.111,2.039,1.939c0.497,0.83,0.91,1.725,1.242,2.685
	c0.331,0.962,0.612,1.939,0.846,2.934c0.231,0.995,0.513,1.891,0.846,2.686c2.651,6.562,6.663,12.167,12.033,16.807
	c1.922-3.978,3.645-7.971,5.171-11.982c1.523-4.01,2.884-8.105,4.078-12.282L436.217,505.769z"/>
</svg>
