<?xml version="1.0" encoding="utf-8"?>
<!-- Generator: Adobe Illustrator 16.0.0, SVG Export Plug-In . SVG Version: 6.00 Build 0)  -->
<!DOCTYPE svg PUBLIC "-//W3C//DTD SVG 1.1//EN" "http://www.w3.org/Graphics/SVG/1.1/DTD/svg11.dtd">
<svg version="1.1" id="Layer_1" xmlns="http://www.w3.org/2000/svg" xmlns:xlink="http://www.w3.org/1999/xlink" x="0px" y="0px"
	 width="100%" height="100%" viewBox="0 0 1000 1000" style="enable-background:new 0 0 1000 1000;" xml:space="preserve">
<rect style="fill:#FFFFFF;" width="1000" height="1000"/>
<path style="fill:#FFFFFF;stroke:#231F20;stroke-width:2;stroke-miterlimit:10;" d="M510.754,412.112
	c-2.795,20.534-22.271,38.827-43.889,32.238c-24.978-7.643-22.978-42.017-25.138-62.067
	c-5.859-54.395-16.434-108.794-29.045-161.985c-14.187,35.45-27.161,71.364-40.097,107.285c-9.793,25.866-19.78,84.643-50.664,93.4
	c-39.912,11.318-54.56-46.839-68.383-73.736c-19.859-38.643-39.603-77.345-59.217-116.112c-3.639,36.993-6.134,74.083-9.753,111.078
	c-1.646,26.153,2.677,66.131-12.462,88.861c-8.957,14.925-28.388,20.222-43.981,12.188c-16.554-8.529-17.171-24.685-16.063-41.14
	c2.923-43.407,8.87-86.783,12.926-130.118c3.998-42.707,8.176-85.396,12.014-128.117c2.188-24.351,14.555-73.202,50.818-51.463
	c27.981,17.839,42.271,66.759,56.352,95.214c21.018,42.473,41.631,85.122,63.938,126.942c19.043-47.59,37.593-95.582,55.199-143.723
	c8.011-21.903,13.079-49.731,27.529-68.373c16.163-20.85,44.262-21.142,57.808,3.487c11.643,21.169,15.167,50.733,21.103,74.089
	c6.755,26.584,12.562,53.395,17.709,80.334C497.164,308.27,512.078,363.086,510.754,412.112z"/>
<path style="fill:none;stroke:#231F20;stroke-width:2;stroke-miterlimit:10;" d="M665.02,699.801
	c71.83-88.507,293.672-99.074,256.822-259.574c-31.031-135.17-307.293,7.853-217.482-23.214
	c184.896-63.957,234.539,27.666,156.632,110.703c-69.857,74.461-111.438,55.822-172.352,115.828
	C668.352,663.527,660.048,705.927,665.02,699.801z"/>
<path style="fill:#FFFFFF;stroke:#231F20;stroke-width:2;stroke-miterlimit:10;" d="M678.416,533.346
	c0,0,28.935-14.179,45.771-26.199c16.839-12.019,49.988-7.877,36.636,26.199c-13.351,34.066-79.646,50.178-79.646,50.178
	L678.416,533.346z"/>
<path style="fill:#FFFFFF;stroke:#231F20;stroke-width:2;stroke-miterlimit:10;" d="M515.559,533.346
	c0,0-28.93-14.179-45.771-26.199c-16.838-12.019-49.987-7.877-36.639,26.199c13.352,34.066,79.646,50.178,79.646,50.178
	L515.559,533.346z"/>
<path style="fill:#FFFFFF;stroke:#231F20;stroke-width:2;stroke-miterlimit:10;" d="M628.69,347.564
	c12.301-27.798,18.276-63.107,4.366-91.382c-27.659-56.229-90.272-42.72-123.59-1.911c-14.873,18.218-52.842,71.496-15.342,84.535
	C532.338,352.093,587.143,344.328,628.69,347.564z"/>
<path style="fill:#FFFFFF;stroke:#231F20;stroke-width:2;stroke-miterlimit:10;" d="M610.734,335.591
	c15.698-44.096-18.427-85.652-59.124-50.14c-18.078,15.774-27.893,43.287,0.312,45.508
	C571.527,332.502,591.131,334.046,610.734,335.591z"/>
<path style="fill:#FFFFFF;stroke:#231F20;stroke-width:2;stroke-miterlimit:10;" d="M523.263,492.353
	c0,0-23.478,95.3-31.765,149.856c-8.288,54.557,7.596,105.656,88.392,105.656c80.8,0,148.479-55.245,118.78-185.768
	c-29.693-130.518-45.577-104.271-45.577-104.271s-30.042,22.097-30.903,22.097c-0.864,0-53.531,11.741-55.856,11.046
	C564.01,490.28,523.263,492.353,523.263,492.353z"/>
<path style="fill:#FFFFFF;stroke:#231F20;stroke-width:2;stroke-miterlimit:10;" d="M386.531,423.293
	c56.911-59.513,186.319-164.219,258.276-71.13c-8.118-81.321,97.801-128.48,148.132-60.447
	c30.072,40.652,36.513,99.552,15.946,145.696c-20.8,46.667-87.641,35.578-120.568,6.6c-6.446,59.181-100.162,61.464-141.933,57.639
	C490.345,496.517,420.442,471.894,386.531,423.293z"/>
<path style="fill:#FFFFFF;stroke:#231F20;stroke-width:2;stroke-miterlimit:10;" d="M687.622,403.267c0,0-10.132-8.75-11.972-34.53
	c-1.841-25.777,27.627-60.304,56.168-56.161c28.543,4.143,49.258,58.001,37.748,90.69
	C758.062,435.958,711.104,423.521,687.622,403.267z"/>
<path style="stroke:#231F20;stroke-width:2;stroke-miterlimit:10;" d="M561.485,364.938c18.276,0,18.276,42.474,0,42.474
	C543.207,407.412,543.207,364.938,561.485,364.938z"/>
<path style="fill:#FFFFFF;stroke:#231F20;stroke-width:2;stroke-miterlimit:10;" d="M559.287,378.809
	c0,4.063,2.075,7.367,4.635,7.367c2.562,0,4.641-3.303,4.641-7.367c0-4.072-2.077-7.372-4.641-7.372
	C561.362,371.437,559.287,374.737,559.287,378.809z"/>
<path style="stroke:#231F20;stroke-width:2;stroke-miterlimit:10;" d="M491.499,373.571c0,8.966,3.404,16.228,7.596,16.228
	c4.193,0,7.598-7.262,7.598-16.228c0-8.96-3.404-16.225-7.598-16.225C494.902,357.346,491.499,364.612,491.499,373.571z"/>
<path style="fill:#FFFFFF;stroke:#231F20;stroke-width:2;stroke-miterlimit:10;" d="M497.301,366.254
	c0,2.959,1.125,5.355,2.509,5.355c1.382,0,2.505-2.397,2.505-5.355c0-2.956-1.123-5.35-2.505-5.35
	C498.425,360.904,497.301,363.298,497.301,366.254z"/>
<path style="fill:#FFFFFF;stroke:#231F20;stroke-width:2;stroke-miterlimit:10;" d="M534.749,444.701
	c21.107,0,52.099,9.674,61.025-18.646c4.411,13.039,2.19,28.312-8.668,37.579C556.876,489.435,544.604,472.643,534.749,444.701z"/>
<path style="fill:#FFFFFF;stroke:#231F20;stroke-width:2;stroke-miterlimit:10;" d="M606.064,410.693
	c0,4.885,7.218,8.854,16.125,8.854c8.904,0,16.121-3.969,16.121-8.854c0-4.893-7.217-8.859-16.121-8.859
	C613.284,401.833,606.064,405.802,606.064,410.693z"/>
<path style="fill:#FFFFFF;stroke:#231F20;stroke-width:2;stroke-miterlimit:10;" d="M366.696,423.947
	c0,11.883,11.215,21.515,25.045,21.515c13.839,0,25.054-9.632,25.054-21.515c0-11.88-11.214-21.518-25.054-21.518
	C377.911,402.431,366.696,412.066,366.696,423.947z"/>
<path style="fill:#FFFFFF;stroke:#231F20;stroke-width:2;stroke-miterlimit:10;" d="M584.955,742.271
	c0,12.879,14.533,23.314,32.457,23.314c17.925,0,32.459-10.438,32.459-23.314c0-12.886-14.532-23.322-32.459-23.322
	C599.488,718.949,584.955,729.389,584.955,742.271z"/>
<path style="fill:#FFFFFF;stroke:#231F20;stroke-width:2;stroke-miterlimit:10;" d="M483.564,742.271
	c0,12.869,14.326,23.314,31.993,23.314c17.673,0,31.998-10.445,31.998-23.314c0-12.883-14.325-23.322-31.998-23.322
	C497.891,718.949,483.564,729.393,483.564,742.271z"/>
<path style="fill:#FFFFFF;stroke:#231F20;stroke-width:2;stroke-miterlimit:10;" d="M731.234,523.719
	c0,6.647,5.387,12.038,12.028,12.038c6.648,0,12.035-5.391,12.035-12.038c0-6.64-5.387-12.031-12.035-12.031
	C736.621,511.688,731.234,517.079,731.234,523.719z"/>
<path style="fill:#FFFFFF;stroke:#231F20;stroke-width:2;stroke-miterlimit:10;" d="M440.101,523.719
	c0,6.647,5.387,12.038,12.035,12.038c6.646,0,12.029-5.391,12.029-12.038c0-6.64-5.383-12.031-12.029-12.031
	C445.486,511.688,440.101,517.079,440.101,523.719z"/>
<path style="fill:#FFFFFF;stroke:#231F20;stroke-width:2;stroke-miterlimit:10;" d="M576.278,682.775
	c30.432-0.566,54.464-37.4,53.626-82.267c-0.837-44.866-26.229-80.758-56.657-80.188c-30.454,0.568-54.491,37.382-53.646,82.247
	C520.438,647.44,545.828,683.345,576.278,682.775z"/>
<path style="fill:#FFFFFF;stroke:#000000;stroke-width:2;" d="M301.486,939.785c4.585,8.84-6.651,8.977-10.81,3.495
	c-6.132-8.089-9.197-19.159-9.51-29.138c-0.336-10.713,2.099-20.165,7.071-29.463c1.298-2.302,12.438-16.232,13.491-5.485
	c0.668,6.88-9.297,18.867-10.24,26.902C290.107,917.822,291.825,931.892,301.486,939.785z"/>
<path style="fill:#FFFFFF;stroke:#000000;stroke-width:2;" d="M317.01,935.519c-10.99,7.95-7.802-30.809-7.802-34.3
	c0-21.199,10.428-25.852,9.915,0.53c17.975-12.155,24.812,10.518,24.261,23.977c-0.716,17.512-11.439,9.964-10.12-4.146
	c1.12-11.974-5.184-15.833-12.843-6.909C317.212,920.045,322.669,931.405,317.01,935.519
	C315.926,936.303,318.093,934.731,317.01,935.519z"/>
<path style="fill:#FFFFFF;stroke:#000000;stroke-width:2;" d="M348.708,914.427c5.896-24.495,39.956-20.424,34.299,6.257
	C377.521,946.48,342.592,939.547,348.708,914.427z"/>
<path style="fill:#FFFFFF;stroke:#000000;stroke-width:2;" d="M358.461,916.134c-1.708,9.086,6.624,17.555,13.085,6.624
	C379.674,909.027,363.091,900.866,358.461,916.134C358.298,917.001,358.839,914.888,358.461,916.134z"/>
<path style="fill:#FFFFFF;stroke:#000000;stroke-width:2;" d="M424.862,927.513c3.125,4.516-2.388,11.094-6.99,6.502
	c-6.681-6.666-27.306,9.072-28.486-14.957c-0.234-4.771-1.197-13.939,0.815-18.856c4.867-11.923,9.358,6.719,9.102,9.672
	c-0.453,5.223,1.449,22.703,10.688,12.842c4.813-5.51,0.437-14.067,2.641-21.009C418.927,881.88,424.822,927.456,424.862,927.513
	C425.35,928.217,423.94,926.212,424.862,927.513z"/>
<path style="fill:#FFFFFF;stroke:#000000;stroke-width:2;" d="M430.468,928.406c-5.479-15.517,17.539,2.302,19.183-3.17
	c1.734-5.824-13.329-7.273-16.175-11.541c-7.807-11.511,6.187-21.421,16.743-18.247c23.43,6.993-10.942,11.619-7.801,13.372
	c8.528,4.604,22.72,6.419,15.93,20.806C452.468,942.07,436.846,937.038,430.468,928.406z"/>
<path style="fill:#FFFFFF;stroke:#000000;stroke-width:2;" d="M495.082,922.961c10.41-2.603,5.002,9.011-1.301,11.216
	c-16.03,5.896-31.579-3.784-27.959-21.862c5.853-29.372,60.602-4.227,10.891,11.785
	C481.374,929.424,490.282,926.236,495.082,922.961z"/>
<path style="fill:#FFFFFF;stroke:#000000;stroke-width:2;" d="M478.665,908.98c-2.595,1.603-3.95,3.959-4.064,7.071
	C487.193,912.184,495.062,901.145,478.665,908.98z"/>
<path style="fill:#FFFFFF;stroke:#000000;stroke-width:2;" d="M556.282,910.607c-5.144-9.282-10.566-2.562-10.566,4.787
	c0,3.302,1.738,12.921,0,15.774c0,11.324-9.876,2.443-9.946-5.711c-0.052-6.089-3.027-23.627,1.048-28.183
	c2.78-3.118,18.131-1.209,21.202,0.396c7.426,3.881,28.01-8.41,28.01,12.702c0,1.862,1.755,35.512-8.697,24.369
	c-4.882-5.211,4.658-29.602-6.177-29.016c-11.356,0.648-0.751,22.893-6.381,28.691C554.378,945.104,556.348,914.223,556.282,910.607
	z"/>
<path style="fill:#FFFFFF;stroke:#000000;stroke-width:2;" d="M590.986,914.427c5.909-24.49,39.956-20.426,34.299,6.257
	C619.8,946.479,584.871,939.547,590.986,914.427z"/>
<path style="fill:#FFFFFF;stroke:#000000;stroke-width:2;" d="M600.74,916.134c-1.708,9.083,6.627,17.559,13.085,6.624
	C621.952,909.029,605.371,900.865,600.74,916.134C600.577,917.001,601.118,914.888,600.74,916.134z"/>
<path style="fill:#FFFFFF;stroke:#000000;stroke-width:2;" d="M667.142,927.513c3.13,4.514-2.389,11.096-6.988,6.502
	c-6.678-6.662-27.315,9.071-28.487-14.957c-0.234-4.778-1.194-13.933,0.812-18.856c4.868-11.926,9.359,6.723,9.104,9.672
	c-0.453,5.23,1.445,22.695,10.689,12.842c4.816-5.513,0.43-14.065,2.641-21.009C661.191,881.873,667.108,927.466,667.142,927.513
	C667.63,928.217,666.221,926.212,667.142,927.513z"/>
<path style="fill:#FFFFFF;stroke:#000000;stroke-width:2;" d="M672.748,928.406c-5.477-15.51,17.531,2.294,19.183-3.17
	c1.742-5.815-13.333-7.281-16.174-11.541c-7.807-11.51,6.186-21.421,16.741-18.247c23.432,6.999-10.946,11.617-7.801,13.372
	c8.531,4.604,22.715,6.416,15.931,20.806C694.744,942.066,679.129,937.041,672.748,928.406z"/>
<path style="fill:#FFFFFF;stroke:#000000;stroke-width:2;" d="M737.362,922.961c10.409-2.603,4.999,9.011-1.303,11.216
	c-16.023,5.897-31.586-3.786-27.958-21.862c5.852-29.366,60.599-4.234,10.892,11.785
	C723.651,929.426,732.563,926.234,737.362,922.961z"/>
<path style="fill:#FFFFFF;stroke:#000000;stroke-width:2;" d="M720.944,908.98c-2.596,1.602-3.95,3.959-4.064,7.071
	C729.473,912.183,737.341,901.146,720.944,908.98z"/>
<path style="fill:#FFFFFF;stroke:#000000;stroke-width:2;" d="M746.71,938.729c10.697-10.745,11.881-29.215,6.747-42.995
	c-1.747-4.7-7.758-9.747-8.046-14.792c-0.216-5.566,6.893-7.303,9.43-2.438c12.524,17.668,14.679,38.631,5.405,58.642
	C755.93,946.441,740.251,951.707,746.71,938.729z"/>
<g>
	<path style="fill:#FFFFFF;stroke:#000000;stroke-width:2;" d="M278.036,845.627c-1.849,13.55-13.088,3.872-13.923-4.53
		c-1.064-11.611-3.392-23.255-6.077-34.586c-3.708,9.267-8.39,35.709-16.906,40.276c-12.321,6.595-23.736-30.383-27.625-38.066
		c-1.207,12.284-1.283,24.891-3.259,37.072c-0.946,5.786-7.94,9.917-12.376,4.42c-4.741-5.881,0.754-25.207,1.395-32.071
		c0.483-5.178-0.429-45.697,12.915-37.708c11.632,7.416,17.965,32.996,24.53,45.304c3.348-8.367,13.405-50.394,24.696-46.133
		C274.878,784.734,276.85,833.042,278.036,845.627z"/>
	<path style="fill:#FFFFFF;stroke:#000000;stroke-width:2;" d="M332.068,839.881c6.549,9.471-6.809,13.459-12.818,4.862
		c-12.584,10.332-30.422,4.892-34.6-10.967c-2.224-8.441-0.538-17.424-0.538-25.994c0-8.615,12.913-13.411,13.48-3.26
		c0.31,7.938-4.597,27.527,4.862,32.044c15.398,6.702,11.763-21.977,12.1-27.017c0.441-6.624,10.066-17.172,13.646-6.464
		C332.183,815.046,323.677,828.047,332.068,839.881C332.731,840.84,330.815,838.113,332.068,839.881z"/>
	<path style="fill:#FFFFFF;stroke:#000000;stroke-width:2;" d="M339.69,841.097c-8.126-23.024,28.081,7.443,26.243-6.686
		c-1.201-9.2-23.04-5.423-24.641-19.889c-2.043-18.295,17.346-21.976,30.331-16.409c11.4,5.232,2.858,15.19-6.851,11.713
		c-8.686-3.37-14.92,3.819-3.205,6.851C399.29,826.473,363.749,874.154,339.69,841.097z"/>
	<path style="fill:#FFFFFF;stroke:#000000;stroke-width:2;" d="M455.932,816.897c-4.39-16.863-14.365,0.335-14.365,8.166
		c0,4.771,2.107,15.459,0,19.79c0,5.656-6.254,9.842-11.16,6.354c-5.042-3.579-2.4-19.668-2.375-24.364
		c0.034-6.844-4.227-27.596,4.751-30.166c7.159-2.046,24.336,0.401,30.774,6.409c19.992-19.991,32.817,6.178,32.817,23.804
		c0,3.857,1.921,14.087,0,17.521c0,8.938-13.48,10.173-13.48,0.553c-1.825-3.51,5.141-44.667-10.553-33.26
		c-10.366,7.547,6.289,36.435-9.116,40.11C452.276,854.42,456.039,822.822,455.932,816.897z"/>
	<path style="fill:#FFFFFF;stroke:#000000;stroke-width:2;" d="M552.726,839.881c6.548,9.47-6.81,13.462-12.817,4.862
		c-12.585,10.331-30.422,4.892-34.6-10.967c-2.225-8.44-0.539-17.425-0.539-25.994c0-8.615,12.912-13.411,13.48-3.26
		c0.31,7.938-4.596,27.527,4.862,32.044c15.396,6.704,11.764-21.978,12.1-27.017c0.441-6.626,10.062-17.171,13.646-6.464
		C552.835,815.047,544.332,828.05,552.726,839.881C553.389,840.84,551.472,838.113,552.726,839.881z"/>
	<path style="fill:#FFFFFF;stroke:#000000;stroke-width:2;" d="M560.348,841.097c-8.12-23.031,28.081,7.447,26.243-6.686
		c-1.2-9.2-23.039-5.424-24.641-19.889c-2.04-18.295,17.344-21.977,30.331-16.409c11.399,5.23,2.859,15.192-6.851,11.713
		c-8.686-3.371-14.92,3.819-3.204,6.851C619.947,826.478,584.405,874.152,560.348,841.097z"/>
	<path style="fill:#FFFFFF;stroke:#000000;stroke-width:2;" d="M637.254,834.688c10.155-6.492,14.238,7.128,5.912,12.818
		c-9.939,6.778-23.277,5.365-30.773-4.144c-17.348-21.978,10.218-63.282,35.524-41.603c18.237,15.632-15.576,7.593-16.354,7.68
		C613.524,811.44,620.723,850.745,637.254,834.688z"/>
	<path style="fill:#FFFFFF;stroke:#000000;stroke-width:2;" d="M706.425,839.881c6.548,9.47-6.81,13.462-12.817,4.862
		c-12.585,10.331-30.422,4.893-34.601-10.967c-2.224-8.44-0.538-17.425-0.538-25.994c0-8.615,12.912-13.411,13.48-3.26
		c0.312,7.938-4.597,27.526,4.862,32.044c15.396,6.704,11.764-21.978,12.1-27.017c0.441-6.626,10.062-17.171,13.646-6.464
		C706.534,815.047,698.031,828.05,706.425,839.881C707.088,840.84,705.171,838.113,706.425,839.881z"/>
	<path style="fill:#FFFFFF;stroke:#000000;stroke-width:2;" d="M732.83,841.649c12.397,11.291-14.365,17.576-14.365,2.651
		c-4.609-10.073,0-32.762,0-43.8c0-3.925,1.452-37.745,12.763-20.398C739.584,792.979,729.689,827.422,732.83,841.649z"/>
	<path style="fill:#FFFFFF;stroke:#000000;stroke-width:2;" d="M790.952,839.881c6.548,9.47-6.81,13.462-12.817,4.862
		c-12.585,10.331-30.422,4.893-34.601-10.967c-2.224-8.44-0.538-17.425-0.538-25.994c0-8.615,12.912-13.411,13.48-3.26
		c0.312,7.938-4.597,27.526,4.862,32.044c15.396,6.704,11.764-21.978,12.1-27.017c0.441-6.626,10.062-17.171,13.646-6.464
		C791.062,815.047,782.559,828.05,790.952,839.881C791.615,840.84,789.698,838.113,790.952,839.881z"/>
	<path style="fill:#FFFFFF;stroke:#000000;stroke-width:2;" d="M798.573,841.097c-8.12-23.031,28.081,7.447,26.243-6.686
		c-1.2-9.2-23.039-5.424-24.641-19.889c-2.04-18.295,17.344-21.977,30.331-16.409c11.399,5.23,2.859,15.192-6.851,11.713
		c-8.686-3.371-14.92,3.819-3.204,6.851C858.173,826.478,822.631,874.152,798.573,841.097z"/>
</g>
</svg>
