<?xml version="1.0" encoding="utf-8"?>
<!-- Generator: Adobe Illustrator 16.0.0, SVG Export Plug-In . SVG Version: 6.00 Build 0)  -->
<!DOCTYPE svg PUBLIC "-//W3C//DTD SVG 1.1//EN" "http://www.w3.org/Graphics/SVG/1.1/DTD/svg11.dtd">
<svg version="1.1" id="Layer_1" xmlns="http://www.w3.org/2000/svg" xmlns:xlink="http://www.w3.org/1999/xlink" x="0px" y="0px"
	 width="100%" height="100%" viewBox="0 0 1000 1000" style="enable-background:new 0 0 1000 1000;" xml:space="preserve">
<rect style="fill:#FFFFFF;" width="1000" height="1000"/>
<path style="fill:#FFFFFF;stroke:#231F20;stroke-width:2;stroke-miterlimit:10;" d="M740.523,454.106
	c5.779,16.979,30.86,73.205,52.81,40.811c6.659-9.828,24.975-35.979,39.482-26.418c11.749,7.742,7.996,29.698,3.859,40.121
	c-7.536,18.988-26.655,41.118-44.686,51.668c-3.044,1.781-25.734,11.437-27.009,5.609c-1.153-5.271-2.307-10.542-3.46-15.812
	C754.521,518.093,747.522,486.1,740.523,454.106z"/>
<path style="fill:#FFFFFF;stroke:#231F20;stroke-width:2;stroke-miterlimit:10;" d="M799.663,486.093
	c11.542,9.343,23.083,18.687,34.625,28.03c7.504-13.34,13.205-34.346-1.322-45.178C819.52,458.934,806.55,475.489,799.663,486.093z"
	/>
<path style="fill:#FFFFFF;stroke:#231F20;stroke-width:2;stroke-miterlimit:10;" d="M518.93,623.822
	c0,0-43.091-23.742-55.399-61.556c0,0-26.382-38.69-1.759-87.936c0,0,78.261-113.436,21.104-168.836
	c0,0-84.198-77.602-146.851,15.829c-59.134,88.18,53.64,274.358,53.64,274.358S450.34,695.927,510.136,706.48
	C510.135,706.48,543.55,658.117,518.93,623.822z"/>
<path style="fill:#FFFFFF;stroke:#231F20;stroke-width:2;stroke-miterlimit:10;" d="M493.641,317.452
	c-46.385,0.823-129.463,2.591-159.376,5.089c-11.806,19.232-16.022,42.723-15.26,67.823l181.33-4.284
	C505.604,362.332,505.646,337.629,493.641,317.452z"/>
<path style="fill:#FFFFFF;stroke:#231F20;stroke-width:2;stroke-miterlimit:10;" d="M494.404,406.995
	c-34.089,3.915-130.659,15.153-170.986,21.406c3.457,18.167,8.618,36.402,14.606,53.824l127.507-15.452
	C471.969,456.504,485.301,433.603,494.404,406.995z"/>
<path style="fill:#FFFFFF;stroke:#231F20;stroke-width:2;stroke-miterlimit:10;" d="M452.637,500.052
	c-27.561,9.872-63.951,22.985-93.845,34.026c6.952,15.295,13.633,28.514,19.012,38.629l78.271-28.299
	C452.436,533.684,449.49,518.262,452.637,500.052z"/>
<path style="fill:#FFFFFF;stroke:#231F20;stroke-width:2;stroke-miterlimit:10;" d="M467.361,569.812
	c-19.139,14.157-41.996,31.129-62.585,46.586c7.031,9.78,16.183,21.705,26.778,33.633l62.327-46.34
	C484.207,595.02,473.977,583.549,467.361,569.812z"/>
<path style="fill:#FFFFFF;stroke:#231F20;stroke-width:2;stroke-miterlimit:10;" d="M518.93,622.064c0,0-2.396-1.341-6.134-3.787
	l-55.503,57.438c7.611,6.605,15.561,12.576,23.692,17.422c15.63-16.094,32.212-33.271,46.599-48.202
	C526.683,637.076,524.097,629.262,518.93,622.064z"/>
<path style="fill:#FFFFFF;stroke:#231F20;stroke-width:2;stroke-miterlimit:10;" d="M763.389,589.307
	c47.648,19.585,29.642,100.796-1.979,127.288c9.074-0.384,31.304-2.23,36.368,7.481c4.053,7.771-7.268,14.395-12.784,16.347
	c-26.923,9.523-61.839,1.385-89.536-0.746c0-6.004,4.052-13.929,5.79-19.575c4.939-16.052,10.236-31.999,16.029-47.764
	c6.46-17.578,13.443-35.081,22.108-51.704C745.062,609.741,752.146,595.526,763.389,589.307z"/>
<path style="fill:#FFFFFF;stroke:#231F20;stroke-width:2;stroke-miterlimit:10;" d="M591.914,748.252
	c37.49,10.83,84.146,6.196,117.445-14.545c29.311-18.258,45.099-52.878,51.927-85.481c9.793-46.755,5.159-99.305-3.706-146.121
	c-2.07-10.937-6.871-48.635-21.764-47.704c-19.785,1.237-39.571,2.474-59.356,3.71c-7.031,0.439-6.21,0.127-7.955,6.584
	c-2.604,9.645-5.21,19.29-7.815,28.934c-9.031,33.436-18.062,66.871-27.093,100.307
	C619.702,645.374,605.809,696.812,591.914,748.252z"/>
<path style="fill:#FFFFFF;stroke:#231F20;stroke-width:2;stroke-miterlimit:10;" d="M630.995,599.131
	c20.146,4.601,42.19-0.887,57.711-14.551c11.607-10.22,30.138-37.457,19.827-53.524c-6.197-9.66-16.412-2.81-21.879,3.425
	c-6.429,7.332-13.677,13.442-22.537,17.658c-5.226,2.486-22.216,3.818-24.155,8.922c-4.767,12.577-7.927,25.764-9.374,39.136"/>
<path style="fill:#FFFFFF;stroke:#231F20;stroke-width:2;stroke-miterlimit:10;" d="M754.354,273.659
	c-5.403-43.098,61.227-39.337,84.684-56.088c9.201,33.981,31.22,84.548,2.849,115.436c-7.931,8.634-8.316,6.212-15.82,0.002
	c-9.194-7.609-18.388-15.218-27.582-22.827C783.773,298.008,769.063,285.833,754.354,273.659z"/>
<path style="fill:#FFFFFF;stroke:#231F20;stroke-width:2;stroke-miterlimit:10;" d="M563.562,229.774
	c-7.283,16.97-11.639,35.851-12.053,54.306c-0.583,26.019,10.367,44.108,24.7,64.469c24.032-22.804,48.064-45.608,72.096-68.412
	c8.727-8.28-15.107-26.519-21.789-30.905C608.161,237.181,580.041,244.195,563.562,229.774z"/>
<path style="fill:#FFFFFF;stroke:#231F20;stroke-width:2;stroke-miterlimit:10;" d="M702.714,754.846
	c0-17.238-41.854-13.753-50.681-24.896c-9.235-11.659-2.145-25.894,3.435-37.16c8.02-16.192,11.197-37.036,7.253-54.743
	c-3.165-14.206-11.085-26.922-22.063-36.419c-5.29-4.576-7.818-4.982-5.76-12.165c1.576-5.496,4.301-10.595,5.872-16.075
	c11.056-38.556,22.586-77.008,32.928-115.763c-11.717-2.037-23.512-4.811-35.303-6.295c-7.505-0.944-11.514,11.505-14.606,16.389
	c-13.037,20.591-26.426,41.176-39.78,61.544c-12.826,19.563-33.601,34.1-48.153,52.71c-13.582,17.369-25.464,36.629-32.437,57.651
	c-6.686,20.162-8.285,42.292-0.008,62.255c4.304,10.38,10.985,20.165,19.454,27.588c4.664,4.087,9.795,7.693,15.108,10.879
	c6.734,4.036,3.544,7.832,4.323,15.201c0.459,4.325,65.04,4.201,71.899,4.512c29.727,1.343,59.453,2.68,89.18,4.021
	C703.154,761.001,702.935,757.924,702.714,754.846C702.714,743.627,702.935,757.924,702.714,754.846z"/>
<path style="fill:#FFFFFF;stroke:#231F20;stroke-width:2;stroke-miterlimit:10;" d="M810.874,323.962"/>
<path style="fill:#FFFFFF;stroke:#231F20;stroke-width:2;stroke-miterlimit:10;" d="M847.852,353.304
	c-19.721-49.471-63.779-96.075-119.312-100.355c-36.194-2.79-73.372,3.265-103.463,24.288c-23.631,16.509-41.247,41.302-53.55,67.09
	c-8.456,17.727-25.768,28.922-27.112,50.327c-1.45,23.072,14.771,42.941,31.074,57.302c18.72,16.49,40.905,29.279,63.723,39.194
	c20.503,8.909,39.424,11.589,61.706,13.613c44.229,1.759,87.774-13.579,125.312-36.42c18.964-11.54,39.341-27.126,46.922-48.898
	C882.07,393.825,866.148,370.066,847.852,353.304z"/>
<path style="fill:#231F20;stroke:#231F20;stroke-width:2;stroke-miterlimit:10;" d="M649.301,406.282
	c17.775,0,17.774,30.562,0,30.562S631.525,406.282,649.301,406.282z"/>
<path style="fill:#231F20;stroke:#231F20;stroke-width:2;stroke-miterlimit:10;" d="M762.725,406.282
	c17.775,0,17.774,30.562,0,30.562S744.949,406.282,762.725,406.282z"/>
<path style="fill:#FFFFFF;stroke:#231F20;stroke-width:2;stroke-miterlimit:10;" d="M824.771,247.273
	c-18.77,3.24-40.941,8.72-55.368,21.807c-6.131,5.562-11.337,15.021-6.096,22.778c8.208,12.149,21.103,3.612,31.77,0.872
	c-1.756,9.026-2.401,21.397,4.408,28.578c6.143,6.477,17.058,5.503,23.781,0.588c10.297-7.528,11.242-21.736,9.898-33.341
	C831.795,276.718,832.113,257.239,824.771,247.273z"/>
<path style="fill:#FFFFFF;stroke:#231F20;stroke-width:2;stroke-miterlimit:10;" d="M581.093,263.214
	c-3.243,16.43-5.775,34.846-2.123,51.37c1.438,6.499,5.528,16.297,13.778,15.659c4.565-0.353,9.197-1.546,13.229-3.744
	c2.477-1.35,10.479-13.119,10.137-13.083c13.007-1.383,34.633-10.634,26.271-27.38C631.727,264.688,601.807,261.955,581.093,263.214
	z"/>
<path style="fill:#FFFFFF;stroke:#231F20;stroke-width:2;stroke-miterlimit:10;" d="M723.943,449.636c0,20.29-38.647,20.29-38.647,0
	C685.296,433.08,723.943,433.273,723.943,449.636z"/>
<path style="fill:#FFFFFF;stroke:#231F20;stroke-width:2;stroke-miterlimit:10;" d="M632.365,487.521
	c7.494-21.728,22.453-43.103,42.806-54.338c22.019-12.156,44.625-8.74,65.4,4.099c15.822,9.778,27.723,24.61,35.343,41.466
	c1.78,3.938,7.439,10.705,2.208,12.907c-4.941,2.08-10.005,3.875-15.116,5.486C720.351,510.589,671.625,511.23,632.365,487.521z"/>
<path style="fill:#FFFFFF;stroke:#231F20;stroke-width:2;stroke-miterlimit:10;" d="M730.097,450.29c0,25.68-48.917,25.679-48.917,0
	C681.18,429.334,730.097,429.581,730.097,450.29C730.097,460.973,730.097,439.605,730.097,450.29z"/>
<path style="fill:#FFFFFF;stroke:#231F20;stroke-width:2;stroke-miterlimit:10;" d="M646.76,498.285
	c1.713,12.03,4.219,24.808,9.853,35.664c7.749,14.932,16.011,6.61,26.99,1.154c12.354-6.14,34.871-14.057,43.744,1.717
	c9.409,16.726-11.642,30.864-21.823,40.117c-15.394,13.988-35.484,24.881-56.448,26.583c-5.321,0.432-15.576,2.849-16.946-3.616
	c-1.23-5.811-2.297-11.657-3.234-17.521C625.996,564.251,614.284,498.137,646.76,498.285z"/>
<path style="fill:#FFFFFF;stroke:#231F20;stroke-width:2;stroke-miterlimit:10;" d="M676.827,539.991
	c3.784,11.089,8.701,22.842,16.476,31.742c10.479,11.997,19.261,4.562,27.433-5.241c7.948-9.534,16.772-27.821,4.22-37.638
	C709.368,516.663,689.017,528.917,676.827,539.991z"/>
<path style="fill:#FFFFFF;stroke:#231F20;stroke-width:2;stroke-miterlimit:10;" d="M650.391,406.282c10.944,0,10.944,18.81,0,18.81
	C639.447,425.092,639.447,406.282,650.391,406.282z"/>
<path style="fill:#FFFFFF;stroke:#231F20;stroke-width:2;stroke-miterlimit:10;" d="M762.724,406.282c10.944,0,10.944,18.81,0,18.81
	C751.78,425.092,751.78,406.282,762.724,406.282z"/>
<path style="fill:#FFFFFF;stroke:#000000;stroke-width:2;" d="M255.917,782.051c1.639-5.461,8.579-8.019,12.155-2.651
	c3.305,4.156,1.31,13.596,1.284,18.551c-0.083,15.776-0.625,31.554-1.505,47.306c0,11.915-12.334,2.899-15.013-1.373
	c-8.841-14.105-18.872-27.43-29.296-40.396c0,9.881,0,19.762,0,29.642c0,4.786,1.792,15.95-3.923,18.425
	c-11.557,4.99-9.337-13.238-9.337-18.562c0-8.625-5.485-54.133,6.188-54.917c7.427-0.485,13.177,11.236,17.262,16.23
	c7.534,9.218,14.792,18.581,21.522,28.409C255.701,809.166,255.415,795.577,255.917,782.051z"/>
<path style="fill:#FFFFFF;stroke:#000000;stroke-width:2;" d="M325.862,842.713c1.841,6.684-5.277,11.027-10.774,6.63
	c-3.342-2.673-15.076,2.901-21.725,1.633c-20.662-3.939-18.802-29.396-8.053-42.296c9.288-11.352,35.249-20.26,35.249,1.105
	C320.559,822.17,320.416,831.547,325.862,842.713z"/>
<path style="fill:#FFFFFF;stroke:#000000;stroke-width:2;" d="M302.437,837.741c6.147-3.908,5.094-4.689,4.567-11.676
	c-0.394-5.223-0.343-10.498-0.146-15.729C290.552,813.239,286.096,844.27,302.437,837.741
	C303.247,837.227,301.332,838.183,302.437,837.741z"/>
<path style="fill:#FFFFFF;stroke:#000000;stroke-width:2;" d="M332.159,840.172c-1.679-4.757,0.756-10.521,6.52-9.943
	c4.542,0.416,7.015,5.914,11.381,7.291c3.521,1.114,12.443-0.313,7.515-6.076c-3.18-3.177-8.899-3.283-12.901-5.014
	c-26.591-11.49,1.556-45.149,21.741-27.775c3.273,2.817,4.52,9.713-0.456,11.602c-5.691,2.16-10.958-4.363-16.782-2.128
	c-9.541,2.433,14.922,11.216,16.078,11.935c12.266,7.641,6.337,27.657-6.121,31.313C349.333,854.25,337.602,848.369,332.159,840.172
	z"/>
<path style="fill:#FFFFFF;stroke:#000000;stroke-width:2;" d="M427.738,838.956c2.756,3.986,0.744,11.104-4.862,10.829
	c-6.36-0.492-5.188-7.479-10.86-3.85c-10.894,6.973-23.828,3.005-29.803-8.194c-4.898-9.351-2.431-20.82-2.431-30.884
	c0-3.593,1.146-8.42,5.523-9.062c8.409-1.232,8.182,7.83,7.932,13.363c-0.268,5.909-3.229,25.338,7.44,24.993
	c12.301-0.398,9.159-15.301,9.379-22.942c0-4.672,0.055-12.133,4.944-14.71c5.161-2.72,9.42,2.163,9.42,7.196
	C424.423,816.7,420.756,829.109,427.738,838.956C428.401,839.915,426.485,837.188,427.738,838.956z"/>
<path style="fill:#FFFFFF;stroke:#000000;stroke-width:2;" d="M483.207,842.713c1.841,6.684-5.277,11.027-10.774,6.63
	c-3.342-2.673-15.075,2.901-21.725,1.633c-20.662-3.939-18.802-29.396-8.053-42.296c9.288-11.352,35.249-20.26,35.249,1.105
	C477.903,822.17,477.76,831.547,483.207,842.713z"/>
<path style="fill:#FFFFFF;stroke:#000000;stroke-width:2;" d="M459.781,837.741c6.146-3.908,5.094-4.689,4.566-11.676
	c-0.394-5.223-0.343-10.498-0.146-15.729C447.896,813.239,443.44,844.27,459.781,837.741
	C460.591,837.227,458.676,838.183,459.781,837.741z"/>
<path style="fill:#FFFFFF;stroke:#000000;stroke-width:2;" d="M576.464,844.702c-0.616,5.145-7.881,9.958-11.768,4.724
	c-3.61-4.859-1.725-13.468-1.707-19.082c0.024-8.66,3.265-29.18-11.389-17.797c-6.926,5.635-5.192,14.125-5.192,22.054
	c0,4.399,1.062,9.548-1.325,13.527c-4.905,8.171-12.29-1.307-12.1-7.017c0.213-6.716-0.057-13.449-0.057-20.166
	c0-5.146-2.402-17.209,1.438-21.492c5.07-5.656,9.393,1.585,14.093-0.656c6.869-3.273,15.971-3.955,22.254,0.97
	C580.842,807.706,576.464,833.349,576.464,844.702z"/>
<path style="fill:#FFFFFF;stroke:#000000;stroke-width:2;" d="M633.701,842.713c1.838,6.684-5.275,11.029-10.774,6.63
	c-3.342-2.673-15.075,2.901-21.725,1.633c-20.658-3.939-18.808-29.396-8.054-42.296c9.287-11.353,35.248-20.259,35.248,1.105
	C628.396,822.17,628.254,831.547,633.701,842.713z"/>
<path style="fill:#FFFFFF;stroke:#000000;stroke-width:2;" d="M610.275,837.741c6.147-3.908,5.094-4.689,4.566-11.676
	c-0.394-5.223-0.343-10.498-0.146-15.729C598.394,813.239,593.93,844.268,610.275,837.741
	C611.085,837.227,609.17,838.183,610.275,837.741z"/>
<path style="fill:#FFFFFF;stroke:#000000;stroke-width:2;" d="M639.997,840.172c-1.681-4.757,0.758-10.521,6.52-9.943
	c4.542,0.416,7.016,5.914,11.383,7.291c3.522,1.114,12.438-0.312,7.514-6.076c-3.18-3.176-8.899-3.283-12.901-5.014
	c-26.592-11.492,1.558-45.15,21.741-27.775c3.273,2.817,4.521,9.714-0.456,11.602c-5.69,2.159-10.959-4.362-16.782-2.128
	c-9.54,2.433,14.923,11.216,16.078,11.935c12.264,7.644,6.338,27.656-6.121,31.313C657.173,854.25,645.438,848.37,639.997,840.172z"
	/>
<path style="fill:#FFFFFF;stroke:#000000;stroke-width:2;" d="M735.576,838.956c2.76,3.986,0.742,11.104-4.861,10.829
	c-6.359-0.492-5.188-7.479-10.859-3.85c-10.895,6.973-23.827,3.004-29.804-8.194c-4.898-9.351-2.431-20.82-2.431-30.884
	c0-3.593,1.146-8.42,5.523-9.062c8.409-1.232,8.182,7.83,7.932,13.363c-0.267,5.908-3.228,25.338,7.44,24.993
	c12.3-0.398,9.159-15.301,9.379-22.942c0-4.672,0.057-12.133,4.945-14.71c5.16-2.72,9.42,2.164,9.42,7.196
	C732.262,816.701,728.596,829.108,735.576,838.956C736.24,839.915,734.323,837.188,735.576,838.956z"/>
<path style="fill:#FFFFFF;stroke:#000000;stroke-width:2;" d="M791.045,842.713c1.841,6.685-5.277,11.027-10.773,6.63
	c-3.343-2.673-15.075,2.901-21.726,1.633c-20.663-3.939-18.8-29.394-8.054-42.296c9.289-11.351,35.249-20.261,35.249,1.105
	C785.741,822.17,785.598,831.547,791.045,842.713z"/>
<path style="fill:#FFFFFF;stroke:#000000;stroke-width:2;" d="M767.619,837.741c6.148-3.904,5.095-4.692,4.566-11.676
	c-0.394-5.223-0.343-10.498-0.146-15.729C755.732,813.24,751.281,844.271,767.619,837.741
	C768.43,837.227,766.515,838.183,767.619,837.741z"/>
<path style="fill:#FFFFFF;stroke:#000000;stroke-width:2;" d="M207.546,943.625c3.855,7.438-4.451,10.025-9.086,5.718
	c-4.245-3.943-6.747-10.094-8.609-15.462c-5.982-17.24-2.638-34.305,6.051-49.759c5.328-9.47,16.071-4.729,9.282,4.641
	c-3.53,4.874-5.923,9.846-7.086,15.736C195.514,917.597,196.384,934.564,207.546,943.625z"/>
<path style="fill:#FFFFFF;stroke:#000000;stroke-width:2;" d="M214.094,912.009c0.327-2.162-7.681-14.612,3.688-11.312
	c7.711,2.251,16.855-6.548,24.406,1.947c2.124,2.387,1.849,6.773-1.16,8.37c-3.252,1.729-5.169-1.171-7.707-2.444
	c-5.08-1.263-9.199,4.371-9.199,8.605c0,5.422,0,10.843,0,16.266c0,6.975-10.11,10.358-10.11,1.979
	C212.065,929.929,213.198,917.809,214.094,912.009C214.148,911.65,214.038,912.369,214.094,912.009z"/>
<path style="fill:#FFFFFF;stroke:#000000;stroke-width:2;" d="M248.484,888.1c0.775-7.192,11.124-7.703,11.354-0.165
	C260.288,895.643,249.088,895.667,248.484,888.1z"/>
<path style="fill:#FFFFFF;stroke:#000000;stroke-width:2;" d="M259.423,935.255c-0.917,9.109-10.508,4.159-10.235-3.024
	c0.336-9.148-2.253-20.612-0.041-29.462c0.764-2.76,3.505-4.847,6.422-4.144c4.887,1.188,3.688,8.279,3.688,11.769
	C259.257,918.681,259.423,926.967,259.423,935.255z"/>
<path style="fill:#FFFFFF;stroke:#000000;stroke-width:2;" d="M301.688,935.421c-0.603,5.031-7.902,7.574-9.696,1.74
	c-1.741-5.413-0.427-12.812-0.373-18.439c0.019-2.05,0.747-7.95-0.87-9.571c-4.769-1.241-11.603,3.63-11.603,8.701
	c-1.054,4.08-0.144,10.061,0.083,14.338c0.586,11.248-10.11,8.651-10.11-1.492c0-8.729-0.083-17.458-0.083-26.188
	c0-5.227,6.812-6.16,9.365-2.237c5.132-3.338,12.587-4.669,18.025-1.223C305.113,906.556,301.688,926.703,301.688,935.421z"/>
<path style="fill:#FFFFFF;stroke:#000000;stroke-width:2;" d="M312.129,954.896c-6.697-8.263,4.628-8.545,9.447-6.134
	c8.34,3.884,13.26-1.354,13.26-9.363c-16.485,5.659-29.775-7.535-25.494-24.582c1.625-6.472,6.205-11.687,12.627-13.716
	c2.787-0.881,5.75-1.092,8.558-0.155c2.089,0.657,4.077,1.542,5.967,2.651c1.812-1.504,3.694-1.808,5.646-0.912
	c7,3.863,4.042,38.781,1.854,45.829C339.628,962.541,322.206,961.836,312.129,954.896z"/>
<path style="fill:#FFFFFF;stroke:#000000;stroke-width:2;" d="M321.908,929.619c9.566,4.565,18.326-5.896,12.928-14.834
	C323.701,903.66,314.146,919.316,321.908,929.619C324.338,930.779,321.742,929.399,321.908,929.619z"/>
<path style="fill:#FFFFFF;stroke:#000000;stroke-width:2;" d="M353.233,925.808c-10.809-2.573-1.065-10.11,5.221-10.11
	c5.161-0.097,18.651-3.116,21.713,2.775C385.503,928.793,358.742,925.808,353.233,925.808z"/>
<path style="fill:#FFFFFF;stroke:#000000;stroke-width:2;" d="M393.923,909.979c-9.316-2.319-2.855-10.026,3.729-10.026
	c0-3.663-1.378-20.879,7.405-15.715c4.817,2.831,2.705,11.202,2.705,15.715c3.832-0.532,16.82,2.267,9.613,8.37
	c-5.087,4.197-9.583-2.49-9.624,6.299c-0.027,5.875-0.371,11.877,0.217,17.734c1.117,11.253-10.669,7.782-10.234-2.983
	C397.735,924.767,400.194,908.426,393.923,909.979z"/>
<path style="fill:#FFFFFF;stroke:#000000;stroke-width:2;" d="M453.758,933.929c2.752,9.987-9.432,3.46-11.902,4.797
	c-4.31,2.331-10.235,2.332-14.782,0.798c-14.992-5.062-10.362-25.244-1.353-33.661c7.75-7.24,24.06-10.743,24.06,3.371
	C449.781,918.773,449.612,925.429,453.758,933.929z"/>
<path style="fill:#FFFFFF;stroke:#000000;stroke-width:2;" d="M436.189,930.199c6.595-4.188,3.037-13.113,3.314-20.553
	C427.05,911.863,424.18,935.012,436.189,930.199C436.797,929.812,435.361,930.531,436.189,930.199z"/>
<path style="fill:#FFFFFF;stroke:#000000;stroke-width:2;" d="M459.807,888.1c0.775-7.192,11.124-7.703,11.354-0.165
	C471.611,895.643,460.411,895.667,459.807,888.1z"/>
<path style="fill:#FFFFFF;stroke:#000000;stroke-width:2;" d="M470.746,935.255c-0.917,9.109-10.508,4.159-10.235-3.024
	c0.336-9.148-2.253-20.612-0.041-29.462c0.765-2.76,3.505-4.847,6.422-4.144c4.888,1.188,3.688,8.279,3.688,11.769
	C470.581,918.681,470.746,926.967,470.746,935.255z"/>
<path style="fill:#FFFFFF;stroke:#000000;stroke-width:2;" d="M492.21,932.438c8.822,8.034-10.772,13.226-10.772,0.16
	c0-11.017,0-22.033,0-33.051c0-3.52,1.5-25.604,9.571-13.271c3.12,4.818,0.622,18.446,0.622,23.991
	C491.63,917.115,490.296,926.413,492.21,932.438z"/>
<path style="fill:#FFFFFF;stroke:#000000;stroke-width:2;" d="M529.918,926.471c7.82-1.958,7.966,6.871,2.237,9.861
	c-6.146,3.204-14.475,5.463-21.194,2.756c-11.145-4.49-13.91-18.596-9.22-28.695c5.094-10.489,25.311-16.036,31.543-3.884
	c7.377,14.384-13.16,18.242-22.096,21.122C516.018,933.146,524.794,929.618,529.918,926.471z"/>
<path style="fill:#FFFFFF;stroke:#000000;stroke-width:2;" d="M513.178,912.216c-2.884,1.63-3.716,4.214-4.145,7.21
	c2.592-0.797,15.664-3.025,15.664-6.961C524.697,907.244,515.595,910.593,513.178,912.216z"/>
<path style="fill:#FFFFFF;stroke:#000000;stroke-width:2;" d="M580.718,930.945c2.184,3.729,0.403,8.396-4.351,7.914
	c-1.312-0.704-2.624-1.409-3.938-2.113c-2.667,1.758-5.566,2.946-8.702,3.562c-7.105,1.577-14.27-2.223-17.567-8.576
	c-8.637-16.608,7.178-33.243,23.95-30.456c-0.21-4.579,0.841-28.36,9.777-14.875c2.617,3.909,0.311,17.456,0.291,22.251
	C580.159,913.551,577.852,927.13,580.718,930.945C581.656,932.549,580.553,930.726,580.718,930.945z"/>
<path style="fill:#FFFFFF;stroke:#000000;stroke-width:2;" d="M569.199,926.388c1.979-3.005,1.101-7.672,1.056-11.385
	c-0.092-7.66-12.379-3.832-14.812,1.439C552.232,926.629,560.104,936.527,569.199,926.388
	C569.309,926.222,567.762,927.99,569.199,926.388z"/>
<path style="fill:#FFFFFF;stroke:#000000;stroke-width:2;" d="M643.203,927.216c9.068-5.802,9.736,7.819,1.16,11.438
	c-8.144,3.697-18.004,0.029-21.755-8.11c-5.7-12.371,2.231-34.427,18.355-32.29c4.493,0.596,15.117,4.243,12.183,10.856
	c-3.457,7.793-8.962-1.464-13.095-0.953C624.138,908.45,631.585,939.638,643.203,927.216z"/>
<path style="fill:#FFFFFF;stroke:#000000;stroke-width:2;" d="M655.633,917.769c5.247-21.729,35.09-23.945,35.512,1.119
	C691.617,947.996,648.4,947.642,655.633,917.769z"/>
<path style="fill:#FFFFFF;stroke:#000000;stroke-width:2;" d="M665.578,919.509c-2.396,12.763,10.51,15.826,14.751,3.751
	C685.132,909.588,669.676,906.012,665.578,919.509C665.412,920.394,665.964,918.238,665.578,919.509z"/>
<path style="fill:#FFFFFF;stroke:#000000;stroke-width:2;" d="M732.455,933.929c2.749,9.988-9.431,3.459-11.903,4.797
	c-4.309,2.331-10.234,2.333-14.782,0.798c-14.991-5.062-10.36-25.244-1.352-33.661c7.75-7.241,24.059-10.742,24.059,3.371
	C728.477,918.773,728.309,925.429,732.455,933.929z"/>
<path style="fill:#FFFFFF;stroke:#000000;stroke-width:2;" d="M714.886,930.199c6.595-4.188,3.038-13.114,3.315-20.553
	C705.749,911.863,702.874,935.01,714.886,930.199C715.493,929.812,714.057,930.531,714.886,930.199z"/>
<path style="fill:#FFFFFF;stroke:#000000;stroke-width:2;" d="M739.334,909.979c-9.318-2.318-2.857-10.026,3.729-10.026
	c0-3.662-1.378-20.879,7.406-15.715c4.816,2.831,2.705,11.202,2.705,15.715c3.832-0.532,16.817,2.265,9.613,8.37
	c-5.087,4.197-9.583-2.489-9.624,6.299c-0.027,5.875-0.37,11.877,0.218,17.734c1.113,11.256-10.669,7.78-10.234-2.983
	C743.146,924.767,745.604,908.426,739.334,909.979z"/>
<path style="fill:#FFFFFF;stroke:#000000;stroke-width:2;" d="M769.748,888.1c0.773-7.193,11.119-7.703,11.354-0.165
	C781.55,895.642,770.352,895.667,769.748,888.1z"/>
<path style="fill:#FFFFFF;stroke:#000000;stroke-width:2;" d="M780.688,935.255c-0.919,9.115-10.498,4.152-10.235-3.024
	c0.336-9.15-2.251-20.609-0.041-29.462c0.764-2.759,3.507-4.847,6.423-4.144c4.888,1.189,3.688,8.278,3.688,11.769
	C780.521,918.681,780.688,926.967,780.688,935.255z"/>
<path style="fill:#FFFFFF;stroke:#000000;stroke-width:2;" d="M794.027,942.548c10.014-10.036,11.43-26.048,8.225-39.396
	c-1.557-6.485-5.082-11.652-8.763-17.082c-5.198-7.631,6.292-8.812,10.605-2.342c9.798,14.697,12.392,32.188,6.922,49.206
	c-1.935,5.798-6.352,18.729-14.255,18.729C791.469,951.664,790.803,945.546,794.027,942.548z"/>
<path style="fill:#FFFFFF;stroke:#000000;stroke-width:2;" d="M332.016,128.066c5.138-17.115,21.695-31.84,40.486-27.831
	c22.312,4.761,26.369,25.587,26.561,44.728c0.469,47.132,0.131,94.271-1.024,141.391c-1.163,47.153-2.986,94.29-5.466,141.392
	c-1.034,19.634-1.021,37.603-23.131,44.362c-8.177,2.5-16.801,1.903-24.718-1.225c-4.906-1.936-16.021-8.817-16.021-15.192
	c0,0.367,0,0.735,0,1.104c-47.231-77.724-101.615-150.72-158.563-221.547c0,34.942,0,69.884,0,104.826c0,18.466,0,36.932,0,55.398
	c0,26.396,6.814,81.369-31.982,83.022c-44.431,1.893-34.316-57.76-34.316-85.508c0-42.442,0.218-84.891-0.086-127.332
	c-0.291-40.532-2.014-81.213-1.155-121.729c0.389-18.349,8.848-32.123,28.105-35.281c21.382-3.507,34.634,10.645,47.169,25.775
	c52.587,63.573,104.192,128.855,150.829,196.961c1.16-35.166,1.904-70.344,2.269-105.526c0.172-16.63,0.3-33.261,0.384-49.892
	C331.428,160.808,328.781,142.869,332.016,128.066z"/>
</svg>
