<?xml version="1.0" encoding="utf-8"?>
<!-- Generator: Adobe Illustrator 16.0.0, SVG Export Plug-In . SVG Version: 6.00 Build 0)  -->
<!DOCTYPE svg PUBLIC "-//W3C//DTD SVG 1.1//EN" "http://www.w3.org/Graphics/SVG/1.1/DTD/svg11.dtd">
<svg version="1.1" xmlns="http://www.w3.org/2000/svg" xmlns:xlink="http://www.w3.org/1999/xlink" x="0px" y="0px" width="100%"
     height="100%" viewBox="0 0 1000 1000" style="enable-background:new 0 0 1000 1000;" xml:space="preserve">
  <rect style="fill:#FFFFFF;" width="1000" height="1000"/>
  
<g id="Layer_1">
	<path style="fill:#FFFFFF;stroke:#000000;stroke-width:2;" d="M321.083,791.375c-5.441,17.915-17.851,35.065-38.633,32.721
		c-22.051-2.488-30-25.174-25.345-44.654c4.082-17.103,18.079-31.74,36.575-30.719C316.396,749.994,324.068,771.701,321.083,791.375
		C319.829,795.502,321.597,787.987,321.083,791.375z"/>
	<path style="fill:#FFFFFF;stroke:#000000;stroke-width:2;" d="M292.463,810.049c22.39-9.696,20.519-59.805-8.301-47.153
		C262.868,772.243,265.277,821.849,292.463,810.049C294.673,809.092,290.254,811.008,292.463,810.049z"/>
	<path style="fill:#FFFFFF;stroke:#000000;stroke-width:2;" d="M360.861,771.816c3.173-4.229,10.238-5.099,12.072,0.968
		c1.414,4.679-1.666,10.563-3.116,14.938c-2.932,8.848-5.887,17.856-9.453,26.471c-2.773,6.678-11.608,15.581-15.47,3.59
		c-4.54-13.997-13.632-27.186-17.293-41.215c-3.332-11.663,11.755-7.378,15.028-0.11c3.271,7.271,6.278,14.713,9.282,22.099
		C355.055,789.724,357.527,780.516,360.861,771.816z"/>
	<path style="fill:#FFFFFF;stroke:#000000;stroke-width:2;" d="M380.75,753.585c1.046-9.712,14.824-10.493,15.138-0.222
		C396.496,763.73,381.215,763.953,380.75,753.585z"/>
	<path style="fill:#FFFFFF;stroke:#000000;stroke-width:2;" d="M395.336,816.458c-1.241,12.322-14.018,5.655-13.646-4.033
		c0.441-12.155-2.982-27.575-0.055-39.282c3.668-13.232,13.48-1.518,13.48,6.409C395.115,791.854,395.336,804.154,395.336,816.458z"
		/>
	<path style="fill:#FFFFFF;stroke:#000000;stroke-width:2;" d="M404.949,812.148c-1.68-4.759,0.757-10.518,6.52-9.945
		c4.541,0.416,7.016,5.917,11.381,7.293c3.521,1.114,12.443-0.314,7.514-6.077c-3.181-3.175-8.898-3.283-12.901-5.013
		c-26.591-11.491,1.556-45.15,21.741-27.776c3.274,2.818,4.52,9.713-0.456,11.602c-5.691,2.16-10.958-4.363-16.782-2.128
		c-9.54,2.433,14.921,11.216,16.078,11.935c12.264,7.639,6.338,27.659-6.121,31.313
		C422.122,826.227,410.392,820.347,404.949,812.148z"/>
	<path style="fill:#FFFFFF;stroke:#000000;stroke-width:2;" d="M542.405,814.689c1.841,6.684-5.276,11.026-10.773,6.63
		c-3.343-2.674-15.076,2.901-21.726,1.633c-20.659-3.94-18.805-29.396-8.053-42.296c9.287-11.354,35.248-20.259,35.248,1.105
		C537.102,794.146,536.958,803.523,542.405,814.689z"/>
	<path style="fill:#FFFFFF;stroke:#000000;stroke-width:2;" d="M518.98,809.717c6.148-3.905,5.094-4.691,4.566-11.675
		c-0.394-5.222-0.342-10.498-0.146-15.728C507.073,785.22,502.67,816.259,518.98,809.717
		C519.789,809.203,517.875,810.16,518.98,809.717z"/>
	<path style="fill:#FFFFFF;stroke:#000000;stroke-width:2;" d="M551.797,785.463c0.737-4.873-6.393-5.979-3.369-11.822
		c2.84-5.494,9.743-3.634,13.535-0.608c8.042-6.109,19.752-8.538,27.293-0.056c2.841,3.199,2.506,9.01-1.547,11.16
		c-4.58,2.435-6.832-1.534-10.276-3.259c-8.876-2.214-12.265,7.307-12.265,13.606c0,6.811,0,13.621,0,20.432
		c0,9.59-13.481,11.68-13.481,1.763C549.207,809.095,550.572,793.39,551.797,785.463
		C551.869,784.985,551.723,785.943,551.797,785.463z"/>
	<path style="fill:#FFFFFF;stroke:#000000;stroke-width:2;" d="M597.65,753.585c1.048-9.711,14.825-10.493,15.139-0.222
		C613.396,763.731,598.116,763.952,597.65,753.585z"/>
	<path style="fill:#FFFFFF;stroke:#000000;stroke-width:2;" d="M612.236,816.458c-1.242,12.33-14.008,5.647-13.646-4.033
		c0.453-12.163-2.98-27.565-0.055-39.282c3.664-13.232,13.48-1.518,13.48,6.409C612.016,791.854,612.236,804.154,612.236,816.458z"
		/>
	<path style="fill:#FFFFFF;stroke:#000000;stroke-width:2;" d="M664.391,804.745c8.712-2.181,11.177,6.91,5.249,11.686
		c-5.573,4.489-15.037,6.711-22.005,6.711c-19.047,0-27.186-20.479-22.084-36.545c4.706-14.821,30.284-25.105,41.326-11.521
		c15.66,19.31-14.961,27.19-27.459,31.216C646.031,813.854,657.336,808.7,664.391,804.745z"/>
	<path style="fill:#FFFFFF;stroke:#000000;stroke-width:2;" d="M642.07,785.74c-3.682,2.078-4.953,5.614-5.525,9.613
		c3.64-1.12,20.885-3.784,20.885-9.282C657.43,779.087,645.236,783.752,642.07,785.74z"/>
	<path style="fill:#FFFFFF;stroke:#000000;stroke-width:2;" d="M678.975,812.148c-1.678-4.759,0.756-10.518,6.52-9.945
		c4.541,0.416,7.016,5.917,11.381,7.293c3.515,1.111,12.455-0.319,7.514-6.077c-3.178-3.176-8.899-3.283-12.9-5.013
		c-26.592-11.494,1.56-45.152,21.741-27.776c3.274,2.819,4.521,9.713-0.456,11.602c-5.691,2.16-10.958-4.362-16.781-2.128
		c-9.54,2.433,14.92,11.216,16.076,11.935c12.267,7.636,6.337,27.66-6.12,31.313C696.146,826.227,684.42,820.347,678.975,812.148z"
		/>
	<path style="fill:#FFFFFF;stroke:#000000;stroke-width:2;" d="M385.872,915.602c3.855,7.438-4.451,10.025-9.086,5.718
		c-4.245-3.944-6.747-10.094-8.609-15.462c-5.982-17.24-2.638-34.305,6.051-49.759c5.328-9.47,16.071-4.729,9.282,4.641
		c-3.529,4.874-5.923,9.845-7.086,15.736C373.839,889.573,374.709,906.541,385.872,915.602z"/>
	<path style="fill:#FFFFFF;stroke:#000000;stroke-width:2;" d="M388.11,903.999c-2.475-7.007,4.992-9.159,9.158-4.724
		c7.567,8.103,14.988-1.899,6.464-3.646c-23.68-4.814-13.437-33.192,8.329-23.867c3.135,1.438,5.491,5.854,2.776,8.867
		c-2.879,3.202-8.029-0.497-11.146-0.87c-2.14-0.252-4.778,0.463-4.268,3.19c0.528,2.819,11.16,4.507,13.508,5.967
		C430.048,899.579,403.234,925.245,388.11,903.999z"/>
	<path style="fill:#FFFFFF;stroke:#000000;stroke-width:2;" d="M432.778,911.251c-10.85,7.847-7.956-30.12-7.956-33.961
		c0-5.334,0-10.669,0-16.004c0-4.289,7.189-7.586,9.426-3.219c2.433,4.75,0.787,13.566,0.684,18.75
		c12.71-8.589,23.721,2.203,24.686,15.187c0.373,5.018-0.072,10.041-0.072,15.062c0,10.359-10.997,3.906-10.566-4.848
		c0.758-15.468-1.924-22.751-14.047-10.649C432.829,896.818,438.35,907.206,432.778,911.251
		C431.672,912.051,433.883,910.449,432.778,911.251z"/>
	<path style="fill:#FFFFFF;stroke:#000000;stroke-width:2;" d="M496.424,898.447c7.82-1.959,7.966,6.871,2.237,9.861
		c-6.145,3.205-14.474,5.463-21.195,2.756c-11.144-4.49-13.909-18.596-9.219-28.695c5.094-10.49,25.31-16.036,31.543-3.884
		c7.377,14.384-13.161,18.242-22.096,21.122C482.523,905.123,491.3,901.595,496.424,898.447z"/>
	<path style="fill:#FFFFFF;stroke:#000000;stroke-width:2;" d="M479.684,884.192c-2.883,1.629-3.716,4.215-4.144,7.21
		c2.593-0.797,15.663-3.026,15.663-6.961C491.203,879.221,482.1,882.569,479.684,884.192z"/>
	<path style="fill:#FFFFFF;stroke:#000000;stroke-width:2;" d="M537.529,898.447c7.819-1.959,7.966,6.873,2.236,9.861
		c-6.146,3.205-14.473,5.463-21.194,2.756c-11.144-4.489-13.909-18.596-9.22-28.695c5.099-10.488,25.309-16.038,31.543-3.884
		c7.378,14.383-13.16,18.244-22.096,21.122C523.628,905.124,532.405,901.594,537.529,898.447z"/>
	<path style="fill:#FFFFFF;stroke:#000000;stroke-width:2;" d="M520.789,884.192c-2.884,1.629-3.718,4.215-4.145,7.21
		c2.593-0.797,15.663-3.025,15.663-6.961C532.308,879.221,523.205,882.569,520.789,884.192z"/>
	<path style="fill:#FFFFFF;stroke:#000000;stroke-width:2;" d="M550.622,875.491c2.348-8.072,7.813-0.993,11.271-2.569
		c8.116-3.68,16.854,0.393,20.656,8.08c8.307,16.794-5.19,30.936-21.898,29.71c0,3.119,0.327,30.517-9.075,18.854
		c-2.636-3.269-1.036-11.76-1.036-15.398C550.539,901.305,550.09,888.335,550.622,875.491z"/>
	<path style="fill:#FFFFFF;stroke:#000000;stroke-width:2;" d="M561.23,886.265c-2.289,3.824-2.273,14.586,2.734,14.586
		C582.615,900.851,573.164,872.325,561.23,886.265C561.064,886.542,561.893,885.491,561.23,886.265z"/>
	<path style="fill:#FFFFFF;stroke:#000000;stroke-width:2;" d="M589.572,914.524c10.006-10.05,11.43-26.036,8.225-39.396
		c-1.557-6.485-5.083-11.653-8.764-17.082c-5.199-7.631,6.293-8.812,10.607-2.341c9.795,14.693,12.398,32.191,6.92,49.206
		c-1.931,5.799-6.352,18.729-14.254,18.729C587.012,923.641,586.347,917.522,589.572,914.524z"/>
	<path style="fill:#FFFFFF;stroke:#000000;stroke-width:2;" d="M427.226,292.991c-22.695,74.709-71.505,156.801-157.354,164.533
		c-35.591,3.206-76.75-5.73-106.608-25.806c-32.579-21.906-50.235-60.296-57.953-97.596
		c-16.395-79.24,11.266-168.656,75.199-219.792c62.254-49.793,158.189-45.916,212.644,14.146
		C434.043,173.576,435.906,235.837,427.226,292.991C420.958,313.623,429.798,276.054,427.226,292.991z"/>
	<path style="fill:#FFFFFF;stroke:#000000;stroke-width:2;" d="M284.132,386.361c56.74-24.559,80.756-94.742,81.492-151.934
		c0.737-59.778-59.35-105.361-117.219-86.062c-54.898,18.309-80.179,92.02-81.4,144.072c-0.746,31.088,9.991,61.129,34.473,81.133
		C224.6,392.465,256.438,398.369,284.132,386.361C295.182,381.579,273.083,391.152,284.132,386.361z"/>
</g>
<g id="Layer_2">
	<path style="fill:#FFFFFF;stroke:#231F20;stroke-width:2;stroke-linecap:round;stroke-miterlimit:10;" d="M368.709,427.684
		c-3.136-36.765-78.362-30.466-55.065,1.49c-28.553-18.033-39.968,21.048-26.522,40.92c12.42,18.358,44.05,18.553,64.149,19.874
		L368.709,427.684z"/>
	<path style="fill:#FFFFFF;stroke:#231F20;stroke-width:2;stroke-linecap:round;stroke-miterlimit:10;" d="M773.096,432.993
		c17.029-16.894,84.038-39.709,98.918-7.265c14.062,30.653-62.809,33.966-81.715,34.025L773.096,432.993z"/>
	<path style="fill:#FFFFFF;stroke:#231F20;stroke-width:2;stroke-linecap:round;stroke-miterlimit:10;" d="M789.276,442.313
		c8.551-11.846,68.817-31.984,63.027-6.908c-21.662,4.483-46.718,4.97-66.357,10.238L789.276,442.313z"/>
	<path style="fill:#FFFFFF;stroke:#231F20;stroke-width:2;stroke-linecap:round;stroke-miterlimit:10;" d="M369.652,641.087
		c-9.413,13.188-12.503,44.448-9.532,61.966c4.503-3.482,10.946-6.142,14.58-12.494c1.665,8.142,5.348,17.13,14.456,17.351
		c10.915-17.166,26.939-46.43,40.287-56.856L369.652,641.087z"/>
	<path style="fill:#FFFFFF;stroke:#231F20;stroke-width:2;stroke-linecap:round;stroke-miterlimit:10;" d="M593.918,661.205
		c-4.844,15.459,1.94,46.131,10.21,61.854c3.197-4.707,8.493-9.24,9.972-16.406c4.115,7.221,10.412,14.618,19.138,11.995
		c5.034-19.711,11.162-52.505,20.605-66.566L593.918,661.205z"/>
	<path style="fill:#FFFFFF;stroke:#231F20;stroke-width:2;stroke-linecap:round;stroke-miterlimit:10;" d="M769.459,638.728
		c5.935,14.184,4.017,45.495-0.971,62.471c-3.244-3.987-8.223-7.397-10.334-14.124c-2.554,7.858-6.906,16.308-14.516,15.428
		c-6.612-18.306-15.739-49.2-25.343-61.131L769.459,638.728z"/>
	<path style="fill:#FFFFFF;stroke:#231F20;stroke-width:2;stroke-linecap:round;stroke-miterlimit:10;" d="M423.204,394.861
		c-43.414-17.694-78.455,12.542-72.625,56.368c-45.323-14.555-51.307,61.993-31.762,85.645
		c-19.302,26.96-20.889,65.712,14.314,80.348c-16.422,17.668,3.532,38.847,20.316,46.691c22.519,10.521,38.98-4.349,59.72-2.669
		c17.048,1.38,35.806,19.259,54.879,22.053c24.505,3.593,37.729-6.427,56.738-19.061c12.691,25.82,95.438,27.373,98.221-7.607
		c12.996,13.47,38.894,15.902,56.393,15.11c25.302-1.147,31.747-15.649,52.165-23.287c20.498-7.665,40.85,4.439,60.229-11.608
		c16.52-13.681,23.014-42.289,5.368-58.603c-0.767-0.709-0.747-0.608,0.059,0.301c44.53,14.511,19.419-51.121,16.574-66.643
		c-1.499-8.189,2.557-18.229,1.099-27.352c-3.363-21.076-15.978-23.546-26.083-39.245c-21.515-33.422-11.698-67.087-66.215-58.36
		c-7.424-30.126-64.88-63.952-88.256-29.82c-23.636-17.127-68.34,6.763-69.693,35.047c-5.355-20.414-39.255-14.278-47.388,2.443
		C473.711,354.974,423.204,394.861,423.204,394.861z"/>
	<path style="fill:#FFFFFF;stroke:#231F20;stroke-width:2;stroke-linecap:round;stroke-miterlimit:10;" d="M672.183,434.521
		c1.314,22.855,27.281,25.878,41.173,10.767c1.368,15.899,20.492,17.967,33.013,13.527c6.415,19.556,14.181,23.973,14.739,44.701
		c0.47,17.536-3.831,35.598-9.186,51.514c-10.199,30.334-37.755,58.045-73.118,55.275c-52.796-4.141-95.968-110.4-80.524-155.809
		C627.622,479.897,672.183,434.521,672.183,434.521z"/>
	<path style="fill:#FFFFFF;stroke:#231F20;stroke-width:2;stroke-linecap:round;stroke-miterlimit:10;" d="M615.128,522.047
		c-15.202-11.622-9.9-35.484,5.019-45.015c17.175-10.973,40.59,7.438,39.013,26.163c-1.191,14.15-12.287,24.805-26.654,24.384
		C625.104,527.363,619.356,525.281,615.128,522.047z"/>
	<path style="fill:#231F20;stroke:#231F20;stroke-width:2;stroke-linecap:round;stroke-miterlimit:10;" d="M636.141,486.801
		c13.314-5.164,25.065,9.274,17.211,21.268c-6.988,10.667-24.752,7.406-25.74-5.871C627.115,495.532,629.49,489.381,636.141,486.801
		z"/>
	<path style="fill:#FFFFFF;stroke:#231F20;stroke-width:2;stroke-linecap:round;stroke-miterlimit:10;" d="M645.285,495.072
		c2.704-3.884,9.383-1.971,9.404,2.9c0.015,3.899-3.602,7.14-7.002,5.072C644.854,501.322,643.184,498.092,645.285,495.072z"/>
	<path style="fill:#FFFFFF;stroke:#231F20;stroke-width:2;stroke-linecap:round;stroke-miterlimit:10;" d="M702.58,517.688
		c-16.576-12.674-10.796-38.692,5.471-49.086c18.729-11.964,44.262,8.112,42.542,28.53c-1.3,15.43-13.397,27.048-29.064,26.589
		C713.458,523.482,707.191,521.213,702.58,517.688z"/>
	<path style="fill:#231F20;stroke:#231F20;stroke-width:2;stroke-linecap:round;stroke-miterlimit:10;" d="M725.493,479.254
		c14.517-5.631,27.332,10.112,18.765,23.191c-7.618,11.629-26.988,8.075-28.064-6.403
		C715.652,488.774,718.241,482.066,725.493,479.254z"/>
	<path style="fill:#FFFFFF;stroke:#231F20;stroke-width:2;stroke-linecap:round;stroke-miterlimit:10;" d="M735.465,488.273
		c2.947-4.235,10.232-2.149,10.252,3.163c0.018,4.251-3.926,7.786-7.635,5.53C734.993,495.088,733.171,491.565,735.465,488.273z"/>
	<path style="fill:#FFFFFF;stroke:#231F20;stroke-width:2;stroke-linecap:round;stroke-miterlimit:10;" d="M589.5,447.506
		c-16.534-16.894-81.605-39.708-96.058-7.265c-13.654,30.653,60.991,33.966,79.352,34.026L589.5,447.506z"/>
	<path style="fill:#FFFFFF;stroke:#231F20;stroke-width:2;stroke-linecap:round;stroke-miterlimit:10;" d="M571.111,456.613
		c-8.303-11.846-66.828-31.984-61.203-6.907c21.035,4.482,45.365,4.97,64.437,10.238L571.111,456.613z"/>
	<path style="fill:#FFFFFF;stroke:#231F20;stroke-width:2;stroke-linecap:round;stroke-miterlimit:10;" d="M660.628,586.863
		c20.286,11.825,76.456-2.966,41.792-21.895C688.388,557.305,647.691,579.319,660.628,586.863z"/>
	<path style="fill:#FFFFFF;stroke:#231F20;stroke-width:2;stroke-linecap:round;stroke-miterlimit:10;" d="M365.396,536.99
		c1.383-11.31,6.521-18.462,13.342-27.156c3.862-4.921-0.895-12.461-6.981-9.045c-12.721,7.137-20.659,24.633-14.195,38.325
		C359.562,543.347,364.949,540.642,365.396,536.99L365.396,536.99z"/>
	<path style="fill:#FFFFFF;stroke:#231F20;stroke-width:2;stroke-linecap:round;stroke-miterlimit:10;" d="M399.247,471.583
		c1.603-2.442,3.748-4.229,5.948-6.112c2.699-2.308,6.27-3.595,7.891-6.993c0.524-1.1,0.387-2.677-0.858-3.275
		c-8.683-4.171-16.929,6.63-19.704,13.545C390.897,472.8,397.077,474.887,399.247,471.583L399.247,471.583z"/>
	<path style="fill:#FFFFFF;stroke:#231F20;stroke-width:2;stroke-linecap:round;stroke-miterlimit:10;" d="M408.527,486.444
		c-5.194,0.368-8.982,2.176-11.677,6.884c-2.904,5.075-3.159,12.384-0.318,17.502c2.598,4.682,8.596,2,9.142-2.477
		c0.703-5.753-1.026-11.834,4.474-15.925C412.447,490.72,412.049,486.195,408.527,486.444L408.527,486.444z"/>
	<path style="fill:#FFFFFF;stroke:#231F20;stroke-width:2;stroke-linecap:round;stroke-miterlimit:10;" d="M387.742,543.003
		c-8.472,4.789-18.475,18.746-10.845,28.109c1.202,1.474,3.644,0.56,4.099-1.083c1.08-3.892,0.375-8.015,1.189-12.014
		c0.984-4.834,3.979-9.134,7.608-12.354C391.267,544.355,389.38,542.076,387.742,543.003L387.742,543.003z"/>
	<path style="fill:#FFFFFF;stroke:#231F20;stroke-width:2;stroke-linecap:round;stroke-miterlimit:10;" d="M450.352,502.689
		c-12.13,4.543-21.62,16.095-25.892,28.029c-5.266,14.716,3.05,32.912,19.736,34.064c5.742,0.396,7.544-6.757,4.329-10.453
		c-2.938-3.379-7.876-6.184-9.583-10.475c-1.54-3.871-1.035-7.938,0.025-11.843c2.637-9.708,8.742-17.833,13.627-26.407
		C453.396,504.199,452.057,502.051,450.352,502.689L450.352,502.689z"/>
	<path style="fill:#FFFFFF;stroke:#231F20;stroke-width:2;stroke-linecap:round;stroke-miterlimit:10;" d="M473.48,567.066
		c-4.464,5.247-6.09,12.899-4.396,19.619c1.06,4.197,7.359,4.166,8.436,0c1.367-5.292,0.469-11.042,1.426-16.438
		C479.461,567.344,475.808,564.329,473.48,567.066L473.48,567.066z"/>
	<path style="fill:#FFFFFF;stroke:#231F20;stroke-width:2;stroke-linecap:round;stroke-miterlimit:10;" d="M428.458,584.948
		c-12.419,1.353-15.299,21.325-6.428,28.227c1.39,1.079,3.394,0.472,3.488-1.446c0.204-4.137-0.708-8.105-0.504-12.214
		c0.234-4.725,3.246-7.721,5.058-11.755C430.581,586.625,430.018,584.779,428.458,584.948L428.458,584.948z"/>
	<path style="fill:#FFFFFF;stroke:#231F20;stroke-width:2;stroke-linecap:round;stroke-miterlimit:10;" d="M609.206,414.551
		c-4.388,5.694,0.037,14.055,5.336,17.559c7.018,4.64,17.111,4.386,24.396,0.635c2.903-1.495,3.252-5.009,1.996-7.613
		c-1.941-4.02-8.753-3.264-12.364-3.5c-3.112-0.205-6.442-0.5-9.307-1.852c-3.16-1.492-5.089-4.364-8.22-5.711
		C610.301,413.749,609.696,413.913,609.206,414.551L609.206,414.551z"/>
	<path style="fill:#FFFFFF;stroke:#231F20;stroke-width:2;stroke-linecap:round;stroke-miterlimit:10;" d="M660.674,388.569
		c-6.546-1.702-12.843,0.771-17.507,5.505c-3.787,3.846,1.798,9.137,5.815,5.814c3.588-2.969,7.154-6.376,11.691-7.828
		C662.332,391.529,662.469,389.036,660.674,388.569L660.674,388.569z"/>
	<path style="fill:#FFFFFF;stroke:#231F20;stroke-width:2;stroke-linecap:round;stroke-miterlimit:10;" d="M618.508,377.929
		c-2.802-0.464-5.813-1.133-8.495,0.141c-2.935,1.394-5.524,4.754-4.077,8.025c0.319,0.722,1.425,1.377,2.217,1.271
		c2.379-0.319,3.343-2.261,5.001-3.188c1.079-0.602,3.438-1.089,5.354-1.407C620.914,382.37,620.915,378.327,618.508,377.929
		L618.508,377.929z"/>
	<path style="fill:#FFFFFF;stroke:#231F20;stroke-width:2;stroke-linecap:round;stroke-miterlimit:10;" d="M680.845,415.228
		c0.07-3.118,0.499-6.929,2.531-9.468c2.647-3.309,6.844-4.2,10.385-6.162c4.147-2.298,2.207-8.679-2.365-8.727
		c-6.599-0.069-12.932,3.891-16.529,9.354c-3.398,5.16-2.677,11.385-0.009,16.625C676.366,419.81,680.772,418.271,680.845,415.228
		L680.845,415.228z"/>
	<path style="fill:#FFFFFF;stroke:#231F20;stroke-width:2;stroke-linecap:round;stroke-miterlimit:10;" d="M698.55,425.273
		c4.994,2.509,8.795,3.214,14.406,2.454c4.958-0.672,10.506-4.771,12.554-9.255c1.642-3.588-2.011-8.75-5.99-5.992
		c-5.739,3.978-12.054,8.084-19.466,7.244C697.094,419.388,696.001,423.992,698.55,425.273L698.55,425.273z"/>
	<path style="fill:#FFFFFF;stroke:#231F20;stroke-width:2;stroke-linecap:round;stroke-miterlimit:10;" d="M790.372,494.438
		c-0.231,0.688-2.486,4.051-3.066,6.099c-1.315,4.645-2.301,9.352-3.607,14.002c-1.605,5.721-8.391,21.412,0.394,24.224
		c4.241,1.358,8.016-3.438,10.149-6.338c3.048-4.15,3.487-10.998,3.915-15.929c0.419-4.845,0.062-9.867-0.896-14.616
		c-0.314-1.547-0.48-3.485-1.29-4.87c-0.377-0.642-2.024-3.001-1.879-2.573C793.47,492.602,790.992,492.605,790.372,494.438
		L790.372,494.438z"/>
	<path style="fill:#FFFFFF;stroke:#231F20;stroke-width:2;stroke-linecap:round;stroke-miterlimit:10;" d="M797.848,549.072
		c-3.71,2.612-7.398,5.257-11.122,7.926c-4.679,3.354-8.982,6.128-12.013,11.188c-1.247,2.078,0.406,4.281,2.571,4.479
		c6.536,0.6,11.857-2.079,16.882-6.021c4.8-3.762,7.572-7.576,9.087-13.415C804.007,550.314,800.611,547.129,797.848,549.072
		L797.848,549.072z"/>
</g>
</svg>
