<?xml version="1.0" encoding="utf-8"?>
<!-- Generator: Adobe Illustrator 16.0.0, SVG Export Plug-In . SVG Version: 6.00 Build 0)  -->
<!DOCTYPE svg PUBLIC "-//W3C//DTD SVG 1.1//EN" "http://www.w3.org/Graphics/SVG/1.1/DTD/svg11.dtd">
<svg version="1.1" id="Layer_19" xmlns="http://www.w3.org/2000/svg" xmlns:xlink="http://www.w3.org/1999/xlink" x="0px" y="0px"
	 width="100%" height="100%" viewBox="0 0 600 600" enable-background="new 0 0 600 600" xml:space="preserve">
<g>
	<path fill="#FFFFFF" stroke="#231F20" stroke-width="2" stroke-miterlimit="10" d="M234.027,399.13
		c-1.394,1.544-2.571,3.36-2.969,5.403c-0.4,2.041,0.088,4.333,1.6,5.763c2.216,2.095,5.946,1.721,8.458-0.013
		c2.51-1.734,4.089-4.486,5.585-7.146c-2.088,3.062-3.333,6.692-3.562,10.392c-0.123,1.99,0.605,4.591,2.597,4.67
		c1.172,0.047,2.133-0.874,2.914-1.749c2.29-2.575,4.349-5.355,6.141-8.297c-1.291,3.016-2.609,6.259-1.993,9.481
		c0.615,3.222,4.076,6.094,7.101,4.823c1.547-0.648,2.543-2.152,3.372-3.611c1.867-3.288,3.357-6.789,4.438-10.413
		c0.746-2.507,1.292-5.21,0.532-7.713c-0.837-2.75-3.168-4.845-5.77-6.07C253.639,390.489,240.727,391.717,234.027,399.13z"/>
	<path fill="#FFFFFF" stroke="#231F20" stroke-width="2" stroke-miterlimit="10" d="M360.159,399.13
		c1.393,1.544,2.571,3.36,2.969,5.403c0.401,2.041-0.088,4.333-1.6,5.763c-2.216,2.095-5.946,1.721-8.458-0.013
		c-2.509-1.734-4.089-4.486-5.585-7.146c2.089,3.062,3.334,6.692,3.563,10.392c0.123,1.99-0.605,4.591-2.597,4.67
		c-1.173,0.047-2.135-0.874-2.914-1.749c-2.292-2.575-4.349-5.355-6.142-8.297c1.289,3.016,2.607,6.259,1.994,9.481
		c-0.616,3.222-4.076,6.094-7.102,4.823c-1.547-0.648-2.544-2.152-3.372-3.611c-1.866-3.288-3.358-6.789-4.437-10.413
		c-0.748-2.507-1.294-5.21-0.532-7.713c0.836-2.75,3.169-4.845,5.768-6.07C340.545,390.489,353.458,391.717,360.159,399.13z"/>
</g>
<path fill="#FFFFFF" stroke="#231F20" stroke-width="2" stroke-miterlimit="10" d="M207.873,190.182
	c0,0,0.563,110.424,1.691,139.157c1.126,28.733,7.324,49.015,33.24,66.48c25.916,17.464,66.047,21.674,90.706,9.578
	c29.859-14.648,45.635-45.071,48.452-68.17s0.563-148.736,0.563-148.736s-39.438-6.197-85.072-6.76S207.873,190.182,207.873,190.182
	z"/>
<path fill="#FFFFFF" stroke="#231F20" stroke-width="2" stroke-miterlimit="10" d="M259.52,278.85
	c-14.17,2.474-29.523-5.019-36.294-17.71c-6.77-12.692-4.442-29.615,5.505-40.007c9.946-10.392,26.751-13.46,39.728-7.253
	c21.817,10.436,25.718,40.314,8.136,56.396C271.835,274.629,265.894,277.738,259.52,278.85z"/>
<path fill="#FFFFFF" stroke="#231F20" stroke-width="2" stroke-miterlimit="10" d="M326.371,278.85
	c14.171,2.474,29.523-5.019,36.295-17.71c6.77-12.692,4.44-29.615-5.504-40.007c-9.948-10.392-26.752-13.46-39.729-7.253
	c-21.818,10.436-25.717,40.314-8.136,56.396C314.057,274.629,319.997,277.738,326.371,278.85z"/>
<g>
	<path fill="#FFFFFF" d="M242.05,248.957c0.025-3.801,0.882-7.593,2.492-11.038c1.458-3.118,3.94-6.199,7.363-6.582
		c3.202-0.358,6.188,1.799,8.151,4.355c1.871,2.435,3.141,5.327,3.667,8.352"/>
	<g>
		<path fill="#231F20" d="M242.999,249.219c1.315-5.434,2.331-13.459,8.316-15.782c6.862-2.663,8.439,8.541,12.028,11.255
			c0.323,0.245,0.842,0.056,1.026-0.269c1.818-3.212-0.75-7.074-2.634-9.712c-2.324-3.254-5.801-5.388-9.831-5.319
			c-8.582,0.148-11.913,13.315-10.804,19.827C241.268,250.197,242.78,250.124,242.999,249.219L242.999,249.219z"/>
	</g>
</g>
<g>
	<path fill="#FFFFFF" d="M321.295,247.451c-0.653-5.396,2.304-11.051,7.109-13.592c1.465-0.775,3.103-1.28,4.76-1.245
		c3.266,0.071,6.215,2.28,7.896,5.082c1.682,2.801,2.271,6.123,2.504,9.382"/>
	<g>
		<path fill="#231F20" d="M322.045,247.451c0.42-6.276,4.205-12.908,11.119-13.213c7.316-0.323,6.953,9.093,9.753,13.219
			c0.282,0.416,1.048,0.556,1.295,0c3.204-7.223-3.875-15.822-11.048-16.465c-8.423-0.755-14.085,9.544-12.592,16.659
			C320.755,248.521,321.992,248.254,322.045,247.451L322.045,247.451z"/>
	</g>
</g>
<path fill="#FFFFFF" stroke="#231F20" stroke-width="2" stroke-miterlimit="10" d="M190.033,155.815c0,0-3.005,36.809,19.156,41.316
	c22.159,4.507,48.075-1.503,62.348,9.014c14.273,10.517,22.159,23.662,22.159,23.662s1.503-20.282-33.427-37.56
	c-34.93-17.276-38.31-11.643-51.832-19.905C194.915,164.078,190.033,155.815,190.033,155.815z"/>
<path fill="#FFFFFF" stroke="#231F20" stroke-width="2" stroke-miterlimit="10" d="M397.241,155.815c0,0,3.004,36.809-19.155,41.316
	c-22.162,4.507-48.078-1.503-62.35,9.014c-14.271,10.517-22.159,23.662-22.159,23.662s-1.503-20.282,33.427-37.56
	c34.931-17.276,38.311-11.643,51.832-19.905C392.358,164.078,397.241,155.815,397.241,155.815z"/>
<path fill="#FFFFFF" stroke="#231F20" stroke-width="2" stroke-miterlimit="10" d="M223.294,265.119c0,0-27.348,8.798-47.842,42.846
	c-20.493,34.045-23.664,49.49-20.31,53.038c3.354,3.547,12.72-3.179,20.122-10.575c7.401-7.395,10.363-21.905,10.363-21.905
	s-0.542,17.848,6.322,17.202c6.865-0.645,15.224-16.658,18.509-29.586c3.285-12.926,3.557-21.85,3.557-21.85
	s0.107,13.615,5.752,12.016c5.645-1.599,8.321-16.853,8.172-27.607C227.792,267.943,223.294,265.119,223.294,265.119z"/>
<path fill="#FFFFFF" stroke="#231F20" stroke-width="2" stroke-miterlimit="10" d="M365.108,268.339c0,0,28.72-0.621,59.213,24.861
	c30.492,25.483,38.536,39.043,36.524,43.493c-2.012,4.449-13.06,1.151-22.472-3.42c-9.411-4.571-16.951-17.317-16.951-17.317
	s6.343,16.691-0.356,18.323c-6.7,1.633-19.832-10.77-27.16-21.914c-7.328-11.145-10.5-19.489-10.5-19.489s4.347,12.902-1.512,13.235
	c-5.855,0.333-13.369-13.209-16.743-23.421C361.778,272.478,365.108,268.339,365.108,268.339z"/>
<path fill="#FFFFFF" stroke="#231F20" stroke-width="2" stroke-miterlimit="10" d="M363.244,380.907
	c-0.099-1.24-0.215-2.477-0.354-3.7c-2.777-24.29-10.253-48.034-21.893-69.533c-4.822-8.904-10.454-17.549-18.101-24.185
	c-7.646-6.637-17.549-11.133-27.661-10.65c-15.886,0.756-28.723,13.164-37.873,26.172c-7.986,11.352-14.379,23.807-19.055,36.871
	c-5.044,14.092-9.302,31.253-10.17,47.596c4.011,4.298,8.813,8.398,14.667,12.343c25.916,17.464,66.047,21.674,90.706,9.578
	C345.79,399.373,355.652,390.661,363.244,380.907z"/>
<path fill="#FFFFFF" stroke="#231F20" stroke-width="2" stroke-miterlimit="10" d="M273.791,251.215c0,0,7.507-7.354,18.405-7.511
	c12.958-0.188,19.905,7.136,19.905,7.136l-18.028,32.677L273.791,251.215z"/>
<path fill="#FFFFFF" stroke="#231F20" stroke-width="2" stroke-miterlimit="10" d="M247.63,256.066
	c-5.507,1.665-10.454,6.944-5.31,11.781c4.017,3.779,15.425,1.596,19.816-0.515c5.558-2.672,8.708-8.888,1.768-12.16
	C259.341,253.02,252.151,254.699,247.63,256.066z"/>
<path fill="#FFFFFF" stroke="#231F20" stroke-width="2" stroke-miterlimit="10" d="M339.661,256.066
	c5.509,1.665,10.454,6.944,5.311,11.781c-4.018,3.779-15.425,1.596-19.817-0.515c-5.557-2.672-8.708-8.888-1.77-12.16
	C327.951,253.02,335.141,254.699,339.661,256.066z"/>
<path fill="none" stroke="#000000" stroke-width="2" d="M166.193,94.632c-1.379,4.539-3.141,8.976-5.287,13.31
	c-2.148,4.336-4.761,8.205-7.84,11.608c-3.081,3.403-6.666,6.157-10.757,8.265c-4.093,2.106-8.772,3.16-14.039,3.16
	c-3.403-0.164-6.098-0.467-8.083-0.912c-1.987-0.446-3.911-1.115-5.773-2.005c-3.324-0.973-6.18-2.532-8.569-4.68
	c-2.391-2.146-4.396-4.638-6.017-7.475c-1.622-2.835-2.856-5.854-3.707-9.055c-0.851-3.2-1.398-6.3-1.641-9.298
	c-0.406-5.267,0.04-10.615,1.337-16.044c1.295-5.428,3.361-10.432,6.199-15.011c2.835-4.577,6.4-8.508,10.696-11.79
	c4.294-3.282,9.196-5.449,14.707-6.502c2.835-0.486,5.713-0.648,8.63-0.486c2.917,0.164,5.752,0.729,8.508,1.702
	c2.268,0.811,4.375,1.744,6.32,2.795c1.945,1.054,3.808,2.391,5.591,4.011c2.349,2.108,4.334,4.539,5.956,7.293
	c1.62,2.755,2.796,5.633,3.525,8.63c0.891,3.81,1.295,7.578,1.215,11.304C167.084,87.178,166.759,90.906,166.193,94.632z"/>
<path fill="none" stroke="#000000" stroke-width="2" d="M134.713,115.173c2.431-1.052,4.558-2.45,6.381-4.193
	c1.823-1.742,3.422-3.666,4.801-5.773c1.377-2.106,2.532-4.355,3.464-6.746c0.931-2.389,1.763-4.801,2.492-7.232
	c0.486-3.079,0.748-6.239,0.79-9.48c0.04-3.24-0.629-6.32-2.006-9.238c-1.136-2.431-2.856-4.516-5.166-6.259
	c-2.31-1.742-4.843-2.957-7.597-3.646c-2.756-0.688-5.53-0.83-8.326-0.426c-2.795,0.407-5.287,1.5-7.475,3.282
	c-3.081,2.594-5.572,5.49-7.475,8.69c-1.905,3.202-3.342,6.746-4.315,10.635c-0.811,3.081-1.257,6.32-1.337,9.724
	c-0.082,3.403,0.444,6.646,1.58,9.724c0.891,2.27,2.207,4.335,3.95,6.199c1.742,1.865,3.707,3.324,5.895,4.375
	c2.188,1.054,4.516,1.641,6.989,1.763C129.83,116.693,132.282,116.228,134.713,115.173z"/>
<path fill="none" stroke="#000000" stroke-width="2" d="M223.805,53.063c0.323-2.997,1.356-5.206,3.099-6.625
	c1.742-1.417,3.586-2.106,5.53-2.066c1.945,0.042,3.747,0.79,5.409,2.249c1.66,1.458,2.531,3.525,2.613,6.199
	c0.161,2.756-0.547,4.883-2.127,6.381c-1.58,1.5-3.384,2.351-5.409,2.552c-2.026,0.203-3.931-0.344-5.712-1.641
	c-1.784-1.295-2.877-3.362-3.282-6.199L223.805,53.063z"/>
<path fill="none" stroke="#000000" stroke-width="2" d="M239.849,122.223c-0.163,1.622-0.729,3.06-1.702,4.315
	c-0.972,1.255-2.087,2.167-3.342,2.735c-1.257,0.566-2.613,0.688-4.072,0.365c-1.458-0.325-2.755-1.216-3.889-2.674
	c-0.649-0.811-1.115-1.721-1.398-2.735c-0.285-1.012-0.467-2.066-0.547-3.16c-0.082-1.094-0.103-2.188-0.061-3.282
	c0.04-1.094,0.061-2.085,0.061-2.978c-0.082-4.78-0.103-9.521-0.061-14.221c0.04-4.699,0.019-9.439-0.061-14.221
	c0-1.945-0.122-3.908-0.365-5.895c-0.243-1.984-0.122-3.95,0.365-5.895c0.404-1.458,1.113-2.714,2.127-3.768
	c1.012-1.052,2.146-1.781,3.403-2.188c1.255-0.405,2.553-0.444,3.89-0.122c1.337,0.325,2.492,1.175,3.464,2.552
	c1.295,1.622,1.945,3.221,1.945,4.801s0,3.506,0,5.773c0,2.756,0,5.511,0,8.265c0,2.756,0.04,5.47,0.122,8.144
	c0.08,3.89,0.122,7.779,0.122,11.668c0,3.89,0,7.779,0,11.669V122.223z"/>
<path fill="none" stroke="#000000" stroke-width="2" d="M250.423,117.483c-0.486-1.377-0.689-2.735-0.607-4.072
	c0.08-1.337,0.425-2.553,1.033-3.646c0.607-1.094,1.478-1.945,2.613-2.553c1.134-0.607,2.511-0.83,4.132-0.668
	c0.891,0.082,1.702,0.325,2.431,0.729c0.729,0.406,1.397,0.893,2.005,1.458c0.608,0.568,1.215,1.176,1.823,1.823
	c0.608,0.649,1.234,1.215,1.884,1.702c1.377,1.054,2.835,1.823,4.376,2.31c1.538,0.486,3.16,0.851,4.862,1.094
	c1.134,0,2.045-0.283,2.735-0.851c0.688-0.566,1.155-1.255,1.398-2.066c0.243-0.809,0.304-1.681,0.182-2.613
	c-0.122-0.931-0.425-1.681-0.912-2.249c-1.379-1.376-3.06-2.268-5.044-2.674c-1.986-0.404-3.829-0.891-5.53-1.458
	c-2.431-0.809-4.822-1.842-7.171-3.1c-2.351-1.255-4.254-2.978-5.712-5.166c-1.541-2.268-2.452-4.68-2.735-7.232
	c-0.285-2.553-0.082-5.044,0.608-7.475c0.688-2.431,1.842-4.659,3.464-6.686c1.62-2.024,3.565-3.686,5.834-4.983
	c1.702-0.972,3.564-1.599,5.591-1.884c2.025-0.283,4.072-0.344,6.138-0.182c2.066,0.163,4.112,0.547,6.138,1.154
	c2.024,0.608,3.89,1.276,5.591,2.006c1.945,0.893,3.403,2.148,4.375,3.768c0.973,1.622,1.438,3.263,1.398,4.922
	c-0.042,1.662-0.608,3.1-1.702,4.315c-1.094,1.215-2.695,1.823-4.801,1.823c-1.297,0-2.473-0.222-3.525-0.668
	c-1.054-0.444-2.148-0.87-3.282-1.276c-1.458-0.566-3.039-0.952-4.74-1.155c-1.702-0.201-3.081-0.101-4.133,0.304
	c-0.325,0.082-0.689,0.346-1.094,0.79c-0.406,0.446-0.71,0.993-0.912,1.641c-0.203,0.649-0.243,1.297-0.122,1.945
	c0.122,0.649,0.547,1.176,1.276,1.58c1.945,1.054,4.011,1.865,6.199,2.431c2.188,0.568,4.334,1.215,6.442,1.945
	c2.106,0.729,4.072,1.662,5.895,2.795c1.823,1.136,3.343,2.756,4.558,4.862c1.782,3.081,2.693,6.301,2.735,9.663
	c0.04,3.363-0.628,6.502-2.005,9.42c-1.379,2.917-3.403,5.409-6.078,7.475c-2.674,2.066-5.794,3.301-9.359,3.707
	c-2.513,0.243-4.983,0.101-7.415-0.425c-2.431-0.528-4.782-1.379-7.049-2.553c-2.27-1.175-4.376-2.571-6.321-4.193
	c-1.945-1.62-3.646-3.321-5.105-5.105L250.423,117.483z"/>
<path fill="none" stroke="#000000" stroke-width="2" d="M370.631,127.085c-1.054,1.295-2.27,2.188-3.646,2.674
	c-1.379,0.486-2.795,0.486-4.254,0c-1.459-0.486-2.674-1.581-3.646-3.282c-0.407-0.649-0.729-1.337-0.973-2.066
	c-0.243-0.729-0.365-1.458-0.365-2.188V90.256c-1.54,0-2.938-0.425-4.193-1.276c-1.257-0.851-2.188-1.903-2.795-3.16
	c-0.608-1.255-0.832-2.592-0.668-4.011c0.162-1.417,0.809-2.734,1.945-3.95c0.809-0.891,1.681-1.478,2.613-1.762
	c0.931-0.283,1.924-0.465,2.978-0.547c-0.082-2.511-0.143-4.983-0.183-7.415c-0.042-2.431,0.141-4.862,0.547-7.293
	c0.486-3.808,1.62-7.05,3.403-9.724c1.782-2.674,3.99-4.74,6.625-6.199c2.632-1.458,5.57-2.31,8.812-2.553
	c3.24-0.243,6.604,0.243,10.088,1.458c1.458,0.486,2.856,1.094,4.193,1.823c1.337,0.729,2.532,1.662,3.586,2.796
	c0.729,0.811,1.255,1.762,1.58,2.856c0.323,1.094,0.383,2.188,0.182,3.282c-0.203,1.094-0.608,2.108-1.215,3.039
	c-0.608,0.932-1.479,1.641-2.613,2.127c-1.541,0.649-3.06,0.811-4.558,0.486c-1.5-0.323-2.978-0.851-4.437-1.58
	c-0.893-0.323-1.743-0.648-2.552-0.973c-0.811-0.323-1.662-0.566-2.553-0.729c-0.893-0.162-1.702-0.04-2.431,0.364
	c-0.729,0.407-1.358,0.954-1.884,1.641c-0.528,0.689-0.933,1.458-1.215,2.31c-0.285,0.851-0.425,1.683-0.425,2.492
	c-0.082,1.865-0.103,3.749-0.061,5.652c0.04,1.905,0.061,3.789,0.061,5.652c1.215-0.08,2.511-0.162,3.889-0.243
	c1.377-0.08,2.735-0.122,4.072-0.122c1.337,0,2.572,0.042,3.708,0.122c1.134,0.082,2.024,0.243,2.674,0.486
	c1.295,0.486,2.35,1.236,3.16,2.249c0.809,1.014,1.337,2.108,1.58,3.282c0.243,1.176,0.141,2.37-0.304,3.585
	c-0.446,1.216-1.236,2.27-2.37,3.16c-1.054,0.811-2.27,1.379-3.646,1.702c-1.379,0.325-2.837,0.547-4.375,0.669
	c-1.541,0.122-3.039,0.163-4.498,0.122c-1.458-0.04-2.755-0.061-3.889-0.061v32.453C372.333,124.25,371.684,125.788,370.631,127.085
	z"/>
<path fill="none" stroke="#000000" stroke-width="2" d="M393.239,96.577c0.566-2.349,1.356-4.659,2.37-6.928
	c1.012-2.268,2.249-4.437,3.707-6.502c1.459-2.066,3.1-3.951,4.923-5.652s3.787-3.078,5.895-4.132
	c3.726-1.945,7.475-2.936,11.243-2.978c3.768-0.04,7.272,0.71,10.514,2.249c3.24,1.541,5.996,3.829,8.265,6.868
	c2.268,3.039,3.768,6.666,4.498,10.878c0.404,2.755,0.626,5.369,0.668,7.84c0.04,2.473-0.224,5.044-0.79,7.718
	c-0.811,3.81-2.452,7.597-4.923,11.364c-2.473,3.768-5.43,6.928-8.873,9.481c-3.445,2.552-7.213,4.233-11.304,5.044
	c-4.093,0.809-8.205,0.162-12.337-1.945c-1.865-0.893-3.546-1.925-5.044-3.099c-1.5-1.174-2.856-2.572-4.072-4.193
	c-1.379-1.782-2.452-3.646-3.221-5.591c-0.771-1.945-1.398-3.969-1.884-6.077c-0.568-2.268-0.771-4.558-0.607-6.868
	c0.161-2.309,0.444-4.558,0.851-6.746L393.239,96.577z"/>
<path fill="none" stroke="#000000" stroke-width="2" d="M407.824,99.129c-0.243,1.297-0.446,2.573-0.607,3.829
	c-0.164,1.257-0.164,2.533,0,3.829c0.243,1.865,0.748,3.567,1.519,5.105c0.77,1.541,1.782,2.756,3.039,3.646
	c1.255,0.893,2.693,1.358,4.314,1.398c1.62,0.042,3.362-0.465,5.227-1.52c2.35-1.377,4.376-3.504,6.078-6.381
	c1.702-2.875,2.754-5.874,3.16-8.994c0.404-3.119,0.08-6.078-0.972-8.873c-1.054-2.795-3.121-4.801-6.199-6.017
	c-2.026,0-3.89,0.385-5.591,1.155c-1.702,0.771-3.181,1.783-4.436,3.039c-1.257,1.257-2.352,2.735-3.282,4.437
	C409.141,95.483,408.39,97.266,407.824,99.129z"/>
<path fill="none" stroke="#000000" stroke-width="2" d="M456.441,88.129c0.08-0.526,0.04-1.478-0.122-2.856
	c-1.297-0.729-2.31-1.66-3.039-2.796c-0.729-1.134-1.155-2.349-1.276-3.646c-0.122-1.295,0.122-2.532,0.729-3.708
	c0.608-1.173,1.599-2.167,2.978-2.978c1.863-1.052,3.909-1.255,6.138-0.608c2.228,0.649,4.152,1.622,5.773,2.917
	c2.024-1.538,4.133-2.835,6.32-3.889c2.188-1.052,4.416-1.763,6.685-2.127c2.268-0.364,4.577-0.304,6.928,0.183
	c2.35,0.486,4.659,1.5,6.928,3.039c1.134,0.729,2.188,1.641,3.16,2.735c0.973,1.094,1.58,2.33,1.823,3.707
	c0.405,2.026,0.243,3.789-0.486,5.287c-0.729,1.5-1.744,2.595-3.039,3.282c-1.297,0.689-2.755,0.893-4.375,0.607
	c-1.622-0.283-3.16-1.155-4.619-2.613c-0.486-0.323-0.832-0.587-1.033-0.79c-0.203-0.201-0.629-0.465-1.276-0.79
	c-1.297-0.323-2.573-0.243-3.829,0.243c-1.257,0.486-2.473,1.155-3.646,2.005c-1.176,0.851-2.27,1.784-3.282,2.796
	c-1.014,1.014-1.926,1.926-2.735,2.735v30.994c0,1.216-0.243,2.391-0.729,3.525c-0.729,1.863-1.884,3.16-3.464,3.89
	c-1.58,0.729-3.16,0.931-4.74,0.607c-1.58-0.325-2.959-1.135-4.133-2.431c-1.175-1.297-1.762-2.957-1.762-4.983V88.433
	C456.319,88.758,456.359,88.657,456.441,88.129z"/>
<path fill="none" stroke="#000000" stroke-width="2" d="M270.478,490.632c-1.379,4.539-3.141,8.976-5.287,13.31
	c-2.148,4.336-4.761,8.205-7.84,11.608c-3.081,3.403-6.666,6.157-10.757,8.265c-4.093,2.106-8.772,3.16-14.039,3.16
	c-3.403-0.164-6.098-0.467-8.083-0.912c-1.987-0.446-3.911-1.115-5.773-2.005c-3.324-0.973-6.18-2.532-8.569-4.68
	c-2.391-2.146-4.396-4.638-6.017-7.475c-1.622-2.835-2.856-5.854-3.707-9.055c-0.851-3.2-1.398-6.3-1.641-9.298
	c-0.406-5.267,0.04-10.615,1.337-16.044c1.295-5.428,3.361-10.432,6.199-15.011c2.835-4.577,6.4-8.508,10.696-11.79
	c4.294-3.282,9.196-5.449,14.707-6.502c2.835-0.486,5.713-0.648,8.63-0.486c2.917,0.164,5.752,0.729,8.508,1.702
	c2.268,0.811,4.375,1.744,6.32,2.795c1.945,1.054,3.808,2.391,5.591,4.011c2.349,2.108,4.334,4.539,5.956,7.293
	c1.62,2.755,2.796,5.633,3.525,8.63c0.891,3.81,1.295,7.578,1.215,11.304C271.368,483.178,271.043,486.906,270.478,490.632z"/>
<path fill="none" stroke="#000000" stroke-width="2" d="M238.997,511.173c2.431-1.052,4.558-2.45,6.381-4.193
	c1.823-1.742,3.422-3.666,4.801-5.773c1.377-2.106,2.532-4.355,3.464-6.746c0.931-2.389,1.763-4.801,2.492-7.232
	c0.486-3.079,0.748-6.239,0.79-9.48c0.04-3.24-0.629-6.32-2.006-9.238c-1.136-2.431-2.856-4.516-5.166-6.259
	c-2.31-1.742-4.843-2.957-7.597-3.646c-2.756-0.688-5.53-0.83-8.326-0.426c-2.795,0.407-5.287,1.5-7.475,3.282
	c-3.081,2.594-5.572,5.49-7.475,8.69c-1.905,3.202-3.342,6.746-4.315,10.635c-0.811,3.081-1.257,6.32-1.337,9.724
	c-0.082,3.403,0.444,6.646,1.58,9.724c0.891,2.27,2.207,4.335,3.95,6.199c1.742,1.865,3.707,3.324,5.895,4.375
	c2.188,1.054,4.516,1.641,6.989,1.763C234.114,512.693,236.566,512.228,238.997,511.173z"/>
<path fill="none" stroke="#000000" stroke-width="2" d="M344.621,469.118c1.215-1.62,2.613-2.735,4.193-3.342
	c1.58-0.608,3.058-0.729,4.437-0.365c1.377,0.365,2.552,1.196,3.525,2.492c0.972,1.297,1.498,3.039,1.58,5.227
	c0.08,1.215-0.426,3.403-1.52,6.563s-2.412,7.292-3.95,12.397c-0.082,0.325-0.224,0.729-0.425,1.216
	c-0.203,0.486-0.486,1.297-0.851,2.431c-0.365,1.136-0.893,2.716-1.58,4.74c-0.689,2.027-1.641,4.741-2.856,8.144
	c-0.568,1.702-1.276,3.728-2.127,6.077c-0.851,2.351-1.926,4.437-3.221,6.26c-1.297,1.823-2.837,3.079-4.619,3.768
	c-1.783,0.688-3.931,0.182-6.442-1.52c-0.811-0.568-1.702-1.721-2.674-3.464c-0.973-1.742-1.905-3.625-2.796-5.652
	c-0.893-2.024-1.683-3.95-2.37-5.773c-0.689-1.823-1.155-3.018-1.398-3.585c-0.567-1.295-1.215-2.735-1.944-4.315
	c-0.729-1.58-1.419-3.179-2.066-4.801l-0.729,1.823c-1.054,2.674-2.108,5.348-3.16,8.022c-1.054,2.674-2.108,5.308-3.16,7.9
	c-0.568,1.379-1.094,2.877-1.58,4.497c-0.486,1.622-1.176,3.039-2.066,4.254c-0.729,1.052-1.641,1.802-2.735,2.249
	c-1.094,0.444-2.208,0.626-3.342,0.547c-1.136-0.082-2.209-0.386-3.221-0.912c-1.014-0.528-1.884-1.276-2.613-2.249
	c-1.136-1.62-2.026-3.483-2.674-5.591c-0.649-2.106-1.297-4.051-1.945-5.834c-0.893-2.511-1.702-5.084-2.431-7.718
	c-0.729-2.632-1.5-5.166-2.309-7.597c-0.407-1.295-0.933-2.997-1.58-5.105c-0.65-2.106-1.276-4.273-1.884-6.503
	c-0.607-2.228-1.094-4.395-1.458-6.503c-0.365-2.106-0.507-3.848-0.425-5.226c0.08-1.377,0.547-2.613,1.398-3.708
	c0.851-1.094,1.884-1.903,3.099-2.431c1.216-0.526,2.492-0.708,3.829-0.547c1.337,0.164,2.532,0.771,3.586,1.823
	c1.538,1.622,2.471,3.343,2.795,5.166c0.323,1.823,0.688,3.789,1.094,5.895c0.647,3.242,1.397,6.442,2.249,9.602
	c0.851,3.16,1.762,6.32,2.735,9.481c0.323-0.729,0.688-1.62,1.094-2.674c0.404-1.052,1.052-2.632,1.945-4.74
	c0.729-1.781,1.438-3.525,2.127-5.227c0.688-1.702,1.356-3.403,2.005-5.105c0.486-1.215,0.973-2.41,1.459-3.585
	c0.486-1.174,0.972-2.329,1.458-3.464c0.566-1.215,1.397-2.207,2.492-2.978c1.094-0.769,2.289-1.255,3.585-1.458
	c1.295-0.201,2.553-0.08,3.768,0.365c1.215,0.446,2.188,1.276,2.917,2.492c1.052,1.622,1.863,3.424,2.431,5.409
	c0.566,1.987,1.173,3.871,1.823,5.652c1.134,2.917,2.249,5.855,3.342,8.812c1.094,2.959,2.249,5.855,3.464,8.69
	c1.781-4.862,3.361-9.743,4.74-14.646c1.377-4.901,2.875-9.784,4.497-14.646L344.621,469.118z"/>
<path fill="none" stroke="#000000" stroke-width="2" d="M381.814,514.09c0.891,0.811,1.641,1.844,2.249,3.1
	c0.608,1.257,0.931,2.513,0.973,3.768c0.04,1.255-0.243,2.431-0.851,3.525c-0.607,1.094-1.683,1.924-3.221,2.492
	c-1.216,0.404-2.553,0.486-4.011,0.243s-2.898-0.729-4.315-1.458c-1.418-0.729-2.674-1.601-3.768-2.613
	c-1.094-1.014-1.884-2.127-2.37-3.343c-0.163-0.404-0.285-0.87-0.365-1.398c-0.082-0.526-0.122-0.991-0.122-1.397v-67.458
	c0-1.863,0.708-3.443,2.127-4.741c1.417-1.295,2.978-2.066,4.679-2.309c0.809-0.08,1.681,0.042,2.613,0.365
	c0.931,0.325,1.803,0.79,2.613,1.397c0.809,0.608,1.478,1.318,2.006,2.127c0.526,0.811,0.79,1.662,0.79,2.553
	c0,2.108,0,4.904,0,8.387c0,3.485,0.019,7.293,0.061,11.425c0.04,4.133,0.061,8.408,0.061,12.823c0,4.417-0.021,8.651-0.061,12.702
	c-0.042,4.053-0.061,7.76-0.061,11.122c0,3.363-0.042,6.059-0.122,8.083L381.814,514.09z"/>
</svg>
