<?xml version="1.0" encoding="utf-8"?>
<!-- Generator: Adobe Illustrator 16.0.0, SVG Export Plug-In . SVG Version: 6.00 Build 0)  -->
<!DOCTYPE svg PUBLIC "-//W3C//DTD SVG 1.1//EN" "http://www.w3.org/Graphics/SVG/1.1/DTD/svg11.dtd">
<svg version="1.1" xmlns="http://www.w3.org/2000/svg" xmlns:xlink="http://www.w3.org/1999/xlink" x="0px" y="0px" width="100%"
	 height="100%" viewBox="0 0 1000 1000" style="enable-background:new 0 0 1000 1000;" xml:space="preserve">
<g id="Layer_3">
	<rect style="fill:#FFFFFF;" width="1000" height="1000"/>
</g>
<g id="Layer_1">
	<path style="fill:#FFFFFF;stroke:#231F20;stroke-width:2;stroke-miterlimit:10;" d="M176.906,827.465
		c1.323,0.836,2.299,1.897,2.926,3.188c0.627,1.288,0.889,2.577,0.784,3.867c-0.105,1.288-0.611,2.42-1.516,3.396
		c-0.907,0.976-2.265,1.498-4.076,1.568c-1.325,0.068-2.858-0.209-4.599-0.837c-1.742-0.627-3.485-1.41-5.226-2.352
		c-1.742-0.94-3.38-1.934-4.912-2.979c-1.534-1.045-2.788-1.951-3.763-2.718c-1.743,0.905-3.554,1.741-5.435,2.509
		c-1.881,0.766-3.938,1.219-6.167,1.358c-1.463,0.349-2.927,0.4-4.39,0.157c-1.463-0.245-2.788-0.507-3.972-0.784
		c-3.903-0.768-7.438-2.108-10.608-4.023c-3.171-1.916-5.801-4.615-7.891-8.101c-2.299-3.763-3.851-7.978-4.651-12.646
		c-0.802-4.668-0.94-9.354-0.418-14.058c0.522-4.704,1.707-9.232,3.554-13.588c1.845-4.354,4.337-8.135,7.473-11.34
		c3.274-3.345,7.142-5.766,11.602-7.265c4.458-1.497,8.953-2.038,13.483-1.62c4.529,0.418,8.796,1.795,12.804,4.129
		c4.006,2.335,7.124,5.696,9.354,10.086c1.811,3.554,3.031,7.387,3.658,11.497c0.627,4.112,0.695,8.257,0.209,12.438
		c-0.488,4.181-1.481,8.241-2.979,12.177c-1.499,3.938-3.467,7.438-5.905,10.504c1.672,1.115,3.397,2.108,5.174,2.979
		C173.196,825.88,175.025,826.698,176.906,827.465z"/>
	<path style="fill:#FFFFFF;stroke:#231F20;stroke-width:2;stroke-miterlimit:10;" d="M148.268,804.156
		c1.463,0.768,2.908,2.091,4.337,3.972c1.427,1.882,2.77,3.624,4.024,5.227c1.602-2.368,2.838-4.843,3.71-7.421
		c0.871-2.577,1.62-5.331,2.247-8.257c0-1.394,0-2.822,0-4.285c0-1.464-0.088-2.927-0.261-4.391
		c-0.175-1.463-0.454-2.891-0.836-4.285c-0.384-1.393-0.993-2.682-1.829-3.867c-1.325-2.02-3.049-3.622-5.174-4.808
		c-2.126-1.184-4.374-1.95-6.742-2.3c-2.37-0.348-4.703-0.209-7.002,0.419c-2.3,0.627-4.355,1.776-6.167,3.448
		c-3.135,2.927-5.487,6.464-7.055,10.609c-1.568,4.146-2.317,8.309-2.247,12.49c0,2.439,0.295,4.859,0.888,7.264
		c0.591,2.404,1.516,4.582,2.77,6.532c1.254,1.952,2.856,3.59,4.808,4.912c1.95,1.325,4.285,2.091,7.003,2.3
		c1.741,0.209,3.588,0.104,5.54-0.313c-1.395-1.532-2.806-3.257-4.233-5.174c-1.429-1.916-2.247-3.744-2.456-5.487
		c-0.209-1.184-0.07-2.281,0.418-3.292c0.487-1.01,1.15-1.846,1.986-2.509c0.836-0.661,1.811-1.098,2.927-1.307
		C146.037,803.425,147.152,803.6,148.268,804.156z"/>
	<path style="fill:#FFFFFF;stroke:#231F20;stroke-width:2;stroke-miterlimit:10;" d="M232.719,821.089
		c0.627,0.906,0.993,1.97,1.098,3.188c0.104,1.22-0.036,2.37-0.418,3.449c-0.384,1.081-1.011,1.968-1.881,2.665
		c-0.872,0.696-2.003,1.01-3.396,0.941c-1.813-0.141-3.276-0.768-4.39-1.882c-1.115-1.113-2.161-2.368-3.135-3.763
		c-2.718,2.23-5.523,3.779-8.414,4.651c-2.892,0.87-5.732,1.062-8.518,0.574c-2.788-0.488-5.401-1.655-7.839-3.501
		c-2.44-1.846-4.495-4.338-6.167-7.473c-1.534-2.927-2.388-6.167-2.561-9.721c-0.175-3.554-0.227-6.933-0.157-10.139
		c0-1.113,0.034-2.211,0.104-3.292c0.069-1.079,0.139-2.211,0.209-3.396c0.069-0.905,0.104-1.794,0.104-2.666
		c0-0.87,0.052-1.688,0.157-2.456c0.104-0.766,0.314-1.531,0.627-2.299c0.313-0.767,0.784-1.498,1.411-2.195
		c0.836-0.904,1.846-1.445,3.031-1.62c1.184-0.173,2.316-0.052,3.397,0.366c1.08,0.418,2.02,1.062,2.822,1.934
		c0.8,0.872,1.236,1.934,1.307,3.188c0.139,3.554,0.052,7.144-0.261,10.766c-0.313,3.624-0.297,7.178,0.052,10.661
		c0.139,1.672,0.575,3.38,1.307,5.121c0.731,1.742,1.897,2.997,3.501,3.763c1.602,0.697,3.222,0.646,4.86-0.156
		c1.636-0.801,2.979-1.76,4.024-2.875c0.487-0.557,0.957-1.166,1.411-1.829c0.452-0.661,0.957-1.236,1.516-1.725
		c-0.279-2.438-0.454-4.876-0.523-7.316c-0.07-2.438-0.07-4.876,0-7.316c0-1.322,0.052-2.77,0.157-4.337
		c0.104-1.568,0.382-3.065,0.836-4.494c0.452-1.428,1.132-2.682,2.038-3.763c0.905-1.08,2.195-1.759,3.867-2.038
		c0.766-0.139,1.516-0.069,2.247,0.209c0.731,0.279,1.375,0.663,1.934,1.149c0.975,0.836,1.636,1.776,1.986,2.822
		c0.348,1.045,0.522,2.16,0.522,3.345c0,1.186-0.088,2.388-0.261,3.605c-0.175,1.22-0.297,2.352-0.366,3.396
		c-0.141,1.952-0.245,4.008-0.313,6.167c-0.07,2.161,0,4.321,0.209,6.48c0.209,2.16,0.609,4.251,1.202,6.271
		C230.645,817.571,231.533,819.416,232.719,821.089z"/>
	<path style="fill:#FFFFFF;stroke:#231F20;stroke-width:2;stroke-miterlimit:10;" d="M240.034,766.844
		c0.277-2.577,1.166-4.477,2.665-5.696c1.498-1.219,3.083-1.812,4.756-1.777c1.672,0.036,3.222,0.68,4.651,1.934
		c1.427,1.255,2.177,3.031,2.247,5.331c0.139,2.369-0.47,4.198-1.829,5.487c-1.359,1.29-2.91,2.021-4.651,2.194
		c-1.743,0.175-3.381-0.296-4.913-1.411c-1.533-1.113-2.474-2.891-2.822-5.33L240.034,766.844z"/>
	<path style="fill:#FFFFFF;stroke:#231F20;stroke-width:2;stroke-miterlimit:10;" d="M253.831,826.314
		c-0.141,1.395-0.627,2.631-1.463,3.711c-0.836,1.079-1.795,1.863-2.874,2.352c-1.082,0.486-2.248,0.591-3.501,0.313
		c-1.254-0.279-2.37-1.045-3.345-2.3c-0.559-0.697-0.958-1.479-1.202-2.352c-0.245-0.87-0.401-1.776-0.47-2.718
		c-0.07-0.94-0.088-1.881-0.052-2.821c0.034-0.941,0.052-1.793,0.052-2.561c-0.07-4.111-0.088-8.188-0.052-12.229
		c0.034-4.04,0.017-8.116-0.052-12.229c0-1.672-0.104-3.36-0.313-5.069c-0.209-1.706-0.104-3.396,0.313-5.068
		c0.348-1.255,0.957-2.334,1.829-3.24c0.871-0.905,1.845-1.532,2.927-1.882c1.079-0.348,2.195-0.382,3.344-0.104
		c1.15,0.279,2.143,1.011,2.979,2.195c1.114,1.395,1.672,2.77,1.672,4.128c0,1.359,0,3.015,0,4.965c0,2.37,0,4.739,0,7.107
		c0,2.369,0.034,4.703,0.104,7.003c0.068,3.345,0.104,6.689,0.104,10.033c0,3.345,0,6.689,0,10.034V826.314z"/>
	<path style="fill:#FFFFFF;stroke:#231F20;stroke-width:2;stroke-miterlimit:10;" d="M262.923,822.238
		c-0.418-1.184-0.593-2.352-0.522-3.501c0.068-1.15,0.366-2.195,0.888-3.136c0.523-0.94,1.271-1.673,2.248-2.195
		c0.975-0.522,2.159-0.713,3.553-0.574c0.766,0.07,1.463,0.279,2.09,0.627c0.627,0.35,1.202,0.768,1.725,1.254
		c0.523,0.488,1.045,1.011,1.568,1.568c0.522,0.559,1.062,1.045,1.62,1.463c1.184,0.906,2.438,1.567,3.763,1.986
		c1.323,0.418,2.717,0.731,4.181,0.94c0.975,0,1.759-0.243,2.352-0.731c0.591-0.487,0.993-1.08,1.202-1.777
		c0.209-0.695,0.261-1.445,0.157-2.247c-0.104-0.8-0.366-1.445-0.784-1.934c-1.186-1.184-2.631-1.95-4.338-2.3
		c-1.708-0.348-3.292-0.766-4.755-1.254c-2.09-0.695-4.146-1.584-6.167-2.665c-2.022-1.08-3.658-2.561-4.913-4.442
		c-1.324-1.95-2.108-4.023-2.352-6.219c-0.245-2.194-0.07-4.338,0.522-6.428c0.591-2.091,1.584-4.006,2.979-5.749
		c1.393-1.74,3.065-3.17,5.017-4.285c1.463-0.836,3.065-1.375,4.808-1.62c1.741-0.243,3.501-0.295,5.278-0.156
		c1.777,0.141,3.536,0.47,5.278,0.993c1.741,0.522,3.345,1.097,4.808,1.725c1.672,0.768,2.927,1.847,3.763,3.239
		c0.836,1.396,1.236,2.806,1.202,4.233c-0.036,1.429-0.523,2.665-1.463,3.71c-0.941,1.046-2.317,1.568-4.128,1.568
		c-1.116,0-2.126-0.191-3.031-0.575c-0.906-0.382-1.847-0.748-2.822-1.098c-1.254-0.486-2.613-0.817-4.077-0.992
		c-1.463-0.174-2.649-0.087-3.553,0.261c-0.279,0.07-0.593,0.298-0.941,0.68c-0.35,0.384-0.611,0.854-0.784,1.411
		c-0.175,0.559-0.209,1.115-0.104,1.672c0.104,0.559,0.47,1.011,1.097,1.359c1.672,0.906,3.449,1.604,5.331,2.09
		c1.881,0.488,3.727,1.045,5.54,1.673c1.811,0.627,3.501,1.429,5.069,2.403c1.567,0.977,2.874,2.37,3.919,4.181
		c1.532,2.649,2.315,5.419,2.352,8.31c0.034,2.893-0.541,5.592-1.725,8.101c-1.186,2.508-2.927,4.65-5.226,6.428
		c-2.299,1.776-4.982,2.838-8.048,3.188c-2.161,0.209-4.285,0.087-6.375-0.366s-4.112-1.186-6.062-2.194
		c-1.951-1.011-3.763-2.211-5.435-3.606c-1.672-1.393-3.136-2.855-4.39-4.39L262.923,822.238z"/>
	<path style="fill:#FFFFFF;stroke:#231F20;stroke-width:2;stroke-miterlimit:10;" d="M335.669,816.177
		c1.741-1.114,3.397-1.603,4.965-1.464c1.568,0.141,2.856,0.68,3.867,1.62c1.009,0.94,1.568,2.195,1.672,3.763
		c0.104,1.568-0.436,3.224-1.62,4.965c-0.768,1.186-1.865,2.265-3.292,3.24c-1.429,0.975-2.806,1.74-4.128,2.299
		c-3.067,1.394-6.167,2.021-9.302,1.882c-3.135-0.141-6.046-0.906-8.727-2.3c-2.684-1.393-5.001-3.326-6.951-5.801
		c-1.952-2.473-3.276-5.347-3.972-8.623c-1.395-6.271-1.115-12.297,0.836-18.081c0.766-2.091,1.689-4.11,2.77-6.062
		c1.08-1.95,2.386-3.727,3.919-5.33c1.532-1.603,3.24-3.014,5.122-4.233c1.881-1.218,3.936-2.038,6.167-2.456
		c1.532-0.277,3.483-0.262,5.853,0.053c2.368,0.313,4.685,0.924,6.95,1.828c2.264,0.907,4.25,2.091,5.958,3.554
		c1.707,1.464,2.665,3.206,2.874,5.227c0.139,1.115,0,2.143-0.418,3.083s-1.011,1.725-1.777,2.352
		c-0.768,0.627-1.656,1.063-2.665,1.307c-1.011,0.245-2.039,0.228-3.083-0.052c-1.254-0.349-2.247-0.818-2.979-1.411
		c-0.731-0.592-1.69-1.375-2.874-2.352c-0.559-0.14-1.081-0.366-1.568-0.68c-0.488-0.313-1.011-0.435-1.568-0.366l-2.822,0.313
		c-0.488,0.279-0.941,0.523-1.359,0.732s-0.836,0.418-1.254,0.627c-2.37,2.369-4.112,5-5.226,7.891
		c-1.116,2.893-1.395,6.01-0.836,9.354c0.348,2.161,1.027,3.938,2.038,5.331c1.009,1.395,2.195,2.352,3.554,2.874
		s2.856,0.575,4.494,0.156c1.637-0.418,3.257-1.358,4.86-2.821L335.669,816.177z"/>
	<path style="fill:#FFFFFF;stroke:#231F20;stroke-width:2;stroke-miterlimit:10;" d="M397.961,824.643
		c0.557,2.021,0.453,3.694-0.313,5.017c-0.768,1.323-1.829,2.211-3.188,2.665c-1.358,0.453-2.84,0.4-4.442-0.156
		c-1.604-0.559-2.997-1.673-4.181-3.345c-1.952,1.463-3.851,2.49-5.696,3.083c-1.847,0.592-3.956,0.923-6.323,0.993
		c-3.554,0.139-6.725-0.262-9.511-1.202c-2.788-0.94-5.14-2.352-7.055-4.232c-1.917-1.882-3.328-4.233-4.233-7.056
		c-0.907-2.822-1.22-6.078-0.941-9.772c0.139-1.531,0.4-3.031,0.784-4.494c0.382-1.463,0.818-2.891,1.306-4.285
		c0.557-1.532,1.341-3.17,2.352-4.912c1.009-1.741,2.038-3.24,3.083-4.495c3.763-4.599,8.466-7.907,14.11-9.929
		c0.975-0.348,2.299-0.662,3.972-0.94s3.361-0.4,5.069-0.366c1.707,0.036,3.345,0.261,4.913,0.68
		c1.568,0.418,2.734,1.149,3.501,2.194c0.627,0.836,1.08,1.568,1.358,2.195c0.278,0.627,0.435,1.29,0.471,1.985
		c0.034,0.697,0.034,1.447,0,2.247c-0.036,0.802-0.052,1.795-0.052,2.979c0,1.951-0.018,3.851-0.052,5.696
		c-0.036,1.847-0.018,3.71,0.052,5.592c0,0.627,0,1.446,0,2.456c0,1.011,0.034,2.074,0.104,3.188
		c0.068,1.115,0.157,2.179,0.261,3.188c0.104,1.012,0.261,1.829,0.47,2.457L397.961,824.643z"/>
	<path style="fill:#FFFFFF;stroke:#231F20;stroke-width:2;stroke-miterlimit:10;" d="M375.804,819.939
		c0.766-0.487,1.636-1.027,2.613-1.62c0.975-0.592,1.845-1.271,2.613-2.038c-0.627-3.692-0.993-7.386-1.097-11.079
		c-0.104-3.692-0.088-7.421,0.052-11.184c-3.136,0.559-5.958,1.917-8.466,4.076c-2.508,2.16-4.251,4.703-5.226,7.63
		c-0.418,1.186-0.768,2.403-1.045,3.658c-0.279,1.254-0.384,2.474-0.313,3.658c0.068,1.604,0.487,2.944,1.254,4.023
		c0.766,1.081,1.688,1.899,2.77,2.456c1.08,0.559,2.229,0.872,3.449,0.941C373.625,820.532,374.758,820.357,375.804,819.939z"/>
	<path style="fill:#FFFFFF;stroke:#231F20;stroke-width:2;stroke-miterlimit:10;" d="M420.016,822.761
		c0.766,0.697,1.411,1.586,1.934,2.666c0.522,1.081,0.8,2.16,0.836,3.239c0.034,1.08-0.209,2.091-0.731,3.031
		c-0.523,0.94-1.447,1.654-2.77,2.143c-1.045,0.348-2.195,0.418-3.449,0.209c-1.254-0.209-2.492-0.627-3.71-1.254
		c-1.22-0.627-2.299-1.377-3.24-2.247c-0.941-0.872-1.62-1.829-2.038-2.874c-0.141-0.349-0.245-0.748-0.313-1.202
		c-0.07-0.452-0.105-0.853-0.105-1.202v-58.008c0-1.603,0.609-2.961,1.829-4.076c1.218-1.114,2.561-1.777,4.024-1.986
		c0.695-0.068,1.445,0.036,2.247,0.313c0.8,0.279,1.55,0.68,2.247,1.202c0.696,0.522,1.271,1.134,1.725,1.829
		c0.452,0.697,0.679,1.429,0.679,2.195c0,1.812,0,4.217,0,7.212c0,2.996,0.017,6.271,0.052,9.824
		c0.034,3.554,0.052,7.229,0.052,11.026c0,3.799-0.018,7.439-0.052,10.923c-0.036,3.485-0.052,6.673-0.052,9.563
		c0,2.892-0.036,5.209-0.104,6.95L420.016,822.761z"/>
	<path style="fill:#FFFFFF;stroke:#231F20;stroke-width:2;stroke-miterlimit:10;" d="M474.992,821.089
		c0.627,0.906,0.993,1.97,1.098,3.188c0.104,1.22-0.036,2.37-0.418,3.449c-0.384,1.081-1.011,1.968-1.881,2.665
		c-0.872,0.696-2.003,1.01-3.396,0.941c-1.813-0.141-3.276-0.768-4.39-1.882c-1.115-1.113-2.161-2.368-3.135-3.763
		c-2.718,2.23-5.523,3.779-8.414,4.651c-2.892,0.87-5.732,1.062-8.518,0.574c-2.788-0.488-5.401-1.655-7.839-3.501
		c-2.44-1.846-4.495-4.338-6.167-7.473c-1.534-2.927-2.388-6.167-2.561-9.721c-0.175-3.554-0.227-6.933-0.157-10.139
		c0-1.113,0.034-2.211,0.104-3.292c0.069-1.079,0.139-2.211,0.209-3.396c0.069-0.905,0.104-1.794,0.104-2.666
		c0-0.87,0.052-1.688,0.157-2.456c0.104-0.766,0.314-1.531,0.627-2.299c0.313-0.767,0.784-1.498,1.411-2.195
		c0.836-0.904,1.846-1.445,3.031-1.62c1.184-0.173,2.316-0.052,3.397,0.366c1.08,0.418,2.02,1.062,2.822,1.934
		c0.8,0.872,1.236,1.934,1.307,3.188c0.139,3.554,0.052,7.144-0.261,10.766c-0.313,3.624-0.297,7.178,0.052,10.661
		c0.139,1.672,0.575,3.38,1.307,5.121c0.731,1.742,1.897,2.997,3.501,3.763c1.602,0.697,3.222,0.646,4.86-0.156
		c1.636-0.801,2.979-1.76,4.024-2.875c0.487-0.557,0.957-1.166,1.411-1.829c0.452-0.661,0.957-1.236,1.516-1.725
		c-0.279-2.438-0.454-4.876-0.523-7.316c-0.07-2.438-0.07-4.876,0-7.316c0-1.322,0.052-2.77,0.157-4.337
		c0.104-1.568,0.382-3.065,0.836-4.494c0.452-1.428,1.132-2.682,2.038-3.763c0.905-1.08,2.195-1.759,3.867-2.038
		c0.766-0.139,1.516-0.069,2.247,0.209c0.731,0.279,1.375,0.663,1.934,1.149c0.975,0.836,1.636,1.776,1.986,2.822
		c0.348,1.045,0.522,2.16,0.522,3.345c0,1.186-0.088,2.388-0.261,3.605c-0.175,1.22-0.297,2.352-0.366,3.396
		c-0.141,1.952-0.245,4.008-0.313,6.167c-0.07,2.161,0,4.321,0.209,6.48c0.209,2.16,0.609,4.251,1.202,6.271
		C472.918,817.571,473.807,819.416,474.992,821.089z"/>
	<path style="fill:#FFFFFF;stroke:#231F20;stroke-width:2;stroke-miterlimit:10;" d="M482.202,822.238
		c-0.418-1.184-0.593-2.352-0.522-3.501c0.068-1.15,0.366-2.195,0.888-3.136c0.523-0.94,1.271-1.673,2.248-2.195
		c0.975-0.522,2.159-0.713,3.553-0.574c0.766,0.07,1.463,0.279,2.09,0.627c0.627,0.35,1.202,0.768,1.725,1.254
		c0.523,0.488,1.045,1.011,1.568,1.568c0.522,0.559,1.062,1.045,1.62,1.463c1.184,0.906,2.438,1.567,3.763,1.986
		c1.323,0.418,2.718,0.731,4.181,0.94c0.975,0,1.759-0.243,2.352-0.731c0.592-0.487,0.993-1.08,1.202-1.777
		c0.209-0.695,0.261-1.445,0.157-2.247c-0.105-0.8-0.366-1.445-0.784-1.934c-1.186-1.184-2.631-1.95-4.338-2.3
		c-1.708-0.348-3.292-0.766-4.755-1.254c-2.09-0.695-4.146-1.584-6.167-2.665c-2.022-1.08-3.658-2.561-4.913-4.442
		c-1.324-1.95-2.108-4.023-2.352-6.219c-0.245-2.194-0.07-4.338,0.522-6.428c0.591-2.091,1.584-4.006,2.979-5.749
		c1.393-1.74,3.065-3.17,5.017-4.285c1.463-0.836,3.065-1.375,4.808-1.62c1.741-0.243,3.501-0.295,5.279-0.156
		c1.776,0.141,3.535,0.47,5.277,0.993c1.741,0.522,3.345,1.097,4.809,1.725c1.672,0.768,2.926,1.847,3.762,3.239
		c0.836,1.396,1.236,2.806,1.203,4.233c-0.037,1.429-0.523,2.665-1.464,3.71c-0.94,1.046-2.317,1.568-4.128,1.568
		c-1.116,0-2.127-0.191-3.031-0.575c-0.906-0.382-1.848-0.748-2.822-1.098c-1.254-0.486-2.613-0.817-4.076-0.992
		c-1.463-0.174-2.649-0.087-3.554,0.261c-0.279,0.07-0.593,0.298-0.941,0.68c-0.35,0.384-0.611,0.854-0.784,1.411
		c-0.175,0.559-0.209,1.115-0.104,1.672c0.104,0.559,0.47,1.011,1.097,1.359c1.672,0.906,3.45,1.604,5.331,2.09
		c1.881,0.488,3.727,1.045,5.539,1.673c1.812,0.627,3.502,1.429,5.07,2.403c1.566,0.977,2.873,2.37,3.919,4.181
		c1.532,2.649,2.315,5.419,2.352,8.31c0.034,2.893-0.54,5.592-1.725,8.101c-1.186,2.508-2.927,4.65-5.226,6.428
		c-2.3,1.776-4.982,2.838-8.049,3.188c-2.16,0.209-4.285,0.087-6.375-0.366s-4.112-1.186-6.062-2.194
		c-1.951-1.011-3.763-2.211-5.435-3.606c-1.672-1.393-3.136-2.855-4.39-4.39L482.202,822.238z"/>
	<path style="fill:#FFFFFF;stroke:#231F20;stroke-width:2;stroke-miterlimit:10;" d="M608.459,851.19
		c-0.279,1.463-0.784,2.699-1.516,3.71c-0.731,1.01-1.586,1.725-2.561,2.143c-0.977,0.418-2.074,0.505-3.292,0.262
		c-1.22-0.245-2.492-0.925-3.815-2.038c-0.35-0.35-0.61-1.098-0.783-2.247c-0.175-1.15-0.298-2.545-0.366-4.181
		c-0.07-1.639-0.104-3.397-0.104-5.278c0-1.882,0-3.694,0-5.436c0-1.742-0.018-3.328-0.053-4.755
		c-0.035-1.43-0.122-2.492-0.261-3.188c-2.161,0.558-4.321,0.923-6.48,1.098c-2.16,0.173-4.355,0.087-6.585-0.262
		c-3.484-0.627-6.394-1.845-8.727-3.657c-2.336-1.812-4.165-4.007-5.487-6.585c-1.325-2.577-2.179-5.436-2.562-8.57
		c-0.383-3.136-0.331-6.34,0.157-9.616c0.486-3.274,1.479-6.167,2.979-8.675c1.498-2.509,3.345-4.651,5.54-6.428
		c2.194-1.777,4.65-3.17,7.368-4.182c2.718-1.009,5.574-1.619,8.57-1.829c1.394-0.139,2.943-0.086,4.651,0.157
		c1.707,0.245,3.257,0.716,4.651,1.411c1.393-0.557,2.752-0.609,4.076-0.157c1.323,0.454,2.473,1.343,3.449,2.666
		c0.209,0.349,0.452,0.749,0.731,1.201c0.277,0.454,0.418,0.889,0.418,1.307c0.068,10.452,0.087,20.87,0.053,31.251
		c-0.036,10.382-0.053,20.8-0.053,31.252V851.19z"/>
	<path style="fill:#FFFFFF;stroke:#231F20;stroke-width:2;stroke-miterlimit:10;" d="M578.462,813.354
		c0.418,1.881,1.341,3.206,2.771,3.972c1.427,0.768,3.013,1.186,4.755,1.254c1.741,0.07,3.502-0.104,5.278-0.522
		c1.777-0.418,3.257-0.87,4.442-1.358v-21.531c-0.836-0.277-1.656-0.486-2.456-0.627c-0.802-0.139-1.62-0.209-2.456-0.209
		c-3.067,0-5.487,0.559-7.265,1.672c-1.776,1.115-3.083,2.579-3.919,4.39c-0.837,1.813-1.307,3.852-1.411,6.115
		C578.097,808.773,578.183,811.055,578.462,813.354z"/>
	<path style="fill:#FFFFFF;stroke:#231F20;stroke-width:2;stroke-miterlimit:10;" d="M662.704,821.089
		c0.627,0.906,0.993,1.97,1.098,3.188c0.104,1.22-0.036,2.37-0.418,3.449c-0.384,1.081-1.011,1.968-1.882,2.665
		c-0.872,0.696-2.004,1.01-3.396,0.941c-1.812-0.141-3.276-0.768-4.39-1.882c-1.116-1.113-2.161-2.368-3.136-3.763
		c-2.718,2.23-5.523,3.779-8.414,4.651c-2.892,0.87-5.732,1.062-8.519,0.574c-2.787-0.488-5.4-1.655-7.839-3.501
		c-2.439-1.846-4.494-4.338-6.166-7.473c-1.534-2.927-2.388-6.167-2.561-9.721c-0.175-3.554-0.228-6.933-0.157-10.139
		c0-1.113,0.034-2.211,0.104-3.292c0.068-1.079,0.139-2.211,0.209-3.396c0.068-0.905,0.104-1.794,0.104-2.666
		c0-0.87,0.053-1.688,0.157-2.456c0.104-0.766,0.313-1.531,0.627-2.299c0.313-0.767,0.784-1.498,1.411-2.195
		c0.836-0.904,1.845-1.445,3.031-1.62c1.184-0.173,2.315-0.052,3.396,0.366c1.079,0.418,2.021,1.062,2.822,1.934
		c0.8,0.872,1.236,1.934,1.306,3.188c0.14,3.554,0.053,7.144-0.261,10.766c-0.313,3.624-0.297,7.178,0.052,10.661
		c0.14,1.672,0.575,3.38,1.307,5.121c0.731,1.742,1.897,2.997,3.502,3.763c1.602,0.697,3.222,0.646,4.859-0.156
		c1.637-0.801,2.979-1.76,4.024-2.875c0.486-0.557,0.957-1.166,1.411-1.829c0.452-0.661,0.957-1.236,1.516-1.725
		c-0.279-2.438-0.454-4.876-0.522-7.316c-0.07-2.438-0.07-4.876,0-7.316c0-1.322,0.052-2.77,0.156-4.337
		c0.104-1.568,0.383-3.065,0.836-4.494c0.453-1.428,1.132-2.682,2.038-3.763c0.905-1.08,2.195-1.759,3.867-2.038
		c0.767-0.139,1.516-0.069,2.248,0.209c0.731,0.279,1.375,0.663,1.934,1.149c0.975,0.836,1.636,1.776,1.985,2.822
		c0.348,1.045,0.522,2.16,0.522,3.345c0,1.186-0.088,2.388-0.261,3.605c-0.175,1.22-0.298,2.352-0.366,3.396
		c-0.141,1.952-0.245,4.008-0.313,6.167c-0.07,2.161,0,4.321,0.209,6.48c0.209,2.16,0.609,4.251,1.202,6.271
		C660.63,817.571,661.519,819.416,662.704,821.089z"/>
	<path style="fill:#FFFFFF;stroke:#231F20;stroke-width:2;stroke-miterlimit:10;" d="M670.019,766.844
		c0.278-2.577,1.166-4.477,2.666-5.696c1.497-1.219,3.083-1.812,4.755-1.777c1.673,0.036,3.223,0.68,4.651,1.934
		c1.428,1.255,2.177,3.031,2.247,5.331c0.139,2.369-0.471,4.198-1.829,5.487c-1.358,1.29-2.91,2.021-4.651,2.194
		c-1.742,0.175-3.38-0.296-4.912-1.411c-1.533-1.113-2.474-2.891-2.822-5.33L670.019,766.844z"/>
	<path style="fill:#FFFFFF;stroke:#231F20;stroke-width:2;stroke-miterlimit:10;" d="M683.815,826.314
		c-0.141,1.395-0.627,2.631-1.463,3.711c-0.837,1.079-1.795,1.863-2.875,2.352c-1.081,0.486-2.247,0.591-3.501,0.313
		c-1.254-0.279-2.37-1.045-3.345-2.3c-0.559-0.697-0.959-1.479-1.202-2.352c-0.245-0.87-0.401-1.776-0.47-2.718
		c-0.07-0.94-0.089-1.881-0.053-2.821c0.034-0.941,0.053-1.793,0.053-2.561c-0.07-4.111-0.089-8.188-0.053-12.229
		c0.034-4.04,0.017-8.116-0.052-12.229c0-1.672-0.104-3.36-0.314-5.069c-0.209-1.706-0.104-3.396,0.314-5.068
		c0.348-1.255,0.957-2.334,1.829-3.24c0.87-0.905,1.845-1.532,2.926-1.882c1.08-0.348,2.195-0.382,3.345-0.104
		c1.149,0.279,2.143,1.011,2.979,2.195c1.114,1.395,1.673,2.77,1.673,4.128c0,1.359,0,3.015,0,4.965c0,2.37,0,4.739,0,7.107
		c0,2.369,0.034,4.703,0.104,7.003c0.068,3.345,0.104,6.689,0.104,10.033c0,3.345,0,6.689,0,10.034V826.314z"/>
	<path style="fill:#FFFFFF;stroke:#231F20;stroke-width:2;stroke-miterlimit:10;" d="M692.908,822.238
		c-0.419-1.184-0.593-2.352-0.523-3.501c0.069-1.15,0.366-2.195,0.889-3.136s1.271-1.673,2.247-2.195
		c0.976-0.522,2.159-0.713,3.554-0.574c0.766,0.07,1.464,0.279,2.091,0.627c0.627,0.35,1.202,0.768,1.725,1.254
		c0.522,0.488,1.045,1.011,1.567,1.568c0.522,0.559,1.062,1.045,1.62,1.463c1.184,0.906,2.438,1.567,3.763,1.986
		c1.323,0.418,2.718,0.731,4.181,0.94c0.975,0,1.759-0.243,2.352-0.731c0.592-0.487,0.993-1.08,1.202-1.777
		c0.209-0.695,0.262-1.445,0.157-2.247c-0.104-0.8-0.366-1.445-0.784-1.934c-1.186-1.184-2.631-1.95-4.338-2.3
		c-1.708-0.348-3.292-0.766-4.756-1.254c-2.09-0.695-4.146-1.584-6.166-2.665c-2.021-1.08-3.658-2.561-4.912-4.442
		c-1.325-1.95-2.108-4.023-2.353-6.219c-0.244-2.194-0.069-4.338,0.523-6.428c0.591-2.091,1.584-4.006,2.979-5.749
		c1.393-1.74,3.065-3.17,5.017-4.285c1.464-0.836,3.065-1.375,4.808-1.62c1.741-0.243,3.502-0.295,5.278-0.156
		c1.777,0.141,3.536,0.47,5.278,0.993c1.741,0.522,3.345,1.097,4.808,1.725c1.673,0.768,2.927,1.847,3.763,3.239
		c0.837,1.396,1.236,2.806,1.202,4.233c-0.036,1.429-0.522,2.665-1.463,3.71c-0.94,1.046-2.317,1.568-4.129,1.568
		c-1.115,0-2.126-0.191-3.03-0.575c-0.907-0.382-1.848-0.748-2.822-1.098c-1.255-0.486-2.613-0.817-4.076-0.992
		c-1.464-0.174-2.649-0.087-3.554,0.261c-0.279,0.07-0.593,0.298-0.94,0.68c-0.35,0.384-0.611,0.854-0.784,1.411
		c-0.175,0.559-0.209,1.115-0.104,1.672c0.104,0.559,0.47,1.011,1.098,1.359c1.672,0.906,3.449,1.604,5.33,2.09
		c1.881,0.488,3.727,1.045,5.539,1.673c1.812,0.627,3.502,1.429,5.069,2.403c1.568,0.977,2.875,2.37,3.92,4.181
		c1.531,2.649,2.315,5.419,2.352,8.31c0.034,2.893-0.541,5.592-1.725,8.101c-1.186,2.508-2.927,4.65-5.226,6.428
		c-2.3,1.776-4.983,2.838-8.049,3.188c-2.16,0.209-4.285,0.087-6.375-0.366c-2.091-0.453-4.112-1.186-6.062-2.194
		c-1.951-1.011-3.763-2.211-5.435-3.606c-1.673-1.393-3.136-2.855-4.39-4.39L692.908,822.238z"/>
	<path style="fill:#FFFFFF;stroke:#231F20;stroke-width:2;stroke-miterlimit:10;" d="M765.654,816.177
		c1.74-1.114,3.396-1.603,4.964-1.464c1.568,0.141,2.856,0.68,3.867,1.62c1.01,0.94,1.568,2.195,1.673,3.763
		c0.104,1.568-0.437,3.224-1.62,4.965c-0.768,1.186-1.865,2.265-3.292,3.24c-1.43,0.975-2.806,1.74-4.129,2.299
		c-3.067,1.394-6.167,2.021-9.302,1.882c-3.136-0.141-6.046-0.906-8.728-2.3c-2.684-1.393-5.001-3.326-6.951-5.801
		c-1.951-2.473-3.275-5.347-3.972-8.623c-1.395-6.271-1.115-12.297,0.837-18.081c0.766-2.091,1.688-4.11,2.77-6.062
		c1.079-1.95,2.386-3.727,3.919-5.33c1.532-1.603,3.24-3.014,5.122-4.233c1.881-1.218,3.936-2.038,6.166-2.456
		c1.532-0.277,3.483-0.262,5.854,0.053c2.368,0.313,4.686,0.924,6.95,1.828c2.264,0.907,4.25,2.091,5.958,3.554
		c1.706,1.464,2.665,3.206,2.874,5.227c0.139,1.115,0,2.143-0.418,3.083s-1.011,1.725-1.777,2.352
		c-0.768,0.627-1.655,1.063-2.665,1.307c-1.011,0.245-2.038,0.228-3.083-0.052c-1.254-0.349-2.247-0.818-2.979-1.411
		c-0.732-0.592-1.69-1.375-2.875-2.352c-0.558-0.14-1.081-0.366-1.567-0.68c-0.488-0.313-1.011-0.435-1.567-0.366l-2.822,0.313
		c-0.488,0.279-0.94,0.523-1.358,0.732c-0.419,0.209-0.837,0.418-1.255,0.627c-2.369,2.369-4.112,5-5.226,7.891
		c-1.115,2.893-1.395,6.01-0.836,9.354c0.348,2.161,1.026,3.938,2.038,5.331c1.009,1.395,2.194,2.352,3.554,2.874
		c1.358,0.522,2.855,0.575,4.494,0.156c1.636-0.418,3.256-1.358,4.86-2.821L765.654,816.177z"/>
	<path style="fill:#FFFFFF;stroke:#231F20;stroke-width:2;stroke-miterlimit:10;" d="M831.082,821.089
		c0.627,0.906,0.993,1.97,1.098,3.188c0.104,1.22-0.036,2.37-0.418,3.449c-0.384,1.081-1.011,1.968-1.882,2.665
		c-0.872,0.696-2.004,1.01-3.396,0.941c-1.812-0.141-3.276-0.768-4.39-1.882c-1.116-1.113-2.161-2.368-3.136-3.763
		c-2.718,2.23-5.523,3.779-8.414,4.651c-2.892,0.87-5.732,1.062-8.519,0.574c-2.787-0.488-5.4-1.655-7.839-3.501
		c-2.439-1.846-4.494-4.338-6.166-7.473c-1.534-2.927-2.388-6.167-2.561-9.721c-0.175-3.554-0.228-6.933-0.157-10.139
		c0-1.113,0.034-2.211,0.104-3.292c0.068-1.079,0.139-2.211,0.209-3.396c0.068-0.905,0.104-1.794,0.104-2.666
		c0-0.87,0.053-1.688,0.157-2.456c0.104-0.766,0.313-1.531,0.627-2.299c0.313-0.767,0.784-1.498,1.411-2.195
		c0.836-0.904,1.845-1.445,3.031-1.62c1.184-0.173,2.315-0.052,3.396,0.366c1.079,0.418,2.021,1.062,2.822,1.934
		c0.8,0.872,1.236,1.934,1.306,3.188c0.14,3.554,0.053,7.144-0.261,10.766c-0.313,3.624-0.297,7.178,0.052,10.661
		c0.14,1.672,0.575,3.38,1.307,5.121c0.731,1.742,1.897,2.997,3.502,3.763c1.602,0.697,3.222,0.646,4.859-0.156
		c1.637-0.801,2.979-1.76,4.024-2.875c0.486-0.557,0.957-1.166,1.411-1.829c0.452-0.661,0.957-1.236,1.516-1.725
		c-0.279-2.438-0.454-4.876-0.522-7.316c-0.07-2.438-0.07-4.876,0-7.316c0-1.322,0.052-2.77,0.156-4.337
		c0.104-1.568,0.383-3.065,0.836-4.494c0.453-1.428,1.132-2.682,2.038-3.763c0.905-1.08,2.195-1.759,3.867-2.038
		c0.767-0.139,1.516-0.069,2.248,0.209c0.731,0.279,1.375,0.663,1.934,1.149c0.975,0.836,1.636,1.776,1.985,2.822
		c0.348,1.045,0.522,2.16,0.522,3.345c0,1.186-0.088,2.388-0.261,3.605c-0.175,1.22-0.298,2.352-0.366,3.396
		c-0.141,1.952-0.245,4.008-0.313,6.167c-0.07,2.161,0,4.321,0.209,6.48c0.209,2.16,0.609,4.251,1.202,6.271
		C829.008,817.571,829.896,819.416,831.082,821.089z"/>
	<path style="fill:#FFFFFF;stroke:#231F20;stroke-width:2;stroke-miterlimit:10;" d="M856.059,822.761
		c0.767,0.697,1.411,1.586,1.934,2.666c0.522,1.081,0.801,2.16,0.837,3.239c0.034,1.08-0.21,2.091-0.732,3.031
		s-1.446,1.654-2.77,2.143c-1.045,0.348-2.194,0.418-3.449,0.209c-1.254-0.209-2.492-0.627-3.71-1.254
		c-1.22-0.627-2.3-1.377-3.24-2.247c-0.94-0.872-1.62-1.829-2.038-2.874c-0.141-0.349-0.245-0.748-0.313-1.202
		c-0.07-0.452-0.104-0.853-0.104-1.202v-58.008c0-1.603,0.608-2.961,1.829-4.076c1.218-1.114,2.561-1.777,4.023-1.986
		c0.696-0.068,1.445,0.036,2.247,0.313c0.801,0.279,1.55,0.68,2.247,1.202c0.696,0.522,1.271,1.134,1.725,1.829
		c0.453,0.697,0.68,1.429,0.68,2.195c0,1.812,0,4.217,0,7.212c0,2.996,0.017,6.271,0.053,9.824
		c0.034,3.554,0.052,7.229,0.052,11.026c0,3.799-0.018,7.439-0.052,10.923c-0.036,3.485-0.053,6.673-0.053,9.563
		c0,2.892-0.036,5.209-0.104,6.95L856.059,822.761z"/>
	<path style="fill:#FFFFFF;stroke:#231F20;stroke-width:2;stroke-miterlimit:10;" d="M910.306,824.643
		c0.557,2.021,0.452,3.694-0.313,5.017c-0.768,1.323-1.829,2.211-3.188,2.665c-1.359,0.453-2.84,0.4-4.442-0.156
		c-1.604-0.559-2.997-1.673-4.181-3.345c-1.951,1.463-3.851,2.49-5.696,3.083c-1.847,0.592-3.955,0.923-6.323,0.993
		c-3.554,0.139-6.726-0.262-9.512-1.202c-2.787-0.94-5.139-2.352-7.055-4.232c-1.917-1.882-3.328-4.233-4.233-7.056
		c-0.906-2.822-1.22-6.078-0.94-9.772c0.139-1.531,0.4-3.031,0.784-4.494c0.382-1.463,0.818-2.891,1.307-4.285
		c0.557-1.532,1.341-3.17,2.352-4.912c1.009-1.741,2.038-3.24,3.083-4.495c3.763-4.599,8.466-7.907,14.11-9.929
		c0.975-0.348,2.299-0.662,3.972-0.94c1.672-0.278,3.36-0.4,5.069-0.366c1.706,0.036,3.345,0.261,4.912,0.68
		c1.567,0.418,2.733,1.149,3.501,2.194c0.628,0.836,1.08,1.568,1.359,2.195c0.277,0.627,0.435,1.29,0.47,1.985
		c0.034,0.697,0.034,1.447,0,2.247c-0.035,0.802-0.052,1.795-0.052,2.979c0,1.951-0.019,3.851-0.053,5.696
		c-0.035,1.847-0.018,3.71,0.053,5.592c0,0.627,0,1.446,0,2.456c0,1.011,0.034,2.074,0.104,3.188
		c0.068,1.115,0.156,2.179,0.261,3.188c0.104,1.012,0.262,1.829,0.471,2.457L910.306,824.643z"/>
	<path style="fill:#FFFFFF;stroke:#231F20;stroke-width:2;stroke-miterlimit:10;" d="M888.147,819.939
		c0.767-0.487,1.637-1.027,2.613-1.62c0.975-0.592,1.846-1.271,2.613-2.038c-0.627-3.692-0.993-7.386-1.098-11.079
		c-0.104-3.692-0.088-7.421,0.052-11.184c-3.135,0.559-5.957,1.917-8.466,4.076c-2.508,2.16-4.251,4.703-5.226,7.63
		c-0.418,1.186-0.768,2.403-1.045,3.658c-0.279,1.254-0.384,2.474-0.314,3.658c0.069,1.604,0.487,2.944,1.255,4.023
		c0.766,1.081,1.688,1.899,2.77,2.456c1.079,0.559,2.229,0.872,3.449,0.941C885.969,820.532,887.103,820.357,888.147,819.939z"/>
	<path style="fill:#FFFFFF;stroke:#231F20;stroke-width:2;stroke-miterlimit:10;" d="M248.146,920.095
		c0.731,1.411,0.992,2.834,0.784,4.271c-0.209,1.438-1.15,2.495-2.822,3.175c-1.568,0.575-3.071,0.418-4.508-0.47
		c-1.438-0.89-2.731-2.091-3.88-3.606c-1.15-1.516-2.144-3.109-2.979-4.781c-0.836-1.673-1.463-3.031-1.881-4.076
		c-2.665-6.166-4.103-12.582-4.312-19.245c-0.209-6.663,0.653-13.155,2.587-19.479c0.47-1.619,1.098-3.147,1.881-4.586
		c0.784-1.437,1.568-2.887,2.352-4.351c0.471-0.835,1.059-1.881,1.764-3.135c0.706-1.255,1.528-2.378,2.469-3.371
		c0.94-0.992,1.972-1.697,3.096-2.116c1.123-0.418,2.338-0.235,3.645,0.548c1.254,0.784,1.933,1.713,2.038,2.783
		c0.104,1.072-0.092,2.169-0.588,3.292c-0.497,1.125-1.125,2.209-1.881,3.254c-0.758,1.046-1.372,1.934-1.842,2.665
		c-0.68,1.203-1.242,2.222-1.686,3.057c-0.445,0.837-0.811,1.542-1.098,2.117c-0.288,0.575-0.509,1.085-0.666,1.528
		c-0.157,0.444-0.288,0.876-0.392,1.293c-0.784,2.719-1.359,5.632-1.725,8.741c-0.366,3.109-0.47,6.231-0.313,9.367
		s0.627,6.206,1.411,9.211c0.784,3.006,1.933,5.762,3.449,8.27c0.261,0.471,0.601,0.953,1.02,1.45
		c0.417,0.496,0.796,0.941,1.136,1.333c0.339,0.392,0.614,0.705,0.823,0.94c0.208,0.235,0.261,0.3,0.157,0.196L248.146,920.095z"/>
	<path style="fill:#FFFFFF;stroke:#231F20;stroke-width:2;stroke-miterlimit:10;" d="M273.388,904.573
		c1.306-0.835,2.548-1.201,3.724-1.098c1.176,0.105,2.142,0.51,2.9,1.216c0.757,0.705,1.176,1.646,1.254,2.821
		c0.079,1.176-0.327,2.418-1.215,3.724c-0.576,0.89-1.399,1.699-2.469,2.431c-1.072,0.73-2.104,1.306-3.096,1.725
		c-2.3,1.044-4.625,1.515-6.977,1.41c-2.352-0.104-4.534-0.68-6.545-1.725c-2.012-1.044-3.75-2.494-5.213-4.351
		c-1.463-1.854-2.457-4.01-2.979-6.467c-1.046-4.703-0.837-9.223,0.627-13.562c0.574-1.567,1.267-3.083,2.077-4.546
		c0.81-1.463,1.79-2.796,2.94-3.998c1.149-1.202,2.43-2.26,3.841-3.175c1.411-0.914,2.952-1.528,4.625-1.843
		c1.149-0.208,2.613-0.195,4.39,0.04c1.776,0.234,3.514,0.693,5.213,1.371c1.698,0.68,3.187,1.568,4.468,2.666
		c1.28,1.097,1.999,2.404,2.156,3.919c0.104,0.837,0,1.607-0.313,2.312c-0.313,0.706-0.758,1.294-1.333,1.764
		c-0.576,0.471-1.242,0.798-1.999,0.98c-0.758,0.184-1.529,0.17-2.312-0.04c-0.941-0.261-1.686-0.613-2.234-1.058
		c-0.549-0.443-1.268-1.031-2.156-1.764c-0.419-0.104-0.811-0.274-1.176-0.51c-0.366-0.235-0.758-0.326-1.176-0.274l-2.116,0.235
		c-0.366,0.209-0.706,0.392-1.019,0.549c-0.313,0.156-0.627,0.313-0.941,0.47c-1.777,1.777-3.084,3.751-3.919,5.919
		c-0.836,2.169-1.046,4.507-0.627,7.016c0.261,1.62,0.771,2.953,1.528,3.998c0.757,1.046,1.646,1.764,2.666,2.155
		c1.019,0.393,2.142,0.432,3.371,0.118c1.228-0.314,2.442-1.02,3.645-2.117L273.388,904.573z"/>
	<path style="fill:#FFFFFF;stroke:#231F20;stroke-width:2;stroke-miterlimit:10;" d="M285.146,895.637
		c0.365-1.515,0.875-3.004,1.529-4.468c0.653-1.463,1.45-2.861,2.391-4.194c0.941-1.332,1.999-2.547,3.175-3.645
		s2.442-1.985,3.802-2.665c2.403-1.255,4.821-1.894,7.251-1.921c2.43-0.025,4.69,0.458,6.781,1.45
		c2.09,0.993,3.867,2.47,5.331,4.429c1.462,1.96,2.43,4.3,2.9,7.017c0.261,1.776,0.404,3.462,0.431,5.056
		c0.026,1.595-0.145,3.253-0.51,4.978c-0.523,2.457-1.581,4.899-3.174,7.329c-1.595,2.431-3.502,4.469-5.723,6.115
		c-2.222,1.646-4.652,2.729-7.29,3.253c-2.64,0.521-5.292,0.104-7.957-1.255c-1.203-0.575-2.287-1.241-3.253-1.998
		c-0.967-0.758-1.842-1.659-2.626-2.705c-0.889-1.148-1.581-2.352-2.077-3.605c-0.498-1.255-0.901-2.561-1.215-3.92
		c-0.367-1.462-0.498-2.939-0.392-4.429c0.104-1.489,0.287-2.939,0.549-4.351L285.146,895.637z"/>
	<path style="fill:#FFFFFF;stroke:#231F20;stroke-width:2;stroke-miterlimit:10;" d="M294.553,897.283
		c-0.157,0.837-0.288,1.66-0.392,2.47c-0.105,0.811-0.105,1.634,0,2.469c0.157,1.203,0.483,2.301,0.98,3.292
		c0.496,0.994,1.149,1.777,1.96,2.353c0.81,0.575,1.737,0.875,2.783,0.901c1.045,0.026,2.168-0.301,3.371-0.98
		c1.515-0.888,2.822-2.26,3.919-4.115c1.098-1.854,1.776-3.788,2.038-5.801c0.261-2.011,0.052-3.919-0.627-5.723
		c-0.68-1.803-2.012-3.096-3.998-3.88c-1.307,0-2.508,0.249-3.606,0.744c-1.097,0.498-2.051,1.15-2.861,1.96
		c-0.811,0.812-1.517,1.764-2.117,2.861C295.402,894.932,294.918,896.082,294.553,897.283z"/>
	<path style="fill:#FFFFFF;stroke:#231F20;stroke-width:2;stroke-miterlimit:10;" d="M343.859,891.953v-1.098
		c-0.47-1.202-1.229-2.051-2.273-2.548c-1.046-0.496-2.169-0.796-3.371-0.901c-0.68,0.209-1.229,0.444-1.646,0.705
		c-0.419,0.263-0.784,0.549-1.098,0.862s-0.602,0.667-0.862,1.059c-0.262,0.392-0.576,0.798-0.941,1.215v20.538
		c0,1.62-0.483,2.887-1.45,3.802c-0.967,0.914-2.038,1.437-3.214,1.568c-1.176,0.13-2.261-0.157-3.253-0.862
		c-0.994-0.706-1.517-1.896-1.568-3.567c-0.105-4.023-0.145-8.596-0.118-13.718c0.026-5.121,0.039-10.844,0.039-17.167
		c0-1.098,0.326-2.012,0.98-2.744c0.653-0.731,1.437-1.227,2.352-1.489c0.914-0.261,1.854-0.247,2.822,0.039
		c0.966,0.288,1.764,0.876,2.391,1.764c2.926-1.462,5.84-1.92,8.741-1.371s5.526,1.92,7.878,4.115
		c1.045-1.045,2.168-1.985,3.371-2.822c1.202-0.835,2.509-1.384,3.919-1.646c1.62-0.261,3.253-0.195,4.899,0.196
		c1.646,0.392,3.175,1.032,4.586,1.921s2.652,1.986,3.724,3.292c1.07,1.307,1.868,2.718,2.391,4.233
		c0.261,1.046,0.392,1.986,0.392,2.821v21.322c0,0.627-0.079,1.229-0.235,1.803c-0.47,1.358-1.215,2.312-2.234,2.861
		s-2.065,0.745-3.136,0.588c-1.072-0.156-1.999-0.654-2.783-1.489c-0.784-0.837-1.176-1.96-1.176-3.371v-21.086
		c-0.47-1.255-1.15-2.168-2.038-2.744c-0.889-0.574-1.803-0.835-2.744-0.784c-0.941,0.053-1.842,0.393-2.705,1.02
		s-1.556,1.489-2.077,2.587v20.538c0,1.411-0.458,2.587-1.372,3.527c-0.915,0.94-1.92,1.541-3.018,1.803
		c-1.098,0.261-2.13,0.157-3.097-0.313c-0.968-0.471-1.528-1.411-1.685-2.822L343.859,891.953z"/>
	<path style="fill:#FFFFFF;stroke:#231F20;stroke-width:2;stroke-miterlimit:10;" d="M399.906,891.953v-1.098
		c-0.47-1.202-1.229-2.051-2.273-2.548c-1.046-0.496-2.169-0.796-3.371-0.901c-0.68,0.209-1.229,0.444-1.646,0.705
		c-0.419,0.263-0.784,0.549-1.098,0.862s-0.602,0.667-0.862,1.059c-0.262,0.392-0.576,0.798-0.941,1.215v20.538
		c0,1.62-0.483,2.887-1.45,3.802c-0.967,0.914-2.038,1.437-3.214,1.568c-1.176,0.13-2.261-0.157-3.253-0.862
		c-0.994-0.706-1.517-1.896-1.568-3.567c-0.105-4.023-0.145-8.596-0.118-13.718c0.026-5.121,0.039-10.844,0.039-17.167
		c0-1.098,0.326-2.012,0.98-2.744c0.653-0.731,1.437-1.227,2.352-1.489c0.914-0.261,1.854-0.247,2.822,0.039
		c0.966,0.288,1.764,0.876,2.391,1.764c2.926-1.462,5.84-1.92,8.741-1.371s5.526,1.92,7.878,4.115
		c1.045-1.045,2.168-1.985,3.371-2.822c1.202-0.835,2.509-1.384,3.919-1.646c1.62-0.261,3.253-0.195,4.899,0.196
		c1.646,0.392,3.175,1.032,4.586,1.921s2.652,1.986,3.724,3.292c1.07,1.307,1.868,2.718,2.391,4.233
		c0.261,1.046,0.392,1.986,0.392,2.821v21.322c0,0.627-0.079,1.229-0.235,1.803c-0.47,1.358-1.215,2.312-2.234,2.861
		s-2.065,0.745-3.136,0.588c-1.072-0.156-1.999-0.654-2.783-1.489c-0.784-0.837-1.176-1.96-1.176-3.371v-21.086
		c-0.47-1.255-1.15-2.168-2.038-2.744c-0.889-0.574-1.803-0.835-2.744-0.784c-0.941,0.053-1.842,0.393-2.705,1.02
		s-1.556,1.489-2.077,2.587v20.538c0,1.411-0.458,2.587-1.372,3.527c-0.915,0.94-1.92,1.541-3.018,1.803
		c-1.098,0.261-2.13,0.157-3.097-0.313c-0.968-0.471-1.528-1.411-1.685-2.822L399.906,891.953z"/>
	<path style="fill:#FFFFFF;stroke:#231F20;stroke-width:2;stroke-miterlimit:10;" d="M433.377,895.637
		c0.365-1.515,0.875-3.004,1.529-4.468c0.653-1.463,1.45-2.861,2.391-4.194c0.941-1.332,1.999-2.547,3.175-3.645
		s2.442-1.985,3.802-2.665c2.403-1.255,4.821-1.894,7.251-1.921c2.43-0.025,4.69,0.458,6.781,1.45
		c2.09,0.993,3.867,2.47,5.331,4.429c1.462,1.96,2.43,4.3,2.9,7.017c0.261,1.776,0.404,3.462,0.431,5.056
		c0.026,1.595-0.145,3.253-0.51,4.978c-0.523,2.457-1.581,4.899-3.174,7.329c-1.595,2.431-3.502,4.469-5.723,6.115
		c-2.222,1.646-4.652,2.729-7.29,3.253c-2.64,0.521-5.292,0.104-7.957-1.255c-1.203-0.575-2.287-1.241-3.253-1.998
		c-0.967-0.758-1.842-1.659-2.626-2.705c-0.889-1.148-1.581-2.352-2.077-3.605c-0.498-1.255-0.901-2.561-1.215-3.92
		c-0.367-1.462-0.498-2.939-0.392-4.429c0.104-1.489,0.287-2.939,0.549-4.351L433.377,895.637z"/>
	<path style="fill:#FFFFFF;stroke:#231F20;stroke-width:2;stroke-miterlimit:10;" d="M442.784,897.283
		c-0.157,0.837-0.288,1.66-0.392,2.47c-0.105,0.811-0.105,1.634,0,2.469c0.157,1.203,0.483,2.301,0.98,3.292
		c0.496,0.994,1.149,1.777,1.96,2.353c0.81,0.575,1.737,0.875,2.783,0.901c1.045,0.026,2.168-0.301,3.371-0.98
		c1.515-0.888,2.822-2.26,3.919-4.115c1.098-1.854,1.776-3.788,2.038-5.801c0.261-2.011,0.052-3.919-0.627-5.723
		c-0.68-1.803-2.012-3.096-3.998-3.88c-1.307,0-2.508,0.249-3.606,0.744c-1.097,0.498-2.051,1.15-2.861,1.96
		c-0.811,0.812-1.517,1.764-2.117,2.861C443.633,894.932,443.149,896.082,442.784,897.283z"/>
	<path style="fill:#FFFFFF;stroke:#231F20;stroke-width:2;stroke-miterlimit:10;" d="M503.927,912.334
		c-0.157,1.307-0.641,2.377-1.45,3.214c-0.811,0.835-1.725,1.358-2.744,1.567s-1.999,0.079-2.939-0.392
		c-0.941-0.471-1.621-1.385-2.038-2.743c-0.47-1.463-0.654-2.991-0.549-4.586c0.104-1.594,0.157-3.069,0.157-4.429
		c0-2.822,0.012-5.631,0.039-8.428c0.026-2.795-0.092-5.604-0.353-8.427c-0.053-0.104-0.105-0.195-0.157-0.274
		c-0.053-0.078-0.157-0.195-0.313-0.353c-1.203-0.313-2.483-0.235-3.841,0.235c-1.359,0.471-2.508,1.071-3.449,1.803
		c-0.836,0.68-1.659,1.607-2.469,2.783c-0.811,1.176-1.215,2.312-1.215,3.41v10.817c0,0.837,0.026,1.751,0.079,2.743
		c0.051,0.994,0.012,1.96-0.118,2.9c-0.131,0.941-0.431,1.804-0.901,2.587c-0.471,0.784-1.229,1.358-2.273,1.725
		c-0.576,0.209-1.111,0.287-1.607,0.235c-0.498-0.053-1.033-0.184-1.607-0.392c-0.941-0.313-1.621-0.851-2.038-1.607
		c-0.419-0.757-0.706-1.567-0.862-2.43s-0.223-1.698-0.196-2.509c0.026-0.81,0.04-1.45,0.04-1.92c0-1.202-0.014-2.94-0.04-5.213
		c-0.027-2.273-0.039-4.665-0.039-7.173c0-2.509,0-4.899,0-7.173s0-4.01,0-5.213c0-1.148,0.339-2.103,1.019-2.861
		c0.679-0.757,1.476-1.254,2.391-1.489c0.914-0.235,1.881-0.183,2.9,0.157s1.868,1.032,2.547,2.077
		c2.09-1.358,4.39-2.273,6.898-2.744c2.508-0.47,4.872-0.392,7.094,0.235c2.221,0.627,4.076,1.803,5.565,3.527
		c1.49,1.725,2.26,4.104,2.312,7.134c0,0.105,0.026,0.419,0.079,0.94c0.052,0.523,0.078,1.254,0.078,2.195V912.334z"/>
	<path style="fill:#FFFFFF;stroke:#231F20;stroke-width:2;stroke-miterlimit:10;" d="M542.102,930.756
		c-0.89-1.098-1.359-2.234-1.412-3.41s0.209-2.183,0.785-3.019c0.574-0.836,1.396-1.411,2.469-1.725
		c1.07-0.313,2.26-0.156,3.566,0.471c0.574,0.418,1.098,0.731,1.568,0.94c0.471,0.208,1.123,0.522,1.959,0.941
		c0.785,0.364,1.672,0.639,2.666,0.822c0.992,0.183,1.932,0.222,2.822,0.118c1.775-0.105,3.146-0.405,4.115-0.901
		c0.967-0.498,1.658-1.15,2.076-1.96c0.418-0.811,0.666-1.803,0.746-2.979c0.078-1.176,0.117-2.497,0.117-3.959
		c-1.674,0.574-3.346,1.006-5.018,1.293s-3.396,0.326-5.174,0.118c-3.449-0.419-6.283-1.646-8.504-3.685
		c-2.223-2.038-3.842-4.468-4.861-7.29c-1.019-2.822-1.438-5.84-1.254-9.054c0.183-3.214,0.928-6.18,2.234-8.897
		c0.783-1.567,1.854-3.018,3.213-4.351s2.889-2.43,4.586-3.292c1.699-0.862,3.475-1.424,5.332-1.686
		c1.854-0.261,3.645-0.104,5.369,0.47c0.992,0.366,1.959,0.732,2.9,1.098c0.939,0.366,1.854,0.837,2.744,1.411
		c0.99-0.888,2.154-1.333,3.488-1.333c1.332,0,2.469,0.628,3.408,1.882c0.209,0.313,0.443,0.666,0.707,1.059
		c0.26,0.392,0.391,0.771,0.391,1.137c0.053,5.592,0.066,11.17,0.039,16.735c-0.025,5.566-0.039,11.146-0.039,16.736
		c0,2.246-0.301,4.337-0.9,6.271c-0.602,1.933-1.504,3.645-2.705,5.134c-1.203,1.49-2.691,2.705-4.469,3.646
		s-3.84,1.541-6.191,1.803c-1.203,0.104-2.379,0.157-3.527,0.157c-1.15,0-2.326-0.131-3.527-0.393
		c-1.674-0.313-3.281-0.836-4.822-1.567c-1.541-0.732-3.07-1.542-4.586-2.43L542.102,930.756z"/>
	<path style="fill:#FFFFFF;stroke:#231F20;stroke-width:2;stroke-miterlimit:10;" d="M551.352,906.847
		c2.299,1.098,4.414,1.45,6.35,1.059c1.932-0.393,3.893-1.267,5.879-2.626v-12.464c-1.518-1.516-2.992-2.574-4.43-3.175
		s-3.148-0.771-5.135-0.51c-0.365,0.209-0.719,0.392-1.059,0.549c-0.34,0.156-0.691,0.313-1.057,0.47
		c-1.098,1.255-1.936,2.47-2.51,3.646s-0.914,2.379-1.018,3.605c-0.105,1.229-0.014,2.483,0.273,3.763
		c0.287,1.281,0.719,2.679,1.293,4.194c0.158,0.262,0.393,0.522,0.707,0.784C550.959,906.403,551.193,906.639,551.352,906.847z"/>
	<path style="fill:#FFFFFF;stroke:#231F20;stroke-width:2;stroke-miterlimit:10;" d="M583.02,890.189
		c0.051-0.34,0.025-0.953-0.079-1.843c-0.836-0.47-1.489-1.07-1.959-1.803c-0.471-0.731-0.745-1.516-0.823-2.352
		s0.078-1.633,0.47-2.391c0.393-0.758,1.032-1.397,1.921-1.921c1.202-0.679,2.521-0.81,3.959-0.392
		c1.437,0.419,2.678,1.046,3.724,1.881c1.306-0.992,2.665-1.828,4.076-2.509c1.411-0.678,2.848-1.136,4.312-1.371
		c1.462-0.235,2.951-0.196,4.468,0.117c1.515,0.313,3.005,0.968,4.468,1.96c0.731,0.471,1.411,1.059,2.038,1.764
		c0.628,0.705,1.02,1.503,1.177,2.391c0.261,1.307,0.156,2.443-0.314,3.41c-0.47,0.968-1.124,1.673-1.959,2.116
		c-0.837,0.445-1.777,0.576-2.822,0.393c-1.046-0.183-2.038-0.745-2.979-1.686c-0.313-0.208-0.537-0.379-0.667-0.51
		c-0.131-0.13-0.405-0.3-0.822-0.51c-0.837-0.208-1.66-0.156-2.47,0.157c-0.811,0.313-1.595,0.744-2.352,1.293
		c-0.758,0.549-1.464,1.15-2.116,1.804c-0.654,0.653-1.242,1.241-1.765,1.764v19.989c0,0.783-0.156,1.542-0.47,2.272
		c-0.471,1.202-1.215,2.038-2.234,2.509c-1.019,0.471-2.038,0.601-3.057,0.392c-1.02-0.209-1.908-0.732-2.666-1.567
		c-0.758-0.837-1.137-1.907-1.137-3.214v-21.949C582.94,890.595,582.967,890.529,583.02,890.189z"/>
	<path style="fill:#FFFFFF;stroke:#231F20;stroke-width:2;stroke-miterlimit:10;" d="M642.83,910.923
		c0.418,1.517,0.339,2.771-0.235,3.763c-0.575,0.992-1.372,1.658-2.391,1.999c-1.02,0.339-2.13,0.3-3.332-0.117
		c-1.202-0.419-2.247-1.255-3.136-2.509c-1.463,1.098-2.888,1.868-4.271,2.312c-1.386,0.443-2.967,0.692-4.743,0.744
		c-2.665,0.104-5.044-0.195-7.133-0.901c-2.091-0.705-3.854-1.764-5.292-3.175c-1.438-1.41-2.496-3.175-3.174-5.291
		c-0.681-2.116-0.915-4.559-0.706-7.329c0.104-1.149,0.3-2.273,0.588-3.371c0.287-1.098,0.613-2.168,0.98-3.214
		c0.417-1.148,1.005-2.377,1.764-3.685c0.757-1.306,1.528-2.43,2.312-3.37c2.821-3.449,6.349-5.931,10.582-7.447
		c0.731-0.261,1.725-0.496,2.979-0.705c1.255-0.209,2.521-0.301,3.802-0.274s2.509,0.195,3.685,0.509
		c1.176,0.314,2.051,0.862,2.626,1.646c0.471,0.627,0.81,1.176,1.02,1.646c0.208,0.47,0.325,0.968,0.353,1.489
		c0.025,0.523,0.025,1.085,0,1.686c-0.027,0.602-0.039,1.346-0.039,2.233c0,1.464-0.014,2.889-0.039,4.272
		c-0.027,1.386-0.014,2.783,0.039,4.194c0,0.47,0,1.085,0,1.842c0,0.758,0.025,1.556,0.078,2.391
		c0.052,0.837,0.118,1.634,0.196,2.392s0.195,1.371,0.353,1.842L642.83,910.923z"/>
	<path style="fill:#FFFFFF;stroke:#231F20;stroke-width:2;stroke-miterlimit:10;" d="M626.212,907.396
		c0.574-0.365,1.227-0.771,1.959-1.215c0.731-0.443,1.385-0.953,1.96-1.529c-0.471-2.769-0.745-5.538-0.823-8.309
		c-0.078-2.77-0.066-5.565,0.039-8.388c-2.352,0.419-4.468,1.438-6.35,3.057c-1.881,1.621-3.188,3.528-3.919,5.723
		c-0.313,0.89-0.576,1.803-0.784,2.744c-0.209,0.94-0.288,1.855-0.235,2.743c0.052,1.203,0.365,2.208,0.941,3.018
		c0.574,0.812,1.266,1.425,2.077,1.843c0.81,0.419,1.672,0.654,2.587,0.705C624.577,907.84,625.428,907.709,626.212,907.396z"/>
	<path style="fill:#FFFFFF;stroke:#231F20;stroke-width:2;stroke-miterlimit:10;" d="M667.365,904.573
		c1.306-0.835,2.548-1.201,3.724-1.098c1.176,0.105,2.143,0.51,2.9,1.216c0.757,0.705,1.176,1.646,1.255,2.821
		c0.078,1.176-0.327,2.418-1.216,3.724c-0.575,0.89-1.398,1.699-2.469,2.431c-1.071,0.73-2.104,1.306-3.097,1.725
		c-2.3,1.044-4.625,1.515-6.977,1.41s-4.534-0.68-6.545-1.725c-2.013-1.044-3.751-2.494-5.213-4.351
		c-1.464-1.854-2.457-4.01-2.979-6.467c-1.046-4.703-0.836-9.223,0.628-13.562c0.574-1.567,1.266-3.083,2.077-4.546
		c0.81-1.463,1.789-2.796,2.939-3.998c1.148-1.202,2.43-2.26,3.841-3.175c1.411-0.914,2.952-1.528,4.625-1.843
		c1.148-0.208,2.612-0.195,4.39,0.04c1.776,0.234,3.515,0.693,5.213,1.371c1.698,0.68,3.188,1.568,4.469,2.666
		c1.279,1.097,1.998,2.404,2.155,3.919c0.104,0.837,0,1.607-0.313,2.312c-0.313,0.706-0.758,1.294-1.333,1.764
		c-0.575,0.471-1.241,0.798-1.999,0.98c-0.758,0.184-1.528,0.17-2.312-0.04c-0.94-0.261-1.685-0.613-2.233-1.058
		c-0.549-0.443-1.268-1.031-2.156-1.764c-0.419-0.104-0.811-0.274-1.176-0.51c-0.366-0.235-0.758-0.326-1.176-0.274l-2.116,0.235
		c-0.366,0.209-0.706,0.392-1.02,0.549c-0.313,0.156-0.627,0.313-0.94,0.47c-1.777,1.777-3.084,3.751-3.919,5.919
		c-0.837,2.169-1.046,4.507-0.628,7.016c0.262,1.62,0.771,2.953,1.529,3.998c0.757,1.046,1.646,1.764,2.665,2.155
		c1.019,0.393,2.143,0.432,3.371,0.118c1.227-0.314,2.441-1.02,3.645-2.117L667.365,904.573z"/>
	<path style="fill:#FFFFFF;stroke:#231F20;stroke-width:2;stroke-miterlimit:10;" d="M689.862,915.587
		c-1.046,0.757-2.13,1.11-3.253,1.059c-1.124-0.053-2.116-0.51-2.979-1.372s-1.294-2.05-1.294-3.566v-44.682
		c0-0.784,0.222-1.502,0.666-2.156c0.443-0.652,1.006-1.188,1.686-1.606c0.679-0.418,1.424-0.692,2.234-0.823
		c0.81-0.13,1.555-0.104,2.234,0.078c0.679,0.184,1.267,0.576,1.764,1.176c0.496,0.602,0.771,1.425,0.823,2.47
		c0.156,4.076,0.234,7.734,0.234,10.974c0,3.241-0.026,6.507-0.078,9.799c1.202-0.888,2.338-1.814,3.41-2.782
		c1.07-0.967,2.129-1.973,3.175-3.019c0.94-0.992,1.854-2.103,2.743-3.331c0.889-1.228,2.012-2.077,3.371-2.548
		c0.992-0.313,1.921-0.365,2.783-0.157c0.862,0.21,1.593,0.615,2.194,1.216c0.601,0.601,1.006,1.332,1.215,2.194
		s0.157,1.791-0.156,2.783c-0.263,0.732-0.851,1.646-1.764,2.743c-0.915,1.098-1.935,2.222-3.058,3.371
		c-1.124,1.15-2.234,2.208-3.331,3.175c-1.098,0.968-1.987,1.712-2.666,2.234c1.829,1.986,3.632,3.997,5.409,6.035
		c1.776,2.038,3.579,4.077,5.409,6.115c0.784,0.889,1.528,1.685,2.234,2.391c0.705,0.705,1.318,1.556,1.842,2.548
		c0.418,0.836,0.549,1.698,0.392,2.587c-0.156,0.889-0.51,1.659-1.058,2.312c-0.549,0.653-1.229,1.137-2.038,1.45
		c-0.812,0.314-1.686,0.34-2.627,0.079c-0.889-0.263-1.751-0.745-2.586-1.45c-0.837-0.706-1.635-1.477-2.392-2.312
		c-0.758-0.836-1.477-1.698-2.155-2.587c-0.68-0.888-1.307-1.646-1.882-2.273c-1.41-1.619-2.81-3.227-4.193-4.821
		c-1.386-1.593-2.81-3.147-4.272-4.664v13.64C691.587,913.588,690.907,914.829,689.862,915.587z"/>
	<path style="fill:#FFFFFF;stroke:#231F20;stroke-width:2;stroke-miterlimit:10;" d="M730.546,909.512
		c0.574,0.523,1.059,1.189,1.45,1.999c0.393,0.811,0.601,1.62,0.627,2.431c0.026,0.81-0.156,1.567-0.549,2.272
		c-0.392,0.706-1.085,1.241-2.077,1.607c-0.783,0.261-1.646,0.313-2.587,0.156c-0.94-0.156-1.869-0.47-2.782-0.94
		c-0.915-0.47-1.725-1.032-2.431-1.686c-0.705-0.653-1.215-1.371-1.528-2.155c-0.105-0.261-0.184-0.561-0.235-0.901
		c-0.053-0.34-0.078-0.64-0.078-0.901v-43.506c0-1.202,0.457-2.221,1.372-3.058c0.913-0.835,1.92-1.333,3.018-1.489
		c0.521-0.052,1.084,0.026,1.686,0.235c0.601,0.209,1.162,0.509,1.686,0.901c0.521,0.392,0.953,0.85,1.293,1.372
		s0.51,1.071,0.51,1.646c0,1.359,0,3.163,0,5.409c0,2.247,0.013,4.703,0.039,7.368c0.026,2.666,0.039,5.423,0.039,8.271
		c0,2.849-0.013,5.579-0.039,8.191c-0.026,2.614-0.039,5.005-0.039,7.173c0,2.169-0.027,3.907-0.078,5.213L730.546,909.512z"/>
	<path style="fill:#FFFFFF;stroke:#231F20;stroke-width:2;stroke-miterlimit:10;" d="M766.214,903.868
		c1.254-0.313,2.363-0.326,3.331-0.039c0.967,0.287,1.711,0.771,2.234,1.45c0.521,0.68,0.757,1.516,0.705,2.508
		c-0.052,0.993-0.497,2.038-1.332,3.136c-0.68,0.89-1.62,1.646-2.822,2.273c-1.203,0.627-2.326,1.124-3.37,1.489
		c-2.562,0.94-4.991,1.594-7.291,1.96c-2.3,0.365-4.456,0.365-6.467,0c-2.013-0.366-3.894-1.125-5.644-2.273
		c-1.752-1.148-3.385-2.77-4.899-4.86c-1.046-1.411-1.816-3.018-2.312-4.82c-0.498-1.804-0.772-3.646-0.823-5.526
		c-0.053-1.882,0.104-3.736,0.47-5.566c0.365-1.828,0.889-3.475,1.568-4.938c0.888-1.828,2.299-3.5,4.232-5.017
		c1.934-1.516,4.077-2.717,6.429-3.605s4.755-1.398,7.212-1.529c2.455-0.13,4.624,0.249,6.506,1.137
		c1.567,0.732,2.913,1.791,4.037,3.175c1.123,1.386,1.894,2.889,2.312,4.508c0.418,1.62,0.457,3.253,0.117,4.899
		c-0.34,1.646-1.189,3.148-2.547,4.507c-1.308,1.307-2.744,2.365-4.312,3.175c-1.568,0.811-3.188,1.517-4.86,2.116
		c-1.673,0.602-3.385,1.111-5.135,1.529c-1.751,0.419-3.437,0.889-5.056,1.411c1.097,1.254,2.352,2.051,3.763,2.391
		s2.887,0.405,4.429,0.195c1.541-0.208,3.097-0.639,4.664-1.293c1.567-0.653,3.03-1.372,4.39-2.155L766.214,903.868z"/>
	<path style="fill:#FFFFFF;stroke:#231F20;stroke-width:2;stroke-miterlimit:10;" d="M750.379,890.385
		c-1.202,0.68-2.091,1.528-2.665,2.548c-0.575,1.02-0.993,2.443-1.254,4.272c1.358-0.418,2.887-0.862,4.585-1.333
		c1.698-0.47,3.305-0.966,4.821-1.489c1.516-0.521,2.795-1.098,3.841-1.725c1.045-0.627,1.568-1.306,1.568-2.038
		c0-0.418-0.066-0.823-0.196-1.215c-0.131-0.393-0.405-0.666-0.823-0.823c-1.464-0.521-2.979-0.627-4.546-0.313
		c-1.568,0.313-2.875,0.758-3.92,1.333L750.379,890.385z"/>
	<path style="fill:#FFFFFF;stroke:#231F20;stroke-width:2;stroke-miterlimit:10;" d="M775.229,919.075
		c0.418-0.419,0.796-0.797,1.137-1.137c0.34-0.34,0.679-0.68,1.02-1.019c0.339-0.341,0.666-0.719,0.979-1.137
		c0.313-0.419,0.653-0.915,1.02-1.489c1.515-2.456,2.665-5.252,3.448-8.388c0.784-3.136,1.255-6.362,1.411-9.682
		c0.157-3.317,0.026-6.584-0.392-9.798c-0.419-3.215-1.124-6.154-2.116-8.819c-0.68-1.828-1.529-3.553-2.548-5.174
		c-1.02-1.619-2.052-3.214-3.097-4.781c-0.47-0.679-0.928-1.345-1.372-1.999c-0.444-0.653-0.692-1.424-0.744-2.312
		c-0.053-1.358,0.274-2.481,0.979-3.371c0.706-0.888,1.555-1.45,2.548-1.686c0.992-0.234,2.012-0.143,3.058,0.274
		c1.044,0.419,1.881,1.229,2.508,2.431c1.149,1.62,2.247,3.267,3.293,4.938c1.045,1.673,2.011,3.37,2.9,5.095
		c1.462,2.822,2.573,5.88,3.331,9.172c0.757,3.292,1.202,6.663,1.333,10.112c0.13,3.449-0.039,6.859-0.51,10.229
		c-0.471,3.371-1.176,6.521-2.116,9.446c-0.837,2.509-1.843,5.029-3.019,7.564c-1.176,2.534-2.679,4.769-4.507,6.702
		c-0.784,0.835-1.674,1.619-2.665,2.352c-0.994,0.731-2.091,1.098-3.293,1.098c-1.098,0-1.999-0.235-2.704-0.705
		c-0.706-0.471-1.203-1.072-1.489-1.804c-0.288-0.732-0.38-1.528-0.274-2.391c0.104-0.862,0.364-1.712,0.783-2.548L775.229,919.075z
		"/>
	<path style="fill:#FFFFFF;stroke:#231F20;stroke-width:2;stroke-miterlimit:10;" d="M427.505,450.847
		c6.992,4.42,12.154,10.031,15.469,16.852c3.315,6.811,4.696,13.622,4.144,20.441c-0.553,6.812-3.229,12.794-8.011,17.956
		c-4.791,5.153-11.974,7.916-21.547,8.287c-7.001,0.362-15.107-1.104-24.31-4.42c-9.211-3.314-18.422-7.458-27.624-12.431
		c-9.211-4.973-17.87-10.221-25.967-15.746c-8.106-5.524-14.736-10.315-19.889-14.364c-9.211,4.782-18.785,9.202-28.729,13.26
		c-9.945,4.048-20.813,6.439-32.597,7.182c-7.735,1.839-15.47,2.115-23.205,0.829c-7.734-1.295-14.735-2.676-20.994-4.144
		c-20.632-4.058-39.322-11.145-56.078-21.271c-16.764-10.126-30.663-24.396-41.712-42.818c-12.155-19.89-20.356-42.17-24.586-66.851
		c-4.238-24.672-4.972-49.447-2.21-74.31c2.763-24.861,9.021-48.8,18.785-71.823c9.755-23.015,22.928-42.999,39.503-59.945
		c17.308-17.68,37.75-30.473,61.326-38.398c23.567-7.916,47.324-10.773,71.271-8.563c23.938,2.21,46.495,9.487,67.68,21.823
		c21.175,12.345,37.655,30.11,49.447,53.315c9.574,18.784,16.022,39.045,19.337,60.773c3.315,21.737,3.678,43.646,1.105,65.746
		c-2.581,22.1-7.83,43.56-15.746,64.364c-7.925,20.813-18.327,39.321-31.216,55.525c8.84,5.896,17.956,11.145,27.348,15.745
		C407.892,442.474,417.561,446.798,427.505,450.847z"/>
	<path style="fill:#FFFFFF;stroke:#231F20;stroke-width:2;stroke-miterlimit:10;" d="M276.124,327.643
		c7.735,4.058,15.375,11.05,22.928,20.994c7.545,9.945,14.641,19.156,21.271,27.625c8.469-12.518,15.003-25.596,19.613-39.227
		c4.601-13.622,8.563-28.177,11.878-43.646c0-7.364,0-14.917,0-22.652c0-7.734-0.466-15.47-1.381-23.204
		c-0.923-7.735-2.399-15.28-4.419-22.652c-2.029-7.363-5.249-14.174-9.668-20.442c-7.001-10.678-16.117-19.147-27.348-25.414
		c-11.24-6.259-23.118-10.308-35.636-12.155c-12.526-1.839-24.862-1.105-37.017,2.21c-12.154,3.315-23.023,9.392-32.597,18.232
		c-16.574,15.47-29.005,34.167-37.292,56.078c-8.288,21.918-12.25,43.923-11.878,66.021c0,12.897,1.562,25.691,4.696,38.398
		c3.125,12.707,8.011,24.223,14.641,34.53c6.63,10.315,15.098,18.975,25.415,25.967c10.307,7.001,22.652,11.05,37.016,12.154
		c9.203,1.105,18.966,0.553,29.282-1.657c-7.373-8.098-14.831-17.213-22.376-27.348c-7.553-10.126-11.878-19.795-12.983-29.006
		c-1.105-6.259-0.371-12.06,2.21-17.403c2.573-5.335,6.077-9.755,10.497-13.26c4.42-3.496,9.574-5.801,15.47-6.906
		C264.332,323.775,270.228,324.699,276.124,327.643z"/>
</g>
<g id="Layer_2">
	<path style="fill:#FFFFFF;stroke:#231F20;stroke-width:2;stroke-miterlimit:10;" d="M599.009,595.757
		c0,0,76.968,15.374,91.681,6.647c14.712-8.726-12.262-23.438-12.262-23.438s68.89,28.396,69.475,13.061
		c0.586-15.334-21.248-31.857-21.248-31.857s30.242,6.536,28.604-6.54c-1.631-13.077-68.751-54.474-91.085-68.611
		C641.844,470.885,526.947,522.639,599.009,595.757"/>
	<path style="fill:#FFFFFF;stroke:#231F20;stroke-width:2;stroke-miterlimit:10;" d="M475.176,485.064
		c0,0,2.998,58.993,29.155,80.943c26.152,21.951,114.429,54.645,127.509,30.124c13.075-24.521-27.792-35.146-27.792-35.146
		s51.492,7.999,42.504-16.024c-8.992-24.029-18.283-24.846-18.283-24.846s46.004,2.448,27.37-16.469
		c-18.635-18.917-69.635-54.585-84.736-61.129C555.808,435.972,486.892,448.375,475.176,485.064"/>
	<path style="fill:#FFFFFF;stroke:#231F20;stroke-width:2;stroke-miterlimit:10;" d="M622.027,481.701
		c25.803,34.888-36.78,31.877-36.78,31.877s32.693,12.26,8.991,21.251c-23.704,8.989-56.397-18.799-56.397-18.799
		c3.268,5.72,19.616,43.319,8.173,49.042c-11.445,5.719-40.87-15.531-60.487-44.139c-19.616-28.608-7.608-79.96,4.09-87.46
		C521.493,413.042,596.228,446.812,622.027,481.701"/>
	<path style="fill:#FFFFFF;stroke:#231F20;stroke-width:2;stroke-miterlimit:10;" d="M645.252,654.837
		c0,0-10.625,0.623-10.932-1.828c0,0,14.142-12.874,18.26-14.714c4.115-1.838-1.708-6.743-1.708-6.743s-25.747,17.164-34.638,19.616
		c-8.888,2.453-18.39,0-22.682,0c0,0,0.308-12.374-7.357-8.945c0,0-17.162-4.539-19.614,7.107c0,0,14.405,3.679,19.004,7.662
		c0.228,0.198,0.504,0.369,0.789,0.54c-1.51,0.301-2.791,0.55-3.548,0.687c0,0-7.051-3.065-10.422,2.146
		c0,0-13.792-2.759-15.631,10.114c0,0,15.018-1.532,21.454,0c3.792,0.903,10.238-0.43,16.089-2.178
		c-1.484,1.223-2.798,2.194-3.521,2.47c-2.45,0.935-7.05-1.047-6.744,3.621c0,0-13.485,6.202-7.355,18.463
		c0,0,8.582-8.276,13.793-9.194c0,0,8.276-4.292,9.504-6.744c1.224-2.452,13.523-11.034,17.639-12.568
		c3.126-1.162,9.858-2.532,14.276-3.102c6.253-0.197,15.004-0.608,16.511,0.038c2.146,0.919,10.119-2.755,14.714,1.839
		C663.132,663.123,659.526,648.396,645.252,654.837z"/>
	<path style="fill:#FFFFFF;stroke:#231F20;stroke-width:2;stroke-miterlimit:10;" d="M617.331,604.316
		c0.39,1.397,21.268,16.541,30.464,21.752c0,0-10.875,8.755-7.786,11.079c0.921,0.693,2.391,0.894,3.647,0.552
		c-1.448,1.322-1.772,3.148-0.987,3.695c0.813,0.567,2.761,0,3.267-2.228c-0.434,2.534,0.729,5.178,4.674,3.989
		c6.129-1.839,29.028-14.456,29.506-21.506c0.476-7.048-2.095-21.46-8.532-28.511C665.146,586.09,611.506,583.616,617.331,604.316"
		/>
	<path style="fill:#FFFFFF;stroke:#231F20;stroke-width:2;stroke-miterlimit:10;" d="M571.353,263.155
		c-22.015-3.229-60.441,1.979-77.649,17.75c-14.025,12.855-18.827,43.871-22.746,61.447c-4.659,20.885,4.423,44.513-2.701,64.43
		c-2.77,7.721-11.372,43.778,7.464,35.144c-0.748,15.105,10.078,66.159,30.243,30.558c-0.58,11.217-0.517,37.545,17.165,30.746
		c-0.027,9.128,11.306,19.534,11.455,22.366c0.351,6.566,1.861,13.153,3.789,19.417c9.913,32.212,35.433,55.51,67.222,65.76
		c46.429,14.97,97.481,15.972,144.783,29.648c14.191,4.104,57.657,26.341,51.471-6.414c7.445,13.418,15.727,27.61,26.899,38.275
		c18.288,17.455,20.297-10.446,16.423-23.563c11.985,18.679,26.69,37.887,45.434,50.168c21.368,13.999,45.102,6.582,37.312-20.776
		c-13.712-48.177-52.834-94.438-85.013-131.854c-40.494-47.079-90.242-92.664-139.955-129.666
		c-29.057-21.627-38.135-63.803-49.584-96.074C641.364,286.69,606.242,268.276,571.353,263.155"/>
	<path style="fill:#231F20;stroke:#231F20;stroke-width:2;stroke-miterlimit:10;" d="M569.309,342.042
		c0,6.007-3.477,10.876-7.766,10.876s-7.765-4.869-7.765-10.876c0-6.004,3.476-10.874,7.765-10.874S569.309,336.037,569.309,342.042
		"/>
	<path style="fill:#FFFFFF;stroke:#231F20;stroke-width:2;stroke-miterlimit:10;" d="M564.642,338.773
		c0,4.2-2.434,7.604-5.434,7.604c-2.999,0-5.43-3.404-5.43-7.604s2.431-7.604,5.43-7.604
		C562.208,331.169,564.642,334.573,564.642,338.773"/>
	<path style="fill:#FFFFFF;stroke:#231F20;stroke-width:2;stroke-miterlimit:10;" d="M692.322,682.045c0,0-9.397,2.744-11.544-1.24
		c0,0,18.44-17.673,27.942-25.643c9.501-7.969-1.474-9.113-6.946-6.084c0,0-20.893,20.895-32.336,24.164
		c-11.445,3.271-31.879,11.441-39.233,11.441H618.76c0,0-10.626-13.893-14.712,0c0,0-17.165,17.983-5.722,31.063
		c0,0,10.534-16.892,22.861-16.392c0.438,1.813,1.049,3.21,1.049,3.21s-12.876,9.502-12.263,18.697
		c0.614,9.194,4.904,9.194,4.904,9.194s15.632-15.325,20.229-16.857c0,0,8.582-1.532,12.874-6.282
		c2.656-2.942,8.068-5.422,12.48-7.411c-1.864,2.634-3.802,5.046-5.124,5.841c-3.372,2.028-9.808,0.802-8.276,7.546
		c0,0-14.1,14.712,1.532,27.279c0,0,9.196-19.003,15.633-20.536c0,0,8.889,2.146,10.115-6.743
		c1.226-8.89,6.206-15.181,14.349-17.807c3.388-0.71,6.456-1.583,8.144-2.628c5.298-3.271,20.828-4.902,25.732,0.82
		C722.566,693.679,711.939,666.329,692.322,682.045z"/>
	<path style="fill:#FFFFFF;stroke:#231F20;stroke-width:2;stroke-miterlimit:10;" d="M643.28,586.599
		c0,0,46.644,45.476,58.086,52.832c0,0-11.034,15.325-10.679,16.647c0,0-0.77,3.463,6.148,0.828c0.601-0.23-3.127,3.146-0.681,4.574
		c1.007,0.589,2.988-1.692,4.112-3.242c-0.588,3.081,1.864,5.533,5.951,2.744c3.375-2.306,20.94-15.139,22.731-21.467
		c1.789-6.325,1.685-18.651-6.387-30.294C714.497,597.577,676.793,561.264,643.28,586.599"/>
	<path style="fill:#FFFFFF;stroke:#231F20;stroke-width:2;stroke-miterlimit:10;" d="M704.275,613.947
		c0,0,84.299,16.835,100.413,7.281c16.114-9.561-13.429-25.674-13.429-25.674s75.449,31.1,76.088,14.303
		c0.643-16.794-23.271-34.89-23.271-34.89s33.122,7.159,31.327-7.16c-1.783-14.326-75.299-59.663-99.759-75.145
		C751.191,477.185,625.353,533.867,704.275,613.947"/>
	<path style="fill:#FFFFFF;stroke:#231F20;stroke-width:2;stroke-miterlimit:10;" d="M598.192,490.027
		c0,0,3.284,64.608,31.932,88.65c28.646,24.043,125.326,59.849,139.649,32.992c14.323-26.854-30.438-38.491-30.438-38.491
		s56.397,8.762,46.553-17.552c-9.848-26.314-20.025-27.211-20.025-27.211s50.388,2.682,29.98-18.037
		c-20.412-20.718-76.269-59.782-92.807-66.949C686.504,436.261,611.025,449.844,598.192,490.027"/>
	<path style="fill:#FFFFFF;stroke:#231F20;stroke-width:2;stroke-miterlimit:10;" d="M759.029,486.343
		c28.26,38.213-40.285,34.912-40.285,34.912s35.808,13.43,9.849,23.279c-25.961,9.845-61.769-20.594-61.769-20.594
		c3.58,6.268,21.485,47.449,8.952,53.713c-12.534,6.269-44.761-17.007-66.245-48.341c-21.485-31.332-8.336-87.574,4.477-95.787
		C648.92,411.146,730.773,448.133,759.029,486.343"/>
	<path style="fill:#FFFFFF;stroke:#231F20;stroke-width:2;stroke-miterlimit:10;" d="M454.875,358.685
		c0,0-69.48,17.592-103.606,21.789c0,0,81.772,2.025,103.606,0c21.83-2.023,48.341-14.58,51.226-20.744
		C508.988,353.562,493.939,351.082,454.875,358.685"/>
	<path style="fill:#FFFFFF;stroke:#231F20;stroke-width:2;stroke-miterlimit:10;" d="M351.267,380.475
		c0,0,89.858-4.064,110.415-6.673c20.557-2.611,56.526-19.721,66.672-22.832c0,0-0.92,18.665-4.611,23.85
		c-3.688,5.184-41.503,14.263-59.95,17.762C445.344,396.079,369.597,386.46,351.267,380.475"/>
	<path style="fill:#FFFFFF;stroke:#231F20;stroke-width:2;stroke-miterlimit:10;" d="M490.542,317.785
		c-3.619-3.049-41.505,0.519-58.107,0c-16.602-0.517-85.777,0-99.613,4.149c-13.834,4.148-57.186,38.068-46.118,66.734
		c0,0,71.942-23.316,85.777-23.507c13.834-0.194,90.39,3.819,112.526,0c22.136-3.822,35.049-11.599,43.351-14.193
		c8.302-2.59,5.535-11.828-15.681-14.729c-21.214-2.899-24.903-8.951-23.981-9.037C489.62,327.118,494.229,320.897,490.542,317.785"
		/>
	<path style="fill:#FFFFFF;stroke:#231F20;stroke-width:2;stroke-miterlimit:10;" d="M460.494,327.637c0,0,8.699-1.045,11.601,7.516
		C472.094,335.153,464.637,334.378,460.494,327.637"/>
</g>
</svg>
