<?xml version="1.0" encoding="utf-8"?>
<!-- Generator: Adobe Illustrator 16.0.0, SVG Export Plug-In . SVG Version: 6.00 Build 0)  -->
<!DOCTYPE svg PUBLIC "-//W3C//DTD SVG 1.1//EN" "http://www.w3.org/Graphics/SVG/1.1/DTD/svg11.dtd">
<svg version="1.1" xmlns="http://www.w3.org/2000/svg" xmlns:xlink="http://www.w3.org/1999/xlink" x="0px" y="0px" width="100%"
     height="100%" viewBox="0 0 1000 1000" style="enable-background:new 0 0 1000 1000;" xml:space="preserve">
  <rect style="fill:#FFFFFF;" width="1000" height="1000"/>
    
<g id="Layer_3">
	<path style="fill:#FFFFFF;stroke:#000000;stroke-width:2;" d="M132.456,846.686c-0.558,4.648-6.321,8.648-10.884,6.299
		c-4.474-2.301-2.441-15.528-2.509-19.564c-0.15-9.026-0.088-18.056-0.088-27.083c0-6.173,0.365-8.271-2.652-12.8
		c-1.861-2.789-1.183-6.665,0.995-9.062c10.868-11.864,36.221-9.673,46.642,1.18c12.171,12.675,4.458,30.805-8.631,39.042
		c5.588,5.889,12.418,12.01,16.906,18.729c2.819,4.234-0.845,10.442-5.856,10.442c-4.528,0-8.139-5.976-10.718-8.729
		c-4.813-5.25-9.368-10.728-14.254-15.911c-3.238,0.647-8.95-1.128-8.95,2.975C132.456,837.029,132.456,841.857,132.456,846.686z"/>
	<path style="fill:#FFFFFF;stroke:#000000;stroke-width:2;" d="M152.234,793.205c-6.648-3.987-19.779-6.524-19.779,3.404
		c0,6.674,0,13.348,0,20.021C140.804,816.072,169.511,805.237,152.234,793.205C149.287,791.438,153.928,794.385,152.234,793.205z"/>
	<path style="fill:#FFFFFF;stroke:#000000;stroke-width:2;" d="M230.687,844.586c1.841,6.683-5.277,11.027-10.774,6.63
		c-3.342-2.673-15.076,2.901-21.725,1.633c-20.662-3.94-18.802-29.396-8.053-42.296c9.288-11.352,35.249-20.26,35.249,1.105
		C225.383,824.043,225.24,833.42,230.687,844.586z"/>
	<path style="fill:#FFFFFF;stroke:#000000;stroke-width:2;" d="M207.262,839.614c6.147-3.908,5.094-4.689,4.567-11.676
		c-0.394-5.222-0.343-10.498-0.147-15.728C195.376,815.112,190.92,846.143,207.262,839.614
		C208.071,839.1,206.157,840.056,207.262,839.614z"/>
	<path style="fill:#FFFFFF;stroke:#000000;stroke-width:2;" d="M265.272,817.846c-1.166-9.439-10.132-5.838-14.365-0.994
		c-2.105,4.461,0,14.884,0,19.79c0,5.196,1.526,13.244-4.199,16.038c-13.425,6.552-9.338-23.713-9.317-29.321
		c0.025-6.589,0.036-13.178,0.036-19.767c0.204-3.077,1.77-5.066,4.696-5.967c5.366-1.533,5.68,2.523,11.467,0.952
		c6.977-1.896,14.143,0.638,19.307,5.457c3.795-3.796,8.137-6.728,13.715-6.506c22.019,0.878,19.103,24.085,19.103,39.242
		c0,4.529,1.408,12.532-3.48,15.164c-9.802,5.277-10-7.297-10-12.916c0-7.185,0-14.369,0-21.553c0-8.185-13.481-7.66-13.481,0.077
		c0,5.662,4.212,41.965-10.552,34.778C261.929,849.273,265.381,823.877,265.272,817.846z"/>
	<path style="fill:#FFFFFF;stroke:#000000;stroke-width:2;" d="M315.216,804.034c0.833-2.864,2.936-5.268,6.132-5.636
		c2.863-0.215,5.018,0.928,6.464,3.426c1.644-0.941,3.375-1.679,5.193-2.21c9.621-2.556,18.83,1.549,23.855,10.062
		c12.951,21.938-5.156,43.009-28.275,41.319c0,4.783,0.454,40.695-12.1,25.139c-3.541-4.392-1.381-15.885-1.381-20.788
		C315.105,838.346,314.096,820.991,315.216,804.034z"/>
	<path style="fill:#FFFFFF;stroke:#000000;stroke-width:2;" d="M329.359,818.398c-1.606,2.681-0.773,6.814-0.773,10
		c0,7.916-1.265,11.602,9.061,8.784C356.578,832.559,344.418,800.844,329.359,818.398
		C329.138,818.768,330.243,817.368,329.359,818.398z"/>
	<path style="fill:#FFFFFF;stroke:#000000;stroke-width:2;" d="M380.96,851.714c-8.639,6.248-10.608-4.895-10.608-10.824
		c0-10.764,0-21.527,0-32.292c0-7.875,0-15.749,0-23.624c0-5.089,6.558-8.445,10.939-5.912c5.539,3.214,2.64,21.74,2.542,26.74
		c19.554-13.214,32.846,6.429,33.094,24.364c0.08,6.11,2.537,25.253-8.398,23.481c-7.251-1.179-6.122-12.363-5.76-17.39
		c0.425-5.896,1.913-13.85-2.335-18.825c-6.083-7.125-12.787,4.219-16.601,8.038C381.138,832.477,388.332,846.361,380.96,851.714
		C379.486,852.78,382.433,850.645,380.96,851.714z"/>
	<path style="fill:#FFFFFF;stroke:#000000;stroke-width:2;" d="M473.998,844.586c1.841,6.683-5.277,11.027-10.774,6.63
		c-3.342-2.673-15.076,2.901-21.725,1.633c-20.662-3.94-18.802-29.396-8.053-42.296c9.288-11.352,35.249-20.26,35.249,1.105
		C468.694,824.043,468.551,833.42,473.998,844.586z"/>
	<path style="fill:#FFFFFF;stroke:#000000;stroke-width:2;" d="M450.572,839.614c6.147-3.908,5.094-4.689,4.567-11.676
		c-0.394-5.222-0.343-10.498-0.147-15.728C438.687,815.112,434.23,846.143,450.572,839.614
		C451.382,839.1,449.467,840.056,450.572,839.614z"/>
	<path style="fill:#FFFFFF;stroke:#000000;stroke-width:2;" d="M480.294,842.045c-1.679-4.757,0.756-10.521,6.52-9.944
		c4.542,0.416,7.014,5.915,11.381,7.292c3.523,1.114,12.44-0.312,7.514-6.077c-3.18-3.175-8.899-3.283-12.901-5.013
		c-26.594-11.493,1.562-45.154,21.741-27.776c3.273,2.819,4.52,9.712-0.456,11.602c-5.691,2.16-10.96-4.368-16.782-2.127
		c-9.542,2.401,14.934,11.222,16.078,11.934c12.263,7.643,6.338,27.656-6.121,31.313
		C497.468,856.124,485.736,850.242,480.294,842.045z"/>
	<path style="fill:#FFFFFF;stroke:#000000;stroke-width:2;" d="M531.787,812.652c-12.897-3.212-3.616-13.37,4.972-13.37
		c0-5.814-2.523-17.729,3.908-21.173c12.083-6.472,9.573,16.723,9.573,21.173c2.482,0,6.414-0.818,8.729,0
		c7.401,0,7.33,10.522,1.339,12.763c-8.429,3.152-10.022-2.429-10.093,8.822c-0.045,7.162-0.415,14.482,0.301,21.62
		c0.534,5.355-2.185,11.497-8.674,9.668c-6.761-1.897-4.973-10.907-4.973-16.187C536.869,830.203,540.573,810.283,531.787,812.652z"
		/>
	<path style="fill:#FFFFFF;stroke:#000000;stroke-width:2;" d="M565.157,823.039c3.267-13.557,15.479-26.549,30.538-23.327
		c15.463,3.308,19.872,22.025,15.104,35.292C599.331,866.908,559.019,855.67,565.157,823.039z"/>
	<path style="fill:#FFFFFF;stroke:#000000;stroke-width:2;" d="M578.417,825.359c-4.38,23.412,22.92,16.783,20.718-3.314
		C597.327,805.558,581.514,815.172,578.417,825.359C578.196,826.539,578.932,823.666,578.417,825.359z"/>
	<path style="fill:#FFFFFF;stroke:#000000;stroke-width:2;" d="M616.315,842.045c-1.681-4.757,0.758-10.521,6.52-9.944
		c4.542,0.416,7.015,5.915,11.382,7.292c3.523,1.114,12.439-0.312,7.514-6.077c-3.18-3.175-8.899-3.283-12.901-5.013
		c-26.594-11.492,1.562-45.154,21.741-27.776c3.273,2.819,4.52,9.712-0.456,11.602c-5.691,2.16-10.96-4.366-16.782-2.127
		c-9.542,2.401,14.934,11.222,16.078,11.934c12.263,7.643,6.338,27.656-6.121,31.313
		C633.491,856.123,621.756,850.243,616.315,842.045z"/>
	<path style="fill:#FFFFFF;stroke:#000000;stroke-width:2;" d="M713.994,812.652c-12.897-3.212-3.616-13.37,4.972-13.37
		c0-5.814-2.523-17.729,3.908-21.173c12.083-6.472,9.573,16.723,9.573,21.173c2.482,0,6.414-0.818,8.729,0
		c7.401,0,7.33,10.522,1.339,12.763c-8.429,3.152-10.022-2.429-10.093,8.822c-0.045,7.162-0.415,14.482,0.301,21.62
		c0.534,5.355-2.185,11.497-8.674,9.668c-6.761-1.897-4.973-10.907-4.973-16.187C719.076,830.203,722.78,810.283,713.994,812.652z"
		/>
	<path style="fill:#FFFFFF;stroke:#000000;stroke-width:2;" d="M747.363,823.039c3.272-13.556,15.476-26.549,30.539-23.327
		c15.461,3.307,19.872,22.026,15.103,35.292C781.533,866.91,741.236,855.669,747.363,823.039z"/>
	<path style="fill:#FFFFFF;stroke:#000000;stroke-width:2;" d="M760.623,825.359c-4.38,23.413,22.923,16.782,20.719-3.314
		C779.532,805.554,763.724,815.176,760.623,825.359C760.402,826.539,761.139,823.666,760.623,825.359z"/>
	<path style="fill:#FFFFFF;stroke:#000000;stroke-width:2;" d="M831.783,835.636c7.018-4.488,14.191,2.33,9.393,9.393
		c-6.1,9.413-21.246,9.766-29.614,3.751c-17.329-12.454-10.496-47.775,11.05-51.817c7.198-1.303,21.954,2.375,22.873,11.271
		c1.803,14.519-14.357,1.555-17.9,1.989C807.365,808.597,815.131,853.273,831.783,835.636z"/>
	<path style="fill:#FFFFFF;stroke:#000000;stroke-width:2;" d="M848.357,823.039c3.261-13.559,15.483-26.547,30.539-23.327
		c15.462,3.307,19.87,22.026,15.102,35.292C882.532,866.905,842.207,855.671,848.357,823.039z"/>
	<path style="fill:#FFFFFF;stroke:#000000;stroke-width:2;" d="M861.617,825.359c-4.381,23.414,22.922,16.782,20.717-3.314
		C880.526,805.562,864.709,815.166,861.617,825.359C861.396,826.539,862.131,823.666,861.617,825.359z"/>
	<path style="fill:#FFFFFF;stroke:#000000;stroke-width:2;" d="M389.579,945.498c3.855,7.438-4.451,10.025-9.086,5.718
		c-4.245-3.944-6.747-10.094-8.609-15.462c-5.982-17.24-2.638-34.305,6.051-49.759c5.328-9.47,16.071-4.729,9.282,4.641
		c-3.529,4.874-5.923,9.845-7.086,15.736C377.546,919.47,378.417,936.438,389.579,945.498z"/>
	<path style="fill:#FFFFFF;stroke:#000000;stroke-width:2;" d="M397.038,911.852c-9.317-2.32-2.856-10.027,3.729-10.027
		c0-3.663-1.378-20.879,7.406-15.715c4.817,2.831,2.705,11.202,2.705,15.715c3.832-0.532,16.82,2.267,9.613,8.37
		c-5.087,4.198-9.583-2.49-9.624,6.299c-0.027,5.875-0.371,11.877,0.218,17.734c1.117,11.253-10.669,7.783-10.235-2.983
		C400.85,926.64,403.309,910.299,397.038,911.852z"/>
	<path style="fill:#FFFFFF;stroke:#000000;stroke-width:2;" d="M422.066,919.642c5.241-21.732,35.09-23.943,35.511,1.119
		C458.049,949.874,414.823,949.51,422.066,919.642z"/>
	<path style="fill:#FFFFFF;stroke:#000000;stroke-width:2;" d="M432.011,921.382c-2.387,12.761,10.509,15.829,14.751,3.751
		C451.563,911.46,436.108,907.885,432.011,921.382C431.845,922.267,432.396,920.111,432.011,921.382z"/>
	<path style="fill:#FFFFFF;stroke:#000000;stroke-width:2;" d="M499.717,932.984c1.507,2.179,1.151,5.689-0.953,7.375
		c-4.881,3.896-6.345-4.574-11.944-1.48c-8.063,4.454-17.013,1.131-21.247-6.807c-3.69-7.043-1.823-15.58-1.823-23.163
		c0-6.461,9.685-10.057,10.111-2.444c0.236,6.045-3.48,20.63,3.646,24.033c9.465,4.119,8.908-9.781,8.908-13.922
		c0-3.698,1.29-19.99,8.826-13.427C501.787,908.762,494.04,924.979,499.717,932.984
		C500.214,933.703,498.776,931.658,499.717,932.984z"/>
	<path style="fill:#FFFFFF;stroke:#000000;stroke-width:2;" d="M527.727,929.089c9.072-5.8,9.734,7.82,1.16,11.437
		c-8.143,3.698-18.003,0.03-21.755-8.11c-5.7-12.371,2.232-34.427,18.356-32.29c4.499,0.597,15.11,4.24,12.184,10.856
		c-3.468,7.791-8.956-1.465-13.095-0.953C508.659,910.323,516.111,941.512,527.727,929.089z"/>
	<path style="fill:#FFFFFF;stroke:#000000;stroke-width:2;" d="M577.118,935.802c2.755,9.985-9.435,3.461-11.903,4.797
		c-4.309,2.331-10.234,2.332-14.781,0.797c-14.993-5.06-10.361-25.245-1.353-33.661c7.75-7.24,24.06-10.743,24.06,3.371
		C573.141,920.646,572.972,927.302,577.118,935.802z"/>
	<path style="fill:#FFFFFF;stroke:#000000;stroke-width:2;" d="M559.549,932.072c6.596-4.188,3.038-13.112,3.315-20.552
		C550.408,913.736,547.544,936.886,559.549,932.072C560.156,931.687,558.721,932.404,559.549,932.072z"/>
	<path style="fill:#FFFFFF;stroke:#000000;stroke-width:2;" d="M615.984,937.294c-0.604,5.029-7.901,7.575-9.695,1.74
		c-1.742-5.41-0.429-12.812-0.373-18.439c0.019-2.048,0.747-7.954-0.871-9.572c-4.77-1.242-11.602,3.63-11.602,8.702
		c-1.055,4.082-0.141,10.058,0.082,14.337c0.586,11.249-10.109,8.652-10.109-1.492c0-8.729-0.084-17.458-0.084-26.188
		c0-5.227,6.812-6.159,9.365-2.237c5.133-3.338,12.587-4.67,18.024-1.223C619.41,908.429,615.984,928.576,615.984,937.294z"/>
	<path style="fill:#FFFFFF;stroke:#000000;stroke-width:2;" d="M621.206,944.421c10.893-10.916,12.103-29.819,6.878-43.84
		c-1.771-4.77-7.918-10.085-8.203-15.083c-0.473-11.984,10.865-0.826,13.094,2.734c8.692,13.938,10.25,30.926,5.221,46.575
		c-1.935,5.797-6.351,18.729-14.254,18.729C618.647,953.537,617.979,947.419,621.206,944.421z"/>
	<path style="fill:#FFFFFF;stroke:#000000;stroke-width:2;" d="M200.644,458.564c-3.398,28.329-59.034,54.075-64.299,15.662
		c-5.558-40.552-2.954-84.065-3.086-124.938c-0.141-43.444-0.018-86.89-0.018-130.333c0-5.397,0-10.793,0-16.19
		c-4.014-1.504-7.801-3.713-10.775-6.837c-5.463-5.739-7.988-13.969-7.924-21.769c0.146-17.86,11.957-30.884,26.986-38.797
		c66.764-35.111,160.665-40.236,216.635,18.051c26.56,27.66,36.216,64.31,27.752,101.546c-9.232,40.617-36.337,71.906-70.906,93.662
		c17.196,18.129,32.504,37.008,50.605,54.32c15.345,14.677,44.189,38.875,38.254,62.61c-6.257,25.022-33.846,37.606-54.575,20.191
		c-21.345-17.932-39.359-41.97-57.746-62.89c-9.382-10.674-18.607-21.48-28.127-32.033c-4.75-5.265-9.546-10.488-14.387-15.67
		c-5.667-6.065-13.565-2.002-21.497-1.226c-2.816,0.276-26.892,1.4-26.892,2.813c0,4.094,0,8.188,0,12.282
		C200.644,412.201,200.644,435.383,200.644,458.564z"/>
	<path style="fill:#FFFFFF;stroke:#000000;stroke-width:2;" d="M299.539,191.162c-14.673-8.802-31.279-13.839-48.343-14.917
		c-5.096-0.322-50.552,0.647-50.552,7.265c0,11.319,0,22.638,0,33.958c0,30.274,0,60.547,0,90.821
		c33.973-2.264,70.574-6.319,96.937-30.1C323.186,255.09,330.826,212.945,299.539,191.162
		C284.803,182.322,308.007,197.058,299.539,191.162z"/>
</g>
<g id="Layer_1">
	<path style="fill:#FFFFFF;stroke:#231F20;stroke-width:2;stroke-miterlimit:10;" d="M728.855,265.579
		c-5.188-42.098-85.53-85.974-130.868-5.144c-2.454,19.072-3.224,34.724-3.224,34.724c57.402,32.118,11.937,74.187,16.976,159.577
		C719.437,464.659,734.046,307.69,728.855,265.579z"/>
	<path style="fill:#FFFFFF;stroke:#231F20;stroke-width:2;stroke-miterlimit:10;" d="M896.527,637.288
		c-60.673,8.669-430.05-93.252-521.756-152.453c-19.166-23.167-29.271,12.012,6.773,25.489
		c36.043,13.482,376.011,183.557,492.386,177.457C929.464,685.22,906.527,635.86,896.527,637.288z"/>
	<path style="fill:#FFFFFF;stroke:#231F20;stroke-width:2;stroke-miterlimit:10;" d="M896.527,637.288
		c-60.673,8.669-430.05-93.252-521.756-152.453c-19.166-23.167-29.271,12.012,6.773,25.489
		c36.043,13.482,376.011,183.557,492.386,177.457C929.464,685.22,906.527,635.86,896.527,637.288z"/>
	<path style="fill:#FFFFFF;stroke:#231F20;stroke-width:2;stroke-miterlimit:10;" d="M813.186,555.449
		c14.209,75.58,41.314,140.754,41.391,150.752c0.1,17.764-31.624,27.748-35.047,25.791c-3.425-1.962-37.367-147.609-37.367-147.609
		L813.186,555.449z"/>
	<path style="fill:#FFFFFF;stroke:#231F20;stroke-width:2;stroke-miterlimit:10;" d="M797.064,578.334
		c8.884,44.174,26.528,153.107,21.784,160.578c-4.745,7.472-32.879,13.512-45.896,6.141c-1.65-17.243,4.385-123.627-6.106-135.824
		C756.353,597.033,795.99,572.997,797.064,578.334z"/>
	<path style="fill:#FFFFFF;stroke:#231F20;stroke-width:2;stroke-miterlimit:10;" d="M753.929,366.317
		c34.368-150.307-62.858-192.049-131.143-173.364c-13.894,3.803-21.18,39.36-24.799,67.481
		c45.338-80.83,125.68-36.954,130.868,5.144c5.19,42.111-9.419,199.08-117.116,189.156c7.702,130.487,166.72,179.786,182.4,154.999
		C825.029,558.227,831.797,454.522,753.929,366.317z"/>
	<path style="fill:#FFFFFF;stroke:#231F20;stroke-width:2;stroke-miterlimit:10;" d="M753.929,366.317
		c34.368-150.307-62.858-192.049-131.143-173.364c-13.894,3.803-21.18,39.36-24.799,67.481c-2.454,19.072-3.224,34.724-3.224,34.724
		c57.402,32.118,11.937,74.187,16.976,159.577c7.702,130.487,166.72,179.786,182.4,154.999
		C825.029,558.227,831.797,454.522,753.929,366.317z"/>
	<path style="fill:#FFFFFF;stroke:#231F20;stroke-width:2;stroke-miterlimit:10;" d="M624,343.865
		c23.07,0,28.252,16.783,27.828,37.336c-0.684,33.148-4.02,64.199,7.805,96.258c15.69,42.542,64.857,67.492,75.093,110.865
		c5.62,23.811-24.887,12.377-35.726,8.041c-27.006-12.003-41.424-36.288-59-58C598.044,487.086,609.81,402.297,624,343.865"/>
	<path style="fill:#FFFFFF;stroke:#231F20;stroke-width:2;stroke-miterlimit:10;" d="M686.408,574.906
		c-27.821-4.611-33.146,10.774-31.785,18.331c1.873,10.388,22.344,18.088,33.883,16.819c-7.059-10.329,9.128-7.978,15.084-14.395
		C709.543,589.245,700.863,577.302,686.408,574.906z"/>
	<path style="fill:#FFFFFF;stroke:#231F20;stroke-width:2;stroke-miterlimit:10;" d="M714.369,585.227
		c-27.82-4.61-33.146,10.777-31.783,18.331c1.874,10.391,22.342,18.089,33.881,16.822c-7.057-10.332,9.13-7.98,15.083-14.396
		C737.505,599.564,728.827,587.624,714.369,585.227z"/>
	<path style="fill:#FFFFFF;stroke:#231F20;stroke-width:2;stroke-miterlimit:10;" d="M761.863,439.008
		c17.86,25.584,40.538,3.614,31.481-13.554c11.738,15.561,13.892,4.445,13.929,4.233c-4.459-9.413-9.274-17.966-14.146-25.537
		c-1.486,1.524-4.557,1.809-10.611-6.219c7.738,14.671-11.638,33.437-26.898,11.582c1.607,24.083-26.863,14.33-30.966-3.602
		c-0.845,8.476-0.537,17.93,0.769,28.031C729.492,455.472,763.771,467.575,761.863,439.008z"/>
	<path style="fill:#FFFFFF;stroke:#231F20;stroke-width:2;stroke-miterlimit:10;" d="M785.473,516.784
		c17.78,25.466,40.354,3.599,31.338-13.496c6.946,9.214,10.518,9.033,12.284,7.325c-1.122-14.276-3.601-27.888-7.013-40.648
		c-1.148,2.709-4.771,7.039-14.664-6.076c9.84,18.654-14.797,42.521-34.204,14.723c1.763,26.413-24.929,20.822-35.656,4.158
		c4.735,13.511,10.554,27.197,17.192,40.482C765.511,536.366,786.993,539.512,785.473,516.784z"/>
	<path style="fill:#FFFFFF;stroke:#231F20;stroke-width:2;stroke-miterlimit:10;" d="M819.08,542.886
		c6.634,12.579-9.977,28.666-23.06,9.93c0.991,14.855-11.37,14.688-19.695,7.703c11.99,17.933,25.206,33.647,38.729,45.118
		c7.741-20.014,12.067-39.603,13.806-58.42C827.98,549.034,825.469,551.361,819.08,542.886z"/>
	<path style="fill:#FFFFFF;stroke:#231F20;stroke-width:2;stroke-miterlimit:10;" d="M491.766,170.366
		c-15.701,3.243-30.356,10.062-43.205,21.795c8.981,24.496,1.559,64.839-3.862,80.123c14.666-1.133,31.278,0.856,48.077,4.138
		C500.128,253.623,504.95,195.194,491.766,170.366z"/>
	<path style="fill:#FFFFFF;stroke:#231F20;stroke-width:2;stroke-miterlimit:10;" d="M448.561,192.161
		c-20.726,18.929-36.762,50.608-44.938,100.558c8.925-13.32,23.62-19.085,41.077-20.436C450.12,257,457.542,216.657,448.561,192.161
		z"/>
	<path style="fill:#FFFFFF;stroke:#231F20;stroke-width:2;stroke-miterlimit:10;" d="M529.434,168.634
		c-12.949-1.148-25.615-0.758-37.668,1.731c13.185,24.829,8.362,83.257,1.01,106.056c11.796,2.304,23.677,5.238,35.037,8.173
		C539.967,258.102,543.68,196.248,529.434,168.634z"/>
	<path style="fill:#FFFFFF;stroke:#231F20;stroke-width:2;stroke-miterlimit:10;" d="M619.072,193.492
		c-28.571-11.517-59.838-22.216-89.639-24.858c14.246,27.613,10.533,89.468-1.621,115.961c31.896,8.243,59.641,16.451,69.618,10.507
		C622.045,280.431,645.823,204.276,619.072,193.492z"/>
	<path style="fill:#FFFFFF;stroke:#231F20;stroke-width:2;stroke-miterlimit:10;" d="M755.617,409.513
		c15.261,21.855,34.637,3.089,26.898-11.582c6.055,8.027,9.125,7.743,10.611,6.219c-16.089-24.996-32.772-39.232-39.198-37.833
		c-18.232,3.976-27.211,18.849-29.277,39.594C728.754,423.843,757.225,433.596,755.617,409.513z"/>
	<path style="fill:#FFFFFF;stroke:#231F20;stroke-width:2;stroke-miterlimit:10;" d="M773.214,478.611
		c19.407,27.799,44.044,3.932,34.204-14.723c9.893,13.115,13.516,8.785,14.664,6.076c-3.92-14.651-9.067-28.17-14.809-40.278
		c-0.037,0.212-2.19,11.328-13.929-4.233c9.057,17.168-13.621,39.139-31.481,13.554c1.908,28.567-32.371,16.463-36.443-5.066
		c1.968,15.212,6.197,31.873,12.138,48.827C748.285,499.434,774.977,505.024,773.214,478.611z"/>
	<path style="fill:#FFFFFF;stroke:#231F20;stroke-width:2;stroke-miterlimit:10;" d="M796.021,552.815
		c13.083,18.736,29.693,2.649,23.06-9.93c6.389,8.476,8.9,6.148,9.779,4.331c1.162-12.583,1.16-24.818,0.235-36.604
		c-1.767,1.708-5.338,1.889-12.284-7.325c9.017,17.095-13.558,38.962-31.338,13.496c1.521,22.728-19.962,19.582-30.723,6.468
		c4.568,9.134,9.516,18.072,14.76,26.628c-0.063-0.266-0.139-0.534-0.188-0.807c0.049,0.272,0.124,0.541,0.188,0.807
		c2.221,3.624,4.496,7.171,6.815,10.639C784.65,567.503,797.012,567.671,796.021,552.815z"/>
	<path style="fill:#231F20;stroke:#231F20;stroke-width:2;stroke-miterlimit:10;" d="M686.7,274.136
		c-1.399,9.988-10.626,16.951-20.618,15.55c-9.988-1.4-16.949-10.633-15.549-20.621c1.399-9.988,10.631-16.95,20.619-15.55
		C681.145,254.916,688.101,264.147,686.7,274.136z"/>
	<path style="fill:#FFFFFF;stroke:#231F20;stroke-width:2;stroke-miterlimit:10;" d="M684.699,270.417
		c-1.648,11.758-19.834,9.208-18.186-2.549C668.162,256.111,686.348,258.658,684.699,270.417
		C683.995,275.438,685.403,265.395,684.699,270.417z"/>
</g>
</svg>
