<?xml version="1.0" encoding="utf-8"?>
<!-- Generator: Adobe Illustrator 16.0.0, SVG Export Plug-In . SVG Version: 6.00 Build 0)  -->
<!DOCTYPE svg PUBLIC "-//W3C//DTD SVG 1.1//EN" "http://www.w3.org/Graphics/SVG/1.1/DTD/svg11.dtd">
<svg version="1.1" xmlns="http://www.w3.org/2000/svg" xmlns:xlink="http://www.w3.org/1999/xlink" x="0px" y="0px" width="100%"
     height="100%" viewBox="0 0 1000 1000" style="enable-background:new 0 0 1000 1000;" xml:space="preserve">
  <rect style="fill:#FFFFFF;" width="1000" height="1000"/>
    
<g id="Layer_1">
	<path style="fill:none;stroke:#231F20;stroke-width:2;stroke-miterlimit:10;" d="M127.482,482.388
		c2.354-8.003-0.47-24.954-10.358-26.366c-8.946-1.414-10.358,11.3-20.717,5.649c-7.063-4.237-6.591-16.007-14.596-19.304
		c-5.179-2.354-16.949,0.942-17.42,8.005c0.472,7.062,11.771,3.295,17.42,8.003c4.709,3.767,5.65,14.125,12.713,16.479
		c7.533,2.825,14.596-8.945,21.187-5.18c6.592,3.769-1.412,19.304,10.359,15.066"/>
	<path style="fill:#FFFFFF;stroke:#231F20;stroke-width:2;stroke-miterlimit:10;" d="M540.872,389.742
		c2.564,15.563,20.347,41.187,35.774,46.863c8.747,3.218,18.828-0.037,27.369-5.704c6.014-3.993,11.272-9.178,14.76-14.154
		c16.558-23.6,2.953-55.795,20.53-79.441c-1.073-0.428-2.172-0.792-3.319-1.108c-17.006-4.729-41.369,2.367-55.589,8.914
		C562.533,353.334,537.181,367.375,540.872,389.742z"/>
	<path style="fill:#FFFFFF;stroke:#231F20;stroke-width:2;stroke-miterlimit:10;" d="M593.506,424.074
		c3.347,2.601,6.882,4.895,10.51,6.827c6.014-3.993,11.272-9.178,14.76-14.154c16.558-23.6,2.953-55.795,20.53-79.441
		c-1.073-0.428-2.172-0.792-3.319-1.108c-16.12,6.088-31.981,25.145-43.833,36.13C575.398,387.822,573.693,408.699,593.506,424.074z
		"/>
	<path style="fill:#FFFFFF;stroke:#231F20;stroke-width:2;stroke-miterlimit:10;" d="M278.57,331.545
		c0.298,0.523,0.597,1.063,0.885,1.615c9.09,16.857,16.065,43.363,29.976,60.297c6.844,8.335,15.366,14.349,26.648,15.748
		c26.704,3.309,60.12-37.501,44.848-61.686c-9.902-15.684-37.492-27.925-55.263-28.841
		C306.411,317.69,294.373,327.453,278.57,331.545z"/>
	<path style="fill:#FFFFFF;stroke:#231F20;stroke-width:2;stroke-miterlimit:10;" d="M279.455,333.16
		c9.09,16.857,16.065,43.363,29.976,60.297c10.35-7.06,20.634-23.729,18.751-34.677c-3.181-18.414-26.201-21.968-40.7-24.252
		C284.667,334.091,281.991,333.607,279.455,333.16z"/>
	<path style="fill:#FFFFFF;stroke:#231F20;stroke-width:2;stroke-miterlimit:10;" d="M377.044,717.632
		c5.781,1.276,10.061-6.268,16.251-6.042c7.432,0.269,3.861,11.729,11.05,11.312c3.963-0.235,6.564-5.792,8.083-8.708
		c3.041-5.859,4.524-12.533,6.127-18.94c0.466-1.854,0.932-3.69,1.454-5.472c3.656-12.466,7.711-24.792,11.104-37.313
		c1.669-6.126,2.659-13.025,5.782-18.528l-58.21,1.938c0.028-0.419-0.019-0.79-0.046-1.164c-1.531,16.315-1.745,33.358-3.33,49.93
		c-0.12,1.222-0.25,2.452-0.38,3.673C374.19,695.039,366.257,715.256,377.044,717.632z"/>
	<path style="fill:#FFFFFF;stroke:#231F20;stroke-width:2;stroke-miterlimit:10;" d="M140.606,698.779
		c5.781,1.277,10.07-6.267,16.261-6.041c7.431,0.28,3.851,11.729,11.04,11.308c3.963-0.231,6.573-5.79,8.083-8.706
		c2.844-5.465,4.327-11.647,5.81-17.649c0.568-2.294,1.138-4.572,1.78-6.762c3.646-12.465,7.702-24.791,11.105-37.312
		c1.66-6.127,2.657-13.028,5.773-18.528l-24.616-125.539c-31.393,17.399-34.06,46.91-31.71,79.367
		c2.424,33.36-1.464,63.17-5.138,96.025c-0.168,1.503-0.336,3.006-0.503,4.521C137.754,676.187,129.819,696.401,140.606,698.779z"/>
	<path style="fill:#FFFFFF;stroke:#231F20;stroke-width:2;stroke-miterlimit:10;" d="M440.856,632.924
		c-0.186-0.391-0.428-0.699-0.643-1.016c6.965,15.327,15.516,30.629,22.469,46.246c0.327,0.709,0.644,1.427,0.952,2.145
		c2.705,6.197,5.866,27.681,16.401,24.389c5.65-1.759,5.623-10.439,11.115-13.321c6.582-3.451,9.174,8.261,15.197,4.327
		c3.318-2.174,2.825-8.29,2.694-11.572c-0.298-7.065-2.6-14.069-4.465-20.85c-0.393-1.378-0.757-2.739-1.082-4.103
		c-3.023-12.632-5.633-25.34-8.905-37.898c-1.593-6.147-4.159-12.627-4.187-18.946L440.856,632.924z"/>
	<path style="fill:#FFFFFF;stroke:#231F20;stroke-width:2;stroke-miterlimit:10;" d="M377.117,635.832
		c0.094,0.459,0.29,0.794,0.504,1.109C377.452,636.57,377.286,636.205,377.117,635.832z"/>
	<path style="fill:#FFFFFF;stroke:#231F20;stroke-width:2;stroke-miterlimit:10;" d="M189.01,639.81
		c-0.097-0.36-0.248-0.653-0.364-0.96c3.529,14.72,8.5,29.698,11.907,44.667c0.067,0.297,0.135,0.593,0.203,0.89
		c1.297,5.789,0.446,24.818,10.068,23.735c5.161-0.576,6.581-8.058,11.79-9.625c6.244-1.876,6.529,8.64,12.371,6.252
		c3.22-1.317,3.812-6.667,4.246-9.516c0.783-5.222,0.305-10.638-0.154-15.932c-0.195-2.188-0.384-4.357-0.474-6.482
		c-0.5-11.382-0.635-22.763-1.363-34.125c-0.352-5.558-1.482-11.567-0.455-17.017L189.01,639.81z"/>
	<path style="fill:#FFFFFF;stroke:#231F20;stroke-width:2;stroke-miterlimit:10;" d="M188.383,637.792
		c0.004,0.407,0.109,0.728,0.25,1.039C188.551,638.48,188.466,638.14,188.383,637.792z"/>
	<path style="fill:#FFFFFF;stroke:#231F20;stroke-width:2;stroke-miterlimit:10;" d="M594.602,564.926
		c-18.761,23.438-44.683,42.341-69.427,57.684c-61.195,37.945-142.996,60.994-215.094,58.059
		c-39.817-1.621-79.674-12.294-113.381-33.938c-46.429-29.814-86.246-94.306-77.685-151.163
		c5.428-36.05,44.971-66.617,78.427-75.039c27.902-7.026,59.157-6.325,86.08-18.394c26.294-11.789,49.012-30.809,72.343-46.954
		c65.243-45.144,163.626-26.667,220.228,25.842c29.376,27.254,44.089,68.071,45.646,107.523
		C622.911,518.297,611.745,543.507,594.602,564.926z"/>
	<path style="fill:#FFFFFF;stroke:#231F20;stroke-width:2;stroke-miterlimit:10;" d="M501.414,555.531
		c0,0-55.21,19.839-89.328-7.442C412.086,548.089,456.526,661.664,501.414,555.531z"/>
	<path style="fill:#FFFFFF;stroke:#231F20;stroke-width:2;stroke-miterlimit:10;" d="M316.046,639.751
		c0.028-0.421,0.074-0.83,0.112-1.251C316.008,638.955,316.017,639.357,316.046,639.751z"/>
	<path style="fill:#FFFFFF;stroke:#231F20;stroke-width:2;stroke-miterlimit:10;" d="M377.044,717.632
		c5.781,1.276,10.061-6.268,16.251-6.042c7.432,0.269,3.861,11.729,11.05,11.312c3.963-0.235,6.564-5.792,8.083-8.708
		c3.041-5.859,4.524-12.533,6.127-18.94c-10.872-3.281-22.396-4.829-33.464-7.075c-2.573-0.522-6.387-2.441-9.781-3.534
		c-0.12,1.222-0.25,2.452-0.38,3.673C374.19,695.039,366.257,715.256,377.044,717.632z"/>
	<path style="fill:#FFFFFF;stroke:#231F20;stroke-width:2;stroke-miterlimit:10;" d="M140.606,698.779
		c5.781,1.277,10.07-6.267,16.261-6.041c7.431,0.28,3.851,11.729,11.04,11.308c3.963-0.231,6.573-5.79,8.083-8.706
		c2.844-5.465,4.327-11.647,5.81-17.649c-10.666-6.147-32.326-4.655-42.806-12.749c-0.168,1.503-0.336,3.006-0.503,4.521
		C137.754,676.187,129.819,696.401,140.606,698.779z"/>
	<path style="fill:#FFFFFF;stroke:#231F20;stroke-width:2;stroke-miterlimit:10;" d="M200.553,683.517
		c0.067,0.297,0.135,0.593,0.203,0.89c1.297,5.789,0.446,24.818,10.068,23.735c5.161-0.576,6.581-8.058,11.79-9.625
		c6.244-1.876,6.529,8.64,12.371,6.252c3.22-1.317,3.812-6.667,4.246-9.516c0.783-5.222,0.305-10.638-0.154-15.932
		c-2.241,0.124-5.041,0.991-8.957,1.601c-7.841,1.22-15.888,2.723-23.859,2.723C204.227,683.645,202.317,683.565,200.553,683.517z"
		/>
	<path style="fill:#FFFFFF;stroke:#231F20;stroke-width:2;stroke-miterlimit:10;" d="M462.683,678.154
		c0.327,0.709,0.644,1.427,0.952,2.145c2.705,6.197,5.866,27.681,16.401,24.389c5.65-1.759,5.623-10.439,11.115-13.321
		c6.582-3.451,9.174,8.261,15.197,4.327c3.318-2.174,2.825-8.29,2.694-11.572c-0.298-7.065-2.6-14.069-4.465-20.85
		c-5.455,2.9-10.901,6.323-16.393,8.439C480.221,674.786,471.132,675.99,462.683,678.154z"/>
	<path style="fill:#FFFFFF;stroke:#231F20;stroke-width:2;stroke-miterlimit:10;" d="M339.267,454.086
		c-18.161-21.318-3.213-53.823,21.071-62.852c27.958-10.398,55.776,23.168,47.741,49.47c-6.074,19.876-25.233,31.696-45.66,26.66
		C351.901,464.771,344.319,460.018,339.267,454.086z"/>
	<path style="fill:#231F20;stroke:#231F20;stroke-width:2;stroke-miterlimit:10;" d="M380.206,410.145
		c20.642-3.277,32.999,21.004,18.06,35.74c-13.287,13.102-37.696,2.957-35.014-16.345
		C364.6,419.851,369.897,411.784,380.206,410.145z"/>
	<path style="fill:#FFFFFF;stroke:#231F20;stroke-width:2;stroke-miterlimit:10;" d="M390.736,424.801
		c5.068-4.722,14.033,0.077,12.558,7.052c-1.181,5.584-7.355,9.104-11.583,5.095C388.19,433.609,386.797,428.473,390.736,424.801z"
		/>
	<path style="fill:#FFFFFF;stroke:#231F20;stroke-width:2;stroke-miterlimit:10;" d="M510.453,461.062
		c-22.834-17.458-14.873-53.301,7.537-67.617c25.8-16.483,60.972,11.173,58.602,39.3c-1.791,21.253-18.453,37.258-40.038,36.627
		C525.438,469.046,516.805,465.918,510.453,461.062z"/>
	<path style="fill:#231F20;stroke:#231F20;stroke-width:2;stroke-miterlimit:10;" d="M542.016,408.119
		c19.999-7.759,37.652,13.93,25.853,31.945c-10.495,16.021-37.18,11.125-38.665-8.82
		C528.459,421.232,532.027,411.992,542.016,408.119z"/>
	<path style="fill:#FFFFFF;stroke:#231F20;stroke-width:2;stroke-miterlimit:10;" d="M555.75,420.542
		c4.065-5.833,14.098-2.961,14.127,4.357c0.024,5.857-5.407,10.725-10.516,7.62C555.104,429.93,552.594,425.077,555.75,420.542z"/>
	<path style="fill:#FFFFFF;stroke:#231F20;stroke-width:2;stroke-miterlimit:10;" d="M420.004,558.256
		c22.314,11.543,51.051,10.726,75.522,3.134c29.047-9.012,62.167-31.447,39.852-63.878c-24.95-36.259-85.812-34.64-121.932-19.477
		c-24.499,10.286-34.367,23.523-22.35,49.685C397.712,542.12,407.915,552.002,420.004,558.256z"/>
	<path style="fill:#FFFFFF;stroke:#231F20;stroke-width:2;stroke-miterlimit:10;" d="M412.147,511.801
		c-2.021-9.463,6.061-16.786,15.557-14.242c6.689,1.788,15.533,8.024,11.619,15.676c-4.755,9.284-23.084,11.203-26.726,0.22
		C412.414,512.896,412.263,512.346,412.147,511.801z"/>
	<path style="fill:#FFFFFF;stroke:#231F20;stroke-width:2;stroke-miterlimit:10;" d="M487.502,511.801
		c-2.022-9.463,6.061-16.786,15.557-14.242c6.688,1.788,15.534,8.024,11.619,15.676c-4.755,9.284-23.083,11.203-26.725,0.22
		C487.766,512.896,487.619,512.346,487.502,511.801z"/>
	<path style="fill:none;stroke:#231F20;stroke-width:2;stroke-miterlimit:10;" d="M791.506,648.876
		c6.354,5.406,22.986,9.72,28.298,1.26c4.93-7.596-6.109-14.06,3.265-21.223c6.742-4.729,17.304,0.489,23.57-5.483
		c4.257-3.773,6.034-15.867-0.228-19.17c-6.644-2.441-7.797,9.412-14.396,12.659c-5.357,2.771-15.203-0.582-20.225,4.911
		c-5.646,5.734,2.235,16.975-3.885,21.462c-6.125,4.49-17.062-9.14-17.978,3.336"/>
	<path style="fill:#FFFFFF;stroke:#231F20;stroke-width:2;stroke-miterlimit:10;" d="M638.327,623.664
		c-4.959-4.924-11.447-3.457-20.394-6.371c-11.195,10.99-4.586,53.407,7.322,62.029c7.172-5.436,15.333-11.481,21.786-17.533
		L638.327,623.664z"/>
	<path style="fill:#FFFFFF;stroke:#231F20;stroke-width:2;stroke-miterlimit:10;" d="M754.8,574.32l-25.205,0.876l-17.65,0.609
		c4.493-9.907,2.937-19.072,8.032-29.395c4.438-9.013,9.533-17.684,15.443-25.193c0.249-0.337,0.503-0.648,0.757-0.966
		C754.115,527.584,747.244,560.053,754.8,574.32z"/>
	<path style="fill:#FFFFFF;stroke:#231F20;stroke-width:2;stroke-miterlimit:10;" d="M729.595,575.196l-17.65,0.609
		c4.493-9.907,2.937-19.072,8.032-29.395c4.438-9.013,9.533-17.684,15.443-25.193C737.151,533.191,737.194,559.508,729.595,575.196z
		"/>
	<path style="fill:#FFFFFF;stroke:#231F20;stroke-width:2;stroke-miterlimit:10;" d="M669.216,678.7
		c-4.823,11.821-14.25,30.091-1.377,36.822c18.229,9.534,19.329-19.302,29.734-22.645L669.216,678.7z"/>
	<path style="fill:#FFFFFF;stroke:#231F20;stroke-width:2;stroke-miterlimit:10;" d="M733.347,697.103
		c6.806,10.802,16.185,29.097,29.149,22.541c18.357-9.281-4.455-26.951-1.121-37.357L733.347,697.103z"/>
	<path style="fill:#FFFFFF;stroke:#231F20;stroke-width:2;stroke-miterlimit:10;" d="M776.034,693.743
		c-49.81,33.073-133.56,26.905-141.38-58.647c-5.86-64.084,76.446-79.318,112.829-66.165c26.2,9.473,45.151,30.95,49.472,64.689
		C801.102,665.972,791.762,683.3,776.034,693.743z"/>
	<path style="fill:#FFFFFF;stroke:#231F20;stroke-width:2;stroke-miterlimit:10;" d="M669.767,628.238
		c14.996,5.539,29.879-9.399,30.249-24.589c0.424-17.487-23.04-25.781-35.844-15.922c-9.677,7.452-12.521,20.411-5.961,30.568
		C661.589,623.526,665.595,626.699,669.767,628.238z"/>
	<path style="fill:#231F20;stroke:#231F20;stroke-width:2;stroke-miterlimit:10;" d="M686.01,596.674
		c-2.079-11.998-17.599-13.734-22.819-2.487c-4.643,10.003,5.443,21.284,15.441,15.807
		C683.65,607.246,687.049,602.669,686.01,596.674z"/>
	<path style="fill:#FFFFFF;stroke:#231F20;stroke-width:2;stroke-miterlimit:10;" d="M676.067,593.94
		c1.621-3.757-2.665-7.68-6.187-5.421c-2.817,1.803-3.574,5.918-0.603,7.407C671.753,597.164,674.807,596.862,676.067,593.94z"/>
</g>
<g id="Layer_2">
	<path style="fill:#FFFFFF;stroke:#000000;stroke-width:2;" d="M279.22,803.189c-0.517-1.398-0.682-2.799-0.498-4.199
		c0.183-1.398,0.663-2.597,1.437-3.591c0.773-0.995,1.785-1.694,3.039-2.1c1.252-0.404,2.652-0.276,4.199,0.387
		c1.398,0.59,2.597,1.455,3.591,2.597c0.995,1.143,2.191,2.044,3.591,2.707c1.915,0.958,3.868,1.657,5.856,2.1
		c1.398,0.369,2.799,0.607,4.199,0.718c1.398,0.11,2.835,0.166,4.31,0.166c1.105-0.294,2.062-0.589,2.873-0.884
		c0.81-0.294,1.693-0.921,2.652-1.879c1.105-0.956,1.823-2.1,2.155-3.425c0.331-1.326,0.331-2.634,0-3.923
		c-0.332-1.288-0.958-2.468-1.878-3.536c-0.922-1.067-2.044-1.785-3.371-2.154c-2.579-0.885-5.157-1.564-7.734-2.045
		c-2.58-0.478-5.083-1.05-7.514-1.712c-2.431-0.663-4.734-1.603-6.906-2.818c-2.174-1.215-4.182-2.964-6.022-5.248
		c-1.032-1.252-1.695-2.357-1.989-3.315c-0.295-0.956-0.627-2.172-0.995-3.646c-0.663-3.536-0.387-6.52,0.829-8.95
		c1.215-2.431,2.743-4.641,4.585-6.63c2.356-2.577,5.027-4.548,8.011-5.911c2.983-1.362,6.113-2.246,9.392-2.652
		c3.277-0.404,6.592-0.332,9.945,0.221c3.351,0.553,6.537,1.492,9.558,2.818c1.768,0.736,2.89,1.879,3.37,3.426
		c0.478,1.547,0.497,3.057,0.055,4.529c-0.442,1.475-1.29,2.69-2.542,3.646c-1.253,0.959-2.726,1.29-4.42,0.995
		c-1.768-0.368-3.425-0.755-4.972-1.16c-1.547-0.404-3.094-0.755-4.641-1.05c-1.179-0.222-2.45-0.258-3.812-0.11
		c-1.364,0.148-2.652,0.387-3.868,0.718c-1.215,0.332-2.339,0.701-3.37,1.105c-1.032,0.405-1.806,0.828-2.32,1.271
		c-0.59,0.516-1.16,1.179-1.713,1.988c-0.552,0.812-0.867,1.732-0.939,2.763c-0.148,1.254,0.332,2.284,1.437,3.094
		c1.105,0.812,2.282,1.4,3.536,1.769c2.431,0.516,4.935,1.014,7.514,1.491c2.578,0.48,5.119,1.144,7.624,1.989
		c2.503,0.848,4.843,1.934,7.017,3.26c2.172,1.326,4.033,3.094,5.58,5.304c1.694,1.916,2.909,4.089,3.646,6.52
		c0.735,2.431,1.012,4.861,0.829,7.293c-0.185,2.431-0.756,4.771-1.712,7.017c-0.958,2.248-2.284,4.218-3.978,5.911
		c-1.179,1.18-2.414,2.192-3.702,3.039c-1.29,0.846-2.671,1.675-4.144,2.486c-2.947,1.547-6.116,2.32-9.503,2.32
		c-3.389,0-6.778-0.497-10.166-1.492c-3.389-0.994-6.594-2.395-9.613-4.198c-3.021-1.805-5.599-3.774-7.735-5.912L279.22,803.189z"
		/>
	<path style="fill:#FFFFFF;stroke:#000000;stroke-width:2;" d="M386.291,802.305c0.663,0.959,1.05,2.083,1.16,3.37
		c0.11,1.29-0.038,2.506-0.442,3.646c-0.405,1.144-1.068,2.081-1.988,2.818c-0.922,0.735-2.118,1.066-3.592,0.994
		c-1.916-0.148-3.463-0.812-4.641-1.989c-1.179-1.177-2.284-2.503-3.314-3.978c-2.873,2.358-5.84,3.995-8.896,4.917
		c-3.058,0.92-6.06,1.122-9.005,0.607c-2.947-0.516-5.709-1.75-8.287-3.701c-2.58-1.951-4.751-4.586-6.52-7.9
		c-1.621-3.094-2.524-6.52-2.707-10.276c-0.185-3.757-0.24-7.329-0.166-10.719c0-1.177,0.037-2.337,0.111-3.48
		c0.072-1.141,0.146-2.338,0.221-3.591c0.073-0.957,0.111-1.896,0.111-2.817c0-0.921,0.055-1.786,0.166-2.597
		s0.332-1.62,0.663-2.432c0.332-0.81,0.829-1.583,1.492-2.32c0.884-0.956,1.951-1.528,3.204-1.713
		c1.252-0.183,2.448-0.055,3.591,0.387c1.141,0.442,2.136,1.124,2.983,2.045c0.846,0.922,1.307,2.044,1.381,3.37
		c0.146,3.757,0.055,7.552-0.276,11.381c-0.332,3.831-0.314,7.588,0.055,11.271c0.147,1.769,0.608,3.574,1.381,5.415
		c0.773,1.842,2.006,3.168,3.702,3.978c1.694,0.737,3.406,0.682,5.138-0.166c1.73-0.846,3.149-1.859,4.254-3.038
		c0.515-0.589,1.012-1.233,1.491-1.935c0.479-0.699,1.012-1.307,1.603-1.823c-0.295-2.577-0.48-5.155-0.553-7.734
		c-0.074-2.578-0.074-5.155,0-7.734c0-1.398,0.056-2.929,0.166-4.586s0.404-3.241,0.884-4.751c0.479-1.51,1.196-2.835,2.154-3.979
		c0.957-1.141,2.321-1.859,4.089-2.154c0.81-0.147,1.603-0.073,2.376,0.221c0.773,0.295,1.453,0.701,2.044,1.216
		c1.03,0.884,1.729,1.878,2.1,2.983c0.367,1.104,0.553,2.284,0.553,3.535c0,1.254-0.094,2.524-0.276,3.812
		c-0.186,1.29-0.314,2.486-0.387,3.591c-0.148,2.063-0.26,4.237-0.332,6.52c-0.074,2.284,0,4.568,0.221,6.852
		c0.222,2.284,0.645,4.493,1.271,6.629C384.099,798.586,385.037,800.537,386.291,802.305z"/>
	<path style="fill:#FFFFFF;stroke:#000000;stroke-width:2;" d="M393.912,803.521c-0.441-1.252-0.627-2.486-0.553-3.701
		c0.073-1.216,0.387-2.321,0.939-3.315s1.344-1.768,2.376-2.32c1.03-0.553,2.282-0.755,3.757-0.607
		c0.81,0.074,1.547,0.295,2.21,0.662c0.663,0.37,1.271,0.812,1.823,1.326c0.553,0.517,1.104,1.069,1.657,1.658
		c0.553,0.59,1.122,1.104,1.713,1.547c1.252,0.958,2.577,1.657,3.978,2.099c1.398,0.442,2.873,0.773,4.42,0.995
		c1.031,0,1.859-0.258,2.486-0.773c0.625-0.515,1.05-1.142,1.271-1.879c0.222-0.735,0.276-1.527,0.166-2.376
		c-0.11-0.846-0.387-1.527-0.829-2.044c-1.253-1.252-2.781-2.062-4.585-2.431c-1.807-0.368-3.48-0.81-5.028-1.326
		c-2.21-0.735-4.383-1.675-6.519-2.817c-2.138-1.142-3.868-2.707-5.193-4.696c-1.4-2.062-2.229-4.254-2.486-6.574
		c-0.259-2.321-0.074-4.586,0.553-6.796c0.625-2.21,1.674-4.235,3.148-6.077c1.473-1.841,3.241-3.352,5.304-4.53
		c1.548-0.885,3.241-1.454,5.083-1.713c1.841-0.258,3.702-0.312,5.58-0.166c1.879,0.148,3.738,0.497,5.58,1.05
		c1.841,0.553,3.536,1.16,5.083,1.823c1.769,0.812,3.094,1.953,3.979,3.426c0.884,1.474,1.307,2.966,1.271,4.475
		c-0.038,1.511-0.553,2.817-1.547,3.923c-0.995,1.104-2.45,1.657-4.365,1.657c-1.179,0-2.248-0.202-3.204-0.607
		c-0.958-0.404-1.953-0.791-2.983-1.16c-1.326-0.515-2.763-0.865-4.31-1.05c-1.547-0.184-2.8-0.092-3.757,0.276
		c-0.295,0.074-0.627,0.314-0.994,0.718c-0.37,0.406-0.646,0.903-0.829,1.492c-0.185,0.59-0.221,1.179-0.11,1.768
		c0.11,0.591,0.497,1.068,1.16,1.437c1.768,0.958,3.646,1.695,5.636,2.21c1.988,0.517,3.939,1.105,5.856,1.768
		c1.914,0.663,3.701,1.511,5.358,2.542c1.658,1.032,3.039,2.505,4.144,4.42c1.62,2.8,2.448,5.729,2.486,8.784
		c0.036,3.058-0.571,5.912-1.823,8.563c-1.253,2.652-3.094,4.917-5.524,6.796c-2.431,1.878-5.268,3.001-8.509,3.37
		c-2.284,0.221-4.53,0.092-6.74-0.387c-2.21-0.48-4.347-1.254-6.408-2.32c-2.063-1.069-3.979-2.338-5.746-3.812
		c-1.769-1.473-3.315-3.02-4.641-4.641L393.912,803.521z"/>
	<path style="fill:#FFFFFF;stroke:#000000;stroke-width:2;" d="M480.651,803.521c-0.441-1.252-0.627-2.486-0.553-3.701
		c0.073-1.216,0.387-2.321,0.939-3.315s1.344-1.768,2.376-2.32c1.03-0.553,2.282-0.755,3.757-0.607
		c0.81,0.074,1.547,0.295,2.21,0.662c0.663,0.37,1.271,0.812,1.823,1.326c0.553,0.517,1.104,1.069,1.657,1.658
		c0.553,0.59,1.122,1.104,1.713,1.547c1.252,0.958,2.577,1.657,3.978,2.099c1.398,0.442,2.873,0.773,4.42,0.995
		c1.031,0,1.859-0.258,2.486-0.773c0.625-0.515,1.05-1.142,1.271-1.879c0.222-0.735,0.276-1.527,0.166-2.376
		c-0.11-0.846-0.387-1.527-0.829-2.044c-1.253-1.252-2.781-2.062-4.585-2.431c-1.807-0.368-3.48-0.81-5.028-1.326
		c-2.21-0.735-4.383-1.675-6.519-2.817c-2.138-1.142-3.868-2.707-5.193-4.696c-1.4-2.062-2.229-4.254-2.486-6.574
		c-0.259-2.321-0.074-4.586,0.553-6.796c0.625-2.21,1.674-4.235,3.148-6.077c1.473-1.841,3.241-3.352,5.304-4.53
		c1.548-0.885,3.241-1.454,5.083-1.713c1.841-0.258,3.702-0.312,5.58-0.166c1.879,0.148,3.738,0.497,5.58,1.05
		c1.841,0.553,3.536,1.16,5.083,1.823c1.769,0.812,3.094,1.953,3.979,3.426c0.884,1.474,1.307,2.966,1.271,4.475
		c-0.038,1.511-0.553,2.817-1.547,3.923c-0.995,1.104-2.45,1.657-4.365,1.657c-1.179,0-2.248-0.202-3.204-0.607
		c-0.958-0.404-1.953-0.791-2.983-1.16c-1.326-0.515-2.763-0.865-4.31-1.05c-1.547-0.184-2.8-0.092-3.757,0.276
		c-0.295,0.074-0.627,0.314-0.994,0.718c-0.37,0.406-0.646,0.903-0.829,1.492c-0.185,0.59-0.221,1.179-0.11,1.768
		c0.11,0.591,0.497,1.068,1.16,1.437c1.768,0.958,3.646,1.695,5.636,2.21c1.988,0.517,3.939,1.105,5.856,1.768
		c1.914,0.663,3.701,1.511,5.358,2.542c1.658,1.032,3.039,2.505,4.144,4.42c1.62,2.8,2.448,5.729,2.486,8.784
		c0.036,3.058-0.571,5.912-1.823,8.563c-1.253,2.652-3.094,4.917-5.524,6.796c-2.431,1.878-5.268,3.001-8.509,3.37
		c-2.284,0.221-4.53,0.092-6.74-0.387c-2.21-0.48-4.347-1.254-6.408-2.32c-2.063-1.069-3.979-2.338-5.746-3.812
		c-1.769-1.473-3.315-3.02-4.641-4.641L480.651,803.521z"/>
	<path style="fill:#FFFFFF;stroke:#000000;stroke-width:2;" d="M557.558,797.111c1.841-1.177,3.591-1.693,5.249-1.547
		c1.657,0.148,3.02,0.719,4.088,1.713c1.067,0.994,1.657,2.32,1.769,3.978c0.11,1.658-0.461,3.408-1.713,5.249
		c-0.812,1.254-1.972,2.395-3.48,3.426c-1.511,1.03-2.967,1.84-4.365,2.431c-3.242,1.473-6.52,2.136-9.834,1.989
		c-3.315-0.148-6.392-0.959-9.227-2.432c-2.837-1.473-5.286-3.517-7.348-6.132c-2.063-2.614-3.464-5.653-4.199-9.116
		c-1.475-6.63-1.18-13.001,0.884-19.116c0.81-2.21,1.785-4.346,2.929-6.409c1.141-2.062,2.522-3.939,4.144-5.635
		c1.619-1.694,3.425-3.186,5.414-4.476c1.989-1.288,4.161-2.154,6.52-2.597c1.619-0.293,3.683-0.276,6.188,0.056
		c2.504,0.331,4.953,0.977,7.349,1.934c2.393,0.958,4.492,2.21,6.298,3.757c1.805,1.547,2.817,3.389,3.039,5.524
		c0.146,1.18,0,2.266-0.442,3.26c-0.442,0.995-1.068,1.823-1.878,2.486c-0.812,0.663-1.751,1.124-2.818,1.381
		c-1.068,0.26-2.154,0.24-3.26-0.055c-1.325-0.368-2.375-0.865-3.148-1.492c-0.773-0.625-1.787-1.453-3.039-2.485
		c-0.591-0.147-1.143-0.387-1.657-0.719c-0.517-0.331-1.069-0.459-1.658-0.387l-2.983,0.331c-0.516,0.296-0.994,0.553-1.436,0.774
		c-0.442,0.221-0.885,0.441-1.326,0.662c-2.506,2.506-4.348,5.287-5.525,8.343c-1.179,3.058-1.475,6.354-0.884,9.89
		c0.368,2.284,1.086,4.163,2.154,5.636c1.067,1.474,2.321,2.486,3.758,3.038c1.436,0.553,3.02,0.608,4.751,0.166
		c1.729-0.442,3.442-1.437,5.138-2.983L557.558,797.111z"/>
	<path style="fill:#FFFFFF;stroke:#000000;stroke-width:2;" d="M582.198,776.835c0.072-0.478,0.036-1.343-0.11-2.597
		c-1.18-0.662-2.1-1.509-2.763-2.541c-0.663-1.03-1.05-2.136-1.16-3.314c-0.11-1.178,0.11-2.302,0.663-3.37
		c0.553-1.067,1.453-1.971,2.707-2.708c1.693-0.956,3.553-1.141,5.58-0.552c2.025,0.59,3.774,1.474,5.249,2.651
		c1.84-1.398,3.757-2.577,5.745-3.536c1.989-0.956,4.015-1.602,6.078-1.934c2.062-0.331,4.16-0.276,6.298,0.166
		c2.136,0.442,4.235,1.364,6.299,2.763c1.03,0.663,1.988,1.491,2.872,2.486c0.885,0.994,1.437,2.118,1.658,3.37
		c0.367,1.842,0.221,3.444-0.442,4.807c-0.663,1.363-1.585,2.358-2.763,2.983c-1.179,0.626-2.505,0.812-3.978,0.552
		c-1.475-0.257-2.873-1.049-4.199-2.375c-0.441-0.294-0.756-0.534-0.938-0.719c-0.186-0.183-0.572-0.423-1.161-0.718
		c-1.179-0.294-2.339-0.222-3.48,0.221c-1.143,0.442-2.248,1.05-3.314,1.823c-1.069,0.773-2.063,1.621-2.983,2.541
		c-0.922,0.923-1.751,1.751-2.486,2.486v28.177c0,1.105-0.221,2.174-0.663,3.205c-0.663,1.693-1.713,2.873-3.149,3.535
		c-1.437,0.663-2.873,0.847-4.31,0.553c-1.436-0.295-2.689-1.032-3.757-2.21c-1.068-1.179-1.602-2.688-1.602-4.53v-30.939
		C582.088,777.407,582.124,777.315,582.198,776.835z"/>
	<path style="fill:#FFFFFF;stroke:#000000;stroke-width:2;" d="M621.755,784.515c0.515-2.136,1.232-4.234,2.155-6.298
		c0.92-2.062,2.044-4.033,3.37-5.912c1.325-1.878,2.817-3.591,4.475-5.138s3.442-2.799,5.359-3.757
		c3.388-1.769,6.796-2.669,10.221-2.707c3.426-0.036,6.611,0.646,9.559,2.044c2.945,1.4,5.45,3.48,7.514,6.243
		c2.062,2.763,3.425,6.06,4.088,9.89c0.368,2.505,0.57,4.881,0.608,7.127c0.036,2.248-0.204,4.586-0.719,7.017
		c-0.737,3.463-2.229,6.906-4.475,10.331c-2.248,3.426-4.937,6.299-8.066,8.619c-3.132,2.32-6.558,3.849-10.276,4.586
		c-3.721,0.735-7.459,0.146-11.216-1.769c-1.695-0.812-3.224-1.75-4.586-2.817c-1.363-1.067-2.597-2.338-3.701-3.812
		c-1.254-1.619-2.229-3.314-2.928-5.083c-0.701-1.768-1.271-3.608-1.713-5.524c-0.517-2.062-0.701-4.144-0.553-6.243
		c0.146-2.1,0.404-4.144,0.773-6.133L621.755,784.515z"/>
	<path style="fill:#FFFFFF;stroke:#000000;stroke-width:2;" d="M635.015,786.835c-0.221,1.18-0.405,2.34-0.553,3.481
		c-0.148,1.143-0.148,2.303,0,3.48c0.222,1.695,0.681,3.242,1.382,4.641c0.699,1.4,1.619,2.505,2.762,3.315
		c1.142,0.812,2.448,1.234,3.923,1.271c1.473,0.038,3.057-0.423,4.752-1.382c2.136-1.251,3.978-3.185,5.524-5.801
		c1.547-2.614,2.504-5.34,2.873-8.177c0.368-2.835,0.072-5.524-0.884-8.066c-0.958-2.541-2.837-4.364-5.636-5.47
		c-1.842,0-3.536,0.351-5.083,1.05c-1.547,0.701-2.892,1.621-4.033,2.763c-1.143,1.143-2.137,2.486-2.983,4.033
		C636.211,783.521,635.529,785.142,635.015,786.835z"/>
	<path style="fill:#FFFFFF;stroke:#000000;stroke-width:2;" d="M694.462,812.25c-0.959,1.178-2.063,1.988-3.315,2.431
		c-1.253,0.442-2.541,0.442-3.867,0s-2.431-1.437-3.315-2.983c-0.369-0.591-0.663-1.216-0.884-1.878
		c-0.221-0.663-0.331-1.326-0.331-1.989V778.77c-1.4,0-2.671-0.387-3.812-1.16c-1.143-0.774-1.989-1.73-2.541-2.873
		c-0.553-1.142-0.757-2.357-0.608-3.646c0.147-1.288,0.736-2.486,1.769-3.592c0.735-0.81,1.527-1.343,2.375-1.602
		c0.847-0.258,1.749-0.423,2.708-0.497c-0.074-2.283-0.13-4.531-0.166-6.741c-0.038-2.21,0.128-4.42,0.497-6.629
		c0.442-3.463,1.473-6.409,3.094-8.84c1.62-2.432,3.628-4.311,6.022-5.636c2.393-1.326,5.063-2.1,8.011-2.32
		c2.945-0.222,6.003,0.221,9.172,1.325c1.325,0.442,2.597,0.995,3.812,1.658c1.216,0.662,2.302,1.511,3.26,2.541
		c0.663,0.737,1.142,1.603,1.437,2.598c0.294,0.994,0.349,1.988,0.166,2.982c-0.185,0.994-0.553,1.916-1.105,2.763
		c-0.552,0.848-1.345,1.491-2.375,1.934c-1.4,0.591-2.782,0.737-4.145,0.442c-1.363-0.294-2.707-0.773-4.032-1.437
		c-0.812-0.294-1.585-0.589-2.321-0.884c-0.737-0.294-1.511-0.515-2.32-0.664c-0.812-0.146-1.547-0.035-2.21,0.332
		c-0.663,0.369-1.234,0.867-1.713,1.492c-0.479,0.627-0.848,1.326-1.104,2.1c-0.259,0.773-0.387,1.529-0.387,2.265
		c-0.074,1.695-0.094,3.408-0.056,5.139c0.037,1.731,0.056,3.444,0.056,5.138c1.104-0.072,2.282-0.146,3.536-0.221
		c1.251-0.073,2.486-0.111,3.701-0.111c1.216,0,2.338,0.038,3.37,0.111c1.031,0.074,1.841,0.221,2.432,0.441
		c1.177,0.442,2.136,1.124,2.872,2.045c0.736,0.922,1.216,1.916,1.437,2.983c0.222,1.068,0.128,2.154-0.276,3.259
		c-0.405,1.105-1.123,2.063-2.154,2.873c-0.958,0.737-2.063,1.254-3.314,1.547c-1.254,0.296-2.58,0.498-3.979,0.608
		c-1.4,0.11-2.762,0.148-4.088,0.11c-1.326-0.036-2.506-0.056-3.536-0.056v29.503C696.009,809.672,695.418,811.07,694.462,812.25z"
		/>
	<path style="fill:#FFFFFF;stroke:#000000;stroke-width:2;" d="M764.959,806.062c0.588,2.138,0.478,3.906-0.332,5.305
		c-0.812,1.398-1.934,2.337-3.37,2.817c-1.437,0.479-3.002,0.423-4.696-0.166c-1.695-0.59-3.168-1.768-4.42-3.536
		c-2.062,1.547-4.071,2.634-6.021,3.26c-1.953,0.625-4.182,0.976-6.686,1.05c-3.757,0.146-7.109-0.276-10.055-1.271
		c-2.947-0.994-5.434-2.486-7.459-4.476c-2.027-1.988-3.519-4.475-4.476-7.458c-0.958-2.983-1.289-6.426-0.994-10.332
		c0.146-1.619,0.423-3.204,0.829-4.751c0.403-1.547,0.864-3.056,1.381-4.53c0.589-1.619,1.418-3.352,2.486-5.193
		c1.067-1.841,2.154-3.426,3.26-4.752c3.978-4.861,8.95-8.359,14.917-10.497c1.03-0.367,2.431-0.699,4.199-0.994
		c1.768-0.294,3.553-0.423,5.358-0.387c1.805,0.038,3.536,0.276,5.193,0.718c1.658,0.442,2.891,1.216,3.702,2.321
		c0.663,0.884,1.142,1.657,1.437,2.32c0.293,0.663,0.459,1.363,0.497,2.1c0.036,0.736,0.036,1.529,0,2.375
		c-0.038,0.848-0.056,1.897-0.056,3.149c0,2.063-0.019,4.071-0.055,6.022c-0.038,1.952-0.02,3.922,0.055,5.911
		c0,0.663,0,1.53,0,2.597c0,1.068,0.037,2.192,0.111,3.37c0.072,1.18,0.165,2.304,0.275,3.37c0.111,1.069,0.276,1.934,0.498,2.597
		L764.959,806.062z"/>
	<path style="fill:#FFFFFF;stroke:#000000;stroke-width:2;" d="M741.533,801.09c0.81-0.515,1.729-1.086,2.763-1.713
		c1.03-0.625,1.95-1.344,2.762-2.154c-0.662-3.904-1.049-7.808-1.16-11.713c-0.11-3.904-0.093-7.846,0.056-11.823
		c-3.315,0.59-6.299,2.026-8.95,4.31c-2.652,2.284-4.494,4.972-5.525,8.065c-0.441,1.254-0.812,2.542-1.104,3.868
		c-0.295,1.325-0.406,2.615-0.332,3.867c0.073,1.695,0.515,3.113,1.326,4.254c0.81,1.144,1.785,2.008,2.929,2.597
		c1.141,0.591,2.356,0.922,3.646,0.994C739.23,801.716,740.428,801.531,741.533,801.09z"/>
	<path style="fill:#FFFFFF;stroke:#000000;stroke-width:2;" d="M463.94,906.974c0.772,1.491,1.049,2.996,0.828,4.517
		c-0.221,1.519-1.216,2.638-2.983,3.356c-1.657,0.607-3.246,0.441-4.765-0.497c-1.521-0.94-2.888-2.211-4.103-3.812
		c-1.216-1.604-2.266-3.288-3.149-5.056c-0.884-1.769-1.547-3.204-1.988-4.309c-2.818-6.519-4.338-13.302-4.559-20.346
		s0.69-13.908,2.735-20.594c0.497-1.712,1.16-3.328,1.988-4.849c0.829-1.519,1.658-3.052,2.486-4.599
		c0.497-0.884,1.119-1.989,1.865-3.315c0.745-1.326,1.615-2.514,2.61-3.563c0.994-1.049,2.085-1.795,3.273-2.237
		c1.188-0.441,2.472-0.249,3.854,0.58c1.326,0.828,2.043,1.81,2.154,2.941c0.11,1.134-0.097,2.294-0.621,3.481
		c-0.525,1.188-1.188,2.334-1.989,3.438c-0.802,1.106-1.45,2.045-1.947,2.818c-0.719,1.271-1.313,2.349-1.782,3.231
		c-0.47,0.885-0.856,1.631-1.16,2.238c-0.304,0.608-0.538,1.146-0.704,1.615c-0.166,0.471-0.305,0.926-0.414,1.368
		c-0.829,2.873-1.438,5.953-1.823,9.24c-0.388,3.287-0.497,6.588-0.332,9.903c0.166,3.314,0.663,6.561,1.492,9.737
		c0.828,3.178,2.043,6.091,3.646,8.743c0.275,0.497,0.634,1.007,1.077,1.533c0.441,0.524,0.842,0.994,1.201,1.408
		c0.359,0.415,0.649,0.746,0.871,0.995c0.22,0.248,0.275,0.317,0.165,0.207L463.94,906.974z"/>
	<path style="fill:#FFFFFF;stroke:#000000;stroke-width:2;" d="M471.73,866.863c0.386-1.326,1.007-2.334,1.864-3.025
		c0.856-0.689,1.768-1.09,2.735-1.201c0.966-0.11,1.892,0.056,2.775,0.497c0.884,0.442,1.575,1.133,2.072,2.072
		c0.607-0.332,1.215-0.635,1.823-0.912c0.607-0.275,1.298-0.524,2.071-0.746c3.535-0.938,6.672-0.87,9.406,0.207
		c2.735,1.078,5.014,2.735,6.837,4.973s3.121,4.862,3.896,7.873c0.772,3.012,0.953,6.022,0.538,9.033
		c-0.414,3.012-1.479,5.829-3.19,8.453c-1.713,2.625-4.172,4.655-7.375,6.091c-2.101,0.939-4.297,1.533-6.589,1.782
		c-2.293,0.248-4.572,0.29-6.837,0.124c0,0.055,0.013,0.497,0.041,1.326c0.027,0.828,0.042,1.878,0.042,3.149
		c0,1.27,0,2.651,0,4.144c0,1.491-0.042,2.928-0.124,4.31c-0.083,1.38-0.194,2.61-0.332,3.688c-0.139,1.077-0.346,1.809-0.621,2.196
		c-0.719,1.049-1.604,1.712-2.652,1.988c-1.05,0.276-2.045,0.234-2.983-0.124c-0.94-0.36-1.755-0.967-2.444-1.823
		c-0.691-0.857-1.036-1.893-1.036-3.107v-50.47L471.73,866.863z"/>
	<path style="fill:#FFFFFF;stroke:#000000;stroke-width:2;" d="M482.338,877.637c-0.166,0.277-0.249,0.401-0.249,0.373
		c0-0.027-0.111,0.069-0.331,0.29v13.674c1.104,0.166,2.209,0.249,3.314,0.249c1.104,0,2.266-0.166,3.481-0.498
		c2.485-0.607,4.446-1.809,5.884-3.604c1.436-1.795,1.989-4.02,1.657-6.672c-0.166-1.104-0.484-2.25-0.953-3.438
		c-0.47-1.188-1.092-2.196-1.864-3.025c-0.774-0.828-1.687-1.408-2.735-1.74c-1.05-0.331-2.237-0.22-3.563,0.332
		c-0.939,0.387-1.781,0.967-2.527,1.74C483.705,876.091,483.001,876.863,482.338,877.637z"/>
	<path style="fill:#FFFFFF;stroke:#000000;stroke-width:2;" d="M512.585,851.448c0.221-2.043,0.925-3.549,2.113-4.517
		c1.188-0.966,2.445-1.436,3.771-1.408c1.325,0.028,2.555,0.538,3.688,1.533c1.132,0.994,1.726,2.403,1.781,4.227
		c0.11,1.879-0.372,3.329-1.45,4.351c-1.077,1.022-2.308,1.604-3.688,1.74c-1.382,0.139-2.681-0.234-3.895-1.119
		c-1.217-0.883-1.962-2.292-2.238-4.227L512.585,851.448z"/>
	<path style="fill:#FFFFFF;stroke:#000000;stroke-width:2;" d="M523.524,898.604c-0.111,1.105-0.497,2.086-1.16,2.941
		c-0.663,0.856-1.423,1.478-2.279,1.865c-0.856,0.386-1.781,0.469-2.776,0.248c-0.994-0.221-1.878-0.828-2.651-1.823
		c-0.443-0.553-0.76-1.173-0.953-1.864c-0.194-0.69-0.318-1.409-0.373-2.154c-0.056-0.746-0.069-1.492-0.041-2.238
		c0.027-0.745,0.041-1.422,0.041-2.03c-0.056-3.259-0.069-6.491-0.041-9.696c0.027-3.203,0.013-6.436-0.042-9.695
		c0-1.326-0.083-2.665-0.248-4.02c-0.166-1.354-0.083-2.693,0.248-4.02c0.276-0.994,0.759-1.851,1.45-2.569
		c0.69-0.717,1.464-1.214,2.32-1.491c0.856-0.276,1.741-0.303,2.652-0.083c0.912,0.222,1.699,0.802,2.362,1.74
		c0.883,1.105,1.325,2.196,1.325,3.273s0,2.391,0,3.937c0,1.879,0,3.758,0,5.636c0,1.879,0.027,3.729,0.083,5.552
		c0.055,2.652,0.083,5.305,0.083,7.956c0,2.652,0,5.304,0,7.956V898.604z"/>
	<path style="fill:#FFFFFF;stroke:#000000;stroke-width:2;" d="M535.127,918.244c-0.94-1.16-1.438-2.361-1.492-3.604
		c-0.056-1.243,0.221-2.308,0.829-3.191c0.607-0.884,1.478-1.491,2.61-1.823c1.132-0.331,2.389-0.165,3.771,0.498
		c0.607,0.441,1.16,0.772,1.657,0.994c0.498,0.22,1.188,0.552,2.072,0.994c0.829,0.386,1.768,0.677,2.817,0.87
		c1.049,0.193,2.044,0.234,2.983,0.125c1.878-0.111,3.328-0.429,4.352-0.953c1.021-0.526,1.753-1.216,2.195-2.072
		c0.442-0.857,0.705-1.906,0.788-3.149c0.083-1.242,0.124-2.639,0.124-4.185c-1.769,0.607-3.536,1.063-5.304,1.367
		c-1.769,0.303-3.592,0.345-5.47,0.124c-3.646-0.442-6.645-1.74-8.992-3.895c-2.349-2.154-4.061-4.724-5.138-7.707
		s-1.521-6.174-1.326-9.572c0.193-3.397,0.98-6.532,2.362-9.406c0.828-1.657,1.96-3.19,3.397-4.599
		c1.437-1.409,3.052-2.569,4.848-3.481c1.795-0.911,3.674-1.504,5.636-1.781c1.961-0.276,3.854-0.11,5.677,0.497
		c1.049,0.388,2.072,0.774,3.066,1.16c0.994,0.388,1.961,0.885,2.9,1.492c1.049-0.939,2.279-1.409,3.688-1.409
		c1.408,0,2.61,0.663,3.604,1.989c0.22,0.331,0.469,0.704,0.746,1.118c0.275,0.415,0.414,0.816,0.414,1.202
		c0.055,5.912,0.068,11.81,0.042,17.693c-0.029,5.884-0.042,11.782-0.042,17.693c0,2.375-0.318,4.585-0.953,6.63
		c-0.636,2.043-1.589,3.854-2.859,5.428c-1.271,1.575-2.846,2.859-4.724,3.854c-1.879,0.995-4.061,1.629-6.547,1.906
		c-1.271,0.11-2.515,0.166-3.729,0.166c-1.216,0-2.459-0.139-3.729-0.414c-1.77-0.332-3.468-0.885-5.097-1.658
		c-1.631-0.774-3.247-1.63-4.849-2.568L535.127,918.244z"/>
	<path style="fill:#FFFFFF;stroke:#000000;stroke-width:2;" d="M544.905,892.968c2.431,1.16,4.669,1.533,6.713,1.119
		s4.115-1.339,6.216-2.776v-13.177c-1.604-1.602-3.163-2.721-4.683-3.356c-1.52-0.635-3.329-0.814-5.428-0.539
		c-0.388,0.222-0.761,0.415-1.119,0.581c-0.359,0.165-0.732,0.331-1.118,0.497c-1.161,1.325-2.045,2.61-2.652,3.854
		c-0.608,1.243-0.968,2.515-1.077,3.812c-0.111,1.299-0.015,2.625,0.29,3.979c0.303,1.354,0.759,2.832,1.367,4.434
		c0.166,0.277,0.414,0.553,0.746,0.829C544.491,892.499,544.74,892.748,544.905,892.968z"/>
	<path style="fill:#FFFFFF;stroke:#000000;stroke-width:2;" d="M578.054,905.896c0.441-0.443,0.842-0.843,1.201-1.202
		s0.718-0.719,1.077-1.077c0.359-0.36,0.705-0.76,1.036-1.201c0.332-0.443,0.69-0.968,1.077-1.575
		c1.603-2.596,2.818-5.553,3.646-8.867c0.829-3.315,1.326-6.726,1.492-10.235c0.166-3.508,0.027-6.961-0.414-10.358
		c-0.443-3.398-1.189-6.506-2.238-9.323c-0.719-1.934-1.616-3.757-2.693-5.47c-1.077-1.712-2.169-3.397-3.273-5.056
		c-0.497-0.717-0.981-1.422-1.45-2.113c-0.47-0.689-0.732-1.504-0.787-2.444c-0.056-1.437,0.29-2.623,1.036-3.563
		c0.745-0.938,1.643-1.533,2.693-1.782c1.049-0.248,2.126-0.151,3.231,0.29c1.104,0.443,1.989,1.299,2.652,2.569
		c1.215,1.713,2.375,3.453,3.48,5.221c1.104,1.77,2.126,3.563,3.066,5.387c1.546,2.983,2.721,6.216,3.522,9.696
		c0.8,3.48,1.27,7.044,1.408,10.69c0.138,3.646-0.041,7.252-0.538,10.815c-0.498,3.563-1.243,6.893-2.238,9.986
		c-0.884,2.651-1.947,5.316-3.19,7.997c-1.243,2.679-2.832,5.041-4.765,7.086c-0.829,0.883-1.77,1.712-2.818,2.485
		c-1.05,0.773-2.21,1.161-3.48,1.161c-1.16,0-2.113-0.249-2.859-0.746c-0.745-0.497-1.271-1.133-1.574-1.906
		c-0.305-0.774-0.401-1.616-0.29-2.527c0.11-0.912,0.386-1.811,0.829-2.693L578.054,905.896z"/>
	<path style="fill:#FFFFFF;stroke:#000000;stroke-width:2;" d="M646.896,444.615c-2.58-6.992-3.409-13.993-2.486-20.995
		c0.916-6.992,3.315-12.983,7.184-17.955c3.867-4.973,8.926-8.469,15.193-10.497c6.258-2.021,13.26-1.382,20.994,1.934
		c6.992,2.952,12.982,7.277,17.955,12.983c4.973,5.715,10.955,10.221,17.956,13.535c9.573,4.792,19.337,8.288,29.282,10.498
		c6.992,1.847,13.993,3.038,20.994,3.591c6.992,0.553,14.175,0.829,21.547,0.829c5.525-1.468,10.308-2.944,14.365-4.42
		c4.049-1.468,8.469-4.602,13.26-9.393c5.524-4.782,9.115-10.497,10.773-17.127c1.656-6.63,1.656-13.165,0-19.613
		c-1.658-6.44-4.791-12.336-9.393-17.68c-4.609-5.335-10.221-8.926-16.852-10.773c-12.896-4.42-25.785-7.821-38.674-10.221
		c-12.896-2.392-25.414-5.249-37.568-8.563c-12.155-3.315-23.671-8.012-34.531-14.089c-10.868-6.077-20.908-14.822-30.109-26.243
		c-5.163-6.259-8.479-11.783-9.945-16.574c-1.477-4.782-3.134-10.86-4.973-18.232c-3.314-17.679-1.934-32.597,4.145-44.751
		c6.076-12.154,13.717-23.204,22.928-33.149c11.783-12.889,25.138-22.738,40.055-29.558c14.918-6.811,30.568-11.231,46.961-13.26
		c16.385-2.02,32.96-1.657,49.725,1.105c16.756,2.763,32.684,7.458,47.79,14.088c8.84,3.686,14.45,9.393,16.851,17.127
		c2.391,7.734,2.486,15.288,0.276,22.652c-2.21,7.372-6.448,13.45-12.707,18.232c-6.268,4.791-13.631,6.449-22.1,4.972
		c-8.84-1.838-17.127-3.772-24.862-5.801c-7.734-2.02-15.469-3.772-23.204-5.249c-5.896-1.105-12.249-1.287-19.061-0.553
		c-6.819,0.742-13.26,1.934-19.337,3.591c-6.078,1.657-11.697,3.505-16.852,5.525c-5.162,2.028-9.029,4.144-11.602,6.354
		c-2.953,2.581-5.801,5.896-8.563,9.945c-2.763,4.057-4.334,8.658-4.696,13.812c-0.742,6.267,1.657,11.421,7.182,15.47
		c5.525,4.058,11.413,7.001,17.68,8.84c12.155,2.581,24.672,5.067,37.57,7.458c12.888,2.4,25.595,5.715,38.121,9.945
		c12.518,4.238,24.215,9.668,35.082,16.298c10.86,6.63,20.166,15.47,27.9,26.52c8.469,9.582,14.547,20.442,18.232,32.597
		c3.678,12.155,5.059,24.31,4.145,36.464c-0.924,12.155-3.781,23.853-8.564,35.083c-4.791,11.24-11.42,21.09-19.889,29.559
		c-5.896,5.896-12.068,10.963-18.509,15.193c-6.448,4.229-13.354,8.373-20.718,12.431c-14.736,7.734-30.577,11.603-47.514,11.603
		c-16.946,0-33.893-2.486-50.829-7.459c-16.946-4.973-32.968-11.974-48.066-20.994c-15.106-9.021-27.995-18.871-38.675-29.559
		L646.896,444.615z"/>
</g>
</svg>
