<?xml version="1.0" encoding="utf-8"?>
<!-- Generator: Adobe Illustrator 16.0.0, SVG Export Plug-In . SVG Version: 6.00 Build 0)  -->
<!DOCTYPE svg PUBLIC "-//W3C//DTD SVG 1.1//EN" "http://www.w3.org/Graphics/SVG/1.1/DTD/svg11.dtd">
<svg version="1.1" xmlns="http://www.w3.org/2000/svg" xmlns:xlink="http://www.w3.org/1999/xlink" x="0px" y="0px" width="100%"
     height="100%" viewBox="0 0 1000 1000" style="enable-background:new 0 0 1000 1000;" xml:space="preserve">
  <rect style="fill:#FFFFFF;" width="1000" height="1000"/>
    
<g id="Layer_1">
	<path style="fill:#FFFFFF;stroke:#000000;stroke-width:2;" d="M168.813,778.332c3.705,1.563,7.287,8.285,2.704,11.021
		c-4.826,2.883-12.81,1.385-18.186,1.385c0,8.404,5.126,55.551-6.203,54.543c-12.025-1.076-6.305-45.314-6.305-54.543
		c-5.276,0-10.754,0.701-15.917-0.781c-6.1-1.753-5.925-9.779,0.333-11.522C139.564,777.584,154.554,777.442,168.813,778.332z"/>
	<path style="fill:#FFFFFF;stroke:#000000;stroke-width:2;" d="M203.877,827.647c7.842-1.961,10.634,6.201,4.87,10.843
		c-6.037,4.859-16.939,7.239-24.503,5.869c-16.545-3.015-21.549-22.983-15.225-36.603c6.715-13.824,35.347-20.469,40.19-1.742
		c4.189,16.249-17.862,19.639-28.502,23.068C186.846,836.096,197.329,831.319,203.877,827.647z"/>
	<path style="fill:#FFFFFF;stroke:#000000;stroke-width:2;" d="M183.167,810.013c-3.415,1.929-4.597,5.21-5.126,8.92
		c3.377-1.038,19.377-3.511,19.377-8.612C197.418,803.84,186.106,808.168,183.167,810.013z"/>
	<path style="fill:#FFFFFF;stroke:#000000;stroke-width:2;" d="M222.64,809.757c0.686-4.522-5.932-5.548-3.127-10.971
		c2.126-4.106,6.866-3.741,10.316-1.998c6.543,3.307,15.216-7.489,24.902-0.924c4.087,2.63,6.848,9.68,1.23,12.662
		c-4.025,2.139-6.392-1.452-9.535-3.024c-8.812-2.194-11.38,7.375-11.38,13.34c0,6.031,0,12.063,0,18.095
		c0,8.936-12.508,11.1-12.508,1.783C220.165,831.845,221.521,816.99,222.64,809.757C222.707,809.312,222.571,810.202,222.64,809.757
		z"/>
	<path style="fill:#FFFFFF;stroke:#000000;stroke-width:2;" d="M268.159,809.757c0.686-4.522-5.932-5.548-3.127-10.971
		c2.126-4.106,6.866-3.741,10.316-1.998c6.543,3.307,15.216-7.489,24.902-0.924c4.087,2.63,6.848,9.68,1.23,12.662
		c-4.025,2.139-6.392-1.452-9.535-3.024c-8.812-2.194-11.38,7.375-11.38,13.34c0,6.031,0,12.063,0,18.095
		c0,8.936-12.508,11.1-12.508,1.783C265.685,831.845,267.041,816.99,268.159,809.757
		C268.227,809.312,268.09,810.202,268.159,809.757z"/>
	<path style="fill:#FFFFFF;stroke:#000000;stroke-width:2;" d="M346.386,836.875c2.199,7.979-7.804,9.875-11.893,4.101
		c-5.92,4.44-14.173,5.165-21.12,2.819c-16.642-5.616-13.808-27.465-4.614-38.498c8.547-10.447,32.706-18.689,32.706,1.025
		C341.465,818.013,341.301,826.449,346.386,836.875z"/>
	<path style="fill:#FFFFFF;stroke:#000000;stroke-width:2;" d="M324.651,832.261c8.158-5.185,3.758-16.222,4.101-25.427
		C313.628,809.528,309.798,838.202,324.651,832.261C325.402,831.783,323.625,832.671,324.651,832.261z"/>
	<path style="fill:#FFFFFF;stroke:#000000;stroke-width:2;" d="M354.484,799.247c0.773-2.657,2.724-4.888,5.69-5.229
		c2.657-0.199,4.656,0.86,5.998,3.179c1.525-0.873,3.131-1.557,4.818-2.051c8.928-2.37,17.471,1.437,22.134,9.336
		c12.016,20.354-4.784,39.909-26.235,38.339c0,6.857,0.407,13.727-0.461,20.557c-1.004,7.779-12.047,6.395-12.047-1.236
		c0-5.895,0-11.789,0-17.684C354.382,829.455,353.623,814.218,354.484,799.247z"/>
	<path style="fill:#FFFFFF;stroke:#000000;stroke-width:2;" d="M367.607,812.576c-1.213,2.027-2.355,16.147-0.718,17.736
		C394.335,834.431,382.574,795.114,367.607,812.576C367.402,812.919,368.428,811.619,367.607,812.576z"/>
	<path style="fill:#FFFFFF;stroke:#000000;stroke-width:2;" d="M442.758,827.647c7.842-1.961,10.634,6.201,4.87,10.843
		c-6.037,4.859-16.939,7.239-24.503,5.869c-16.545-3.015-21.549-22.983-15.225-36.603c6.715-13.824,35.347-20.469,40.19-1.742
		c4.189,16.249-17.862,19.639-28.502,23.068C425.727,836.096,436.209,831.319,442.758,827.647z"/>
	<path style="fill:#FFFFFF;stroke:#000000;stroke-width:2;" d="M422.048,810.013c-3.415,1.929-4.597,5.21-5.126,8.92
		c3.377-1.038,19.377-3.511,19.377-8.612C436.299,803.84,424.987,808.168,422.048,810.013z"/>
	<path style="fill:#FFFFFF;stroke:#000000;stroke-width:2;" d="M497.507,838.72c-0.573,4.774-7.311,9.24-10.919,4.383
		c-2.883-3.881-1.589-9.587-1.589-14.02c0-7.972,4.201-31.667-10.56-20.198c-6.349,5.162-4.819,12.76-4.819,20.037
		c0,4.198,1.042,9.19-1.23,12.977c-3.295,5.492-10.104,1.536-10.97-3.229c-2.193-12.062-0.308-25.961-0.308-38.191
		c0-6.603,8.53-7.466,11.585-2.768c6.351-4.13,15.571-5.776,22.299-1.513C501.812,803.052,497.507,827.82,497.507,838.72z"/>
	<path style="fill:#FFFFFF;stroke:#000000;stroke-width:2;" d="M544.463,827.647c7.845-1.964,10.631,6.202,4.869,10.843
		c-6.036,4.86-16.939,7.239-24.504,5.869c-16.544-3.014-21.551-22.984-15.225-36.603c6.71-13.821,35.354-20.472,40.189-1.742
		c4.193,16.249-17.864,19.639-28.502,23.068C527.432,836.096,537.914,831.318,544.463,827.647z"/>
	<path style="fill:#FFFFFF;stroke:#000000;stroke-width:2;" d="M523.752,810.013c-3.414,1.929-4.597,5.21-5.127,8.92
		c3.378-1.037,19.378-3.511,19.378-8.612C538.003,803.839,526.69,808.169,523.752,810.013z"/>
	<path style="fill:#FFFFFF;stroke:#000000;stroke-width:2;" d="M624.534,828.57c8.882-5.686,13.513,6.408,5.485,11.893
		c-10.114,6.896-24.095,4.623-30.264-6.401c-7.675-13.715,0.009-41.735,18.831-41.567c6.252,0.056,17.86,2.921,18.66,10.649
		c1.684,13.47-13.332,1.442-16.609,1.846C601.647,803.198,609.058,844.957,624.534,828.57z"/>
	<path style="fill:#FFFFFF;stroke:#000000;stroke-width:2;" d="M685.639,836.875c2.197,7.978-7.806,9.877-11.894,4.101
		c-5.92,4.439-14.173,5.166-21.12,2.819c-16.643-5.617-13.809-27.464-4.613-38.498c8.547-10.448,32.705-18.688,32.705,1.025
		C680.717,818.013,680.553,826.45,685.639,836.875z"/>
	<path style="fill:#FFFFFF;stroke:#000000;stroke-width:2;" d="M663.902,832.261c8.159-5.182,3.758-16.224,4.102-25.427
		C652.875,809.528,649.058,838.204,663.902,832.261C664.654,831.783,662.878,832.671,663.902,832.261z"/>
	<path style="fill:#FFFFFF;stroke:#000000;stroke-width:2;" d="M694.353,809.757c0.686-4.522-5.933-5.547-3.127-10.971
		c2.126-4.106,6.866-3.741,10.316-1.998c6.543,3.307,15.216-7.491,24.901-0.924c4.087,2.63,6.847,9.679,1.23,12.662
		c-4.025,2.137-6.393-1.45-9.535-3.024c-8.812-2.195-11.381,7.376-11.381,13.34c0,6.031,0,12.063,0,18.095
		c0,8.936-12.508,11.1-12.508,1.783C691.881,831.852,693.228,816.982,694.353,809.757
		C694.42,809.312,694.283,810.202,694.353,809.757z"/>
	<path style="fill:#FFFFFF;stroke:#000000;stroke-width:2;" d="M731.057,816.882c3.021-12.564,14.308-24.646,28.335-21.646
		c13.332,2.853,17.449,17.643,14.931,29.54c-2.478,11.649-15.107,25.141-28.098,21.564
		C733.085,842.725,728.5,828.999,731.057,816.882z"/>
	<path style="fill:#FFFFFF;stroke:#000000;stroke-width:2;" d="M743.359,819.035c-2.96,15.788,13.002,19.58,18.25,4.64
		C767.551,806.761,748.434,802.339,743.359,819.035C743.154,820.129,743.837,817.464,743.359,819.035z"/>
	<path style="fill:#FFFFFF;stroke:#000000;stroke-width:2;" d="M795.236,835.029c8.637,7.852-3.619,14.397-10.919,7.638
		c-2.853-2.644-2.409-5.717-2.409-9.14c0-12.999,0-25.998,0-38.996c0-4.665-1.783-27.341,10.15-18.403
		c5.986,4.496,2.461,24.909,2.461,31.476C794.52,814.41,791.752,829.647,795.236,835.029z"/>
	<path style="fill:#FFFFFF;stroke:#000000;stroke-width:2;" d="M806.208,780.178c0.972-9.013,13.754-9.735,14.047-0.205
		C820.816,789.592,806.64,789.797,806.208,780.178z"/>
	<path style="fill:#FFFFFF;stroke:#000000;stroke-width:2;" d="M819.742,838.515c-0.541,5.375-7.184,8.874-10.971,3.999
		c-2.272-2.84-1.641-6.911-1.641-10.253c-0.173-10.173-2.55-24.153-0.103-33.936c1.274-4.589,7.569-7.644,10.868-2.974
		c2.589,3.241,1.641,8.613,1.641,12.406C819.537,818.011,819.742,828.261,819.742,838.515z"/>
	<path style="fill:#FFFFFF;stroke:#000000;stroke-width:2;" d="M872.029,838.72c-0.572,4.774-7.312,9.241-10.919,4.383
		c-2.883-3.882-1.589-9.586-1.589-14.02c0-7.972,4.2-31.667-10.561-20.198c-6.349,5.164-4.818,12.759-4.818,20.037
		c0,4.198,1.041,9.189-1.23,12.977c-3.295,5.492-10.104,1.536-10.971-3.229c-2.193-12.062-0.308-25.961-0.308-38.191
		c0-6.604,8.529-7.465,11.586-2.768c6.35-4.13,15.571-5.776,22.299-1.513C876.335,803.053,872.029,827.82,872.029,838.72z"/>
	<path style="fill:#FFFFFF;stroke:#000000;stroke-width:2;" d="M925.138,836.875c2.197,7.978-7.806,9.877-11.894,4.101
		c-5.92,4.439-14.173,5.166-21.12,2.819c-16.643-5.617-13.809-27.464-4.613-38.498c8.547-10.448,32.705-18.688,32.705,1.025
		C920.216,818.013,920.052,826.45,925.138,836.875z"/>
	<path style="fill:#FFFFFF;stroke:#000000;stroke-width:2;" d="M903.401,832.261c8.159-5.182,3.759-16.224,4.102-25.427
		C892.374,809.528,888.557,838.204,903.401,832.261C904.153,831.783,902.377,832.671,903.401,832.261z"/>
	<path style="fill:#FFFFFF;stroke:#000000;stroke-width:2;" d="M352.408,930.507c3.47,6.694-3.989,9.433-8.43,5.306
		c-5.247-4.875-8.073-13.205-9.583-19.944c-2.626-11.722-1.648-40.615,12.668-45.954c9.613-3.578,2.729,10.152,1.346,12.303
		c-3.048,5.396-4.722,10.146-5.459,16.417C341.647,909.711,343.223,923.049,352.408,930.507z"/>
	<path style="fill:#FFFFFF;stroke:#000000;stroke-width:2;" d="M374.862,926.893c-9.118,0.312-14.226-0.248-14.226-8.695
		c0-6.509,0-13.017,0-19.525c0-6.508,0-13.016,0-19.524c0-5.408,7.9-6.577,9.227-1.083c1.133,5.113,0.773,10.419,0.539,15.61
		C395.484,879.714,403.236,926.024,374.862,926.893C373.374,926.943,376.553,926.841,374.862,926.893z"/>
	<path style="fill:#FFFFFF;stroke:#000000;stroke-width:2;" d="M370.017,907.208c0,1.644-1.023,8.149,0,9.228
		c3.394,3.41,10.096,0.015,12.611-2.691C387.275,901.358,377.61,896.119,370.017,907.208z"/>
	<path style="fill:#FFFFFF;stroke:#000000;stroke-width:2;" d="M398.16,906.516c5.754-23.863,37.789-19.309,32.45,5.921
		C425.562,936.145,392.199,931.118,398.16,906.516z"/>
	<path style="fill:#FFFFFF;stroke:#000000;stroke-width:2;" d="M407.387,908.131c-2.22,11.842,9.751,14.685,13.687,3.479
		C425.53,898.925,411.19,895.608,407.387,908.131C407.233,908.951,407.745,906.952,407.387,908.131z"/>
	<path style="fill:#FFFFFF;stroke:#000000;stroke-width:2;" d="M460.445,889.753c5.921-3.848,10.361,3.386,5.382,7.843
		c-3.225,2.887-6.158,6.111-9.073,9.305c2.378,2.764,4.675,5.609,6.785,8.584c2.299,3.239,7.936,10.007,1.52,12.677
		c-5.819,2.426-11.534-10.469-14.457-14.033c-2.979,3.627-8.62,16.446-14.879,13.227c-5.596-2.88,0.862-10.478,2.922-13.227
		c3.485-4.644,7.116-5.623,2.922-10.149c-2.811-3.017-11.965-9.326-6.536-13.88c5.122-4.305,12.964,6.677,15.571,9.65
		C453.686,896.24,457.015,892.916,460.445,889.753z"/>
	<path style="fill:#FFFFFF;stroke:#000000;stroke-width:2;" d="M508.733,899.288c-8.644-2.155-2.65-9.305,3.46-9.305
		c0-3.877-1.999-15.533,4.807-15.187c7.037,0.359,4.574,11.219,4.574,15.187c4.052-0.563,10.987-0.351,10.111,5.613
		c-0.645,4.393-7.208,3.768-10.111,3.768c0,5.64-0.102,11.278,0,16.917c0,2.898,1.226,7.368-1.384,9.65
		c-2.429,2.124-6.906,0.989-7.574-2.269C511.54,918.474,515.41,897.634,508.733,899.288z"/>
	<path style="fill:#FFFFFF;stroke:#000000;stroke-width:2;" d="M569.479,918.896c4.561,6.586-4.736,9.366-8.92,3.384
		c-6.342,5.204-15.218,5.526-20.704-1.125c-5.187-6.286-4.284-15.029-3.824-22.636c0.308-4.108,2.893-12.66,8.496-6.574
		c4.111,4.479-0.695,16.015,1.769,21.876c1.857,4.426,6.505,3.318,9.112,0.539c3.421-3.926,1.623-8.342,1.769-13.38
		c0-4.419,6.417-17.259,9.611-7.689C569.559,901.613,563.643,910.659,569.479,918.896
		C569.941,919.562,568.607,917.665,569.479,918.896z"/>
	<path style="fill:#FFFFFF;stroke:#000000;stroke-width:2;" d="M577.859,901.172c0.305-2.001-7.128-13.564,3.422-10.496
		c6.202,1.806,5.506-0.938,11.88-1.961c4.013-0.645,11.07,1.293,11.919,6.113c1.95,9.766-17.916-2.265-17.916,11.653
		c0,4.773,0,9.546,0,14.319c0,6.501-9.382,10.068-9.382,2.094C575.777,918.391,577.093,906.118,577.859,901.172
		C577.91,900.839,577.808,901.506,577.859,901.172z"/>
	<path style="fill:#FFFFFF;stroke:#000000;stroke-width:2;" d="M613.537,899.288c-8.645-2.155-2.651-9.305,3.46-9.305
		c0-3.875-1.999-15.533,4.806-15.187c7.038,0.359,4.575,11.218,4.575,15.187c4.056-0.563,10.981-0.351,10.112,5.613
		c-0.649,4.392-7.205,3.768-10.112,3.768c0,5.639-0.104,11.278,0,16.917c0,2.898,1.226,7.368-1.384,9.65
		c-2.429,2.124-6.906,0.989-7.574-2.269C616.35,918.473,620.209,897.635,613.537,899.288z"/>
	<path style="fill:#FFFFFF;stroke:#000000;stroke-width:2;" d="M652.522,920.126c8.111,7.38-9.996,12.229-9.996-0.144
		c0-10.411,0-20.823,0-31.234c0-3.073,0-6.146,0-9.218c0-5.896,9.381-6.017,9.381-0.62
		C651.907,891.255,648.964,908.929,652.522,920.126z"/>
	<path style="fill:#FFFFFF;stroke:#000000;stroke-width:2;" d="M687.509,914.59c7.257-1.814,7.394,6.375,2.076,9.15
		c-4.915,2.563-11.233,4.395-16.801,3.383c-11.571-2.101-15.478-15.165-12.304-25.163c3.02-9.511,18.459-16.485,26.942-9.813
		c15.941,12.539-9.117,20.887-17.292,23.52C674.669,920.85,682.799,917.482,687.509,914.59z"/>
	<path style="fill:#FFFFFF;stroke:#000000;stroke-width:2;" d="M671.977,901.364c-2.675,1.51-3.448,3.911-3.845,6.689
		c2.752-0.848,15.954-2.763,14.341-7.651C681.336,897.019,673.877,900.087,671.977,901.364z"/>
	<path style="fill:#FFFFFF;stroke:#000000;stroke-width:2;" d="M696.353,929.507c9.3-9.3,10.602-24.178,7.632-36.554
		c-1.445-6.019-4.717-10.81-8.131-15.85c-4.824-7.08,5.838-8.176,9.842-2.172c9.086,13.627,11.477,29.928,6.421,45.656
		c-1.794,5.38-5.893,17.378-13.226,17.378C693.798,937.966,693.596,932.379,696.353,929.507z"/>
	<path style="fill:#FFFFFF;stroke:#000000;stroke-width:2;" d="M874.477,118.939c21.692,9.159,39.945,48.607,11.263,61.082
		c-27.71,12.051-65.359,5.769-94.688,5.769c0,55.142,0.641,110.279,0.728,165.419c0.041,26.19-0.112,52.38-0.428,78.567
		c-0.275,22.851,0.645,49.5-29.636,50.081c-24.197,0.464-37.38-17.635-37.561-39.83c-0.236-28.882-0.39-57.765-0.461-86.647
		c-0.137-55.863-0.046-111.727-0.046-167.59c-29.629,0-61.385,4.485-89.995-5.554c-15.13-5.309-24.358-17.006-19.674-33.673
		c5.15-18.284,18.646-26.762,36.569-27.671c37.233-1.89,74.366-1.269,111.621-0.829c20.233,0.239,40.471,0.394,60.705,0.313
		c8.85-0.035,17.694-0.219,26.542-0.364C856.946,117.889,867.463,115.806,874.477,118.939z"/>
</g>
<g id="Layer_2">
	<path style="fill:#FFFFFF;stroke:#1D1D1B;stroke-width:2;stroke-miterlimit:10;" d="M169.746,462.295
		c-10.377-6.19-21.895-10.231-32.501-16.017c-10.608-5.787-20.676-13.849-25.169-25.066c-6.203,16.506-0.256,35.608,10.671,49.447
		c10.925,13.841,26.175,23.479,41.117,32.844L169.746,462.295z"/>
		<path style="fill:#FFFFFF;stroke:#1D1D1B;stroke-width:2;stroke-miterlimit:10;" d="M511.928,658.161
			c2.729,2.026,6.227,2.638,9.601,3.063c7.84,1.002,15.759,1.289,23.646,0.892c7.49-0.378,14.949-1.369,22.279-2.963
			c5.409-1.173,10.745-2.67,15.97-4.483c7.185-2.486,14.157-5.574,20.815-9.241c1.713-0.934,3.406-1.914,5.073-2.931
			c1.851-1.128,3.758-2.391,4.705-4.333c1.325-2.709,0.435-5.931-0.476-8.805c-15.187-47.922-32.265-98.702-71.419-130.228
			l-52.134,19.439c5.118-1.486,10.099,2.692,13.263,6.981c11.529,15.643,13.903,36.333,12.289,55.699
			c-1.616,19.367-6.783,38.288-8.749,57.623C506.086,645.813,506.328,654.007,511.928,658.161z"/>
		<path style="fill:#FFFFFF;stroke:#1D1D1B;stroke-width:2;stroke-miterlimit:10;" d="M583.423,654.67
			c7.185-2.486,14.157-5.574,20.815-9.241c-1.131-5.422-3.388-10.614-6.623-15.121c-0.938-1.302-2.109-2.648-3.702-2.881
			c-1.052-0.154-2.107,0.216-3.059,0.68c-6.026,2.944-9.312,9.958-9.309,16.666C581.549,648.164,582.262,651.479,583.423,654.67z"/>
		<path style="fill:#FFFFFF;stroke:#1D1D1B;stroke-width:2;stroke-miterlimit:10;" d="M545.174,662.116
			c7.49-0.378,14.949-1.369,22.279-2.963c-0.789-6.651-3.27-13.101-7.18-18.541c-0.939-1.305-2.114-2.651-3.707-2.882
			c-1.045-0.154-2.102,0.212-3.061,0.68c-6.023,2.943-9.306,9.958-9.301,16.666C544.203,657.465,544.559,659.819,545.174,662.116z"
			/>
	<path style="fill:#FFFFFF;stroke:#1D1D1B;stroke-width:2;stroke-miterlimit:10;" d="M312.93,543.248
		c38.457,6.269,78.172,7.107,116.52-0.404c23.987-4.699,65.323-38.169,87.228-15.729c2.935,3.008,5.53,6.516,6.579,10.587
		c6.167,23.926-12.482,52.649-33.422,61.853c-14.667,6.445-31.094,7.402-47.111,7.672c-71.495,1.213-143.177-9.448-211.226-31.415
		c-19.36-6.25-38.734-13.572-54.988-25.806c-15.93-11.992-27.722-32.38-20.453-50.946c-0.982-0.982-1.964-1.964-2.947-2.946
		C203.375,517.014,259.199,534.494,312.93,543.248z"/>
	<path style="fill:#FFFFFF;stroke:#1D1D1B;stroke-width:2;stroke-miterlimit:10;" d="M315.123,717.249
		c2.381,3.47,6.23,5.589,10.006,7.443c8.777,4.322,17.934,7.844,27.33,10.546c8.92,2.569,18.052,4.406,27.276,5.483
		c6.805,0.803,13.654,1.194,20.498,1.171c9.412-0.026,18.818-0.84,28.086-2.454c2.381-0.408,4.757-0.872,7.12-1.394
		c2.616-0.577,5.36-1.289,7.25-3.184c2.641-2.643,2.892-6.771,2.979-10.502c1.478-62.212,1.891-128.527-31.283-181.175
		l-68.853,1.806c6.588,0.319,10.742,7.213,12.719,13.508c7.217,22.95,1.68,48.125-7.992,70.153
		c-9.676,22.025-23.33,42.104-33.403,63.951C313.244,700.441,310.233,710.133,315.123,717.249z"/>
	<path style="fill:#FFFFFF;stroke:#1D1D1B;stroke-width:2;stroke-miterlimit:10;" d="M136.087,649.713
		c0.55,4.938,1.438,10.046,4.325,14.091c0.56,0.779,1.179,1.507,1.846,2.18c2.701,2.735,6.216,4.664,9.716,6.318
		c2.783,1.315,5.626,2.513,8.513,3.582c4.8,1.793,9.731,3.235,14.738,4.336c5.513,1.208,11.115,1.999,16.746,2.357h0.004
		c9.034,0.577,18.125,0.057,27.021-1.606c3.477-0.647,7.257-1.694,9.196-4.65c1.282-1.952,1.503-4.401,1.542-6.738
		c0.402-23.32-13.466-44.651-15.853-67.854c-2.327-22.661,7.266-46.211,24.762-60.798l-43.133-22.485
		C154.188,547.318,130.515,599.613,136.087,649.713z"/>
	<path style="fill:#FFFFFF;stroke:#1D1D1B;stroke-width:2;stroke-miterlimit:10;" d="M566.479,518.804
		c8.587-66.282-9.241-136.413-51.831-187.921c-42.59-51.51-110.168-82.54-176.786-77.132
		c-66.616,5.407-129.781,48.82-155.054,110.693c-11.417,27.955-12.694,56.333-9.992,85.98c2.087,22.907-1.411,45.488,18.012,62.752
		c7.865,6.992,18.102,10.609,28.151,13.731c26.266,8.154,53.491,14.295,80.085,20.913c26.786,6.662,58.148,4.709,85.938,5.829
		c53.554,2.156,107.507-6.016,158.02-23.939L566.479,518.804z"/>
	<path style="fill:#FFFFFF;stroke:#1D1D1B;stroke-width:2;stroke-miterlimit:10;" d="M529.955,335.077
		c-6.886-8.594-15.133-15.198-25.277-17.764c-33.992-8.598-64.816,26.617-71.957,55.73c-4.096,16.705-4.196,34.093-4.273,51.292
		c-0.093,20.659-0.185,41.317-0.277,61.977c-0.039,8.45-0.032,17.153,3.119,24.997c3.15,7.843,10.247,14.719,18.696,14.969
		c6.742,0.202,12.816-3.668,18.829-6.724c25.744-13.098,55.93-12.591,84.565-16.395c5.243-0.695,10.755-1.669,14.812-5.067
		c3-2.511,4.885-6.098,6.334-9.73c11.816-29.6-1.3-62.712-14.26-91.829C552.843,379.854,544.388,353.092,529.955,335.077z"/>
	<path style="fill:#FFFFFF;stroke:#1D1D1B;stroke-width:2;stroke-miterlimit:10;" d="M243.344,369.434
		c-0.574,5.79-2.221,11.412-3.859,16.996c-10.122,34.507-20.243,69.014-30.364,103.521c-1.933,6.593-4.381,13.849-10.419,17.131
		c-7.655,4.161-17.318-0.243-23.52-6.362c-13.777-13.598-17.849-34.184-18.681-53.524c-1.691-39.252,7.354-78.914,25.898-113.551
		c9.634-17.995,21.161-38.213,39.798-18.537C235.072,328.7,245.219,350.526,243.344,369.434z"/>
	<path style="fill:#FFFFFF;stroke:#1D1D1B;stroke-width:2;stroke-miterlimit:10;" d="M302.108,377.42
		c-9.028-0.596-18.333-1.131-26.898,1.786c-15.822,5.389-25.626,21.343-30.814,37.23c-5,15.31-6.938,31.423-8.848,47.415
		c-1.565,13.1-3.132,26.201-4.698,39.303c-0.73,6.119-1.442,12.47,0.463,18.33c1.588,4.883,4.882,9.031,8.503,12.672
		c25.441,25.564,65.26,28.215,101.311,29.312c17.744,0.541,37.924,0.1,49.801-13.095c5.854-6.502,8.646-15.149,10.782-23.632
		c8.158-32.392,14.311-83.121-0.865-114.823C385.642,380.157,331.808,379.376,302.108,377.42z"/>
	<path style="fill:#FFFFFF;stroke:#1D1D1B;stroke-width:2;stroke-miterlimit:10;" d="M487.393,494.765
		c-17.56-2.354-28.493,16.375-41.489,27.636c-21.02,18.215-53.227,18.023-81.74,15.061c-45.26-4.701-90.012-13.64-133.366-26.64
		c-23.175-6.947-42.879-15.811-62.025-29.479c-6.748-4.817-7.384-10.18-17.059-7.849c-32.274,7.778-1.685,43.763,11.689,53.335
		c26.43,18.911,59.395,28.561,91.906,33.496c40.387,6.13,81.622,5.718,122.151,10.966c29.513,3.822,100.127,11.826,102.506-32.192
		L487.393,494.765z"/>
	<path style="fill:#FFFFFF;stroke:#1D1D1B;stroke-width:2;stroke-miterlimit:10;" d="M475.61,583.672
		c15.743,13.342,39.271,22.609,58.65,12.751c14.622-7.436,36.977-24.628,42.288-40.541c2.052-6.149,1.962-12.78,1.851-19.263
		c-0.217-12.512-0.428-22.776-7.075-33.821c-7.38-12.266-19.998-20.814-33.614-25.237c-24.756-8.038-55.68-1.023-69.146,21.251
		c-11.368,18.803-8.119,42.639-4.353,64.287c0.629,3.62,1.28,7.295,2.897,10.597C469.043,577.648,472.251,580.828,475.61,583.672z"
		/>
	<path style="fill:#FFFFFF;stroke:#1D1D1B;stroke-width:2;stroke-miterlimit:10;" d="M504.446,541.837
		c0.764-13.423,8.773-25.542,25.226-23.46c26.723,3.383,40.29,34.484,15.363,49.734
		C518.146,584.555,503.316,561.756,504.446,541.837z"/>
	<path style="fill:#FFFFFF;stroke:#1D1D1B;stroke-width:2;stroke-miterlimit:10;" d="M658.09,484.498
		c-2.544,12.308-11.083,22.769-21.435,29.895c-10.356,7.125-22.446,11.271-34.565,14.607c-12.083,3.329-24.651,5.954-37.092,4.431
		c-9.819-1.203-19.208-4.949-29.053-5.931c-9.842-0.979-21.064,1.634-26.298,10.024c-16.021,25.687,17.947,35.01,34.761,34.881
		c23.355-0.181,46.229,5.117,69.053,9.392c18.95,3.548,35.805,2.178,54.821,3.411L658.09,484.498z"/>
	<path style="fill:#FFFFFF;stroke:#1D1D1B;stroke-width:2;stroke-miterlimit:10;" d="M787.917,394.338
		c30.659,9.594,60.228,29.585,71.25,59.76c7.079,19.382,6.096,41.614,16.655,59.339c3.271,5.492,7.602,10.44,9.713,16.475
		c3.617,10.349,0.021,21.83-5,31.578c-13.657,26.515-37.791,46.834-65.064,58.9c-27.276,12.069-57.552,16.303-87.37,15.645
		c-34.396-0.761-72.187-10.173-91.312-38.771c-11.102-16.6-14.186-37.386-13.709-57.352c0.572-24.218,15.064-46.177,23.429-68.159
		c7.481-19.661,15.949-35.608,32.155-49.732C707.369,397.009,750.553,382.649,787.917,394.338z"/>
	<path style="fill:#FFFFFF;stroke:#1D1D1B;stroke-width:2;stroke-miterlimit:10;" d="M685.019,542.104
		c-9.48-3.094-17.948-8.625-23.049-16.487c-20.271-31.22,8.859-82.679,47.382-72.602c22.157,5.796,35.585,24.382,37.302,46.834
		c1.478,19.323-12.435,39.499-31.509,43.882C705.756,545.89,694.847,545.306,685.019,542.104z"/>
	<path style="fill:#231F20;stroke:#1D1D1B;stroke-width:2;stroke-miterlimit:10;" d="M717.98,481.938
		c5.692,6.722,7.766,16.337,5.354,24.808c-2.414,8.472-9.244,15.548-17.623,18.262c-15.614,5.06-39.446,0.531-44.195-17.626
		c-3.594-13.735,4.537-31.034,17.47-36.428C692.652,465.252,708.729,471.01,717.98,481.938z"/>
	<path style="fill:#FFFFFF;stroke:#1D1D1B;stroke-width:2;stroke-miterlimit:10;" d="M693.368,495.588
		c-3.02,3.698-8.343,5.3-12.927,3.962c-4.582-1.339-8.189-5.494-8.951-10.21c-0.765-4.71,1.31-9.752,5.112-12.639
		C687.559,468.389,701.592,485.504,693.368,495.588z"/>
	<path style="fill:#FFFFFF;stroke:#1D1D1B;stroke-width:2;stroke-miterlimit:10;" d="M799.146,513.786
		c-8.121-2.647-15.373-7.385-19.746-14.121c-17.358-26.739,7.587-70.812,40.586-62.182c18.979,4.964,30.477,20.882,31.948,40.115
		c1.264,16.55-10.649,33.83-26.988,37.585C816.906,517.029,807.56,516.529,799.146,513.786z"/>
	<path style="fill:#231F20;stroke:#1D1D1B;stroke-width:2;stroke-miterlimit:10;" d="M827.375,462.255
		c4.875,5.757,6.65,13.994,4.586,21.249c-2.067,7.255-7.916,13.316-15.095,15.641c-13.373,4.332-33.782,0.454-37.853-15.098
		c-3.076-11.763,3.888-26.579,14.964-31.2C805.683,447.965,819.452,452.898,827.375,462.255z"/>
	<path style="fill:#FFFFFF;stroke:#1D1D1B;stroke-width:2;stroke-miterlimit:10;" d="M806.296,473.946
		c-2.587,3.168-7.146,4.541-11.073,3.394c-3.924-1.145-7.015-4.707-7.664-8.743c-0.655-4.036,1.119-8.354,4.378-10.826
		C801.318,450.651,813.34,465.311,806.296,473.946z"/>
	<path style="fill:#FFFFFF;stroke:#1D1D1B;stroke-width:2;stroke-miterlimit:10;" d="M866.914,549.77
		c-3.043,2.138-6.688,3.363-10,5.072c-3.366,1.737-6.616,3.688-9.705,5.879c-6.428,4.562-11.919,10.174-16.904,16.248
		c-4.932,6.016-9.537,12.354-15.233,17.689c-4.856,4.55-10.377,8.438-16.312,11.441c-24.17,12.234-54.714,11.627-76.723-5.015
		c-12.62-9.541-23.396-23.035-39.205-27.278c-1.588-0.426-0.911-2.754,0.674-2.44c13.702,2.698,24.634,11.541,35.971,19.05
		c5.485,3.635,11.193,7.215,17.364,9.57c5.886,2.252,11.953,3.744,18.194,4.582c12.617,1.693,25.845-0.008,37.657-4.711
		c5.765-2.297,11.36-5.507,16.227-9.358c6.02-4.766,10.975-10.689,16.119-16.348c5.692-6.262,11.807-11.936,19.002-16.443
		c3.562-2.23,7.294-4.153,11.153-5.811c3.568-1.528,7.55-3.155,11.468-3.072C867.186,548.838,867.315,549.488,866.914,549.77
		L866.914,549.77z"/>
	<path style="fill:#FFFFFF;stroke:#1D1D1B;stroke-width:2;stroke-miterlimit:10;" d="M758.666,555.394
		c1.229,0.357,2.187,1.135,2.73,2.301c0.638,1.359,0.528,2.543,0.328,3.981c-0.196,1.449-2.137,1.972-3.244,1.321
		c-1.229-0.721-0.756-5.103-1.069-5.45C756.584,556.625,757.373,555.016,758.666,555.394L758.666,555.394z"/>
	<path style="fill:#FFFFFF;stroke:#1D1D1B;stroke-width:2;stroke-miterlimit:10;" d="M800.047,554.622
		c0.196,1.419-0.186,2.71-1.524,3.424c-1.063,0.566-2.382,0.545-3.442-0.026c-1.096-0.587-1.723-1.662-1.783-2.896
		c-0.031-0.63,0.105-1.249,0.336-1.827C794.043,552.274,799.876,553.383,800.047,554.622z"/>
	<path style="fill:#FFFFFF;stroke:#1D1D1B;stroke-width:2;stroke-miterlimit:10;" d="M396.008,363.193
		c-10.725,5.171-23.329,3.597-35.116,1.908c-29.521-4.231-59.044-8.463-88.565-12.695c-3.261-0.467-6.683-1-9.287-3.019
		c-2.709-2.101-4.083-5.469-5.097-8.745c-5.408-17.474-5.09-38.798-19.458-50.116c7.083-15.147,21.562-25.817,37.151-31.866
		c15.588-6.05,32.406-8.032,49.015-9.964c33.43-3.887,92.741-14.638,113.262,21.779C454.32,299.598,422.763,350.291,396.008,363.193
		z"/>
	<path style="fill:#FFFFFF;stroke:#1D1D1B;stroke-width:2;stroke-miterlimit:10;" d="M400.232,741.893
		c9.412-0.026,18.818-0.84,28.086-2.454c0.854-6.807,0.301-13.791-1.679-20.364c-0.575-1.905-1.404-3.954-3.176-4.861
		c-1.168-0.605-2.553-0.598-3.854-0.439c-8.238,1.027-14.905,7.921-17.596,15.776C400.654,733.523,400.16,737.69,400.232,741.893z"
		/>
	<path style="fill:#FFFFFF;stroke:#1D1D1B;stroke-width:2;stroke-miterlimit:10;" d="M352.459,735.238
		c8.92,2.569,18.052,4.406,27.276,5.483c1.749-8.104,1.434-16.652-0.957-24.594c-0.574-1.903-1.409-3.951-3.181-4.859
		c-1.165-0.605-2.549-0.602-3.855-0.439c-8.238,1.025-14.9,7.921-17.59,15.776C353.19,729.401,352.661,732.304,352.459,735.238z"/>
	<path style="fill:#FFFFFF;stroke:#1D1D1B;stroke-width:2;stroke-miterlimit:10;" d="M175.225,680.22
		c5.513,1.208,11.115,1.999,16.746,2.357h0.004l1.365-0.265c2.416-6.914,2.577-14.598,0.467-21.607
		c-0.408-1.359-1.001-2.814-2.259-3.462c-0.834-0.426-1.816-0.42-2.744-0.31c-5.862,0.732-10.604,5.639-12.52,11.225
		C174.965,672.018,174.788,676.14,175.225,680.22z"/>
	<path style="fill:#FFFFFF;stroke:#1D1D1B;stroke-width:2;stroke-miterlimit:10;" d="M142.258,665.983
		c2.701,2.735,6.216,4.664,9.716,6.318c2.783,1.315,5.626,2.513,8.513,3.582c1.178-5.698,0.942-11.697-0.736-17.277
		c-0.408-1.357-1.001-2.811-2.264-3.46c-0.83-0.424-1.815-0.42-2.739-0.308C148.915,655.564,144.188,660.433,142.258,665.983z"/>
</g>
</svg>
