<?xml version="1.0" encoding="utf-8"?>
<!-- Generator: Adobe Illustrator 16.0.0, SVG Export Plug-In . SVG Version: 6.00 Build 0)  -->
<!DOCTYPE svg PUBLIC "-//W3C//DTD SVG 1.1//EN" "http://www.w3.org/Graphics/SVG/1.1/DTD/svg11.dtd">
<svg version="1.1" id="Layer_1" xmlns="http://www.w3.org/2000/svg" xmlns:xlink="http://www.w3.org/1999/xlink" x="0px" y="0px"
	 width="100%" height="100%" viewBox="0 0 600 600" enable-background="new 0 0 600 600" xml:space="preserve">
<path fill="#FFFFFF" stroke="#000000" stroke-width="2" d="M480.706,282.378c-2.283,0.991-2.272,4.819-2.361,6.757
	c-0.257,5.717-0.196,10.586-3.789,15.411c-3.337,4.484-9.407,6.624-14.615,7.862c-2.815,0.67-9.22,1.318-11.988-0.908
	c-0.153-0.532-0.613-0.968-1.345-1.008c-0.061-0.027-0.094-0.071-0.158-0.094c-6.891-2.367-23.122,11.709-11.401,15.662
	c16.65,5.616,37.499,4.193,50.056-9.234c5.366-5.737,5.115-14.915,4.318-22.124C489.032,291.196,486.791,279.736,480.706,282.378z"
	/>
<path fill="#FFFFFF" stroke="#000000" stroke-width="2" d="M269.681,313.4c-0.776-0.187-1.478,0.317-1.816,0.992
	c-0.078,0.076-0.174,0.141-0.234,0.231c-4.534,1.226-7.893,5.254-10.901,8.679c-4.817,5.49-9.039,11.508-12.266,18.057
	c-5.954,12.088-8.847,26.361-10.912,39.604c-2.118,13.563,0.944,27.895,6.786,40.234c4.271,9.021,13.245,18.793,23.882,18.521
	c12.533-0.317,14.838-14.366,12.75-23.999c-1.437-6.638-3.831-13.06-5.817-19.54c-2.733-8.915-3.828-17.899-3.177-27.208
	c1.002-14.293,13.182-26.729,19.243-39.154C292.352,319.301,276.804,315.095,269.681,313.4z"/>
<path fill="#FFFFFF" stroke="#000000" stroke-width="2" d="M245.306,322.328c3.583-2.561,8.526-5.309,6.629-10.402
	c-1.77-4.758-7.629-8.976-12.724-9.602c-1.987-0.245-2.875,0.018-4.152,1.59c-0.168,0.209-0.269,0.423-0.33,0.634
	c-12.521,4.927-21.725,15.39-30.102,25.679c-9.803,12.037-17.23,27.008-21.592,41.836c-4.359,14.822-7.713,31.013-4.344,46.365
	c1.37,6.232,3.746,12.29,8.183,16.985c3.359,3.554,9.21,7.657,14.438,6.869c14.212-2.139,14.972-18.93,15.2-30.233
	c0.311-15.398-1.714-30.264,1.535-45.547C221.661,349.503,230.952,332.588,245.306,322.328z"/>
<path fill="#FFFFFF" stroke="#000000" stroke-width="2" d="M420.642,328.861c-3.88-3.693-7.568-7.206-12.65-9.127
	c-3.521-1.332-6.619,0.649-9.891,1.746c-0.361,0.123-0.612,0.43-0.792,0.783c-0.884-0.175-1.811,0.811-1.105,1.728
	c2.832,3.694,6.034,7.174,8.911,10.858c4.444,5.694,7.417,13.197,8.942,20.199c3.148,14.449,3.253,28.686,3.166,43.394
	c-0.062,10.498,0.559,21.704,8.669,29.358c5.738,5.417,17.195,6.939,22.634,0.085c6.544-8.257,5.696-19.556,5.156-29.477
	c-0.729-13.438-6.043-26.06-11.601-38.14C436.867,348.939,429.698,337.482,420.642,328.861z"/>
<path fill="#FFFFFF" stroke="#000000" stroke-width="2" d="M501.201,368.918c-5.725-12.793-14.848-25.866-24.823-35.643
	c-8.89-8.715-18.864-18.291-30.479-23.241c-5.512-2.351-10.64-0.949-16.158-0.111c-2.832,0.431-3.44,4.489-4.48,6.341
	c-0.636,1.127,0.639,2.436,1.767,2.264c0.254-0.038,0.511-0.079,0.768-0.118c13.118,4.522,22.029,19.95,27.239,31.797
	c6.56,14.914,9.816,29.903,12.113,45.941c1.341,9.376,2.796,22.415,14.351,24.491c10.986,1.975,20.583-5.061,23.917-15.403
	C509.225,393.404,506.119,379.909,501.201,368.918z"/>
<path fill="#FFFFFF" stroke="#000000" stroke-width="2" d="M501.201,368.918c-5.725-12.793-14.848-25.866-24.823-35.643
	c-8.89-8.715-18.864-18.291-30.479-23.241c-5.512-2.351-10.64-0.949-16.158-0.111c-2.832,0.431-3.44,4.489-4.48,6.341
	c-0.636,1.127,0.639,2.436,1.767,2.264c0.254-0.038,0.511-0.079,0.768-0.118c13.118,4.522,22.029,19.95,27.239,31.797
	c6.56,14.914,9.816,29.903,12.113,45.941c1.341,9.376,2.796,22.415,14.351,24.491c10.986,1.975,20.583-5.061,23.917-15.403
	C509.225,393.404,506.119,379.909,501.201,368.918z"/>
<path fill="#FFFFFF" stroke="#000000" stroke-width="2" d="M265.125,303.484c-4.598-10.756-8.859-21.318-12.51-32.42
	c0.06-0.351-0.071-0.726-0.32-0.944c-0.074-0.223-0.153-0.437-0.226-0.66c-0.655-2.033-3.838-1.022-3.539,1.001
	c0.05,0.34,0.099,0.68,0.149,1.02c-7.148,3.622-15.486,6.758-23.048,8.361c-9.817,2.083-20.083,2.107-29.344-2.079
	c-4.68-2.117-9.3-5.358-12.335-9.527c-2.514-3.455-3.523-7.972-4.901-11.941c-2.651-7.64-0.201-16.761-3.196-24.129
	c-0.219-0.538-0.841-1.079-1.446-1.089c-3.865-0.057-6.794,2.659-10.148,4.256c-3.312,1.576-9.638,3.125-12.031,5.987
	c-1.786,2.137-1.78,5.374-1.574,8.047c0.513,6.66,1.631,13.426,3.009,19.961c2.207,10.467,6.504,21.536,12.936,30.131
	c6.02,8.042,15.668,14.091,24.754,17.97c21.213,9.052,46.34,10.744,68.088,2.792c2.317-0.847,8.229-2.781,9.316-5.438
	C269.928,311.93,266.191,305.977,265.125,303.484z"/>
<path fill="#FFFFFF" stroke="#000000" stroke-width="2" d="M187.976,221.223c-2.013-5.682-6.072-10.377-10.573-14.292
	c-9.817-8.533-24.973-9.841-36.905-5.815c-7.467,2.518-13.801,7.415-21.363,9.924c-6.723,2.232-14.213,4.75-21.392,4.842
	c-3.191,0.041-6.528-0.188-9.689-0.01c-2.229,0.127-3.611,0.408-5.35,1.786c-2.737,2.165-3.362,5.646-3.551,9.06
	c-0.125,0.693-0.229,1.371-0.3,1.986c-0.636,5.636,1.668,11.391,5.008,15.792c3.483,4.585,8.949,7.651,14.092,9.98
	c6.458,2.922,14.047,6.024,21.115,6.961c14.457,1.914,27.85,2.768,42.141-0.396c10.743-2.378,24.065-9.935,26.462-21.698
	C188.849,233.563,190.028,227.009,187.976,221.223z"/>
<path fill="#FFFFFF" stroke="#000000" stroke-width="2" d="M128.787,235.896c-1.678-0.01-3.234,0.071-4.892,0.414
	c-2.951,0.607-5.415-0.061-8.315-0.353c-5.257-0.531-11.492-2.607-15.301-6.518c-1.299-1.298-3.414,0.019-2.862,1.503
	c-0.025,0.086-0.074,0.166-0.072,0.258c0.032,7.064,3.146,14.327,9.671,17.819c6.973,3.73,14.645,1.405,20.452-3.274
	C129.099,244.432,134.542,235.932,128.787,235.896z"/>
<path fill="#FFFFFF" stroke="#000000" stroke-width="2" d="M465.148,291.631c-1.854-2.271-4.67-4.022-6.847-5.987
	c-3.428-3.089-3.023-6.728-2.223-10.89c1.425-7.399,2.946-14.263,2.077-21.838c-1.771-15.467-5.805-29.325-14.676-42.313
	c-8.065-11.812-20.139-20.714-32.782-27.093c-13.603-6.859-29.764-7.792-44.702-7.603c-16.924,0.219-33.029,2.409-48.532,9.644
	c-13.432,6.268-27.11,15.995-36.081,27.949c-10.316,13.75-18.315,29.725-34.764,37.014c-6.171,2.736-12.676,2.293-19.225,2.797
	c-5.77,0.445-13.662,0.944-17.85,5.522c-1.747,1.91-3.275,4.277-4.25,6.819c-2.247,4.309-2.307,9.297-1.364,14.195
	c1.23,6.381,4.589,12.212,8.524,17.292c4.799,6.195,11.647,9.99,17.56,14.947c5.357,4.491,11.775,7.132,17.918,10.333
	c7.166,3.733,14.34,6.733,22.181,8.755c16.654,4.288,33.062,8.309,50.128,10.801c32.978,4.817,67.293,4.907,99.84-3.309
	c6.687-1.688,13.375-3.386,19.863-5.741c7.355-2.671,14.241-7.749,20.385-12.481c4.674-3.6,7.363-8.038,8.972-13.646
	C471,300.889,468.812,296.121,465.148,291.631z"/>
<path fill="#FFFFFF" stroke="#000000" stroke-width="2" d="M427.673,194.165c-5.306-4.121-11.069-7.675-16.974-10.654
	c-13.603-6.859-29.764-7.792-44.702-7.603c-6.979,0.089-13.812,0.547-20.526,1.525c-0.321,3.127-0.208,6.279,0.02,8.689
	c0.926,9.822,6.378,19.022,13.192,25.914c13.906,14.061,35.233,17.289,52.068,6.695c8.16-5.136,14.231-13.108,16.521-22.604
	C427.425,195.487,427.554,194.829,427.673,194.165z"/>
<path fill="#FFFFFF" stroke="#000000" stroke-width="2" d="M324.391,202.621c0.562-6.154-1.421-12.562-4.258-18.203
	c-0.889,0.38-1.783,0.72-2.667,1.133c-13.432,6.268-27.11,15.995-36.081,27.949c-3.195,4.258-6.166,8.728-9.238,13.09
	c5.78,4.353,13.975,5.965,21.394,4.904C308.374,229.375,322.961,218.262,324.391,202.621z"/>
<path fill="#FFFFFF" stroke="#000000" stroke-width="2" d="M424.033,239.906c-6.584,13.64,1.751,31.659,17.021,34.763
	c4.749,0.965,9.802,1.438,14.811,1.295c0.067-0.398,0.138-0.8,0.217-1.209c1.425-7.399,2.946-14.263,2.077-21.838
	c-1.389-12.129-4.208-23.258-9.622-33.765C438.067,222.198,428.28,231.104,424.033,239.906z"/>
<path fill="#FFFFFF" stroke="#000000" stroke-width="2" d="M395.311,257.641c-0.071-9.321-7.881-19.287-15.065-24.532
	c-7.543-5.508-18.337-6.177-27.056-3.597c-5.86,1.733-11.076,4.46-16.067,7.957c-2.66,1.861-4.126,3.842-5.144,6.291
	c-6.395,9.097-5.514,25.153-0.018,33.79c11.896,18.707,37.682,17.174,53.727,4.52C392.923,276.361,395.379,266.445,395.311,257.641z
	"/>
<path fill="#FFFFFF" stroke="#000000" stroke-width="2" d="M299.596,275.891c-1.403-8.359-4.061-15.749-11.851-19.876
	c-6.511-3.451-14.88-2.595-21.461,0.075c-7.986,3.241-14.354,10.414-16.21,18.817c-0.513,2.333-0.419,4.636,0.125,6.823
	c0.312,6.923,4.777,13.063,10.952,16.567c8.185,4.643,17.233,4.17,25.558-0.026C294.201,294.492,301.068,284.67,299.596,275.891z"/>
<path fill="#FFFFFF" stroke="#000000" stroke-width="2" d="M373.865,311.648c-2.817,10.67-0.327,23.518,6.776,31.629
	c-0.034,0.311,0.043,0.642,0.286,0.947c0.131,0.161,0.285,0.307,0.416,0.467c13.062-0.891,26.036-2.816,38.74-6.023
	c3.587-0.904,7.17-1.824,10.725-2.833c4.896-13.422-2.775-30.031-14.422-38.089C402.909,288.419,378.328,294.737,373.865,311.648z"
	/>
<path fill="#FFFFFF" stroke="#000000" stroke-width="2" d="M320.243,341.977c12.468,1.821,25.127,2.963,37.811,3.239
	c-0.918-10.261-6.179-19.901-13.375-27.104c-13.351-13.359-34.706-10.906-45.896,3.775c-3.125,4.104-5.187,9.375-6.008,14.846
	C301.833,338.796,310.94,340.617,320.243,341.977z"/>
<path fill="#FFFFFF" stroke="#000000" stroke-width="2" d="M492.188,385.717c-7.834,1.367-14.28,5.917-20.745,10.213
	c-1.366,0.907-2.678,1.96-3.877,3.135c1.317,8.965,3.534,19.707,13.932,21.575c10.986,1.975,20.583-5.061,23.917-15.403
	c2.064-6.411,2.088-13.309,0.903-20.033C501.548,384.629,496.543,384.958,492.188,385.717z"/>
<path fill="#FFFFFF" stroke="#000000" stroke-width="2" d="M453.681,398.409c-0.04-0.719-0.14-1.426-0.206-2.14
	c-6.986-0.611-14.754,0.399-18.446,1.363c-5.923,1.552-12.763,5.075-17.562,9.468c0.594,7.686,2.524,15.133,8.423,20.7
	c5.738,5.417,17.195,6.939,22.634,0.085C455.068,419.628,454.221,408.33,453.681,398.409z"/>
<path fill="#FFFFFF" stroke="#000000" stroke-width="2" d="M276.972,415.722c-1.112-5.134-2.793-10.139-4.417-15.141
	c-5.589,0.156-11.14,1.506-16.296,3.642c-5.819,2.411-12.7,7.197-17.594,13.134c0.534,1.295,1.08,2.585,1.674,3.842
	c4.271,9.021,13.245,18.793,23.882,18.521C276.754,439.403,279.06,425.355,276.972,415.722z"/>
<path fill="#FFFFFF" stroke="#000000" stroke-width="2" d="M200.07,404.904c-8.308,0.86-15.755,4.59-22.036,9.896
	c0.186,1.214,0.394,2.425,0.658,3.628c1.37,6.232,3.746,12.29,8.183,16.985c3.359,3.554,9.21,7.657,14.438,6.869
	c14.212-2.139,14.972-18.93,15.2-30.233c0.04-2.022,0.038-4.035,0.015-6.04C211.249,404.453,205.642,404.325,200.07,404.904z"/>
<path d="M167.288,224.829c-1.802-1.002-4.383-0.855-6.031,0.333c-0.583,0.42-1.02,1.073-1.258,1.79
	c-1.104,1.811-1.859,3.718-0.925,5.829c1.669,3.771,6.848,3.952,9.775,1.692C172.392,231.735,170.653,226.699,167.288,224.829z"/>
<path d="M133.329,204.604c-1.801-1.002-4.383-0.855-6.03,0.333c-0.582,0.42-1.02,1.072-1.258,1.789
	c-1.104,1.812-1.86,3.718-0.926,5.829c1.67,3.772,6.848,3.953,9.776,1.693C138.434,211.51,136.694,206.474,133.329,204.604z"/>
<path fill="#FFFFFF" stroke="#000000" stroke-width="2" d="M158.034,242.96c-0.93-3.005-3.787-6.288-6.837-7.222
	c-3.006-0.92-5.489-0.494-8.143,1.128c-0.986,0.603-1.808,1.551-2.475,2.584c-0.122,0.128-0.244,0.255-0.367,0.392
	c-1.014,1.125-1.47,2.576-1.755,4.023c-0.501,2.571,0.718,5.545,2.452,7.393c3.612,3.852,10.102,6.438,14.698,2.522
	c1.146-0.974,2.221-2.332,2.621-3.808c0.24-0.881,0.496-1.629,0.539-2.512C158.857,245.677,158.565,244.673,158.034,242.96z"/>
<path fill="#FFFFFF" stroke="#231F20" stroke-width="2" d="M162.96,70.371c1.538,0.649,2.814,1.683,3.829,3.1
	c1.012,1.418,1.62,2.877,1.823,4.375c0.201,1.5-0.082,2.856-0.851,4.072c-0.771,1.216-2.127,2.026-4.072,2.431
	c-3.728,0.649-7.232,0.933-10.514,0.851c-3.282-0.08-6.138-0.122-8.569-0.122c0,9.724,0.04,19.286,0.122,28.686
	c0.08,9.401,0.04,19.326-0.122,29.779c0,2.268-0.771,3.909-2.309,4.923c-1.541,1.012-3.221,1.438-5.044,1.276
	c-1.823-0.163-3.506-0.893-5.044-2.188c-1.541-1.297-2.31-3.079-2.31-5.348c-0.082-9.561-0.122-19.083-0.122-28.563
	c0-9.481,0-19.001,0-28.564c-0.729,0-1.966,0.042-3.707,0.122c-1.744,0.082-3.646,0.103-5.713,0.061
	c-2.066-0.04-4.193-0.201-6.381-0.486c-2.188-0.283-4.092-0.83-5.712-1.641c-1.297-0.648-2.148-1.599-2.553-2.856
	c-0.406-1.255-0.425-2.532-0.061-3.829c0.365-1.295,1.033-2.511,2.005-3.646c0.973-1.134,2.188-1.903,3.646-2.31
	c6.807-0.404,13.389-0.547,19.751-0.425c6.36,0.122,12.823,0.182,19.387,0.182c1.945,0,3.89-0.019,5.834-0.061
	c1.945-0.04,3.93-0.061,5.956-0.061L162.96,70.371z"/>
<path fill="#FFFFFF" stroke="#231F20" stroke-width="2" d="M221.058,72.559c0.323-2.997,1.356-5.206,3.099-6.625
	c1.742-1.417,3.586-2.106,5.53-2.066c1.945,0.042,3.747,0.79,5.409,2.249c1.66,1.458,2.531,3.525,2.613,6.199
	c0.161,2.756-0.547,4.883-2.127,6.381c-1.58,1.5-3.384,2.351-5.409,2.552c-2.026,0.203-3.931-0.344-5.712-1.641
	c-1.784-1.295-2.877-3.362-3.282-6.199L221.058,72.559z"/>
<path fill="#FFFFFF" stroke="#231F20" stroke-width="2" d="M237.102,141.719c-0.163,1.622-0.729,3.06-1.702,4.315
	c-0.972,1.255-2.087,2.167-3.342,2.735c-1.257,0.566-2.613,0.688-4.072,0.365c-1.458-0.325-2.755-1.216-3.889-2.674
	c-0.649-0.811-1.115-1.721-1.398-2.735c-0.285-1.012-0.467-2.066-0.547-3.16c-0.082-1.094-0.103-2.188-0.061-3.282
	c0.04-1.094,0.061-2.085,0.061-2.978c-0.082-4.78-0.103-9.521-0.061-14.221c0.04-4.699,0.019-9.439-0.061-14.221
	c0-1.945-0.122-3.908-0.365-5.896c-0.243-1.984-0.122-3.95,0.365-5.895c0.404-1.458,1.113-2.714,2.127-3.768
	c1.012-1.052,2.146-1.781,3.403-2.188c1.255-0.405,2.553-0.444,3.89-0.122c1.337,0.325,2.492,1.175,3.464,2.552
	c1.295,1.622,1.945,3.221,1.945,4.801s0,3.506,0,5.773c0,2.756,0,5.511,0,8.265c0,2.756,0.04,5.47,0.122,8.145
	c0.08,3.89,0.122,7.779,0.122,11.668c0,3.89,0,7.779,0,11.669L237.102,141.719L237.102,141.719z"/>
<path fill="#FFFFFF" stroke="#231F20" stroke-width="2" d="M247.676,136.979c-0.486-1.377-0.689-2.735-0.607-4.072
	c0.08-1.337,0.425-2.553,1.033-3.646c0.607-1.094,1.478-1.945,2.613-2.553c1.134-0.607,2.511-0.83,4.132-0.668
	c0.891,0.082,1.702,0.325,2.431,0.729c0.729,0.406,1.397,0.893,2.005,1.458c0.608,0.568,1.215,1.176,1.823,1.823
	c0.608,0.649,1.234,1.215,1.884,1.702c1.377,1.054,2.835,1.823,4.376,2.31c1.538,0.486,3.16,0.851,4.862,1.094
	c1.134,0,2.045-0.283,2.735-0.851c0.688-0.566,1.155-1.255,1.398-2.066c0.243-0.809,0.304-1.681,0.182-2.613
	c-0.122-0.931-0.425-1.681-0.912-2.249c-1.379-1.376-3.06-2.268-5.044-2.674c-1.986-0.404-3.829-0.891-5.53-1.458
	c-2.431-0.809-4.822-1.842-7.171-3.1c-2.351-1.255-4.254-2.978-5.712-5.166c-1.541-2.268-2.452-4.68-2.735-7.232
	c-0.285-2.553-0.082-5.044,0.608-7.475c0.688-2.431,1.842-4.659,3.464-6.686c1.62-2.024,3.565-3.686,5.834-4.983
	c1.702-0.972,3.564-1.599,5.591-1.884c2.025-0.283,4.072-0.344,6.138-0.182c2.066,0.163,4.112,0.547,6.138,1.154
	c2.024,0.608,3.89,1.276,5.591,2.006c1.945,0.893,3.403,2.148,4.375,3.768c0.973,1.622,1.438,3.263,1.398,4.922
	c-0.042,1.662-0.608,3.1-1.702,4.315c-1.094,1.215-2.695,1.823-4.801,1.823c-1.297,0-2.473-0.222-3.525-0.668
	c-1.054-0.444-2.148-0.87-3.282-1.276c-1.458-0.566-3.039-0.952-4.74-1.155c-1.702-0.201-3.081-0.101-4.133,0.304
	c-0.325,0.082-0.689,0.346-1.094,0.79c-0.406,0.446-0.71,0.993-0.912,1.641c-0.203,0.649-0.243,1.297-0.122,1.945
	c0.122,0.649,0.547,1.176,1.276,1.58c1.945,1.054,4.011,1.865,6.199,2.431c2.188,0.568,4.334,1.215,6.442,1.945
	c2.106,0.729,4.072,1.662,5.895,2.795c1.823,1.136,3.343,2.756,4.558,4.862c1.782,3.081,2.693,6.301,2.735,9.663
	c0.04,3.363-0.628,6.502-2.005,9.42c-1.379,2.917-3.403,5.409-6.078,7.475c-2.674,2.066-5.794,3.301-9.359,3.707
	c-2.513,0.243-4.983,0.101-7.415-0.425c-2.431-0.528-4.782-1.379-7.049-2.553c-2.27-1.175-4.376-2.571-6.321-4.193
	c-1.945-1.62-3.646-3.321-5.105-5.105L247.676,136.979z"/>
<path fill="#FFFFFF" stroke="#231F20" stroke-width="2" d="M367.884,146.581c-1.054,1.295-2.27,2.188-3.646,2.674
	c-1.379,0.486-2.795,0.486-4.254,0c-1.459-0.486-2.675-1.581-3.646-3.282c-0.407-0.649-0.729-1.337-0.973-2.066
	c-0.243-0.729-0.365-1.458-0.365-2.188v-31.967c-1.54,0-2.938-0.425-4.193-1.276c-1.257-0.851-2.188-1.903-2.795-3.16
	c-0.607-1.255-0.832-2.592-0.668-4.011c0.162-1.417,0.81-2.734,1.945-3.95c0.809-0.891,1.681-1.478,2.613-1.762
	c0.931-0.283,1.924-0.465,2.978-0.547c-0.082-2.511-0.143-4.983-0.183-7.415c-0.042-2.431,0.141-4.862,0.547-7.293
	c0.486-3.808,1.62-7.05,3.403-9.724c1.781-2.674,3.989-4.74,6.625-6.199c2.632-1.458,5.569-2.31,8.812-2.553
	c3.24-0.243,6.604,0.243,10.088,1.458c1.458,0.486,2.856,1.094,4.193,1.823s2.532,1.662,3.586,2.796
	c0.729,0.811,1.255,1.762,1.58,2.856c0.322,1.094,0.383,2.188,0.182,3.282c-0.203,1.094-0.607,2.108-1.215,3.039
	c-0.608,0.932-1.479,1.641-2.613,2.127c-1.541,0.649-3.06,0.811-4.558,0.486c-1.5-0.323-2.979-0.851-4.438-1.58
	c-0.893-0.323-1.743-0.648-2.552-0.973c-0.811-0.323-1.662-0.566-2.553-0.729c-0.894-0.162-1.702-0.04-2.432,0.364
	c-0.729,0.407-1.357,0.954-1.884,1.641c-0.527,0.689-0.933,1.458-1.215,2.31c-0.285,0.851-0.425,1.683-0.425,2.492
	c-0.082,1.865-0.104,3.749-0.061,5.652c0.039,1.905,0.061,3.789,0.061,5.652c1.215-0.08,2.511-0.162,3.889-0.243
	c1.377-0.08,2.735-0.122,4.072-0.122s2.572,0.042,3.708,0.122c1.134,0.082,2.024,0.243,2.674,0.486
	c1.295,0.486,2.351,1.236,3.16,2.249c0.809,1.014,1.337,2.108,1.58,3.282c0.243,1.176,0.141,2.37-0.304,3.585
	c-0.446,1.216-1.236,2.27-2.37,3.16c-1.054,0.811-2.271,1.379-3.646,1.702c-1.379,0.325-2.837,0.547-4.375,0.669
	c-1.541,0.122-3.039,0.163-4.498,0.122c-1.458-0.04-2.755-0.061-3.889-0.061v32.453
	C369.585,143.745,368.936,145.284,367.884,146.581z"/>
<path fill="#FFFFFF" stroke="#231F20" stroke-width="2" d="M390.491,116.072c0.565-2.349,1.355-4.659,2.37-6.928
	c1.012-2.268,2.249-4.437,3.707-6.502c1.459-2.066,3.1-3.951,4.923-5.652c1.823-1.701,3.787-3.078,5.895-4.132
	c3.727-1.945,7.476-2.936,11.243-2.978c3.768-0.04,7.272,0.71,10.514,2.249c3.24,1.541,5.996,3.829,8.266,6.868
	c2.268,3.039,3.768,6.666,4.498,10.878c0.403,2.755,0.626,5.369,0.668,7.84c0.04,2.473-0.225,5.044-0.79,7.718
	c-0.812,3.81-2.452,7.597-4.923,11.364c-2.474,3.768-5.431,6.928-8.873,9.481c-3.445,2.552-7.213,4.233-11.305,5.044
	c-4.093,0.809-8.205,0.162-12.337-1.945c-1.864-0.893-3.546-1.925-5.044-3.099c-1.5-1.174-2.855-2.572-4.071-4.193
	c-1.38-1.782-2.452-3.646-3.222-5.591c-0.771-1.945-1.397-3.969-1.884-6.077c-0.568-2.268-0.771-4.558-0.606-6.868
	c0.16-2.309,0.443-4.558,0.851-6.746L390.491,116.072z"/>
<path fill="#FFFFFF" stroke="#231F20" stroke-width="2" d="M405.077,118.625c-0.243,1.297-0.446,2.573-0.607,3.829
	c-0.164,1.257-0.164,2.533,0,3.829c0.243,1.865,0.748,3.567,1.52,5.105c0.77,1.541,1.782,2.756,3.039,3.646
	c1.255,0.893,2.692,1.358,4.313,1.398c1.62,0.042,3.362-0.465,5.228-1.52c2.35-1.377,4.376-3.504,6.077-6.381
	c1.702-2.875,2.755-5.874,3.16-8.994c0.404-3.119,0.08-6.078-0.972-8.873c-1.054-2.795-3.121-4.801-6.199-6.017
	c-2.025,0-3.89,0.385-5.591,1.155c-1.702,0.771-3.181,1.783-4.436,3.039c-1.258,1.257-2.353,2.735-3.282,4.437
	C406.393,114.979,405.643,116.762,405.077,118.625z"/>
<path fill="#FFFFFF" stroke="#231F20" stroke-width="2" d="M453.694,107.625c0.08-0.526,0.04-1.478-0.122-2.856
	c-1.297-0.729-2.311-1.66-3.039-2.796c-0.729-1.134-1.155-2.349-1.276-3.646c-0.122-1.295,0.122-2.532,0.729-3.708
	c0.607-1.173,1.599-2.167,2.978-2.978c1.863-1.052,3.909-1.255,6.138-0.608c2.229,0.649,4.152,1.622,5.773,2.917
	c2.024-1.538,4.133-2.835,6.32-3.889c2.188-1.052,4.416-1.763,6.685-2.127c2.269-0.364,4.577-0.304,6.928,0.183
	c2.351,0.486,4.659,1.5,6.929,3.039c1.134,0.729,2.188,1.641,3.16,2.735c0.973,1.094,1.579,2.33,1.822,3.707
	c0.405,2.026,0.243,3.789-0.485,5.287c-0.729,1.5-1.744,2.595-3.039,3.282c-1.297,0.689-2.755,0.893-4.375,0.607
	c-1.622-0.283-3.16-1.155-4.619-2.613c-0.486-0.323-0.832-0.587-1.033-0.79c-0.203-0.201-0.629-0.465-1.276-0.79
	c-1.297-0.323-2.572-0.243-3.828,0.243c-1.258,0.486-2.474,1.155-3.646,2.005c-1.176,0.851-2.27,1.784-3.282,2.796
	c-1.014,1.014-1.926,1.926-2.734,2.735v30.994c0,1.216-0.243,2.391-0.729,3.525c-0.729,1.863-1.884,3.16-3.464,3.89
	c-1.58,0.729-3.16,0.931-4.74,0.607c-1.58-0.325-2.959-1.135-4.133-2.431c-1.175-1.297-1.762-2.957-1.762-4.983v-34.033
	C453.572,108.253,453.612,108.153,453.694,107.625z"/>
<path fill="#FFFFFF" stroke="#231F20" stroke-width="2" d="M203.312,466.371c1.538,0.648,2.814,1.683,3.829,3.1
	c1.012,1.418,1.62,2.877,1.823,4.375c0.201,1.5-0.082,2.856-0.851,4.072c-0.771,1.216-2.127,2.026-4.072,2.431
	c-3.728,0.649-7.232,0.934-10.514,0.852c-3.282-0.08-6.138-0.122-8.569-0.122c0,9.724,0.04,19.286,0.122,28.686
	c0.08,9.401,0.04,19.326-0.122,29.779c0,2.268-0.771,3.909-2.309,4.923c-1.541,1.013-3.221,1.438-5.044,1.276
	c-1.823-0.163-3.506-0.894-5.044-2.188c-1.541-1.297-2.31-3.079-2.31-5.348c-0.082-9.562-0.122-19.083-0.122-28.563
	s0-19.001,0-28.563c-0.729,0-1.966,0.042-3.707,0.122c-1.744,0.082-3.646,0.103-5.713,0.061c-2.066-0.04-4.193-0.201-6.381-0.485
	c-2.188-0.283-4.092-0.83-5.712-1.642c-1.297-0.647-2.148-1.599-2.553-2.855c-0.406-1.255-0.425-2.532-0.061-3.829
	c0.365-1.295,1.033-2.511,2.005-3.646c0.973-1.134,2.188-1.902,3.646-2.31c6.807-0.404,13.389-0.547,19.751-0.425
	c6.36,0.122,12.823,0.182,19.387,0.182c1.945,0,3.89-0.019,5.834-0.061c1.945-0.04,3.93-0.062,5.956-0.062L203.312,466.371z"/>
<path fill="#FFFFFF" stroke="#231F20" stroke-width="2" d="M257.522,531.642c0.729,1.055,1.155,2.29,1.276,3.707
	c0.121,1.418-0.042,2.757-0.486,4.012c-0.446,1.257-1.176,2.288-2.188,3.099c-1.014,0.809-2.33,1.174-3.95,1.094
	c-2.108-0.164-3.81-0.893-5.105-2.188c-1.297-1.295-2.513-2.754-3.646-4.376c-3.16,2.595-6.423,4.395-9.785,5.409
	c-3.363,1.012-6.666,1.233-9.906,0.668c-3.242-0.568-6.281-1.927-9.116-4.072c-2.837-2.146-5.227-5.044-7.171-8.691
	c-1.783-3.402-2.776-7.171-2.978-11.304c-0.204-4.132-0.264-8.062-0.183-11.79c0-1.295,0.04-2.571,0.122-3.829
	c0.08-1.255,0.162-2.572,0.243-3.95c0.08-1.052,0.122-2.085,0.122-3.1c0-1.012,0.061-1.964,0.182-2.856
	c0.122-0.891,0.365-1.78,0.729-2.674c0.365-0.891,0.912-1.742,1.641-2.553c0.973-1.052,2.146-1.681,3.525-1.884
	c1.377-0.201,2.693-0.062,3.951,0.425c1.255,0.486,2.349,1.236,3.282,2.249c0.93,1.014,1.438,2.249,1.519,3.708
	c0.162,4.132,0.061,8.307-0.304,12.519c-0.365,4.214-0.346,8.348,0.061,12.398c0.162,1.945,0.668,3.931,1.52,5.956
	c0.851,2.025,2.207,3.484,4.072,4.376c1.863,0.811,3.747,0.75,5.652-0.184c1.903-0.93,3.464-2.045,4.68-3.342
	c0.566-0.646,1.113-1.355,1.641-2.127c0.526-0.77,1.113-1.438,1.763-2.006c-0.325-2.835-0.528-5.671-0.608-8.508
	c-0.082-2.835-0.082-5.671,0-8.508c0-1.538,0.061-3.222,0.183-5.044c0.122-1.823,0.444-3.565,0.972-5.228
	c0.526-1.66,1.316-3.119,2.37-4.376c1.052-1.255,2.553-2.045,4.498-2.37c0.891-0.161,1.762-0.08,2.613,0.243
	c0.851,0.325,1.599,0.771,2.249,1.337c1.134,0.974,1.903,2.066,2.309,3.282c0.405,1.215,0.608,2.512,0.608,3.889
	c0,1.379-0.103,2.777-0.304,4.193c-0.204,1.419-0.346,2.735-0.426,3.95c-0.163,2.27-0.285,4.661-0.364,7.171
	c-0.082,2.513,0,5.024,0.243,7.536c0.243,2.513,0.708,4.942,1.398,7.292C255.11,527.551,256.143,529.697,257.522,531.642z"/>
<path fill="#FFFFFF" stroke="#231F20" stroke-width="2" d="M270.768,503.625c0.08-0.526,0.04-1.478-0.122-2.856
	c-1.297-0.729-2.31-1.659-3.039-2.796c-0.729-1.134-1.155-2.349-1.276-3.646c-0.122-1.295,0.122-2.532,0.729-3.708
	c0.608-1.173,1.599-2.167,2.978-2.979c1.863-1.052,3.909-1.255,6.138-0.607c2.228,0.648,4.152,1.622,5.773,2.917
	c2.024-1.538,4.133-2.835,6.32-3.89c2.188-1.052,4.416-1.763,6.685-2.127c2.268-0.363,4.577-0.304,6.928,0.184
	c2.351,0.485,4.659,1.5,6.928,3.039c1.135,0.729,2.188,1.641,3.16,2.734c0.974,1.095,1.58,2.33,1.823,3.707
	c0.405,2.026,0.243,3.789-0.486,5.287c-0.729,1.5-1.743,2.596-3.039,3.282c-1.297,0.689-2.755,0.893-4.375,0.607
	c-1.621-0.283-3.16-1.155-4.619-2.613c-0.485-0.323-0.832-0.587-1.032-0.79c-0.203-0.201-0.629-0.465-1.276-0.79
	c-1.297-0.323-2.573-0.243-3.829,0.243c-1.257,0.485-2.473,1.154-3.646,2.005c-1.176,0.851-2.27,1.784-3.282,2.796
	c-1.014,1.014-1.926,1.926-2.735,2.735v30.993c0,1.217-0.243,2.392-0.729,3.525c-0.729,1.863-1.884,3.16-3.464,3.89
	c-1.58,0.729-3.16,0.932-4.74,0.607c-1.58-0.325-2.959-1.135-4.133-2.431c-1.175-1.297-1.762-2.957-1.762-4.983v-34.033
	C270.646,504.253,270.686,504.153,270.768,503.625z"/>
<path fill="#FFFFFF" stroke="#231F20" stroke-width="2" d="M327.163,500.647c-1.622-0.405-3.021-1.095-4.193-2.066
	c-1.175-0.972-1.985-2.106-2.431-3.403c-0.446-1.295-0.446-2.632,0-4.011c0.444-1.377,1.438-2.632,2.978-3.768
	c1.296-0.974,2.753-1.458,4.375-1.458c1.62,0,3.2,0,4.74,0c0-0.566-0.042-1.804-0.122-3.708c-0.082-1.903-0.103-3.99-0.061-6.261
	c0.04-2.268,0.182-4.436,0.425-6.502c0.243-2.065,0.688-3.504,1.337-4.314c1.62-2.269,3.625-3.344,6.017-3.222
	c2.39,0.122,4.355,1.276,5.896,3.464c0.323,0.406,0.627,0.894,0.912,1.459c0.283,0.567,0.425,1.094,0.425,1.579
	c0.08,2.917,0.101,5.834,0.061,8.751c-0.042,2.917-0.061,5.834-0.061,8.751h9.603c1.458,0,2.715,0.486,3.769,1.458
	c1.052,0.973,1.803,2.108,2.249,3.403c0.443,1.297,0.565,2.634,0.364,4.011c-0.203,1.379-0.832,2.514-1.885,3.403
	c-1.864,1.541-4.031,2.353-6.503,2.431c-2.473,0.082-5.004,0.122-7.597,0.122c0,4.458-0.021,8.915-0.062,13.37
	c-0.041,4.458-0.021,8.915,0.062,13.37c0,1.945,0.101,3.931,0.304,5.956c0.201,2.026,0.062,3.971-0.426,5.834
	c-0.406,1.458-1.094,2.613-2.066,3.464c-0.973,0.852-2.065,1.376-3.281,1.58c-1.217,0.201-2.474,0.122-3.769-0.243
	c-1.297-0.364-2.513-1.033-3.646-2.006c-0.568-0.567-0.993-1.538-1.276-2.917c-0.285-1.377-0.467-2.835-0.547-4.375
	c-0.082-1.782-0.082-3.687,0-5.713c0-1.62,0-3.726,0-6.32c0-2.592-0.021-5.288-0.062-8.083s-0.061-5.448-0.061-7.961
	c0-2.511,0-4.497,0-5.956L327.163,500.647z"/>
<path fill="#FFFFFF" stroke="#231F20" stroke-width="2" d="M388.787,533.586c0.891,0.811,1.641,1.844,2.249,3.1
	c0.607,1.258,0.931,2.514,0.973,3.769c0.04,1.255-0.243,2.431-0.851,3.524c-0.607,1.095-1.684,1.925-3.222,2.492
	c-1.216,0.404-2.553,0.486-4.011,0.243s-2.897-0.729-4.314-1.458c-1.418-0.729-2.675-1.601-3.769-2.613
	c-1.094-1.014-1.884-2.127-2.37-3.343c-0.163-0.403-0.285-0.87-0.364-1.397c-0.082-0.526-0.122-0.991-0.122-1.397v-67.458
	c0-1.863,0.708-3.443,2.127-4.741c1.417-1.295,2.978-2.065,4.679-2.309c0.809-0.08,1.681,0.042,2.613,0.365
	c0.931,0.325,1.803,0.79,2.612,1.396c0.81,0.608,1.479,1.318,2.007,2.127c0.525,0.812,0.79,1.662,0.79,2.554
	c0,2.107,0,4.903,0,8.387c0,3.484,0.019,7.293,0.061,11.425c0.04,4.133,0.061,8.408,0.061,12.823c0,4.417-0.021,8.65-0.061,12.702
	c-0.042,4.053-0.061,7.76-0.061,11.122s-0.043,6.059-0.122,8.083L388.787,533.586z"/>
<path fill="#FFFFFF" stroke="#231F20" stroke-width="2" d="M444.092,524.835c1.945-0.486,3.666-0.505,5.166-0.061
	c1.499,0.445,2.653,1.196,3.464,2.249c0.81,1.054,1.173,2.352,1.095,3.89c-0.082,1.54-0.771,3.16-2.066,4.862
	c-1.054,1.379-2.512,2.553-4.375,3.524c-1.865,0.974-3.606,1.744-5.227,2.311c-3.972,1.458-7.739,2.471-11.305,3.039
	c-3.566,0.565-6.909,0.565-10.027,0c-3.12-0.568-6.038-1.744-8.752-3.525c-2.716-1.781-5.246-4.294-7.597-7.536
	c-1.622-2.188-2.815-4.679-3.585-7.475c-0.771-2.795-1.197-5.652-1.275-8.569c-0.082-2.917,0.161-5.792,0.729-8.63
	c0.566-2.835,1.377-5.388,2.431-7.657c1.377-2.835,3.565-5.428,6.563-7.778c2.997-2.35,6.321-4.213,9.967-5.592
	c3.646-1.376,7.373-2.167,11.184-2.37c3.808-0.2,7.171,0.387,10.088,1.764c2.431,1.136,4.516,2.775,6.26,4.922
	c1.741,2.147,2.936,4.479,3.585,6.989c0.646,2.513,0.708,5.044,0.182,7.597c-0.527,2.552-1.844,4.883-3.95,6.989
	c-2.025,2.025-4.254,3.667-6.685,4.923c-2.431,1.257-4.943,2.351-7.536,3.282c-2.594,0.933-5.248,1.723-7.961,2.369
	c-2.716,0.649-5.329,1.38-7.84,2.188c1.702,1.944,3.646,3.181,5.834,3.707c2.188,0.528,4.476,0.628,6.867,0.304
	c2.389-0.322,4.801-0.991,7.231-2.005c2.432-1.012,4.699-2.127,6.808-3.343L444.092,524.835z"/>
<path fill="#FFFFFF" stroke="#231F20" stroke-width="2" d="M419.539,503.929c-1.865,1.055-3.242,2.37-4.132,3.95
	c-0.894,1.58-1.541,3.789-1.945,6.625c2.106-0.647,4.476-1.337,7.11-2.065c2.632-0.729,5.124-1.499,7.475-2.311
	c2.35-0.809,4.334-1.702,5.956-2.674c1.62-0.973,2.431-2.024,2.431-3.16c0-0.647-0.103-1.276-0.304-1.884
	c-0.203-0.607-0.628-1.033-1.276-1.276c-2.27-0.809-4.618-0.973-7.05-0.485c-2.431,0.485-4.457,1.176-6.077,2.065L419.539,503.929z"
	/>
</svg>
