<?xml version="1.0" encoding="utf-8"?>
<!-- Generator: Adobe Illustrator 16.0.0, SVG Export Plug-In . SVG Version: 6.00 Build 0)  -->
<!DOCTYPE svg PUBLIC "-//W3C//DTD SVG 1.1//EN" "http://www.w3.org/Graphics/SVG/1.1/DTD/svg11.dtd">
<svg version="1.1" id="Layer_1" xmlns="http://www.w3.org/2000/svg" xmlns:xlink="http://www.w3.org/1999/xlink" x="0px" y="0px"
	 width="100%" height="100%" viewBox="0 0 1000 1000" style="enable-background:new 0 0 1000 1000;" xml:space="preserve">
<rect x="0.5" style="fill:#FFFFFF;" width="1000" height="1000"/>
<path style="fill:#FFFFFF;stroke:#231F20;stroke-width:2;" d="M307.329,112.785c8.212-27.361,43.089-39.787,60.773-13.26
	c9.654,12.151,5.64,29.577,5.186,43.895c-0.558,17.561-0.81,35.116-1.626,52.669c-3.008,64.675-0.366,156.774-44.514,209.396
	c-44.963,53.593-150.675,58.257-196.166,2.677c-47.816-58.422-38.57-147.404-38.57-217.477c0-26.305-5.391-66.223,8.493-89.501
	c14.738-24.709,60.015-15.497,60.015,14.915c0,72.675-13.59,156.877,9.807,227.074c11.558,34.679,49.402,44.43,81.627,32.594
	c37.331-13.711,43.562-53.871,47.024-89.102C305.052,228.919,304.696,170.699,307.329,112.785z"/>
<path style="fill:#FFFFFF;stroke:#231F20;stroke-width:2;" d="M253.986,782.686c5.155-17.173,13.213,3.493,13.094,10.056
	c-0.278,14.524,0.528,34.647-8.011,47.017c-8.995,13.026-34.098,13.616-42.21-0.718c-8.248-14.571-6.41-34.017-5.635-50.166
	c0-9.607,13.48-16.673,13.48-5.525c0,12.568-0.992,25.157,0.553,37.681c2.363,21.295,24.549,17.994,26.906-1.438
	C253.633,807.368,253.399,794.966,253.986,782.686z"/>
<path style="fill:#FFFFFF;stroke:#231F20;stroke-width:2;" d="M279.842,811.911c0.768-5.075-9.108-9.562-0.663-14.53
	c6.295-3.553,9.062,2.186,16.575-1.437c6.125-2.944,12.933-2.896,18.674,0.995c9.205,5.921,1.48,20.156-6.851,11.822
	c-5.65-3.754-10.401,1.672-14.365,5.635c-3.02,5.485,6.64,38.49-8.122,35.471C275.662,847.932,278.807,818.612,279.842,811.911
	C279.914,811.434,279.768,812.392,279.842,811.911z"/>
<path style="fill:#FFFFFF;stroke:#231F20;stroke-width:2;" d="M321.718,838.597c-8.126-23.023,28.081,7.443,26.243-6.686
	c-1.201-9.2-23.04-5.423-24.641-19.89c-2.043-18.295,17.346-21.976,30.331-16.408c11.4,5.231,2.858,15.189-6.851,11.713
	c-8.686-3.37-14.92,3.818-3.205,6.851C381.318,823.973,345.777,871.654,321.718,838.597z"/>
<path style="fill:#FFFFFF;stroke:#231F20;stroke-width:2;" d="M417.298,837.381c6.549,9.471-6.809,13.459-12.818,4.862
	c-12.584,10.332-30.422,4.892-34.6-10.967c-2.224-8.441-0.538-17.425-0.538-25.994c0-8.615,12.912-13.411,13.48-3.261
	c0.31,7.938-4.597,27.527,4.862,32.045c15.398,6.701,11.763-21.978,12.1-27.018c0.441-6.624,10.066-17.172,13.646-6.464
	C417.412,812.546,408.906,825.547,417.298,837.381C417.961,838.34,416.044,835.613,417.298,837.381z"/>
<path style="fill:#FFFFFF;stroke:#231F20;stroke-width:2;" d="M424.919,838.597c-8.126-23.023,28.081,7.443,26.243-6.686
	c-1.201-9.2-23.04-5.423-24.641-19.89c-2.043-18.295,17.346-21.976,30.331-16.408c11.4,5.231,2.858,15.189-6.851,11.713
	c-8.686-3.37-14.92,3.818-3.205,6.851C484.52,823.973,448.978,871.654,424.919,838.597z"/>
<path style="fill:#FFFFFF;stroke:#231F20;stroke-width:2;" d="M562.376,841.138c2.498,9.068-8.492,10.532-12.817,4.42
	c-8.338,6.25-22.541,6.105-30.221-1.437c-13.492-13.235-1.725-37.177,11.768-44.923C566.516,778.871,551.75,825.291,562.376,841.138
	z"/>
<path style="fill:none;stroke:#231F20;stroke-width:2;" d="M538.951,836.166c8.792-5.589,4.05-17.482,4.42-27.403
	C526.784,811.714,522.915,842.572,538.951,836.166C539.762,835.651,537.846,836.607,538.951,836.166z"/>
<path style="fill:#FFFFFF;stroke:#231F20;stroke-width:2;" d="M571.77,811.911c0.768-5.075-9.108-9.562-0.664-14.53
	c6.295-3.553,9.062,2.186,16.576-1.437c6.125-2.944,12.933-2.896,18.674,0.995c9.205,5.921,1.479,20.156-6.852,11.822
	c-5.65-3.754-10.4,1.672-14.365,5.635c-3.02,5.485,6.641,38.49-8.121,35.471C567.588,847.932,570.732,818.612,571.77,811.911
	C571.841,811.434,571.693,812.392,571.77,811.911z"/>
<path style="fill:#FFFFFF;stroke:#231F20;stroke-width:2;" d="M643.37,832.188c10.155-6.49,14.239,7.13,5.912,12.818
	c-9.939,6.778-23.277,5.365-30.773-4.144c-17.344-21.979,10.218-63.282,35.525-41.604c18.233,15.634-15.575,7.593-16.354,7.681
	C619.641,808.939,626.839,848.245,643.37,832.188z"/>
<path style="fill:#FFFFFF;stroke:#231F20;stroke-width:2;" d="M669.668,809.204c-12.422-3.093-3.809-13.37,4.973-13.37
	c0-24.637,13.48-26.37,13.48,0c5.429-1.311,21.975,3.411,12.816,11.16c-7.554,6.239-12.774-3.761-12.832,8.397
	c-0.035,7.834-0.492,15.837,0.291,23.646c1.209,12.168-13.041,12.949-13.646,1.215C674.348,831.498,679.482,809.483,669.668,809.204
	z"/>
<path style="fill:#FFFFFF;stroke:#231F20;stroke-width:2;" d="M703.038,819.591c9.209-38.216,60.687-22.619,44.958,13.688
	C735.287,862.62,695.241,851.649,703.038,819.591z"/>
<path style="fill:none;stroke:#231F20;stroke-width:2;" d="M716.298,821.911c-2.31,12.346,9.001,23.871,17.79,9.006
	C745.607,811.448,722.583,801.232,716.298,821.911C716.077,823.091,716.812,820.218,716.298,821.911z"/>
<path style="fill:#FFFFFF;stroke:#231F20;stroke-width:2;" d="M754.197,838.597c-8.127-23.023,28.08,7.443,26.242-6.686
	c-1.2-9.2-23.039-5.423-24.641-19.89c-2.043-18.295,17.346-21.976,30.331-16.408c11.399,5.231,2.858,15.189-6.851,11.713
	c-8.687-3.37-14.92,3.818-3.205,6.851C813.797,823.973,778.255,871.654,754.197,838.597z"/>
<path style="fill:#FFFFFF;stroke:#231F20;stroke-width:2;" d="M295.849,942.05c4.673,9.016-6.781,9.155-11.022,3.563
	c-4.86-6.41-7.8-14.898-9.042-22.753c-0.691-4.372,3.222-54.496,18.159-45.534c4.529,2.829-7.603,24.541-8.287,30.373
	C284.247,919.658,286.001,933.996,295.849,942.05z"/>
<path style="fill:#FFFFFF;stroke:#231F20;stroke-width:2;" d="M320.047,938.154c-21.19,0.723-15.332-13.385-15.332-30.414
	c0-4.944-2.918-20.375,1.326-24.489c10.363-10.036,9.345,15.886,9.199,19.104C342.244,887.393,350.267,937.23,320.047,938.154
	C318.444,938.209,321.871,938.099,320.047,938.154z"/>
<path style="fill:none;stroke:#231F20;stroke-width:2;" d="M314.826,916.939c-5.08,16.212,14.958,12.896,14.793,0.786
	C329.436,905.214,319.308,909.515,314.826,916.939z"/>
<path style="fill:#FFFFFF;stroke:#231F20;stroke-width:2;" d="M348.887,910.434c0.576-3.806-6.832-7.173-0.498-10.896
	c1.937-1.094,18.536-3.062,21.713-2.403c4.309,0.892,13.19,8.343,5.718,12.308c-5.186,2.755-6.948-5.156-12.804-0.912
	c-9.076,6.565,2.209,25.728-6.961,29.959C345.599,943.312,348.204,914.855,348.887,910.434
	C348.941,910.075,348.831,910.794,348.887,910.434z"/>
<path style="fill:#FFFFFF;stroke:#231F20;stroke-width:2;" d="M378.554,916.193c6.022-24.975,40.729-20.827,34.973,6.381
	C407.926,948.874,372.324,941.808,378.554,916.193z"/>
<path style="fill:none;stroke:#231F20;stroke-width:2;" d="M388.499,917.934c-1.732,9.261,6.75,17.901,13.343,6.754
	C410.127,910.689,393.226,902.366,388.499,917.934C388.333,918.818,388.885,916.663,388.499,917.934z"/>
<path style="fill:#FFFFFF;stroke:#231F20;stroke-width:2;" d="M462.587,900.199c5.615-7.484,10.376,1.291,8.329,7.21
	c-2.271,6.558-4.253,13.185-6.588,19.724c-7.283,21.82-15.682,2.5-20.221-8.867c-6.561,15.992-13.343,29.613-20.221,4.766
	c-1.496-5.397-8.296-18.438-4.268-23.619c8.298-10.659,12.356,16.964,13.218,19.766c10.409-23.496,12.699-22.813,23.122,1.492
	C458.278,914.333,460.5,906.564,462.587,900.199z"/>
<path style="fill:#FFFFFF;stroke:#231F20;stroke-width:2;" d="M510.486,933.846c-1.582,13.188-10.11-1.322-10.11-7.79
	c0-6.11,3.995-26.073-8.536-16.326c-5.725,4.65-0.524,32.021-10.691,28.344c-10.393-3.47-2.467-50.464,6.05-37.376
	C512.807,884.044,510.486,920.527,510.486,933.846z"/>
<path style="fill:#FFFFFF;stroke:#231F20;stroke-width:2;" d="M565.514,938.154c-21.19,0.723-15.332-13.385-15.332-30.414
	c0-4.944-2.918-20.375,1.325-24.489c10.363-10.036,9.345,15.886,9.199,19.104C587.709,887.393,595.732,937.23,565.514,938.154
	C563.91,938.209,567.336,938.099,565.514,938.154z"/>
<path style="fill:#FFFFFF;stroke:#231F20;stroke-width:2;" d="M560.292,916.939c-5.08,16.212,14.958,12.896,14.793,0.786
	C574.9,905.214,564.773,909.515,560.292,916.939z"/>
<path style="fill:#FFFFFF;stroke:#231F20;stroke-width:2;" d="M621.949,924.896c10.607-2.657,5.105,9.188-1.326,11.436
	c-16.346,6.008-32.198-3.855-28.508-22.292c5.982-29.946,61.777-4.315,11.105,12.017
	C607.971,931.483,617.055,928.232,621.949,924.896z"/>
<path style="fill:none;stroke:#231F20;stroke-width:2;" d="M605.208,910.641c-2.647,1.634-4.028,4.036-4.144,7.21
	C613.904,913.903,621.928,902.649,605.208,910.641z"/>
<path style="fill:#FFFFFF;stroke:#231F20;stroke-width:2;" d="M669.186,932.354c2.424,8.793-27.209,7.219-32.278,2.237
	c-11.737-11.515,0.989-31.314,13.052-35.635C672.835,890.782,661.689,921.117,669.186,932.354z"/>
<path style="fill:none;stroke:#231F20;stroke-width:2;" d="M651.617,928.624c7.146-4.538,3.023-12.726,3.314-20.552
	C641.775,910.413,639.798,933.36,651.617,928.624C652.225,928.238,650.789,928.956,651.617,928.624z"/>
<path style="fill:#FFFFFF;stroke:#231F20;stroke-width:2;" d="M676.23,910.434c0.576-3.806-6.832-7.173-0.498-10.896
	c1.937-1.094,18.535-3.062,21.713-2.403c4.309,0.892,13.189,8.343,5.718,12.308c-5.187,2.755-6.948-5.156-12.804-0.912
	c-9.076,6.565,2.209,25.728-6.961,29.959C672.941,943.312,675.547,914.855,676.23,910.434
	C676.284,910.075,676.174,910.794,676.23,910.434z"/>
<path style="fill:#FFFFFF;stroke:#231F20;stroke-width:2;" d="M706.727,940.973c10.914-10.948,12.109-29.794,6.879-43.84
	c-1.782-4.796-7.908-9.937-8.205-15.083c-0.219-5.678,7.025-7.446,9.613-2.485c12.771,18.012,14.971,39.393,5.512,59.793
	C716.123,948.845,700.139,954.195,706.727,940.973z"/>
<path style="fill:#FFFFFF;stroke:#231F20;stroke-width:2;" d="M402.476,498.73c-23.314,26.934-64.438,59.531-100.471,35.094
	c-8.582-5.82-11.944-26.509-19.427-35.028c-11.092-12.63-10.714,15.709-10.082,21.383c-4.242-4.08-24.273-21.157-29.308-10.659
	c-3.703,7.724,7.674,20.903,12.113,26.425c-7.459-1.984-27.987-8.921-34.167-1.973c-5.399,6.072,18.394,19.97,22.342,22.339
	c-6.846-2.401-23.854-8.216-28.912,0c-5.167,8.395,14.824,19.422,20.133,22.487c15.493,8.948,29.151,33.445,42.311,46.006
	c21.454,20.478,54.229,48.747,86.725,41.872c5.275-1.116,11.15-4.14,13.152-9.514c-1.526,4.096,28.054,0.927,32.051-2.347
	c16.457-13.473,39.799-16.738,58.431-28.229c19.18-11.828,55.312-36.979,40.458-63.478
	C488.779,529.136,437.24,511.098,402.476,498.73"/>
<path style="fill:#FFFFFF;stroke:#231F20;stroke-width:2;" d="M644.831,448.297c0.606,50.252,15.797,88.562,37.672,132.828
	c4.751,9.615,33.999,65.095,22.448,74.962c-13.758,11.75-25.936,37.193,4.521,28.187c-17.037,21.337,29.615,5.496,35.885,2.526
	c-5.488,4.302-10.803,16.427,1.129,14.924c13.783-1.732,27.867-13.478,37.291-22.899c11.514-11.512,11.512-25.519,12.992-41.058
	c5.201-54.543,6.431-109.734,6.168-164.497c-0.158-32.959,10.266-93.356-35.22-97.556
	C722.782,371.565,656.033,400.566,644.831,448.297"/>
<path style="fill:#FFFFFF;stroke:#231F20;stroke-width:2;" d="M896.877,426.347c-3.957-32.267-10.996-67.872-27.901-96.051
	c2.839,0.462,15.966-0.8,11.684-6.277c-7.676-9.816-25.921-14.969-37.306-18.032c1.36-2.889,12.191-29.143,5.791-27.175
	c-12.726,3.912-10.993,16.358-24.52,12.386c-45.395-13.336-94.805-24.96-142.332-21.188c-44.988,3.569-89.066,15.195-132.577,26.608
	c-8.222,2.156-9.774,5.241-13.575-3.04c-4.848-10.559-13.311-19.097-24.529-22.674c-12.234-3.902-25.329-2.011-34.88,6.852
	c-7.095,6.583-8.963,16.678-19.725,18.375c12.407-28.776-14.107-9.154-24.308,0c-7.138-13.693-28.219-14.589-15.769,0
	c-7.917,0.067-15.978,0.597-23.728,2.281c-9.219,2.005-8.038-2.713-15.593-8.368c-19.838-14.847-56.119,0.851-54.034,27.528
	c0.745,9.534,7.234,17.947,14.685,23.458c6.358,4.703-0.312,11.402-3.238,18.406c-2.079,4.977-20.56,55.455-0.884,40.508
	c-1.014,43.057,27.253,81.901,52.502,114.643c37.532,48.666,86.428,88.13,144.181,110.075
	c76.615,29.112,162.365,27.526,238.299-2.763c11.849-4.728,12.354-10.331,18.518,3.746c3.885,8.875,7.436,17.911,10.422,27.13
	c2.65,8.175,11.06,27.532,2.838,33.976c-17.006,13.326-32.112,38.007,3.193,29.229c-21.318,24.181,32.199,3.778,39.257,0
	c-9.042,15.928,10.035,15.594,19.443,9.482c10.96-7.119,25.487-18.895,28.453-32.396c5.56-25.304,5.792-52.393,7.069-78.151
	C901.326,554.216,908.424,486.503,896.877,426.347C895.771,417.323,905.825,472.965,896.877,426.347z"/>
<path style="fill:#FFFFFF;stroke:#231F20;stroke-width:2;" d="M376.991,311.389c-10.653,7.056-20.895,15.688-28.355,26.135
	C320.335,315.485,358.595,276.113,376.991,311.389"/>
<path style="fill:#FFFFFF;stroke:#231F20;stroke-width:2;" d="M476.721,304.012c14.839,7.674,32.8,18.202,40.736,33.512
	C538.877,303.345,499.469,263.468,476.721,304.012"/>
<path style="fill:#FFFFFF;stroke:#231F20;stroke-width:2;" d="M252.014,557.632c10.521-22.309,50.869-1.017,43.365,21.023
	C284.866,609.537,235.589,592.452,252.014,557.632"/>
<path style="fill:#FFFFFF;stroke:#231F20;stroke-width:2;" d="M250.371,514.924c3.427-6.34,24.967,5.911,19.057,15.77
	C263.511,540.549,246.386,522.295,250.371,514.924"/>
<path style="fill:#FFFFFF;stroke:#231F20;stroke-width:2;" d="M277.967,502.108c4.835-3.563,10.758,17.864,4.513,21.254
	C276.242,526.747,271.726,506.709,277.967,502.108"/>
<path style="fill:#FFFFFF;stroke:#231F20;stroke-width:2;" d="M226.389,537.917c0.599-6.509,27.267,0,24.969,8.542
	C249.057,555,225.835,543.943,226.389,537.917"/>
<path style="fill:#FFFFFF;stroke:#231F20;stroke-width:2;" d="M219.819,560.585c1.644-5.255,21.155-2.628,19.12,6.57
	C236.902,576.354,218.176,565.842,219.819,560.585"/>
<path style="fill:#FFFFFF;stroke:#231F20;stroke-width:2;" d="M325.814,419.65c-3.846,73.675,95.798,88.77,128.972,29.968
	C494.937,378.449,327.899,379.381,325.814,419.65"/>
<path style="fill:#FFFFFF;stroke:#231F20;stroke-width:2;" d="M349.681,454.368c9.415,12.682,29.631,28.223,46.539,22.86
	c13.636-4.321,19.183-23.827,21.801-36.221c-14.752,19.853-38.285,21.446-56.118,4.018
	C360.487,451.165,356.122,453.859,349.681,454.368"/>
<path style="fill:#FFFFFF;stroke:#231F20;stroke-width:2;" d="M334.806,413.08c6.547-11.942,66.123-18.133,60.491,1.18
	c-3.441,11.803-22.522,29.911-35.708,28.521C349.939,441.762,328.416,424.732,334.806,413.08"/>
<path style="fill:#FFFFFF;stroke:#231F20;stroke-width:2;" d="M462.289,394.775c1.814,13.08,44.656,16.067,44.656-4.776
	C506.945,369.148,458.365,366.521,462.289,394.775"/>
<path style="fill:#FFFFFF;stroke:#231F20;stroke-width:2;" d="M335.19,393.237c6.366,14.799,33.429,0.03,20.165-9.002
	C349.227,380.062,330.292,382.159,335.19,393.237"/>
<path style="fill:#231F20;stroke:#231F20;stroke-width:2;" d="M448.114,378.294c0,16.788-20.76,16.789-20.76,0
	C427.354,361.507,448.114,361.509,448.114,378.294"/>
<path style="fill:#231F20;stroke:#231F20;stroke-width:2;" d="M381.983,376.341c0,16.785-20.761,16.787-20.761,0
	C361.222,359.555,381.983,359.554,381.983,376.341"/>
<path style="fill:#FFFFFF;stroke:#231F20;stroke-width:2;" d="M541.41,482.827c7.222,57.212,11.896,115.455,5.078,172.93
	c-2.545,21.457-2.522,29.149-21.817,37.658c-32.208,14.205-8.754,23.792,14.403,15.99c-25.596,35.294,8.664,33.55,34.89,21.682
	c-2.731,40.491,49.037,8.089,63.763-3.473c19.584-15.379,33.985-33.396,40.367-57.66c12.868-48.923,18.516-100.296,24.646-150.437"
	/>
<path style="fill:#FFFFFF;stroke:#231F20;stroke-width:2;" d="M446.52,374.434c0,11.64-14.394,11.641-14.394,0
	C432.126,362.794,446.52,362.796,446.52,374.434"/>
<path style="fill:#FFFFFF;stroke:#231F20;stroke-width:2;" d="M380.139,372.481c0,11.638-14.396,11.639-14.396,0
	C365.743,360.842,380.139,360.841,380.139,372.481"/>
</svg>
