<?xml version="1.0" encoding="utf-8"?>
<!-- Generator: Adobe Illustrator 16.0.0, SVG Export Plug-In . SVG Version: 6.00 Build 0)  -->
<!DOCTYPE svg PUBLIC "-//W3C//DTD SVG 1.1//EN" "http://www.w3.org/Graphics/SVG/1.1/DTD/svg11.dtd">
<svg version="1.1" xmlns="http://www.w3.org/2000/svg" xmlns:xlink="http://www.w3.org/1999/xlink" x="0px" y="0px" width="100%"
     height="100%" viewBox="0 0 1000 1000" style="enable-background:new 0 0 1000 1000;" xml:space="preserve">
  <g id="Layer_3">
    <rect style="fill:#FFFFFF;" width="1000" height="1000"/>
  </g>
<g id="Layer_1">
	<path style="fill:#FFFFFF;stroke:#231F20;stroke-width:2;stroke-miterlimit:10;" d="M587.316,509.863
		c-8.165,11.223-18.642,21.649-31.916,31.058c-33.398,23.676-70.911,33.055-109.095,40.675
		c-44.734,8.938-59.498,31.545-89.457,56.835c-18.509-86.947,20.064-195.401,99.725-238.636c2.339-1.289,4.718-2.502,7.133-3.657
		c47.475-22.76,102.897-46.579,120.279-95.62c-0.468,9.331,3.132,11.632,5.749,19.33c1.921-2.034,3.677-4.545,5.787-6.379
		C611.126,377.562,628.365,453.564,587.316,509.863z"/>
	<path style="fill:#FFFFFF;stroke:#231F20;stroke-width:2;stroke-miterlimit:10;" d="M151.499,637.55
		c-6.73,12.22-43.554,14.964-39.605,35.169c3.233,16.546,45.49,13.554,57.451,14.167c17.189,0.885,49.799,1.938,52.741-22.315
		c2.192-18.077-22.635-21.343-12.616-46.618c13.341-33.659,35.836-46.536,9.381-83.592c-16.502-23.115-50.68-43.07-74.294-17.576
		C109.119,555.042,171.092,601.971,151.499,637.55z"/>
	<path style="fill:#FFFFFF;stroke:#231F20;stroke-width:2;stroke-miterlimit:10;" d="M331.834,398.363
		c44.571,30.403,32.753,88.478,34.384,131.789c1.414,37.48,35.664,59.229,39.503,93.942c5.115,46.259-30.895,65.975-70.538,69.546
		c-37.472,0.087-76.629,13.459-111.965-0.867c-53.483-21.964-31.517-89.774-29.099-134.706c0.871-7.762,2.154-15.48,3.875-23.15
		c15.35-68.725,66.192-133.27,136.706-127.957L331.834,398.363z"/>
	<path style="fill:#FFFFFF;stroke:#231F20;stroke-width:2;stroke-miterlimit:10;" d="M355.352,661.345
		c-6.73,12.221-43.554,14.963-39.605,35.169c3.233,16.545,45.49,13.554,57.451,14.17c17.188,0.882,49.8,1.934,52.74-22.319
		c2.193-18.076-22.633-21.34-12.614-46.617c13.34-33.66,35.834-46.535,9.381-83.592c-16.503-23.115-50.681-43.069-74.296-17.575
		C312.973,578.837,374.947,625.768,355.352,661.345z"/>
	<path style="fill:#FFFFFF;stroke:#231F20;stroke-width:2;stroke-miterlimit:10;" d="M148.725,484.574
		c6.365,13.179-0.785,37.413,1.441,53.005c2.982,20.896,9.892,40.531,11.929,61.6c2.883,29.801,10.492,63.169-10.029,87.384
		c-6.381,7.528-24.569,14.645-16.38,26.789c5.34,7.92,34.865,7.38,43.6,6.162c30.396-4.237,28.102-43.442,30.554-68.77
		c3.962-40.924,18-78.429,37.634-114.605c11.334-20.883,18.913-27.747-1.329-46.31c-21.289-19.525-45.105-19.276-70.68-16.716
		L148.725,484.574z"/>
	<path style="fill:#FFFFFF;stroke:#231F20;stroke-width:2;stroke-miterlimit:10;" d="M337.298,484.574
		c-6.364,13.179,0.785,37.413-1.44,53.005c-2.983,20.896-9.893,40.531-11.931,61.6c-2.883,29.801-10.491,63.169,10.03,87.384
		c6.381,7.528,24.568,14.645,16.378,26.789c-5.34,7.92-34.865,7.38-43.599,6.162c-30.398-4.237-28.104-43.442-30.555-68.77
		c-3.961-40.924-18-78.429-37.634-114.605c-11.334-20.883-18.913-27.747,1.33-46.31c21.287-19.525,45.104-19.276,70.679-16.716
		L337.298,484.574z"/>
	<path style="fill:#FFFFFF;stroke:#231F20;stroke-width:2;stroke-miterlimit:10;" d="M350.761,425.793
		c-20.651-35.594-78.557-38.341-114.527-37.271c-33.368,0.992-95.667,9.428-102.545,49.92c5.872-0.267,12.216,1.038,18.18,0.199
		c-13.316,8.458-23.635,28.914-16.138,43.735c2.653-1.562,9.975-1.698,12.705-3.288c-0.499,9.678-4.94,20.478,2.729,28.118
		c2.048-1.406,4.955-2.145,7.104-3.723c8.01,7.889,4.039,27.449,9.458,38.254c1.271-1.382,4.487-3.046,6.309-5.294
		c7.326,5.55,5.099,21.142,12.799,25.095c9.765,5.012,19.808-6.917,25.44-13.741c7.292,7.918,8.371,21.268,16.674,28.646
		c6.835-5.624,10.488-13.132,17.751-18.609c0.034,3.996,2.409,9.862,1.736,14.452c13.518-15.565,34.584-40.011,53.239-48.789
		c-1.332,7.179-2.986,12.871-3.675,20.04c8.472-2.799,14.601-12.889,22.154-18.555c10.185,25.188,30.512-25.936,32.526-34.677
		C356.655,473.033,360.615,442.775,350.761,425.793z"/>
	<path style="fill:#FFFFFF;stroke:#231F20;stroke-width:2;stroke-miterlimit:10;" d="M206.763,234.183
		c-3.125-50.229,12.917-105.729,62.645-127.786c2.844,21.972,22.185,40.887,27.173,62.798c4.986,21.901,6.169,48.808-2.287,70.385
		c-8.953-0.873-14.885-5.418-24.369-7.825c-19.531-4.958-41.395,2.336-61.252,2.428H206.763z"/>
	<path style="fill:#FFFFFF;stroke:#231F20;stroke-width:2;stroke-miterlimit:10;" d="M361.48,283.844
		c3.542-51.209,89.736-51.032,121.958-30.075c-10.16,21.388-24.327,42.529-38.386,62.127c-7.805,10.878-56.301,55.6-60.65,21.43
		L361.48,283.844z"/>
	<path style="fill:#FFFFFF;stroke:#231F20;stroke-width:2;stroke-miterlimit:10;" d="M201.508,238.427
		c-10.712,4.807-34.697,10.591-42.436,19.063c-7.727,8.458-6.933,27.785-5.792,39.724c2.429,25.392,7.083,50.751,5.731,78.739
		c-0.704,14.555-1.838,27.778-5.306,41.596c-2.935,11.703-10.256,23.76-9.642,35.958c2.318,2.12,8.677,6.218,11.601,7.686
		c26.469-18.077,61.193-19.297,93.077-21.146c37.934-2.202,78.819-3.267,114.217,5.919c10.746-18.824,12.776-40.795,23.354-60.901
		c11.69-22.229,16.133-46.736,17.672-71.63c3.978-64.346-94.414-99.339-146.209-97.765
		C238.21,216.268,219.183,230.497,201.508,238.427z"/>
	<path style="fill:#FFFFFF;stroke:#231F20;stroke-width:2;stroke-miterlimit:10;" d="M301.051,354.601
		c-3.821,29.5,28.315,49.78,55.168,43.754c30.915-6.937,36.239-52.936,13.848-71.699c-16.919-14.178-40.825-13.604-56.093,2.712
		C306.11,337.771,302.115,346.394,301.051,354.601z"/>
	<path style="fill:#231F20;stroke:#231F20;stroke-width:2;stroke-miterlimit:10;" d="M362.953,370.009
		c20.278-9.036,17.213-37.814-4.623-42.28c-19.421-3.969-35.276,19.203-21.705,34.833
		C343.436,370.408,352.824,374.522,362.953,370.009z"/>
	<path style="fill:#FFFFFF;stroke:#231F20;stroke-width:2;stroke-miterlimit:10;" d="M363.839,350.86
		c7.248,1.269,12.452-8.195,7.097-13.552c-4.288-4.288-11.821-3.846-13.266,2.172C356.47,344.494,358.207,349.875,363.839,350.86z"
		/>
	<path style="fill:#FFFFFF;stroke:#231F20;stroke-width:2;stroke-miterlimit:10;" d="M193.463,293.882
		c9.6,24.026,42.603,25.812,60.445,9.854c20.541-18.369,5.093-55.564-19.866-60.328c-18.858-3.599-36.772,6.968-41.456,25.831
		C190.174,278.955,190.793,287.197,193.463,293.882z"/>
	<path style="fill:#231F20;stroke:#231F20;stroke-width:2;stroke-miterlimit:10;" d="M247.01,279.352
		c11.572-15.457-2.95-36.016-21.428-30.155c-16.433,5.215-18.656,29.535-1.725,35.656
		C232.355,287.926,241.232,287.073,247.01,279.352z"/>
	<path style="fill:#FFFFFF;stroke:#231F20;stroke-width:2;stroke-miterlimit:10;" d="M239.57,264.433
		c6.041-2.107,5.982-11.501-0.354-13.301c-5.073-1.441-10.609,2.088-9.153,7.271C231.273,262.72,234.873,266.071,239.57,264.433z"/>
	<path style="fill:#FFFFFF;stroke:#231F20;stroke-width:2;stroke-miterlimit:10;" d="M136.005,465.355
		c23.661,18.093,53.567-26.376,21.118-32.625C138.442,429.131,118.331,451.833,136.005,465.355z"/>
	<path style="fill:#FFFFFF;stroke:#231F20;stroke-width:2;stroke-miterlimit:10;" d="M587.316,509.863
		c4.165-28.643,3.438-66.576-11.918-80.261c-14.46,10.408-30.094,27.981-48.344,28.42c6.094-13.226,14.803-26.74,10.6-42.106
		c-14.306,2.931-27.324,14.238-42.192,16.331c8.977-9.894,17.151-23.226,19.396-36.253c-20.152-0.554-38,7.182-58.286,3.801
		c2.339-1.289,4.718-2.502,7.133-3.657c47.475-22.76,102.897-46.579,120.279-95.62c-0.468,9.331,3.132,11.632,5.749,19.33
		c1.921-2.034,3.677-4.545,5.787-6.379C611.126,377.562,628.365,453.564,587.316,509.863z"/>
</g>
<g id="Layer_2">
		<path style="fill:#FFFFFF;stroke:#000000;stroke-width:2;" d="M251.764,771.488c4.184-6.972,14.447-2.227,12.072,5.539
			c-3.073,10.043-10.323,20.115-14.503,29.93c-4.288,9.88-6.629,22.856-12.707,31.713c-7.981,11.583-14.399-9.01-16.354-13.812
			c-3.159-8.021-6.183-16.098-9.282-24.143c-2.671-6.932-10.622-20.086-9.379-27.734c0.654-4.025,5.933-5.664,9.324-4.643
			c4.422,1.342,5.667,8.517,7.096,12.135c4.708,11.926,8.851,24.071,13.291,36.098C237.443,801.271,243.239,785.701,251.764,771.488
			z"/>
		<path style="fill:#FFFFFF;stroke:#000000;stroke-width:2;" d="M314.857,828.836c2.759,3.986,0.742,11.104-4.862,10.828
			c-6.36-0.492-5.188-7.479-10.86-3.848c-10.893,6.973-23.831,3.003-29.803-8.196c-4.899-9.35-2.431-20.82-2.431-30.884
			c0-3.594,1.147-8.416,5.524-9.061c8.409-1.233,8.181,7.831,7.931,13.364c-0.267,5.909-3.228,25.336,7.441,24.992
			c12.3-0.396,9.159-15.301,9.379-22.942c0-4.671,0.055-12.133,4.944-14.709c5.161-2.72,9.42,2.162,9.42,7.195
			C311.542,806.579,307.875,818.989,314.857,828.836C315.52,829.794,313.604,827.068,314.857,828.836z"/>
		<path style="fill:#FFFFFF;stroke:#000000;stroke-width:2;" d="M341.263,830.604c10.613,9.666-8.961,17.606-13.923,5.193
			c-1.113-2.753-0.442-6.809-0.442-9.648c0-14.341,0-28.682,0-43.022c0-3.677,0-7.354,0-11.03c0-8.007,13.48-8.644,13.48-0.719
			c0,9.89,0.11,19.779,0.11,29.669C340.489,808.767,337.443,824.712,341.263,830.604z"/>
		<path style="fill:#FFFFFF;stroke:#000000;stroke-width:2;" d="M358.058,792.04c0.834-2.863,2.936-5.268,6.132-5.636
			c2.863-0.214,5.018,0.929,6.464,3.426c1.644-0.94,3.375-1.677,5.193-2.21c9.622-2.554,18.83,1.548,23.855,10.062
			c12.949,21.938-5.155,43.01-28.275,41.32c0,4.778,0.448,40.7-12.1,25.138c-3.541-4.392-1.381-15.884-1.381-20.787
			C357.948,826.352,356.938,808.998,358.058,792.04z M372.202,806.404c-1.604,2.684-0.773,6.812-0.773,10.001
			c0,7.921-1.266,11.596,9.061,8.784C399.421,820.565,387.26,788.851,372.202,806.404
			C371.98,806.774,373.085,805.374,372.202,806.404z"/>
		<path style="fill:#FFFFFF;stroke:#000000;stroke-width:2;" d="M453.194,822.648c8.713-2.18,11.177,6.91,5.248,11.685
			c-5.573,4.488-15.036,6.712-22.003,6.712c-19.047,0-27.187-20.479-22.085-36.545c4.705-14.819,30.288-25.11,41.327-11.521
			c15.662,19.314-14.964,27.185-27.458,31.216C434.838,831.756,446.137,826.603,453.194,822.648z M430.874,803.643
			c-3.679,2.079-4.955,5.615-5.525,9.613c3.64-1.119,20.884-3.783,20.884-9.281C446.233,796.99,434.042,801.654,430.874,803.643z"/>
		<path style="fill:#FFFFFF;stroke:#000000;stroke-width:2;" d="M467.779,830.051c-1.68-4.759,0.757-10.517,6.52-9.944
			c4.54,0.416,7.018,5.915,11.381,7.293c3.517,1.112,12.45-0.317,7.514-6.077c-3.18-3.176-8.899-3.284-12.901-5.013
			c-26.593-11.489,1.557-45.153,21.741-27.777c3.274,2.819,4.519,9.712-0.456,11.603c-5.691,2.161-10.96-4.369-16.782-2.128
			c-9.54,2.433,14.921,11.215,16.078,11.935c12.27,7.636,6.333,27.658-6.121,31.312C484.954,844.13,473.219,838.25,467.779,830.051z
			"/>
		<path style="fill:#FFFFFF;stroke:#000000;stroke-width:2;" d="M586.341,789.72c3.173-4.229,10.237-5.099,12.071,0.967
			c1.415,4.679-1.666,10.563-3.115,14.939c-2.932,8.847-5.888,17.855-9.453,26.47c-2.772,6.676-11.609,15.582-15.47,3.591
			c-4.536-14.001-13.632-27.185-17.293-41.216c-3.336-11.666,11.754-7.371,15.028-0.109c3.268,7.272,6.278,14.712,9.281,22.099
			C580.535,807.627,583.006,798.417,586.341,789.72z"/>
		<path style="fill:#FFFFFF;stroke:#000000;stroke-width:2;" d="M653.523,828.836c2.756,3.987,0.744,11.104-4.862,10.828
			c-6.36-0.492-5.188-7.479-10.86-3.848c-10.892,6.972-23.832,3.004-29.803-8.196c-4.899-9.35-2.431-20.82-2.431-30.884
			c0-3.593,1.147-8.416,5.524-9.061c8.408-1.233,8.181,7.832,7.932,13.364c-0.267,5.909-3.229,25.336,7.441,24.992
			c12.299-0.396,9.159-15.302,9.379-22.942c0-4.672,0.053-12.133,4.943-14.709c5.162-2.72,9.421,2.161,9.421,7.195
			C650.208,806.579,646.539,818.99,653.523,828.836C654.186,829.794,652.27,827.068,653.523,828.836z"/>
		<path style="fill:#FFFFFF;stroke:#000000;stroke-width:2;" d="M679.93,830.604c10.609,9.674-8.959,17.6-13.924,5.193
			c-1.112-2.753-0.441-6.81-0.441-9.648c0-14.341,0-28.682,0-43.022c0-3.677,0-7.354,0-11.03c0-8.007,13.48-8.644,13.48-0.719
			c0,9.89,0.11,19.779,0.11,29.669C679.155,808.766,676.108,824.715,679.93,830.604z"/>
		<path style="fill:#FFFFFF;stroke:#000000;stroke-width:2;" d="M696.725,792.04c0.832-2.863,2.937-5.269,6.132-5.636
			c2.863-0.214,5.018,0.928,6.464,3.426c1.645-0.94,3.375-1.677,5.193-2.21c9.621-2.554,18.83,1.548,23.855,10.062
			c12.947,21.939-5.154,43.01-28.275,41.32c0,4.781,0.452,40.698-12.1,25.138c-3.54-4.392-1.381-15.884-1.381-20.787
			C696.613,826.354,695.596,808.995,696.725,792.04z M710.867,806.404c-1.602,2.687-0.773,6.811-0.773,10.001
			c0,7.921-1.266,11.596,9.061,8.784C738.079,820.568,725.938,788.854,710.867,806.404
			C710.646,806.774,711.752,805.374,710.867,806.404z"/>
		<path style="fill:#FFFFFF;stroke:#000000;stroke-width:2;" d="M791.861,822.648c8.712-2.181,11.175,6.912,5.247,11.685
			c-5.573,4.488-15.035,6.712-22.003,6.712c-19.049,0-27.186-20.479-22.086-36.545c4.703-14.817,30.291-25.114,41.326-11.521
			c15.669,19.312-14.968,27.185-27.457,31.216C773.506,831.757,784.803,826.601,791.861,822.648z M769.539,803.643
			c-3.678,2.08-4.954,5.615-5.523,9.613c3.64-1.12,20.883-3.783,20.883-9.281C784.898,796.99,772.708,801.654,769.539,803.643z"/>
		<path style="fill:#FFFFFF;stroke:#000000;stroke-width:2;" d="M806.445,830.051c-1.678-4.76,0.756-10.517,6.52-9.944
			c4.54,0.417,7.018,5.914,11.381,7.293c3.519,1.113,12.445-0.316,7.514-6.077c-3.181-3.176-8.898-3.283-12.9-5.013
			c-26.593-11.492,1.557-45.152,21.74-27.777c3.274,2.819,4.519,9.712-0.456,11.603c-5.691,2.161-10.96-4.368-16.782-2.128
			c-9.539,2.432,14.921,11.215,16.078,11.935c12.272,7.633,6.33,27.659-6.121,31.312
			C823.622,844.129,811.883,838.252,806.445,830.051z"/>
		<path style="fill:#FFFFFF;stroke:#000000;stroke-width:2;" d="M391.302,933.504c3.853,7.438-4.449,10.025-9.086,5.718
			c-4.245-3.943-6.747-10.095-8.609-15.461c-5.982-17.241-2.637-34.305,6.051-49.759c5.328-9.47,16.071-4.729,9.282,4.641
			c-3.531,4.871-5.923,9.847-7.086,15.736C379.27,907.474,380.138,924.447,391.302,933.504z"/>
		<path style="fill:#FFFFFF;stroke:#000000;stroke-width:2;" d="M397.849,901.889c0.326-2.164-7.68-14.612,3.688-11.312
			c7.71,2.251,16.855-6.548,24.406,1.947c2.122,2.388,1.851,6.773-1.16,8.371c-3.257,1.727-5.165-1.174-7.707-2.445
			c-5.078-1.267-9.199,4.373-9.199,8.605c0,5.422,0,10.844,0,16.266c0,6.975-10.11,10.358-10.11,1.979
			C395.822,919.81,396.951,907.686,397.849,901.889C397.903,901.529,397.793,902.248,397.849,901.889z"/>
		<path style="fill:#FFFFFF;stroke:#000000;stroke-width:2;" d="M458.263,916.35c7.818-1.958,7.969,6.874,2.237,9.861
			c-6.143,3.208-14.475,5.461-21.195,2.756c-11.145-4.487-13.908-18.597-9.219-28.694c5.092-10.492,25.31-16.036,31.543-3.885
			c7.377,14.384-13.161,18.242-22.096,21.122C444.36,923.027,453.141,919.496,458.263,916.35z M441.522,902.096
			c-2.883,1.629-3.716,4.214-4.144,7.209c2.594-0.797,15.663-3.024,15.663-6.961C453.042,897.123,443.938,900.472,441.522,902.096z"
			/>
		<path style="fill:#FFFFFF;stroke:#000000;stroke-width:2;" d="M509.062,920.824c2.185,3.729,0.401,8.398-4.351,7.915
			c-1.312-0.704-2.624-1.409-3.937-2.113c-2.667,1.758-5.567,2.946-8.702,3.563c-7.106,1.577-14.272-2.224-17.569-8.578
			c-8.644-16.608,7.183-33.24,23.95-30.455c-0.21-4.59,0.831-28.351,9.779-14.875c2.616,3.909,0.308,17.456,0.289,22.25
			C508.505,903.414,506.195,917.029,509.062,920.824C510.002,922.428,508.896,920.604,509.062,920.824z M497.543,916.267
			c1.991-2.991,1.102-7.681,1.056-11.385c-0.094-7.657-12.38-3.833-14.813,1.44C480.568,916.513,488.453,926.4,497.543,916.267
			C497.653,916.102,496.106,917.869,497.543,916.267z"/>
		<path style="fill:#FFFFFF;stroke:#000000;stroke-width:2;" d="M564.006,928.449c-9.381,11.521-8.784-14.635-8.784-16.912
			c0-5.696,1.092-6.39-2.858-9.068c-2.576-1.743-3.246-5.215-1.037-7.583c3.93-4.318,3.843,2.728,3.688-6.63
			c-0.124-7.24,2.461-14.809,10.059-17.01c4.81-1.393,14.681-0.346,16.419,5.531c2.172,7.343-6.581,5.86-10.359,4.352
			c-7.199-2.875-5.801,8.172-5.801,11.851c15.58-1.009,15.746,10.193,0,10.193C565.332,909.443,568.227,923.246,564.006,928.449
			C563.287,929.332,564.724,927.564,564.006,928.449z"/>
		<path style="fill:#FFFFFF;stroke:#000000;stroke-width:2;" d="M579.42,907.648c5.248-21.733,35.076-23.942,35.512,1.118
			C615.403,937.881,572.176,937.516,579.42,907.648z M589.365,909.389c-2.397,12.763,10.51,15.824,14.75,3.75
			C608.917,899.467,593.454,895.887,589.365,909.389C589.199,910.272,589.75,908.118,589.365,909.389z"/>
		<path style="fill:#FFFFFF;stroke:#000000;stroke-width:2;" d="M646.548,889.582c6.382-4.147,11.165,3.648,5.802,8.453
			c-3.478,3.109-6.637,6.586-9.779,10.027c2.562,2.979,5.039,6.045,7.312,9.251c2.478,3.492,8.554,10.785,1.637,13.663
			c-6.272,2.612-12.428-11.282-15.58-15.124c-3.21,3.908-9.289,17.726-16.035,14.254c-6.032-3.102,0.93-11.293,3.148-14.254
			c3.765-5.016,7.657-6.051,3.15-10.939c-3.033-3.247-12.893-10.052-7.045-14.958c5.521-4.639,13.971,7.193,16.781,10.4
			C639.262,896.573,642.852,892.992,646.548,889.582z"/>
		<path style="fill:#FFFFFF;stroke:#000000;stroke-width:2;" d="M659.641,932.427c10.022-10.022,11.427-26.059,8.225-39.396
			c-1.557-6.485-5.082-11.652-8.763-17.082c-5.196-7.638,6.295-8.81,10.606-2.341c9.797,14.697,12.393,32.186,6.922,49.205
			c-1.935,5.798-6.352,18.729-14.255,18.729C657.082,941.543,656.416,935.425,659.641,932.427z"/>
		<path style="fill:#FFFFFF;stroke:#000000;stroke-width:2;" d="M836.568,131.359c9.228-15.373,29.148-22.195,45.579-13.833
			c17.293,8.802,20.184,28.597,13.413,45.387c-7.315,18.143-19.906,35.065-28.643,52.706c-10.352,20.9-20.131,42.078-29.594,63.394
			c-17.846,40.199-34.135,80.923-49.562,122.103c-6.747,18.011-12.564,36.903-20.389,54.454
			c-7.637,17.129-22.47,30.927-42.479,24.425c-19.405-6.306-23.963-24.795-30.441-41.944c-8.235-21.797-16.934-43.415-25.091-65.24
			c-15.685-41.965-32.414-83.539-48.127-125.497c-7.002-18.697-13.813-37.45-21.184-56.007
			c-5.896-14.845-16.891-36.207-14.244-52.486c2.64-16.235,22.226-25.85,37.198-24.929c22.572,1.389,27.776,20.074,35.159,38.148
			c27.538,67.42,50.979,136.429,76.193,204.734c6.39-15.974,11.708-31.928,17.437-48.098c7.367-20.798,18.296-40.234,26.989-60.498
			C795.5,209.214,812.067,166.217,836.568,131.359z"/>
</g>
</svg>
