<?xml version="1.0" encoding="utf-8"?>
<!-- Generator: Adobe Illustrator 16.0.0, SVG Export Plug-In . SVG Version: 6.00 Build 0)  -->
<!DOCTYPE svg PUBLIC "-//W3C//DTD SVG 1.1//EN" "http://www.w3.org/Graphics/SVG/1.1/DTD/svg11.dtd">
<svg version="1.1" xmlns="http://www.w3.org/2000/svg" xmlns:xlink="http://www.w3.org/1999/xlink" x="0px" y="0px" width="100%"
	 height="100%" viewBox="0 0 1000 1000" style="enable-background:new 0 0 1000 1000;" xml:space="preserve">
  <g id="Layer_3">
    <rect style="fill:#FFFFFF;" width="1000" height="1000"/>
  </g>
  <g id="Layer_1">
	<path style="fill:#FFFFFF;stroke:#000000;stroke-width:2;" d="M193.201,789.944c0.589-2.21,1.658-3.757,3.205-4.641
		s3.13-1.178,4.751-0.884c1.62,0.295,2.983,1.124,4.088,2.486c1.105,1.364,1.509,3.149,1.215,5.359
		c-0.442,2.8-1.013,5.599-1.712,8.397c-0.701,2.801-1.456,5.562-2.265,8.287c-1.105,3.536-2.34,6.999-3.702,10.387
		c-1.364,3.39-2.634,6.851-3.812,10.387c-1.179,3.315-2.375,6.612-3.591,9.89c-1.216,3.278-2.486,6.574-3.812,9.89
		c-0.442,1.104-0.903,2.265-1.381,3.48c-0.479,1.216-1.087,2.266-1.823,3.149c-1.105,1.473-2.616,2.356-4.531,2.651
		c-1.917,0.294-3.61-0.185-5.083-1.437c-1.179-1.032-2.027-2.303-2.542-3.812c-0.516-1.509-1.069-2.965-1.658-4.365
		c-0.663-1.768-1.419-3.719-2.265-5.855c-0.848-2.136-1.566-4.051-2.155-5.746c-1.253-3.315-2.45-6.647-3.591-10
		c-1.143-3.352-2.34-6.686-3.591-10c-1.033,3.094-2.119,6.096-3.26,9.005c-1.143,2.911-2.229,5.876-3.26,8.896
		c-0.812,1.989-1.585,3.978-2.32,5.967c-0.737,1.989-1.511,3.941-2.32,5.856c-0.516,1.326-0.939,2.339-1.271,3.039
		s-0.867,1.786-1.602,3.259c-0.516,1.178-1.29,2.228-2.32,3.149c-1.033,0.92-2.119,1.547-3.26,1.879
		c-1.143,0.331-2.303,0.312-3.48-0.056c-1.179-0.369-2.21-1.253-3.094-2.651c-1.253-1.915-2.118-4.161-2.597-6.741
		c-0.48-2.577-1.05-4.934-1.712-7.071c-0.442-1.326-0.867-2.652-1.271-3.978c-0.406-1.326-0.829-2.614-1.271-3.868
		c-0.442-1.325-0.903-2.651-1.381-3.978c-0.48-1.326-0.939-2.614-1.381-3.867c-1.474-4.271-3.002-8.489-4.585-12.652
		c-1.585-4.161-3.187-8.343-4.807-12.541c-0.295-0.884-0.701-1.785-1.215-2.707c-0.517-0.921-0.995-1.879-1.437-2.873
		c-0.442-0.995-0.792-1.989-1.05-2.983c-0.259-0.995-0.351-1.971-0.276-2.929c0.147-1.252,0.608-2.32,1.381-3.204
		s1.675-1.528,2.707-1.934c1.031-0.404,2.136-0.553,3.315-0.442c1.178,0.11,2.246,0.571,3.205,1.382
		c1.989,1.695,3.48,3.941,4.475,6.74c0.995,2.8,1.934,5.378,2.818,7.734c1.03,2.579,1.989,5.176,2.873,7.79
		c0.884,2.616,1.841,5.213,2.873,7.79c1.031,2.801,2.025,5.562,2.983,8.287c0.957,2.727,1.878,5.489,2.763,8.287
		c0.293-0.662,0.552-1.343,0.773-2.044c0.221-0.699,0.478-1.417,0.773-2.154c1.473-3.683,2.854-7.329,4.144-10.939
		c1.288-3.608,2.486-7.293,3.591-11.05c0.368-1.03,0.68-2.08,0.939-3.149c0.257-1.066,0.534-2.116,0.829-3.148
		c0.515-1.769,0.846-3.149,0.995-4.144c0.147-0.995,0.589-2.081,1.326-3.26c0.663-1.031,1.547-1.785,2.652-2.266
		c1.105-0.479,2.246-0.699,3.425-0.663c1.178,0.038,2.265,0.351,3.26,0.939c0.995,0.591,1.749,1.475,2.265,2.652
		c0.221,0.441,0.515,1.123,0.884,2.044c0.368,0.922,0.736,1.916,1.105,2.983c0.368,1.068,0.736,2.063,1.105,2.983
		c0.368,0.922,0.625,1.602,0.773,2.044c0.884,2.358,1.73,4.679,2.542,6.961c0.81,2.284,1.62,4.605,2.431,6.962
		c1.031,3.021,2.081,5.985,3.149,8.895c1.067,2.911,2.155,5.802,3.26,8.675c0.663-1.915,1.288-3.868,1.878-5.856
		c0.589-1.989,1.252-3.94,1.989-5.856c1.989-5.304,3.884-10.608,5.69-15.912c1.804-5.304,3.186-10.718,4.144-16.243L193.201,789.944
		z"/>
	<path style="fill:#FFFFFF;stroke:#000000;stroke-width:2;" d="M256.737,849.171c0.589,2.138,0.479,3.906-0.332,5.305
		c-0.812,1.398-1.934,2.337-3.37,2.817c-1.437,0.479-3.002,0.423-4.696-0.166c-1.696-0.59-3.168-1.768-4.42-3.536
		c-2.063,1.547-4.071,2.634-6.022,3.26c-1.953,0.625-4.182,0.976-6.685,1.05c-3.757,0.146-7.11-0.276-10.055-1.271
		c-2.947-0.994-5.433-2.486-7.458-4.476c-2.027-1.988-3.519-4.475-4.475-7.458c-0.958-2.983-1.29-6.426-0.995-10.332
		c0.147-1.619,0.423-3.204,0.829-4.751c0.404-1.547,0.865-3.056,1.381-4.53c0.589-1.619,1.417-3.352,2.486-5.193
		c1.067-1.841,2.155-3.426,3.26-4.752c3.978-4.861,8.95-8.359,14.917-10.497c1.031-0.367,2.431-0.699,4.199-0.994
		c1.768-0.294,3.553-0.423,5.359-0.387c1.804,0.038,3.536,0.276,5.193,0.718c1.657,0.442,2.89,1.216,3.702,2.321
		c0.663,0.884,1.141,1.657,1.437,2.32c0.293,0.663,0.459,1.363,0.497,2.1c0.036,0.736,0.036,1.529,0,2.375
		c-0.038,0.848-0.055,1.897-0.055,3.149c0,2.063-0.019,4.071-0.055,6.022c-0.038,1.952-0.019,3.922,0.055,5.911
		c0,0.663,0,1.53,0,2.597c0,1.068,0.036,2.192,0.11,3.37c0.073,1.18,0.166,2.304,0.276,3.37c0.11,1.069,0.276,1.934,0.497,2.597
		L256.737,849.171z"/>
	<path style="fill:#FFFFFF;stroke:#000000;stroke-width:2;" d="M233.312,844.199c0.81-0.515,1.73-1.086,2.762-1.713
		c1.031-0.625,1.951-1.344,2.763-2.154c-0.663-3.904-1.05-7.808-1.16-11.713c-0.111-3.904-0.093-7.846,0.055-11.823
		c-3.315,0.59-6.298,2.026-8.95,4.31c-2.652,2.284-4.494,4.972-5.525,8.065c-0.442,1.254-0.812,2.542-1.105,3.868
		c-0.295,1.325-0.406,2.615-0.332,3.867c0.072,1.695,0.515,3.113,1.326,4.254c0.81,1.144,1.785,2.008,2.928,2.597
		c1.142,0.591,2.357,0.922,3.646,0.994C231.008,844.825,232.207,844.641,233.312,844.199z"/>
	<path style="fill:#FFFFFF;stroke:#000000;stroke-width:2;" d="M280.052,847.183c0.81,0.737,1.492,1.676,2.044,2.817
		c0.553,1.143,0.846,2.284,0.884,3.426c0.037,1.141-0.221,2.21-0.773,3.204c-0.552,0.994-1.529,1.749-2.928,2.266
		c-1.104,0.367-2.32,0.441-3.646,0.221c-1.326-0.221-2.635-0.663-3.923-1.326c-1.29-0.663-2.431-1.455-3.425-2.376
		c-0.995-0.922-1.713-1.934-2.155-3.038c-0.148-0.368-0.259-0.791-0.332-1.271c-0.074-0.479-0.11-0.901-0.11-1.271v-61.325
		c0-1.694,0.644-3.131,1.934-4.31c1.288-1.178,2.707-1.879,4.254-2.1c0.735-0.072,1.528,0.038,2.375,0.331
		c0.846,0.296,1.638,0.719,2.375,1.271c0.736,0.552,1.343,1.198,1.823,1.934c0.479,0.737,0.718,1.511,0.718,2.32
		c0,1.916,0,4.458,0,7.624c0,3.168,0.018,6.63,0.055,10.387c0.037,3.757,0.055,7.644,0.055,11.657c0,4.017-0.019,7.864-0.055,11.547
		c-0.038,3.685-0.055,7.055-0.055,10.111c0,3.058-0.038,5.507-0.11,7.348L280.052,847.183z"/>
	<path style="fill:#FFFFFF;stroke:#000000;stroke-width:2;" d="M310.771,847.183c0.81,0.737,1.492,1.676,2.044,2.817
		c0.553,1.143,0.846,2.284,0.884,3.426c0.037,1.141-0.221,2.21-0.773,3.204c-0.552,0.994-1.529,1.749-2.928,2.266
		c-1.104,0.367-2.32,0.441-3.646,0.221c-1.326-0.221-2.635-0.663-3.923-1.326c-1.29-0.663-2.431-1.455-3.425-2.376
		c-0.995-0.922-1.713-1.934-2.155-3.038c-0.148-0.368-0.259-0.791-0.332-1.271c-0.074-0.479-0.11-0.901-0.11-1.271v-61.325
		c0-1.694,0.644-3.131,1.934-4.31c1.288-1.178,2.707-1.879,4.254-2.1c0.735-0.072,1.528,0.038,2.375,0.331
		c0.846,0.296,1.638,0.719,2.375,1.271c0.736,0.552,1.343,1.198,1.823,1.934c0.479,0.737,0.718,1.511,0.718,2.32
		c0,1.916,0,4.458,0,7.624c0,3.168,0.018,6.63,0.055,10.387c0.037,3.757,0.055,7.644,0.055,11.657c0,4.017-0.019,7.864-0.055,11.547
		c-0.038,3.685-0.055,7.055-0.055,10.111c0,3.058-0.038,5.507-0.11,7.348L310.771,847.183z"/>
	<path style="fill:#FFFFFF;stroke:#000000;stroke-width:2;" d="M368.12,849.171c0.589,2.138,0.479,3.906-0.332,5.305
		c-0.812,1.398-1.934,2.337-3.37,2.817c-1.437,0.479-3.002,0.423-4.696-0.166c-1.696-0.59-3.168-1.768-4.42-3.536
		c-2.063,1.547-4.071,2.634-6.022,3.26c-1.953,0.625-4.182,0.976-6.685,1.05c-3.757,0.146-7.11-0.276-10.055-1.271
		c-2.947-0.994-5.433-2.486-7.458-4.476c-2.027-1.988-3.519-4.475-4.475-7.458c-0.958-2.983-1.29-6.426-0.995-10.332
		c0.147-1.619,0.423-3.204,0.829-4.751c0.404-1.547,0.865-3.056,1.381-4.53c0.589-1.619,1.417-3.352,2.486-5.193
		c1.067-1.841,2.155-3.426,3.26-4.752c3.978-4.861,8.95-8.359,14.917-10.497c1.031-0.367,2.431-0.699,4.199-0.994
		c1.768-0.294,3.553-0.423,5.359-0.387c1.804,0.038,3.536,0.276,5.193,0.718c1.657,0.442,2.89,1.216,3.702,2.321
		c0.663,0.884,1.141,1.657,1.437,2.32c0.293,0.663,0.459,1.363,0.497,2.1c0.036,0.736,0.036,1.529,0,2.375
		c-0.038,0.848-0.055,1.897-0.055,3.149c0,2.063-0.019,4.071-0.055,6.022c-0.038,1.952-0.019,3.922,0.055,5.911
		c0,0.663,0,1.53,0,2.597c0,1.068,0.036,2.192,0.11,3.37c0.073,1.18,0.166,2.304,0.276,3.37c0.11,1.069,0.276,1.934,0.497,2.597
		L368.12,849.171z"/>
	<path style="fill:#FFFFFF;stroke:#000000;stroke-width:2;" d="M344.695,844.199c0.81-0.515,1.73-1.086,2.762-1.713
		c1.031-0.625,1.951-1.344,2.763-2.154c-0.663-3.904-1.05-7.808-1.16-11.713c-0.111-3.904-0.093-7.846,0.055-11.823
		c-3.315,0.59-6.298,2.026-8.95,4.31c-2.652,2.284-4.494,4.972-5.525,8.065c-0.442,1.254-0.812,2.542-1.105,3.868
		c-0.295,1.325-0.406,2.615-0.332,3.867c0.072,1.695,0.515,3.113,1.326,4.254c0.81,1.144,1.785,2.008,2.928,2.597
		c1.142,0.591,2.357,0.922,3.646,0.994C342.392,844.825,343.59,844.641,344.695,844.199z"/>
	<path style="fill:#FFFFFF;stroke:#000000;stroke-width:2;" d="M398.726,856.906c-2.138,0.072-4.182-0.074-6.133-0.442
		c-1.953-0.369-3.886-0.994-5.801-1.878c-0.958,0.515-1.897,0.773-2.818,0.773c-0.922,0-1.768-0.148-2.542-0.442
		c-0.773-0.295-1.437-0.646-1.989-1.05c-0.553-0.403-0.939-0.718-1.16-0.938c-0.812-1.178-1.29-2.504-1.437-3.979
		c-0.148-1.473,0.332-2.873,1.437-4.199v-56.795c0-1.694,0.588-3.111,1.768-4.254c1.178-1.142,2.542-1.86,4.089-2.155
		c1.547-0.293,3.039-0.036,4.475,0.773c1.436,0.812,2.412,2.284,2.928,4.42c0.294,1.326,0.534,2.635,0.718,3.923
		c0.183,1.29,0.294,2.781,0.332,4.475c0.037,1.696,0.037,3.646,0,5.856c-0.038,2.21-0.129,4.937-0.276,8.177
		c0.663-0.367,1.343-0.718,2.044-1.049c0.699-0.332,1.417-0.681,2.155-1.05c2.062-0.957,4.271-1.547,6.63-1.769
		c2.356-0.221,4.658-0.091,6.906,0.387c2.247,0.48,4.346,1.364,6.298,2.652c1.951,1.289,3.553,2.966,4.807,5.027
		c1.768,2.947,2.965,6.392,3.591,10.332c0.625,3.941,0.625,7.845,0,11.712c-0.626,3.868-1.917,7.459-3.867,10.773
		c-1.953,3.315-4.696,5.784-8.232,7.403c-2.209,1.031-4.475,1.823-6.795,2.376S401.157,856.832,398.726,856.906z"/>
	<path style="fill:#FFFFFF;stroke:#000000;stroke-width:2;" d="M391.765,828.619v13.26c0.147,0.148,0.293,0.259,0.442,0.331
		c0.147,0.074,0.293,0.185,0.442,0.331c6.63,2.21,12.376,0.701,17.238-4.53c1.105-2.945,1.639-5.727,1.602-8.342
		c-0.038-2.614-0.535-5.432-1.492-8.453c-0.369-0.884-0.977-1.454-1.823-1.713c-0.848-0.258-1.602-0.57-2.265-0.939
		c-1.179-0.221-2.45,0-3.812,0.663c-1.364,0.663-2.671,1.492-3.923,2.486c-1.253,0.994-2.395,2.082-3.425,3.26
		c-1.032,1.179-1.842,2.174-2.431,2.983L391.765,828.619z"/>
	<path style="fill:#FFFFFF;stroke:#000000;stroke-width:2;" d="M434.416,788.066c0.293-2.725,1.233-4.732,2.818-6.022
		c1.583-1.288,3.26-1.914,5.028-1.878c1.768,0.038,3.406,0.718,4.917,2.044c1.509,1.326,2.301,3.204,2.375,5.636
		c0.147,2.505-0.497,4.438-1.934,5.801c-1.437,1.364-3.077,2.138-4.917,2.32c-1.842,0.185-3.574-0.312-5.193-1.491
		c-1.622-1.178-2.616-3.057-2.983-5.636L434.416,788.066z"/>
	<path style="fill:#FFFFFF;stroke:#000000;stroke-width:2;" d="M449.001,850.939c-0.148,1.475-0.663,2.781-1.547,3.923
		c-0.884,1.141-1.897,1.97-3.039,2.485c-1.143,0.515-2.375,0.625-3.702,0.332c-1.326-0.295-2.505-1.105-3.536-2.431
		c-0.591-0.737-1.014-1.564-1.271-2.486c-0.259-0.921-0.424-1.879-0.497-2.873c-0.074-0.994-0.093-1.989-0.055-2.983
		c0.036-0.994,0.055-1.896,0.055-2.707c-0.074-4.346-0.093-8.655-0.055-12.929c0.036-4.271,0.017-8.58-0.055-12.928
		c0-1.769-0.111-3.554-0.332-5.359c-0.221-1.804-0.11-3.591,0.332-5.359c0.368-1.325,1.012-2.467,1.934-3.425
		c0.92-0.957,1.951-1.62,3.094-1.989c1.142-0.368,2.321-0.404,3.536-0.11c1.215,0.295,2.265,1.068,3.149,2.32
		c1.178,1.475,1.768,2.928,1.768,4.364s0,3.188,0,5.249c0,2.505,0,5.011,0,7.514c0,2.505,0.036,4.973,0.11,7.403
		c0.073,3.536,0.111,7.072,0.111,10.607c0,3.536,0,7.072,0,10.608V850.939z"/>
	<path style="fill:#FFFFFF;stroke:#000000;stroke-width:2;" d="M507.123,849.171c0.589,2.138,0.479,3.906-0.332,5.305
		s-1.934,2.337-3.369,2.817c-1.438,0.479-3.003,0.423-4.696-0.166c-1.696-0.59-3.168-1.768-4.42-3.536
		c-2.063,1.547-4.071,2.634-6.022,3.26c-1.953,0.625-4.182,0.976-6.685,1.05c-3.757,0.146-7.11-0.276-10.055-1.271
		c-2.947-0.994-5.433-2.486-7.458-4.476c-2.027-1.988-3.519-4.475-4.475-7.458c-0.958-2.983-1.29-6.426-0.995-10.332
		c0.147-1.619,0.423-3.204,0.829-4.751c0.404-1.547,0.865-3.056,1.381-4.53c0.589-1.619,1.417-3.352,2.486-5.193
		c1.067-1.841,2.155-3.426,3.26-4.752c3.978-4.861,8.95-8.359,14.917-10.497c1.031-0.367,2.431-0.699,4.199-0.994
		c1.768-0.294,3.553-0.423,5.359-0.387c1.804,0.038,3.536,0.276,5.193,0.718c1.657,0.442,2.89,1.216,3.702,2.321
		c0.663,0.884,1.141,1.657,1.436,2.32c0.294,0.663,0.459,1.363,0.498,2.1c0.035,0.736,0.035,1.529,0,2.375
		c-0.039,0.848-0.056,1.897-0.056,3.149c0,2.063-0.019,4.071-0.056,6.022c-0.037,1.952-0.019,3.922,0.056,5.911
		c0,0.663,0,1.53,0,2.597c0,1.068,0.036,2.192,0.11,3.37c0.072,1.18,0.166,2.304,0.276,3.37c0.11,1.069,0.276,1.934,0.497,2.597
		L507.123,849.171z"/>
	<path style="fill:#FFFFFF;stroke:#000000;stroke-width:2;" d="M483.698,844.199c0.81-0.515,1.73-1.086,2.762-1.713
		c1.031-0.625,1.951-1.344,2.763-2.154c-0.663-3.904-1.05-7.808-1.16-11.713c-0.111-3.904-0.093-7.846,0.055-11.823
		c-3.315,0.59-6.298,2.026-8.95,4.31c-2.652,2.284-4.494,4.972-5.525,8.065c-0.442,1.254-0.812,2.542-1.105,3.868
		c-0.295,1.325-0.406,2.615-0.332,3.867c0.072,1.695,0.515,3.113,1.326,4.254c0.81,1.144,1.785,2.008,2.928,2.597
		c1.142,0.591,2.357,0.922,3.646,0.994C481.395,844.825,482.593,844.641,483.698,844.199z"/>
	<path style="fill:#FFFFFF;stroke:#000000;stroke-width:2;" d="M579.055,856.906c-2.139,0.072-4.182-0.074-6.133-0.442
		c-1.953-0.369-3.887-0.994-5.801-1.878c-0.959,0.515-1.898,0.773-2.818,0.773c-0.922,0-1.768-0.148-2.541-0.442
		c-0.773-0.295-1.438-0.646-1.989-1.05c-0.553-0.403-0.939-0.718-1.16-0.938c-0.812-1.178-1.29-2.504-1.437-3.979
		c-0.148-1.473,0.332-2.873,1.437-4.199v-56.795c0-1.694,0.589-3.111,1.768-4.254c1.178-1.142,2.542-1.86,4.089-2.155
		c1.547-0.293,3.039-0.036,4.475,0.773c1.437,0.812,2.412,2.284,2.928,4.42c0.295,1.326,0.534,2.635,0.719,3.923
		c0.184,1.29,0.294,2.781,0.332,4.475c0.036,1.696,0.036,3.646,0,5.856c-0.038,2.21-0.13,4.937-0.276,8.177
		c0.663-0.367,1.343-0.718,2.044-1.049c0.699-0.332,1.418-0.681,2.154-1.05c2.062-0.957,4.271-1.547,6.631-1.769
		c2.355-0.221,4.658-0.091,6.905,0.387c2.247,0.48,4.346,1.364,6.298,2.652c1.951,1.289,3.554,2.966,4.807,5.027
		c1.769,2.947,2.965,6.392,3.592,10.332c0.625,3.941,0.625,7.845,0,11.712c-0.627,3.868-1.916,7.459-3.867,10.773
		c-1.953,3.315-4.696,5.784-8.232,7.403c-2.209,1.031-4.475,1.823-6.795,2.376S581.484,856.832,579.055,856.906z"/>
	<path style="fill:#FFFFFF;stroke:#000000;stroke-width:2;" d="M572.093,828.619v13.26c0.147,0.148,0.294,0.259,0.442,0.331
		c0.146,0.074,0.293,0.185,0.441,0.331c6.63,2.21,12.376,0.701,17.238-4.53c1.104-2.945,1.639-5.727,1.602-8.342
		c-0.037-2.614-0.535-5.432-1.492-8.453c-0.369-0.884-0.977-1.454-1.822-1.713c-0.848-0.258-1.603-0.57-2.266-0.939
		c-1.18-0.221-2.449,0-3.812,0.663s-2.67,1.492-3.922,2.486c-1.254,0.994-2.395,2.082-3.426,3.26
		c-1.032,1.179-1.842,2.174-2.431,2.983L572.093,828.619z"/>
	<path style="fill:#FFFFFF;stroke:#000000;stroke-width:2;" d="M614.744,788.066c0.293-2.725,1.232-4.732,2.818-6.022
		c1.582-1.288,3.26-1.914,5.027-1.878c1.768,0.038,3.406,0.718,4.917,2.044c1.509,1.326,2.302,3.204,2.376,5.636
		c0.146,2.505-0.498,4.438-1.934,5.801c-1.438,1.364-3.077,2.138-4.918,2.32c-1.842,0.185-3.574-0.312-5.193-1.491
		c-1.621-1.178-2.615-3.057-2.982-5.636L614.744,788.066z"/>
	<path style="fill:#FFFFFF;stroke:#000000;stroke-width:2;" d="M629.33,850.939c-0.148,1.475-0.663,2.781-1.547,3.923
		c-0.885,1.141-1.897,1.97-3.039,2.485c-1.143,0.515-2.375,0.625-3.701,0.332c-1.326-0.295-2.506-1.105-3.536-2.431
		c-0.591-0.737-1.014-1.564-1.271-2.486c-0.26-0.921-0.425-1.879-0.498-2.873c-0.074-0.994-0.093-1.989-0.055-2.983
		c0.036-0.994,0.055-1.896,0.055-2.707c-0.074-4.346-0.093-8.655-0.055-12.929c0.036-4.271,0.018-8.58-0.055-12.928
		c0-1.769-0.111-3.554-0.332-5.359c-0.221-1.804-0.11-3.591,0.332-5.359c0.367-1.325,1.012-2.467,1.934-3.425
		c0.92-0.957,1.951-1.62,3.094-1.989c1.141-0.368,2.32-0.404,3.535-0.11c1.216,0.295,2.266,1.068,3.149,2.32
		c1.178,1.475,1.769,2.928,1.769,4.364s0,3.188,0,5.249c0,2.505,0,5.011,0,7.514c0,2.505,0.035,4.973,0.109,7.403
		c0.073,3.536,0.111,7.072,0.111,10.607c0,3.536,0,7.072,0,10.608V850.939z"/>
	<path style="fill:#FFFFFF;stroke:#000000;stroke-width:2;" d="M669.22,840.221c1.841-1.177,3.591-1.693,5.249-1.547
		c1.657,0.148,3.02,0.719,4.088,1.713c1.067,0.994,1.658,2.32,1.768,3.978c0.111,1.658-0.461,3.408-1.712,5.249
		c-0.812,1.254-1.972,2.395-3.481,3.426c-1.51,1.03-2.965,1.84-4.364,2.431c-3.242,1.473-6.519,2.136-9.834,1.989
		c-3.315-0.148-6.392-0.959-9.227-2.432c-2.837-1.473-5.286-3.517-7.349-6.132c-2.062-2.614-3.463-5.653-4.198-9.116
		c-1.475-6.63-1.179-13.001,0.884-19.116c0.811-2.21,1.785-4.346,2.928-6.409c1.142-2.062,2.523-3.939,4.145-5.635
		c1.619-1.694,3.426-3.186,5.414-4.476c1.988-1.288,4.16-2.154,6.52-2.597c1.619-0.293,3.683-0.276,6.188,0.056
		c2.504,0.331,4.953,0.977,7.348,1.934c2.394,0.958,4.493,2.21,6.299,3.757c1.805,1.547,2.818,3.389,3.039,5.524
		c0.146,1.18,0,2.266-0.442,3.26c-0.442,0.995-1.069,1.823-1.878,2.486c-0.812,0.663-1.751,1.124-2.818,1.381
		c-1.068,0.26-2.154,0.24-3.26-0.055c-1.326-0.368-2.375-0.865-3.148-1.492c-0.773-0.625-1.787-1.453-3.039-2.485
		c-0.59-0.147-1.143-0.387-1.658-0.719c-0.516-0.331-1.068-0.459-1.656-0.387l-2.984,0.331c-0.516,0.296-0.994,0.553-1.436,0.774
		c-0.442,0.221-0.885,0.441-1.326,0.662c-2.506,2.506-4.348,5.287-5.525,8.343c-1.18,3.058-1.475,6.354-0.884,9.89
		c0.368,2.284,1.086,4.163,2.155,5.636c1.066,1.474,2.32,2.486,3.756,3.038c1.438,0.553,3.02,0.608,4.752,0.166
		c1.73-0.442,3.443-1.437,5.139-2.983L669.22,840.221z"/>
	<path style="fill:#FFFFFF;stroke:#000000;stroke-width:2;" d="M685.795,827.624c0.514-2.136,1.232-4.234,2.154-6.298
		c0.92-2.062,2.045-4.033,3.37-5.912c1.326-1.878,2.817-3.591,4.476-5.138c1.657-1.547,3.442-2.799,5.359-3.757
		c3.387-1.769,6.795-2.669,10.221-2.707c3.425-0.036,6.61,0.646,9.558,2.044c2.945,1.4,5.451,3.48,7.514,6.243
		s3.426,6.06,4.088,9.89c0.369,2.505,0.57,4.881,0.609,7.127c0.035,2.248-0.205,4.586-0.719,7.017
		c-0.738,3.463-2.229,6.906-4.475,10.331c-2.248,3.426-4.938,6.299-8.066,8.619c-3.133,2.32-6.558,3.849-10.276,4.586
		c-3.721,0.735-7.459,0.146-11.217-1.769c-1.695-0.812-3.223-1.75-4.585-2.817c-1.364-1.067-2.597-2.338-3.702-3.812
		c-1.253-1.619-2.229-3.314-2.928-5.083c-0.701-1.768-1.271-3.608-1.713-5.524c-0.516-2.062-0.701-4.144-0.553-6.243
		c0.147-2.1,0.404-4.144,0.773-6.133L685.795,827.624z"/>
	<path style="fill:#FFFFFF;stroke:#000000;stroke-width:2;" d="M699.055,829.944c-0.221,1.18-0.406,2.34-0.553,3.481
		c-0.148,1.143-0.148,2.303,0,3.48c0.221,1.695,0.68,3.242,1.381,4.641c0.699,1.4,1.619,2.505,2.763,3.315
		c1.142,0.812,2.448,1.234,3.923,1.271c1.473,0.038,3.056-0.423,4.751-1.382c2.136-1.251,3.979-3.185,5.525-5.801
		c1.547-2.614,2.504-5.34,2.873-8.177c0.367-2.835,0.072-5.524-0.885-8.066c-0.957-2.541-2.836-4.364-5.636-5.47
		c-1.842,0-3.535,0.351-5.082,1.05c-1.547,0.701-2.893,1.621-4.033,2.763c-1.143,1.143-2.138,2.486-2.983,4.033
		C700.251,826.63,699.568,828.251,699.055,829.944z"/>
	<path style="fill:#FFFFFF;stroke:#000000;stroke-width:2;" d="M754.966,847.183c0.81,0.737,1.491,1.676,2.044,2.817
		c0.553,1.143,0.846,2.284,0.884,3.426c0.036,1.141-0.221,2.21-0.773,3.204s-1.529,1.749-2.928,2.266
		c-1.105,0.367-2.32,0.441-3.646,0.221s-2.635-0.663-3.923-1.326c-1.29-0.663-2.431-1.455-3.426-2.376
		c-0.994-0.922-1.712-1.934-2.154-3.038c-0.148-0.368-0.259-0.791-0.331-1.271c-0.074-0.479-0.111-0.901-0.111-1.271v-61.325
		c0-1.694,0.645-3.131,1.935-4.31c1.287-1.178,2.707-1.879,4.254-2.1c0.735-0.072,1.527,0.038,2.375,0.331
		c0.847,0.296,1.639,0.719,2.376,1.271c0.735,0.552,1.344,1.198,1.823,1.934c0.479,0.737,0.719,1.511,0.719,2.32
		c0,1.916,0,4.458,0,7.624c0,3.168,0.017,6.63,0.055,10.387c0.036,3.757,0.056,7.644,0.056,11.657c0,4.017-0.02,7.864-0.056,11.547
		c-0.038,3.685-0.055,7.055-0.055,10.111c0,3.058-0.038,5.507-0.111,7.348L754.966,847.183z"/>
	<path style="fill:#FFFFFF;stroke:#000000;stroke-width:2;" d="M765.131,827.624c0.515-2.136,1.232-4.234,2.155-6.298
		c0.92-2.062,2.044-4.033,3.37-5.912c1.325-1.878,2.817-3.591,4.475-5.138s3.442-2.799,5.359-3.757
		c3.388-1.769,6.796-2.669,10.221-2.707c3.426-0.036,6.611,0.646,9.559,2.044c2.945,1.4,5.45,3.48,7.514,6.243
		c2.062,2.763,3.425,6.06,4.088,9.89c0.368,2.505,0.57,4.881,0.608,7.127c0.036,2.248-0.204,4.586-0.719,7.017
		c-0.737,3.463-2.229,6.906-4.475,10.331c-2.248,3.426-4.937,6.299-8.066,8.619c-3.132,2.32-6.558,3.849-10.276,4.586
		c-3.721,0.735-7.459,0.146-11.216-1.769c-1.695-0.812-3.224-1.75-4.586-2.817c-1.363-1.067-2.597-2.338-3.701-3.812
		c-1.254-1.619-2.229-3.314-2.928-5.083c-0.701-1.768-1.271-3.608-1.713-5.524c-0.517-2.062-0.701-4.144-0.553-6.243
		c0.146-2.1,0.404-4.144,0.773-6.133L765.131,827.624z"/>
	<path style="fill:#FFFFFF;stroke:#000000;stroke-width:2;" d="M778.391,829.944c-0.221,1.18-0.405,2.34-0.553,3.481
		c-0.148,1.143-0.148,2.303,0,3.48c0.222,1.695,0.681,3.242,1.382,4.641c0.699,1.4,1.619,2.505,2.762,3.315
		c1.142,0.812,2.448,1.234,3.923,1.271c1.473,0.038,3.057-0.423,4.752-1.382c2.136-1.251,3.978-3.185,5.524-5.801
		c1.547-2.614,2.504-5.34,2.873-8.177c0.368-2.835,0.072-5.524-0.884-8.066c-0.958-2.541-2.837-4.364-5.636-5.47
		c-1.842,0-3.536,0.351-5.083,1.05c-1.547,0.701-2.892,1.621-4.033,2.763c-1.143,1.143-2.137,2.486-2.983,4.033
		C779.587,826.63,778.905,828.251,778.391,829.944z"/>
	<path style="fill:#FFFFFF;stroke:#000000;stroke-width:2;" d="M822.588,819.944c0.072-0.478,0.036-1.343-0.11-2.597
		c-1.18-0.662-2.1-1.509-2.763-2.541c-0.663-1.03-1.05-2.136-1.16-3.314c-0.11-1.178,0.11-2.302,0.663-3.37
		c0.553-1.067,1.453-1.971,2.707-2.708c1.693-0.956,3.553-1.141,5.58-0.552c2.025,0.59,3.774,1.474,5.249,2.651
		c1.84-1.398,3.757-2.577,5.745-3.536c1.989-0.956,4.015-1.602,6.078-1.934c2.062-0.331,4.16-0.276,6.298,0.166
		c2.136,0.442,4.235,1.364,6.299,2.763c1.03,0.663,1.988,1.491,2.872,2.486c0.885,0.994,1.437,2.118,1.658,3.37
		c0.367,1.842,0.221,3.444-0.442,4.807c-0.663,1.363-1.585,2.358-2.763,2.983c-1.179,0.626-2.505,0.812-3.978,0.552
		c-1.475-0.257-2.873-1.049-4.199-2.375c-0.441-0.294-0.756-0.534-0.938-0.719c-0.186-0.183-0.572-0.423-1.161-0.718
		c-1.179-0.294-2.339-0.222-3.48,0.221c-1.143,0.442-2.248,1.05-3.314,1.823c-1.069,0.773-2.063,1.621-2.983,2.541
		c-0.922,0.923-1.751,1.751-2.486,2.486v28.177c0,1.105-0.221,2.174-0.663,3.205c-0.663,1.693-1.713,2.873-3.149,3.535
		c-1.437,0.663-2.873,0.847-4.31,0.553c-1.436-0.295-2.689-1.032-3.757-2.21c-1.068-1.179-1.602-2.688-1.602-4.53v-30.939
		C822.478,820.517,822.514,820.425,822.588,819.944z"/>
	<path style="fill:#FFFFFF;stroke:#000000;stroke-width:2;" d="M246.559,948.802c0.763,1.472,1.035,2.957,0.817,4.457
		c-0.218,1.498-1.199,2.603-2.943,3.312c-1.635,0.599-3.203,0.436-4.702-0.491c-1.5-0.927-2.849-2.181-4.047-3.761
		c-1.2-1.582-2.236-3.244-3.107-4.988c-0.873-1.745-1.527-3.162-1.962-4.252c-2.78-6.432-4.28-13.124-4.497-20.074
		c-0.219-6.95,0.681-13.723,2.698-20.319c0.491-1.688,1.145-3.283,1.962-4.783c0.818-1.498,1.635-3.011,2.453-4.538
		c0.491-0.871,1.104-1.962,1.84-3.271c0.736-1.309,1.594-2.479,2.576-3.517c0.981-1.034,2.057-1.771,3.229-2.207
		c1.172-0.436,2.439-0.245,3.802,0.572c1.309,0.817,2.016,1.786,2.126,2.902c0.109,1.118-0.096,2.263-0.613,3.435
		c-0.519,1.173-1.173,2.304-1.962,3.394c-0.791,1.091-1.431,2.018-1.921,2.78c-0.709,1.254-1.295,2.317-1.758,3.188
		c-0.463,0.873-0.846,1.608-1.145,2.208c-0.3,0.601-0.531,1.132-0.695,1.595s-0.3,0.913-0.409,1.349
		c-0.817,2.835-1.418,5.875-1.799,9.117c-0.382,3.244-0.491,6.501-0.327,9.771s0.654,6.474,1.472,9.607
		c0.817,3.136,2.016,6.01,3.598,8.627c0.272,0.49,0.626,0.994,1.063,1.513c0.436,0.518,0.831,0.981,1.186,1.39
		c0.354,0.409,0.64,0.736,0.858,0.981c0.217,0.245,0.272,0.312,0.164,0.204L246.559,948.802z"/>
	<path style="fill:#FFFFFF;stroke:#000000;stroke-width:2;" d="M270.435,944.959c-1.582,0.054-3.095-0.055-4.538-0.327
		c-1.445-0.273-2.876-0.736-4.293-1.39c-0.709,0.381-1.404,0.572-2.085,0.572c-0.683,0-1.309-0.11-1.881-0.327
		c-0.572-0.219-1.063-0.478-1.472-0.777c-0.409-0.299-0.695-0.531-0.859-0.694c-0.6-0.872-0.954-1.853-1.063-2.944
		c-0.11-1.09,0.246-2.126,1.063-3.106v-42.029c0-1.253,0.436-2.302,1.309-3.147c0.871-0.845,1.88-1.376,3.025-1.595
		c1.145-0.218,2.249-0.027,3.312,0.572c1.063,0.601,1.785,1.69,2.167,3.271c0.217,0.981,0.395,1.95,0.531,2.903
		c0.136,0.954,0.217,2.058,0.246,3.312c0.027,1.254,0.027,2.698,0,4.333c-0.028,1.636-0.096,3.653-0.205,6.051
		c0.491-0.271,0.994-0.531,1.513-0.776c0.518-0.245,1.049-0.503,1.594-0.776c1.526-0.708,3.161-1.146,4.906-1.309
		c1.744-0.164,3.447-0.067,5.11,0.286c1.663,0.355,3.216,1.01,4.661,1.962c1.443,0.955,2.629,2.195,3.557,3.721
		c1.309,2.181,2.194,4.729,2.658,7.646c0.462,2.917,0.462,5.806,0,8.667c-0.464,2.862-1.418,5.52-2.862,7.973
		c-1.445,2.453-3.476,4.28-6.092,5.479c-1.636,0.763-3.312,1.35-5.029,1.758C273.992,944.673,272.234,944.904,270.435,944.959z"/>
	<path style="fill:#FFFFFF;stroke:#000000;stroke-width:2;" d="M265.284,924.026v9.812c0.108,0.109,0.217,0.191,0.327,0.245
		c0.109,0.055,0.217,0.137,0.327,0.245c4.906,1.636,9.158,0.519,12.756-3.353c0.818-2.18,1.212-4.237,1.186-6.174
		c-0.028-1.934-0.396-4.019-1.104-6.255c-0.273-0.654-0.723-1.076-1.349-1.268c-0.627-0.19-1.186-0.421-1.676-0.694
		c-0.873-0.164-1.813,0-2.821,0.49c-1.009,0.49-1.977,1.104-2.903,1.84c-0.927,0.735-1.772,1.541-2.535,2.412
		c-0.764,0.872-1.363,1.608-1.799,2.208L265.284,924.026z"/>
	<path style="fill:#FFFFFF;stroke:#000000;stroke-width:2;" d="M308.702,937.764c0.599,0.545,1.104,1.24,1.513,2.085
		c0.409,0.846,0.626,1.69,0.654,2.534c0.027,0.845-0.164,1.636-0.573,2.372c-0.409,0.735-1.132,1.294-2.167,1.676
		c-0.818,0.272-1.717,0.327-2.699,0.164c-0.981-0.164-1.949-0.491-2.902-0.981c-0.955-0.491-1.799-1.077-2.535-1.758
		c-0.736-0.683-1.267-1.432-1.594-2.249c-0.11-0.272-0.192-0.585-0.246-0.94c-0.055-0.354-0.082-0.667-0.082-0.94v-45.381
		c0-1.254,0.477-2.316,1.431-3.189c0.953-0.871,2.003-1.39,3.148-1.553c0.544-0.054,1.131,0.027,1.758,0.245
		c0.626,0.218,1.212,0.531,1.758,0.94c0.544,0.408,0.994,0.887,1.349,1.431c0.354,0.546,0.531,1.118,0.531,1.717
		c0,1.418,0,3.299,0,5.643s0.013,4.905,0.041,7.686c0.027,2.78,0.041,5.656,0.041,8.627c0,2.972-0.014,5.819-0.041,8.545
		c-0.028,2.727-0.041,5.22-0.041,7.481c0,2.263-0.028,4.075-0.082,5.438L308.702,937.764z"/>
	<path style="fill:#FFFFFF;stroke:#000000;stroke-width:2;" d="M351.14,939.235c0.436,1.582,0.354,2.89-0.245,3.925
		c-0.601,1.035-1.431,1.729-2.494,2.085c-1.063,0.354-2.222,0.313-3.475-0.123c-1.254-0.437-2.344-1.308-3.271-2.616
		c-1.527,1.145-3.013,1.948-4.457,2.412c-1.445,0.463-3.094,0.722-4.947,0.777c-2.78,0.108-5.261-0.205-7.441-0.94
		c-2.181-0.736-4.021-1.84-5.52-3.312c-1.5-1.473-2.604-3.312-3.312-5.52c-0.709-2.208-0.955-4.756-0.736-7.646
		c0.108-1.198,0.313-2.371,0.613-3.516c0.299-1.146,0.64-2.262,1.022-3.353c0.436-1.199,1.049-2.48,1.84-3.844
		c0.79-1.361,1.594-2.534,2.412-3.516c2.944-3.598,6.623-6.187,11.039-7.768c0.763-0.272,1.799-0.518,3.107-0.736
		c1.308-0.217,2.629-0.313,3.966-0.286c1.335,0.028,2.616,0.204,3.843,0.531s2.139,0.899,2.739,1.717
		c0.491,0.654,0.845,1.227,1.063,1.718c0.217,0.49,0.34,1.009,0.368,1.554c0.027,0.545,0.027,1.132,0,1.758
		c-0.028,0.627-0.041,1.404-0.041,2.33c0,1.527-0.014,3.013-0.041,4.457c-0.028,1.444-0.014,2.902,0.041,4.374
		c0,0.49,0,1.132,0,1.922c0,0.791,0.027,1.622,0.082,2.494c0.053,0.872,0.123,1.704,0.204,2.493
		c0.082,0.791,0.205,1.432,0.368,1.922L351.14,939.235z"/>
	<path style="fill:#FFFFFF;stroke:#000000;stroke-width:2;" d="M333.805,935.556c0.6-0.381,1.28-0.804,2.044-1.268
		c0.763-0.462,1.444-0.994,2.044-1.595c-0.491-2.889-0.777-5.777-0.859-8.667c-0.082-2.889-0.069-5.806,0.041-8.749
		c-2.453,0.437-4.661,1.5-6.623,3.188c-1.962,1.69-3.326,3.68-4.088,5.97c-0.327,0.927-0.601,1.88-0.818,2.861
		c-0.218,0.981-0.3,1.936-0.245,2.862c0.053,1.255,0.38,2.304,0.981,3.147c0.599,0.846,1.321,1.486,2.167,1.922
		c0.844,0.438,1.744,0.683,2.698,0.736C332.101,936.02,332.987,935.883,333.805,935.556z"/>
	<path style="fill:#FFFFFF;stroke:#000000;stroke-width:2;" d="M376.733,932.612c1.362-0.872,2.657-1.254,3.884-1.146
		c1.227,0.11,2.234,0.532,3.025,1.268c0.79,0.736,1.227,1.718,1.308,2.944c0.082,1.227-0.341,2.521-1.267,3.884
		c-0.601,0.928-1.459,1.771-2.576,2.534c-1.118,0.763-2.195,1.362-3.23,1.799c-2.399,1.09-4.824,1.581-7.277,1.473
		c-2.453-0.11-4.73-0.709-6.828-1.799c-2.099-1.09-3.912-2.603-5.438-4.538c-1.527-1.935-2.563-4.184-3.107-6.746
		c-1.091-4.906-0.873-9.621,0.654-14.146c0.599-1.635,1.321-3.216,2.167-4.742c0.844-1.525,1.867-2.915,3.066-4.17
		c1.198-1.254,2.535-2.357,4.006-3.312c1.472-0.953,3.079-1.595,4.824-1.922c1.199-0.217,2.726-0.204,4.579,0.041
		c1.853,0.245,3.666,0.723,5.438,1.431c1.771,0.709,3.325,1.636,4.661,2.78c1.335,1.145,2.085,2.508,2.249,4.089
		c0.108,0.872,0,1.676-0.327,2.412c-0.327,0.735-0.791,1.349-1.39,1.84c-0.601,0.49-1.295,0.831-2.085,1.021
		c-0.791,0.191-1.595,0.178-2.412-0.041c-0.981-0.271-1.758-0.64-2.331-1.104c-0.572-0.463-1.322-1.076-2.249-1.84
		c-0.437-0.108-0.846-0.286-1.227-0.531c-0.382-0.245-0.791-0.34-1.227-0.286l-2.208,0.245c-0.382,0.219-0.736,0.409-1.063,0.572
		s-0.654,0.327-0.981,0.49c-1.854,1.854-3.217,3.912-4.088,6.174c-0.873,2.263-1.091,4.702-0.654,7.318
		c0.272,1.69,0.804,3.08,1.595,4.17c0.79,1.091,1.717,1.84,2.78,2.249c1.063,0.408,2.234,0.449,3.516,0.122
		c1.28-0.327,2.548-1.062,3.802-2.207L376.733,932.612z"/>
	<path style="fill:#FFFFFF;stroke:#000000;stroke-width:2;" d="M400.2,944.101c-1.091,0.789-2.222,1.157-3.394,1.104
		c-1.173-0.055-2.208-0.531-3.107-1.431s-1.349-2.139-1.349-3.721v-46.607c0-0.817,0.231-1.566,0.695-2.249
		c0.462-0.681,1.049-1.239,1.758-1.676c0.708-0.436,1.484-0.722,2.33-0.858c0.845-0.136,1.622-0.109,2.331,0.081
		c0.708,0.192,1.321,0.601,1.84,1.227c0.517,0.628,0.804,1.486,0.858,2.576c0.164,4.252,0.245,8.068,0.245,11.447
		c0,3.381-0.028,6.787-0.082,10.221c1.253-0.926,2.439-1.894,3.557-2.902c1.116-1.008,2.22-2.057,3.312-3.148
		c0.981-1.034,1.934-2.193,2.862-3.475c0.926-1.28,2.098-2.167,3.516-2.657c1.035-0.327,2.003-0.381,2.903-0.164
		c0.899,0.219,1.662,0.642,2.289,1.268c0.626,0.627,1.049,1.39,1.268,2.289c0.217,0.899,0.164,1.868-0.164,2.903
		c-0.273,0.764-0.887,1.717-1.84,2.861c-0.954,1.146-2.017,2.318-3.189,3.517c-1.173,1.199-2.33,2.304-3.475,3.312
		c-1.145,1.009-2.072,1.786-2.78,2.33c1.907,2.072,3.788,4.17,5.642,6.296c1.853,2.126,3.733,4.252,5.642,6.378
		c0.818,0.928,1.595,1.759,2.331,2.494c0.736,0.736,1.376,1.623,1.921,2.657c0.436,0.873,0.572,1.772,0.409,2.698
		c-0.164,0.928-0.531,1.731-1.104,2.413c-0.573,0.681-1.282,1.186-2.126,1.513c-0.846,0.326-1.758,0.354-2.739,0.081
		c-0.928-0.273-1.827-0.776-2.698-1.513c-0.873-0.735-1.705-1.539-2.494-2.412c-0.791-0.871-1.541-1.771-2.249-2.698
		c-0.709-0.926-1.363-1.717-1.962-2.371c-1.472-1.689-2.931-3.365-4.375-5.029c-1.445-1.662-2.931-3.283-4.457-4.864v14.228
		C401.999,942.016,401.29,943.31,400.2,944.101z"/>
	<path style="fill:#FFFFFF;stroke:#000000;stroke-width:2;" d="M504.861,907.509c0.817-1.089,1.758-1.839,2.82-2.248
		c1.063-0.409,2.058-0.49,2.984-0.245s1.718,0.805,2.372,1.676c0.653,0.873,1.008,2.044,1.063,3.517
		c0.053,0.817-0.287,2.289-1.023,4.415c-0.735,2.126-1.622,4.906-2.656,8.341c-0.056,0.218-0.151,0.49-0.287,0.817
		c-0.137,0.327-0.326,0.872-0.572,1.635c-0.245,0.765-0.6,1.827-1.062,3.189c-0.464,1.363-1.104,3.188-1.922,5.479
		c-0.382,1.145-0.858,2.508-1.431,4.088c-0.573,1.582-1.296,2.985-2.167,4.211c-0.873,1.227-1.908,2.071-3.107,2.535
		c-1.2,0.463-2.645,0.123-4.333-1.022c-0.545-0.382-1.145-1.157-1.799-2.33c-0.654-1.172-1.282-2.438-1.881-3.802
		c-0.6-1.362-1.132-2.658-1.594-3.884c-0.464-1.227-0.777-2.03-0.94-2.413c-0.382-0.871-0.818-1.839-1.308-2.902
		c-0.491-1.062-0.955-2.139-1.39-3.229l-0.491,1.227c-0.709,1.799-1.418,3.598-2.126,5.396c-0.709,1.799-1.418,3.571-2.126,5.314
		c-0.382,0.928-0.736,1.936-1.063,3.025c-0.327,1.092-0.791,2.045-1.39,2.862c-0.49,0.708-1.104,1.212-1.84,1.513
		c-0.736,0.299-1.486,0.422-2.249,0.368c-0.764-0.056-1.486-0.26-2.167-0.613c-0.683-0.355-1.268-0.858-1.758-1.513
		c-0.764-1.09-1.363-2.344-1.799-3.762c-0.437-1.417-0.873-2.725-1.308-3.925c-0.601-1.688-1.145-3.42-1.636-5.192
		c-0.49-1.771-1.009-3.475-1.553-5.11c-0.273-0.871-0.627-2.016-1.063-3.435c-0.437-1.417-0.859-2.874-1.268-4.374
		c-0.409-1.499-0.736-2.957-0.981-4.375c-0.245-1.417-0.341-2.588-0.286-3.516c0.054-0.927,0.368-1.758,0.94-2.494
		s1.268-1.28,2.085-1.636c0.818-0.354,1.676-0.477,2.576-0.367s1.703,0.519,2.413,1.227c1.035,1.091,1.662,2.248,1.88,3.475
		c0.217,1.227,0.462,2.549,0.736,3.966c0.436,2.181,0.94,4.334,1.513,6.46c0.573,2.126,1.186,4.252,1.84,6.378
		c0.217-0.491,0.462-1.09,0.736-1.799c0.272-0.708,0.708-1.771,1.309-3.189c0.49-1.198,0.967-2.371,1.431-3.516
		c0.462-1.145,0.912-2.29,1.349-3.435c0.327-0.817,0.654-1.621,0.981-2.412c0.327-0.789,0.654-1.566,0.981-2.33
		c0.381-0.818,0.94-1.484,1.676-2.004c0.736-0.518,1.54-0.844,2.412-0.98c0.872-0.136,1.717-0.054,2.535,0.245
		c0.817,0.3,1.472,0.858,1.962,1.676c0.708,1.092,1.253,2.304,1.635,3.639c0.381,1.337,0.79,2.604,1.227,3.803
		c0.763,1.962,1.513,3.938,2.249,5.928c0.736,1.99,1.513,3.939,2.331,5.847c1.198-3.271,2.261-6.555,3.189-9.854
		c0.927-3.297,1.935-6.582,3.025-9.853L504.861,907.509z"/>
	<path style="fill:#FFFFFF;stroke:#000000;stroke-width:2;" d="M553.35,939.235c0.436,1.582,0.354,2.89-0.246,3.925
		s-1.431,1.729-2.494,2.085c-1.062,0.354-2.221,0.313-3.475-0.123s-2.344-1.308-3.271-2.616c-1.526,1.145-3.013,1.948-4.456,2.412
		c-1.445,0.463-3.095,0.722-4.947,0.777c-2.78,0.108-5.262-0.205-7.441-0.94c-2.181-0.736-4.021-1.84-5.52-3.312
		c-1.5-1.473-2.604-3.312-3.311-5.52c-0.709-2.208-0.955-4.756-0.736-7.646c0.108-1.198,0.312-2.371,0.613-3.516
		c0.299-1.146,0.641-2.262,1.021-3.353c0.436-1.199,1.049-2.48,1.84-3.844c0.79-1.361,1.595-2.534,2.412-3.516
		c2.944-3.598,6.623-6.187,11.039-7.768c0.763-0.272,1.799-0.518,3.107-0.736c1.309-0.217,2.629-0.313,3.966-0.286
		c1.335,0.028,2.616,0.204,3.843,0.531s2.139,0.899,2.739,1.717c0.491,0.654,0.845,1.227,1.063,1.718
		c0.217,0.49,0.34,1.009,0.367,1.554s0.027,1.132,0,1.758c-0.027,0.627-0.041,1.404-0.041,2.33c0,1.527-0.014,3.013-0.041,4.457
		s-0.014,2.902,0.041,4.374c0,0.49,0,1.132,0,1.922c0,0.791,0.027,1.622,0.082,2.494c0.054,0.872,0.123,1.704,0.205,2.493
		c0.082,0.791,0.204,1.432,0.367,1.922L553.35,939.235z"/>
	<path style="fill:#FFFFFF;stroke:#000000;stroke-width:2;" d="M536.014,935.556c0.6-0.381,1.281-0.804,2.045-1.268
		c0.763-0.462,1.443-0.994,2.045-1.595c-0.491-2.889-0.777-5.777-0.859-8.667c-0.082-2.889-0.068-5.806,0.041-8.749
		c-2.453,0.437-4.66,1.5-6.623,3.188c-1.963,1.69-3.326,3.68-4.088,5.97c-0.328,0.927-0.602,1.88-0.818,2.861
		c-0.219,0.981-0.301,1.936-0.245,2.862c0.054,1.255,0.38,2.304,0.981,3.147c0.599,0.846,1.32,1.486,2.166,1.922
		c0.845,0.438,1.744,0.683,2.699,0.736C534.311,936.02,535.197,935.883,536.014,935.556z"/>
	<path style="fill:#FFFFFF;stroke:#000000;stroke-width:2;" d="M570.603,937.764c0.599,0.545,1.104,1.24,1.513,2.085
		c0.408,0.846,0.626,1.69,0.654,2.534c0.027,0.845-0.164,1.636-0.572,2.372c-0.409,0.735-1.133,1.294-2.167,1.676
		c-0.817,0.272-1.718,0.327-2.698,0.164c-0.981-0.164-1.949-0.491-2.902-0.981c-0.955-0.491-1.799-1.077-2.535-1.758
		c-0.736-0.683-1.268-1.432-1.595-2.249c-0.11-0.272-0.192-0.585-0.245-0.94c-0.055-0.354-0.082-0.667-0.082-0.94v-45.381
		c0-1.254,0.477-2.316,1.432-3.189c0.953-0.871,2.002-1.39,3.147-1.553c0.544-0.054,1.131,0.027,1.758,0.245
		c0.626,0.218,1.212,0.531,1.759,0.94c0.543,0.408,0.993,0.887,1.349,1.431c0.354,0.546,0.531,1.118,0.531,1.717
		c0,1.418,0,3.299,0,5.643s0.013,4.905,0.041,7.686c0.026,2.78,0.041,5.656,0.041,8.627c0,2.972-0.015,5.819-0.041,8.545
		c-0.028,2.727-0.041,5.22-0.041,7.481c0,2.263-0.028,4.075-0.081,5.438L570.603,937.764z"/>
	<path style="fill:#FFFFFF;stroke:#000000;stroke-width:2;" d="M593.334,937.764c0.6,0.545,1.104,1.24,1.514,2.085
		c0.408,0.846,0.625,1.69,0.654,2.534c0.026,0.845-0.164,1.636-0.573,2.372c-0.409,0.735-1.132,1.294-2.167,1.676
		c-0.817,0.272-1.717,0.327-2.698,0.164c-0.981-0.164-1.949-0.491-2.902-0.981c-0.954-0.491-1.799-1.077-2.535-1.758
		c-0.735-0.683-1.267-1.432-1.595-2.249c-0.109-0.272-0.191-0.585-0.245-0.94c-0.055-0.354-0.081-0.667-0.081-0.94v-45.381
		c0-1.254,0.477-2.316,1.431-3.189c0.953-0.871,2.003-1.39,3.147-1.553c0.545-0.054,1.131,0.027,1.758,0.245s1.213,0.531,1.759,0.94
		c0.544,0.408,0.993,0.887,1.349,1.431c0.354,0.546,0.531,1.118,0.531,1.717c0,1.418,0,3.299,0,5.643s0.014,4.905,0.041,7.686
		s0.041,5.656,0.041,8.627c0,2.972-0.014,5.819-0.041,8.545c-0.027,2.727-0.041,5.22-0.041,7.481c0,2.263-0.027,4.075-0.081,5.438
		L593.334,937.764z"/>
	<path style="fill:#FFFFFF;stroke:#000000;stroke-width:2;" d="M635.772,939.235c0.436,1.582,0.354,2.89-0.245,3.925
		c-0.601,1.035-1.432,1.729-2.494,2.085c-1.062,0.354-2.222,0.313-3.475-0.123c-1.255-0.437-2.345-1.308-3.271-2.616
		c-1.526,1.145-3.012,1.948-4.456,2.412c-1.444,0.463-3.095,0.722-4.946,0.777c-2.781,0.108-5.262-0.205-7.441-0.94
		c-2.182-0.736-4.021-1.84-5.52-3.312c-1.5-1.473-2.604-3.312-3.312-5.52c-0.709-2.208-0.954-4.756-0.735-7.646
		c0.107-1.198,0.312-2.371,0.613-3.516c0.299-1.146,0.64-2.262,1.021-3.353c0.436-1.199,1.049-2.48,1.84-3.844
		c0.789-1.361,1.594-2.534,2.412-3.516c2.943-3.598,6.623-6.187,11.039-7.768c0.762-0.272,1.799-0.518,3.107-0.736
		c1.308-0.217,2.629-0.313,3.965-0.286c1.336,0.028,2.617,0.204,3.844,0.531s2.139,0.899,2.738,1.717
		c0.491,0.654,0.846,1.227,1.063,1.718c0.218,0.49,0.34,1.009,0.368,1.554c0.027,0.545,0.027,1.132,0,1.758
		c-0.028,0.627-0.041,1.404-0.041,2.33c0,1.527-0.014,3.013-0.041,4.457s-0.014,2.902,0.041,4.374c0,0.49,0,1.132,0,1.922
		c0,0.791,0.027,1.622,0.082,2.494c0.053,0.872,0.123,1.704,0.204,2.493c0.082,0.791,0.204,1.432,0.368,1.922L635.772,939.235z"/>
	<path style="fill:#FFFFFF;stroke:#000000;stroke-width:2;" d="M618.438,935.556c0.6-0.381,1.28-0.804,2.045-1.268
		c0.762-0.462,1.443-0.994,2.044-1.595c-0.491-2.889-0.776-5.777-0.858-8.667c-0.082-2.889-0.069-5.806,0.041-8.749
		c-2.453,0.437-4.661,1.5-6.623,3.188c-1.963,1.69-3.326,3.68-4.089,5.97c-0.327,0.927-0.601,1.88-0.817,2.861
		c-0.219,0.981-0.301,1.936-0.246,2.862c0.054,1.255,0.381,2.304,0.981,3.147c0.599,0.846,1.321,1.486,2.167,1.922
		c0.844,0.438,1.744,0.683,2.698,0.736C616.733,936.02,617.62,935.883,618.438,935.556z"/>
	<path style="fill:#FFFFFF;stroke:#000000;stroke-width:2;" d="M658.422,944.959c-1.582,0.054-3.096-0.055-4.539-0.327
		c-1.445-0.273-2.875-0.736-4.293-1.39c-0.709,0.381-1.404,0.572-2.084,0.572c-0.684,0-1.309-0.11-1.881-0.327
		c-0.572-0.219-1.063-0.478-1.473-0.777c-0.408-0.299-0.695-0.531-0.858-0.694c-0.601-0.872-0.954-1.853-1.063-2.944
		c-0.109-1.09,0.246-2.126,1.063-3.106v-42.029c0-1.253,0.437-2.302,1.309-3.147c0.871-0.845,1.88-1.376,3.025-1.595
		c1.145-0.218,2.249-0.027,3.312,0.572c1.062,0.601,1.785,1.69,2.167,3.271c0.218,0.981,0.395,1.95,0.531,2.903
		c0.136,0.954,0.218,2.058,0.245,3.312s0.027,2.698,0,4.333c-0.027,1.636-0.096,3.653-0.204,6.051
		c0.491-0.271,0.994-0.531,1.513-0.776c0.518-0.245,1.049-0.503,1.594-0.776c1.526-0.708,3.162-1.146,4.906-1.309
		c1.744-0.164,3.447-0.067,5.111,0.286c1.662,0.355,3.215,1.01,4.66,1.962c1.443,0.955,2.63,2.195,3.557,3.721
		c1.309,2.181,2.194,4.729,2.658,7.646c0.463,2.917,0.463,5.806,0,8.667c-0.464,2.862-1.418,5.52-2.861,7.973
		c-1.445,2.453-3.477,4.28-6.092,5.479c-1.637,0.763-3.312,1.35-5.029,1.758C661.979,944.673,660.221,944.904,658.422,944.959z"/>
	<path style="fill:#FFFFFF;stroke:#000000;stroke-width:2;" d="M653.27,924.026v9.812c0.109,0.109,0.217,0.191,0.327,0.245
		c0.108,0.055,0.218,0.137,0.327,0.245c4.906,1.636,9.158,0.519,12.756-3.353c0.818-2.18,1.213-4.237,1.186-6.174
		c-0.027-1.934-0.396-4.019-1.104-6.255c-0.273-0.654-0.723-1.076-1.35-1.268c-0.627-0.19-1.186-0.421-1.676-0.694
		c-0.873-0.164-1.812,0-2.821,0.49s-1.977,1.104-2.903,1.84c-0.927,0.735-1.771,1.541-2.534,2.412
		c-0.765,0.872-1.363,1.608-1.799,2.208L653.27,924.026z"/>
	<path style="fill:#FFFFFF;stroke:#000000;stroke-width:2;" d="M709.362,906.773c0.654-1.09,1.472-1.84,2.453-2.249
		c0.981-0.408,1.949-0.503,2.902-0.286c0.953,0.219,1.799,0.709,2.535,1.472c0.736,0.765,1.186,1.772,1.35,3.025
		c0.107,0.928-0.068,2.236-0.531,3.925c-0.465,1.69-1.037,3.435-1.717,5.233c-0.684,1.799-1.379,3.517-2.086,5.151
		c-0.709,1.636-1.282,2.917-1.718,3.844c-1.854,4.088-3.871,8.095-6.051,12.02s-4.415,7.821-6.705,11.692
		c-0.326,0.6-0.709,1.336-1.145,2.208c-0.437,0.871-0.887,1.771-1.349,2.698c-0.464,0.927-0.94,1.799-1.431,2.617
		c-0.491,0.817-0.955,1.416-1.391,1.799c-0.98,0.926-1.99,1.472-3.025,1.635c-1.036,0.164-1.977,0.027-2.82-0.408
		c-0.846-0.438-1.527-1.118-2.045-2.045c-0.519-0.927-0.723-2.044-0.613-3.353c0.054-0.49,0.272-1.132,0.654-1.921
		c0.381-0.791,0.818-1.608,1.309-2.453c0.49-0.846,0.98-1.649,1.472-2.412c0.491-0.765,0.871-1.391,1.145-1.881
		c1.09-1.799,2.139-3.598,3.148-5.396c1.008-1.799,2.03-3.598,3.065-5.396c-3.598-2.998-6.719-6.338-9.361-10.017
		c-2.645-3.68-4.676-7.728-6.092-12.143c-0.273-0.763-0.546-1.525-0.818-2.29c-0.273-0.763-0.355-1.554-0.245-2.371
		c0.108-0.927,0.368-1.758,0.776-2.494c0.409-0.735,0.941-1.335,1.596-1.799c0.653-0.462,1.402-0.722,2.248-0.776
		c0.844-0.054,1.703,0.137,2.576,0.572c0.707,0.382,1.267,0.913,1.676,1.595c0.408,0.682,0.748,1.418,1.021,2.207
		c0.272,0.791,0.504,1.595,0.695,2.412c0.19,0.818,0.422,1.554,0.695,2.208c2.18,5.396,5.479,10.004,9.895,13.818
		c1.58-3.271,2.996-6.554,4.252-9.853c1.252-3.298,2.371-6.664,3.352-10.099L709.362,906.773z"/>
	<path style="fill:#FFFFFF;stroke:#000000;stroke-width:2;" d="M724.816,947.739c0.436-0.438,0.83-0.832,1.186-1.186
		c0.354-0.355,0.708-0.709,1.062-1.063s0.695-0.75,1.022-1.186c0.327-0.437,0.681-0.954,1.063-1.554
		c1.58-2.562,2.779-5.479,3.598-8.749c0.817-3.271,1.308-6.636,1.472-10.099c0.163-3.461,0.026-6.868-0.409-10.221
		c-0.437-3.353-1.173-6.419-2.208-9.199c-0.709-1.907-1.594-3.706-2.657-5.396c-1.062-1.688-2.14-3.353-3.229-4.987
		c-0.491-0.708-0.969-1.403-1.431-2.085c-0.464-0.682-0.724-1.485-0.777-2.412c-0.055-1.417,0.286-2.589,1.022-3.517
		c0.735-0.926,1.621-1.513,2.657-1.758c1.035-0.245,2.098-0.149,3.188,0.286c1.09,0.437,1.963,1.281,2.617,2.535
		c1.198,1.689,2.343,3.407,3.435,5.151c1.09,1.745,2.098,3.516,3.025,5.314c1.525,2.943,2.684,6.133,3.475,9.567
		c0.79,3.434,1.254,6.95,1.391,10.548c0.135,3.598-0.041,7.154-0.532,10.671c-0.49,3.516-1.227,6.801-2.207,9.853
		c-0.873,2.616-1.922,5.246-3.148,7.891c-1.227,2.644-2.794,4.974-4.702,6.991c-0.817,0.871-1.745,1.689-2.779,2.453
		c-1.036,0.763-2.182,1.145-3.435,1.145c-1.145,0-2.085-0.245-2.821-0.735c-0.735-0.491-1.255-1.118-1.554-1.881
		c-0.3-0.765-0.396-1.595-0.286-2.494c0.108-0.899,0.381-1.786,0.818-2.657L724.816,947.739z"/>
	<path style="fill:#FFFFFF;stroke:#000000;stroke-width:2;" d="M522.658,133.269c2.943-11.05,8.287-18.785,16.021-23.205
		c7.735-4.42,15.651-5.887,23.758-4.42c8.098,1.476,14.917,5.62,20.441,12.431c5.525,6.82,7.545,15.746,6.078,26.795
		c-2.211,14.002-5.068,27.996-8.564,41.989c-3.504,14.002-7.277,27.814-11.325,41.436c-5.524,17.68-11.697,34.997-18.509,51.934
		c-6.819,16.946-13.173,34.254-19.061,51.934c-5.896,16.575-11.879,33.063-17.955,49.447c-6.078,16.394-12.432,32.873-19.062,49.448
		c-2.21,5.525-4.515,11.326-6.906,17.403c-2.399,6.077-5.438,11.326-9.116,15.746c-5.525,7.364-13.079,11.784-22.652,13.26
		c-9.583,1.468-18.051-0.924-25.415-7.182c-5.896-5.163-10.135-11.516-12.707-19.061c-2.581-7.545-5.344-14.822-8.288-21.823
		c-3.315-8.84-7.096-18.594-11.326-29.282c-4.239-10.678-7.83-20.252-10.773-28.729c-6.268-16.575-12.25-33.236-17.956-50
		c-5.715-16.756-11.697-33.426-17.956-50c-5.163,15.47-10.592,30.481-16.298,45.027c-5.715,14.555-11.145,29.377-16.298,44.475
		c-4.058,9.945-7.925,19.89-11.603,29.834c-3.686,9.945-7.553,19.708-11.602,29.282c-2.581,6.63-4.696,11.697-6.354,15.193
		c-1.658,3.505-4.333,8.935-8.011,16.298c-2.581,5.887-6.448,11.136-11.602,15.746c-5.162,4.601-10.592,7.734-16.298,9.392
		c-5.715,1.657-11.516,1.562-17.403-0.276c-5.896-1.847-11.05-6.267-15.47-13.26c-6.267-9.573-10.592-20.804-12.983-33.702
		c-2.4-12.888-5.249-24.672-8.563-35.359c-2.21-6.63-4.333-13.26-6.354-19.89c-2.029-6.63-4.144-13.07-6.354-19.337
		c-2.21-6.63-4.515-13.26-6.906-19.89c-2.4-6.63-4.696-13.07-6.906-19.337c-7.372-21.357-15.012-42.446-22.928-63.26
		c-7.925-20.804-15.936-41.712-24.033-62.707c-1.477-4.42-3.505-8.926-6.078-13.536c-2.581-4.601-4.972-9.392-7.182-14.364
		c-2.21-4.973-3.962-9.945-5.249-14.917c-1.295-4.972-1.752-9.85-1.381-14.641c0.734-6.259,3.039-11.603,6.906-16.022
		c3.867-4.42,8.374-7.64,13.536-9.669c5.154-2.02,10.679-2.762,16.575-2.209c5.887,0.552,11.231,2.857,16.022,6.906
		c9.945,8.477,17.403,19.708,22.376,33.702c4.972,14.002,9.668,26.891,14.088,38.674c5.153,12.897,9.944,25.88,14.364,38.95
		c4.42,13.078,9.203,26.062,14.365,38.95c5.154,14.002,10.126,27.814,14.917,41.437c4.783,13.631,9.393,27.443,13.812,41.437
		c1.467-3.315,2.762-6.716,3.867-10.221c1.105-3.496,2.391-7.087,3.868-10.773c7.363-18.414,14.27-36.646,20.718-54.696
		c6.44-18.042,12.431-36.464,17.956-55.249c1.839-5.154,3.401-10.402,4.696-15.746c1.286-5.335,2.667-10.584,4.144-15.746
		c2.572-8.84,4.23-15.746,4.972-20.718c0.734-4.972,2.944-10.402,6.63-16.298c3.315-5.154,7.735-8.926,13.26-11.326
		c5.525-2.392,11.231-3.497,17.127-3.315c5.888,0.19,11.326,1.752,16.298,4.696c4.973,2.953,8.745,7.373,11.326,13.26
		c1.105,2.21,2.572,5.62,4.42,10.221c1.839,4.61,3.677,9.582,5.525,14.917c1.838,5.344,3.677,10.316,5.525,14.917
		c1.838,4.61,3.125,8.011,3.867,10.221c4.42,11.792,8.65,23.394,12.707,34.807c4.049,11.421,8.098,23.023,12.155,34.807
		c5.154,15.107,10.402,29.929,15.746,44.475c5.335,14.555,10.773,29.005,16.298,43.37c3.315-9.574,6.44-19.337,9.392-29.282
		c2.944-9.945,6.259-19.7,9.945-29.282c9.945-26.52,19.423-53.039,28.453-79.558c9.021-26.52,15.927-53.591,20.718-81.215
		L522.658,133.269z"/>
</g>
<g id="Layer_2">
	<path style="fill:#FFFFFF;stroke:#231F20;stroke-width:2;stroke-miterlimit:10;" d="M685.053,465.407
		c30.287,2.596,70.224,29.238,84.814,56.556c28.352,53.09-19.206,73.144-51.973,102.724c8.582,12.441,39.189,20.114,54.562,19.838
		c13.073-0.236,37.538-19.282,47.375-6.233c6.049,8.028-0.082,15.018-6.424,20.388c-14.287,12.104-38.979,21.352-57.604,23.317
		c-17.197,1.817-35.151,1.168-51.955-3.134c-15.411-3.947-28.578-7.97-28.41-25.28c0.14-14.56,3.429-23.17-9.991-33.414
		c-15.33-11.707-27.969-20.217-41.21-36.508c-17.521-21.561-36.106-56.219-32.625-84.955
		C596.562,457.861,653.049,462.665,685.053,465.407z"/>
	<path style="fill:#FFFFFF;stroke:#231F20;stroke-width:2;stroke-miterlimit:10;" d="M792.59,363.904
		c-5.158-7.614-10.369-15.103-15.445-22.448c-1.351-1.964-2.702-3.911-4.031-5.854c-6.309-9.189-17.461-28.001-30.846-48.151
		c-26.189-39.417-60.896-83.932-84.523-71.435c-43.358,22.926,34.213,154.098,18.821,187.17
		c-13.461,28.919-45.897,49.442-74.661,58.243c-10.775,3.302-21.279,7.024-30.916,11.892c0,0-1.3,0.314-2.006,1.039
		c-13.548,7.167-25.253,16.762-33.378,30.906c-0.479,0.826-0.93,1.686-1.381,2.545c-1.418,1.959-2.722,4.003-3.881,6.154
		c-9.367,17.385-15.943,36.517-29.374,51.931c-40.021,45.927-112.946,64.499-166.998,31.834
		c-2.686,18.49,18.884,37.15,32.548,46.554c39.421,27.128,74.512,16.854,115.805,4.381c25.015-7.556,61.601-25.896,76.14-51.71
		c0.463,0.505,0.924,1.012,1.388,1.509c2.172,2.329,4.389,4.554,6.644,6.681c32.228,30.405,72.398,40.179,112.256,35.557
		c9.533-1.098,19.052-3.022,28.428-5.695c1.202-0.343,2.404-0.693,3.598-1.061c43.576-13.28,84-42.344,109.883-78.557
		C868.782,488.045,832.141,422.269,792.59,363.904z"/>
	<path style="fill:#FFFFFF;stroke:#231F20;stroke-width:2;stroke-miterlimit:10;" d="M814.916,397.492
		c8.887,9.177,16.456,15.199,29.298,16.462c13.902,1.368,17.061-4.5,28.411-11.008c11.623-6.664,18.602-0.581,27.019,7.819
		c6.104,6.093,18.075,16.937,13.459,25.771c-5.837,11.164-19.858,9.102-26.168,0.579c-2.484-3.355-4.152-11.396-9.107-12.038
		c-5.218-0.676-9.515,6.975-12.525,9.946c-7.784,7.688-19.445,13.868-29.88,17.171c-18.927,5.992-40.347-6.893-54.1-19.411
		c-7.332-6.674-14.54-13.878-16.093-23.308c-1.651-10.027,5.408-23.484,15.371-26.498
		C793.715,379.015,806.421,388.715,814.916,397.492z"/>
	<path style="fill:#FFFFFF;stroke:#231F20;stroke-width:2;stroke-miterlimit:10;" d="M792.59,363.904
		c-2.441-3.605-4.893-7.172-7.339-10.72c-0.469-0.679-0.931-1.35-1.397-2.026c-3.627-5.25-7.23-10.441-10.74-15.555
		c-6.309-9.189-17.461-28.001-30.846-48.151c-23.023-5.576-46.248-10.556-68.183-19.087l-19.409-8.213
		c10.791,30.537,30.188,54.246,55.987,72.594c8.335,12.776,14.024,27.995,17.942,41.813c7.436,26.254,11.107,57.109,8.145,83.999
		c-3.24,29.45-16.312,68.621-41.015,86.807c-4.031,2.971-7.765,4.464-12.579,5.3c3.002,14.118,6.554,29.01,11.273,43.173
		c2.703,8.107,4.039,14.752,4.456,23.156c0.223,4.405,0.149,13.4,4.128,16.447c1.053,0.805,2.486,1.298,4.166,1.567
		c1.202-0.343,2.404-0.693,3.598-1.061c43.576-13.28,84-42.344,109.883-78.557C868.782,488.045,832.141,422.269,792.59,363.904z"/>
	<path style="fill:#FFFFFF;stroke:#231F20;stroke-width:2;stroke-miterlimit:10;" d="M796.729,588.371
		c30.307-16.325,55.732-51.475,62.428-85.121c12.057-60.584-30.318-13.378-58.739-16.516c-21.847-2.411-46.727-12.924-56.64,16.1
		c-4.153,12.156,1.243,25.32-0.034,37.708c-1.22,11.81-11.248,23.033-11.95,34.55C729.659,610.108,778.727,598.065,796.729,588.371z
		"/>
	<path style="fill:#FFFFFF;stroke:#231F20;stroke-width:2;stroke-miterlimit:10;" d="M662.608,154.341
		c3.541,11.054,13.794,27.722,25.754,31.391c9.986,3.06,22.569-6.354,28.423-13.652c6.049-7.544,7.542-18.882,6.412-28.21
		c-1.893-15.625-13.227-27.148-26.127-35.386c-9.113-5.817-20.6-6.289-29.328-11.229
		C662.991,115.14,656.378,134.898,662.608,154.341z"/>
	<path style="fill:#FFFFFF;stroke:#231F20;stroke-width:2;stroke-miterlimit:10;" d="M689.428,556.941
		c-9.578-13.221-33.602-36.4-52.72-42.902c-1.195-0.702-2.39-1.367-3.592-1.971c-27.905-14.161-76.624-38.842-97.512-6.801
		c-0.552,0.843-1.082,1.731-1.598,2.658c-13.989,25.336-9.741,64.44-1.582,90.993c6.173,20.063,14.703,32.695,24.546,49.302
		c4.557,7.688,8.604,15.396,4.839,24.083c-3.374,7.788-11.862,10.688-11.676,20.271c0.164,8.429,8.4,15.691,14.388,20.836
		c14.782,12.698,34.02,20.463,52.549,25.835c15.298,4.434,32.098,7.251,47.993,4.724c9.142-1.456,27.693-6.892,26.5-18.746
		c-1.817-18.021-33.504-10.119-44.516-14.339c-14.357-5.502-39.866-24.083-43.158-38.835c0.284-0.104,0.575-0.209,0.859-0.307
		c26.681-9.6,57.34-13.482,74.003-31.041c10.75-1.238,21.485-3.531,32.025-6.756c1.143-4.091,1.874-8.271,2.127-12.474
		C714.436,596.396,703.739,576.688,689.428,556.941z"/>
	<path style="fill:#FFFFFF;stroke:#231F20;stroke-width:2;stroke-miterlimit:10;" d="M740.345,413.915
		c8.886,9.179,16.455,15.201,29.298,16.462c13.9,1.369,17.059-4.5,28.409-11.008c11.622-6.664,18.601-0.581,27.019,7.821
		c6.104,6.091,18.075,16.935,13.458,25.77c-5.836,11.164-19.856,9.102-26.167,0.579c-2.485-3.355-4.153-11.395-9.107-12.037
		c-5.218-0.675-9.515,6.975-12.525,9.946c-7.785,7.688-19.445,13.868-29.878,17.171c-18.929,5.994-40.349-6.893-54.103-19.412
		c-7.331-6.674-14.537-13.876-16.093-23.307c-1.65-10.027,5.408-23.484,15.372-26.497
		C719.142,395.438,731.847,405.138,740.345,413.915z"/>
	<path style="fill:#FFFFFF;stroke:#231F20;stroke-width:2;stroke-miterlimit:10;" d="M787.588,194.943
		c12.898,13.113,24.778,24.294,41.214,33.339c11.978,6.593,32.014,10.53,41.395,21.001c18.694,20.865-13.224,50.309-29.085,61.834
		c-40.346,29.322-109.865,20.458-151.436-1.346c-33.168-17.397-51.473-46.51-45.974-83.33c4.852-32.478,30.044-53.914,60.746-61.192
		C732.582,158.581,767.777,174.806,787.588,194.943z"/>
	<path style="fill:#FFFFFF;stroke:#231F20;stroke-width:2;stroke-miterlimit:10;" d="M715.319,231.083
		c2.895,22.34-21.442,37.698-41.778,33.134c-23.412-5.252-27.445-40.088-10.488-54.297c12.813-10.737,30.917-10.303,42.481,2.053
		C711.488,218.336,714.515,224.866,715.319,231.083z"/>
	<path style="fill:#231F20;stroke:#231F20;stroke-width:2;stroke-miterlimit:10;" d="M668.44,242.75
		c-15.355-6.843-13.035-28.637,3.501-32.018c14.707-3.007,26.715,14.541,16.438,26.378
		C683.22,243.053,676.109,246.168,668.44,242.75z"/>
	<path style="fill:#FFFFFF;stroke:#231F20;stroke-width:2;stroke-miterlimit:10;" d="M667.77,228.25
		c-5.487,0.96-9.43-6.208-5.374-10.263c3.245-3.247,8.953-2.913,10.046,1.644C673.351,223.427,672.037,227.503,667.77,228.25z"/>
	<path style="fill:#FFFFFF;stroke:#231F20;stroke-width:2;stroke-miterlimit:10;" d="M800.672,187.324
		c2.445,18.885-18.126,31.868-35.316,28.01c-19.791-4.44-23.201-33.887-8.867-45.901c10.832-9.076,26.137-8.708,35.912,1.737
		C797.434,176.549,799.992,182.07,800.672,187.324z"/>
	<path style="fill:#231F20;stroke:#231F20;stroke-width:2;stroke-miterlimit:10;" d="M761.044,197.188
		c-12.981-5.785-11.019-24.208,2.959-27.066c12.433-2.542,22.583,12.292,13.896,22.299
		C773.538,197.443,767.527,200.077,761.044,197.188z"/>
	<path style="fill:#FFFFFF;stroke:#231F20;stroke-width:2;stroke-miterlimit:10;" d="M760.476,184.93
		c-4.638,0.812-7.971-5.247-4.542-8.675c2.743-2.746,7.567-2.463,8.49,1.39C765.195,180.853,764.082,184.298,760.476,184.93z"/>
	<path style="fill:#FFFFFF;stroke:#231F20;stroke-width:2;stroke-miterlimit:10;" d="M878.908,261.625
		c-7.871,4.615-24.128,8.14-31.066,0.027c-9.893-11.562,9.862-27.445,20.615-27.111
		C883.575,235.013,894.854,252.278,878.908,261.625z"/>
	<path style="fill:#FFFFFF;stroke:#231F20;stroke-width:2;stroke-miterlimit:10;" d="M591.235,228.933
		c10.883,7.842,31.861,16.292,45.496,11.486c11.384-4.012,16.613-21.405,17.042-32.209c0.441-11.166-5.958-22.73-13.414-30.624
		c-12.491-13.224-30.939-16.151-48.587-14.947c-12.466,0.853-23.466,8.304-34.972,9.705
		C564.67,192.234,572.094,215.141,591.235,228.933z"/>
	<path style="fill:#FFFFFF;stroke:#231F20;stroke-width:2;stroke-miterlimit:10;" d="M642.643,213.857
		c-3.53-7.675-8.521-10.953-16.387-14.221c-11.654-4.842-28.856-6.948-40.874-2.132c4.305,10.81,11.159,20.135,20.96,27.035
		c7.048,4.962,16.309,9.899,25.152,10.706C645.737,236.544,647.805,225.071,642.643,213.857z"/>
</g>
</svg>
