<?xml version="1.0" encoding="utf-8"?>
<!-- Generator: Adobe Illustrator 16.0.0, SVG Export Plug-In . SVG Version: 6.00 Build 0)  -->
<!DOCTYPE svg PUBLIC "-//W3C//DTD SVG 1.1//EN" "http://www.w3.org/Graphics/SVG/1.1/DTD/svg11.dtd">
<svg version="1.1" id="Layer_1" xmlns="http://www.w3.org/2000/svg" xmlns:xlink="http://www.w3.org/1999/xlink" x="0px" y="0px"
	 width="100%" height="100%" viewBox="0 0 600 600" enable-background="new 0 0 600 600" xml:space="preserve">
<path fill="#FFFFFF" stroke="#231F20" stroke-width="2" stroke-miterlimit="10" d="M519.318,241.348
	c-8.877-5.521-20.378-0.822-29.532,4.228c-11.451,6.318-22.626,13.14-33.479,20.438c-3.502-7.824-4.576-16.485-6.98-24.713
	c-2.405-8.228-6.629-16.562-14.167-20.642c-7.539-4.079-18.833-1.761-21.766,6.294c-1.334,3.667-0.772,7.756,0.315,11.504
	c6.091,20.979,26.645,34.201,37.722,53.029c3.786,6.435,6.437,13.505,8.163,20.769c0.443,1.866,0.82,3.871,0.134,5.662
	c-0.602,1.576-1.938,2.744-3.294,3.75c-18.054,13.392-44.341,7.487-63.004-5.041s-33.023-30.603-51.421-43.519
	c-26.624-18.69-59.898-25.326-92.356-27.482c-25.254-1.678-51.299-0.794-74.784,8.643c-25.028,10.058-45.735,29.526-59.436,52.761
	c-14.773,25.052-21.407,56.972-9.883,83.443c35.346,21.325,81.547,17.004,121.45,21.342c-34.711,2.17-71.063,6.52-105.745,1.057
	c10.137,9.864,22.995,17.173,36.452,21.781c21.076,7.218,43.687,8.516,65.963,8.703c29.159,0.243,58.347-1.318,87.281-4.971
	c18.215-2.299,36.514-3.846,54.738-6.062c15.139-1.841,28.498-6.745,43.244-9.229c26.956-4.54,52.232-15.807,67.826-38.758
	c1.187-1.745,2.315-3.558,3.386-5.438c10.181-17.904,4.341-42.262-0.604-61.01c-2.785-10.557-4.96-24.067,3.927-30.412
	c3.752-2.678,8.565-3.199,13.102-4.02c10.18-1.844,20.602-6.078,26.46-14.605C528.888,260.327,528.104,246.812,519.318,241.348z"/>
<path fill="#FFFFFF" stroke="#231F20" stroke-width="2" stroke-miterlimit="10" d="M177.468,166.012
	c-0.898-2.319-1.337-4.538-1.133-6.572c1.142-11.394,15.929-17.216,24.346-9.338c9.185,8.597,2.083,35.084,0.546,46.06
	C195.555,189.555,181.615,176.719,177.468,166.012z"/>
<path fill="#FFFFFF" stroke="#231F20" stroke-width="2" stroke-miterlimit="10" d="M224.361,191.631
	c7.736-1.103,14.467,8.127,9.398,14.968c-2.476,3.342-7.075,3.349-10.561,5.624c-4.977,3.248-8.479,8.562-13.116,12.264
	C206.5,214.772,212.802,193.282,224.361,191.631z"/>
<path fill="#FFFFFF" stroke="#231F20" stroke-width="2" stroke-miterlimit="10" d="M178.275,208.295
	c-6.386,1.697-8.424,11.354-2.128,15.156c3.075,1.857,6.648,0.327,10.14,0.99c4.984,0.946,9.539,4.044,14.417,5.47
	C200.13,220.915,187.818,205.763,178.275,208.295z"/>
<path fill="#FFFFFF" stroke="#231F20" stroke-width="2" stroke-miterlimit="10" d="M275.034,439.683
	c5.566,6.098,12.626,10.818,19.584,13.12c7.6,2.516,15.588,3.59,23.521,4.653c-1.915-5.343-3.83-10.687-5.745-16.029
	c-1.533-4.28-3.105-8.634-5.835-12.272c-9.066-12.089-26.372-22.626-41.563-21.088C262.145,419.383,267.056,430.946,275.034,439.683
	z"/>
<path fill="#1D1D1B" d="M198.974,345.593c6.539-0.226,13.138,2.517,17.281,7.917c2.401,3.129,4.45,6.661,5.056,10.559
	c0.605,3.896-0.448,8.213-3.417,10.81c-0.678-0.846-0.488-2.062-0.359-3.138c0.629-5.271-1.211-10.799-4.934-14.582
	c-3.722-3.783-9.264-5.715-14.52-4.984c-6.546,0.909-11.918,5.534-16.488,10.309c-1.511,1.58-1.837-0.045-1.933-1.389
	c-0.161-2.248,0.87-4.057,2.208-5.779c1.251-1.609,2.556-3.189,4.073-4.554C189.636,347.439,194.29,345.754,198.974,345.593z"/>
<ellipse fill="#FFFFFF" stroke="#231F20" stroke-width="2" stroke-miterlimit="10" cx="207.237" cy="268.25" rx="14.237" ry="6.75"/>
<path fill="#FFFFFF" stroke="#231F20" stroke-width="2" stroke-miterlimit="10" d="M191.897,60.445
	c0.53-1.989,1.492-3.381,2.884-4.177c1.392-0.795,2.817-1.06,4.276-0.795c1.458,0.266,2.685,1.012,3.679,2.237
	c0.995,1.228,1.358,2.834,1.094,4.823c-0.398,2.521-0.912,5.04-1.542,7.558c-0.631,2.521-1.31,5.007-2.039,7.458
	c-0.995,3.183-2.106,6.299-3.332,9.348c-1.228,3.05-2.372,6.166-3.431,9.348c-1.061,2.983-2.138,5.951-3.232,8.9
	c-1.094,2.951-2.238,5.917-3.431,8.901c-0.397,0.994-0.812,2.039-1.243,3.132c-0.432,1.094-0.979,2.039-1.641,2.834
	c-0.995,1.325-2.354,2.121-4.077,2.387c-1.725,0.264-3.25-0.167-4.575-1.293c-1.062-0.929-1.824-2.073-2.288-3.431
	c-0.464-1.358-0.961-2.668-1.492-3.928c-0.597-1.591-1.277-3.347-2.039-5.271c-0.763-1.922-1.409-3.646-1.939-5.171
	c-1.128-2.983-2.205-5.982-3.232-9c-1.028-3.016-2.105-6.017-3.232-9c-0.929,2.785-1.907,5.487-2.934,8.105
	c-1.029,2.62-2.006,5.288-2.934,8.006c-0.73,1.79-1.427,3.58-2.088,5.37c-0.664,1.79-1.36,3.547-2.088,5.271
	c-0.465,1.193-0.846,2.105-1.144,2.735c-0.298,0.631-0.78,1.608-1.442,2.934c-0.464,1.06-1.161,2.005-2.088,2.834
	c-0.929,0.828-1.906,1.392-2.934,1.69c-1.029,0.298-2.073,0.281-3.133-0.05c-1.062-0.333-1.989-1.128-2.784-2.387
	c-1.128-1.723-1.907-3.745-2.337-6.066c-0.432-2.32-0.945-4.441-1.542-6.365c-0.398-1.193-0.78-2.387-1.144-3.58
	c-0.365-1.193-0.746-2.353-1.144-3.481c-0.397-1.193-0.812-2.387-1.243-3.58c-0.432-1.193-0.845-2.353-1.243-3.48
	c-1.327-3.844-2.702-7.641-4.127-11.387c-1.426-3.745-2.868-7.508-4.326-11.288c-0.266-0.795-0.631-1.606-1.094-2.436
	c-0.464-0.829-0.895-1.691-1.292-2.586c-0.398-0.895-0.713-1.79-0.945-2.685c-0.233-0.895-0.315-1.773-0.249-2.635
	c0.132-1.126,0.547-2.088,1.243-2.884c0.696-0.796,1.507-1.375,2.436-1.741c0.928-0.363,1.922-0.497,2.983-0.397
	c1.06,0.099,2.022,0.514,2.884,1.243c1.79,1.526,3.132,3.547,4.027,6.066c0.895,2.521,1.741,4.84,2.536,6.961
	c0.928,2.321,1.79,4.659,2.585,7.011c0.796,2.354,1.657,4.691,2.586,7.011c0.928,2.521,1.823,5.007,2.685,7.458
	c0.861,2.454,1.69,4.94,2.486,7.459c0.264-0.597,0.498-1.209,0.696-1.84c0.199-0.629,0.431-1.276,0.696-1.939
	c1.325-3.314,2.568-6.596,3.729-9.845c1.159-3.248,2.238-6.563,3.232-9.945c0.331-0.928,0.612-1.872,0.845-2.834
	c0.231-0.96,0.48-1.905,0.746-2.834c0.463-1.591,0.762-2.834,0.895-3.729c0.132-0.895,0.53-1.873,1.193-2.934
	c0.597-0.928,1.393-1.606,2.387-2.039c0.995-0.43,2.022-0.629,3.083-0.597c1.06,0.034,2.039,0.315,2.934,0.845
	c0.895,0.532,1.574,1.327,2.039,2.387c0.199,0.398,0.463,1.012,0.795,1.84c0.331,0.83,0.662,1.725,0.995,2.685
	c0.331,0.962,0.662,1.857,0.994,2.685c0.331,0.83,0.562,1.442,0.696,1.84c0.795,2.123,1.557,4.211,2.287,6.265
	c0.729,2.056,1.458,4.145,2.188,6.265c0.928,2.719,1.873,5.387,2.834,8.006c0.96,2.62,1.939,5.221,2.934,7.807
	c0.597-1.724,1.159-3.481,1.69-5.271c0.53-1.79,1.126-3.546,1.79-5.271c1.79-4.773,3.496-9.547,5.122-14.32
	c1.624-4.774,2.867-9.646,3.729-14.619L191.897,60.445z"/>
<path fill="#FFFFFF" stroke="#231F20" stroke-width="2" stroke-miterlimit="10" d="M249.375,58.754
	c0.264-2.452,1.109-4.259,2.536-5.42c1.425-1.159,2.934-1.723,4.525-1.69c1.591,0.034,3.065,0.646,4.425,1.839
	c1.358,1.193,2.071,2.884,2.138,5.072c0.132,2.254-0.448,3.995-1.741,5.221c-1.292,1.228-2.769,1.924-4.425,2.088
	c-1.658,0.167-3.216-0.281-4.674-1.342c-1.459-1.06-2.354-2.75-2.685-5.072L249.375,58.754z"/>
<path fill="#FFFFFF" stroke="#231F20" stroke-width="2" stroke-miterlimit="10" d="M262.502,115.34
	c-0.133,1.327-0.597,2.503-1.392,3.531c-0.795,1.027-1.708,1.773-2.735,2.237c-1.029,0.463-2.138,0.562-3.332,0.298
	c-1.193-0.266-2.254-0.995-3.182-2.188c-0.532-0.663-0.912-1.408-1.144-2.237c-0.233-0.828-0.382-1.691-0.448-2.586
	c-0.067-0.895-0.084-1.79-0.05-2.685c0.033-0.895,0.05-1.706,0.05-2.436c-0.067-3.911-0.084-7.79-0.05-11.636
	c0.033-3.844,0.016-7.723-0.05-11.635c0-1.591-0.099-3.198-0.298-4.823c-0.199-1.624-0.099-3.232,0.298-4.823
	c0.331-1.193,0.911-2.22,1.741-3.083c0.828-0.861,1.756-1.458,2.784-1.791c1.027-0.331,2.088-0.363,3.183-0.099
	c1.094,0.266,2.039,0.962,2.834,2.088c1.06,1.327,1.591,2.635,1.591,3.928c0,1.292,0,2.868,0,4.724c0,2.255,0,4.509,0,6.762
	c0,2.255,0.033,4.476,0.1,6.663c0.065,3.183,0.099,6.365,0.099,9.547c0,3.183,0,6.365,0,9.547L262.502,115.34L262.502,115.34z"/>
<path fill="#FFFFFF" stroke="#231F20" stroke-width="2" stroke-miterlimit="10" d="M271.154,111.461
	c-0.398-1.126-0.564-2.237-0.497-3.332c0.065-1.094,0.348-2.088,0.845-2.983s1.209-1.591,2.138-2.088
	c0.928-0.497,2.054-0.679,3.381-0.547c0.729,0.067,1.393,0.266,1.989,0.597c0.597,0.333,1.144,0.73,1.641,1.193
	c0.498,0.465,0.995,0.962,1.492,1.492c0.498,0.531,1.01,0.995,1.542,1.392c1.126,0.863,2.32,1.492,3.58,1.89
	c1.259,0.398,2.586,0.696,3.978,0.895c0.928,0,1.673-0.23,2.238-0.696c0.562-0.463,0.944-1.027,1.144-1.691
	c0.199-0.662,0.249-1.375,0.149-2.138c-0.099-0.761-0.348-1.375-0.746-1.84c-1.128-1.126-2.503-1.855-4.127-2.188
	c-1.625-0.331-3.133-0.729-4.525-1.193c-1.989-0.662-3.945-1.507-5.868-2.536c-1.924-1.027-3.48-2.437-4.674-4.227
	c-1.26-1.855-2.006-3.829-2.238-5.917c-0.233-2.088-0.067-4.127,0.498-6.116c0.562-1.989,1.507-3.812,2.834-5.469
	c1.326-1.657,2.917-3.016,4.773-4.078c1.393-0.795,2.917-1.308,4.575-1.542c1.656-0.231,3.332-0.281,5.022-0.149
	c1.691,0.133,3.364,0.447,5.022,0.945c1.657,0.497,3.183,1.044,4.575,1.641c1.591,0.73,2.785,1.757,3.58,3.083
	c0.797,1.327,1.176,2.669,1.145,4.027c-0.034,1.36-0.497,2.536-1.393,3.531c-0.895,0.994-2.205,1.492-3.928,1.492
	c-1.061,0-2.023-0.182-2.884-0.547c-0.862-0.364-1.757-0.712-2.685-1.044c-1.193-0.463-2.486-0.778-3.878-0.945
	c-1.393-0.165-2.521-0.082-3.381,0.249c-0.266,0.067-0.564,0.283-0.895,0.646c-0.333,0.365-0.581,0.813-0.746,1.343
	c-0.166,0.531-0.199,1.061-0.099,1.591c0.099,0.532,0.447,0.962,1.044,1.293c1.591,0.862,3.282,1.526,5.072,1.989
	c1.79,0.465,3.546,0.995,5.271,1.591c1.723,0.597,3.332,1.36,4.823,2.288c1.492,0.929,2.734,2.254,3.729,3.978
	c1.458,2.521,2.204,5.156,2.238,7.906c0.033,2.752-0.515,5.32-1.641,7.707c-1.129,2.387-2.785,4.425-4.973,6.116
	c-2.188,1.69-4.741,2.701-7.658,3.033c-2.056,0.199-4.077,0.082-6.066-0.348c-1.989-0.432-3.913-1.128-5.768-2.088
	c-1.857-0.962-3.58-2.104-5.171-3.431c-1.591-1.325-2.983-2.718-4.177-4.177L271.154,111.461z"/>
<path fill="#FFFFFF" stroke="#231F20" stroke-width="2" stroke-miterlimit="10" d="M369.506,119.318
	c-0.861,1.06-1.855,1.79-2.982,2.188c-1.129,0.397-2.287,0.397-3.48,0c-1.193-0.398-2.188-1.293-2.983-2.685
	c-0.333-0.532-0.597-1.094-0.795-1.691c-0.198-0.597-0.298-1.193-0.298-1.79V89.185c-1.26,0-2.404-0.348-3.431-1.044
	c-1.029-0.696-1.79-1.557-2.287-2.585c-0.498-1.027-0.681-2.121-0.547-3.282c0.132-1.16,0.662-2.238,1.591-3.232
	c0.662-0.729,1.375-1.209,2.138-1.442c0.762-0.231,1.574-0.381,2.438-0.447c-0.067-2.054-0.117-4.078-0.149-6.066
	c-0.033-1.989,0.115-3.978,0.448-5.967c0.398-3.116,1.325-5.768,2.785-7.956c1.458-2.188,3.265-3.878,5.42-5.072
	c2.153-1.193,4.557-1.89,7.21-2.088c2.651-0.199,5.402,0.199,8.254,1.193c1.193,0.397,2.337,0.895,3.431,1.492
	c1.095,0.597,2.071,1.36,2.935,2.287c0.597,0.664,1.027,1.442,1.292,2.337c0.264,0.895,0.313,1.79,0.148,2.685
	c-0.167,0.895-0.497,1.725-0.995,2.486c-0.496,0.763-1.209,1.343-2.138,1.741c-1.26,0.531-2.503,0.664-3.729,0.397
	c-1.229-0.264-2.438-0.696-3.63-1.292c-0.73-0.264-1.427-0.53-2.088-0.796c-0.664-0.264-1.36-0.463-2.089-0.597
	c-0.729-0.132-1.392-0.033-1.988,0.298c-0.598,0.333-1.111,0.78-1.541,1.343c-0.433,0.564-0.764,1.193-0.995,1.89
	c-0.233,0.696-0.349,1.376-0.349,2.039c-0.066,1.526-0.084,3.067-0.05,4.624c0.033,1.559,0.05,3.1,0.05,4.625
	c0.995-0.065,2.055-0.132,3.184-0.199c1.126-0.065,2.237-0.1,3.331-0.1s2.104,0.034,3.033,0.1c0.928,0.066,1.656,0.199,2.188,0.397
	c1.061,0.398,1.922,1.012,2.585,1.84c0.662,0.83,1.094,1.725,1.293,2.685c0.199,0.962,0.115,1.939-0.249,2.934
	c-0.365,0.995-1.012,1.857-1.938,2.586c-0.862,0.664-1.857,1.128-2.983,1.392c-1.128,0.266-2.321,0.448-3.58,0.547
	c-1.26,0.1-2.486,0.134-3.679,0.1c-1.194-0.033-2.255-0.05-3.184-0.05v26.553C370.899,116.998,370.367,118.256,369.506,119.318z"/>
<path fill="#FFFFFF" stroke="#231F20" stroke-width="2" stroke-miterlimit="10" d="M388.003,94.356
	c0.463-1.922,1.109-3.812,1.939-5.668c0.827-1.855,1.84-3.63,3.032-5.32c1.193-1.691,2.536-3.232,4.028-4.625
	c1.492-1.392,3.098-2.519,4.823-3.381c3.048-1.591,6.116-2.402,9.199-2.437c3.083-0.033,5.949,0.581,8.602,1.84
	c2.651,1.26,4.906,3.132,6.763,5.619c1.855,2.486,3.083,5.454,3.68,8.9c0.331,2.255,0.513,4.393,0.547,6.415
	c0.032,2.023-0.185,4.127-0.646,6.315c-0.664,3.117-2.006,6.215-4.027,9.298c-2.023,3.083-4.442,5.668-7.261,7.757
	c-2.817,2.088-5.9,3.463-9.249,4.127c-3.349,0.662-6.712,0.132-10.094-1.591c-1.526-0.73-2.901-1.575-4.127-2.536
	c-1.228-0.96-2.337-2.104-3.332-3.431c-1.128-1.458-2.006-2.983-2.635-4.574c-0.631-1.591-1.145-3.248-1.542-4.973
	c-0.465-1.855-0.631-3.729-0.498-5.619c0.132-1.89,0.364-3.729,0.696-5.52L388.003,94.356z"/>
<path fill="#FFFFFF" stroke="#231F20" stroke-width="2" stroke-miterlimit="10" d="M399.938,96.445
	c-0.199,1.062-0.365,2.105-0.497,3.133c-0.135,1.029-0.135,2.073,0,3.132c0.198,1.526,0.611,2.918,1.242,4.177
	c0.63,1.26,1.458,2.255,2.486,2.984c1.027,0.73,2.204,1.111,3.53,1.144c1.326,0.034,2.75-0.381,4.275-1.243
	c1.922-1.126,3.58-2.867,4.974-5.221c1.392-2.353,2.253-4.806,2.585-7.359c0.331-2.552,0.064-4.973-0.795-7.26
	c-0.863-2.287-2.554-3.928-5.072-4.923c-1.658,0-3.183,0.315-4.575,0.945c-1.393,0.631-2.603,1.459-3.63,2.486
	c-1.029,1.029-1.924,2.237-2.685,3.63C401.014,93.461,400.4,94.92,399.938,96.445z"/>
<path fill="#FFFFFF" stroke="#231F20" stroke-width="2" stroke-miterlimit="10" d="M439.714,87.445
	c0.065-0.43,0.033-1.209-0.1-2.337c-1.062-0.597-1.891-1.358-2.486-2.287c-0.597-0.928-0.944-1.922-1.044-2.983
	c-0.1-1.06,0.1-2.071,0.597-3.033c0.497-0.96,1.309-1.773,2.438-2.437c1.523-0.861,3.198-1.027,5.021-0.497
	c1.823,0.531,3.397,1.327,4.725,2.387c1.657-1.259,3.381-2.32,5.171-3.183c1.79-0.861,3.613-1.442,5.47-1.74
	c1.855-0.298,3.745-0.249,5.668,0.149c1.922,0.398,3.812,1.228,5.668,2.486c0.928,0.597,1.79,1.343,2.585,2.238
	c0.796,0.895,1.293,1.906,1.492,3.033c0.331,1.658,0.199,3.1-0.396,4.326c-0.598,1.228-1.428,2.123-2.486,2.685
	c-1.062,0.564-2.254,0.73-3.58,0.498c-1.327-0.232-2.585-0.945-3.779-2.138c-0.397-0.264-0.681-0.48-0.846-0.646
	c-0.166-0.165-0.514-0.381-1.044-0.646c-1.062-0.264-2.105-0.199-3.133,0.199c-1.028,0.398-2.023,0.945-2.983,1.641
	c-0.962,0.696-1.857,1.459-2.685,2.287c-0.83,0.83-1.576,1.576-2.237,2.238v25.359c0,0.995-0.199,1.957-0.597,2.884
	c-0.598,1.524-1.542,2.585-2.834,3.182c-1.292,0.597-2.585,0.761-3.878,0.497c-1.293-0.266-2.422-0.929-3.382-1.989
	c-0.962-1.061-1.441-2.419-1.441-4.077V87.693C439.615,87.959,439.646,87.877,439.714,87.445z"/>
<path fill="#FFFFFF" stroke="#231F20" stroke-width="2" stroke-miterlimit="10" d="M238.187,492.445
	c0.53-1.989,1.492-3.381,2.884-4.178c1.392-0.795,2.817-1.06,4.276-0.795c1.458,0.267,2.685,1.013,3.679,2.237
	c0.995,1.228,1.358,2.834,1.094,4.823c-0.398,2.521-0.912,5.04-1.542,7.558c-0.631,2.521-1.31,5.007-2.039,7.458
	c-0.995,3.184-2.106,6.299-3.332,9.349c-1.228,3.05-2.372,6.166-3.431,9.348c-1.061,2.983-2.138,5.951-3.232,8.9
	c-1.094,2.95-2.238,5.917-3.431,8.9c-0.397,0.994-0.812,2.039-1.243,3.132c-0.432,1.095-0.979,2.039-1.641,2.834
	c-0.995,1.325-2.354,2.121-4.077,2.388c-1.725,0.264-3.25-0.167-4.575-1.293c-1.062-0.93-1.824-2.073-2.288-3.432
	c-0.464-1.357-0.961-2.668-1.492-3.928c-0.597-1.591-1.277-3.347-2.039-5.271c-0.763-1.923-1.409-3.646-1.939-5.172
	c-1.128-2.982-2.205-5.981-3.232-9c-1.028-3.016-2.105-6.017-3.232-9c-0.929,2.785-1.907,5.487-2.934,8.105
	c-1.029,2.62-2.006,5.288-2.934,8.006c-0.73,1.79-1.427,3.58-2.088,5.37c-0.664,1.79-1.36,3.547-2.088,5.271
	c-0.465,1.193-0.846,2.105-1.144,2.735c-0.298,0.631-0.78,1.608-1.442,2.934c-0.464,1.061-1.161,2.006-2.088,2.834
	c-0.929,0.828-1.906,1.393-2.934,1.69c-1.029,0.298-2.073,0.281-3.133-0.05c-1.061-0.333-1.989-1.128-2.784-2.388
	c-1.128-1.723-1.907-3.744-2.337-6.065c-0.432-2.32-0.945-4.441-1.542-6.365c-0.398-1.192-0.78-2.387-1.144-3.58
	c-0.365-1.192-0.746-2.353-1.144-3.48c-0.397-1.193-0.812-2.388-1.243-3.58c-0.432-1.193-0.845-2.354-1.243-3.48
	c-1.327-3.844-2.702-7.641-4.127-11.387c-1.426-3.745-2.868-7.508-4.326-11.288c-0.266-0.795-0.631-1.605-1.094-2.436
	c-0.464-0.829-0.895-1.691-1.292-2.586c-0.398-0.896-0.713-1.79-0.945-2.686c-0.233-0.895-0.315-1.773-0.249-2.635
	c0.132-1.126,0.547-2.088,1.243-2.884c0.696-0.796,1.507-1.375,2.436-1.741c0.928-0.363,1.922-0.497,2.983-0.397
	c1.06,0.1,2.022,0.515,2.884,1.243c1.79,1.526,3.132,3.547,4.027,6.066c0.895,2.521,1.741,4.84,2.536,6.961
	c0.928,2.32,1.79,4.659,2.585,7.011c0.796,2.354,1.657,4.691,2.586,7.011c0.928,2.521,1.823,5.008,2.685,7.458
	c0.861,2.454,1.69,4.94,2.486,7.459c0.264-0.597,0.498-1.209,0.696-1.84c0.199-0.629,0.431-1.276,0.696-1.938
	c1.325-3.314,2.568-6.597,3.729-9.846c1.159-3.248,2.238-6.562,3.232-9.944c0.331-0.929,0.612-1.872,0.845-2.834
	c0.231-0.96,0.48-1.905,0.746-2.834c0.463-1.592,0.762-2.834,0.895-3.729c0.132-0.895,0.53-1.873,1.193-2.934
	c0.597-0.929,1.393-1.606,2.387-2.039c0.995-0.431,2.022-0.629,3.083-0.598c1.06,0.034,2.039,0.315,2.934,0.846
	c0.895,0.531,1.574,1.327,2.039,2.387c0.199,0.398,0.463,1.012,0.795,1.84c0.331,0.83,0.662,1.726,0.995,2.686
	c0.331,0.962,0.662,1.856,0.994,2.685c0.331,0.83,0.562,1.442,0.696,1.84c0.795,2.123,1.557,4.211,2.287,6.266
	c0.729,2.056,1.458,4.145,2.188,6.265c0.928,2.719,1.873,5.387,2.834,8.006c0.96,2.62,1.939,5.221,2.934,7.807
	c0.597-1.724,1.159-3.48,1.69-5.271c0.53-1.79,1.126-3.546,1.79-5.271c1.79-4.772,3.496-9.547,5.122-14.319
	c1.624-4.774,2.867-9.646,3.729-14.619L238.187,492.445z"/>
<path fill="#FFFFFF" stroke="#231F20" stroke-width="2" stroke-miterlimit="10" d="M268.616,552.163
	c-1.327,0.96-2.702,1.408-4.127,1.343c-1.426-0.066-2.685-0.646-3.779-1.74c-1.094-1.094-1.641-2.602-1.641-4.524v-55.293
	c0-1.524,0.597-2.817,1.79-3.878s2.519-1.724,3.978-1.989c1.458-0.264,2.817-0.032,4.077,0.696c1.259,0.729,1.955,2.088,2.088,4.078
	c0.264,3.447,0.381,6.812,0.348,10.094c-0.034,3.282-0.084,6.581-0.149,9.895c2.452-1.655,5.005-2.768,7.657-3.332
	c2.651-0.562,5.204-0.547,7.658,0.051c2.452,0.597,4.739,1.789,6.862,3.579c2.121,1.79,3.844,4.276,5.171,7.458
	c0.928,2.123,1.557,4.394,1.89,6.812c0.331,2.421,0.513,4.873,0.547,7.359c0.033,2.485,0,4.956-0.1,7.408
	c-0.1,2.454-0.148,4.773-0.148,6.961c0,1.393-0.365,2.652-1.094,3.779c-0.73,1.127-1.641,1.955-2.735,2.486
	c-1.094,0.529-2.255,0.695-3.48,0.497c-1.228-0.199-2.337-0.93-3.332-2.188c-0.995-1.327-1.608-2.884-1.84-4.674
	c-0.233-1.79-0.298-3.695-0.199-5.718c0.1-2.021,0.249-4.093,0.448-6.215c0.199-2.121,0.249-4.16,0.149-6.116
	c-0.099-1.955-0.481-3.763-1.144-5.419c-0.664-1.657-1.824-3.017-3.48-4.078c-1.327-0.199-2.521-0.115-3.58,0.249
	c-1.062,0.365-2.023,0.912-2.884,1.641c-0.862,0.73-1.675,1.56-2.436,2.486c-0.763,0.929-1.542,1.855-2.337,2.784
	c-0.199,0.333-0.432,0.646-0.696,0.944c-0.266,0.299-0.564,0.614-0.895,0.945v18.896
	C270.804,549.627,269.942,551.201,268.616,552.163z"/>
<path fill="#FFFFFF" stroke="#231F20" stroke-width="2" stroke-miterlimit="10" d="M352.351,545.749
	c0.53,1.923,0.431,3.515-0.298,4.773c-0.729,1.258-1.74,2.104-3.033,2.535s-2.701,0.382-4.227-0.148
	c-1.526-0.532-2.851-1.591-3.978-3.183c-1.857,1.393-3.664,2.369-5.421,2.934c-1.757,0.562-3.763,0.878-6.017,0.944
	c-3.381,0.132-6.397-0.249-9.049-1.145c-2.653-0.895-4.89-2.237-6.713-4.026c-1.824-1.79-3.167-4.028-4.028-6.714
	c-0.862-2.685-1.161-5.783-0.895-9.298c0.132-1.458,0.381-2.884,0.746-4.275c0.363-1.393,0.777-2.75,1.242-4.077
	c0.53-1.458,1.275-3.017,2.237-4.674c0.96-1.656,1.939-3.083,2.935-4.276c3.579-4.376,8.055-7.524,13.425-9.448
	c0.928-0.331,2.188-0.629,3.778-0.895c1.592-0.265,3.198-0.381,4.823-0.349c1.624,0.034,3.183,0.249,4.674,0.646
	c1.491,0.396,2.602,1.094,3.331,2.088c0.598,0.796,1.027,1.492,1.293,2.088c0.265,0.597,0.414,1.229,0.448,1.891
	c0.032,0.663,0.032,1.375,0,2.138c-0.034,0.763-0.05,1.708-0.05,2.834c0,1.856-0.018,3.664-0.05,5.42
	c-0.034,1.758-0.018,3.531,0.05,5.321c0,0.597,0,1.376,0,2.337c0,0.962,0.033,1.973,0.099,3.032
	c0.065,1.062,0.149,2.073,0.249,3.033c0.1,0.961,0.249,1.74,0.447,2.337L352.351,545.749z"/>
<path fill="#FFFFFF" stroke="#231F20" stroke-width="2" stroke-miterlimit="10" d="M331.268,541.274
	c0.729-0.464,1.558-0.979,2.486-1.542c0.928-0.562,1.756-1.209,2.486-1.939c-0.598-3.513-0.945-7.026-1.044-10.542
	c-0.101-3.513-0.084-7.061,0.05-10.641c-2.983,0.53-5.668,1.823-8.055,3.878c-2.388,2.056-4.045,4.475-4.974,7.26
	c-0.396,1.128-0.729,2.287-0.994,3.479c-0.266,1.193-0.364,2.354-0.298,3.48c0.065,1.526,0.463,2.802,1.193,3.829
	c0.729,1.027,1.605,1.807,2.635,2.337c1.027,0.531,2.121,0.83,3.282,0.895C329.195,541.838,330.273,541.671,331.268,541.274z"/>
<path fill="#FFFFFF" stroke="#231F20" stroke-width="2" stroke-miterlimit="10" d="M373.334,543.959
	c0.729,0.663,1.343,1.509,1.84,2.536c0.497,1.029,0.761,2.056,0.795,3.083c0.033,1.027-0.199,1.989-0.695,2.884
	c-0.498,0.896-1.377,1.574-2.637,2.039c-0.994,0.331-2.088,0.398-3.281,0.199s-2.371-0.598-3.53-1.193
	c-1.161-0.597-2.188-1.31-3.083-2.138c-0.896-0.83-1.542-1.74-1.939-2.735c-0.134-0.331-0.232-0.712-0.298-1.144
	c-0.067-0.432-0.1-0.812-0.1-1.145v-55.192c0-1.524,0.58-2.817,1.739-3.878s2.438-1.691,3.829-1.891
	c0.662-0.064,1.375,0.034,2.139,0.298c0.762,0.267,1.475,0.646,2.138,1.145c0.662,0.497,1.209,1.079,1.641,1.74
	c0.431,0.664,0.646,1.359,0.646,2.088c0,1.725,0,4.012,0,6.861c0,2.853,0.015,5.968,0.05,9.349
	c0.032,3.381,0.049,6.879,0.049,10.492s-0.017,7.077-0.049,10.393c-0.035,3.316-0.05,6.349-0.05,9.099
	c0,2.752-0.034,4.957-0.1,6.613L373.334,543.959z"/>
<path fill="#FFFFFF" stroke="#231F20" stroke-width="2" stroke-miterlimit="10" d="M418.583,536.798
	c1.591-0.396,2.999-0.413,4.227-0.049c1.227,0.365,2.171,0.979,2.835,1.839c0.661,0.863,0.959,1.924,0.895,3.183
	c-0.067,1.261-0.631,2.585-1.69,3.979c-0.862,1.128-2.056,2.088-3.581,2.884c-1.525,0.795-2.95,1.426-4.275,1.891
	c-3.25,1.192-6.332,2.021-9.249,2.485c-2.918,0.463-5.653,0.463-8.205,0c-2.553-0.464-4.94-1.426-7.16-2.884
	c-2.222-1.458-4.293-3.513-6.216-6.166c-1.327-1.79-2.304-3.829-2.934-6.116c-0.632-2.287-0.979-4.625-1.045-7.011
	c-0.066-2.387,0.133-4.739,0.598-7.061c0.463-2.32,1.126-4.408,1.988-6.266c1.127-2.32,2.918-4.44,5.37-6.365
	c2.452-1.922,5.171-3.445,8.155-4.574c2.983-1.126,6.032-1.773,9.149-1.939c3.114-0.165,5.866,0.315,8.254,1.442
	c1.989,0.929,3.694,2.271,5.122,4.026c1.425,1.758,2.401,3.664,2.934,5.719c0.53,2.056,0.58,4.127,0.149,6.216
	c-0.433,2.088-1.51,3.995-3.232,5.718c-1.658,1.658-3.479,3-5.469,4.027c-1.989,1.028-4.045,1.924-6.166,2.685
	c-2.123,0.763-4.293,1.41-6.515,1.939c-2.222,0.53-4.359,1.128-6.414,1.79c1.393,1.591,2.982,2.603,4.772,3.032
	c1.79,0.433,3.663,0.515,5.619,0.249c1.955-0.264,3.928-0.811,5.917-1.641c1.989-0.828,3.844-1.74,5.569-2.735L418.583,536.798z"/>
<path fill="#FFFFFF" stroke="#231F20" stroke-width="2" stroke-miterlimit="10" d="M398.495,519.693
	c-1.526,0.862-2.652,1.938-3.381,3.231c-0.73,1.292-1.261,3.101-1.591,5.42c1.723-0.53,3.662-1.094,5.817-1.69
	c2.153-0.598,4.192-1.227,6.116-1.89c1.922-0.661,3.546-1.393,4.873-2.188c1.325-0.796,1.989-1.657,1.989-2.586
	c0-0.53-0.084-1.044-0.249-1.541c-0.166-0.498-0.515-0.847-1.044-1.044c-1.857-0.662-3.779-0.795-5.769-0.398
	c-1.989,0.398-3.646,0.962-4.973,1.691L398.495,519.693z"/>
</svg>
