<?xml version="1.0" encoding="utf-8"?>
<!-- Generator: Adobe Illustrator 16.0.0, SVG Export Plug-In . SVG Version: 6.00 Build 0)  -->
<!DOCTYPE svg PUBLIC "-//W3C//DTD SVG 1.1//EN" "http://www.w3.org/Graphics/SVG/1.1/DTD/svg11.dtd">
<svg version="1.1" xmlns="http://www.w3.org/2000/svg" xmlns:xlink="http://www.w3.org/1999/xlink" x="0px" y="0px" width="100%"
	 height="100%" viewBox="0 0 1000 1000" style="enable-background:new 0 0 1000 1000;" xml:space="preserve">
<g id="Layer_3">
	<rect style="fill:#FFFFFF;" width="1000" height="1000"/>
</g>
<g id="Layer_1">
	<path style="fill:#006838;stroke:#231F20;stroke-width:2;stroke-miterlimit:10;" d="M613.256,442.279
		c-22.1-4.354-45.524-6.912-68.543-5.84c-0.064,0.066-0.131,0.14-0.195,0.206c-0.643,0.688-1.476,0.463-1.957-0.083
		c-11.095,0.626-22.079,2.118-32.766,4.675c-0.456,0.608-1.672,1.32-4,2.091c-22.163,7.345-41.39-9.211-58.264-21.79
		c-9.833-7.325-20.929-14.406-26.859-25.582c-6.56-12.354-8.185-25.985-11.437-39.408c-14.643-60.258-34.75-149.099-102.932-169.38
		c-39.48-11.738-98.978-9.32-120.01,33.096c-8.268,16.678-14.217,39.222-9.542,57.733c3.249,12.899,15.606,32.361,12.128,45.899
		c-4.893,19.103-20.323,30.574-18.281,52.248c0.793,8.423,2.831,16.04,6.229,23.802c2.908,6.647,8.128,9.475,11.655,14.974
		c9.42,14.688-1.127,29.559,3.888,45.128c4.122,12.785,14.221,38.412,31.752,36.123c0.933-0.124,5.602-0.964,5.843,0.875
		c4.794,36.566,37.839,53.802,51.808,86.121c8.281,19.156,17.638,33.754,39.656,37.711c17.248,3.104,35.292,3.5,51.881,9.721
		c19.447,7.3,36.205,20.386,55.722,27.256c19.746,6.954,40.275,10.288,61.123,11.752c42.263,2.972,91.483,10.382,131.983-4.514
		c8.47-3.118,16.782-6.875,24.729-11.229c0.239-0.582,0.768-0.795,1.304-0.708c26.861-15.04,49.124-37.4,57.075-68.321
		c7.612-29.586,6.337-63.881-8.97-91.038C678.723,462.63,647.202,448.958,613.256,442.279z"/>
		<path style="fill:#FFFFFF;stroke:#231F20;stroke-width:2;stroke-miterlimit:10;" d="M637.751,436.271
			c9.059-3.736,18.648-5.939,28.321-7.381c1.764-0.262,1.009-2.933-0.736-2.67c-9.676,1.439-19.254,3.649-28.323,7.382
			C635.389,434.276,636.104,436.956,637.751,436.271z"/>
		<path style="fill:#FFFFFF;stroke:#231F20;stroke-width:2;stroke-miterlimit:10;" d="M758.64,528.813
			c-12.297-3.109-25.045-3.891-37.11-7.695c-1.371-6.444-3.234-12.771-5.605-18.885c7.925,0.45,15.771,1.547,23.523,3.394
			c1.729,0.417,2.473-2.25,0.728-2.658c-8.363-2.006-16.851-3.131-25.42-3.541c-1.696-4.064-3.619-8.014-5.763-11.833
			c8.563-1.527,17.155-2.712,25.896-2.845c1.785-0.026,1.785-2.792,0-2.766c-9.238,0.138-18.296,1.421-27.325,3.057
			c-1.221-2.045-2.492-4.05-3.842-6.008c-4.337-6.293-9.562-11.653-15.36-16.322c8.562-4.456,16.989-5.594,27.287-3.222
			c8.12,1.876,15.806,4.542,24.163,5.311c1.776,0.158,1.767-2.607,0-2.77c-10.138-0.93-19.398-5.224-29.423-6.421
			c-9.221-1.1-16.867,0.926-24.439,5.2c-5.266-3.945-10.972-7.326-16.976-10.237c8.965-4.602,17.164-11.325,26.295-15.252
			c1.642-0.701,0.228-3.091-1.396-2.396c-9.73,4.186-18.415,11.64-28.136,16.146c-17.752-8.01-37.707-12.281-55.947-15.169
			c-5.377-0.85-10.819-1.552-16.295-2.121c11.396-5.572,23.835-8.404,35.896-12.324c1.689-0.554,0.965-3.226-0.738-2.671
			c-13.595,4.414-27.621,7.505-40.188,14.505c-6.465-0.565-12.971-0.926-19.488-1.052c9.443-4.599,17.963-11.746,27.507-15.848
			c1.637-0.702,0.219-3.083-1.402-2.39c-11.44,4.91-21.423,14.35-33.34,18.198c-3.855,0.026-7.712,0.118-11.561,0.316
			c5.856-6.523,11.413-13.755,13.385-22.187c0.409-1.736-2.258-2.474-2.671-0.734c-2.074,8.874-8.454,16.424-14.702,23.18
			c-8.222,0.557-16.393,1.522-24.455,2.944c2.791-2.17,5.927-3.668,9.47-5.028c2.464-0.947,4.82-1.658,6.803-3.451
			c5.124-4.643,2.245-15.839,1.319-21.566c-0.284-1.76-2.941-1.013-2.67,0.731c0.698,4.298,1.287,8.456,1.154,12.811
			c-0.205,6.69-4.066,7.547-9.154,9.495c-4.676,1.801-8.633,4.255-11.949,7.941c-4.179,0.841-8.323,1.799-12.422,2.897
			c-2.543,0.682-4.183,1.602-5.011,2.479c-3.593,0.331-8.483-1.721-13.713-4.861c5.383-5.274,28.852,1.526,28.659-12.665
			c-0.026-1.78-2.799-1.787-2.771,0c0.174,12.405-22.564,4.063-28.4,11.094c-6.394-4.139-12.982-9.446-18.082-13.618
			c8.618-2.088,20.117,3.16,26.917-3.874c1.245-1.294-0.714-3.249-1.958-1.966c-4.297,4.457-12.38,2.892-18.207,2.992
			c-2.885,0.052-6.102,0.174-9.01,1.005c-1.792-1.469-3.346-2.726-4.485-3.576c-3.5-2.607-6.763-5.178-9.788-7.838
			c3.743-2.553,9.881-2.835,13.814-2.264c4.366,0.637,9.003,2.013,11.854-2.256c0.986-1.491-1.414-2.878-2.398-1.399
			c-2.28,3.424-7.905,0.917-11.271,0.698c-2.864-0.185-5.783,0.245-8.569,0.876c-2.071,0.473-3.932,1.308-5.461,2.472
			c-4.015-3.739-7.532-7.746-10.476-12.301c9.615-3.974,23.064,5.092,31.263-2.759c1.287-1.241-0.679-3.199-1.965-1.965
			c-5.208,4.996-17.43,0.659-24.06,1.046c-2.372,0.132-4.6,0.625-6.629,1.499c-2.022-3.478-3.748-7.279-5.106-11.581
			c-1.147-3.629-2.223-7.269-3.265-10.918c2.71,0.453,4.293,1.82,7.128,2.882c2.978,1.118,6.077,1.767,9.218,2.276
			c4.086,0.664,9.912,1.376,12.658-2.449c1.046-1.456-1.363-2.839-2.398-1.4c-2.838,3.96-13.161,0.62-16.823-0.437
			c-2.465-0.698-4.62-2.299-6.985-3.292c-1.101-0.46-2.371-0.655-3.694-0.725c-2.166-7.761-4.151-15.554-6.094-23.348
			c0.888,0.628,1.766,1.373,2.655,2.276c1.594,1.622,4.85,2.131,6.924,2.598c4.417,1.005,9.955,1.737,13.73-1.241
			c1.406-1.112-0.566-3.058-1.958-1.965c-5.453,4.3-16.182-0.377-19.62-4.838c-0.893-1.164-1.943-1.836-3.07-2.203
			c-1.521-6.134-3.036-12.268-4.613-18.393c2.737-0.138,5.361,0.653,7.919,3.227c1.773,1.786,3.764,3.851,6.243,4.631
			c5.502,1.754,8.912-0.916,11.854-5.442c0.979-1.505-1.416-2.889-2.388-1.396c-6.279,9.645-11.693,0.929-17.704-3.067
			c-1.908-1.271-4.302-1.36-6.712-0.959c-1.874-7.173-3.859-14.326-6.046-21.44c3.122-0.82,5.95-0.287,9.773,1.5
			c2.17,1.016,4.48,1.638,6.826,2.085c4.194,0.803,8.4,0,10.481-3.955c0.83-1.585-1.557-2.981-2.39-1.403
			c-3.318,6.302-12.198,1.085-16.656-0.533c-3.33-1.21-6.099-1.254-8.882-0.433c-2.066-6.544-4.321-13.049-6.855-19.501
			c-0.015-0.04-0.031-0.079-0.047-0.116c6.135-0.532,13.736,3.62,18.975,4.907c4.451,1.092,9.257,1.812,13.515-0.199
			c1.608-0.768,0.203-3.153-1.398-2.403c-10.72,5.083-22.146-6.875-32.247-5.167c-2.355-5.833-4.907-11.649-7.69-17.376
			c2.014,0.224,4.07,0.919,6.597,2.21c4.386,2.256,8.817,4.43,13.257,6.577c1.602,0.774,3.007-1.618,1.4-2.395
			c-5.734-2.766-11.431-5.611-17.083-8.54c-2.022-1.045-3.914-1.3-5.789-1.154c-3.123-6.174-6.542-12.195-10.294-17.973
			c8.118-0.202,16.314,6.425,24.983,4.804c1.756-0.321,1.012-2.988-0.732-2.664c-9.37,1.741-17.373-5.645-26.018-4.774
			c-3.446-5.082-7.176-9.934-11.223-14.493c3.515-0.576,8.564,0.116,11.081,0.468c5.809,0.816,11.124,2.846,17.062,2.823
			c1.787-0.01,1.787-2.779,0-2.769c-7.322,0.03-14.177-2.85-21.469-3.239c-2.137-0.106-4.543-0.389-6.661-0.044
			c-0.714,0.116-1.36,0.323-1.985,0.556c-3.881-4.169-8.069-8.036-12.553-11.581c2.482-0.942,5.053-1.444,7.911-0.747
			c3.576,0.876,5.744,2.744,9.595,2.358c1.76-0.175,1.78-2.951,0-2.771c-4.38,0.441-8.119-2.504-12.48-2.831
			c-2.538-0.191-5.14,0.765-7.619,1.95c-3.438-2.543-7.049-4.889-10.859-7.004c-2.226-1.236-4.524-2.358-6.854-3.429
			c0.344-0.134,0.683-0.268,1.031-0.401c7.02-2.667,12.731,0.022,19.567,1.504c1.744,0.38,2.478-2.285,0.737-2.669
			c-4.854-1.051-9.945-3.723-15.034-2.967c-3.386,0.501-6.554,1.836-9.752,3.002c-7.553-3.157-15.546-5.503-23.758-7.104
			c3.009-1.677,6.316-2.735,9.993-3.65c7.299-1.814,14.227-4.893,21.466-6.921c1.716-0.481,0.985-3.153-0.734-2.668
			c-7.971,2.231-15.607,5.468-23.657,7.466c-4.22,1.049-7.904,2.629-11.168,5.06c-5.183-0.847-10.426-1.432-15.688-1.719
			c0.885-3.282,1.912-6.503,3.527-9.542c2.535-4.763,6.627-5.353,11.124-7.282c1.634-0.698,0.218-3.081-1.406-2.388
			c-4.728,2.021-8.317,2.695-11.408,7.128c-2.44,3.496-3.678,7.784-4.718,11.978c-6.377-0.226-12.744-0.059-19.018,0.48
			c0.056-1.991,0.023-3.99,0.1-6.005c0.198-5.12,3.562-7.406,7.182-10.255c1.407-1.098-0.572-3.049-1.965-1.954
			c-2.681,2.108-5.929,4.094-7.044,7.534c-1.163,3.583-0.871,7.246-1.002,10.908c-6.154,0.637-12.194,1.627-18.023,2.946
			c-0.029,0.007-0.059,0.015-0.089,0.021c0.02-7.029-0.637-19.921,6.369-20.202c1.78-0.074,1.784-2.846,0-2.771
			c-10.104,0.411-8.89,15.502-9.118,23.648c-6.576,1.606-12.986,3.582-19.121,6.012c0.255-3.406,0.253-6.799-0.115-10.232
			c-0.443-4.08-2.71-7.67-2.806-11.812c-0.04-1.778-2.812-1.787-2.772,0c0.086,3.717,1.66,6.987,2.591,10.523
			c1.04,3.961,0.744,8.505,0.264,12.702c-3.625,1.542-7.139,3.249-10.529,5.133c-0.558-2.237-1.3-4.397-2.314-6.525
			c-1.684-3.536-5.81-6.498-5.936-10.52c-0.056-1.787-2.823-1.787-2.772,0c0.105,3.3,1.78,5.522,3.841,7.958
			c2.504,2.961,3.856,6.718,4.685,10.498c-4.756,2.819-9.224,6.026-13.358,9.632c-0.071-1.938-0.321-3.866-0.968-5.777
			c-0.582-1.715-1.839-3.043-3.05-4.322c-2.402-2.531-2.842-5.417-2.918-8.756c-0.04-1.783-2.813-1.786-2.772,0
			c0.082,3.484,0.525,6.871,2.845,9.647c3.362,4.032,3.974,7.661,3.99,11.855c-3.288,3.152-6.335,6.583-9.085,10.343
			c-2.37-5.523-6.706-10.557-9.939-15.234c-1.008-1.459-3.414-0.076-2.396,1.401c3.312,4.783,8.483,10.434,10.492,16.501
			c-2.882,4.305-5.44,8.96-7.547,14.075c-0.45,1.092-0.812,2.243-1.215,3.368c-4.53-6.322-11.341-11.643-17.376-14.61
			c-1.594-0.781-3.001,1.608-1.4,2.395c5.988,2.944,13.379,8.729,17.635,15.392c-1.88,6.008-3.072,12.394-3.669,18.839
			c-2.213-1.277-4.328-2.746-6.333-4.215c-2.484-1.813-4.092-3.68-5.528-6.406c-1.045-1.984-2.173-3.662-4.165-4.771
			c-1.565-0.86-2.961,1.533-1.4,2.402c2.562,1.41,3.481,4.605,5.017,6.955c1.135,1.727,3.061,2.971,4.681,4.211
			c2.293,1.754,4.817,3.454,7.474,4.867c-0.238,3.908-0.225,7.812,0.016,11.666c-6.097-3.973-14.712-5.419-19.321-1.257
			c-1.32,1.197,0.642,3.153,1.968,1.958c4.104-3.712,12.689-1.188,17.693,3.136c0.409,3.865,1.007,7.669,1.92,11.292
			c0.452,1.789,0.984,3.557,1.543,5.316c-5.427-2.064-11.485-2.799-17.156-4.748c-1.691-0.583-2.409,2.091-0.735,2.67
			c6.306,2.164,13.237,2.722,19.063,5.614c2.089,6.016,4.5,11.931,6.348,18.032c-0.181-0.14-0.339-0.301-0.529-0.434
			c-7.056-4.976-16.634-2.316-23.304-7.523c-1.394-1.092-3.366,0.861-1.959,1.962c4.163,3.245,9.317,3.821,14.432,4.437
			c5.886,0.702,9.965,3.573,12.887,7.609c1.24,8.371-3.028,15.609-7.378,22.561c-6.853-7.346-16.361-16.582-24.274-12.089
			c-1.556,0.883-0.159,3.279,1.396,2.396c5.204-2.955,12.278,3.861,15.814,6.971c1.907,1.677,3.692,3.474,5.457,5.291
			c-0.369,0.592-0.734,1.18-1.09,1.773c-1.271,2.107-2.374,4.238-3.332,6.396c-0.179-0.218-0.344-0.44-0.526-0.652
			c-1.499-1.746-3.189-3.308-5.07-4.628c-2.157-1.502-5.032-1.747-7.334-3.005c-1.562-0.853-2.961,1.536-1.389,2.393
			c3.622,1.989,7.208,2.545,10.295,5.559c1.001,0.976,1.945,2.061,2.844,3.186c-1.785,4.715-2.837,9.529-3.271,14.399
			c-1.556-1.191-3.114-2.382-4.89-3.169c-0.913-0.408-2.035-0.716-3.034-0.576c-1.82,0.258-5.042,2.643-6.733,1.045
			c-1.297-1.218-3.259,0.735-1.962,1.965c3.444,3.243,5.965-0.721,9.677-0.205c2.527,0.351,4.632,2.078,6.76,3.788
			c-0.213,5.621,0.404,11.309,1.749,17.006c-1.15-0.493-2.301-0.983-3.476-1.426c-3.301-1.251-7.992,0.04-10.67-2.429
			c-1.313-1.211-3.272,0.744-1.965,1.966c2.991,2.74,5.419,1.866,9.194,2.395c2.7,0.371,5.215,1.565,7.75,2.693
			c0.468,1.658,0.978,3.315,1.564,4.97c1.046,2.963,2.138,5.766,3.47,8.364c-3.909,0.945-9.223,4.083-11.485,0.202
			c-0.903-1.532-3.295-0.143-2.392,1.4c2.213,3.791,5.631,4.394,9.591,2.675c2.255-0.972,4.078-1.455,5.955-1.386
			c1.736,2.707,3.864,5.142,6.736,7.193c3.511,2.507,5.23,5.968,5.944,9.833c-1.026-0.199-2.109-0.083-3.142,0.029
			c-3.765,0.414-7.169-1.79-9.985-4.093c-1.374-1.125-3.345,0.827-1.959,1.958c4.103,3.346,7.954,5.344,13.248,4.758
			c0.791-0.086,1.512,0.169,2.208,0.546c0.252,4.8-0.646,9.981-1.505,14.684c-6.124-0.541-13.888,2.507-14.357-6.661
			c-0.092-1.777-2.862-1.78-2.77,0c0.248,4.761,2.475,8.888,7.609,9.556c3.014,0.393,6.002-0.199,9.008-0.06
			c-0.213,1.221-0.408,2.399-0.551,3.501c-0.532,4.142-0.251,8.393,0.609,12.598c-0.781-0.446-1.579-0.861-2.432-1.171
			c-4.54-1.658-8.427,0.142-12.992,0.792c-1.767,0.241-1.013,2.914,0.727,2.663c2.005-0.277,3.931-0.781,5.886-1.244
			c3.266-0.774,5.781,0.397,8.5,2.025c0.435,0.257,0.851,0.509,1.274,0.761c1.038,3.487,2.474,6.896,4.282,10.131
			c-0.755,0.179-1.512,0.35-2.225,0.655c-4.566,1.925-7.531,6.114-12.215,7.861c-1.665,0.615-0.94,3.288,0.738,2.667
			c3.252-1.21,5.671-3.13,8.298-5.341c2.177-1.839,4.531-2.738,7.003-3.188c4.062,6.372,9.443,11.917,15.617,15.748
			c-0.278,0.22-0.562,0.404-0.84,0.656c-1.314,1.197-2.402,2.685-3.606,3.996c-2.752,3.006-6.472,2.779-10.084,1.846
			c-1.737-0.441-2.462,2.229-0.738,2.673c4.232,1.087,8.037,1.112,11.686-1.521c2.673-1.932,4.031-4.613,6.422-6.094
			c4.349,2.249,8.989,3.652,13.757,3.942c0.162,1.139,0.369,2.23,0.569,3.33c-0.562-0.126-1.133-0.225-1.711-0.272
			c-2.458-0.218-4.834-0.038-7.236,0.49c-3.706,0.821-6.028,4.435-10.283,3.229c-1.723-0.49-2.455,2.184-0.737,2.666
			c5.028,1.423,7.219-1.951,11.765-3.223c2.406-0.675,6.068-0.926,8.77,0.125c1.189,5.367,2.906,10.264,5.076,14.896
			c-1.173,0.179-2.36,0.463-3.543,0.801c-6.786,1.912-14.567,6.18-16.595-3.686c-0.358-1.748-3.027-1.006-2.667,0.74
			c3.066,14.936,14.743,5.023,23.881,4.479c2.108,4.104,4.659,8.001,7.568,11.832c-1.129,0.337-2.236,0.808-3.31,1.476
			c-3.751,2.329-11.047,10.905-15.146,2.997c-0.82-1.587-3.212-0.185-2.396,1.396c1.876,3.612,6.587,4.91,10.432,4.063
			c2.22-0.483,3.619-1.443,5.29-2.951c2.111-1.906,2.958-3.375,6.051-4.487c0.278-0.099,0.591-0.132,0.883-0.204
			c1.8,2.229,3.684,4.452,5.76,6.675c1.909,2.052,3.823,4.084,5.721,6.122c-0.256,0.186-0.515,0.351-0.768,0.582
			c-1.019,0.947-1.409,2.68-1.817,3.943c-1.714,5.215-6.706,6.379-11.523,5.148c-1.727-0.442-2.462,2.224-0.734,2.674
			c4.414,1.131,8.288,0.715,11.904-2.137c1.539-1.212,2.356-3.178,3.021-4.95c0.539-1.43,1.264-2.297,2.101-2.858
			c3.199,3.493,6.32,7.048,9.216,10.793c-0.88,0.172-1.772,0.436-2.688,0.859c-2.127,0.98-3.652,3.098-5.151,4.797
			c-2.541,2.892-5.31,3.793-9.104,3.699c-1.791-0.046-1.784,2.726,0,2.772c3.328,0.08,6.574-0.377,9.161-2.679
			c1.731-1.55,3.137-3.354,4.771-4.978c1.443-1.424,3.11-1.938,4.834-1.952c1.275,1.754,2.56,3.501,3.719,5.36
			c1.413,2.269,2.666,4.626,3.842,7.026c-1.133,0.048-2.178,0.266-3.025,0.788c-1.945,1.219-2.53,2.416-3.053,4.626
			c-0.48,2.038-4.02,9.688-6.964,6.981c-1.307-1.205-3.276,0.747-1.952,1.958c4.086,3.765,7.93-0.853,10.044-4.447
			c1.791-3.051,1.632-7.094,6.237-6.801c0.062,0.006,0.124,0.019,0.188,0.025c1.986,4.341,3.801,8.787,5.785,13.142
			c-1.189,0.061-2.376,0.332-3.263,0.842c-4.592,2.619-6.617,9.051-11.917,10.314c-1.74,0.417-0.999,3.083,0.731,2.667
			c4.321-1.025,6.58-4.672,9.293-7.882c2.098-2.48,4.256-3.083,6.674-2.745c0.748,1.528,1.519,3.043,2.352,4.525
			c1.787,3.183,3.853,5.922,6.144,8.285c-1.451,0.237-2.897,0.668-4.332,1.37c-2.769,1.349-5.267,3.044-7.672,4.948
			c-1.155,0.913-3.507,3.078-3.541,3.039c-1.15-1.364-3.1,0.602-1.952,1.958c0.013,0.02,0.034,0.032,0.054,0.047
			c0.191,0.541,0.701,1.078,1.336,1.019c2.912-0.272,5.925-4.036,8.156-5.665c3.417-2.495,7.012-4.056,10.828-4.062
			c3.884,3.27,8.275,5.71,13.007,7.55c-2.755,5.851-6.257,12.937-10.499,11.263c-1.661-0.662-2.373,2.012-0.734,2.66
			c6.723,2.667,10.516-6.399,13.633-13.055c6.288,2.162,13.074,3.453,19.958,4.458c0.356,0.054,0.691,0.112,1.045,0.167
			c-2.959,6.947-5.421,16.179-12.662,14.073c-1.72-0.502-2.448,2.177-0.738,2.674c10.342,3.004,12.116-8.722,15.904-16.351
			c6.158,0.959,12.086,2.037,17.833,3.295c-4.062,4.102-5.881,11.216-10.987,14.677c-1.465,0.999-0.079,3.395,1.399,2.389
			c5.527-3.746,7.461-13.069,13.08-16.271c7.087,1.674,13.979,3.646,20.792,6.128c-0.833,0.959-1.533,2.118-2.091,3.507
			c-1.142,2.839-1.935,5.81-3.484,8.47c-3.189,5.486-11.679,4.845-16.993,4.824c-1.783-0.007-1.783,2.767,0,2.767
			c7.005,0.032,13.072-0.173,18.522-5.017c3.816-3.396,3.177-10.481,6.843-13.459c5.065,1.944,10.125,4.155,15.229,6.729
			c-0.805,0.894-1.554,1.906-2.264,3.024c-3.994,6.312-6.547,11.956-14.696,13.394c-1.757,0.304-1.009,2.978,0.738,2.666
			c5.769-1.019,9.776-4.004,12.945-8.849c2.045-3.103,3.603-6.412,5.922-8.839c1.479,0.774,2.949,1.496,4.444,2.336
			c3.965,2.229,7.968,4.209,11.991,6.067c-0.461,0.569-0.957,1.112-1.507,1.622c-1.958,1.806-4.618,2.95-6.944,4.187
			c-3.957,2.099-6.998,4.778-6.909,9.522c0.033,1.794,2.806,1.794,2.77,0c-0.11-5.735,6.679-7.523,10.732-10.037
			c1.793-1.112,3.203-2.521,4.416-4.109c5.558,2.461,11.164,4.618,16.824,6.471c-2.237,2.111-4.809,3.574-8.538,4.261
			c-3.951,0.734-7.167,1.569-8.934,5.494c-0.724,1.614,1.658,3.017,2.392,1.388c2.111-4.671,8.649-4.134,12.864-5.928
			c2.181-0.927,3.882-2.488,5.383-4.255c4.071,1.257,8.161,2.401,12.282,3.402c-0.847,1.825-1.592,3.704-2.444,5.544
			c-2.4,5.221-5.872,6.69-11.371,4.75c-1.687-0.601-2.409,2.079-0.737,2.668c4.582,1.615,9.406,1.634,12.512-2.607
			c2.144-2.944,3.212-6.47,4.763-9.733c5.016,1.146,10.065,2.137,15.151,2.972c-0.346,2.943,0.295,6.305-0.614,9.515
			c-0.852,2.996-11.206,14.655-13.632,9.82c-0.797-1.596-3.183-0.192-2.388,1.403c3.136,6.266,10.411-0.087,13.435-3.104
			c2.099-2.104,4.15-4.599,5.254-7.385c1.21-3.051,0.02-6.808,0.546-9.859c5.757,0.887,11.556,1.608,17.397,2.196
			c-1.295,1.397-2.433,2.938-3.256,4.891c-1.757,4.176,1.599,14.027-4.48,14.412c-1.779,0.105-1.786,2.879,0,2.766
			c4.464-0.277,6.412-2.646,6.548-7.021c0.093-2.833-0.525-5.434,0.212-8.238c0.717-2.738,2.402-4.738,4.412-6.465
			c5.438,0.497,10.912,0.894,16.418,1.217c-3.123,5.413-7.535,10.012-10.325,15.651c-0.787,1.6,1.605,2.996,2.402,1.394
			c2.992-6.06,7.871-10.904,10.995-16.865c4.68,0.259,9.379,0.482,14.104,0.675c-2.809,5.783-6.004,13.094-11.306,16.609
			c-1.479,0.984-0.093,3.38,1.4,2.388c6.207-4.108,9.7-12.434,12.919-18.871c2.264,0.086,4.525,0.171,6.799,0.257
			c3.699,0.14,7.348,0.26,10.974,0.364c-5.875,6.102-11.784,11.554-19.629,15.398c-1.598,0.795-0.195,3.177,1.399,2.396
			c8.855-4.348,15.3-10.659,21.958-17.688c7.665,0.199,15.188,0.271,22.612,0.146c-4.235,5.022-8.438,10.289-14.707,12.705
			c-1.644,0.629-0.934,3.308,0.737,2.666c7.711-2.965,12.413-9.482,17.682-15.449c6.289-0.174,12.514-0.517,18.692-1.072
			c-4.622,4.074-8.275,9.283-13.899,12.142c-1.588,0.813-0.188,3.202,1.403,2.395c7.155-3.639,11.143-11.051,17.941-15.093
			c10.166-1.146,20.25-2.971,30.372-5.718c-9.224,7.009-19.463,12.621-28.303,20.169c-1.357,1.173,0.611,3.116,1.961,1.958
			c10.426-8.898,22.807-15.112,33.156-24.11c6.554-2.06,13.137-4.481,19.784-7.446c0.312-0.137,0.612-0.291,0.923-0.429
			c-1.207,9.396-2.084,19.903-7.812,26.958c-1.112,1.369,0.831,3.341,1.966,1.951c6.617-8.151,7.25-19.896,8.774-30.287
			c6.789-3.223,13.304-6.848,19.47-10.885c-0.36,1.899-0.637,3.839-0.762,5.871c-0.65,10.845-1.071,18.223-11.316,24.508
			c-1.52,0.935-0.123,3.337,1.402,2.396c6.144-3.772,10.345-8.205,11.914-15.386c1.516-6.907,0.803-13.38,2.355-19.83
			c5.068-3.542,9.906-7.338,14.406-11.468c2.643,9.369,6.536,21.141,0.088,25.826c-1.432,1.032-0.053,3.44,1.39,2.395
			c8.845-6.417,3.285-19.896,0.628-30.259c4.706-4.513,9.055-9.356,12.971-14.544c0.506,1.045,1.059,2.104,1.678,3.195
			c5.607,9.952,3.891,19.236,0.541,29.578c-0.549,1.702,2.121,2.422,2.672,0.735c2.142-6.631,4.803-14.65,3.164-21.711
			c-1.211-5.221-4.148-9.66-6.115-14.444c3.629-5.103,6.844-10.528,9.624-16.267c4.212,5.103,10.673,10.701,6.181,17.503
			c-0.98,1.496,1.414,2.879,2.397,1.396c5.807-8.807-2.332-14.762-7.272-21.624c2.055-4.553,3.849-9.285,5.314-14.221
			c0.244-0.827,0.437-1.668,0.665-2.502c5.293,3.514,11.595,5.731,17.246,8.683c1.582,0.826,2.979-1.568,1.397-2.396
			c-5.79-3.019-12.521-5.241-17.897-9.105c1.824-7.411,2.936-15.034,3.347-22.716c7.838,2.659,15.96,4.505,23.619,7.748
			c1.624,0.688,3.041-1.694,1.396-2.396c-8.07-3.408-16.671-5.294-24.903-8.205c0.285-9.144-0.418-18.335-2.098-27.341
			c11.676,3.46,23.93,4.314,35.785,7.304C759.64,531.923,760.378,529.251,758.64,528.813z"/>
	<path style="fill:#FFFFFF;stroke:#231F20;stroke-width:2;stroke-miterlimit:10;" d="M687.564,581.542
		c-7.42,28.425-28.197,48.976-53.27,62.802c-0.498-0.078-0.993,0.116-1.217,0.653c-7.416,3.999-15.174,7.453-23.077,10.322
		c-37.798,13.689-83.736,6.878-123.182,4.146c-19.458-1.344-38.619-4.41-57.045-10.803c-18.218-6.313-33.856-18.343-52.008-25.053
		c-15.482-5.721-32.324-6.087-48.42-8.936c-20.549-3.64-29.283-17.057-37.01-34.667c-13.039-29.707-43.879-45.554-48.355-79.167
		c-0.224-1.691-4.582-0.921-5.454-0.806c-16.363,2.106-25.786-21.451-29.633-33.204c-4.681-14.312,5.162-27.983-3.629-41.485
		c-3.292-5.051-8.164-7.653-10.876-13.763c-3.173-7.136-5.076-14.137-5.817-21.879c-1.904-19.928,12.498-30.472,17.066-48.031
		c3.244-12.446-8.289-30.333-11.322-42.194c-4.363-17.019,1.189-37.74,8.906-53.068c19.63-38.995,75.158-41.216,112.007-30.425
		c63.635,18.643,82.399,100.312,96.067,155.703c3.034,12.337,4.55,24.869,10.674,36.225c5.534,10.276,15.889,16.785,25.067,23.517
		c15.748,11.561,33.689,26.779,54.377,20.03c2.173-0.708,3.306-1.363,3.734-1.923c9.974-2.352,20.224-3.726,30.58-4.297
		c0.45,0.5,1.226,0.711,1.825,0.076c0.061-0.063,0.123-0.129,0.182-0.188c21.482-0.987,43.347,1.366,63.974,5.367
		c31.682,6.143,61.102,18.709,77.481,47.361C693.479,522.819,694.67,554.346,687.564,581.542z"/>
	<path style="fill:#FFFFFF;stroke:#231F20;stroke-width:2;stroke-miterlimit:10;" d="M352.935,466.309
		c15.168-41.261-48.813-64.754-63.98-23.504C273.804,484.065,337.775,507.569,352.935,466.309
		C359.429,448.642,346.443,483.976,352.935,466.309z"/>
	<path style="fill:#FFFFFF;stroke:#231F20;stroke-width:2;stroke-miterlimit:10;" d="M326.185,285.263
		c15.162-41.258-48.834-64.758-63.98-23.501C247.048,303.023,311.026,326.527,326.185,285.263
		C332.676,267.598,319.694,302.933,326.185,285.263z"/>
	<path style="fill:#FFFFFF;stroke:#231F20;stroke-width:2;stroke-miterlimit:10;" d="M302.704,458.849
		c15.162-41.266-48.829-64.766-63.985-23.502C223.557,476.604,287.548,500.106,302.704,458.849
		C309.195,441.181,296.213,476.519,302.704,458.849z"/>
	<path style="fill:#FFFFFF;stroke:#231F20;stroke-width:2;stroke-miterlimit:10;" d="M408.771,491.294
		c13.582-36.953-43.701-57.981-57.289-21.041C337.916,507.187,395.201,528.242,408.771,491.294
		C414.586,475.473,402.962,507.11,408.771,491.294z"/>
	<path style="fill:#FFFFFF;stroke:#231F20;stroke-width:2;stroke-miterlimit:10;" d="M455.538,540.979
		c13.574-36.95-43.703-57.982-57.293-21.038C384.683,556.884,441.963,577.923,455.538,540.979z"/>
	<path style="fill:#FFFFFF;stroke:#231F20;stroke-width:2;stroke-miterlimit:10;" d="M547.234,551.885
		c13.583-36.947-43.71-57.99-57.283-21.047C476.382,567.782,533.666,588.834,547.234,551.885
		C553.053,536.06,541.426,567.702,547.234,551.885z"/>
	<path style="fill:#231F20;stroke:#231F20;stroke-width:2;stroke-miterlimit:10;" d="M276.855,365.75
		c13.573-36.947-43.709-57.986-57.285-21.043C205.999,381.649,263.29,402.699,276.855,365.75
		C282.666,349.931,271.047,381.571,276.855,365.75z"/>
	<path style="fill:#FFFFFF;stroke:#231F20;stroke-width:2;stroke-miterlimit:10;" d="M359.666,521.819
		c13.574-36.946-43.709-57.988-57.284-21.045C288.805,537.71,346.098,558.762,359.666,521.819
		C365.48,505.992,353.857,537.635,359.666,521.819z"/>
	<path style="fill:#FFFFFF;stroke:#231F20;stroke-width:2;stroke-miterlimit:10;" d="M399.379,569.758
		c13.577-36.95-43.708-57.988-57.291-21.047C328.534,585.651,385.803,606.696,399.379,569.758
		C405.194,553.934,393.568,585.568,399.379,569.758z"/>
	<path style="fill:#FFFFFF;stroke:#231F20;stroke-width:2;stroke-miterlimit:10;" d="M496.722,565.83
		c13.57-36.951-43.71-57.984-57.291-21.044C425.862,581.73,483.145,602.767,496.722,565.83
		C502.533,550.004,490.911,581.641,496.722,565.83z"/>
	<path style="fill:#FFFFFF;stroke:#231F20;stroke-width:2;stroke-miterlimit:10;" d="M463.305,576.903
		c13.577-36.957-43.716-57.996-57.285-21.042C392.451,592.801,449.734,613.843,463.305,576.903
		C469.121,561.076,457.498,592.711,463.305,576.903z"/>
	<path style="fill:#FFFFFF;stroke:#231F20;stroke-width:2;stroke-miterlimit:10;" d="M632.888,551.885
		c13.57-36.954-43.718-57.992-57.287-21.047C562.032,567.784,619.315,588.827,632.888,551.885
		C638.699,536.06,627.079,567.695,632.888,551.885z"/>
	<path style="fill:#FFFFFF;stroke:#231F20;stroke-width:2;stroke-miterlimit:10;" d="M547.24,615.242
		c13.573-36.953-43.716-57.994-57.289-21.042C476.384,631.143,533.669,652.182,547.24,615.242
		C553.053,599.419,541.434,631.051,547.24,615.242z"/>
	<path style="fill:#231F20;stroke:#231F20;stroke-width:2;stroke-miterlimit:10;" d="M375.69,372.621
		c13.568-36.949-43.707-57.989-57.287-21.05C304.833,388.522,362.11,409.568,375.69,372.621
		C381.5,356.8,369.877,388.436,375.69,372.621z"/>
	<path style="fill:#FFFFFF;stroke:#231F20;stroke-width:2;stroke-miterlimit:10;" d="M271.822,353.107
		c7.014-19.09-22.584-29.962-29.598-10.872C235.21,361.322,264.813,372.198,271.822,353.107
		C274.827,344.936,268.821,361.283,271.822,353.107z"/>
	<path style="fill:#FFFFFF;stroke:#231F20;stroke-width:2;stroke-miterlimit:10;" d="M370.043,358.351
		c7.011-19.093-22.584-29.962-29.602-10.875C333.43,366.567,363.026,377.442,370.043,358.351
		C373.045,350.176,367.039,366.523,370.043,358.351z"/>
</g>
<g id="Layer_2">
	<path style="fill:#FFFFFF;stroke:#000000;stroke-width:2;" d="M182.811,798.415c-0.221,1.842-0.903,3.353-2.044,4.53
		c-1.143,1.178-2.431,1.915-3.867,2.21c-1.437,0.294-2.818,0.11-4.144-0.553c-1.326-0.662-2.284-1.952-2.873-3.867
		c-0.37-1.252-0.608-2.613-0.718-4.088c-0.11-1.473-0.148-2.929-0.11-4.365c0.036-1.437,0.091-2.817,0.166-4.144
		c0.073-1.326,0.11-2.431,0.11-3.314c0-2.136-0.019-4.235-0.055-6.299c-0.038-2.062-0.055-4.161-0.055-6.298
		c-3.61-3.462-6.906-7.127-9.89-10.995c-2.983-3.867-5.654-8.011-8.011-12.431c-0.737-1.326-1.437-2.779-2.1-4.364
		c-0.663-1.584-1.032-3.149-1.105-4.696c-0.369-1.398-0.221-2.669,0.442-3.812c0.663-1.141,1.564-2.025,2.708-2.651
		c1.141-0.625,2.393-0.921,3.757-0.885c1.362,0.038,2.597,0.498,3.702,1.382c0.81,0.663,1.473,1.437,1.989,2.32
		c0.515,0.884,0.957,1.823,1.326,2.817c0.368,0.995,0.718,2.008,1.05,3.039c0.332,1.032,0.754,1.989,1.271,2.873
		c1.547,2.8,3.26,5.396,5.138,7.79c1.878,2.395,3.885,4.771,6.022,7.127c1.915-2.578,3.978-4.99,6.188-7.237
		s4.235-4.658,6.077-7.238c0.368-0.589,0.92-1.491,1.658-2.707c0.735-1.215,1.509-2.486,2.32-3.812
		c0.81-1.326,1.658-2.56,2.542-3.702c0.884-1.142,1.657-1.896,2.32-2.266c1.178-0.735,2.376-1.066,3.591-0.994
		c1.215,0.074,2.32,0.442,3.315,1.105c0.994,0.663,1.785,1.565,2.375,2.707c0.589,1.143,0.81,2.375,0.663,3.701
		c-0.148,1.4-0.792,3.094-1.934,5.083c-1.143,1.989-2.469,4.016-3.978,6.077c-1.511,2.063-3.039,4.017-4.585,5.856
		c-1.547,1.843-2.763,3.315-3.646,4.42c-0.737,0.884-1.456,1.751-2.155,2.597c-0.701,0.848-1.419,1.677-2.155,2.486
		c-0.958,1.105-1.878,2.21-2.762,3.315c-0.884,1.104-1.768,2.21-2.652,3.314c0,4.199,0,8.397,0,12.597s0.036,8.397,0.11,12.597
		V798.415z"/>
	<path style="fill:#FFFFFF;stroke:#000000;stroke-width:2;" d="M243.804,787.255c1.768-0.442,3.332-0.459,4.696-0.056
		c1.362,0.406,2.412,1.088,3.149,2.045c0.736,0.958,1.067,2.137,0.995,3.535c-0.074,1.4-0.701,2.873-1.878,4.42
		c-0.958,1.254-2.284,2.321-3.978,3.205c-1.695,0.884-3.279,1.585-4.751,2.1c-3.61,1.325-7.035,2.246-10.276,2.762
		c-3.243,0.515-6.281,0.515-9.116,0c-2.837-0.516-5.489-1.585-7.956-3.204c-2.469-1.619-4.771-3.903-6.906-6.851
		c-1.475-1.989-2.561-4.254-3.26-6.796c-0.701-2.541-1.088-5.138-1.16-7.79c-0.074-2.652,0.146-5.266,0.663-7.846
		c0.514-2.577,1.251-4.897,2.21-6.961c1.251-2.577,3.241-4.935,5.967-7.071c2.724-2.136,5.746-3.83,9.061-5.083
		c3.315-1.252,6.703-1.971,10.166-2.155c3.461-0.183,6.519,0.351,9.171,1.603c2.21,1.032,4.106,2.524,5.691,4.475
		c1.583,1.953,2.669,4.071,3.26,6.354c0.588,2.284,0.644,4.585,0.166,6.905c-0.48,2.32-1.676,4.439-3.591,6.354
		c-1.842,1.843-3.867,3.334-6.077,4.476c-2.21,1.143-4.494,2.138-6.851,2.983c-2.358,0.848-4.77,1.566-7.237,2.154
		c-2.469,0.591-4.845,1.254-7.127,1.989c1.547,1.768,3.315,2.892,5.304,3.37c1.989,0.48,4.069,0.571,6.243,0.276
		c2.172-0.294,4.365-0.901,6.575-1.823c2.21-0.92,4.271-1.934,6.188-3.039L243.804,787.255z"/>
	<path style="fill:#FFFFFF;stroke:#000000;stroke-width:2;" d="M221.483,768.249c-1.695,0.959-2.947,2.155-3.757,3.592
		c-0.812,1.437-1.4,3.444-1.768,6.021c1.915-0.589,4.069-1.215,6.464-1.878c2.393-0.663,4.658-1.362,6.796-2.1
		c2.136-0.735,3.94-1.547,5.414-2.431c1.473-0.885,2.21-1.841,2.21-2.873c0-0.589-0.093-1.16-0.276-1.713
		c-0.185-0.553-0.572-0.939-1.161-1.16c-2.063-0.735-4.199-0.884-6.409-0.442c-2.21,0.442-4.052,1.069-5.525,1.879L221.483,768.249z
		"/>
	<path style="fill:#FFFFFF;stroke:#000000;stroke-width:2;" d="M264.024,767.973c0.072-0.478,0.036-1.343-0.111-2.597
		c-1.179-0.662-2.099-1.509-2.762-2.541c-0.663-1.03-1.05-2.136-1.16-3.314c-0.11-1.178,0.11-2.302,0.663-3.37
		c0.552-1.067,1.454-1.971,2.707-2.708c1.694-0.956,3.553-1.141,5.58-0.552c2.025,0.59,3.774,1.474,5.249,2.651
		c1.841-1.398,3.757-2.577,5.746-3.536c1.989-0.956,4.014-1.602,6.077-1.934c2.062-0.331,4.161-0.276,6.298,0.166
		c2.136,0.442,4.235,1.364,6.298,2.763c1.031,0.663,1.989,1.491,2.873,2.486c0.884,0.994,1.437,2.118,1.657,3.37
		c0.368,1.842,0.221,3.444-0.442,4.807c-0.663,1.363-1.585,2.358-2.762,2.983c-1.179,0.626-2.505,0.812-3.978,0.552
		c-1.475-0.257-2.873-1.049-4.199-2.375c-0.442-0.294-0.756-0.534-0.939-0.719c-0.185-0.183-0.571-0.423-1.16-0.718
		c-1.179-0.294-2.339-0.222-3.48,0.221c-1.143,0.442-2.248,1.05-3.315,1.823c-1.069,0.773-2.063,1.621-2.983,2.541
		c-0.922,0.923-1.751,1.751-2.486,2.486v28.177c0,1.105-0.221,2.174-0.663,3.205c-0.663,1.693-1.713,2.873-3.149,3.535
		c-1.437,0.663-2.873,0.847-4.31,0.553c-1.437-0.295-2.69-1.032-3.757-2.21c-1.069-1.179-1.603-2.688-1.603-4.53v-30.939
		C263.914,768.545,263.95,768.453,264.024,767.973z"/>
	<path style="fill:#FFFFFF;stroke:#000000;stroke-width:2;" d="M305.901,794.658c-0.442-1.252-0.626-2.486-0.552-3.701
		c0.072-1.216,0.387-2.321,0.939-3.315c0.553-0.994,1.343-1.768,2.376-2.32c1.031-0.553,2.282-0.755,3.757-0.607
		c0.81,0.074,1.547,0.295,2.21,0.662c0.663,0.37,1.271,0.812,1.823,1.326c0.552,0.517,1.105,1.069,1.657,1.658
		c0.553,0.59,1.123,1.104,1.713,1.547c1.251,0.958,2.578,1.657,3.978,2.099c1.398,0.442,2.873,0.773,4.42,0.995
		c1.03,0,1.859-0.258,2.486-0.773c0.625-0.515,1.05-1.142,1.271-1.879c0.221-0.735,0.276-1.527,0.166-2.376
		c-0.11-0.846-0.387-1.527-0.829-2.044c-1.253-1.252-2.781-2.062-4.585-2.431c-1.806-0.368-3.481-0.81-5.028-1.326
		c-2.21-0.735-4.384-1.675-6.52-2.817c-2.137-1.142-3.867-2.707-5.193-4.696c-1.4-2.062-2.229-4.254-2.486-6.574
		c-0.259-2.321-0.074-4.586,0.552-6.796c0.625-2.21,1.675-4.235,3.149-6.077c1.473-1.841,3.24-3.352,5.304-4.53
		c1.547-0.885,3.241-1.454,5.083-1.713c1.84-0.258,3.702-0.312,5.58-0.166c1.878,0.148,3.738,0.497,5.58,1.05
		c1.84,0.553,3.536,1.16,5.083,1.823c1.768,0.812,3.094,1.953,3.978,3.426c0.884,1.474,1.307,2.966,1.271,4.475
		c-0.038,1.511-0.553,2.817-1.547,3.923c-0.994,1.104-2.45,1.657-4.364,1.657c-1.179,0-2.248-0.202-3.205-0.607
		c-0.958-0.404-1.953-0.791-2.983-1.16c-1.326-0.515-2.762-0.865-4.31-1.05c-1.547-0.184-2.8-0.092-3.757,0.276
		c-0.295,0.074-0.626,0.314-0.994,0.718c-0.37,0.406-0.646,0.903-0.829,1.492c-0.185,0.59-0.221,1.179-0.11,1.768
		c0.11,0.591,0.497,1.068,1.16,1.437c1.768,0.958,3.646,1.695,5.635,2.21c1.989,0.517,3.94,1.105,5.856,1.768
		c1.915,0.663,3.702,1.511,5.359,2.542c1.657,1.032,3.039,2.505,4.144,4.42c1.619,2.8,2.448,5.729,2.486,8.784
		c0.036,3.058-0.572,5.912-1.823,8.563c-1.253,2.652-3.094,4.917-5.525,6.796c-2.431,1.878-5.268,3.001-8.508,3.37
		c-2.284,0.221-4.531,0.092-6.74-0.387c-2.21-0.48-4.348-1.254-6.409-2.32c-2.063-1.069-3.978-2.338-5.746-3.812
		c-1.768-1.473-3.315-3.02-4.641-4.641L305.901,794.658z"/>
	<path style="fill:#FFFFFF;stroke:#000000;stroke-width:2;" d="M354.188,736.095c0.293-2.725,1.233-4.732,2.818-6.022
		c1.583-1.288,3.26-1.914,5.028-1.878c1.768,0.038,3.406,0.718,4.917,2.044c1.509,1.326,2.301,3.204,2.375,5.636
		c0.147,2.505-0.497,4.438-1.934,5.801c-1.437,1.364-3.077,2.138-4.917,2.32c-1.842,0.185-3.574-0.312-5.193-1.491
		c-1.622-1.178-2.616-3.057-2.983-5.636L354.188,736.095z"/>
	<path style="fill:#FFFFFF;stroke:#000000;stroke-width:2;" d="M368.773,798.968c-0.148,1.475-0.663,2.781-1.547,3.923
		c-0.884,1.141-1.897,1.97-3.039,2.485c-1.143,0.515-2.375,0.625-3.702,0.332c-1.326-0.295-2.505-1.105-3.536-2.431
		c-0.591-0.737-1.014-1.564-1.271-2.486c-0.259-0.921-0.424-1.879-0.497-2.873c-0.074-0.994-0.093-1.989-0.055-2.983
		c0.036-0.994,0.055-1.896,0.055-2.707c-0.074-4.346-0.093-8.655-0.055-12.929c0.036-4.271,0.017-8.58-0.055-12.928
		c0-1.769-0.111-3.554-0.332-5.359c-0.221-1.804-0.11-3.591,0.332-5.359c0.368-1.325,1.012-2.467,1.934-3.425
		c0.92-0.957,1.951-1.62,3.094-1.989c1.142-0.368,2.321-0.404,3.536-0.11c1.215,0.295,2.265,1.068,3.149,2.32
		c1.178,1.475,1.768,2.928,1.768,4.364s0,3.188,0,5.249c0,2.505,0,5.011,0,7.514c0,2.505,0.036,4.973,0.11,7.403
		c0.073,3.536,0.111,7.072,0.111,10.607c0,3.536,0,7.072,0,10.608V798.968z"/>
	<path style="fill:#FFFFFF;stroke:#000000;stroke-width:2;" d="M425.126,799.188c-0.221,1.843-0.903,3.352-2.044,4.53
		c-1.143,1.178-2.431,1.915-3.867,2.21c-1.437,0.294-2.818,0.11-4.144-0.553c-1.326-0.662-2.284-1.952-2.873-3.867
		c-0.663-2.062-0.922-4.216-0.774-6.464c0.147-2.246,0.221-4.326,0.221-6.243c0-3.978,0.017-7.937,0.055-11.878
		c0.036-3.94-0.129-7.901-0.497-11.879c-0.074-0.146-0.148-0.276-0.221-0.387c-0.074-0.11-0.221-0.276-0.442-0.497
		c-1.695-0.442-3.5-0.332-5.415,0.331c-1.916,0.663-3.536,1.511-4.862,2.542c-1.179,0.958-2.339,2.265-3.48,3.923
		c-1.143,1.657-1.713,3.259-1.713,4.806v15.249c0,1.18,0.037,2.469,0.111,3.867c0.072,1.4,0.017,2.763-0.166,4.089
		c-0.185,1.326-0.607,2.541-1.271,3.646c-0.663,1.104-1.732,1.914-3.205,2.431c-0.812,0.294-1.566,0.404-2.265,0.331
		c-0.701-0.074-1.456-0.259-2.265-0.552c-1.326-0.442-2.284-1.198-2.873-2.266c-0.59-1.066-0.995-2.21-1.215-3.425
		c-0.221-1.216-0.314-2.394-0.276-3.536c0.036-1.142,0.055-2.044,0.055-2.707c0-1.694-0.019-4.144-0.055-7.349
		c-0.038-3.204-0.055-6.574-0.055-10.11s0-6.906,0-10.11s0-5.652,0-7.349c0-1.619,0.478-2.964,1.437-4.032
		c0.957-1.067,2.081-1.769,3.37-2.1c1.288-0.332,2.652-0.258,4.088,0.221c1.437,0.479,2.633,1.455,3.591,2.928
		c2.945-1.914,6.188-3.204,9.724-3.867c3.536-0.663,6.868-0.553,10,0.332c3.13,0.884,5.746,2.541,7.845,4.972
		c2.1,2.432,3.186,5.784,3.26,10.056c0,0.148,0.036,0.591,0.11,1.326c0.073,0.737,0.11,1.768,0.11,3.094V799.188z"/>
	<path style="fill:#FFFFFF;stroke:#000000;stroke-width:2;" d="M436.396,736.095c0.293-2.725,1.233-4.732,2.818-6.022
		c1.583-1.288,3.26-1.914,5.028-1.878c1.768,0.038,3.406,0.718,4.917,2.044c1.509,1.326,2.301,3.204,2.375,5.636
		c0.147,2.505-0.497,4.438-1.934,5.801c-1.437,1.364-3.077,2.138-4.917,2.32c-1.842,0.185-3.574-0.312-5.193-1.491
		c-1.622-1.178-2.616-3.057-2.983-5.636L436.396,736.095z"/>
	<path style="fill:#FFFFFF;stroke:#000000;stroke-width:2;" d="M450.982,798.968c-0.148,1.475-0.663,2.781-1.547,3.923
		c-0.884,1.141-1.897,1.97-3.039,2.485c-1.143,0.515-2.375,0.625-3.702,0.332c-1.326-0.295-2.505-1.105-3.536-2.431
		c-0.591-0.737-1.014-1.564-1.271-2.486c-0.259-0.921-0.424-1.879-0.497-2.873c-0.074-0.994-0.093-1.989-0.055-2.983
		c0.036-0.994,0.055-1.896,0.055-2.707c-0.074-4.346-0.093-8.655-0.055-12.929c0.036-4.271,0.017-8.58-0.055-12.928
		c0-1.769-0.111-3.554-0.332-5.359c-0.221-1.804-0.11-3.591,0.332-5.359c0.368-1.325,1.012-2.467,1.934-3.425
		c0.92-0.957,1.951-1.62,3.094-1.989c1.142-0.368,2.321-0.404,3.536-0.11c1.215,0.295,2.265,1.068,3.149,2.32
		c1.178,1.475,1.768,2.928,1.768,4.364s0,3.188,0,5.249c0,2.505,0,5.011,0,7.514c0,2.505,0.036,4.973,0.11,7.403
		c0.073,3.536,0.111,7.072,0.111,10.607c0,3.536,0,7.072,0,10.608V798.968z"/>
	<path style="fill:#FFFFFF;stroke:#000000;stroke-width:2;" d="M509.104,797.199c0.589,2.138,0.479,3.906-0.332,5.305
		s-1.934,2.337-3.369,2.817c-1.438,0.479-3.003,0.423-4.696-0.166c-1.696-0.59-3.168-1.768-4.42-3.536
		c-2.063,1.547-4.071,2.634-6.022,3.26c-1.953,0.625-4.182,0.976-6.685,1.05c-3.757,0.146-7.11-0.276-10.055-1.271
		c-2.947-0.994-5.433-2.486-7.458-4.476c-2.027-1.988-3.519-4.475-4.475-7.458c-0.958-2.983-1.29-6.426-0.995-10.332
		c0.147-1.619,0.423-3.204,0.829-4.751c0.404-1.547,0.865-3.056,1.381-4.53c0.589-1.619,1.417-3.352,2.486-5.193
		c1.067-1.841,2.155-3.426,3.26-4.752c3.978-4.861,8.95-8.359,14.917-10.497c1.031-0.367,2.431-0.699,4.199-0.994
		c1.768-0.294,3.553-0.423,5.359-0.387c1.804,0.038,3.536,0.276,5.193,0.718c1.657,0.442,2.89,1.216,3.702,2.321
		c0.662,0.884,1.141,1.657,1.436,2.32c0.294,0.663,0.459,1.363,0.498,2.1c0.035,0.736,0.035,1.529,0,2.375
		c-0.039,0.848-0.056,1.897-0.056,3.149c0,2.063-0.019,4.071-0.056,6.022c-0.037,1.952-0.019,3.922,0.056,5.911
		c0,0.663,0,1.53,0,2.597c0,1.068,0.036,2.192,0.11,3.37c0.072,1.18,0.166,2.304,0.276,3.37c0.11,1.069,0.276,1.934,0.497,2.597
		L509.104,797.199z"/>
	<path style="fill:#FFFFFF;stroke:#000000;stroke-width:2;" d="M485.678,792.228c0.81-0.515,1.73-1.086,2.762-1.713
		c1.031-0.625,1.951-1.344,2.763-2.154c-0.663-3.904-1.05-7.808-1.16-11.713c-0.111-3.904-0.093-7.846,0.055-11.823
		c-3.315,0.59-6.298,2.026-8.95,4.31c-2.652,2.284-4.494,4.972-5.525,8.065c-0.442,1.254-0.812,2.542-1.105,3.868
		c-0.295,1.325-0.406,2.615-0.332,3.867c0.072,1.695,0.515,3.113,1.326,4.254c0.81,1.144,1.785,2.008,2.928,2.597
		c1.142,0.591,2.357,0.922,3.646,0.994C483.375,792.854,484.573,792.669,485.678,792.228z"/>
	<path style="fill:#FFFFFF;stroke:#000000;stroke-width:2;" d="M559.156,756.647c0.515-1.769,1.344-3.111,2.486-4.033
		c1.141-0.921,2.356-1.454,3.646-1.603c1.287-0.146,2.521,0.074,3.701,0.663c1.178,0.591,2.1,1.511,2.763,2.763
		c0.81-0.442,1.62-0.847,2.431-1.216c0.811-0.368,1.73-0.699,2.763-0.994c4.714-1.252,8.896-1.16,12.542,0.276
		s6.686,3.646,9.115,6.63c2.432,2.983,4.162,6.482,5.193,10.497c1.031,4.016,1.271,8.029,0.719,12.044
		c-0.553,4.016-1.971,7.772-4.254,11.271c-2.285,3.5-5.562,6.207-9.834,8.122c-2.801,1.251-5.729,2.044-8.785,2.375
		c-3.059,0.332-6.097,0.387-9.116,0.166c0,0.072,0.017,0.663,0.056,1.768c0.035,1.105,0.055,2.504,0.055,4.199
		c0,1.694,0,3.536,0,5.525c0,1.988-0.055,3.903-0.166,5.745c-0.11,1.841-0.259,3.481-0.441,4.917
		c-0.186,1.437-0.461,2.412-0.829,2.929c-0.958,1.398-2.138,2.282-3.536,2.652c-1.4,0.367-2.726,0.312-3.978-0.166
		c-1.253-0.48-2.339-1.29-3.26-2.431c-0.922-1.144-1.381-2.524-1.381-4.145v-67.292L559.156,756.647z"/>
	<path style="fill:#FFFFFF;stroke:#000000;stroke-width:2;" d="M573.3,771.012c-0.222,0.369-0.331,0.535-0.331,0.497
		c0-0.036-0.148,0.094-0.442,0.387v18.232c1.473,0.221,2.945,0.331,4.42,0.331c1.473,0,3.02-0.221,4.641-0.663
		c3.315-0.81,5.929-2.411,7.847-4.807c1.914-2.393,2.65-5.358,2.209-8.895c-0.221-1.473-0.645-3.001-1.27-4.586
		c-0.627-1.583-1.457-2.928-2.486-4.033c-1.033-1.104-2.248-1.878-3.646-2.32c-1.4-0.441-2.984-0.293-4.752,0.442
		c-1.254,0.516-2.377,1.289-3.371,2.32C575.123,768.95,574.184,769.981,573.3,771.012z"/>
	<path style="fill:#FFFFFF;stroke:#000000;stroke-width:2;" d="M654.293,787.255c1.768-0.442,3.332-0.459,4.695-0.056
		c1.363,0.406,2.412,1.088,3.15,2.045c0.734,0.958,1.066,2.137,0.994,3.535c-0.074,1.4-0.701,2.873-1.879,4.42
		c-0.957,1.254-2.283,2.321-3.977,3.205c-1.697,0.884-3.279,1.585-4.752,2.1c-3.611,1.325-7.035,2.246-10.277,2.762
		c-3.242,0.515-6.281,0.515-9.115,0c-2.836-0.516-5.488-1.585-7.955-3.204c-2.469-1.619-4.771-3.903-6.906-6.851
		c-1.475-1.989-2.561-4.254-3.26-6.796c-0.701-2.541-1.088-5.138-1.16-7.79c-0.074-2.652,0.146-5.266,0.662-7.846
		c0.516-2.577,1.252-4.897,2.211-6.961c1.252-2.577,3.24-4.935,5.967-7.071c2.725-2.136,5.746-3.83,9.061-5.083
		c3.314-1.252,6.701-1.971,10.166-2.155c3.461-0.183,6.52,0.351,9.17,1.603c2.211,1.032,4.105,2.524,5.691,4.475
		c1.584,1.953,2.67,4.071,3.26,6.354c0.588,2.284,0.645,4.585,0.166,6.905c-0.48,2.32-1.678,4.439-3.592,6.354
		c-1.842,1.843-3.867,3.334-6.078,4.476c-2.209,1.143-4.492,2.138-6.85,2.983c-2.359,0.848-4.771,1.566-7.238,2.154
		c-2.469,0.591-4.844,1.254-7.127,1.989c1.547,1.768,3.314,2.892,5.305,3.37c1.988,0.48,4.068,0.571,6.242,0.276
		c2.172-0.294,4.365-0.901,6.574-1.823c2.211-0.92,4.271-1.934,6.189-3.039L654.293,787.255z"/>
	<path style="fill:#FFFFFF;stroke:#000000;stroke-width:2;" d="M631.973,768.249c-1.695,0.959-2.947,2.155-3.758,3.592
		s-1.398,3.444-1.768,6.021c1.916-0.589,4.07-1.215,6.465-1.878c2.393-0.663,4.658-1.362,6.795-2.1
		c2.137-0.735,3.939-1.547,5.414-2.431c1.473-0.885,2.211-1.841,2.211-2.873c0-0.589-0.094-1.16-0.277-1.713s-0.57-0.939-1.16-1.16
		c-2.062-0.735-4.197-0.884-6.408-0.442c-2.209,0.442-4.053,1.069-5.525,1.879L631.973,768.249z"/>
	<path style="fill:#FFFFFF;stroke:#000000;stroke-width:2;" d="M668.877,794.658c-0.441-1.252-0.627-2.486-0.553-3.701
		c0.072-1.216,0.387-2.321,0.939-3.315s1.344-1.768,2.375-2.32s2.283-0.755,3.758-0.607c0.809,0.074,1.547,0.295,2.209,0.662
		c0.664,0.37,1.271,0.812,1.824,1.326c0.553,0.517,1.104,1.069,1.656,1.658c0.553,0.59,1.123,1.104,1.713,1.547
		c1.252,0.958,2.578,1.657,3.979,2.099c1.398,0.442,2.873,0.773,4.42,0.995c1.031,0,1.859-0.258,2.486-0.773
		c0.625-0.515,1.049-1.142,1.27-1.879c0.223-0.735,0.277-1.527,0.166-2.376c-0.109-0.846-0.387-1.527-0.828-2.044
		c-1.254-1.252-2.781-2.062-4.586-2.431c-1.807-0.368-3.48-0.81-5.027-1.326c-2.211-0.735-4.383-1.675-6.52-2.817
		c-2.137-1.142-3.867-2.707-5.193-4.696c-1.4-2.062-2.229-4.254-2.486-6.574c-0.258-2.321-0.074-4.586,0.553-6.796
		c0.625-2.21,1.674-4.235,3.148-6.077c1.473-1.841,3.242-3.352,5.305-4.53c1.547-0.885,3.24-1.454,5.082-1.713
		c1.842-0.258,3.703-0.312,5.58-0.166c1.879,0.148,3.738,0.497,5.58,1.05s3.537,1.16,5.084,1.823
		c1.768,0.812,3.094,1.953,3.979,3.426c0.883,1.474,1.307,2.966,1.27,4.475c-0.037,1.511-0.553,2.817-1.547,3.923
		c-0.994,1.104-2.449,1.657-4.365,1.657c-1.178,0-2.248-0.202-3.203-0.607c-0.959-0.404-1.953-0.791-2.984-1.16
		c-1.326-0.515-2.762-0.865-4.309-1.05c-1.547-0.184-2.801-0.092-3.758,0.276c-0.295,0.074-0.627,0.314-0.994,0.718
		c-0.369,0.406-0.645,0.903-0.828,1.492c-0.186,0.59-0.221,1.179-0.111,1.768c0.111,0.591,0.498,1.068,1.16,1.437
		c1.768,0.958,3.646,1.695,5.637,2.21c1.988,0.517,3.939,1.105,5.855,1.768c1.914,0.663,3.701,1.511,5.359,2.542
		c1.658,1.032,3.039,2.505,4.143,4.42c1.621,2.8,2.449,5.729,2.486,8.784c0.037,3.058-0.57,5.912-1.822,8.563
		c-1.254,2.652-3.094,4.917-5.525,6.796c-2.43,1.878-5.268,3.001-8.508,3.37c-2.285,0.221-4.531,0.092-6.74-0.387
		c-2.211-0.48-4.348-1.254-6.408-2.32c-2.064-1.069-3.979-2.338-5.746-3.812c-1.77-1.473-3.316-3.02-4.641-4.641L668.877,794.658z"
		/>
	<path style="fill:#FFFFFF;stroke:#000000;stroke-width:2;" d="M720.369,765.266c-1.475-0.367-2.744-0.994-3.812-1.878
		s-1.805-1.915-2.209-3.094c-0.406-1.178-0.406-2.394,0-3.646c0.404-1.252,1.307-2.394,2.707-3.426
		c1.178-0.884,2.504-1.326,3.979-1.326c1.473,0,2.908,0,4.309,0c0-0.515-0.037-1.639-0.111-3.37
		c-0.074-1.729-0.092-3.627-0.055-5.69c0.037-2.062,0.166-4.033,0.387-5.911c0.221-1.879,0.625-3.186,1.217-3.923
		c1.473-2.062,3.295-3.039,5.469-2.929c2.172,0.11,3.959,1.16,5.359,3.149c0.293,0.369,0.57,0.812,0.828,1.326
		c0.258,0.516,0.387,0.994,0.387,1.437c0.072,2.651,0.092,5.304,0.055,7.956c-0.037,2.651-0.055,5.304-0.055,7.955h8.73
		c1.324,0,2.467,0.442,3.424,1.326s1.639,1.916,2.045,3.094c0.404,1.18,0.514,2.395,0.332,3.646
		c-0.186,1.254-0.756,2.284-1.713,3.094c-1.695,1.4-3.666,2.138-5.912,2.21c-2.248,0.074-4.549,0.11-6.906,0.11
		c0,4.053-0.02,8.104-0.055,12.155c-0.039,4.052-0.02,8.104,0.055,12.154c0,1.769,0.092,3.574,0.277,5.415
		c0.182,1.842,0.055,3.609-0.387,5.304c-0.371,1.326-0.996,2.375-1.879,3.149c-0.885,0.773-1.879,1.251-2.984,1.436
		c-1.104,0.184-2.248,0.111-3.426-0.221c-1.178-0.331-2.283-0.939-3.314-1.823c-0.516-0.516-0.902-1.398-1.16-2.651
		c-0.258-1.252-0.424-2.578-0.496-3.979c-0.074-1.619-0.074-3.351,0-5.193c0-1.473,0-3.387,0-5.746c0-2.356-0.02-4.807-0.057-7.348
		s-0.055-4.953-0.055-7.237c0-2.282,0-4.089,0-5.415L720.369,765.266z"/>
	<path style="fill:#FFFFFF;stroke:#000000;stroke-width:2;" d="M760.922,736.095c0.293-2.725,1.232-4.732,2.816-6.022
		c1.584-1.288,3.26-1.914,5.029-1.878c1.768,0.038,3.406,0.718,4.916,2.044s2.303,3.204,2.377,5.636
		c0.146,2.505-0.498,4.438-1.936,5.801c-1.436,1.364-3.076,2.138-4.916,2.32c-1.842,0.185-3.574-0.312-5.193-1.491
		c-1.621-1.178-2.615-3.057-2.984-5.636L760.922,736.095z"/>
	<path style="fill:#FFFFFF;stroke:#000000;stroke-width:2;" d="M775.508,798.968c-0.148,1.475-0.664,2.781-1.547,3.923
		c-0.885,1.141-1.898,1.97-3.039,2.485c-1.143,0.515-2.377,0.625-3.701,0.332c-1.326-0.295-2.506-1.105-3.537-2.431
		c-0.59-0.737-1.014-1.564-1.27-2.486c-0.26-0.921-0.426-1.879-0.498-2.873c-0.074-0.994-0.094-1.989-0.055-2.983
		c0.035-0.994,0.055-1.896,0.055-2.707c-0.074-4.346-0.094-8.655-0.055-12.929c0.035-4.271,0.018-8.58-0.057-12.928
		c0-1.769-0.109-3.554-0.33-5.359c-0.221-1.804-0.111-3.591,0.33-5.359c0.369-1.325,1.012-2.467,1.934-3.425
		c0.922-0.957,1.951-1.62,3.096-1.989c1.141-0.368,2.32-0.404,3.535-0.11c1.215,0.295,2.266,1.068,3.148,2.32
		c1.178,1.475,1.77,2.928,1.77,4.364s0,3.188,0,5.249c0,2.505,0,5.011,0,7.514c0,2.505,0.035,4.973,0.109,7.403
		c0.072,3.536,0.111,7.072,0.111,10.607c0,3.536,0,7.072,0,10.608V798.968z"/>
	<path style="fill:#FFFFFF;stroke:#000000;stroke-width:2;" d="M785.119,794.658c-0.441-1.252-0.627-2.486-0.553-3.701
		c0.074-1.216,0.387-2.321,0.939-3.315s1.344-1.768,2.377-2.32c1.029-0.553,2.281-0.755,3.756-0.607
		c0.811,0.074,1.547,0.295,2.211,0.662c0.662,0.37,1.27,0.812,1.822,1.326c0.553,0.517,1.105,1.069,1.658,1.658
		c0.553,0.59,1.121,1.104,1.713,1.547c1.252,0.958,2.576,1.657,3.977,2.099c1.398,0.442,2.873,0.773,4.42,0.995
		c1.031,0,1.859-0.258,2.486-0.773c0.625-0.515,1.051-1.142,1.271-1.879c0.221-0.735,0.275-1.527,0.166-2.376
		c-0.111-0.846-0.387-1.527-0.83-2.044c-1.252-1.252-2.781-2.062-4.584-2.431c-1.807-0.368-3.48-0.81-5.029-1.326
		c-2.209-0.735-4.383-1.675-6.518-2.817c-2.139-1.142-3.869-2.707-5.193-4.696c-1.4-2.062-2.23-4.254-2.486-6.574
		c-0.26-2.321-0.074-4.586,0.553-6.796c0.625-2.21,1.674-4.235,3.148-6.077c1.473-1.841,3.24-3.352,5.303-4.53
		c1.549-0.885,3.242-1.454,5.084-1.713c1.84-0.258,3.701-0.312,5.58-0.166c1.879,0.148,3.738,0.497,5.58,1.05
		c1.84,0.553,3.535,1.16,5.082,1.823c1.77,0.812,3.094,1.953,3.979,3.426c0.885,1.474,1.307,2.966,1.271,4.475
		c-0.039,1.511-0.553,2.817-1.547,3.923c-0.996,1.104-2.451,1.657-4.365,1.657c-1.18,0-2.248-0.202-3.205-0.607
		c-0.957-0.404-1.953-0.791-2.982-1.16c-1.326-0.515-2.764-0.865-4.311-1.05c-1.547-0.184-2.799-0.092-3.756,0.276
		c-0.295,0.074-0.627,0.314-0.994,0.718c-0.371,0.406-0.646,0.903-0.83,1.492c-0.184,0.59-0.221,1.179-0.109,1.768
		c0.109,0.591,0.496,1.068,1.16,1.437c1.768,0.958,3.646,1.695,5.635,2.21c1.988,0.517,3.939,1.105,5.857,1.768
		c1.914,0.663,3.701,1.511,5.357,2.542c1.658,1.032,3.039,2.505,4.145,4.42c1.619,2.8,2.447,5.729,2.486,8.784
		c0.035,3.058-0.572,5.912-1.824,8.563c-1.252,2.652-3.094,4.917-5.523,6.796c-2.432,1.878-5.268,3.001-8.51,3.37
		c-2.283,0.221-4.529,0.092-6.74-0.387c-2.209-0.48-4.346-1.254-6.408-2.32c-2.062-1.069-3.979-2.338-5.746-3.812
		c-1.768-1.473-3.314-3.02-4.641-4.641L785.119,794.658z"/>
	<path style="fill:#FFFFFF;stroke:#000000;stroke-width:2;" d="M227.338,896.83c0.763,1.472,1.035,2.957,0.817,4.457
		c-0.218,1.498-1.199,2.603-2.943,3.312c-1.635,0.599-3.203,0.436-4.702-0.491c-1.5-0.927-2.849-2.181-4.047-3.761
		c-1.2-1.582-2.236-3.244-3.107-4.988c-0.873-1.745-1.527-3.162-1.962-4.252c-2.78-6.432-4.28-13.124-4.497-20.074
		c-0.219-6.95,0.681-13.723,2.698-20.319c0.491-1.688,1.145-3.283,1.962-4.783c0.818-1.498,1.635-3.011,2.453-4.538
		c0.491-0.871,1.104-1.962,1.84-3.271c0.736-1.309,1.594-2.479,2.576-3.517c0.981-1.034,2.057-1.771,3.229-2.207
		c1.172-0.436,2.439-0.245,3.802,0.572c1.309,0.817,2.016,1.786,2.126,2.902c0.109,1.118-0.096,2.263-0.613,3.435
		c-0.519,1.173-1.173,2.304-1.962,3.394c-0.791,1.091-1.431,2.018-1.921,2.78c-0.709,1.254-1.295,2.317-1.758,3.188
		c-0.463,0.873-0.846,1.608-1.145,2.208c-0.3,0.601-0.531,1.132-0.695,1.595s-0.3,0.913-0.409,1.349
		c-0.817,2.835-1.418,5.875-1.799,9.117c-0.382,3.244-0.491,6.501-0.327,9.771s0.654,6.474,1.472,9.607
		c0.817,3.136,2.016,6.01,3.598,8.627c0.272,0.49,0.626,0.994,1.063,1.513c0.436,0.518,0.831,0.981,1.186,1.39
		c0.354,0.409,0.64,0.736,0.858,0.981c0.217,0.245,0.272,0.312,0.164,0.204L227.338,896.83z"/>
	<path style="fill:#FFFFFF;stroke:#000000;stroke-width:2;" d="M251.215,892.987c-1.582,0.054-3.095-0.055-4.538-0.327
		c-1.445-0.273-2.876-0.736-4.293-1.39c-0.709,0.381-1.404,0.572-2.085,0.572c-0.683,0-1.309-0.11-1.881-0.327
		c-0.572-0.219-1.063-0.478-1.472-0.777c-0.409-0.299-0.695-0.531-0.859-0.694c-0.6-0.872-0.954-1.853-1.063-2.944
		c-0.11-1.09,0.246-2.126,1.063-3.106v-42.029c0-1.253,0.436-2.302,1.309-3.147c0.871-0.845,1.88-1.376,3.025-1.595
		c1.145-0.218,2.249-0.027,3.312,0.572c1.063,0.601,1.785,1.69,2.167,3.271c0.217,0.981,0.395,1.95,0.531,2.903
		c0.136,0.954,0.217,2.058,0.246,3.312c0.027,1.254,0.027,2.698,0,4.333c-0.028,1.636-0.096,3.653-0.205,6.051
		c0.491-0.271,0.994-0.531,1.513-0.776c0.518-0.245,1.049-0.503,1.594-0.776c1.526-0.708,3.161-1.146,4.906-1.309
		c1.744-0.164,3.447-0.067,5.11,0.286c1.663,0.355,3.216,1.01,4.661,1.962c1.443,0.955,2.629,2.195,3.557,3.721
		c1.309,2.181,2.194,4.729,2.658,7.646c0.462,2.917,0.462,5.806,0,8.667c-0.464,2.862-1.418,5.52-2.862,7.973
		c-1.445,2.453-3.476,4.28-6.092,5.479c-1.636,0.763-3.312,1.35-5.029,1.758C254.771,892.701,253.014,892.933,251.215,892.987z"/>
	<path style="fill:#FFFFFF;stroke:#000000;stroke-width:2;" d="M246.063,872.055v9.812c0.108,0.109,0.217,0.191,0.327,0.245
		c0.109,0.055,0.217,0.137,0.327,0.245c4.906,1.636,9.158,0.519,12.756-3.353c0.818-2.18,1.212-4.237,1.186-6.174
		c-0.028-1.934-0.396-4.019-1.104-6.255c-0.273-0.654-0.723-1.076-1.349-1.268c-0.627-0.19-1.186-0.421-1.676-0.694
		c-0.873-0.164-1.813,0-2.821,0.49c-1.009,0.49-1.977,1.104-2.903,1.84c-0.927,0.735-1.772,1.541-2.535,2.412
		c-0.764,0.872-1.363,1.608-1.799,2.208L246.063,872.055z"/>
	<path style="fill:#FFFFFF;stroke:#000000;stroke-width:2;" d="M312.703,884.483c0.491,0.709,0.777,1.541,0.859,2.494
		c0.082,0.954-0.028,1.854-0.327,2.698c-0.3,0.846-0.791,1.539-1.472,2.085c-0.683,0.544-1.568,0.79-2.658,0.736
		c-1.418-0.11-2.563-0.601-3.434-1.473c-0.873-0.871-1.69-1.853-2.453-2.943c-2.126,1.745-4.321,2.957-6.583,3.639
		c-2.263,0.681-4.484,0.831-6.664,0.45c-2.181-0.382-4.225-1.296-6.132-2.739c-1.909-1.444-3.516-3.394-4.825-5.847
		c-1.199-2.289-1.868-4.824-2.003-7.604c-0.137-2.78-0.178-5.424-0.123-7.932c0-0.871,0.026-1.729,0.082-2.575
		c0.054-0.845,0.108-1.73,0.164-2.658c0.054-0.707,0.082-1.402,0.082-2.085c0-0.681,0.041-1.32,0.123-1.921
		c0.082-0.6,0.245-1.198,0.49-1.799c0.246-0.6,0.613-1.172,1.104-1.718c0.654-0.708,1.444-1.131,2.371-1.268
		c0.926-0.135,1.812-0.04,2.658,0.287c0.844,0.326,1.581,0.831,2.208,1.513c0.626,0.682,0.967,1.513,1.022,2.493
		c0.108,2.78,0.041,5.589-0.205,8.423c-0.245,2.835-0.232,5.614,0.041,8.34c0.108,1.309,0.45,2.645,1.022,4.007
		c0.572,1.363,1.484,2.345,2.739,2.943c1.253,0.546,2.521,0.505,3.802-0.122c1.28-0.627,2.33-1.377,3.148-2.249
		c0.381-0.436,0.749-0.912,1.104-1.431c0.354-0.518,0.749-0.968,1.186-1.35c-0.219-1.907-0.355-3.814-0.409-5.724
		c-0.055-1.907-0.055-3.815,0-5.724c0-1.035,0.041-2.167,0.123-3.394c0.082-1.227,0.299-2.398,0.654-3.516
		c0.354-1.117,0.886-2.099,1.595-2.944c0.708-0.844,1.717-1.376,3.025-1.594c0.599-0.109,1.186-0.054,1.758,0.163
		c0.573,0.219,1.076,0.519,1.513,0.899c0.763,0.654,1.28,1.391,1.554,2.208c0.272,0.817,0.409,1.69,0.409,2.616
		c0,0.928-0.069,1.868-0.205,2.821c-0.137,0.954-0.232,1.84-0.286,2.657c-0.11,1.527-0.192,3.136-0.246,4.824
		c-0.055,1.69,0,3.381,0.164,5.069c0.164,1.69,0.477,3.326,0.94,4.906C311.08,881.731,311.775,883.175,312.703,884.483z"/>
	<path style="fill:#FFFFFF;stroke:#000000;stroke-width:2;" d="M335.025,892.987c-1.582,0.054-3.095-0.055-4.538-0.327
		c-1.445-0.273-2.876-0.736-4.293-1.39c-0.709,0.381-1.404,0.572-2.085,0.572c-0.683,0-1.309-0.11-1.881-0.327
		c-0.572-0.219-1.063-0.478-1.472-0.777c-0.409-0.299-0.695-0.531-0.859-0.694c-0.6-0.872-0.954-1.853-1.063-2.944
		c-0.11-1.09,0.246-2.126,1.063-3.106v-42.029c0-1.253,0.436-2.302,1.309-3.147c0.871-0.845,1.88-1.376,3.025-1.595
		c1.145-0.218,2.249-0.027,3.312,0.572c1.063,0.601,1.785,1.69,2.167,3.271c0.217,0.981,0.395,1.95,0.531,2.903
		c0.136,0.954,0.217,2.058,0.246,3.312c0.027,1.254,0.027,2.698,0,4.333c-0.028,1.636-0.096,3.653-0.205,6.051
		c0.491-0.271,0.994-0.531,1.513-0.776c0.518-0.245,1.049-0.503,1.594-0.776c1.526-0.708,3.161-1.146,4.906-1.309
		c1.744-0.164,3.447-0.067,5.11,0.286c1.663,0.355,3.216,1.01,4.661,1.962c1.443,0.955,2.629,2.195,3.557,3.721
		c1.309,2.181,2.194,4.729,2.658,7.646c0.462,2.917,0.462,5.806,0,8.667c-0.464,2.862-1.418,5.52-2.862,7.973
		c-1.445,2.453-3.476,4.28-6.092,5.479c-1.636,0.763-3.312,1.35-5.029,1.758C338.582,892.701,336.824,892.933,335.025,892.987z"/>
	<path style="fill:#FFFFFF;stroke:#000000;stroke-width:2;" d="M329.874,872.055v9.812c0.108,0.109,0.217,0.191,0.327,0.245
		c0.109,0.055,0.217,0.137,0.327,0.245c4.906,1.636,9.158,0.519,12.756-3.353c0.818-2.18,1.212-4.237,1.186-6.174
		c-0.028-1.934-0.396-4.019-1.104-6.255c-0.273-0.654-0.723-1.076-1.349-1.268c-0.627-0.19-1.186-0.421-1.676-0.694
		c-0.873-0.164-1.813,0-2.821,0.49c-1.009,0.49-1.977,1.104-2.903,1.84c-0.927,0.735-1.772,1.541-2.535,2.412
		c-0.764,0.872-1.363,1.608-1.799,2.208L329.874,872.055z"/>
	<path style="fill:#FFFFFF;stroke:#000000;stroke-width:2;" d="M359.8,871.318c0.381-1.58,0.912-3.134,1.594-4.66
		c0.681-1.525,1.513-2.984,2.494-4.375c0.981-1.39,2.085-2.657,3.312-3.802s2.548-2.071,3.966-2.78
		c2.507-1.309,5.029-1.976,7.563-2.003s4.892,0.478,7.073,1.513c2.18,1.036,4.034,2.575,5.561,4.619
		c1.525,2.045,2.535,4.484,3.025,7.318c0.272,1.854,0.421,3.612,0.45,5.274c0.027,1.663-0.151,3.394-0.532,5.192
		c-0.545,2.562-1.649,5.11-3.312,7.645c-1.664,2.535-3.653,4.661-5.969,6.378c-2.318,1.718-4.853,2.849-7.604,3.394
		c-2.753,0.545-5.52,0.108-8.3-1.308c-1.254-0.601-2.385-1.296-3.393-2.086c-1.009-0.789-1.922-1.729-2.739-2.82
		c-0.928-1.198-1.649-2.453-2.167-3.762c-0.519-1.309-0.94-2.67-1.267-4.088c-0.382-1.525-0.519-3.066-0.409-4.62
		c0.109-1.554,0.299-3.066,0.572-4.538L359.8,871.318z"/>
	<path style="fill:#FFFFFF;stroke:#000000;stroke-width:2;" d="M369.612,873.036c-0.164,0.872-0.3,1.731-0.409,2.575
		c-0.11,0.846-0.11,1.705,0,2.576c0.164,1.255,0.503,2.399,1.022,3.434c0.518,1.036,1.198,1.854,2.044,2.453
		c0.844,0.601,1.812,0.914,2.903,0.94c1.089,0.028,2.261-0.312,3.516-1.021c1.581-0.927,2.944-2.357,4.088-4.293
		c1.145-1.935,1.853-3.952,2.126-6.051c0.272-2.098,0.054-4.089-0.654-5.97c-0.709-1.88-2.099-3.229-4.17-4.047
		c-1.363,0-2.617,0.259-3.761,0.776c-1.145,0.519-2.14,1.2-2.984,2.044c-0.846,0.847-1.582,1.84-2.208,2.985
		C370.497,870.583,369.993,871.782,369.612,873.036z"/>
	<path style="fill:#FFFFFF;stroke:#000000;stroke-width:2;" d="M433.39,888.735c-0.164,1.363-0.668,2.479-1.513,3.353
		c-0.846,0.871-1.799,1.417-2.862,1.636c-1.063,0.217-2.085,0.081-3.066-0.409c-0.981-0.49-1.69-1.445-2.126-2.862
		c-0.491-1.525-0.683-3.119-0.573-4.783c0.109-1.662,0.164-3.201,0.164-4.62c0-2.943,0.013-5.873,0.041-8.79
		c0.027-2.915-0.096-5.846-0.368-8.79c-0.055-0.108-0.11-0.204-0.164-0.286c-0.055-0.081-0.164-0.204-0.327-0.368
		c-1.255-0.326-2.59-0.245-4.007,0.246c-1.418,0.49-2.617,1.117-3.598,1.88c-0.873,0.71-1.731,1.677-2.576,2.903
		c-0.846,1.227-1.268,2.412-1.268,3.557v11.284c0,0.873,0.027,1.827,0.082,2.862c0.054,1.036,0.013,2.044-0.123,3.025
		c-0.137,0.98-0.45,1.88-0.94,2.698c-0.491,0.817-1.282,1.417-2.372,1.799c-0.6,0.217-1.159,0.299-1.676,0.245
		c-0.519-0.055-1.077-0.191-1.676-0.409c-0.981-0.327-1.69-0.887-2.126-1.676c-0.437-0.79-0.736-1.636-0.899-2.535
		s-0.232-1.771-0.204-2.616c0.027-0.845,0.041-1.513,0.041-2.004c0-1.253-0.014-3.066-0.041-5.438
		c-0.028-2.371-0.041-4.865-0.041-7.481s0-5.11,0-7.481c0-2.372,0-4.184,0-5.438c0-1.199,0.354-2.194,1.063-2.985
		c0.708-0.789,1.54-1.308,2.494-1.553c0.953-0.246,1.962-0.19,3.025,0.163c1.063,0.355,1.948,1.077,2.657,2.167
		c2.18-1.417,4.579-2.371,7.196-2.862c2.616-0.49,5.082-0.408,7.4,0.245c2.316,0.654,4.252,1.881,5.806,3.68
		c1.553,1.799,2.357,4.28,2.412,7.441c0,0.109,0.027,0.437,0.082,0.981c0.054,0.545,0.082,1.308,0.082,2.289V888.735z"/>
	<path style="fill:#FFFFFF;stroke:#000000;stroke-width:2;" d="M441.729,842.046c0.217-2.017,0.912-3.502,2.085-4.456
		c1.172-0.953,2.412-1.417,3.721-1.391c1.308,0.028,2.521,0.531,3.639,1.513c1.117,0.981,1.703,2.371,1.758,4.171
		c0.109,1.854-0.368,3.284-1.431,4.292c-1.063,1.01-2.277,1.582-3.639,1.718c-1.363,0.137-2.645-0.231-3.843-1.104
		c-1.2-0.871-1.936-2.261-2.208-4.17L441.729,842.046z"/>
	<path style="fill:#FFFFFF;stroke:#000000;stroke-width:2;" d="M452.522,888.572c-0.11,1.091-0.491,2.058-1.145,2.902
		c-0.654,0.845-1.404,1.458-2.249,1.84c-0.846,0.381-1.758,0.463-2.739,0.245c-0.981-0.219-1.854-0.817-2.616-1.799
		c-0.437-0.546-0.75-1.157-0.94-1.84c-0.192-0.681-0.314-1.39-0.368-2.126c-0.055-0.735-0.069-1.472-0.041-2.208
		c0.026-0.735,0.041-1.402,0.041-2.003c-0.055-3.216-0.069-6.404-0.041-9.566c0.026-3.161,0.013-6.351-0.041-9.567
		c0-1.309-0.082-2.629-0.246-3.966c-0.164-1.335-0.082-2.657,0.246-3.966c0.272-0.981,0.749-1.825,1.431-2.534
		c0.681-0.708,1.444-1.199,2.29-1.473c0.845-0.271,1.717-0.299,2.617-0.081s1.676,0.791,2.331,1.717
		c0.871,1.091,1.308,2.167,1.308,3.229c0,1.063,0,2.359,0,3.885c0,1.854,0,3.707,0,5.56c0,1.854,0.027,3.68,0.082,5.479
		c0.054,2.617,0.082,5.233,0.082,7.85c0,2.617,0,5.233,0,7.85V888.572z"/>
	<path style="fill:#FFFFFF;stroke:#000000;stroke-width:2;" d="M482.042,880.641c1.362-0.872,2.657-1.254,3.884-1.146
		c1.227,0.11,2.234,0.532,3.025,1.268c0.79,0.736,1.227,1.718,1.308,2.944c0.082,1.227-0.341,2.521-1.267,3.884
		c-0.601,0.928-1.459,1.771-2.576,2.534c-1.118,0.763-2.195,1.362-3.23,1.799c-2.399,1.09-4.824,1.581-7.277,1.473
		c-2.453-0.11-4.73-0.709-6.828-1.799c-2.099-1.09-3.912-2.603-5.438-4.538c-1.527-1.935-2.563-4.184-3.107-6.746
		c-1.091-4.906-0.873-9.621,0.654-14.146c0.599-1.635,1.321-3.216,2.167-4.742c0.844-1.525,1.867-2.915,3.066-4.17
		c1.198-1.254,2.535-2.357,4.006-3.312c1.472-0.953,3.079-1.595,4.824-1.922c1.199-0.217,2.726-0.204,4.579,0.041
		c1.853,0.245,3.666,0.723,5.438,1.431c1.771,0.709,3.325,1.636,4.661,2.78c1.335,1.145,2.085,2.508,2.249,4.089
		c0.108,0.872,0,1.676-0.327,2.412c-0.327,0.735-0.791,1.349-1.39,1.84c-0.601,0.49-1.295,0.831-2.085,1.021
		c-0.791,0.191-1.595,0.178-2.412-0.041c-0.981-0.271-1.758-0.64-2.331-1.104c-0.572-0.463-1.322-1.076-2.249-1.84
		c-0.437-0.108-0.846-0.286-1.227-0.531c-0.382-0.245-0.791-0.34-1.227-0.286l-2.208,0.245c-0.382,0.219-0.736,0.409-1.063,0.572
		s-0.654,0.327-0.981,0.49c-1.854,1.854-3.217,3.912-4.088,6.174c-0.873,2.263-1.091,4.702-0.654,7.318
		c0.272,1.69,0.804,3.08,1.595,4.17c0.79,1.091,1.717,1.84,2.78,2.249c1.063,0.408,2.234,0.449,3.516,0.122
		c1.28-0.327,2.548-1.062,3.802-2.207L482.042,880.641z"/>
	<path style="fill:#FFFFFF;stroke:#000000;stroke-width:2;" d="M529.301,857.255c0.381-1.309,0.994-2.303,1.84-2.984
		s1.744-1.076,2.699-1.186c0.953-0.109,1.866,0.055,2.738,0.49c0.872,0.437,1.555,1.118,2.045,2.044
		c0.6-0.327,1.198-0.626,1.799-0.899c0.6-0.271,1.28-0.518,2.045-0.735c3.487-0.927,6.582-0.859,9.279,0.204
		c2.699,1.062,4.947,2.698,6.746,4.906c1.799,2.207,3.08,4.797,3.844,7.768c0.763,2.972,0.939,5.942,0.531,8.913
		c-0.408,2.972-1.459,5.752-3.148,8.34c-1.689,2.59-4.116,4.594-7.277,6.01c-2.072,0.927-4.238,1.513-6.5,1.759
		c-2.263,0.245-4.512,0.286-6.746,0.122c0,0.054,0.013,0.491,0.041,1.309c0.027,0.817,0.041,1.853,0.041,3.107
		c0,1.253,0,2.616,0,4.088s-0.041,2.889-0.123,4.252c-0.082,1.362-0.191,2.576-0.326,3.639c-0.137,1.063-0.342,1.785-0.613,2.167
		c-0.71,1.035-1.582,1.689-2.617,1.963c-1.036,0.271-2.018,0.23-2.943-0.123c-0.928-0.355-1.731-0.954-2.412-1.799
		c-0.683-0.846-1.022-1.868-1.022-3.066v-49.797L529.301,857.255z"/>
	<path style="fill:#FFFFFF;stroke:#000000;stroke-width:2;" d="M539.768,867.885c-0.164,0.273-0.245,0.396-0.245,0.368
		s-0.11,0.068-0.327,0.286v13.491c1.09,0.164,2.18,0.245,3.271,0.245c1.09,0,2.234-0.163,3.434-0.49
		c2.453-0.6,4.387-1.785,5.806-3.557c1.417-1.771,1.962-3.966,1.636-6.583c-0.164-1.09-0.479-2.22-0.941-3.393
		c-0.463-1.172-1.076-2.167-1.84-2.985c-0.764-0.817-1.663-1.39-2.697-1.717c-1.037-0.327-2.208-0.217-3.517,0.327
		c-0.927,0.382-1.758,0.954-2.493,1.717C541.117,866.359,540.422,867.122,539.768,867.885z"/>
	<path style="fill:#FFFFFF;stroke:#000000;stroke-width:2;" d="M581.469,885.792c0.6,0.545,1.104,1.24,1.512,2.085
		c0.41,0.846,0.627,1.69,0.654,2.534c0.027,0.845-0.164,1.636-0.572,2.372c-0.408,0.735-1.131,1.294-2.166,1.676
		c-0.818,0.272-1.718,0.327-2.699,0.164c-0.98-0.164-1.949-0.491-2.902-0.981c-0.955-0.491-1.799-1.077-2.535-1.758
		c-0.736-0.683-1.268-1.432-1.594-2.249c-0.11-0.272-0.192-0.585-0.246-0.94c-0.055-0.354-0.082-0.667-0.082-0.94v-45.381
		c0-1.254,0.477-2.316,1.432-3.189c0.953-0.871,2.003-1.39,3.148-1.553c0.543-0.054,1.131,0.027,1.758,0.245
		c0.625,0.218,1.212,0.531,1.758,0.94c0.544,0.408,0.994,0.887,1.35,1.431c0.354,0.546,0.531,1.118,0.531,1.717
		c0,1.418,0,3.299,0,5.643s0.012,4.905,0.041,7.686c0.026,2.78,0.041,5.656,0.041,8.627c0,2.972-0.015,5.819-0.041,8.545
		c-0.029,2.727-0.041,5.22-0.041,7.481c0,2.263-0.028,4.075-0.082,5.438L581.469,885.792z"/>
	<path style="fill:#FFFFFF;stroke:#000000;stroke-width:2;" d="M623.906,887.264c0.436,1.582,0.354,2.89-0.246,3.925
		s-1.43,1.729-2.492,2.085c-1.064,0.354-2.223,0.313-3.477-0.123s-2.344-1.308-3.27-2.616c-1.527,1.145-3.014,1.948-4.457,2.412
		c-1.445,0.463-3.094,0.722-4.947,0.777c-2.779,0.108-5.262-0.205-7.441-0.94c-2.18-0.736-4.02-1.84-5.518-3.312
		c-1.5-1.473-2.605-3.312-3.312-5.52c-0.709-2.208-0.955-4.756-0.736-7.646c0.109-1.198,0.312-2.371,0.613-3.516
		c0.299-1.146,0.641-2.262,1.023-3.353c0.436-1.199,1.049-2.48,1.838-3.844c0.791-1.361,1.596-2.534,2.414-3.516
		c2.943-3.598,6.623-6.187,11.037-7.768c0.764-0.272,1.799-0.518,3.107-0.736c1.309-0.217,2.629-0.313,3.967-0.286
		c1.334,0.028,2.615,0.204,3.842,0.531s2.139,0.899,2.74,1.717c0.49,0.654,0.844,1.227,1.062,1.718
		c0.217,0.49,0.34,1.009,0.367,1.554s0.027,1.132,0,1.758c-0.027,0.627-0.039,1.404-0.039,2.33c0,1.527-0.016,3.013-0.041,4.457
		c-0.029,1.444-0.016,2.902,0.041,4.374c0,0.49,0,1.132,0,1.922c0,0.791,0.025,1.622,0.08,2.494s0.123,1.704,0.205,2.493
		c0.082,0.791,0.205,1.432,0.367,1.922L623.906,887.264z"/>
	<path style="fill:#FFFFFF;stroke:#000000;stroke-width:2;" d="M606.572,883.584c0.598-0.381,1.279-0.804,2.043-1.268
		c0.764-0.462,1.443-0.994,2.045-1.595c-0.49-2.889-0.777-5.777-0.859-8.667c-0.082-2.889-0.068-5.806,0.041-8.749
		c-2.453,0.437-4.66,1.5-6.623,3.188c-1.963,1.69-3.326,3.68-4.088,5.97c-0.328,0.927-0.602,1.88-0.818,2.861
		c-0.219,0.981-0.299,1.936-0.244,2.862c0.053,1.255,0.381,2.304,0.98,3.147c0.6,0.846,1.32,1.486,2.166,1.922
		c0.846,0.438,1.744,0.683,2.699,0.736C604.867,884.048,605.754,883.911,606.572,883.584z"/>
	<path style="fill:#FFFFFF;stroke:#000000;stroke-width:2;" d="M632.082,907.951c-0.928-1.146-1.418-2.331-1.473-3.558
		s0.217-2.276,0.818-3.147c0.6-0.873,1.457-1.472,2.576-1.799c1.115-0.327,2.357-0.164,3.719,0.49
		c0.6,0.436,1.146,0.763,1.637,0.981c0.49,0.217,1.172,0.544,2.043,0.981c0.818,0.38,1.744,0.667,2.781,0.858
		c1.035,0.19,2.016,0.231,2.943,0.122c1.852-0.109,3.283-0.423,4.293-0.94c1.008-0.519,1.73-1.199,2.166-2.044
		c0.436-0.846,0.695-1.881,0.777-3.107s0.123-2.604,0.123-4.129c-1.746,0.6-3.49,1.049-5.234,1.35
		c-1.744,0.299-3.543,0.34-5.396,0.122c-3.598-0.437-6.555-1.717-8.871-3.843c-2.318-2.126-4.006-4.661-5.07-7.604
		c-1.062-2.943-1.5-6.092-1.307-9.444c0.189-3.353,0.967-6.445,2.33-9.28c0.816-1.636,1.934-3.148,3.352-4.538
		c1.418-1.391,3.012-2.535,4.783-3.435s3.625-1.484,5.561-1.758c1.934-0.272,3.803-0.108,5.602,0.49
		c1.035,0.382,2.043,0.765,3.025,1.145c0.98,0.383,1.934,0.873,2.861,1.473c1.035-0.927,2.248-1.391,3.639-1.391
		s2.576,0.654,3.557,1.963c0.217,0.327,0.463,0.694,0.736,1.104c0.271,0.409,0.408,0.805,0.408,1.186
		c0.055,5.834,0.068,11.652,0.041,17.458c-0.027,5.805-0.041,11.625-0.041,17.457c0,2.343-0.314,4.524-0.939,6.541
		c-0.627,2.017-1.568,3.803-2.82,5.356c-1.256,1.554-2.809,2.82-4.662,3.802s-4.006,1.607-6.459,1.881
		c-1.254,0.108-2.48,0.163-3.68,0.163s-2.426-0.137-3.68-0.408c-1.746-0.327-3.422-0.873-5.029-1.636
		c-1.607-0.764-3.203-1.608-4.783-2.534L632.082,907.951z"/>
	<path style="fill:#FFFFFF;stroke:#000000;stroke-width:2;" d="M641.73,883.012c2.398,1.145,4.605,1.513,6.623,1.104
		c2.016-0.408,4.061-1.321,6.133-2.739v-13.001c-1.582-1.58-3.121-2.685-4.621-3.312c-1.5-0.626-3.283-0.804-5.355-0.531
		c-0.381,0.219-0.75,0.408-1.104,0.572c-0.355,0.163-0.723,0.327-1.104,0.49c-1.145,1.309-2.018,2.576-2.617,3.803
		s-0.953,2.48-1.062,3.761c-0.109,1.282-0.014,2.59,0.287,3.925c0.299,1.337,0.748,2.795,1.348,4.375
		c0.164,0.273,0.41,0.546,0.736,0.817C641.322,882.549,641.566,882.794,641.73,883.012z"/>
	<path style="fill:#FFFFFF;stroke:#000000;stroke-width:2;" d="M705.592,884.483c0.49,0.709,0.775,1.541,0.857,2.494
		c0.082,0.954-0.027,1.854-0.326,2.698c-0.301,0.846-0.791,1.539-1.473,2.085c-0.682,0.544-1.568,0.79-2.656,0.736
		c-1.42-0.11-2.564-0.601-3.436-1.473c-0.873-0.871-1.689-1.853-2.453-2.943c-2.125,1.745-4.32,2.957-6.582,3.639
		c-2.262,0.681-4.484,0.831-6.664,0.45c-2.182-0.382-4.225-1.296-6.133-2.739c-1.908-1.444-3.516-3.394-4.824-5.847
		c-1.199-2.289-1.867-4.824-2.004-7.604s-0.178-5.424-0.121-7.932c0-0.871,0.025-1.729,0.08-2.575
		c0.055-0.845,0.109-1.73,0.164-2.658c0.055-0.707,0.082-1.402,0.082-2.085c0-0.681,0.041-1.32,0.123-1.921
		c0.082-0.6,0.244-1.198,0.49-1.799c0.246-0.6,0.613-1.172,1.104-1.718c0.654-0.708,1.443-1.131,2.371-1.268
		c0.928-0.135,1.812-0.04,2.658,0.287c0.844,0.326,1.58,0.831,2.207,1.513s0.969,1.513,1.023,2.493
		c0.107,2.78,0.041,5.589-0.205,8.423c-0.246,2.835-0.232,5.614,0.041,8.34c0.109,1.309,0.449,2.645,1.021,4.007
		c0.572,1.363,1.484,2.345,2.74,2.943c1.252,0.546,2.52,0.505,3.801-0.122s2.332-1.377,3.148-2.249
		c0.381-0.436,0.75-0.912,1.104-1.431c0.355-0.518,0.75-0.968,1.186-1.35c-0.217-1.907-0.354-3.814-0.408-5.724
		c-0.055-1.907-0.055-3.815,0-5.724c0-1.035,0.041-2.167,0.123-3.394s0.299-2.398,0.654-3.516c0.354-1.117,0.885-2.099,1.594-2.944
		c0.709-0.844,1.717-1.376,3.025-1.594c0.6-0.109,1.186-0.054,1.758,0.163c0.572,0.219,1.076,0.519,1.514,0.899
		c0.762,0.654,1.279,1.391,1.553,2.208s0.41,1.69,0.41,2.616c0,0.928-0.07,1.868-0.205,2.821c-0.137,0.954-0.232,1.84-0.287,2.657
		c-0.109,1.527-0.191,3.136-0.244,4.824c-0.055,1.69,0,3.381,0.164,5.069c0.162,1.69,0.477,3.326,0.939,4.906
		C703.969,881.731,704.664,883.175,705.592,884.483z"/>
	<path style="fill:#FFFFFF;stroke:#000000;stroke-width:2;" d="M740.588,879.904c1.307-0.327,2.465-0.34,3.475-0.041
		c1.008,0.301,1.785,0.805,2.33,1.513c0.545,0.709,0.789,1.582,0.736,2.617c-0.055,1.036-0.52,2.126-1.391,3.271
		c-0.709,0.928-1.689,1.717-2.943,2.371s-2.426,1.173-3.516,1.554c-2.672,0.981-5.207,1.662-7.605,2.044
		c-2.398,0.381-4.648,0.381-6.746,0c-2.098-0.382-4.061-1.173-5.887-2.371s-3.529-2.889-5.111-5.069
		c-1.09-1.472-1.895-3.148-2.412-5.029s-0.805-3.802-0.857-5.765c-0.055-1.962,0.107-3.896,0.49-5.806
		c0.381-1.907,0.926-3.624,1.635-5.151c0.928-1.907,2.398-3.651,4.416-5.232c2.016-1.581,4.252-2.834,6.705-3.762
		c2.453-0.926,4.959-1.458,7.523-1.595c2.561-0.135,4.824,0.26,6.785,1.186c1.637,0.765,3.039,1.868,4.211,3.312
		s1.977,3.012,2.414,4.701c0.436,1.69,0.477,3.394,0.121,5.11c-0.355,1.718-1.24,3.285-2.656,4.702
		c-1.363,1.363-2.863,2.467-4.498,3.312c-1.635,0.846-3.326,1.581-5.07,2.207c-1.744,0.628-3.529,1.159-5.355,1.595
		c-1.826,0.438-3.584,0.928-5.273,1.472c1.145,1.309,2.453,2.141,3.926,2.494c1.471,0.355,3.01,0.423,4.619,0.204
		c1.607-0.217,3.23-0.666,4.865-1.349c1.635-0.681,3.16-1.431,4.578-2.249L740.588,879.904z"/>
	<path style="fill:#FFFFFF;stroke:#000000;stroke-width:2;" d="M724.07,865.841c-1.256,0.709-2.182,1.594-2.781,2.657
		c-0.6,1.062-1.035,2.549-1.309,4.456c1.418-0.436,3.012-0.899,4.785-1.39c1.77-0.491,3.445-1.009,5.027-1.554
		c1.58-0.545,2.916-1.145,4.008-1.799c1.09-0.654,1.635-1.362,1.635-2.126c0-0.436-0.068-0.858-0.205-1.268
		s-0.422-0.695-0.857-0.858c-1.527-0.545-3.107-0.654-4.742-0.327c-1.637,0.327-3,0.791-4.09,1.39L724.07,865.841z"/>
	<path style="fill:#FFFFFF;stroke:#000000;stroke-width:2;" d="M749.99,895.768c0.436-0.438,0.83-0.832,1.186-1.186
		c0.354-0.355,0.709-0.709,1.062-1.063c0.355-0.354,0.695-0.75,1.023-1.186c0.326-0.437,0.68-0.954,1.062-1.554
		c1.58-2.562,2.779-5.479,3.598-8.749s1.309-6.636,1.473-10.099c0.162-3.461,0.025-6.868-0.41-10.221s-1.172-6.419-2.207-9.199
		c-0.709-1.907-1.594-3.706-2.658-5.396c-1.062-1.688-2.139-3.353-3.229-4.987c-0.492-0.708-0.969-1.403-1.432-2.085
		s-0.723-1.485-0.777-2.412c-0.055-1.417,0.287-2.589,1.023-3.517c0.734-0.926,1.621-1.513,2.656-1.758s2.098-0.149,3.189,0.286
		c1.09,0.437,1.963,1.281,2.617,2.535c1.197,1.689,2.342,3.407,3.434,5.151c1.09,1.745,2.098,3.516,3.025,5.314
		c1.525,2.943,2.684,6.133,3.475,9.567c0.791,3.434,1.254,6.95,1.391,10.548c0.135,3.598-0.041,7.154-0.531,10.671
		c-0.49,3.516-1.227,6.801-2.207,9.853c-0.873,2.616-1.922,5.246-3.148,7.891c-1.227,2.644-2.795,4.974-4.703,6.991
		c-0.816,0.871-1.744,1.689-2.779,2.453c-1.035,0.763-2.182,1.145-3.434,1.145c-1.145,0-2.086-0.245-2.822-0.735
		c-0.734-0.491-1.254-1.118-1.553-1.881c-0.301-0.765-0.396-1.595-0.287-2.494s0.381-1.786,0.818-2.657L749.99,895.768z"/>
	<path style="fill:#FFFFFF;stroke:#000000;stroke-width:2;" d="M766.643,474.658c-1.105,9.211-4.515,16.765-10.221,22.652
		c-5.715,5.888-12.154,9.573-19.337,11.05c-7.183,1.468-14.089,0.553-20.718-2.763c-6.631-3.314-11.422-9.764-14.365-19.337
		c-1.848-6.259-3.039-13.069-3.592-20.442c-0.552-7.363-0.742-14.641-0.552-21.823c0.181-7.182,0.458-14.088,0.829-20.718
		c0.361-6.63,0.552-12.154,0.552-16.574c0-10.679-0.095-21.176-0.276-31.492c-0.189-10.308-0.275-20.805-0.275-31.491
		c-18.051-17.309-34.531-35.636-49.448-54.973s-28.271-40.055-40.056-62.155c-3.686-6.63-7.182-13.898-10.496-21.823
		c-3.315-7.916-5.162-15.746-5.525-23.48c-1.848-6.993-1.105-13.346,2.21-19.061c3.315-5.706,7.821-10.126,13.536-13.26
		c5.706-3.125,11.965-4.601,18.784-4.42c6.812,0.19,12.983,2.486,18.509,6.906c4.049,3.315,7.363,7.183,9.944,11.602
		c2.573,4.42,4.782,9.116,6.63,14.088c1.839,4.973,3.592,10.04,5.248,15.193c1.658,5.163,3.773,9.945,6.354,14.365
		c7.735,14.002,16.299,26.986,25.691,38.95c9.393,11.974,19.424,23.852,30.11,35.635c9.573-12.888,19.89-24.948,30.938-36.188
		c11.051-11.231,21.176-23.291,30.388-36.188c1.839-2.943,4.601-7.458,8.287-13.536c3.677-6.078,7.545-12.431,11.603-19.061
		c4.049-6.63,8.287-12.793,12.707-18.508c4.42-5.706,8.287-9.479,11.602-11.326c5.888-3.678,11.879-5.335,17.956-4.973
		c6.077,0.372,11.603,2.21,16.575,5.525c4.972,3.315,8.926,7.83,11.878,13.536c2.944,5.715,4.049,11.878,3.315,18.508
		c-0.742,7.001-3.963,15.469-9.669,25.414c-5.715,9.945-12.345,20.08-19.89,30.387c-7.553,10.316-15.193,20.08-22.928,29.282
		c-7.735,9.211-13.812,16.575-18.232,22.1c-3.686,4.42-7.277,8.754-10.773,12.983c-3.505,4.238-7.096,8.383-10.773,12.431
		c-4.791,5.525-9.393,11.05-13.812,16.575c-4.42,5.524-8.84,11.05-13.26,16.574c0,20.994,0,41.989,0,62.983
		s0.182,41.989,0.553,62.983V474.658z"/>
</g>
</svg>
