<?xml version="1.0" encoding="utf-8"?>
<!-- Generator: Adobe Illustrator 16.0.0, SVG Export Plug-In . SVG Version: 6.00 Build 0)  -->
<!DOCTYPE svg PUBLIC "-//W3C//DTD SVG 1.1//EN" "http://www.w3.org/Graphics/SVG/1.1/DTD/svg11.dtd">
<svg version="1.1" xmlns="http://www.w3.org/2000/svg" xmlns:xlink="http://www.w3.org/1999/xlink" x="0px" y="0px" width="100%"
	 height="100%" viewBox="0 0 1000 1000" style="enable-background:new 0 0 1000 1000;" xml:space="preserve">
<g id="Layer_3">
	<rect style="fill:#FFFFFF;" width="1000" height="1000"/>
</g>
<g id="Layer_1">
	<path style="fill:#FFFFFF;stroke:#231F20;stroke-width:2;stroke-miterlimit:10;" d="M262.887,483.602
		c-20.695,27.637-45.032,41.478-74.558,60.817c-29.722,19.469-56.633,40.789-87.681,58.282
		c-12.685,7.146-32.195,12.521-30.502,30.916c1.637,17.785,25.314,24.702,38.669,29.91c35.183,13.726,66.747,6.317,95.177-19.727
		c16.336-14.966,22.357-34.34,28.544-54.83c4.724-15.646,5.153-43.916,18.188-54.688L262.887,483.602z"/>
	<path style="fill:#FFFFFF;stroke:#231F20;stroke-width:2;stroke-miterlimit:10;" d="M504.131,589.516
		c24.619-17.364,50.266-23.422,77.016-33.067c15.919-5.741,24.447-15.266,26.932-32.2c2.556-17.418-4.296-36.698-11.371-52.272
		c-1.684-3.708-23.699-37.284-23.843-37.043c38.889-65.606,144.467,16.988,92.234,81.346c25.517-22.724,68.065-34.999,96.438-10.429
		c26.376,22.843,12.818,68.135,1.969,94.621c-1.346-19.809-58.103-37.941-74.902-37.8c-36.154,0.307-47.493,40.976-66.951,64.912
		c-30.062,36.983-96.939,92.733-150.492,77.002C402.685,684.47,473.499,611.118,504.131,589.516z"/>
	<path style="fill:#FFFFFF;stroke:#231F20;stroke-width:2;stroke-miterlimit:10;" d="M553.592,483.602
		c20.694,27.637,45.03,41.478,74.558,60.817c29.722,19.469,56.634,40.789,87.681,58.282c12.686,7.146,32.195,12.521,30.502,30.916
		c-1.638,17.785-25.312,24.702-38.669,29.91c-35.184,13.726-66.745,6.317-95.177-19.727c-16.337-14.966-22.356-34.34-28.543-54.83
		c-4.726-15.646-5.153-43.916-18.188-54.688L553.592,483.602z"/>
	<path style="fill:#FFFFFF;stroke:#231F20;stroke-width:2;stroke-miterlimit:10;" d="M558.847,672.641
		c-11.745,14.813-25.924,26.343-41.682,35.033c-60.916,33.627-145.619,25.045-206.128,0.851
		c-7.475-2.985-14.583-6.418-21.247-10.257c-43.466-25.059-68.39-67.701-57.914-121.411c7.176-36.764,18.246-77.744,31.113-113.019
		c8.474-23.22,6.73-48.548,14.069-71.89c6.124-19.502,17.342-40.682,27.897-58.36c23.773-39.791,76.837-82.297,126.603-67.957
		c69.606,20.071,98.543,88.446,111.084,152.646c6.543,33.519,16.733,63.199,26.302,95.583
		C583.905,564.57,594.447,627.755,558.847,672.641z"/>
	<path style="fill:#FFFFFF;stroke:#231F20;stroke-width:2;stroke-miterlimit:10;" d="M499.865,710.652
		c-52.743,29.116-126.083,21.685-178.475,0.737c-6.472-2.586-12.626-5.557-18.396-8.882c-7.583-11.152-12.194-24.574-12.649-40.421
		c-1.253-43.287,3.721-78.675,46.751-99.81c64.749-31.795,167.145-28.999,179.949,56.173
		C522.028,651.614,520.134,685.928,499.865,710.652z"/>
	<path style="fill:#FFFFFF;stroke:#231F20;stroke-width:2;stroke-miterlimit:10;" d="M320.902,394.654
		c-23.27-18.04-14.867-54.702,8.187-69.213c26.541-16.706,62.38,11.864,59.76,40.662c-1.981,21.76-19.162,38.041-41.266,37.245
		C336.198,402.938,327.376,399.673,320.902,394.654z"/>
	<path style="fill:#231F20;stroke:#231F20;stroke-width:2;stroke-miterlimit:10;" d="M353.598,340.637
		c20.541-7.808,38.474,14.53,26.264,32.904c-10.861,16.339-38.163,11.14-39.546-9.302
		C339.621,353.979,343.34,344.537,353.598,340.637z"/>
	<path style="fill:#FFFFFF;stroke:#231F20;stroke-width:2;stroke-miterlimit:10;" d="M367.584,353.458
		c4.201-5.947,14.459-2.936,14.439,4.561c-0.015,6-5.613,10.95-10.826,7.732C366.855,363.072,364.318,358.083,367.584,353.458z"/>
	<path style="fill:#FFFFFF;stroke:#231F20;stroke-width:2;stroke-miterlimit:10;" d="M428.291,393.165
		c-24.424-21.769-12.32-61.772,14.34-76.104c30.695-16.501,68.252,17.899,63.154,49.622c-3.851,23.972-24.135,40.712-48.579,38.149
		C444.618,403.511,435.085,399.221,428.291,393.165z"/>
	<path style="fill:#231F20;stroke:#231F20;stroke-width:2;stroke-miterlimit:10;" d="M468.646,335.772
		c23.364-7.093,41.545,19.033,26.611,38.472c-13.283,17.288-43.153,9.447-43.13-13.318
		C452.137,349.498,456.977,339.314,468.646,335.772z"/>
	<path style="fill:#FFFFFF;stroke:#231F20;stroke-width:2;stroke-miterlimit:10;" d="M483.173,351.048
		c5.111-6.273,16.254-2.153,15.661,6.154c-0.475,6.651-7.055,11.711-12.59,7.748C481.635,361.649,479.203,355.926,483.173,351.048z"
		/>
	<path style="fill:#FFFFFF;stroke:#231F20;stroke-width:2;stroke-miterlimit:10;" d="M520.378,481.037
		c4.933-67.218-256.269-89.271-229.299-10.18c13.115,38.447,100.305,60.468,119.571,19.627
		C429.915,518.204,518.104,512.039,520.378,481.037z"/>
	<path style="fill:#FFFFFF;stroke:#231F20;stroke-width:2;stroke-miterlimit:10;" d="M304.726,474.705
		c13.18,10.893,57.649,10.66,38.654-15.902C331.38,442.022,282.711,456.507,304.726,474.705z"/>
	<path style="fill:#FFFFFF;stroke:#231F20;stroke-width:2;stroke-miterlimit:10;" d="M461.71,482.219
		c13.624,11.259,59.588,11.019,39.956-16.438C489.261,448.436,438.954,463.408,461.71,482.219z"/>
	<path style="fill:#FFFFFF;stroke:#231F20;stroke-width:2;stroke-miterlimit:10;" d="M381.25,466.019l55.987-3.439
		C437.236,462.58,414.143,519.802,381.25,466.019z"/>
</g>
<g id="Layer_2">
	<path style="fill:#FFFFFF;stroke:#000000;stroke-width:2;" d="M93.052,827.079c-12.611,0-1.595-12.439,0.864-16.28
		c7.298-9.146,15.654-17.358,24.084-25.448c-3.624,0.112-38.522,3.054-29.506-8.14c4.865-6.049,29.298-2.139,36.415-2.356
		c9.162-0.271,19.021,3.054,8.828,11.268c-11.027,8.565-20.747,19.113-29.554,29.903c6.344,0.163,35.867-3.157,36.942,3.514
		C143.036,831.546,99.912,825.978,93.052,827.079C92.028,827.079,96.25,826.565,93.052,827.079z"/>
	<path style="fill:#FFFFFF;stroke:#000000;stroke-width:2;" d="M188.24,821.338c2.355,7.641-7.792,7.64-11.131,3.428
		c-5.666,3.793-13.319,4.301-19.767,2.356c-16.781-5.059-12.251-25.891-1.565-34.804c8.38-6.989,27.856-11.925,27.856,3.486
		C183.634,805.939,183.427,812.53,188.24,821.338z"/>
	<path style="fill:#FFFFFF;stroke:#000000;stroke-width:2;" d="M167.897,817.482c7.474-4.235,3.499-13.131,3.838-21.25
		C157.891,798.436,153.504,822.624,167.897,817.482C168.601,817.084,166.938,817.825,167.897,817.482z"/>
	<path style="fill:#FFFFFF;stroke:#000000;stroke-width:2;" d="M208.486,819.796c9.558,7.766-12.474,13.884-12.474-0.974
		c0-11.263,0-22.525,0-33.788c0-3.511,0-7.021,0-10.53c0-6.638,11.707-6.67,11.707-0.635
		C207.718,787.102,204.027,808.16,208.486,819.796z"/>
	<path style="fill:#FFFFFF;stroke:#000000;stroke-width:2;" d="M217.314,804.63c5.976-22.152,40.605-25.673,41.117,1.156
		C258.973,836.02,208.812,835.907,217.314,804.63z"/>
	<path style="fill:#FFFFFF;stroke:#000000;stroke-width:2;" d="M228.829,806.429c-2.907,13.861,12.306,16.015,17.08,3.878
		C251.649,795.71,233.487,792.742,228.829,806.429C228.637,807.344,229.275,805.116,228.829,806.429z"/>
	<path style="fill:#FFFFFF;stroke:#000000;stroke-width:2;" d="M266.633,789.892c1.164-3.57,5.113-5.382,8.54-3.855
		c4.435,1.986,2.053,1.667,6.909,0.429c7.99-1.895,16.115,0.844,20.715,7.803c12.429,18.803-7.014,33.189-24.554,32.04
		c0,4.012,0.568,31.766-10.507,19.493c-2.896-3.204-1.199-12.261-1.199-15.921C266.537,816.588,266.02,803.159,266.633,789.892z"/>
	<path style="fill:#FFFFFF;stroke:#000000;stroke-width:2;" d="M278.915,801.031c-2.803,4.18-2.336,15.08,3.167,15.08
		C303.281,816.111,292.773,786.591,278.915,801.031C278.723,801.317,279.683,800.231,278.915,801.031z"/>
	<path style="fill:#FFFFFF;stroke:#000000;stroke-width:2;" d="M323.724,826.865c-13.172,8.51-9.211-28.922-9.211-33.516
		c0-6.053,0-12.106,0-18.16c0-4.821,8.441-7.623,10.914-3.312c2.69,4.691,0.907,14.174,0.792,19.386
		c13.635-8.222,27.341,0.773,28.582,15.702c0.431,5.188-0.083,10.383-0.083,15.573c0,10.54-12.765,4.606-12.234-5.013
		c0.332-6.048,2.618-15.088-3.886-18.808c-5.927-0.796-8.615,4.441-12.378,7.797C324.193,811.96,329.79,822.933,323.724,826.865
		C322.444,827.692,325.003,826.036,323.724,826.865z"/>
	<path style="fill:#FFFFFF;stroke:#000000;stroke-width:2;" d="M404.133,818.425c5.863,7.568-6.359,9.867-11.131,3.771
		c-7.876,5.774-18.862,6.297-25.836-1.253c-6.327-6.85-5.345-16.612-4.773-25.224c0.243-2.861-0.133-5.656,2.111-7.883
		c2.847-2.752,9.417-1.213,9.691,3.17c0.284,6.479-3.744,21.451,4.222,24.849c11.99,4.657,10.188-11.981,10.363-17.394
		c0-5.523,8.004-19.223,11.995-8.569C404.169,799.005,397.043,809.493,404.133,818.425
		C404.709,819.168,403.045,817.054,404.133,818.425z"/>
	<path style="fill:#FFFFFF;stroke:#000000;stroke-width:2;" d="M410.751,819.367c-4.158-10.518,8.034-6.387,12.09-3.685
		c2.194,1.5,9.146,4.545,10.555,0.343c1.905-5.662-8.528-6.06-11.778-7.314c-25.969-10.024,7.962-38.396,20.318-20.019
		c7.916,11.793-13.989,4.996-16.408,5.826c-7.736,1.739,15.695,10.478,15.94,10.712c9.045,8.614,0.822,22.202-9.991,23.306
		C423.728,829.204,415.559,825.377,410.751,819.367z"/>
	<path style="fill:#FFFFFF;stroke:#000000;stroke-width:2;" d="M514.381,814.397c3.202-1.83,9.271-1.765,9.643,3.214
		c0.442,5.879-8.2,9.068-12.546,9.853c-9.439,1.704-20.023-3.695-22.333-13.409c-4.001-16.064,8.942-33.015,25.871-29.035
		c4.175,0.98,16.877,7.011,9.248,12.584c-5.58,4.073-9.381-3.324-14.824-2.785C493.186,796.43,500.68,827.066,514.381,814.397z"/>
	<path style="fill:#FFFFFF;stroke:#000000;stroke-width:2;" d="M571.568,821.338c2.358,7.642-7.791,7.637-11.131,3.428
		c-5.665,3.793-13.319,4.301-19.766,2.356c-16.782-5.059-12.252-25.891-1.565-34.804c8.381-6.989,27.856-11.925,27.856,3.486
		C566.963,805.939,566.757,812.529,571.568,821.338z"/>
	<path style="fill:#FFFFFF;stroke:#000000;stroke-width:2;" d="M551.227,817.482c7.474-4.235,3.499-13.132,3.838-21.25
		C541.218,798.436,536.837,822.626,551.227,817.482C551.93,817.084,550.268,817.825,551.227,817.482z"/>
	<path style="fill:#FFFFFF;stroke:#000000;stroke-width:2;" d="M591.815,819.796c9.558,7.766-12.475,13.885-12.475-0.974
		c0-11.263,0-22.525,0-33.788c0-3.511,0-7.021,0-10.53c0-6.637,11.707-6.67,11.707-0.635
		C591.048,787.099,587.354,808.165,591.815,819.796z"/>
	<path style="fill:#FFFFFF;stroke:#000000;stroke-width:2;" d="M602.082,773.955c1.133-9.391,16.134-6.462,12.822,2.41
		C612.474,782.876,602.874,780.117,602.082,773.955z"/>
	<path style="fill:#FFFFFF;stroke:#000000;stroke-width:2;" d="M614.748,822.709c-1.052,9.333-12.188,4.718-11.85-3.127
		c0.377-9.303-2.547-21.536-0.049-30.461c0.964-3.104,4.296-4.961,7.437-4.284c5.446,1.179,4.271,8.277,4.271,12.167
		C614.557,805.573,614.748,814.139,614.748,822.709z"/>
	<path style="fill:#FFFFFF;stroke:#000000;stroke-width:2;" d="M638.546,826.137c-10.666,11.705-10.171-12.47-10.171-15.993
		c0-2.674,0.947-7.427,0-9.97c-3.144,0-6.488-2.517-6.046-5.955c0.966-7.531,5.98-0.051,5.806-9.639
		c-0.156-8.069,3.393-15.452,11.646-17.587c5.231-1.354,16.879-0.704,19.012,5.719c2.638,7.984-8.298,5.821-11.994,4.499
		c-8.019-2.848-6.717,7.659-6.717,12.253c4.331-0.256,13.652-2.034,15.064,4.069c1.733,7.47-11.166,6.47-15.064,6.47
		C640.081,806.313,643.133,821.086,638.546,826.137C637.714,827.05,639.376,825.223,638.546,826.137z"/>
	<path style="fill:#FFFFFF;stroke:#000000;stroke-width:2;" d="M656.394,804.63c5.979-22.144,40.619-25.681,41.116,1.156
		C698.068,836.016,647.892,835.914,656.394,804.63z"/>
	<path style="fill:#FFFFFF;stroke:#000000;stroke-width:2;" d="M667.908,806.429c-2.899,13.861,12.304,16.016,17.08,3.878
		C690.73,795.71,672.571,792.745,667.908,806.429C667.717,807.344,668.355,805.116,667.908,806.429z"/>
	<path style="fill:#FFFFFF;stroke:#000000;stroke-width:2;" d="M706.288,798.675c0.453-2.692-7.99-14.873,4.27-11.696
		c5.229,1.361,4.362,1.545,9.548-0.686c3.391-1.455,7.097-2.044,10.747-1.37c7.606,1.402,14.243,14.886,3.166,13.152
		c-3.235-0.506-16.12-6.46-16.12,2.957c0,3.725,2.002,37.497-10.315,25.361C703.395,822.267,705.386,803.882,706.288,798.675
		C706.351,798.304,706.224,799.047,706.288,798.675z"/>
	<path style="fill:#FFFFFF;stroke:#000000;stroke-width:2;" d="M783.721,822.881c-0.598,4.461-7.051,7.471-10.219,3.663
		c-3.211-3.859-1.499-11.735-1.476-16.334c0.016-3.029,1.269-11.62-0.588-14.105c-3.363-4.484-13.817,4.527-13.817,8.611
		c-1.148,4.114-0.162,10.478,0.096,14.823c0.679,11.611-11.706,9.238-11.706-1.542c0-9.025-0.096-18.052-0.096-27.077
		c0-5.804,8.087-6.094,10.843-2.313c6.039-3.505,14.542-4.844,20.869-1.263C787.509,792.936,783.721,813.494,783.721,822.881z"/>
	<path style="fill:#FFFFFF;stroke:#000000;stroke-width:2;" d="M793.507,773.955c1.133-9.391,16.134-6.462,12.822,2.41
		C803.898,782.876,794.299,780.117,793.507,773.955z"/>
	<path style="fill:#FFFFFF;stroke:#000000;stroke-width:2;" d="M806.173,822.709c-1.052,9.333-12.188,4.718-11.85-3.127
		c0.377-9.303-2.547-21.536-0.049-30.461c0.964-3.104,4.296-4.961,7.437-4.284c5.446,1.179,4.271,8.277,4.271,12.167
		C805.981,805.573,806.173,814.139,806.173,822.709z"/>
	<path style="fill:#FFFFFF;stroke:#000000;stroke-width:2;" d="M840.813,814.397c3.202-1.829,9.272-1.766,9.644,3.214
		c0.438,5.88-8.197,9.067-12.546,9.853c-9.44,1.705-20.023-3.694-22.333-13.409c-4.001-16.064,8.941-33.015,25.87-29.035
		c4.175,0.98,16.877,7.012,9.249,12.584c-5.58,4.073-9.382-3.324-14.825-2.785C819.618,796.431,827.114,827.066,840.813,814.397z"/>
	<path style="fill:#FFFFFF;stroke:#000000;stroke-width:2;" d="M900.879,818.425c5.863,7.562-6.356,9.872-11.13,3.771
		c-7.877,5.774-18.861,6.297-25.836-1.253c-6.328-6.85-5.345-16.611-4.773-25.224c0.241-2.861-0.132-5.656,2.11-7.883
		c2.847-2.752,9.417-1.213,9.691,3.17c0.284,6.479-3.743,21.45,4.222,24.849c11.991,4.655,10.188-11.979,10.363-17.394
		c0-5.521,8.009-19.224,11.994-8.569C900.914,799.005,893.791,809.492,900.879,818.425
		C901.455,819.168,899.791,817.054,900.879,818.425z"/>
	<path style="fill:#FFFFFF;stroke:#000000;stroke-width:2;" d="M907.498,819.367c-4.157-10.516,8.033-6.39,12.091-3.685
		c2.192,1.499,9.148,4.546,10.555,0.343c1.909-5.66-8.531-6.061-11.778-7.314c-25.969-10.024,7.963-38.396,20.318-20.019
		c7.915,11.793-13.989,4.996-16.408,5.826c-7.736,1.735,15.696,10.479,15.94,10.712c9.045,8.614,0.822,22.202-9.991,23.306
		C920.475,829.204,912.307,825.377,907.498,819.367z"/>
	<path style="fill:#FFFFFF;stroke:#000000;stroke-width:2;" d="M210.909,908.352c3.949,6.808-4.765,8.319-8.818,4.955
		c-5.286-4.387-8.41-12.197-10.023-18.628c-2.903-11.573-0.976-38.191,13.251-42.924c9.873-3.28,3.154,9.065,1.408,11.491
		c-3.166,5.002-4.922,9.338-5.71,15.335C199.606,889.258,201.692,901.704,210.909,908.352z"/>
	<path style="fill:#FFFFFF;stroke:#000000;stroke-width:2;" d="M236.808,894.131c8.875-5.073,9.487,6.759,1.126,9.911
		c-6.578,2.667-14.477,1.104-19.223-4.273c-12.49-14.131,4.677-35.406,21.274-29.483c3.376,1.207,10.32,5.959,5.107,9.768
		c-4.799,3.509-7.122-2.902-11.341-2.441C219.246,877.929,225.078,905.058,236.808,894.131z"/>
	<path style="fill:#FFFFFF;stroke:#000000;stroke-width:2;" d="M284.745,899.948c0.691,2.627-0.207,4.387-2.694,5.279
		c-1.14-0.036-2.279-0.072-3.418-0.108c-2.279-3.049-4.812-3.108-7.601-0.18c-4.794,1.37-10.732,1.012-15.151-1.355
		c-11.636-6.232-5.787-22.332,2.483-28.622c7.204-5.479,22.521-8.851,22.521,3.583C280.884,886.459,280.149,893.171,284.745,899.948
		z"/>
	<path style="fill:#FFFFFF;stroke:#000000;stroke-width:2;" d="M267.693,896.716c6.265-3.55,2.933-11.006,3.217-17.812
		C259.295,880.752,255.643,901.032,267.693,896.716C268.283,896.382,266.889,897.004,267.693,896.716z"/>
	<path style="fill:#FFFFFF;stroke:#000000;stroke-width:2;" d="M301.716,898.655c8.522,6.934-10.456,11.919-10.456,0.795
		c0-9.798,0-19.596,0-29.394c0-3.101,0-6.2,0-9.3c0-5.608,9.812-5.693,9.812-0.599C301.072,871.379,298.08,888.728,301.716,898.655z
		"/>
	<path style="fill:#FFFFFF;stroke:#000000;stroke-width:2;" d="M310.322,860.229c0.764-6.34,10.791-6.808,11.019-0.144
		C321.792,866.956,311.166,866.802,310.322,860.229z"/>
	<path style="fill:#FFFFFF;stroke:#000000;stroke-width:2;" d="M320.939,901.098c-0.729,6.467-9.416,5.168-9.893-0.683
		c-0.66-7.943,0.766-16.066-0.322-23.989c-1.245-9.092,10.054-9.09,10.054,0.683C320.778,885.105,320.939,893.1,320.939,901.098z"/>
	<path style="fill:#FFFFFF;stroke:#000000;stroke-width:2;" d="M340.887,903.971c-9.516,10.428-8.526-13.582-8.526-16.086
		c0-7.548-1.599-2.704-4.625-8.299c-1.212-2.234,0.187-5.096,2.574-5.745c3.786-1.033,1.535-5.401,2.212-9.015
		c1.839-12.878,27.533-13.804,25.457-3.698c-2.167,10.394-15.805-6.83-15.805,12.102c14.913-0.869,15.169,8.835,0,8.835
		C342.174,887.359,344.741,899.728,340.887,903.971C340.189,904.735,341.583,903.204,340.887,903.971z"/>
	<path style="fill:#FFFFFF;stroke:#000000;stroke-width:2;" d="M355.847,885.942c5.918-21.93,39.72-18.844,33.942,5.53
		C384.552,913.452,349.433,909.541,355.847,885.942z"/>
	<path style="fill:#FFFFFF;stroke:#000000;stroke-width:2;" d="M365.499,887.451c-2.435,11.619,10.316,13.423,14.316,3.25
		C384.627,878.465,369.4,875.978,365.499,887.451C365.338,888.218,365.874,886.35,365.499,887.451z"/>
	<path style="fill:#FFFFFF;stroke:#000000;stroke-width:2;" d="M397.67,880.951c0.363-2.146-7.443-12.663,3.579-9.804
		c7.633,1.987,16.101-5.934,23.687,1.688c5.039,5.062-3.092,9.811-7.762,5.603c-3.133-2.779-9.772,2.783-9.772,6.034
		c0,2.902,1.596,29.814-8.646,19.714C395.233,900.716,396.91,885.316,397.67,880.951C397.723,880.64,397.616,881.263,397.67,880.951
		z"/>
	<path style="fill:#FFFFFF;stroke:#000000;stroke-width:2;" d="M462.577,901.241c-0.616,4.587-7.7,6.48-9.41,1.508
		c-1.646-4.568-0.414-11.187-0.362-15.98c0.018-1.771,0.661-6.951-0.844-8.296c-4.147-0.965-11.261,2.688-11.261,7.542
		c-1.38,4.503,0.686,10.386-0.04,15.083c-1.4,8.984-9.692,2.031-9.692-3.95c0-7.565-0.081-15.131-0.081-22.696
		c0-4.865,6.779-5.109,9.089-1.939c4.225-2.452,9.57-3.504,14.357-2.299C466.218,873.214,462.577,892.12,462.577,901.241z"/>
	<path style="fill:#FFFFFF;stroke:#000000;stroke-width:2;" d="M470.78,860.229c0.764-6.34,10.791-6.808,11.019-0.144
		C482.25,866.956,471.624,866.802,470.78,860.229z"/>
	<path style="fill:#FFFFFF;stroke:#000000;stroke-width:2;" d="M481.397,901.098c-0.729,6.467-9.416,5.168-9.893-0.683
		c-0.66-7.943,0.766-16.066-0.322-23.989c-1.245-9.092,10.054-9.09,10.054,0.683C481.236,885.105,481.397,893.1,481.397,901.098z"/>
	<path style="fill:#FFFFFF;stroke:#000000;stroke-width:2;" d="M523.703,899.948c0.691,2.627-0.206,4.387-2.693,5.279
		c-1.14-0.036-2.279-0.072-3.419-0.108c-2.279-3.049-4.812-3.108-7.601-0.18c-4.794,1.37-10.732,1.012-15.151-1.355
		c-11.636-6.232-5.787-22.332,2.483-28.622c7.203-5.479,22.521-8.852,22.521,3.583C519.844,886.458,519.107,893.172,523.703,899.948
		z"/>
	<path style="fill:#FFFFFF;stroke:#000000;stroke-width:2;" d="M506.652,896.716c6.266-3.548,2.934-11.008,3.217-17.812
		C498.257,880.752,494.599,901.031,506.652,896.716C507.242,896.382,505.848,897.004,506.652,896.716z"/>
	<path style="fill:#FFFFFF;stroke:#000000;stroke-width:2;" d="M557.564,898.296c-2.59-6.537,5.226-7.585,8.887-4.094
		c2.763,2.636,14.307,3.328,9.612-1.58c-5.813-5.185-21.085-2.96-16.931-16.017c2.979-9.401,14.187-9.119,21.676-6.248
		c2.794,1.145,5.438,4.967,2.694,7.685c-2.83,2.812-7.78-0.43-10.817-0.754c-10.162-1.074,2.455,5.478,5.066,6.284
		C598.49,889.991,575.239,919.736,557.564,898.296z"/>
	<path style="fill:#FFFFFF;stroke:#000000;stroke-width:2;" d="M621.507,893.484c7.162-1.598,8.07,5.794,2.172,8.547
		c-5.253,2.443-11.765,4.101-17.574,3.16c-12.293-2-19.304-18.384-10.176-28.047c6.614-7.001,23.052-11.043,28.845-0.961
		c7.376,12.838-14.072,16.187-21.444,18.306C608.14,899.399,616.532,896.199,621.507,893.484z"/>
	<path style="fill:#FFFFFF;stroke:#000000;stroke-width:2;" d="M605.26,881.131c-2.493,1.31-3.834,3.392-4.021,6.248
		c2.48-0.682,16.704-2.568,15-7.146C615.022,876.975,607.271,879.936,605.26,881.131z"/>
	<path style="fill:#FFFFFF;stroke:#000000;stroke-width:2;" d="M667.353,899.948c0.69,2.627-0.207,4.387-2.694,5.279
		c-1.14-0.036-2.279-0.072-3.419-0.108c-2.278-3.049-4.812-3.108-7.601-0.18c-4.794,1.371-10.733,1.012-15.152-1.355
		c-11.635-6.231-5.785-22.333,2.484-28.622c7.205-5.48,22.521-8.851,22.521,3.583C663.491,886.458,662.756,893.172,667.353,899.948z
		"/>
	<path style="fill:#FFFFFF;stroke:#000000;stroke-width:2;" d="M650.301,896.716c6.265-3.548,2.934-11.008,3.217-17.812
		C641.905,880.752,638.247,901.031,650.301,896.716C650.891,896.382,649.496,897.004,650.301,896.716z"/>
	<path style="fill:#FFFFFF;stroke:#000000;stroke-width:2;" d="M715.047,898.655c8.521,6.938-10.456,11.916-10.456,0.795
		c0-9.798,0-19.596,0-29.394c0-3.101,0-6.2,0-9.3c0-5.608,9.812-5.693,9.812-0.599C714.403,871.38,711.412,888.725,715.047,898.655z
		"/>
	<path style="fill:#FFFFFF;stroke:#000000;stroke-width:2;" d="M723.653,860.229c0.766-6.338,10.793-6.809,11.02-0.144
		C735.122,866.957,724.498,866.801,723.653,860.229z"/>
	<path style="fill:#FFFFFF;stroke:#000000;stroke-width:2;" d="M734.271,901.098c-0.731,6.466-9.415,5.168-9.893-0.683
		c-0.672-7.942,0.766-16.065-0.322-23.989c-1.249-9.088,10.054-9.092,10.054,0.683C734.109,885.105,734.271,893.1,734.271,901.098z"
		/>
	<path style="fill:#FFFFFF;stroke:#000000;stroke-width:2;" d="M741.83,885.942c5.926-21.927,39.713-18.847,33.942,5.53
		C770.53,913.45,735.416,909.542,741.83,885.942z"/>
	<path style="fill:#FFFFFF;stroke:#000000;stroke-width:2;" d="M751.482,887.451c-2.442,11.619,10.316,13.421,14.316,3.25
		C770.609,878.466,755.379,875.975,751.482,887.451C751.321,888.218,751.856,886.35,751.482,887.451z"/>
	<path style="fill:#FFFFFF;stroke:#000000;stroke-width:2;" d="M814.218,901.241c-0.617,4.587-7.699,6.48-9.411,1.508
		c-1.645-4.567-0.414-11.187-0.361-15.98c0.019-1.768,0.661-6.955-0.845-8.296c-4.147-0.965-11.261,2.688-11.261,7.542
		c-1.379,4.502,0.684,10.386-0.04,15.083c-1.406,8.985-9.692,2.03-9.692-3.95c0-7.565-0.08-15.131-0.08-22.696
		c0-4.865,6.779-5.109,9.089-1.939c4.226-2.452,9.571-3.504,14.357-2.299C817.858,873.214,814.218,892.121,814.218,901.241z"/>
	<path style="fill:#FFFFFF;stroke:#000000;stroke-width:2;" d="M819.285,907.418c9.378-8.396,11.163-22.305,7.981-34.144
		c-1.549-5.764-4.942-10.118-8.505-14.804c-5.007-6.572,6.326-7.345,10.295-2.029c9.312,12.472,12.068,27.777,6.717,42.645
		c-2.062,5.524-6.493,16.232-13.834,16.232C816.959,915.318,816.207,910.305,819.285,907.418z"/>
	<path style="fill:#FFFFFF;stroke:#000000;stroke-width:2;" d="M637.004,434.302c-13.303,0-26.529-8.527-32.613-20.266
		c-6.838-13.191-1.544-23.342,4.16-35.463c11.101-23.585,30.073-45.046,45.553-65.928c38.585-52.057,82.445-100.016,126.547-147.403
		c-38.075,1.322-76.158,1.698-114.229,3.011c-26.587,0.917-73.42-6.573-61.297-44.491c10.71-33.502,52.657-26.297,79.932-25.025
		c36.175,1.686,72.453,0.118,108.643-0.675c17.539-0.385,35.082-0.775,52.626-0.775c16.098,0,36.452-0.279,47.628,13.704
		c24.179,30.255-22.225,58.398-40.569,75.154c-56.906,51.98-106.992,114.728-152.292,176.888
		c44.377,1.278,90.217,6.706,134.466,1.731c18.639-2.095,42.214-12.819,60.01-3.941c18.243,9.137,25.132,34.416,11.326,50.467
		c-12.529,14.568-34.475,16.577-52.264,19.452c-24.215,3.913-48.383,3.812-72.822,2.941
		C733.639,431.966,684.845,425.689,637.004,434.302C631.107,434.302,655.418,430.987,637.004,434.302z"/>
</g>
</svg>
