<?xml version="1.0" encoding="utf-8"?>
<!-- Generator: Adobe Illustrator 16.0.0, SVG Export Plug-In . SVG Version: 6.00 Build 0)  -->
<!DOCTYPE svg PUBLIC "-//W3C//DTD SVG 1.1//EN" "http://www.w3.org/Graphics/SVG/1.1/DTD/svg11.dtd">
<svg version="1.1" id="Layer_1" xmlns="http://www.w3.org/2000/svg" xmlns:xlink="http://www.w3.org/1999/xlink" x="0px" y="0px"
	 width="100%" height="100%" viewBox="0 0 600 600" enable-background="new 0 0 600 600" xml:space="preserve">
<path fill="#FFFFFF" stroke="#000000" stroke-width="2" d="M404.3,304.141c-4.228-1.13-3.67,2.235-4.674,5.342
	c-1.86,5.761-3.882,10.688-8.393,14.977c-5.269,5.008-11.878,7.703-19.128,5.684c-1.495-0.414-2.08,1.813-0.634,2.303
	c0.238,0.08,0.475,0.141,0.711,0.211c0.298,2.646,1.945,3.822,4.908,3.851c2.349,0.022,5.371,0.472,7.647-0.153
	c2.27-0.625,4.035-1.881,6.069-3.006c8.417-4.649,15.628-13.385,17.492-22.906C409.085,306.436,408.12,305.161,404.3,304.141z"/>
<path fill="#FFFFFF" stroke="#000000" stroke-width="2" d="M416.812,290.723c-8.199-3.425-19.457-5.067-27.577-0.457
	c-0.43,0.243-0.729,0.85-0.544,1.336c0.205,0.54,0.501,1.003,0.841,1.426c1.224,2.951,4.039,5.604,5.975,8.063
	c1.813,2.302,3.708,4.542,5.54,6.83c0.799,0.997,1.922,2.362,3.175,2.812c3.644,1.306,8.253-2.131,11.482-3.491
	c3.403-1.437,7.143-3.328,10.02-5.679C432.046,296.394,420.406,292.224,416.812,290.723z"/>
<path fill="#FFFFFF" stroke="#000000" stroke-width="2" d="M365.089,369.823c-2.238,0.627-6.442,1.581-8.171,3.31
	c-0.664,0.664-0.553,2.26-0.347,3.717c-1.662,8.758-2.87,18.412-4.514,27.42c-2.092,11.487-4.112,22.936-5.806,34.491
	c-1.717,11.725-4.614,23.001-7.146,34.561c-0.521,2.375-0.608,4.766-1.048,7.143c-0.139,0.758-0.288,1.959,0.323,2.572
	c1.757,1.756,6.954,1.267,8.725-0.081c2.908-2.215,2.938-8.264,3.629-11.484c1.223-5.685,2.107-11.417,3.511-17.063
	c2.75-11.062,5.097-22.323,7.102-33.538c2.168-12.135,4.658-24.188,6.587-36.372c0.667-4.213,1.136-8.447,1.741-12.666
	C370.154,368.482,367.41,369.171,365.089,369.823z"/>
<path fill="#FFFFFF" stroke="#000000" stroke-width="2" d="M346.133,469.911c-2.166,0.229-4.317,0.563-6.471,0.905
	c-0.187,0.835-0.375,1.668-0.559,2.504c-0.521,2.375-0.607,4.766-1.047,7.143c-0.139,0.758-0.289,1.959,0.323,2.572
	c1.757,1.756,6.954,1.267,8.724-0.081c2.909-2.215,2.938-8.264,3.63-11.484c0.136-0.632,0.256-1.266,0.386-1.898
	C349.464,469.391,347.604,469.754,346.133,469.911z"/>
<path fill="#FFFFFF" stroke="#000000" stroke-width="2" d="M235.319,360.172c0.422,4.242,0.703,8.492,1.186,12.73
	c1.393,12.257,3.351,24.407,4.985,36.626c1.51,11.293,3.363,22.646,5.625,33.816c1.155,5.704,1.788,11.469,2.759,17.201
	c0.548,3.25,0.313,9.293,3.122,11.633c1.711,1.425,6.88,2.143,8.713,0.464c0.639-0.585,0.541-1.792,0.436-2.556
	c-0.333-2.394-0.316-4.787-0.733-7.182c-2.024-11.658-4.424-23.053-5.626-34.84c-1.184-11.62-2.701-23.146-4.289-34.712
	c-1.246-9.074-2.03-18.771-3.306-27.593c0.271-1.446,0.45-3.036-0.184-3.729c-1.651-1.804-5.809-2.94-8.018-3.666
	C237.699,357.614,234.988,356.809,235.319,360.172z"/>
<path fill="#FFFFFF" stroke="#000000" stroke-width="2" d="M249.574,458.633c0.1,0.639,0.193,1.275,0.301,1.913
	c0.548,3.25,0.313,9.293,3.122,11.633c1.711,1.425,6.88,2.143,8.713,0.464c0.639-0.585,0.541-1.792,0.436-2.556
	c-0.333-2.394-0.316-4.787-0.733-7.182c-0.146-0.846-0.299-1.686-0.449-2.527c-2.134-0.436-4.272-0.862-6.425-1.187
	C253.077,458.969,251.235,458.526,249.574,458.633z"/>
<path fill="#FFFFFF" stroke="#000000" stroke-width="2" d="M245.505,367.861c1.513,3.986,2.89,8.016,4.461,11.979
	c4.537,11.472,9.593,22.692,14.353,34.064c4.4,10.509,9.146,20.987,14.24,31.184c2.601,5.205,4.715,10.606,7.145,15.888
	c1.377,2.995,2.724,8.892,6.045,10.418c2.023,0.932,7.2,0.276,8.533-1.821c0.464-0.731,0.055-1.871-0.244-2.581
	c-0.946-2.225-1.553-4.539-2.58-6.743c-4.991-10.729-10.276-21.104-14.507-32.172c-4.17-10.91-8.637-21.644-13.182-32.397
	c-3.568-8.436-6.851-17.592-10.38-25.777c-0.115-1.467-0.357-3.047-1.15-3.551c-2.063-1.312-6.373-1.326-8.696-1.451
	C247.136,364.771,244.307,364.7,245.505,367.861z"/>
<path fill="#FFFFFF" stroke="#000000" stroke-width="2" d="M300.282,469.574c0.464-0.731,0.055-1.871-0.244-2.581
	c-0.946-2.225-1.553-4.539-2.58-6.743c-0.361-0.776-0.727-1.549-1.091-2.323c-2.173,0.138-4.349,0.28-6.513,0.528
	c-1.469,0.167-3.362,0.219-4.94,0.754c0.264,0.59,0.52,1.181,0.791,1.77c1.377,2.994,2.724,8.891,6.045,10.418
	C293.772,472.327,298.949,471.672,300.282,469.574z"/>
<path fill="#FFFFFF" stroke="#000000" stroke-width="2" d="M367.143,364.334c-1.861,1.391-5.439,3.794-6.431,6.029
	c-0.381,0.857,0.296,2.307,1.015,3.593c1.601,8.769,3.949,18.209,5.66,27.206c2.183,11.47,4.417,22.879,6.999,34.269
	c2.618,11.558,3.975,23.121,5.772,34.817c0.369,2.402,1.146,4.665,1.596,7.041c0.141,0.757,0.436,1.931,1.225,2.282
	c2.272,1.007,6.945-1.319,8.112-3.215c1.916-3.114-0.233-8.767-0.748-12.021c-0.907-5.743-2.144-11.41-2.868-17.183
	c-1.416-11.311-3.28-22.661-5.446-33.848c-2.346-12.102-4.361-24.242-6.945-36.305c-0.895-4.171-1.984-8.289-2.938-12.443
	C371.386,361.262,369.073,362.891,367.143,364.334z"/>
<path fill="#FFFFFF" stroke="#000000" stroke-width="2" d="M391.089,476.356c1.916-3.114-0.233-8.767-0.748-12.021
	c-0.101-0.639-0.217-1.274-0.324-1.911c-1.608,0.427-3.215,1.437-4.529,2.112c-1.938,0.996-3.826,2.082-5.712,3.174
	c0.125,0.847,0.25,1.691,0.381,2.538c0.369,2.402,1.146,4.665,1.596,7.041c0.14,0.757,0.436,1.931,1.225,2.282
	C385.249,480.579,389.921,478.252,391.089,476.356z"/>
<path fill="#FFFFFF" stroke="#000000" stroke-width="2" d="M362.984,315.723c-0.513-1.707-1.688-2.812-2.736-4.227
	c-1.312-1.771-1.393-3.419-1.996-5.405c-0.92-3.036-4.455-2.286-6.611-1.394c-2.229,0.922-2.537-5.22-5.941-4.432
	c-2.484,0.575-5.717,2.795-7.085-0.704c-0.511-1.301-0.947-2.47-1.937-3.488c-2.023-2.086-5.11-0.319-7,0.877
	c-3.995,2.527-4.982-1.141-5.509-3.792c-0.363-1.834-0.965-3.421-2.662-4.281c-3.047-1.541-6.953,7.652-9.177,1.822
	c-0.709-1.857-0.928-7.028-3.654-7.438c-0.995-0.149-1.975-0.245-2.802,0.496c-1.323,1.188-6.075,7.141-6.857,1.195
	c-0.409-3.104,1.896-8.552-1.648-10.628c-2.359-1.382-5.738,3.408-6.998,4.638c-3.612,3.524-4.565-0.917-4.689-2.572
	c-0.074-0.993,0.106-1.995,0.301-2.964c0.503-2.511,1.52-5.104,2.643-7.395c1.198-2.443,1.683-6.27-0.591-8.215
	c-2.088-1.788-5.564,0.37-7.658,1.024c-2.61,0.986-4.729-0.31-2.292-3.389c0.38-0.715,0.798-1.406,1.255-2.075
	c0.603-0.936,1.342-1.733,1.958-2.648c0.992-1.472,1.513-2.715,1.722-4.464c0.331-2.772-2.658-5.256-5.271-4.534
	c-5.813,1.606-2.758-4.118-1.424-6.271c1.136-1.832,2.326-3.43,3.138-5.439c1.094-2.712-0.73-4.798-3.284-5.104
	c-3.269-0.391-5.708-3.324-1.769-5.016c1.292-0.556,3.104-1.328,3.847-2.644c1.824-3.235-0.127-5.938-2.686-8.049
	c-2.449-2.021-0.619-2.822,1.229-3.907c1.531-0.897,2.276-1.846,2.717-3.574c0.276-1.077-0.377-2.485-1.065-3.271
	c-0.854-0.979-6.614-4.808-4.467-5.596c2.067-0.759,4.684-2.594,4.249-5.151c-0.241-1.424-0.751-2.619-1.99-3.484
	c-1.054-0.734-1.971-1.496-3.022-2.217c-2.669-1.829-0.76-2.671,1.142-3.87c2.035-1.283,4.419-4.531,3.093-7.057
	c-0.634-1.204-1.532-2.146-2.896-2.537c-1.585-0.455-4.157-0.473-3.457-3.466c0.338-1.447,1.692-2.883,2.358-4.216
	c1.33-2.669,0.384-5.237-2.097-6.639c-1.298-0.733-2.93-0.486-4.312-0.266c-0.793,0.127-1.931,0.717-2.644,1.039
	c-2.764,1.248-3.077-1.547-2.454-3.379c0.927-2.725,1.512-5.405-1.649-6.681c-0.926-0.374-2.725,0.148-3.509,0.609
	c-1.443,0.844-4.799,5.77-5.837,1.499c-0.466-1.918-1.345-5.702-4.249-5c-1.937,0.468-3.013,1.386-4.33,2.895
	c-0.713,0.818-1.096,1.522-1.539,2.507c-0.221,0.515-0.429,1.037-0.625,1.562c-0.415,2.936-3.468,3.667-3.331,0.195
	c-0.359-3.478-0.135-7.849-3.314-10.1c-3.071-2.174-7.142,4.268-8.078,6.256c-2.602,5.52-3.495,11.917-4.496,17.873
	c-1.065,6.344-3.354,12.867-3.588,19.288c-0.015,0.375,0.192,0.702,0.484,0.917c0.09,0.127,0.204,0.243,0.375,0.322
	c1.513,0.712,2.524,2.458,3.93,3.415c1.477,1.004,3.418,1.356,5.104,1.823c5.16,1.428,10.32,3.332,14.07,7.325
	c7.26,7.727,5.285,19.669,4.183,29.091c-1.111,9.497,1.772,19.509,4.144,28.612c2.5,9.603,5.62,18.853,10.685,27.416
	c4.728,7.992,9.74,14.956,17.149,20.667c7.191,5.541,17.595,8.752,26.499,9.795c4.647,0.546,9.275,0.713,13.951,0.822
	c5.097,0.121,10.147,0.83,15.262,0.867c9.546,0.069,18.887,2.141,28.242,3.631C362.354,317.359,363.275,316.693,362.984,315.723z"/>
<path fill="#FFFFFF" stroke="#000000" stroke-width="2" d="M385.054,345.452c-0.395-9.865-2.432-19.25-8.981-26.88
	c-7.496-8.733-17.454-10.188-28.292-11.667c-11.348-1.55-23.179-1.815-34.379-4.132c-5.21-1.08-10.462-1.615-15.604-3.084
	c-5.56-1.586-11.067-5.146-15.42-8.89c-9.223-7.933-13.935-21.671-16.151-33.326c-2.247-11.812-3.478-23.794-5.439-35.646
	c-0.583-3.521-1.304-7.057-2.165-10.525c-0.553-2.235-0.799-5.533-2.687-7.117c-0.571-0.48-1.612-0.537-1.987,0.256
	c-2.458,5.215-4.768,9.889-8.217,14.614c-4.058,5.555-9.104,10.487-14.712,14.474c-0.011-0.031-0.019-0.064-0.029-0.096
	c-0.375-1.095-2.026-0.659-1.743,0.481c2.743,11.041,3.762,22.686,3.98,34.058c0.233,12.115,0.345,24.156-0.365,36.258
	c-0.686,11.68-0.215,23.429-0.753,35.11c-0.512,11.105,0.066,22.254,4.166,32.679c8.011,20.371,29.118,27.421,49.188,29.442
	c22.785,2.295,45.729,0.86,67.234-7.521c9.651-3.76,19.038-10.303,24.808-18.963c2.708-4.067,3.67-8.67,4.922-13.315
	C383.827,356.465,385.271,350.896,385.054,345.452z"/>
<path fill="#FFFFFF" stroke="#000000" stroke-width="2" d="M283.619,189.819c-1.892-0.045-3.975,0.895-5.709,1.516
	c-2.621,0.938-5.668,1.782-8.443,1.979c-4.853,0.346-10.56,1.651-15.365,0.333c-0.693-0.416-1.819-0.115-1.808,0.938
	c-0.031,3.622-0.381,8.594,0.8,12.055c1.086,3.176,5.252,3.386,8.109,3.624c4.562,0.379,9.138-0.567,13.523-1.726
	c4.167-1.101,8.555-2.188,11.776-5.204C290.455,199.633,290.415,189.983,283.619,189.819z"/>
<path fill="#FFFFFF" stroke="#000000" stroke-width="2" d="M218.948,180.397c-4.293-2.53-7.332-7.534-10.465-11.256
	c-1.79-2.128-3.308-4.903-4.46-7.437c-0.762-1.677-1.539-3.826-2.89-5.153c-4.852-4.76-11.802,1.933-11.706,7.346
	c0.081,4.411,2.357,8.317,4.469,12.074c2.224,3.954,4.732,7.896,8.184,10.905c2.159,1.883,5.212,4.727,8.248,3.293
	c3.306-1.563,6.63-5.279,9.207-7.822C220.298,181.622,219.729,180.604,218.948,180.397z"/>
<path fill="#FFFFFF" stroke="#000000" stroke-width="2" d="M271.285,197.306c-1.927-0.153-4.281,0.671-6.137,1.086
	c-2.95,0.659-5.458,1.453-8.534,1.373c-0.413-0.011-0.667,0.231-0.771,0.534c-0.229,0.175-0.38,0.449-0.343,0.845
	c0.228,2.472,3.331,3.267,5.441,3.546c3.269,0.43,10.692,0.975,12.961-2.277C275.677,199.868,274.158,197.532,271.285,197.306z"/>
<path fill="#FFFFFF" stroke="#000000" stroke-width="2" d="M207.851,175.777c-0.997-1.622-2.044-3.883-3.496-5.161
	c-2.164-1.903-4.898-1.365-5.489,1.679c-0.751,3.893,4.81,8.84,7.395,10.886c1.67,1.321,4.403,2.993,6.335,1.434
	c0.311-0.25,0.401-0.548,0.367-0.834c0.145-0.286,0.142-0.637-0.154-0.924C210.608,180.705,209.432,178.352,207.851,175.777z"/>
<path fill="#FFFFFF" stroke="#000000" stroke-width="2" d="M262.046,198.18c-2.169-9.778-9.384-18.121-18.165-22.542
	c-1.585-0.799-3.149-1.812-4.767-2.491c-2.159-0.908-4.156-0.983-6.44-1.268c-5.927-0.739-11.041,0.824-16.541,2.839
	c-6.674,2.446-13.671,8.123-18.432,13.331c-5.775,6.322-10.108,15.117-13.98,22.684c-4.337,8.476-8.057,17.496-13.288,25.467
	c-4.598,7.006-10.082,16.635-18.535,19.455c-0.389,0.13-0.61,0.396-0.716,0.699c-0.195,0.154-0.348,0.361-0.403,0.607
	c-2.133,9.434,6.901,16.963,12.131,23.562c6.264,7.899,14.33,12.793,24.728,11.795c5.044-0.484,9.837-2.89,14.494-4.733
	c5.521-2.188,10.546-5.168,15.469-8.465c9.436-6.317,17.944-13.391,25.429-21.951c6.96-7.962,13.244-16.483,16.721-26.586
	C263.267,220.365,264.399,208.79,262.046,198.18z"/>
<path fill="#FFFFFF" stroke="#000000" stroke-width="2" d="M191.013,285.236c-0.507-8.383-5.151-15.305-10.247-21.597
	c-6.021-7.434-13.394-13.613-22.819-16.128c-0.225-0.06-0.433-0.021-0.609,0.075c-8.914-2.146-18.147-0.126-22.29,9.799
	c-6.505,15.585,8.769,30.016,21.118,36.856C166.948,300.213,192.155,304.13,191.013,285.236z"/>
<path fill="#FFFFFF" stroke="#000000" stroke-width="2" d="M151.289,258.32c-1.696-0.441-0.474,2.557-0.341,3.191
	c0.017,0.078-0.006,0.155-0.009,0.233c0.023,0.015,0.041,0.035,0.067,0.05c0.931,0.477,1.649-0.596,1.598-1.406
	C152.556,259.63,152.114,258.535,151.289,258.32z"/>
<path fill="#FFFFFF" stroke="#000000" stroke-width="2" d="M172.277,269.337c-1.696-0.441-0.474,2.557-0.342,3.192
	c0.017,0.079-0.006,0.154-0.01,0.233c0.025,0.014,0.042,0.035,0.067,0.048c0.932,0.478,1.649-0.594,1.598-1.405
	C173.543,270.648,173.102,269.552,172.277,269.337z"/>
<path fill="#FFFFFF" stroke="#000000" stroke-width="2" d="M150.48,255.721c-1.263,0.176-2.074,1.194-2.402,2.399
	c-1.157,1.928,0.302,5.215,2.222,5.995c2.638,1.072,4.97-1.425,4.85-3.952C155.037,257.774,153.037,255.365,150.48,255.721z"/>
<path fill="#FFFFFF" stroke="#000000" stroke-width="2" d="M171.468,266.739c-1.264,0.176-2.074,1.194-2.402,2.399
	c-1.158,1.927,0.303,5.215,2.222,5.994c2.638,1.072,4.97-1.425,4.85-3.952C176.024,268.792,174.024,266.383,171.468,266.739z"/>
<path fill="#FFFFFF" stroke="#000000" stroke-width="2" d="M174.502,279.357c-1.791-0.074-3.397,0.653-5.179,0.862
	c-2.533,0.297-4.707,0.014-7.127-0.658c-4.659-1.296-10.363-3.925-12.932-8.168c-0.584-0.964-2.168-0.587-2.149,0.582
	c0.019,1.12,0.254,2.336,0.641,3.569c0.647,6.415,7.37,11.575,13.293,13.041c3.624,0.897,7.198-0.412,10.187-2.395
	c1.697-1.126,4.4-3.398,4.541-5.559C175.823,279.918,175.162,279.384,174.502,279.357z"/>
<path fill="#FFFFFF" stroke="#000000" stroke-width="2" d="M248.541,268.03c4.346-2.091,8.251-5.006,12.589-7.129
	c1.377-0.674,3.381-1.735,5.198-2.92c-0.034-0.168-0.071-0.339-0.104-0.508c-0.609-3.208-1.142-6.43-1.638-9.658
	c-0.049,0.028-0.108,0.064-0.155,0.089c-3.799,2.085-7.585,4.351-11.26,6.659c-2.862,1.798-6.989,3.913-8.883,6.833
	c-0.881,1.36-3.446,5.327-1.368,6.957C244.717,269.762,246.565,268.98,248.541,268.03z"/>
<path fill="#FFFFFF" stroke="#000000" stroke-width="2" d="M247.669,284.423c2.115,0.78,5.027-0.816,6.728-1.863
	c3.862-2.378,7.894-4.479,11.751-6.923c1.241-0.786,2.94-1.758,4.354-2.942c-1.363-3.505-2.447-7.112-3.291-10.631
	c-2.109,1.502-4.086,3.27-6.23,4.664c-3.331,2.166-6.48,4.257-9.547,6.792C248.808,275.691,241.133,282.014,247.669,284.423z"/>
<path fill="#FFFFFF" stroke="#000000" stroke-width="2" d="M250.072,295.972c-2.117,2.662-7.414,8.598-4.648,12.125
	c1.604,2.045,5.443,0.041,6.84-1.123c4.301-3.582,8.254-7.982,12.029-12.105c3.725-4.066,7.574-8.054,11.164-12.247
	c-1.424-2.235-2.687-4.616-3.783-7.088c-0.648,0.613-1.3,1.226-2.001,1.792c-2.529,2.041-5.113,4.015-7.568,6.146
	C257.861,287.157,253.57,291.569,250.072,295.972z"/>
<path fill="#FFFFFF" stroke="#000000" stroke-width="2" d="M282.376,290.798c-1.629-1.4-3.107-2.989-4.466-4.707
	c-0.532,0.7-1.078,1.392-1.6,2.038c-2.134,2.639-3.72,5.691-5.75,8.418c-4.582,6.156-8.448,12.996-12.764,19.36
	c-2.159,3.182-18.233,31.422-6.178,30.571c1.696-0.119,2.929-1.89,3.857-3.111c2.201-2.895,4.256-6.555,5.797-9.84
	c3.697-7.881,8.049-15.56,12.58-22.992c3.635-5.965,7.432-11.769,10.915-17.808C283.942,292.095,283.137,291.452,282.376,290.798z"
	/>
<path fill="#FFFFFF" stroke="#000000" stroke-width="2" d="M297.796,299.688c-2.969-0.848-5.92-2.267-8.691-3.968
	c-0.656,1.021-1.302,2.026-1.846,3.007c-2.208,3.978-4.273,7.973-6.254,12.083c-3.568,7.399-6.925,14.782-9.921,22.441
	c-3.199,8.178-6.938,16.15-9.864,24.43c-1.48,4.189-2.395,11.592,3.809,11.803c6.411,0.219,9.63-10.42,11.559-14.719
	c1.801-4.015,3.536-8.059,5.31-12.086c1.84-4.18,3.044-8.58,4.932-12.742c3.479-7.664,7.36-15.152,10.427-23.004
	c0.828-2.119,2.064-4.371,2.951-6.656C299.402,300.091,298.597,299.917,297.796,299.688z"/>
<path fill="#FFFFFF" stroke="#000000" stroke-width="2" d="M311.482,319.143c0.771-2.316,1.603-4.621,2.24-6.979
	c0.656-2.43,0.813-4.99,1.808-7.327c0.233-0.55,0.391-1.071,0.507-1.578c-0.881-0.157-1.764-0.306-2.638-0.485
	c-2.83-0.586-5.668-1.021-8.497-1.523c-2.822,5.895-4.839,12.062-7.196,18.227c-3.431,8.969-6.421,17.959-9.138,27.191
	c-2.457,8.346-6.619,16.42-6.925,25.258c-0.132,3.803,2.015,10.354,7.155,7.859c5.985-2.907,7.772-12.612,9.839-18.271
	c3.352-9.186,5.188-18.879,8.269-28.16C308.474,328.63,309.91,323.863,311.482,319.143z"/>
<path fill="#FFFFFF" stroke="#000000" stroke-width="2" d="M310.936,375.109c0.267,2.427,1.275,4.379,3.312,5.719
	c1.953,1.286,4.116-0.783,5.388-2.024c2.262-2.208,3.105-6.383,3.993-9.27c1.385-4.491,2.126-8.998,2.882-13.621
	c1.453-8.884,3.156-17.707,4.972-26.521c0.829-4.035,1.812-8.024,2.533-12.082c0.69-3.887,0.698-7.856,1.168-11.756
	c-4.076-0.371-8.161-0.746-12.208-1.251c-0.533,1.966-1.192,3.944-1.562,5.884c-0.875,4.612-1.749,9.186-3.008,13.715
	c-2.445,8.798-3.499,17.789-4.974,26.785C312.145,358.551,310.055,367.109,310.936,375.109z"/>
<path fill="#FFFFFF" stroke="#000000" stroke-width="2" d="M347.779,306.905c-1.706-0.233-3.426-0.433-5.15-0.619
	c-2.394,15.317-5.137,30.585-6.021,46.094c-0.243,4.276-0.273,8.572-0.425,12.854c-0.11,3.195,0.209,5.949,2.373,8.391
	c4.408,4.973,7.856-0.831,9.243-4.781c2.791-7.958,3.164-16.611,4.863-24.807c1.588-7.664,1.965-15.771,2.352-23.578
	c0.199-4.042,0.542-7.988,0.405-12.039c-0.002-0.104,0.003-0.23,0.006-0.347C352.943,307.617,350.388,307.26,347.779,306.905z"/>
<path fill="#FFFFFF" stroke="#000000" stroke-width="2" d="M360.395,335.657c0.146,3.381,3.809,21.096,10.031,14.202
	c2.454-2.719,2.019-8.969,1.877-12.354c-0.255-6.156-0.435-12.345-0.885-18.492c-0.115-1.568-0.189-3.255-0.29-4.967
	c-3.044-2.177-6.361-3.618-9.885-4.636C360.545,318.117,360.031,327.031,360.395,335.657z"/>
<path d="M238.27,208.699c-0.975-0.263-2.063-0.088-2.971,0.38c-0.425,0.035-0.858,0.182-1.234,0.419
	c-1.307,0.83-1.717,2.572-1.444,4.015c0.331,1.739,1.39,2.683,3.021,3.22c0.751,0.247,1.6,0.317,2.377,0.187
	c0.937-0.156,1.415-0.649,2.151-1.158C242.892,213.877,240.979,209.434,238.27,208.699z"/>
<path d="M192.361,196.106c-0.975-0.264-2.063-0.088-2.972,0.379c-0.426,0.034-0.857,0.183-1.234,0.421
	c-1.307,0.829-1.717,2.571-1.443,4.015c0.331,1.738,1.389,2.682,3.021,3.219c0.751,0.247,1.6,0.317,2.378,0.187
	c0.936-0.157,1.414-0.649,2.15-1.159C196.983,201.285,195.069,196.841,192.361,196.106z"/>
<path fill="#FFFFFF" stroke="#000000" stroke-width="2" d="M245.345,238.234c-0.348-0.64-0.791-1.189-1.268-1.705
	c-0.125-0.144-0.253-0.282-0.386-0.414c-0.066-0.065-0.131-0.134-0.2-0.199c-0.656-0.621-1.393-1.153-2.252-1.799
	c-1.665-1.253-4.812-1.937-6.841-1.718c-2.64,0.286-3.17,0.468-5.616,1.558c-1.07,0.475-2.022,1.341-2.833,2.172
	c-2.101,2.154-3.708,5.437-3.5,8.503c0.283,4.153,2.214,8.022,5.978,10.074c2.98,1.624,5.988,1.834,9.265,1.173
	c3.199-0.646,5.38-2.945,7.174-5.45c1.336-1.868,2.022-4.417,2.001-6.694C246.849,241.695,246.305,240.012,245.345,238.234z"/>
<path fill="#FFFFFF" stroke="#000000" stroke-width="2" d="M173.946,235.418c3.199-0.646,5.38-2.944,7.173-5.45
	c1.336-1.868,2.021-4.417,2.001-6.693c-0.019-2.042-0.563-3.725-1.523-5.501c-0.225-0.416-0.498-0.784-0.787-1.139
	c-3.135,6.502-6.207,13.098-10.101,19.125C171.765,235.755,172.839,235.642,173.946,235.418z"/>
<path fill="#FFFFFF" stroke="#000000" stroke-width="2" d="M147.123,120.287c-1.061,0-2.088-0.283-3.083-0.845
	c-0.994-0.564-1.79-1.277-2.387-2.138c-0.597-0.861-0.944-1.823-1.044-2.884c-0.1-1.06,0.214-2.054,0.945-2.983
	c0.199-0.729,0.597-1.574,1.193-2.536c0.597-0.96,1.226-1.922,1.889-2.884c0.662-0.96,1.326-1.855,1.989-2.685
	c0.662-0.828,1.126-1.475,1.392-1.939c3.779-5.303,7.772-10.358,11.983-15.166c4.209-4.806,8.536-9.597,12.978-14.37
	c-1.924,0.067-3.813,0.116-5.668,0.149c-1.857,0.034-3.747,0.05-5.668,0.05c-2.652,0-5.437,0.1-8.354,0.298
	c-2.918,0.199-5.668-0.1-8.254-0.895c-1.459-0.463-2.503-1.226-3.132-2.287c-0.631-1.06-0.895-2.188-0.796-3.381
	c0.1-1.193,0.53-2.32,1.293-3.381c0.761-1.06,1.806-1.823,3.132-2.287c0.597-0.199,1.557-0.314,2.884-0.348
	c1.325-0.033,2.701-0.033,4.127,0c1.425,0.034,2.75,0.084,3.978,0.149c1.226,0.066,2.071,0.099,2.536,0.099
	c2.983,0,5.982-0.033,9-0.099c3.016-0.065,6.049-0.132,9.1-0.199c0.995,0,1.989-0.016,2.983-0.05
	c0.995-0.032,2.021-0.049,3.083-0.049c0.995,0,2.104,0,3.332,0c1.226,0,2.387,0.149,3.48,0.447c1.093,0.298,2.054,0.812,2.884,1.542
	c0.828,0.729,1.308,1.79,1.442,3.182c0.132,0.995,0.065,1.857-0.199,2.586c-0.266,0.73-0.646,1.392-1.144,1.989
	c-0.497,0.597-1.078,1.161-1.74,1.69c-0.664,0.532-1.327,1.094-1.989,1.691c-1.526,1.327-3.018,2.669-4.475,4.027
	c-1.459,1.36-2.852,2.769-4.177,4.227c-3.846,4.177-7.625,8.47-11.337,12.878c-3.713,4.41-7.26,8.935-10.641,13.575
	c2.32,0.067,4.657,0.149,7.011,0.249c2.353,0.1,4.69,0.184,7.011,0.249c2.121,0.067,4.276,0.084,6.464,0.05
	c2.188-0.033,4.342-0.249,6.464-0.646c1.325-0.199,2.668-0.463,4.027-0.795c1.358-0.331,2.701-0.165,4.028,0.497
	c0.928,0.465,1.673,1.094,2.238,1.89c0.562,0.796,0.91,1.658,1.044,2.586c0.132,0.929,0.065,1.839-0.199,2.734
	c-0.266,0.895-0.796,1.708-1.591,2.437c-1.128,0.995-2.404,1.641-3.829,1.939c-1.427,0.298-2.802,0.58-4.127,0.845
	c-3.316,0.597-6.647,0.861-9.995,0.795c-3.349-0.066-6.697-0.199-10.044-0.397c-3.349-0.199-6.697-0.333-10.044-0.398
	C153.769,119.425,150.438,119.69,147.123,120.287z"/>
<path fill="#FFFFFF" stroke="#000000" stroke-width="2" d="M240.702,58.63c0.264-2.452,1.109-4.259,2.536-5.42
	c1.425-1.159,2.934-1.723,4.525-1.69c1.591,0.034,3.065,0.646,4.425,1.839c1.358,1.193,2.071,2.884,2.138,5.072
	c0.132,2.254-0.448,3.995-1.741,5.221c-1.292,1.228-2.769,1.924-4.425,2.088c-1.658,0.167-3.216-0.281-4.674-1.342
	c-1.459-1.06-2.354-2.75-2.685-5.072L240.702,58.63z"/>
<path fill="#FFFFFF" stroke="#000000" stroke-width="2" d="M253.829,115.215c-0.133,1.327-0.597,2.503-1.392,3.531
	c-0.795,1.027-1.708,1.773-2.735,2.237c-1.029,0.463-2.138,0.562-3.332,0.298c-1.193-0.266-2.254-0.995-3.182-2.188
	c-0.532-0.663-0.912-1.408-1.144-2.237c-0.233-0.828-0.382-1.691-0.448-2.586c-0.067-0.895-0.084-1.79-0.05-2.685
	c0.033-0.895,0.05-1.706,0.05-2.436c-0.067-3.911-0.084-7.79-0.05-11.636c0.033-3.844,0.016-7.723-0.05-11.635
	c0-1.591-0.099-3.198-0.298-4.823c-0.199-1.624-0.099-3.232,0.298-4.823c0.331-1.193,0.911-2.22,1.741-3.083
	c0.828-0.861,1.756-1.458,2.784-1.791c1.027-0.331,2.088-0.363,3.183-0.099c1.094,0.266,2.039,0.962,2.834,2.088
	c1.06,1.327,1.591,2.635,1.591,3.928c0,1.292,0,2.868,0,4.724c0,2.255,0,4.509,0,6.762c0,2.255,0.033,4.476,0.1,6.663
	c0.065,3.183,0.099,6.365,0.099,9.547c0,3.183,0,6.365,0,9.547L253.829,115.215L253.829,115.215z"/>
<path fill="#FFFFFF" stroke="#000000" stroke-width="2" d="M262.481,111.337c-0.398-1.126-0.564-2.237-0.497-3.332
	c0.065-1.094,0.348-2.088,0.845-2.983s1.209-1.591,2.138-2.088c0.928-0.497,2.054-0.679,3.381-0.547
	c0.729,0.067,1.393,0.266,1.989,0.597c0.597,0.333,1.144,0.73,1.641,1.193c0.498,0.465,0.995,0.962,1.492,1.492
	c0.498,0.531,1.01,0.995,1.542,1.392c1.126,0.863,2.32,1.492,3.58,1.89c1.259,0.398,2.586,0.696,3.978,0.895
	c0.928,0,1.673-0.231,2.238-0.696c0.562-0.463,0.944-1.027,1.144-1.691c0.199-0.662,0.249-1.375,0.149-2.138
	c-0.099-0.761-0.348-1.375-0.746-1.84c-1.128-1.126-2.503-1.855-4.127-2.188c-1.625-0.331-3.133-0.729-4.525-1.193
	c-1.989-0.662-3.945-1.507-5.868-2.536c-1.924-1.027-3.48-2.437-4.674-4.227c-1.26-1.855-2.006-3.829-2.238-5.917
	c-0.233-2.088-0.067-4.127,0.498-6.116c0.562-1.989,1.507-3.812,2.834-5.469c1.326-1.657,2.917-3.016,4.773-4.078
	c1.393-0.795,2.917-1.308,4.575-1.542c1.656-0.231,3.332-0.281,5.022-0.149c1.691,0.133,3.364,0.447,5.022,0.945
	c1.657,0.497,3.183,1.044,4.575,1.641c1.591,0.73,2.785,1.757,3.58,3.083c0.796,1.327,1.176,2.669,1.144,4.027
	c-0.034,1.36-0.497,2.536-1.392,3.531c-0.895,0.994-2.205,1.492-3.928,1.492c-1.061,0-2.023-0.182-2.884-0.547
	c-0.862-0.364-1.757-0.712-2.685-1.044c-1.193-0.463-2.486-0.778-3.878-0.945c-1.393-0.165-2.521-0.082-3.381,0.249
	c-0.266,0.067-0.564,0.283-0.895,0.646c-0.333,0.365-0.581,0.813-0.746,1.343c-0.166,0.531-0.199,1.061-0.099,1.591
	c0.099,0.532,0.447,0.962,1.044,1.293c1.591,0.862,3.282,1.526,5.072,1.989c1.79,0.465,3.546,0.995,5.271,1.591
	c1.723,0.597,3.332,1.36,4.823,2.288c1.492,0.929,2.735,2.254,3.729,3.978c1.458,2.521,2.204,5.156,2.238,7.906
	c0.033,2.752-0.514,5.32-1.641,7.707c-1.128,2.387-2.784,4.425-4.972,6.116c-2.188,1.69-4.741,2.701-7.658,3.033
	c-2.056,0.199-4.077,0.082-6.066-0.348c-1.989-0.432-3.913-1.128-5.768-2.088c-1.857-0.962-3.58-2.104-5.171-3.431
	c-1.591-1.325-2.983-2.718-4.177-4.177L262.481,111.337z"/>
<path fill="#FFFFFF" stroke="#000000" stroke-width="2" d="M360.833,119.193c-0.862,1.06-1.856,1.79-2.983,2.188
	c-1.128,0.397-2.287,0.397-3.479,0c-1.193-0.398-2.188-1.293-2.983-2.685c-0.333-0.532-0.597-1.094-0.795-1.691
	c-0.199-0.597-0.298-1.193-0.298-1.79V89.061c-1.26,0-2.404-0.348-3.431-1.044c-1.029-0.696-1.79-1.557-2.287-2.585
	c-0.498-1.027-0.682-2.121-0.547-3.282c0.132-1.16,0.662-2.238,1.591-3.232c0.662-0.729,1.375-1.209,2.138-1.442
	c0.761-0.231,1.574-0.381,2.438-0.447c-0.067-2.054-0.117-4.078-0.149-6.066c-0.034-1.989,0.115-3.978,0.448-5.967
	c0.397-3.116,1.325-5.768,2.785-7.956c1.458-2.188,3.265-3.878,5.42-5.072c2.152-1.193,4.557-1.89,7.21-2.088
	c2.651-0.199,5.401,0.199,8.254,1.193c1.193,0.398,2.337,0.895,3.431,1.492s2.071,1.36,2.935,2.287
	c0.597,0.664,1.026,1.442,1.292,2.337c0.264,0.895,0.313,1.79,0.148,2.685c-0.167,0.895-0.497,1.725-0.995,2.486
	c-0.497,0.763-1.21,1.343-2.138,1.741c-1.26,0.531-2.503,0.664-3.729,0.397c-1.229-0.264-2.438-0.696-3.631-1.292
	c-0.729-0.264-1.426-0.53-2.088-0.796c-0.664-0.264-1.359-0.463-2.088-0.597c-0.729-0.132-1.392-0.033-1.989,0.298
	c-0.597,0.333-1.11,0.78-1.54,1.343c-0.433,0.564-0.764,1.193-0.995,1.89c-0.233,0.696-0.349,1.376-0.349,2.039
	c-0.066,1.526-0.084,3.067-0.05,4.624c0.033,1.559,0.05,3.1,0.05,4.625c0.995-0.065,2.055-0.132,3.184-0.199
	c1.126-0.065,2.236-0.1,3.331-0.1c1.094,0,2.104,0.034,3.032,0.1s1.657,0.199,2.188,0.397c1.06,0.398,1.922,1.012,2.585,1.84
	c0.662,0.83,1.094,1.725,1.293,2.685c0.199,0.962,0.115,1.939-0.249,2.934c-0.365,0.995-1.012,1.857-1.939,2.586
	c-0.861,0.664-1.856,1.128-2.982,1.392c-1.128,0.266-2.321,0.448-3.58,0.547c-1.26,0.1-2.486,0.134-3.679,0.1
	c-1.194-0.033-2.256-0.05-3.184-0.05v26.553C362.225,116.874,361.693,118.132,360.833,119.193z"/>
<path fill="#FFFFFF" stroke="#000000" stroke-width="2" d="M379.33,94.232c0.463-1.922,1.109-3.812,1.938-5.668
	c0.828-1.855,1.841-3.63,3.033-5.32c1.193-1.691,2.536-3.232,4.028-4.625c1.492-1.392,3.098-2.519,4.823-3.381
	c3.048-1.591,6.115-2.402,9.198-2.438c3.083-0.033,5.95,0.581,8.603,1.84c2.651,1.26,4.906,3.132,6.763,5.619
	c1.855,2.486,3.083,5.454,3.679,8.9c0.331,2.255,0.514,4.393,0.548,6.415c0.032,2.023-0.185,4.127-0.646,6.315
	c-0.664,3.117-2.006,6.215-4.028,9.298s-4.441,5.668-7.26,7.757c-2.817,2.088-5.901,3.463-9.249,4.127
	c-3.349,0.662-6.712,0.132-10.094-1.591c-1.526-0.73-2.901-1.575-4.127-2.536c-1.229-0.96-2.337-2.104-3.332-3.431
	c-1.128-1.458-2.006-2.983-2.635-4.574c-0.631-1.591-1.145-3.248-1.542-4.973c-0.466-1.855-0.632-3.729-0.498-5.619
	c0.132-1.89,0.363-3.729,0.695-5.52L379.33,94.232z"/>
<path fill="#FFFFFF" stroke="#000000" stroke-width="2" d="M391.264,96.32c-0.198,1.062-0.364,2.105-0.497,3.133
	c-0.134,1.029-0.134,2.073,0,3.132c0.199,1.526,0.612,2.918,1.243,4.177c0.629,1.26,1.458,2.255,2.486,2.984
	c1.027,0.73,2.204,1.111,3.53,1.144c1.325,0.034,2.75-0.381,4.275-1.243c1.922-1.126,3.58-2.867,4.974-5.221
	c1.392-2.353,2.253-4.806,2.585-7.359c0.331-2.552,0.064-4.973-0.796-7.26c-0.862-2.287-2.553-3.928-5.071-4.923
	c-1.658,0-3.184,0.315-4.575,0.945c-1.393,0.631-2.604,1.459-3.63,2.486c-1.029,1.029-1.924,2.237-2.686,3.63
	C392.34,93.337,391.727,94.796,391.264,96.32z"/>
<path fill="#FFFFFF" stroke="#000000" stroke-width="2" d="M431.041,87.32c0.064-0.43,0.033-1.209-0.1-2.337
	c-1.062-0.597-1.891-1.358-2.486-2.287c-0.597-0.928-0.944-1.922-1.044-2.983c-0.101-1.06,0.1-2.071,0.597-3.033
	c0.497-0.96,1.309-1.773,2.438-2.437c1.523-0.861,3.197-1.027,5.021-0.497c1.823,0.531,3.397,1.327,4.725,2.387
	c1.656-1.259,3.381-2.32,5.171-3.183c1.79-0.861,3.612-1.442,5.47-1.74c1.855-0.298,3.745-0.249,5.668,0.149
	c1.922,0.398,3.812,1.228,5.668,2.486c0.928,0.597,1.79,1.343,2.585,2.238c0.796,0.895,1.293,1.906,1.492,3.033
	c0.331,1.658,0.199,3.1-0.397,4.326c-0.597,1.228-1.427,2.123-2.485,2.685c-1.062,0.564-2.254,0.73-3.58,0.498
	c-1.327-0.232-2.585-0.945-3.779-2.138c-0.397-0.264-0.681-0.48-0.846-0.646c-0.166-0.165-0.515-0.381-1.044-0.646
	c-1.062-0.264-2.105-0.199-3.133,0.199c-1.028,0.398-2.023,0.945-2.983,1.641c-0.962,0.696-1.857,1.459-2.685,2.287
	c-0.83,0.83-1.576,1.576-2.237,2.238v25.359c0,0.995-0.199,1.957-0.597,2.884c-0.598,1.524-1.543,2.585-2.835,3.182
	c-1.292,0.597-2.585,0.761-3.878,0.497c-1.293-0.266-2.421-0.929-3.381-1.989c-0.962-1.061-1.441-2.419-1.441-4.077V87.569
	C430.941,87.835,430.974,87.752,431.041,87.32z"/>
<path fill="#FFFFFF" stroke="#000000" stroke-width="2" d="M186.006,552.287c-1.061,0-2.088-0.283-3.083-0.845
	c-0.994-0.564-1.79-1.277-2.387-2.139c-0.597-0.86-0.944-1.822-1.044-2.884c-0.1-1.06,0.214-2.054,0.945-2.982
	c0.199-0.729,0.597-1.574,1.193-2.536c0.597-0.96,1.226-1.922,1.889-2.884c0.662-0.961,1.326-1.855,1.989-2.686
	c0.662-0.828,1.126-1.475,1.392-1.939c3.779-5.303,7.772-10.357,11.983-15.166c4.209-4.806,8.536-9.597,12.978-14.369
	c-1.924,0.066-3.813,0.115-5.668,0.148c-1.857,0.034-3.747,0.05-5.668,0.05c-2.652,0-5.437,0.101-8.354,0.299
	c-2.918,0.198-5.668-0.101-8.254-0.896c-1.459-0.463-2.503-1.226-3.132-2.287c-0.631-1.06-0.895-2.188-0.796-3.381
	c0.1-1.193,0.53-2.32,1.293-3.381c0.761-1.061,1.806-1.823,3.132-2.287c0.597-0.199,1.557-0.314,2.884-0.348
	c1.325-0.033,2.701-0.033,4.127,0c1.425,0.033,2.75,0.084,3.978,0.148c1.226,0.066,2.071,0.1,2.536,0.1c2.983,0,5.982-0.033,9-0.1
	c3.016-0.064,6.049-0.132,9.1-0.199c0.995,0,1.989-0.016,2.983-0.05c0.995-0.032,2.021-0.049,3.083-0.049c0.995,0,2.104,0,3.332,0
	c1.226,0,2.387,0.149,3.48,0.447s2.054,0.812,2.884,1.542c0.828,0.729,1.308,1.79,1.442,3.182c0.132,0.995,0.065,1.857-0.199,2.586
	c-0.266,0.73-0.646,1.393-1.144,1.989c-0.497,0.597-1.078,1.161-1.74,1.69c-0.664,0.531-1.327,1.094-1.989,1.69
	c-1.526,1.327-3.018,2.669-4.475,4.027c-1.459,1.359-2.852,2.769-4.177,4.227c-3.846,4.177-7.625,8.47-11.337,12.878
	c-3.713,4.41-7.26,8.936-10.641,13.575c2.32,0.067,4.657,0.149,7.011,0.249c2.353,0.1,4.69,0.185,7.011,0.249
	c2.121,0.067,4.276,0.084,6.464,0.05c2.188-0.033,4.342-0.249,6.464-0.646c1.325-0.199,2.668-0.463,4.027-0.795
	c1.358-0.331,2.701-0.165,4.028,0.497c0.928,0.465,1.673,1.094,2.238,1.89c0.562,0.796,0.91,1.658,1.044,2.586
	c0.132,0.929,0.065,1.839-0.199,2.734c-0.266,0.895-0.796,1.708-1.591,2.437c-1.128,0.995-2.404,1.642-3.829,1.939
	c-1.427,0.298-2.802,0.58-4.127,0.845c-3.316,0.597-6.647,0.861-9.995,0.795c-3.349-0.065-6.697-0.199-10.044-0.396
	c-3.349-0.199-6.697-0.333-10.044-0.398C192.652,551.425,189.32,551.69,186.006,552.287z"/>
<path fill="#FFFFFF" stroke="#000000" stroke-width="2" d="M279.286,536.674c1.591-0.396,2.999-0.413,4.227-0.049
	c1.226,0.365,2.171,0.979,2.834,1.839c0.662,0.863,0.96,1.924,0.895,3.183c-0.067,1.261-0.631,2.586-1.69,3.979
	c-0.863,1.128-2.056,2.088-3.581,2.884c-1.526,0.795-2.951,1.426-4.276,1.891c-3.25,1.192-6.332,2.021-9.249,2.485
	c-2.918,0.463-5.653,0.463-8.205,0c-2.553-0.464-4.94-1.426-7.16-2.884c-2.222-1.458-4.293-3.513-6.216-6.166
	c-1.327-1.79-2.304-3.829-2.934-6.116c-0.631-2.287-0.979-4.625-1.044-7.011c-0.067-2.387,0.132-4.739,0.597-7.061
	c0.463-2.32,1.126-4.408,1.989-6.266c1.126-2.319,2.917-4.44,5.37-6.365c2.452-1.922,5.171-3.445,8.155-4.574
	c2.983-1.126,6.032-1.773,9.149-1.939c3.115-0.165,5.867,0.315,8.254,1.442c1.989,0.929,3.695,2.271,5.122,4.026
	c1.425,1.759,2.402,3.664,2.934,5.719c0.53,2.056,0.58,4.127,0.149,6.216c-0.432,2.088-1.509,3.995-3.232,5.718
	c-1.658,1.658-3.48,3-5.469,4.027c-1.989,1.028-4.045,1.924-6.166,2.685c-2.123,0.763-4.293,1.41-6.514,1.939
	c-2.222,0.53-4.36,1.128-6.415,1.79c1.393,1.591,2.983,2.603,4.773,3.032c1.79,0.433,3.663,0.515,5.619,0.249
	c1.955-0.264,3.928-0.811,5.917-1.641c1.989-0.828,3.844-1.74,5.569-2.735L279.286,536.674z"/>
<path fill="#FFFFFF" stroke="#000000" stroke-width="2" d="M259.198,519.569c-1.526,0.862-2.652,1.938-3.381,3.231
	c-0.73,1.292-1.26,3.101-1.591,5.42c1.723-0.529,3.663-1.094,5.818-1.69c2.153-0.598,4.192-1.227,6.116-1.89
	c1.922-0.662,3.546-1.393,4.873-2.188c1.325-0.796,1.989-1.657,1.989-2.586c0-0.53-0.084-1.044-0.249-1.541
	c-0.166-0.498-0.514-0.846-1.044-1.044c-1.857-0.662-3.779-0.795-5.768-0.398c-1.989,0.398-3.647,0.962-4.973,1.691L259.198,519.569
	z"/>
<path fill="#FFFFFF" stroke="#000000" stroke-width="2" d="M313.297,552.585c-1.924,0.065-3.764-0.065-5.52-0.396
	c-1.758-0.333-3.498-0.896-5.221-1.691c-0.863,0.463-1.709,0.696-2.537,0.696c-0.83,0-1.591-0.135-2.287-0.398
	c-0.696-0.266-1.293-0.581-1.79-0.945c-0.498-0.362-0.846-0.646-1.044-0.845c-0.73-1.06-1.161-2.253-1.293-3.58
	c-0.133-1.325,0.298-2.585,1.293-3.778V490.53c0-1.524,0.53-2.8,1.591-3.829c1.06-1.027,2.287-1.673,3.68-1.939
	c1.393-0.264,2.734-0.031,4.027,0.696c1.293,0.73,2.171,2.056,2.635,3.978c0.264,1.193,0.48,2.371,0.646,3.53
	c0.165,1.161,0.265,2.503,0.299,4.028c0.032,1.525,0.032,3.282,0,5.271c-0.034,1.989-0.116,4.442-0.249,7.359
	c0.597-0.331,1.209-0.646,1.84-0.945c0.629-0.298,1.275-0.611,1.938-0.944c1.855-0.861,3.845-1.393,5.968-1.592
	c2.121-0.198,4.191-0.082,6.215,0.349c2.021,0.432,3.911,1.228,5.668,2.387c1.756,1.161,3.197,2.669,4.326,4.525
	c1.591,2.651,2.668,5.752,3.231,9.298c0.562,3.547,0.562,7.061,0,10.542c-0.563,3.479-1.725,6.712-3.48,9.696
	c-1.758,2.982-4.228,5.204-7.409,6.662c-1.989,0.929-4.028,1.642-6.116,2.139C317.623,552.238,315.485,552.519,313.297,552.585z"/>
<path fill="#FFFFFF" stroke="#000000" stroke-width="2" d="M307.032,527.127v11.934c0.132,0.135,0.264,0.233,0.396,0.299
	c0.132,0.066,0.265,0.167,0.398,0.298c5.967,1.989,11.138,0.631,15.514-4.077c0.995-2.651,1.476-5.154,1.442-7.508
	c-0.035-2.354-0.482-4.889-1.343-7.608c-0.333-0.795-0.88-1.308-1.642-1.541c-0.763-0.231-1.441-0.513-2.039-0.846
	c-1.061-0.199-2.205,0-3.431,0.597c-1.229,0.597-2.404,1.343-3.531,2.238c-1.128,0.895-2.155,1.874-3.083,2.934
	c-0.929,1.062-1.658,1.957-2.188,2.686L307.032,527.127z"/>
<path fill="#FFFFFF" stroke="#000000" stroke-width="2" d="M347.904,519.32c0.064-0.431,0.033-1.209-0.101-2.337
	c-1.061-0.598-1.89-1.358-2.485-2.287c-0.598-0.929-0.944-1.922-1.044-2.983c-0.101-1.06,0.1-2.071,0.597-3.033
	c0.497-0.96,1.308-1.772,2.437-2.437c1.524-0.861,3.198-1.027,5.022-0.497c1.823,0.531,3.396,1.327,4.724,2.387
	c1.657-1.259,3.381-2.319,5.171-3.183c1.79-0.861,3.613-1.442,5.471-1.74c1.854-0.298,3.744-0.249,5.668,0.149
	c1.922,0.397,3.812,1.228,5.668,2.485c0.928,0.598,1.79,1.343,2.585,2.238c0.796,0.895,1.293,1.906,1.492,3.033
	c0.331,1.658,0.198,3.1-0.397,4.326c-0.597,1.228-1.427,2.123-2.486,2.685c-1.061,0.564-2.254,0.73-3.58,0.498
	s-2.585-0.945-3.778-2.138c-0.398-0.265-0.682-0.48-0.847-0.646c-0.166-0.165-0.514-0.381-1.044-0.646
	c-1.062-0.265-2.104-0.199-3.133,0.198c-1.028,0.398-2.022,0.945-2.982,1.642c-0.962,0.695-1.857,1.459-2.686,2.287
	c-0.83,0.83-1.576,1.576-2.237,2.237v25.359c0,0.995-0.198,1.957-0.597,2.884c-0.597,1.524-1.542,2.585-2.834,3.183
	c-1.292,0.597-2.585,0.761-3.878,0.497c-1.293-0.267-2.421-0.93-3.381-1.989c-0.962-1.062-1.442-2.419-1.442-4.077V519.57
	C347.804,519.835,347.837,519.752,347.904,519.32z"/>
<path fill="#FFFFFF" stroke="#000000" stroke-width="2" d="M423.783,545.625c0.529,1.923,0.43,3.515-0.298,4.773
	c-0.73,1.258-1.74,2.104-3.033,2.535s-2.702,0.382-4.228-0.148c-1.525-0.532-2.851-1.591-3.978-3.184
	c-1.857,1.394-3.664,2.37-5.42,2.935c-1.757,0.562-3.763,0.878-6.018,0.944c-3.381,0.132-6.397-0.249-9.049-1.145
	c-2.652-0.895-4.89-2.237-6.713-4.027c-1.824-1.789-3.167-4.027-4.028-6.713c-0.861-2.685-1.16-5.783-0.895-9.298
	c0.132-1.458,0.381-2.884,0.746-4.275c0.364-1.393,0.778-2.75,1.243-4.077c0.529-1.458,1.274-3.017,2.236-4.674
	c0.96-1.656,1.939-3.083,2.935-4.276c3.58-4.376,8.055-7.524,13.425-9.448c0.928-0.331,2.188-0.629,3.779-0.895
	c1.591-0.265,3.197-0.381,4.822-0.349c1.624,0.034,3.184,0.249,4.675,0.646c1.49,0.396,2.601,1.094,3.331,2.088
	c0.597,0.796,1.026,1.492,1.293,2.088c0.264,0.597,0.413,1.229,0.447,1.89c0.032,0.664,0.032,1.377,0,2.139
	c-0.034,0.763-0.05,1.708-0.05,2.834c0,1.856-0.017,3.664-0.05,5.42c-0.034,1.758-0.017,3.531,0.05,5.321c0,0.597,0,1.376,0,2.337
	c0,0.962,0.033,1.973,0.1,3.032c0.064,1.062,0.148,2.073,0.248,3.033c0.1,0.961,0.25,1.74,0.447,2.337L423.783,545.625z"/>
<path fill="#FFFFFF" stroke="#000000" stroke-width="2" d="M402.7,541.149c0.729-0.464,1.557-0.979,2.485-1.542
	c0.929-0.562,1.757-1.209,2.486-1.939c-0.597-3.513-0.945-7.026-1.044-10.542c-0.1-3.513-0.084-7.061,0.05-10.641
	c-2.982,0.53-5.668,1.823-8.055,3.878c-2.387,2.056-4.045,4.475-4.973,7.26c-0.397,1.128-0.73,2.287-0.994,3.479
	c-0.267,1.193-0.365,2.354-0.298,3.48c0.064,1.526,0.463,2.802,1.192,3.829s1.606,1.807,2.635,2.337
	c1.027,0.531,2.121,0.83,3.282,0.895C400.627,541.713,401.705,541.547,402.7,541.149z"/>
</svg>
