<?xml version="1.0" encoding="utf-8"?>
<!-- Generator: Adobe Illustrator 16.0.0, SVG Export Plug-In . SVG Version: 6.00 Build 0)  -->
<!DOCTYPE svg PUBLIC "-//W3C//DTD SVG 1.1//EN" "http://www.w3.org/Graphics/SVG/1.1/DTD/svg11.dtd">
<svg version="1.1" id="Layer_1" xmlns="http://www.w3.org/2000/svg" xmlns:xlink="http://www.w3.org/1999/xlink" x="0px" y="0px"
	 width="64px" height="64px" viewBox="0 0 64 64" enable-background="new 0 0 64 64" xml:space="preserve">
<g>
	<g>
		<path fill="#FAF9FB" stroke="#231F20" stroke-miterlimit="10" d="M43.511,19.185c0,0,2.902-11.145-7.013-13.801
			c-9.918-2.654-18.914,5.563-18.914,5.563S2.31,25.813,12.403,44.188C22.492,62.56,41.63,60.675,50.463,55.92
			c8.835-4.754,3.785-17.397-5.724-21.59C35.233,30.142,43.511,19.185,43.511,19.185z M48.737,43.851
			c1.828,3.166,1.046,7.037-1.744,8.648c-2.793,1.611-6.537,0.354-8.365-2.812c-1.827-3.166-1.047-7.039,1.746-8.651
			C43.164,39.425,46.909,40.685,48.737,43.851z"/>
	</g>
	<path fill="#F05A37" stroke="#231F20" stroke-miterlimit="10" d="M37.428,10.854c1.179,2.039,0.481,4.649-1.562,5.83
		c-2.04,1.178-4.652,0.478-5.83-1.562s-0.479-4.65,1.562-5.829C33.642,8.113,36.25,8.813,37.428,10.854z"/>
	<path fill="#FFCF63" stroke="#231F20" stroke-miterlimit="10" d="M26.274,14.878c1.181,2.042,0.482,4.652-1.561,5.832
		c-2.04,1.178-4.65,0.479-5.831-1.564c-1.176-2.037-0.475-4.646,1.563-5.824C22.492,12.142,25.099,12.84,26.274,14.878z"/>
	<path fill="#61C4B7" stroke="#231F20" stroke-miterlimit="10" d="M20.403,25.612c1.179,2.042,0.48,4.65-1.562,5.83
		c-2.04,1.178-4.65,0.479-5.83-1.562c-1.178-2.04-0.478-4.652,1.562-5.83C16.616,22.87,19.226,23.572,20.403,25.612z"/>
	<path fill="#60BA46" stroke="#231F20" stroke-miterlimit="10" d="M21.049,37.004c1.179,2.043,0.479,4.652-1.562,5.83
		c-2.041,1.179-4.65,0.479-5.83-1.562c-1.178-2.041-0.479-4.652,1.562-5.83C17.26,34.265,19.871,34.965,21.049,37.004z"/>
	<path fill="#BC569F" stroke="#231F20" stroke-miterlimit="10" d="M29.071,45.849c1.179,2.039,0.481,4.648-1.562,5.828
		c-2.04,1.178-4.649,0.479-5.827-1.562c-1.178-2.041-0.479-4.651,1.561-5.829C25.285,43.106,27.896,43.808,29.071,45.849z"/>
</g>
</svg>
